<svg width="140" height="64" viewBox="0 0 140 64" fill="none" xmlns="http://www.w3.org/2000/svg">
<g clip-path="url(#clip0_4264_131061)">
<path d="M101.707 36.7718C102.003 37.0031 102.281 37.2817 102.204 37.7086C102.174 37.8865 101.961 38.0466 101.76 37.8983C101.482 37.7027 101.269 37.4181 101.275 37.0624C101.275 36.843 101.476 36.76 101.713 36.7659" fill="#720D21"/>
<path d="M92.48 27.1897C92.6101 27.0889 92.7935 26.8636 92.8822 26.8933C93.2311 27.0297 93.5742 27.2312 93.6866 27.6166C93.7102 27.6937 93.4145 27.9842 93.3199 27.9605C92.9472 27.8656 92.6633 27.6107 92.48 27.1897Z" fill="#720D21"/>
<path d="M100.423 34.9336C100.784 34.987 100.926 35.313 101.039 35.6036C101.145 35.8704 100.926 36.0897 100.684 36.0541C100.323 35.9949 100.199 35.6213 100.098 35.319C100.045 35.153 100.145 34.9455 100.423 34.9336Z" fill="#720D21"/>
<path d="M96.2242 29.8516C96.514 30.0235 96.8156 30.2073 96.863 30.5808C96.8984 30.8239 96.6973 30.9425 96.4962 30.8891C96.1591 30.7943 95.8929 30.5512 95.8338 30.2014C95.7983 29.982 96.0231 29.899 96.2242 29.8575" fill="#720D21"/>
<path d="M91.8947 26.3136C91.8237 26.5152 91.6936 26.6575 91.4748 26.5744C91.1613 26.4499 90.8064 26.2839 90.7532 25.9341C90.7177 25.7207 90.9839 25.4895 91.25 25.6318C91.528 25.78 91.8888 25.8926 91.8947 26.3136Z" fill="#720D21"/>
<path d="M98.3948 32.2356C98.3415 32.4787 98.1404 32.5854 97.9689 32.5143C97.6554 32.3838 97.3834 32.1526 97.3715 31.7732C97.3597 31.5064 97.5845 31.4352 97.7678 31.5064C98.0931 31.6309 98.2883 31.9095 98.4007 32.2356" fill="#720D21"/>
<path d="M89.4044 24.4566C89.6706 24.5811 90.0314 24.6819 90.0669 25.0732C90.0728 25.1562 89.7179 25.3874 89.6528 25.3459C89.3926 25.1858 88.9372 25.174 88.9727 24.7056C88.9904 24.4803 89.1324 24.3736 89.4103 24.4507" fill="#720D21"/>
<path d="M88.1506 23.93C87.9968 24.2858 87.7662 24.2324 87.5414 24.1553C87.2752 24.0605 86.9677 23.9715 87.0327 23.598C87.0978 23.2304 87.364 23.3786 87.5769 23.4498C87.849 23.5387 88.0915 23.6573 88.1506 23.936" fill="#720D21"/>
<path d="M85.4951 22.5061C85.7553 22.6247 86.1634 22.6425 86.1161 23.0872C86.0983 23.3125 85.8381 23.3777 85.6843 23.2769C85.4418 23.1227 84.9509 23.1998 85.0337 22.7018C85.0692 22.4706 85.2821 22.4646 85.4951 22.5061Z" fill="#720D21"/>
<path d="M99.1516 33.0352C99.3941 33.3672 99.607 33.6163 99.7549 33.9008C99.7785 33.9483 99.5242 34.138 99.3941 34.2625C99.1811 34.0135 98.9446 33.7763 98.7671 33.4977C98.7375 33.4502 98.98 33.2309 99.1516 33.0293" fill="#720D21"/>
<path d="M95.2365 29.052C95.1715 29.3306 94.9408 29.3484 94.787 29.2654C94.5504 29.135 94.2429 28.9986 94.2961 28.631C94.3316 28.3939 94.5268 28.3049 94.7161 28.4176C94.9526 28.5658 95.2425 28.7081 95.2306 29.052" fill="#720D21"/>
<path d="M83.3892 21.7481C83.6495 21.8252 83.9334 21.8786 83.8446 22.1869C83.7914 22.3884 83.5667 22.4003 83.3774 22.3351C83.1999 22.2758 83.0107 22.1928 83.0225 21.9616C83.0343 21.677 83.2709 21.7778 83.3892 21.7422" fill="#720D21"/>
<path d="M64.279 17.3477C65.184 18.3022 66.3787 18.9484 67.8988 19.3338C68.7801 19.5591 69.6673 19.7133 70.5249 19.8674C73.0623 20.318 75.7179 20.8753 77.5396 22.7488C78.8941 24.1006 79.5979 25.7963 79.5506 26.6737C79.4737 28.0967 78.9946 29.5018 77.238 29.8931C75.3453 30.3141 73.5473 29.9346 72.1632 28.4524C71.0513 27.2607 70.4716 25.8022 70.3179 24.0532C65.2372 27.7765 60.3635 26.5137 55.1646 23.7745C58.3289 21.6342 61.1265 19.2034 64.279 17.3477Z" fill="#720D21"/>
<path d="M73.1036 12.996C72.7132 12.9308 72.3288 12.8715 71.9384 12.8122C70.2705 12.5573 68.7623 12.3261 67.3901 11.5909C66.3846 7.94464 65.3732 4.29247 64.3677 0.646225C69.7263 0.243063 74.6769 4.37547 76.3921 10.7312C78.2257 9.40314 80.2012 8.73911 82.4665 9.27271C85.1103 9.89524 85.9325 11.1225 85.4593 13.7846C85.0098 16.2688 82.6262 18.249 79.9114 18.498C78.9118 15.2846 76.8298 13.6423 73.1095 13.0079" fill="#720D21"/>
<path d="M64.7109 12.2732C65.0658 12.5578 65.4266 12.8068 65.7992 13.0261C65.9825 13.1329 66.1659 13.2337 66.3552 13.3285C66.3611 13.3285 66.3729 13.3344 66.3788 13.3404C66.5563 13.4293 66.7396 13.5123 66.9171 13.5894C67.1359 13.6842 67.3547 13.7673 67.5736 13.8384C68.1177 14.0281 68.6678 14.1763 69.2238 14.2949C69.6141 14.3779 70.0045 14.4491 70.3949 14.5202C70.9804 14.621 71.5719 14.704 72.1574 14.7929C72.3526 14.8226 72.5478 14.8582 72.743 14.8878C73.1097 14.953 73.4587 15.0242 73.7899 15.1072C74.1211 15.1902 74.4346 15.285 74.7303 15.3858C74.9255 15.457 75.1148 15.5281 75.2981 15.6111C75.6589 15.7712 75.9901 15.955 76.2918 16.1625C76.4456 16.2633 76.5875 16.3759 76.7235 16.4945C77.0015 16.7258 77.2499 16.9866 77.4688 17.2771C77.8059 17.7099 78.0839 18.208 78.3205 18.7831C78.3441 18.8364 78.3619 18.8898 78.3796 18.9431C78.6044 19.5301 78.7818 20.2001 78.9238 20.953C78.9593 21.1309 78.9888 21.3147 79.0184 21.5103C75.931 18.3384 72.0214 18.4926 68.443 17.5854C67.3725 17.3127 66.509 16.8977 65.811 16.2989C64.6163 15.2673 63.942 13.6783 63.6699 11.2949C64.013 11.6625 64.3619 11.9886 64.7168 12.2732" fill="#CF9B47"/>
<path d="M9.65144 51.7891V51.0243C11.0769 50.8108 11.2425 50.55 10.8876 49.548C10.6274 48.7594 10.2252 47.6448 9.7934 46.5006H5.0676C4.76003 47.3602 4.42881 48.2851 4.139 49.2397C3.7368 50.5262 3.85509 50.8108 5.58808 51.0243V51.7891H0.341797V51.0243C1.88552 50.8345 2.19308 50.5974 3.00339 48.546L7.8948 36.2377L8.94169 35.9531C10.4381 40.0974 11.9345 44.384 13.4782 48.4749C14.2649 50.5678 14.5724 50.8583 16.0925 51.0243V51.7891H9.65736H9.65144ZM7.51626 39.8602H7.46894C6.75327 41.6923 6.11449 43.5539 5.45205 45.3385H9.42077L7.52217 39.8602H7.51626Z" fill="#231F20"/>
<path d="M28.7319 46.9385C27.6732 47.0986 27.6022 47.1875 27.6022 48.231V49.7369C27.6022 50.3535 27.6199 50.9227 27.7264 51.4029C26.6322 51.6697 25.1831 52.0551 23.7695 52.0551C19.8836 52.0551 17.293 49.6302 17.293 46.1263C17.293 42.0235 20.5756 40.0195 24.0357 40.0195C25.5025 40.0195 26.8629 40.4108 27.4248 40.5353C27.478 41.1519 27.5667 42.1302 27.7087 43.2982L27.2177 43.4049C26.7919 41.2468 25.4493 40.6598 23.7754 40.6598C21.0724 40.6598 19.0969 42.6401 19.0969 45.9128C19.0969 48.4622 20.5993 51.4326 24.0061 51.4326C24.6035 51.4326 25.1535 51.3081 25.5439 51.1124C25.8988 50.9168 26.1117 50.7033 26.1117 49.9622V48.4563C26.1117 47.1816 25.9875 47.0749 24.2604 46.9326V46.4523H28.7437V46.9326L28.7319 46.9385Z" fill="#231F20"/>
<path d="M29.8086 51.7892V51.2911C31.2577 51.1844 31.3996 51.0777 31.3996 49.5777V42.4986C31.3996 40.9927 31.2577 40.886 29.8086 40.7793V40.2812H34.4871V40.7793C33.038 40.886 32.896 40.9927 32.896 42.4986V49.5777C32.896 51.1014 33.038 51.1903 34.4871 51.2911V51.7892H29.8086Z" fill="#231F20"/>
<path d="M47.8481 40.7851C46.8604 40.8385 46.4345 41.0697 46.3636 41.8464C46.2926 42.38 46.2571 43.1745 46.2571 44.8168V51.9492H45.713L38.1954 42.6764H38.16V47.1171C38.16 48.7476 38.2132 49.5954 38.2664 50.1053C38.3551 51.0065 38.7632 51.2199 39.9639 51.2911V51.7891H35.7823V51.2911C36.8055 51.2377 37.2491 51.0065 37.3378 50.1409C37.3911 49.5895 37.4443 48.7417 37.4443 47.1171V43.2219C37.4443 41.9294 37.4088 41.8583 37.0894 41.4373C36.7345 40.9926 36.3501 40.8503 35.5161 40.7851V40.2871H38.1304L45.4941 49.1685H45.5473V44.8168C45.5473 43.1863 45.4764 42.3741 45.4231 41.882C45.3344 41.0875 44.9086 40.8563 43.6961 40.7851V40.2871H47.86V40.7851H47.8481Z" fill="#231F20"/>
<path d="M60.3632 46.9385C59.3045 47.0986 59.2335 47.1875 59.2335 48.231V49.7369C59.2335 50.3535 59.2513 50.9227 59.3577 51.4029C58.2635 51.6697 56.8144 52.0551 55.4008 52.0551C51.5149 52.0551 48.9243 49.6302 48.9243 46.1263C48.9243 42.0235 52.2069 40.0195 55.667 40.0195C57.1338 40.0195 58.4942 40.4108 59.0561 40.5353C59.1093 41.1519 59.1981 42.1302 59.34 43.2982L58.8432 43.4049C58.4173 41.2468 57.0806 40.6598 55.4008 40.6598C52.6979 40.6598 50.7224 42.6401 50.7224 45.9128C50.7224 48.4622 52.2247 51.4326 55.6315 51.4326C56.2289 51.4326 56.779 51.3081 57.1693 51.1124C57.5242 50.9168 57.7371 50.7033 57.7371 49.9622V48.4563C57.7371 47.1816 57.6129 47.0749 55.8859 46.9326V46.4523H60.3691V46.9326L60.3632 46.9385Z" fill="#231F20"/>
<path d="M77.8 43.8856C77.8 49.0318 74.1448 52.1504 69.7206 52.1504C65.2964 52.1504 61.7891 48.7235 61.7891 44.1524C61.7891 39.9844 64.7346 35.9824 70.0104 35.9824C74.2394 35.9824 77.8 39.1721 77.8 43.8856ZM64.9948 43.601C64.9948 47.8164 67.0117 51.1959 70.176 51.1959C72.5774 51.1959 74.5943 48.9785 74.5943 44.5496C74.5943 39.6939 72.4354 36.931 69.5372 36.931C67.0649 36.931 65.0007 39.3619 65.0007 43.601H64.9948Z" fill="#720D21"/>
<path d="M83.9748 40.2871C85.2287 40.2871 86.2342 40.5005 86.9381 41.0282C87.6242 41.544 88.0855 42.3563 88.0855 43.5243C88.0855 45.8069 86.3525 46.9215 84.6432 47.1527C84.377 47.1705 84.0458 47.1705 83.8506 47.1527L82.5435 46.8148V49.5954C82.5435 51.1013 82.7032 51.1903 84.2942 51.297V51.795H79.5093V51.297C80.9229 51.1903 81.0648 51.048 81.0648 49.5835V42.5045C81.0648 40.9452 80.9229 40.8741 79.6157 40.7851V40.2871H83.9748ZM82.5435 46.2337C82.7742 46.3227 83.2473 46.4472 83.8329 46.4472C84.9803 46.4472 86.3939 45.8306 86.3939 43.5836C86.3939 41.6745 85.1755 40.8563 83.7264 40.8563C83.2296 40.8563 82.8629 40.9452 82.7387 41.0697C82.5967 41.1942 82.5435 41.4077 82.5435 41.8998V46.2337Z" fill="#720D21"/>
<path d="M98.6728 43.0315C98.4776 42.1836 98.3179 41.739 98.105 41.4544C97.8211 41.0275 97.5253 40.903 96.2005 40.903H94.9466V49.6065C94.9466 51.0058 95.0885 51.1836 96.7624 51.2844V51.7824H91.6935V51.2844C93.3023 51.1777 93.4442 50.9998 93.4442 49.6065V40.903H92.35C90.8832 40.903 90.5342 41.0453 90.3036 41.4544C90.0906 41.7567 89.9487 42.2488 89.7358 43.0315H89.2212C89.3099 41.9702 89.3986 40.82 89.4341 39.8477H89.789C90.0374 40.2567 90.2681 40.2923 90.759 40.2923H97.7324C98.2114 40.2923 98.3475 40.1856 98.6314 39.8477H99.004C99.004 40.6599 99.0927 41.9524 99.1814 42.9781L98.6669 43.0315H98.6728Z" fill="#720D21"/>
<path d="M100.299 51.7892V51.2911C101.748 51.1844 101.89 51.0777 101.89 49.5777V42.4986C101.89 40.9927 101.748 40.886 100.299 40.7793V40.2812H104.978V40.7793C103.529 40.886 103.387 40.9927 103.387 42.4986V49.5777C103.387 51.1014 103.529 51.1903 104.978 51.2911V51.7892H100.299Z" fill="#720D21"/>
<path d="M112.176 40.0195C115.157 40.0195 117.86 42.3555 117.86 45.895C117.86 49.7191 115.192 52.0551 111.963 52.0551C108.733 52.0551 106.226 49.5591 106.226 46.1618C106.226 42.978 108.449 40.0195 112.158 40.0195H112.176ZM111.791 40.6598C109.834 40.6598 108.03 42.3614 108.03 45.6697C108.03 48.978 109.845 51.4207 112.335 51.4207C114.293 51.4207 116.062 49.7725 116.062 46.3753C116.062 42.6401 114.122 40.6598 111.809 40.6598H111.791Z" fill="#720D21"/>
<path d="M131.186 40.7851C130.198 40.8385 129.772 41.0697 129.701 41.8464C129.63 42.38 129.595 43.1745 129.595 44.8168V51.9492H129.05L121.533 42.6764H121.497V47.1171C121.497 48.7476 121.551 49.5954 121.604 50.1053C121.693 51.0065 122.101 51.2199 123.301 51.2911V51.7891H119.12V51.2911C120.143 51.2377 120.587 51.0065 120.675 50.1409C120.728 49.5895 120.782 48.7417 120.782 47.1171V43.2219C120.782 41.9294 120.746 41.8583 120.427 41.4373C120.072 40.9926 119.687 40.8503 118.854 40.7851V40.2871H121.468L128.832 49.1685H128.885V44.8168C128.885 43.1863 128.814 42.3741 128.761 41.882C128.672 41.0875 128.246 40.8563 127.033 40.7851V40.2871H131.197V40.7851H131.186Z" fill="#720D21"/>
<path d="M138.318 42.9781C137.999 41.8457 137.544 40.6243 136.006 40.6243C134.645 40.6243 134.048 41.6145 134.048 42.569C134.048 43.8615 134.894 44.4603 136.29 45.1896C137.668 45.8951 139.342 46.7311 139.342 48.7113C139.342 50.567 137.768 52.0552 135.42 52.0552C134.699 52.0552 134.131 51.9129 133.693 51.7884C133.25 51.6283 132.989 51.5038 132.83 51.4149C132.688 51.0413 132.457 49.5236 132.351 48.6698L132.865 48.5453C133.149 49.6243 133.942 51.4089 135.757 51.4089C137.082 51.4089 137.875 50.5789 137.875 49.2864C137.875 47.9939 136.905 47.3595 135.58 46.6481C134.45 46.0492 132.67 45.1599 132.67 43.1619C132.67 41.4603 134.03 40.0137 136.307 40.0137C137.118 40.0137 137.863 40.2093 138.531 40.4228C138.602 41.0572 138.691 41.7508 138.833 42.8655L138.318 42.9722V42.9781Z" fill="#720D21"/>
<path d="M25.2603 59.4609H1.16406V59.8167H25.2603V59.4609Z" fill="#720E22"/>
<path d="M139.306 59.6387H115.399V59.9944H139.306V59.6387Z" fill="#720E22"/>
<path d="M29.9092 55.8926H30.6663V61.1515H33.18V61.7918H29.9092V55.8926Z" fill="#720D21"/>
<path d="M34.3154 59.8108C34.3332 60.8543 34.9956 61.2811 35.7645 61.2811C36.3146 61.2811 36.6458 61.1863 36.9356 61.0618L37.0658 61.6132C36.7937 61.7377 36.3323 61.874 35.6581 61.874C34.3568 61.874 33.582 61.0143 33.582 59.7396C33.582 58.4649 34.3332 57.457 35.5634 57.457C36.9415 57.457 37.3083 58.6724 37.3083 59.4491C37.3083 59.6092 37.2905 59.7278 37.2846 59.8049H34.3154V59.8108ZM36.5689 59.2594C36.5748 58.7673 36.3678 58.0084 35.5043 58.0084C34.7295 58.0084 34.3864 58.7258 34.3273 59.2594H36.5689Z" fill="#720D21"/>
<path d="M40.5971 61.7852L40.538 61.2516H40.5143C40.2777 61.5836 39.8223 61.88 39.2249 61.88C38.3673 61.88 37.9355 61.2753 37.9355 60.6646C37.9355 59.6389 38.8405 59.0816 40.4729 59.0875V58.9986C40.4729 58.6488 40.3783 58.0203 39.5148 58.0203C39.1244 58.0203 38.7104 58.1448 38.4146 58.3346L38.2431 57.8247C38.5921 57.5994 39.1007 57.4512 39.633 57.4512C40.9224 57.4512 41.2359 58.3346 41.2359 59.1824V60.7654C41.2359 61.133 41.2537 61.4887 41.3069 61.7792H40.609L40.5971 61.7852ZM40.4848 59.6271C39.6449 59.6093 38.6985 59.7575 38.6985 60.5816C38.6985 61.0796 39.0298 61.3168 39.4201 61.3168C39.9702 61.3168 40.3191 60.967 40.4434 60.6053C40.467 60.5282 40.4848 60.4393 40.4848 60.3622V59.6271Z" fill="#720D21"/>
<path d="M42.4662 58.874C42.4662 58.376 42.4602 57.9491 42.4307 57.5519H43.1049L43.1286 58.3819H43.1641C43.3533 57.8128 43.8206 57.457 44.3352 57.457C44.4239 57.457 44.483 57.463 44.554 57.4807V58.2041C44.4771 58.1863 44.3943 58.1803 44.2938 58.1803C43.7496 58.1803 43.3711 58.5894 43.2646 59.1705C43.2469 59.2772 43.2291 59.3958 43.2291 59.5321V61.791H42.4721V58.88L42.4662 58.874Z" fill="#720D21"/>
<path d="M45.3524 58.6962C45.3524 58.2574 45.3465 57.9017 45.3169 57.5519H45.9971L46.0385 58.2515H46.0562C46.2632 57.8483 46.7542 57.457 47.4521 57.457C48.0376 57.457 48.9426 57.8068 48.9426 59.2594V61.7851H48.1737V59.3424C48.1737 58.6606 47.9193 58.0914 47.1978 58.0914C46.6891 58.0914 46.2987 58.4471 46.1686 58.88C46.1331 58.9748 46.1154 59.1053 46.1154 59.2357V61.7792H45.3465V58.6902L45.3524 58.6962Z" fill="#720D21"/>
<path d="M58.9501 58.7791C58.9501 60.8068 57.7199 61.8858 56.2176 61.8858C54.7153 61.8858 53.5737 60.6763 53.5737 58.8917C53.5737 57.0182 54.733 55.7969 56.3063 55.7969C57.8796 55.7969 58.9501 57.0301 58.9501 58.7791ZM54.3899 58.874C54.3899 60.1309 55.0701 61.2633 56.2649 61.2633C57.4597 61.2633 58.1517 60.1546 58.1517 58.8147C58.1517 57.6408 57.5425 56.4194 56.2767 56.4194C55.011 56.4194 54.3899 57.5815 54.3899 58.8799V58.874Z" fill="#720D21"/>
<path d="M59.908 58.874C59.908 58.376 59.9021 57.9491 59.8726 57.5519H60.5468L60.5705 58.3819H60.606C60.8012 57.8128 61.2625 57.457 61.7771 57.457C61.8658 57.457 61.9249 57.463 61.9959 57.4807V58.2041C61.919 58.1863 61.8362 58.1803 61.7357 58.1803C61.1915 58.1803 60.813 58.5894 60.7065 59.1705C60.6888 59.2772 60.671 59.3958 60.671 59.5321V61.791H59.914V58.88L59.908 58.874Z" fill="#720D21"/>
<path d="M66.3436 57.5518C66.3258 57.8601 66.3081 58.1981 66.3081 58.7139V61.1744C66.3081 62.1467 66.1188 62.7396 65.7048 63.1072C65.2967 63.4925 64.6993 63.617 64.167 63.617C63.6347 63.617 63.1023 63.4925 62.7593 63.2672L62.9486 62.6803C63.2265 62.8522 63.6642 63.0123 64.1906 63.0123C64.9773 63.0123 65.551 62.6032 65.551 61.536V61.0617H65.5333C65.2967 61.453 64.8412 61.7732 64.1906 61.7732C63.1437 61.7732 62.3926 60.8838 62.3926 59.7099C62.3926 58.2751 63.3271 57.4629 64.2971 57.4629C65.0305 57.4629 65.4327 57.8483 65.6161 58.1981H65.6338L65.6693 57.5578H66.3436V57.5518ZM65.551 59.2238C65.551 59.0933 65.5451 58.9807 65.5096 58.874C65.3676 58.4293 64.995 58.0617 64.439 58.0617C63.7056 58.0617 63.1851 58.6842 63.1851 59.6625C63.1851 60.4925 63.6051 61.1862 64.4331 61.1862C64.9063 61.1862 65.3322 60.8898 65.4978 60.3977C65.5392 60.2672 65.5569 60.119 65.5569 59.9886V59.2297L65.551 59.2238Z" fill="#720D21"/>
<path d="M69.9218 61.7852L69.8627 61.2516H69.839C69.6025 61.5836 69.147 61.88 68.5496 61.88C67.692 61.88 67.2603 61.2753 67.2603 60.6646C67.2603 59.6389 68.1652 59.0816 69.7976 59.0875V58.9986C69.7976 58.6488 69.703 58.0203 68.8395 58.0203C68.4491 58.0203 68.0351 58.1448 67.7393 58.3346L67.5619 57.8247C67.9109 57.5994 68.4195 57.4512 68.9518 57.4512C70.2412 57.4512 70.5547 58.3346 70.5547 59.1824V60.7654C70.5547 61.133 70.5725 61.4887 70.6257 61.7792H69.9278L69.9218 61.7852ZM69.8095 59.6271C68.9696 59.6093 68.0173 59.7575 68.0173 60.5816C68.0173 61.0796 68.3485 61.3168 68.7389 61.3168C69.289 61.3168 69.6379 60.967 69.7621 60.6053C69.7858 60.5282 69.8036 60.4393 69.8036 60.3622V59.6271H69.8095Z" fill="#720D21"/>
<path d="M71.785 58.6962C71.785 58.2574 71.7791 57.9017 71.7495 57.5519H72.4297L72.4711 58.2515H72.4888C72.6959 57.8483 73.1868 57.457 73.8847 57.457C74.4702 57.457 75.3752 57.8068 75.3752 59.2594V61.7851H74.6063V59.3424C74.6063 58.6606 74.352 58.0914 73.6304 58.0914C73.1217 58.0914 72.7313 58.4471 72.6012 58.88C72.5657 58.9748 72.548 59.1053 72.548 59.2357V61.7792H71.7791V58.6902L71.785 58.6962Z" fill="#720D21"/>
<path d="M77.4864 56.3611C77.4983 56.622 77.3031 56.8354 76.9955 56.8354C76.7234 56.8354 76.5342 56.6279 76.5342 56.3611C76.5342 56.0943 76.7353 55.8809 77.0133 55.8809C77.2913 55.8809 77.4864 56.0884 77.4864 56.3611ZM76.6288 61.786V57.5528H77.3977V61.786H76.6288Z" fill="#720D21"/>
<path d="M78.5687 60.9965C78.7935 61.1447 79.1957 61.3048 79.5801 61.3048C80.1361 61.3048 80.4023 61.0261 80.4023 60.6763C80.4023 60.3087 80.1834 60.1072 79.6156 59.8996C78.8585 59.6269 78.4977 59.206 78.4977 58.702C78.4977 58.0202 79.0478 57.4629 79.9528 57.4629C80.3786 57.4629 80.7571 57.5874 80.9937 57.7238L80.8045 58.2811C80.6388 58.1744 80.3313 58.038 79.9409 58.038C79.4855 58.038 79.2312 58.2989 79.2312 58.6131C79.2312 58.9629 79.4855 59.123 80.0356 59.3305C80.769 59.6091 81.1416 59.9767 81.1416 60.6052C81.1416 61.3463 80.5679 61.874 79.5624 61.874C79.101 61.874 78.6752 61.7613 78.3735 61.5834L78.5628 60.9965H78.5687Z" fill="#720D21"/>
<path d="M82.5552 59.8108C82.5729 60.8543 83.2354 61.2811 84.0043 61.2811C84.5543 61.2811 84.8856 61.1863 85.1754 61.0618L85.3055 61.6132C85.0334 61.7377 84.5721 61.874 83.8978 61.874C82.5966 61.874 81.8218 61.0143 81.8218 59.7396C81.8218 58.4649 82.5729 57.457 83.8032 57.457C85.1813 57.457 85.548 58.6724 85.548 59.4491C85.548 59.6092 85.5303 59.7278 85.5243 59.8049H82.5552V59.8108ZM84.8087 59.2594C84.8146 58.7673 84.6076 58.0084 83.744 58.0084C82.9692 58.0084 82.6262 58.7258 82.567 59.2594H84.8087Z" fill="#720D21"/>
<path d="M94.7043 61.5256C94.3612 61.6501 93.6929 61.8517 92.9003 61.8517C92.0131 61.8517 91.2797 61.6264 90.7001 61.075C90.1914 60.5829 89.8779 59.8003 89.8779 58.8813C89.8838 57.1205 91.0904 55.8398 93.0659 55.8398C93.7461 55.8398 94.2784 55.9881 94.5328 56.1126L94.3494 56.7351C94.0359 56.5928 93.6396 56.4802 93.0482 56.4802C91.6168 56.4802 90.6823 57.3754 90.6823 58.8517C90.6823 60.328 91.5813 61.2292 92.9535 61.2292C93.4504 61.2292 93.7934 61.158 93.9649 61.0691V59.3082H92.7702V58.6976H94.7102V61.5315L94.7043 61.5256Z" fill="#720D21"/>
<path d="M99.3706 60.6299C99.3706 61.0686 99.3765 61.454 99.4061 61.786H98.7259L98.6845 61.0923H98.6668C98.4657 61.4362 98.0221 61.8809 97.2709 61.8809C96.6085 61.8809 95.8159 61.5133 95.8159 60.0251V57.5469H96.5848V59.8888C96.5848 60.6951 96.8273 61.2346 97.5252 61.2346C98.0398 61.2346 98.4006 60.8789 98.5367 60.535C98.5781 60.4224 98.6076 60.2801 98.6076 60.1437V57.5469H99.3765V60.624L99.3706 60.6299Z" fill="#720D21"/>
<path d="M101.5 56.3611C101.512 56.622 101.317 56.8354 101.009 56.8354C100.737 56.8354 100.548 56.6279 100.548 56.3611C100.548 56.0943 100.749 55.8809 101.027 55.8809C101.305 55.8809 101.5 56.0884 101.5 56.3611ZM100.648 61.786V57.5528H101.417V61.786H100.648Z" fill="#720D21"/>
<path d="M106.338 55.5782V60.6948C106.338 61.0683 106.344 61.5011 106.374 61.7857H105.682L105.646 61.0505H105.628C105.392 61.5248 104.877 61.8806 104.191 61.8806C103.168 61.8806 102.387 61.015 102.387 59.7284C102.381 58.3173 103.251 57.4517 104.28 57.4517C104.925 57.4517 105.362 57.76 105.552 58.098H105.569V55.5723H106.338V55.5782ZM105.569 59.2778C105.569 59.1829 105.563 59.0525 105.534 58.9517C105.421 58.4596 105.002 58.0565 104.428 58.0565C103.635 58.0565 103.162 58.7561 103.162 59.6928C103.162 60.5525 103.582 61.258 104.41 61.258C104.925 61.258 105.398 60.9142 105.534 60.3391C105.557 60.2323 105.569 60.1316 105.569 60.007V59.2719V59.2778Z" fill="#720D21"/>
<path d="M108.036 59.8108C108.053 60.8543 108.716 61.2811 109.485 61.2811C110.035 61.2811 110.366 61.1863 110.656 61.0618L110.786 61.6132C110.514 61.7377 110.053 61.874 109.378 61.874C108.077 61.874 107.302 61.0143 107.302 59.7396C107.302 58.4649 108.053 57.457 109.284 57.457C110.662 57.457 111.028 58.6724 111.028 59.4491C111.028 59.6092 111.011 59.7278 111.005 59.8049H108.036V59.8108ZM110.289 59.2594C110.295 58.7673 110.088 58.0084 109.225 58.0084C108.45 58.0084 108.107 58.7258 108.047 59.2594H110.289Z" fill="#720D21"/>
<path d="M52.4024 59.6398C52.4024 60.0608 52.0594 60.4046 51.6395 60.4046C51.2195 60.4046 50.8765 60.0608 50.8765 59.6398C50.8765 59.2189 51.2195 58.875 51.6395 58.875C52.0594 58.875 52.4024 59.2189 52.4024 59.6398Z" fill="#720D21"/>
<path d="M88.6236 59.4601C88.6236 59.8811 88.2806 60.225 87.8607 60.225C87.4407 60.225 87.0977 59.8811 87.0977 59.4601C87.0977 59.0392 87.4407 58.6953 87.8607 58.6953C88.2806 58.6953 88.6236 59.0392 88.6236 59.4601Z" fill="#720D21"/>
</g>
<defs>
<clipPath id="clip0_4264_131061">
<rect width="139" height="63" fill="white" transform="translate(0.341797 0.617188)"/>
</clipPath>
</defs>
</svg>
