<svg width="294" height="236" viewBox="0 0 294 236" fill="none" xmlns="http://www.w3.org/2000/svg">
<g clip-path="url(#clip0_4264_131125)">
<path d="M293.921 205.973C293.354 207.582 292.316 208.718 290.571 208.056C288.07 207.062 285.239 205.736 284.815 202.944C284.531 201.24 286.655 199.394 288.778 200.53C290.995 201.713 293.873 202.612 293.921 205.973Z" fill="black" fill-opacity="0.03"/>
<path d="M274.057 191.16C276.18 192.154 279.058 192.959 279.341 196.082C279.389 196.745 276.558 198.591 276.039 198.26C273.963 196.982 270.33 196.887 270.613 193.148C270.754 191.349 271.887 190.497 274.104 191.113" fill="black" fill-opacity="0.03"/>
<path d="M264.102 186.946C262.875 189.786 261.035 189.36 259.242 188.745C257.119 187.988 254.666 187.278 255.185 184.296C255.704 181.361 257.827 182.544 259.525 183.112C261.696 183.822 263.63 184.769 264.102 186.994" fill="black" fill-opacity="0.03"/>
<path d="M242.87 175.588C244.946 176.534 248.202 176.676 247.824 180.226C247.683 182.025 245.607 182.546 244.38 181.741C242.445 180.51 238.529 181.126 239.19 177.15C239.473 175.304 241.172 175.257 242.87 175.588Z" fill="black" fill-opacity="0.03"/>
<path d="M226.12 169.528C228.196 170.143 230.461 170.569 229.753 173.03C229.329 174.64 227.536 174.734 226.026 174.214C224.611 173.74 223.101 173.078 223.195 171.232C223.289 168.96 225.177 169.764 226.12 169.48" fill="black" fill-opacity="0.03"/>
<path d="M73.6283 134.408C80.8471 142.029 90.3779 147.188 102.504 150.264C109.534 152.063 116.611 153.293 123.452 154.524C143.694 158.121 164.878 162.57 179.41 177.527C190.215 188.319 195.83 201.855 195.452 208.86C194.839 220.22 191.017 231.437 177.004 234.561C161.906 237.922 147.562 234.893 136.522 223.06C127.652 213.546 123.028 201.903 121.801 187.94C81.2718 217.664 42.3938 207.582 0.920898 185.715C26.1632 168.629 48.4803 149.223 73.6283 134.408Z" fill="black" fill-opacity="0.03"/>
<path d="M144.024 99.6667C140.91 99.1461 137.843 98.6728 134.729 98.1995C121.424 96.1642 109.392 94.3183 98.4462 88.4492C90.3781 59.3404 82.3572 30.1844 74.2891 1.07559C117.036 -2.14294 156.527 30.847 170.21 81.5862C184.836 70.9839 200.595 65.6828 218.666 69.9427C239.756 74.9125 246.314 84.71 242.54 105.962C238.954 125.794 219.94 141.602 198.283 143.59C190.31 117.937 173.701 104.826 144.024 99.7614" fill="black" fill-opacity="0.03"/>
<path d="M77.0726 93.8936C79.9035 96.1656 82.7816 98.1535 85.7541 99.9047C87.2167 100.757 88.6793 101.561 90.1892 102.319C90.2363 102.319 90.3307 102.366 90.3779 102.413C91.7933 103.123 93.256 103.786 94.6715 104.401C96.4172 105.158 98.1629 105.821 99.9086 106.389C104.249 107.904 108.637 109.087 113.072 110.034C116.186 110.696 119.3 111.264 122.414 111.832C127.085 112.637 131.804 113.299 136.475 114.009C138.032 114.246 139.589 114.53 141.146 114.767C144.071 115.287 146.855 115.855 149.497 116.518C152.139 117.181 154.64 117.938 156.999 118.743C158.556 119.311 160.066 119.879 161.528 120.541C164.406 121.819 167.049 123.286 169.455 124.943C170.682 125.748 171.814 126.647 172.899 127.594C175.117 129.439 177.098 131.522 178.844 133.841C181.533 137.296 183.751 141.272 185.638 145.863C185.827 146.289 185.969 146.715 186.11 147.141C187.903 151.827 189.318 157.176 190.451 163.187C190.734 164.607 190.97 166.074 191.206 167.636C166.577 142.314 135.389 143.544 106.844 136.303C98.3045 134.125 91.4159 130.812 85.8484 126.032C76.3177 117.796 70.9389 105.111 68.7686 86.084C71.5051 89.0185 74.2888 91.6217 77.1198 93.8936" fill="black" fill-opacity="0.03"/>
</g>
<defs>
<clipPath id="clip0_4264_131125">
<rect width="293" height="235" fill="white" transform="translate(0.920898 0.839844)"/>
</clipPath>
</defs>
</svg>
