<svg width="79" height="37" viewBox="0 0 79 37" fill="none" xmlns="http://www.w3.org/2000/svg">
<g clip-path="url(#clip0_2919_31388)">
<path d="M57.574 21.1004C57.741 21.2344 57.8985 21.3932 57.8548 21.6363C57.8359 21.7396 57.7182 21.8276 57.6025 21.7453C57.4431 21.6324 57.3236 21.4717 57.3255 21.2688C57.3293 21.1425 57.4393 21.0966 57.574 21.1004Z" fill="white"/>
<path d="M52.3333 15.6254C52.4073 15.568 52.5135 15.4378 52.5609 15.457C52.7583 15.5335 52.9537 15.6522 53.0201 15.8703C53.0334 15.9143 52.8645 16.0808 52.8114 16.0674C52.5989 16.0139 52.4376 15.8684 52.3333 15.6254Z" fill="white"/>
<path d="M56.8434 20.0498C57.0484 20.0785 57.1281 20.2661 57.1945 20.4345C57.2552 20.5875 57.13 20.7138 56.9914 20.6909C56.7846 20.6564 56.7163 20.444 56.6575 20.2718C56.6271 20.1761 56.6841 20.0594 56.8434 20.0498Z" fill="white"/>
<path d="M54.4584 17.1448C54.6235 17.2443 54.7943 17.3495 54.8227 17.56C54.8417 17.6978 54.7298 17.7686 54.6159 17.7361C54.4243 17.6806 54.2725 17.5447 54.2383 17.3419C54.2175 17.2175 54.3465 17.1697 54.4584 17.1448Z" fill="white"/>
<path d="M52.0012 15.124C51.9632 15.2407 51.8874 15.3211 51.764 15.2732C51.5838 15.2043 51.3845 15.1067 51.3542 14.9077C51.3352 14.7852 51.4851 14.6532 51.635 14.7336C51.7925 14.8178 51.9974 14.8809 52.0012 15.124Z" fill="white"/>
<path d="M55.6917 18.5074C55.6613 18.6471 55.5456 18.7083 55.4488 18.6682C55.2704 18.5954 55.1186 18.4615 55.1073 18.2433C55.0997 18.0902 55.2268 18.052 55.3312 18.0921C55.5152 18.1649 55.6291 18.3218 55.6917 18.5074Z" fill="white"/>
<path d="M50.5857 14.0619C50.7356 14.1346 50.9406 14.1901 50.9614 14.414C50.9671 14.4618 50.7622 14.5939 50.7242 14.5709C50.5762 14.4771 50.3182 14.4733 50.3372 14.2073C50.3486 14.0772 50.432 14.0179 50.5857 14.0619Z" fill="white"/>
<path d="M49.874 13.7615C49.7848 13.9643 49.6577 13.9356 49.5287 13.8897C49.3788 13.8342 49.2004 13.7863 49.2403 13.572C49.2782 13.3615 49.4262 13.4457 49.5477 13.4859C49.7033 13.5337 49.8418 13.6026 49.874 13.7615Z" fill="white"/>
<path d="M48.3637 12.9481C48.5117 13.017 48.7413 13.0266 48.7185 13.2792C48.7071 13.4074 48.5629 13.4457 48.4737 13.3882C48.3371 13.2983 48.0563 13.3461 48.1037 13.061C48.1246 12.9271 48.2422 12.9251 48.3637 12.9481Z" fill="white"/>
<path d="M56.1223 18.9647C56.2608 19.1542 56.3804 19.2977 56.4657 19.4604C56.479 19.4852 56.3329 19.5962 56.2608 19.669C56.1394 19.5254 56.0047 19.3915 55.906 19.2326C55.8889 19.2058 56.0255 19.0815 56.1223 18.9647Z" fill="white"/>
<path d="M53.8987 16.6893C53.8608 16.8482 53.7298 16.8596 53.6444 16.8118C53.5097 16.7372 53.3352 16.6587 53.3674 16.4482C53.3883 16.3104 53.4983 16.2607 53.6046 16.3276C53.7393 16.4137 53.9025 16.4941 53.8987 16.6893Z" fill="white"/>
<path d="M47.1704 12.5156C47.3184 12.5616 47.4777 12.5883 47.4303 12.7682C47.4 12.8831 47.2709 12.8907 47.1647 12.8543C47.0622 12.8199 46.956 12.7721 46.9616 12.6419C46.9711 12.4774 47.104 12.5348 47.1704 12.5156Z" fill="white"/>
<path d="M36.315 10.0011C36.8292 10.5465 37.5066 10.9177 38.37 11.1378C38.8709 11.266 39.3737 11.3541 39.8595 11.4421C41.3015 11.6985 42.81 12.02 43.8441 13.0898C44.6125 13.8629 45.0148 14.8312 44.9882 15.3307C44.9446 16.144 44.6714 16.9477 43.6752 17.1716C42.5994 17.4128 41.5785 17.1965 40.7911 16.3487C40.1592 15.6675 39.8291 14.8331 39.7418 13.8342C36.8558 15.9641 34.0893 15.2407 31.135 13.6754C32.9357 12.4506 34.5238 11.0594 36.315 10.0011Z" fill="white"/>
<path d="M41.328 7.51523C41.1079 7.47695 40.8878 7.44442 40.6658 7.40997C39.7189 7.26453 38.8613 7.13249 38.0814 6.71148C37.5084 4.62749 36.9373 2.54159 36.3643 0.455689C39.4078 0.226048 42.2179 2.58752 43.195 6.21776C44.2348 5.45994 45.36 5.07912 46.6446 5.38339C48.1474 5.73934 48.6141 6.44166 48.3428 7.96111C48.0886 9.38106 46.7338 10.5139 45.1912 10.6536C44.6219 8.81461 43.4398 7.875 41.328 7.51523Z" fill="white"/>
<path d="M36.5598 7.0981C36.7628 7.26267 36.9677 7.40429 37.1764 7.52868C37.2808 7.58991 37.3852 7.64732 37.4914 7.70091C37.4952 7.70282 37.5009 7.70473 37.5047 7.70665C37.6072 7.75832 37.7096 7.80616 37.8121 7.84826C37.9354 7.90184 38.0607 7.94777 38.1859 7.99178C38.4952 8.10086 38.8063 8.18506 39.1213 8.25396C39.3433 8.3018 39.5653 8.3439 39.7873 8.38217C40.1213 8.43767 40.4552 8.48742 40.7892 8.53909C40.8992 8.55632 41.0112 8.57545 41.1212 8.59268C41.3299 8.62904 41.5292 8.66922 41.717 8.71707C41.9049 8.76491 42.0813 8.81849 42.2502 8.87781C42.3622 8.918 42.4684 8.9601 42.5709 9.00603C42.7758 9.09789 42.9636 9.20122 43.1363 9.32179C43.2217 9.38111 43.3033 9.44426 43.383 9.50933C43.5386 9.64328 43.6809 9.79064 43.808 9.95712C43.9996 10.204 44.159 10.491 44.29 10.8183L44.3241 10.9101C44.4512 11.2469 44.5537 11.6278 44.6315 12.0583C44.6505 12.1617 44.6694 12.265 44.6865 12.376C42.9333 10.5638 40.7114 10.6518 38.6811 10.1332C38.0739 9.97818 37.5806 9.74088 37.1859 9.39833C36.5085 8.80892 36.1234 7.90184 35.9678 6.53931C36.1594 6.74981 36.3567 6.93544 36.5598 7.0981Z" fill="white"/>
<path d="M5.28817 29.6832V29.2469C6.09838 29.1244 6.19135 28.9752 5.99022 28.403C5.84222 27.9533 5.61263 27.3141 5.36976 26.6615H2.68488C2.51032 27.1514 2.32057 27.6815 2.15929 28.2269C1.9297 28.9618 1.99801 29.1244 2.98278 29.2469V29.6832H0V29.2469C0.876618 29.1378 1.05308 29.002 1.51036 27.8327L4.29012 20.798L4.88402 20.6354C5.73407 23.0026 6.58412 25.4521 7.46074 27.7925C7.90664 28.9905 8.08121 29.1531 8.94454 29.2488V29.6851H5.28817V29.6832ZM4.07381 22.8667H4.04724C3.64309 23.9154 3.27878 24.9756 2.90119 25.9956H5.15535L4.07571 22.8667H4.07381Z" fill="white"/>
<path d="M16.1265 26.9122C15.525 27.004 15.4851 27.0538 15.4851 27.6509V28.5101C15.4851 28.8641 15.4946 29.1875 15.5554 29.4612C14.933 29.6124 14.1114 29.8363 13.3088 29.8363C11.104 29.8363 9.62964 28.4508 9.62964 26.4491C9.62964 24.1029 11.4948 22.9604 13.4606 22.9604C14.2936 22.9604 15.0639 23.1824 15.3865 23.2532C15.4168 23.6073 15.4662 24.1641 15.5478 24.8301L15.2669 24.8913C15.026 23.657 14.2651 23.324 13.3126 23.324C11.7794 23.324 10.6562 24.4569 10.6562 26.3266C10.6562 27.7829 11.5081 29.4822 13.4435 29.4822C13.785 29.4822 14.0943 29.4114 14.3163 29.3004C14.5174 29.1895 14.637 29.067 14.637 28.6441V27.7848C14.637 27.0576 14.5668 26.9964 13.5839 26.916V26.6424H16.1303V26.916L16.1265 26.9122Z" fill="white"/>
<path d="M16.7375 29.6832V29.3999C17.5591 29.3387 17.6407 29.2794 17.6407 28.4182V24.3727C17.6407 23.5135 17.561 23.4522 16.7375 23.391V23.1078H19.394V23.391C18.5724 23.4522 18.4908 23.5116 18.4908 24.3727V28.4182C18.4908 29.287 18.5705 29.3387 19.394 29.3999V29.6832H16.7375Z" fill="white"/>
<path d="M26.9855 23.3929C26.4238 23.4235 26.1829 23.5556 26.143 23.9996C26.1032 24.3019 26.0823 24.7574 26.0823 25.6989V29.7731H25.7711L21.5 24.4741H21.4791V27.0117C21.4791 27.9417 21.5095 28.4278 21.5398 28.7206C21.5891 29.2354 21.8206 29.3578 22.5018 29.398V29.6813H20.1262V29.398C20.7068 29.3674 20.9592 29.2354 21.0085 28.7416C21.0389 28.4278 21.0692 27.9436 21.0692 27.0117V24.788C21.0692 24.0493 21.0484 24.0091 20.8681 23.7661C20.667 23.5135 20.4469 23.4331 19.9763 23.391V23.1078H21.4601L25.6402 28.1848H25.6705V25.697C25.6705 24.7669 25.6307 24.3019 25.6003 24.0187C25.551 23.5632 25.31 23.4312 24.6175 23.391V23.1078H26.9836V23.391L26.9855 23.3929Z" fill="white"/>
<path d="M34.0933 26.9122C33.4918 27.004 33.4519 27.0538 33.4519 27.6509V28.5101C33.4519 28.8641 33.4614 29.1875 33.5221 29.4612C32.8998 29.6124 32.0782 29.8363 31.2756 29.8363C29.0707 29.8363 27.5964 28.4508 27.5964 26.4491C27.5964 24.1029 29.4616 22.9604 31.4274 22.9604C32.2603 22.9604 33.0307 23.1824 33.3533 23.2532C33.3836 23.6073 33.433 24.1641 33.5146 24.8301L33.2337 24.8913C32.9928 23.657 32.2319 23.324 31.2794 23.324C29.7462 23.324 28.623 24.4569 28.623 26.3266C28.623 27.7829 29.4749 29.4822 31.4103 29.4822C31.7518 29.4822 32.0611 29.4114 32.2831 29.3004C32.4842 29.1895 32.6038 29.067 32.6038 28.6441V27.7848C32.6038 27.0576 32.5336 26.9964 31.5507 26.916V26.6424H34.0971V26.916L34.0933 26.9122Z" fill="white"/>
<path d="M44.0661 25.165C44.0661 28.1044 41.9884 29.8861 39.4781 29.8861C36.9678 29.8861 34.9717 27.9265 34.9717 25.3143C34.9717 22.9337 36.6452 20.6469 39.6394 20.6469C42.0415 20.6469 44.0642 22.4706 44.0642 25.165H44.0661ZM36.7951 25.0024C36.7951 27.4117 37.9412 29.3426 39.7362 29.3426C41.0985 29.3426 42.2465 28.0776 42.2465 25.5459C42.2465 22.7691 41.0188 21.1922 39.3718 21.1922C37.9677 21.1922 36.7951 22.5797 36.7951 25.0024Z" fill="white"/>
<path d="M47.5708 23.1098C48.2824 23.1098 48.8535 23.2304 49.2557 23.5347C49.6466 23.8275 49.9066 24.2925 49.9066 24.9603C49.9066 26.2655 48.9237 26.9027 47.9522 27.0329C47.8023 27.0424 47.6107 27.0424 47.5006 27.0329L46.7587 26.8415V28.4298C46.7587 29.2891 46.8498 29.3407 47.7511 29.4001V29.6833H45.0339V29.4001C45.8366 29.3388 45.9162 29.2585 45.9162 28.4184V24.3728C45.9162 23.483 45.8366 23.4428 45.0947 23.3911V23.1079H47.5708V23.1098ZM46.7587 26.5085C46.8896 26.5583 47.1591 26.6291 47.4911 26.6291C48.1419 26.6291 48.9446 26.275 48.9446 24.991C48.9446 23.8983 48.252 23.4332 47.4304 23.4332C47.1496 23.4332 46.939 23.483 46.8688 23.5538C46.7891 23.6246 46.7587 23.7452 46.7587 24.0284V26.5066V26.5085Z" fill="white"/>
<path d="M55.9233 24.6771C55.8133 24.191 55.7222 23.9384 55.6027 23.7777C55.4433 23.5346 55.2725 23.4638 54.5192 23.4638H53.8077V28.4394C53.8077 29.2374 53.8874 29.3388 54.8399 29.4V29.6832H51.9615V29.4C52.8741 29.3388 52.9538 29.2374 52.9538 28.4394V23.4638H52.3315C51.4985 23.4638 51.2993 23.5442 51.1683 23.7777C51.0488 23.9499 50.9672 24.2331 50.8477 24.6771H50.5574C50.6067 24.0704 50.6579 23.4121 50.6769 22.8572H50.878C51.0185 23.0906 51.1494 23.1098 51.4302 23.1098H55.3902C55.6615 23.1098 55.7412 23.0485 55.9025 22.8572H56.1131C56.1131 23.3222 56.1624 24.0609 56.2136 24.6465L55.9233 24.6771Z" fill="white"/>
<path d="M56.8435 29.6833V29.4001C57.6651 29.3388 57.7467 29.2795 57.7467 28.4184V24.3728C57.7467 23.5136 57.667 23.4524 56.8435 23.3911V23.1079H59.4999V23.3911C58.6783 23.4524 58.5986 23.5117 58.5986 24.3728V28.4184C58.5986 29.2872 58.6783 29.3388 59.4999 29.4001V29.6833H56.8435Z" fill="white"/>
<path d="M63.5815 22.9586C65.276 22.9586 66.811 24.2943 66.811 26.3152C66.811 28.4987 65.2968 29.8344 63.462 29.8344C61.6272 29.8344 60.2041 28.4087 60.2041 26.4663C60.2041 24.6464 61.4678 22.9567 63.5721 22.9567H63.5815V22.9586ZM63.3614 23.3222C62.2476 23.3222 61.2268 24.2924 61.2268 26.1831C61.2268 28.0738 62.259 29.4689 63.6726 29.4689C64.7864 29.4689 65.7883 28.5293 65.7883 26.5869C65.7883 24.4532 64.6859 23.3203 63.3728 23.3203H63.3633L63.3614 23.3222Z" fill="white"/>
<path d="M74.3683 23.393C73.8066 23.4237 73.5657 23.5557 73.5258 23.9997C73.486 24.302 73.4651 24.7575 73.4651 25.699V29.7732H73.1539L68.8828 24.4743H68.8619V27.0118C68.8619 27.9418 68.8923 28.4279 68.9226 28.7207C68.972 29.2355 69.2034 29.358 69.8846 29.3982V29.6814H67.509V29.3982C68.0896 29.3675 68.342 29.2355 68.3913 28.7418C68.4217 28.4279 68.4521 27.9438 68.4521 27.0118V24.7881C68.4521 24.0494 68.4312 24.0093 68.2509 23.7662C68.0498 23.5136 67.8297 23.4332 67.3591 23.3911V23.1079H68.8429L73.023 28.1849H73.0534V25.6971C73.0534 24.7671 73.0135 24.302 72.9832 24.0188C72.9338 23.5634 72.6928 23.4313 72.0003 23.3911V23.1079H74.3664V23.3911L74.3683 23.393Z" fill="white"/>
<path d="M78.4195 24.6484C78.2393 24.0016 77.9774 23.3031 77.1065 23.3031C76.3342 23.3031 75.9927 23.8696 75.9927 24.415C75.9927 25.1536 76.4747 25.4962 77.2659 25.9115C78.0476 26.3152 79.0002 26.7917 79.0002 27.9246C79.0002 28.9867 78.1084 29.8364 76.7745 29.8364C76.3627 29.8364 76.042 29.756 75.7916 29.6852C75.5411 29.5934 75.3912 29.5226 75.3001 29.4728C75.2204 29.2604 75.0895 28.3916 75.0288 27.9055L75.3191 27.8347C75.4804 28.4509 75.9301 29.4728 76.9642 29.4728C77.7156 29.4728 78.1672 28.9982 78.1672 28.2595C78.1672 27.5209 77.615 27.1573 76.8636 26.7535C76.2223 26.409 75.2091 25.9038 75.2091 24.7613C75.2091 23.7911 75.9813 22.9606 77.2735 22.9606C77.7346 22.9606 78.1558 23.0716 78.5372 23.194C78.577 23.5576 78.6283 23.9519 78.7079 24.5891L78.4176 24.6503L78.4195 24.6484Z" fill="white"/>
<path d="M14.1569 34.0656H0.46875V34.2684H14.1569V34.0656Z" fill="white"/>
<path d="M78.9298 34.167H65.3499V34.3698H78.9298V34.167Z" fill="white"/>
<path d="M16.7944 32.0256H17.2251V35.0301H18.652V35.3956H16.7925V32.0256H16.7944Z" fill="white"/>
<path d="M19.2934 34.2666C19.3029 34.8617 19.6805 35.1067 20.1169 35.1067C20.43 35.1067 20.6178 35.0512 20.781 34.9823L20.855 35.298C20.7013 35.3689 20.4395 35.4473 20.0562 35.4473C19.3181 35.4473 18.876 34.9574 18.876 34.2264C18.876 33.4954 19.3029 32.9213 20.0012 32.9213C20.7848 32.9213 20.9916 33.6159 20.9916 34.0618C20.9916 34.1518 20.9821 34.2226 20.9764 34.2666H19.2915H19.2934ZM20.5723 33.9508C20.578 33.6714 20.4584 33.2351 19.967 33.2351C19.5249 33.2351 19.3333 33.6446 19.2972 33.9508H20.5704H20.5723Z" fill="white"/>
<path d="M22.8605 35.3956L22.8263 35.0913H22.8111C22.6764 35.2807 22.4203 35.4511 22.0768 35.4511C21.5911 35.4511 21.3425 35.1066 21.3425 34.7564C21.3425 34.1708 21.8586 33.8512 22.7846 33.857V33.8072C22.7846 33.6082 22.7296 33.2465 22.24 33.2465C22.0161 33.2465 21.7846 33.3173 21.6158 33.4264L21.5171 33.1374C21.7144 33.0073 22.0028 32.9231 22.3045 32.9231C23.0388 32.9231 23.2172 33.4283 23.2172 33.9125V34.8176C23.2172 35.0281 23.2267 35.2329 23.257 35.3975H22.8605V35.3956ZM22.796 34.1612C22.3197 34.1517 21.7789 34.2359 21.7789 34.7066C21.7789 34.9918 21.9668 35.1276 22.1907 35.1276C22.5038 35.1276 22.7011 34.9286 22.7713 34.7219C22.7865 34.676 22.796 34.6263 22.796 34.5822V34.1632V34.1612Z" fill="white"/>
<path d="M23.9211 33.7308C23.9211 33.4456 23.9154 33.2007 23.9021 32.9768H24.2835L24.2987 33.4514H24.3176C24.4258 33.126 24.6895 32.9213 24.9817 32.9213C25.0311 32.9213 25.0652 32.927 25.1051 32.9366V33.3518C25.0595 33.3423 25.0159 33.3365 24.9571 33.3365C24.6497 33.3365 24.4315 33.5719 24.3727 33.9011C24.3632 33.9604 24.3537 34.0312 24.3537 34.1058V35.3956H23.923V33.7308H23.9211Z" fill="white"/>
<path d="M25.5624 33.6312C25.5624 33.3805 25.5567 33.1758 25.5435 32.9768H25.9305L25.9552 33.3767H25.9647C26.0842 33.1471 26.3613 32.9213 26.7578 32.9213C27.0899 32.9213 27.606 33.1203 27.606 33.9508V35.3956H27.1696V34.0006C27.1696 33.6102 27.0254 33.2849 26.6136 33.2849C26.3252 33.2849 26.1032 33.4896 26.0292 33.7346C26.0102 33.7901 25.9988 33.8647 25.9988 33.9393V35.3937H25.5624V33.6293V33.6312Z" fill="white"/>
<path d="M33.2851 33.6771C33.2851 34.8368 32.5868 35.4511 31.733 35.4511C30.8791 35.4511 30.2302 34.7622 30.2302 33.7422C30.2302 32.7222 30.8886 31.972 31.7823 31.972C32.676 31.972 33.2851 32.6763 33.2851 33.6771ZM30.6932 33.7307C30.6932 34.4503 31.0803 35.0952 31.7596 35.0952C32.4388 35.0952 32.8297 34.4598 32.8297 33.6963C32.8297 33.0265 32.4825 32.3261 31.7634 32.3261C31.0442 32.3261 30.6932 32.9901 30.6932 33.7307Z" fill="white"/>
<path d="M33.8295 33.7308C33.8295 33.4456 33.8238 33.2007 33.8105 32.9768H34.1919L34.2071 33.4514H34.2261C34.3342 33.126 34.598 32.9213 34.8902 32.9213C34.9395 32.9213 34.9737 32.927 35.0135 32.9366V33.3518C34.968 33.3423 34.9243 33.3365 34.8655 33.3365C34.5581 33.3365 34.3399 33.5719 34.2811 33.9011C34.2716 33.9604 34.2621 34.0312 34.2621 34.1058V35.3956H33.8314V33.7308H33.8295Z" fill="white"/>
<path d="M37.4785 32.9767C37.469 33.1508 37.4595 33.346 37.4595 33.6407V35.0454C37.4595 35.6003 37.3514 35.941 37.118 36.1495C36.8846 36.3696 36.5487 36.4404 36.2451 36.4404C35.9416 36.4404 35.6399 36.3696 35.4463 36.2414L35.5545 35.9065C35.7139 36.006 35.9605 36.096 36.2584 36.096C36.7043 36.096 37.0326 35.8606 37.0326 35.2501V34.9803H37.0231C36.8884 35.2061 36.6322 35.386 36.2603 35.386C35.6664 35.386 35.2395 34.877 35.2395 34.2072C35.2395 33.3862 35.7689 32.9231 36.3191 32.9231C36.7347 32.9231 36.9643 33.1432 37.0667 33.3422H37.0762L37.0952 32.9767H37.4766H37.4785ZM37.0269 33.9316C37.0269 33.857 37.0212 33.7919 37.0022 33.7326C36.9225 33.4781 36.71 33.2676 36.3931 33.2676C35.9776 33.2676 35.6797 33.6235 35.6797 34.1823C35.6797 34.6569 35.9169 35.0511 36.3894 35.0511C36.6569 35.0511 36.8998 34.8808 36.9946 34.6014C37.0193 34.5268 37.0288 34.4406 37.0288 34.366V33.9316H37.0269Z" fill="white"/>
<path d="M39.5106 35.3956L39.4765 35.0913H39.4613C39.3266 35.2807 39.0704 35.4511 38.727 35.4511C38.2412 35.4511 37.9927 35.1066 37.9927 34.7564C37.9927 34.1708 38.5088 33.8512 39.4347 33.857V33.8072C39.4347 33.6082 39.3797 33.2465 38.8902 33.2465C38.6663 33.2465 38.4348 33.3173 38.2659 33.4264L38.1672 33.1374C38.3646 33.0073 38.653 32.9231 38.9547 32.9231C39.689 32.9231 39.8673 33.4283 39.8673 33.9125V34.8176C39.8673 35.0281 39.8768 35.2329 39.9072 35.3975H39.5106V35.3956ZM39.4461 34.1612C38.9699 34.1517 38.431 34.2359 38.431 34.7066C38.431 34.9918 38.6188 35.1276 38.8427 35.1276C39.1558 35.1276 39.3531 34.9286 39.4233 34.7219C39.4385 34.676 39.448 34.6263 39.448 34.5822V34.1632L39.4461 34.1612Z" fill="white"/>
<path d="M40.5712 33.6312C40.5712 33.3805 40.5655 33.1758 40.5522 32.9768H40.9393L40.964 33.3767H40.9735C41.093 33.1471 41.37 32.9213 41.7666 32.9213C42.0987 32.9213 42.6148 33.1203 42.6148 33.9508V35.3956H42.1784V34.0006C42.1784 33.6102 42.0341 33.2849 41.6224 33.2849C41.3359 33.2849 41.112 33.4896 41.038 33.7346C41.019 33.7901 41.0076 33.8647 41.0076 33.9393V35.3937H40.5712V33.6293V33.6312Z" fill="white"/>
<path d="M43.8082 32.2974C43.8139 32.4467 43.7038 32.5672 43.5311 32.5672C43.3774 32.5672 43.2693 32.4467 43.2693 32.2974C43.2693 32.1482 43.3831 32.0219 43.5425 32.0219C43.7019 32.0219 43.8101 32.1424 43.8101 32.2974H43.8082ZM43.3224 35.3957V32.9768H43.7588V35.3957H43.3224Z" fill="white"/>
<path d="M44.4231 34.9459C44.5521 35.032 44.7798 35.122 44.998 35.122C45.3149 35.122 45.4648 34.9612 45.4648 34.7622C45.4648 34.5517 45.3415 34.4369 45.0189 34.3163C44.5882 34.1613 44.3851 33.9221 44.3851 33.6312C44.3851 33.2408 44.6982 32.9213 45.2124 32.9213C45.4553 32.9213 45.6678 32.9921 45.8025 33.0705L45.6944 33.3901C45.5995 33.3308 45.4268 33.2504 45.2029 33.2504C44.9449 33.2504 44.8007 33.4016 44.8007 33.5796C44.8007 33.7786 44.9449 33.8704 45.2561 33.9891C45.6716 34.1498 45.886 34.3584 45.886 34.7182C45.886 35.143 45.5597 35.4435 44.9885 35.4435C44.7267 35.4435 44.4838 35.3784 44.3149 35.2789L44.425 34.944L44.4231 34.9459Z" fill="white"/>
<path d="M46.6867 34.2666C46.6962 34.8617 47.0738 35.1067 47.5102 35.1067C47.8233 35.1067 48.0111 35.0512 48.1743 34.9823L48.2483 35.298C48.0946 35.3689 47.8328 35.4473 47.4495 35.4473C46.7114 35.4473 46.2693 34.9574 46.2693 34.2264C46.2693 33.4954 46.6962 32.9213 47.3945 32.9213C48.1781 32.9213 48.3849 33.6159 48.3849 34.0618C48.3849 34.1518 48.3754 34.2226 48.3698 34.2666H46.6848H46.6867ZM47.9656 33.9508C47.9713 33.6714 47.8518 33.2351 47.3603 33.2351C46.9201 33.2351 46.7266 33.6446 46.6905 33.9508H47.9637H47.9656Z" fill="white"/>
<path d="M53.5878 35.2464C53.3942 35.3172 53.0128 35.432 52.5612 35.432C52.0565 35.432 51.6391 35.3019 51.3127 34.9861C51.0243 34.7067 50.8459 34.257 50.8459 33.7307C50.8516 32.7261 51.5347 31.9912 52.6561 31.9912C53.0432 31.9912 53.3449 32.0754 53.4891 32.1462L53.3847 32.5002C53.2064 32.4199 52.9825 32.3548 52.6466 32.3548C51.8345 32.3548 51.3032 32.8638 51.3032 33.7097C51.3032 34.5555 51.8136 35.0703 52.5916 35.0703C52.8743 35.0703 53.0679 35.0301 53.1665 34.9804V33.9757H52.4872V33.6255H53.5878V35.2445V35.2464Z" fill="white"/>
<path d="M56.2385 34.7354C56.2385 34.9842 56.2442 35.2062 56.2575 35.3957H55.8704L55.8457 35.0014H55.8362C55.7224 35.1966 55.47 35.4511 55.0431 35.4511C54.6655 35.4511 54.2158 35.2406 54.2158 34.391V32.9768H54.6522V34.3163C54.6522 34.7756 54.7907 35.0856 55.1873 35.0856C55.4795 35.0856 55.6825 34.8809 55.7622 34.6857C55.7869 34.6206 55.8021 34.5402 55.8021 34.4599V32.9749H56.2385V34.7354Z" fill="white"/>
<path d="M57.449 32.2974C57.4547 32.4467 57.3447 32.5672 57.172 32.5672C57.0183 32.5672 56.9102 32.4467 56.9102 32.2974C56.9102 32.1482 57.024 32.0219 57.1834 32.0219C57.3428 32.0219 57.4509 32.1424 57.4509 32.2974H57.449ZM56.9633 35.3957V32.9768H57.3997V35.3957H56.9633Z" fill="white"/>
<path d="M60.1947 31.8477V34.7717C60.1947 34.9861 60.2004 35.231 60.2136 35.3975H59.8228L59.8038 34.9784H59.7943C59.6596 35.2483 59.3674 35.453 58.9765 35.453C58.3959 35.453 57.95 34.9574 57.95 34.2225C57.9443 33.4169 58.4414 32.9231 59.0258 32.9231C59.3921 32.9231 59.6406 33.0973 59.7488 33.2925H59.7583V31.8477H60.1947ZM59.7583 33.9623C59.7583 33.9068 59.7526 33.8321 59.7393 33.7766C59.6748 33.4972 59.4376 33.2657 59.1093 33.2657C58.6577 33.2657 58.3902 33.6656 58.3902 34.2015C58.3902 34.6914 58.6274 35.0971 59.0998 35.0971C59.3921 35.0971 59.6596 34.9019 59.7393 34.5727C59.7545 34.5134 59.7583 34.4522 59.7583 34.3833V33.9642V33.9623Z" fill="white"/>
<path d="M61.1604 34.2666C61.1698 34.8617 61.5474 35.1067 61.9838 35.1067C62.2969 35.1067 62.4848 35.0512 62.648 34.9823L62.722 35.298C62.5683 35.3689 62.3064 35.4473 61.9231 35.4473C61.185 35.4473 60.7429 34.9574 60.7429 34.2264C60.7429 33.4954 61.1698 32.9213 61.8681 32.9213C62.6517 32.9213 62.8586 33.6159 62.8586 34.0618C62.8586 34.1518 62.8491 34.2226 62.8434 34.2666H61.1585H61.1604ZM62.4392 33.9508C62.4449 33.6714 62.3254 33.2351 61.8339 33.2351C61.3918 33.2351 61.2002 33.6446 61.1642 33.9508H62.4373H62.4392Z" fill="white"/>
<path d="M29.1352 34.6052C29.3752 34.6052 29.5697 34.409 29.5697 34.167C29.5697 33.925 29.3752 33.7288 29.1352 33.7288C28.8952 33.7288 28.7007 33.925 28.7007 34.167C28.7007 34.409 28.8952 34.6052 29.1352 34.6052Z" fill="white"/>
<path d="M49.7092 34.5038C49.9491 34.5038 50.1437 34.3076 50.1437 34.0656C50.1437 33.8235 49.9491 33.6273 49.7092 33.6273C49.4692 33.6273 49.2747 33.8235 49.2747 34.0656C49.2747 34.3076 49.4692 34.5038 49.7092 34.5038Z" fill="white"/>
</g>
<defs>
<clipPath id="clip0_2919_31388">
<rect width="79" height="36" fill="white" transform="translate(0 0.44043)"/>
</clipPath>
</defs>
</svg>
