<svg width="46" height="46" viewBox="0 0 46 46" fill="none" xmlns="http://www.w3.org/2000/svg">
<circle cx="22.6299" cy="22.6299" r="22.6299" fill="#720C20"/>
<path d="M27.5 13V15M22.5 13V15M17.5 13V15M18.5 26H22.5M18.5 21H26.5M14 21C14 17.7 14 16.05 15.025 15.025C16.05 14 17.7 14 21 14H24C27.3 14 28.95 14 29.975 15.025C31 16.05 31 17.7 31 21V26C31 29.3 31 30.95 29.975 31.975C28.95 33 27.3 33 24 33H21C17.7 33 16.05 33 15.025 31.975C14 30.95 14 29.3 14 26V21Z" stroke="white" stroke-width="1.8" stroke-linecap="round" stroke-linejoin="round"/>
</svg>
