<svg width="45" height="48" viewBox="0 0 45 48" fill="none" xmlns="http://www.w3.org/2000/svg">
<path d="M39.96 42.6216H4.67578C4.12354 42.6216 3.67578 42.1738 3.67578 41.6216V26.2881C3.67578 24.6338 5.02148 23.2881 6.67578 23.2881H37.96C39.6143 23.2881 40.96 24.6338 40.96 26.2881V41.6216C40.96 42.1738 40.5122 42.6216 39.96 42.6216ZM5.67578 40.6216H38.96V26.2881C38.96 25.7368 38.5112 25.2881 37.96 25.2881H6.67578C6.12451 25.2881 5.67578 25.7368 5.67578 26.2881V40.6216Z" fill="#720C20"/>
<path d="M40.6382 47.9648H3.9976C3.63578 47.9648 3.30229 47.7695 3.12553 47.4541L0.127972 42.1104C-0.0458557 41.8008 -0.0424377 41.4219 0.13725 41.1157C0.316449 40.8096 0.645062 40.6211 1.00004 40.6211H43.6358C43.9908 40.6211 44.3194 40.8096 44.4986 41.1157C44.6783 41.4219 44.6817 41.8008 44.5079 42.1104L41.5103 47.4541C41.3335 47.7695 41 47.9648 40.6382 47.9648ZM4.58305 45.9648H40.0528L41.9283 42.6211H2.70756L4.58305 45.9648Z" fill="#720C20"/>
<path d="M24.9614 25.2881H19.6743C19.1221 25.2881 18.6743 24.8403 18.6743 24.2881V10.7578C18.6743 9.10352 20.02 7.75781 21.6743 7.75781H22.9614C24.6157 7.75781 25.9614 9.10352 25.9614 10.7578V24.2881C25.9614 24.8403 25.5137 25.2881 24.9614 25.2881ZM20.6743 23.2881H23.9614V10.7578C23.9614 10.2065 23.5127 9.75781 22.9614 9.75781H21.6743C21.123 9.75781 20.6743 10.2065 20.6743 10.7578V23.2881Z" fill="#720C20"/>
<path d="M22.3179 9.75757C20.4443 9.75757 18.9204 8.23364 18.9204 6.36011C18.9204 4.87866 20.8613 1.46753 21.4561 0.457764C21.8154 -0.152588 22.8203 -0.152588 23.1797 0.457764C23.7744 1.46753 25.7153 4.87866 25.7153 6.36011C25.7153 8.23364 24.1914 9.75757 22.3179 9.75757ZM22.3179 3.02124C21.5508 4.47778 20.9204 5.89868 20.9204 6.36011C20.9204 7.13062 21.5474 7.75757 22.3179 7.75757C23.0884 7.75757 23.7153 7.13062 23.7153 6.36011C23.7153 5.89868 23.085 4.47778 22.3179 3.02124Z" fill="#720C20"/>
<path d="M14.9614 25.2881H9.67432C9.12207 25.2881 8.67432 24.8403 8.67432 24.2881V16.7578C8.67432 15.1035 10.02 13.7578 11.6743 13.7578H12.9614C14.6157 13.7578 15.9614 15.1035 15.9614 16.7578V24.2881C15.9614 24.8403 15.5137 25.2881 14.9614 25.2881ZM10.6743 23.2881H13.9614V16.7578C13.9614 16.2065 13.5127 15.7578 12.9614 15.7578H11.6743C11.123 15.7578 10.6743 16.2065 10.6743 16.7578V23.2881Z" fill="#720C20"/>
<path d="M12.3179 15.7576C10.4443 15.7576 8.92041 14.2336 8.92041 12.3601C8.92041 10.8787 10.8613 7.46753 11.4561 6.45776C11.8154 5.84741 12.8203 5.84741 13.1797 6.45776C13.7744 7.46753 15.7153 10.8787 15.7153 12.3601C15.7153 14.2336 14.1914 15.7576 12.3179 15.7576ZM12.3179 9.02124C11.5508 10.4778 10.9204 11.8987 10.9204 12.3601C10.9204 13.1306 11.5474 13.7576 12.3179 13.7576C13.0884 13.7576 13.7153 13.1306 13.7153 12.3601C13.7153 11.8987 13.085 10.4778 12.3179 9.02124Z" fill="#720C20"/>
<path d="M34.9614 25.2881H29.6743C29.1221 25.2881 28.6743 24.8403 28.6743 24.2881V16.7578C28.6743 15.1035 30.02 13.7578 31.6743 13.7578H32.9614C34.6157 13.7578 35.9614 15.1035 35.9614 16.7578V24.2881C35.9614 24.8403 35.5137 25.2881 34.9614 25.2881ZM30.6743 23.2881H33.9614V16.7578C33.9614 16.2065 33.5127 15.7578 32.9614 15.7578H31.6743C31.123 15.7578 30.6743 16.2065 30.6743 16.7578V23.2881Z" fill="#720C20"/>
<path d="M32.3179 15.7576C30.4443 15.7576 28.9204 14.2336 28.9204 12.3601C28.9204 10.8787 30.8613 7.46753 31.4561 6.45776C31.8154 5.84741 32.8203 5.84741 33.1797 6.45776C33.7744 7.46753 35.7153 10.8787 35.7153 12.3601C35.7153 14.2336 34.1914 15.7576 32.3179 15.7576ZM32.3179 9.02124C31.5508 10.4778 30.9204 11.8987 30.9204 12.3601C30.9204 13.1306 31.5474 13.7576 32.3179 13.7576C33.0884 13.7576 33.7153 13.1306 33.7153 12.3601C33.7153 11.8987 33.085 10.4778 32.3179 9.02124Z" fill="#720C20"/>
<path d="M22.3179 32.6941C21.6924 32.6941 21.1045 32.4504 20.6626 32.0085L19.2349 30.5808C19.103 30.449 18.8857 30.448 18.752 30.5808L17.3247 32.0085C16.4116 32.9207 14.9263 32.9202 14.0142 32.009L12.5864 30.5808C12.4526 30.448 12.2363 30.448 12.1035 30.5808L10.6758 32.0085C9.7627 32.9216 8.27832 32.9216 7.36523 32.0085L5.9375 30.5808C5.76367 30.407 5.62842 30.4075 5.45557 30.5803C5.06494 30.9719 4.43115 30.9709 4.0415 30.5813C3.65039 30.1907 3.65039 29.5579 4.04053 29.1672C4.92529 28.2815 6.46729 28.2815 7.35205 29.1672L8.7793 30.5945C8.91211 30.7273 9.12891 30.7273 9.26172 30.5945L10.6895 29.1667C11.6021 28.2542 13.0869 28.2532 14.0005 29.1667L15.4277 30.5945C15.5605 30.7273 15.7773 30.7278 15.9111 30.594L17.3379 29.1667C18.251 28.2537 19.7358 28.2537 20.6489 29.1667L22.0767 30.5945C22.2505 30.7673 22.3853 30.7673 22.5591 30.5945L23.9868 29.1667C24.8994 28.2542 26.3843 28.2532 27.2979 29.1667L28.7251 30.5945C28.8579 30.7273 29.0747 30.7278 29.2085 30.594L30.6353 29.1667C31.5483 28.2537 33.0332 28.2537 33.9463 29.1667L35.374 30.5945C35.5068 30.7273 35.7231 30.7278 35.8569 30.594L37.2842 29.1667C38.168 28.282 39.7104 28.2815 40.5952 29.1672C40.9854 29.5579 40.9854 30.1907 40.5942 30.5813C40.2046 30.9709 39.5708 30.9719 39.1802 30.5803C39.0073 30.4075 38.8716 30.4075 38.6987 30.5803L37.2705 32.0085C36.3579 32.9207 34.8726 32.9207 33.96 32.0085L32.5322 30.5808C32.4004 30.449 32.1831 30.448 32.0493 30.5808L30.6221 32.0085C29.7095 32.9207 28.2241 32.9202 27.3115 32.009L25.8838 30.5808C25.75 30.448 25.5337 30.448 25.4009 30.5808L23.9731 32.0085C23.5313 32.4504 22.9434 32.6941 22.3179 32.6941Z" fill="#720C20"/>
</svg>
