<svg width="17" height="17" viewBox="0 0 17 17" fill="none" xmlns="http://www.w3.org/2000/svg">
<path d="M15.3866 3.77333H11.0533V2.90666C11.0529 2.4011 10.8519 1.91634 10.4945 1.55885C10.137 1.20137 9.65221 1.00037 9.14664 1H7.75998C7.25442 1.00037 6.76966 1.20137 6.41217 1.55885C6.05469 1.91634 5.85369 2.4011 5.85332 2.90666V3.77333H1.52C1.38209 3.77333 1.24982 3.82811 1.1523 3.92563C1.05479 4.02315 1 4.15541 1 4.29332C1 4.43124 1.05479 4.5635 1.1523 4.66102C1.24982 4.75854 1.38209 4.81332 1.52 4.81332H2.44768L3.47381 13.0217C3.57434 13.8177 3.96162 14.5499 4.56312 15.0809C5.16463 15.612 5.93909 15.9055 6.74148 15.9066H10.1651C10.9675 15.9055 11.742 15.612 12.3435 15.0809C12.945 14.5499 13.3323 13.8177 13.4328 13.0217L14.459 4.81332H15.3866C15.5245 4.81332 15.6568 4.75854 15.7543 4.66102C15.8518 4.5635 15.9066 4.43124 15.9066 4.29332C15.9066 4.15541 15.8518 4.02315 15.7543 3.92563C15.6568 3.82811 15.5245 3.77333 15.3866 3.77333ZM6.89332 2.90666C6.89368 2.67692 6.98511 2.45669 7.14756 2.29424C7.31001 2.13179 7.53024 2.04036 7.75998 2.04H9.14664C9.37639 2.04036 9.59661 2.13179 9.75906 2.29424C9.92152 2.45669 10.0129 2.67692 10.0133 2.90666V3.77333H6.89332V2.90666ZM12.4005 12.8906C12.3316 13.4352 12.0667 13.9361 11.6553 14.2994C11.2438 14.6627 10.7141 14.8637 10.1651 14.8645H6.74148C6.19257 14.8637 5.6628 14.6627 5.25135 14.2994C4.8399 13.9361 4.57498 13.4352 4.50618 12.8906L3.49599 4.81332H13.4106L12.4005 12.8906Z" fill="#333333" stroke="#333333" stroke-width="0.458665"/>
<path d="M7.06687 7.24219C6.92896 7.24219 6.7967 7.29697 6.69918 7.39449C6.60166 7.49201 6.54688 7.62427 6.54688 7.76219V11.2288C6.54688 11.3668 6.60166 11.499 6.69918 11.5965C6.7967 11.6941 6.92896 11.7488 7.06687 11.7488C7.20479 11.7488 7.33705 11.6941 7.43457 11.5965C7.53209 11.499 7.58687 11.3668 7.58687 11.2288V7.76219C7.58687 7.62427 7.53209 7.49201 7.43457 7.39449C7.33705 7.29697 7.20479 7.24219 7.06687 7.24219Z" fill="#333333" stroke="#333333" stroke-width="0.458665"/>
<path d="M9.84031 7.24219C9.7024 7.24219 9.57014 7.29697 9.47262 7.39449C9.3751 7.49201 9.32031 7.62427 9.32031 7.76219V11.2288C9.32031 11.3668 9.3751 11.499 9.47262 11.5965C9.57014 11.6941 9.7024 11.7488 9.84031 11.7488C9.97822 11.7488 10.1105 11.6941 10.208 11.5965C10.3055 11.499 10.3603 11.3668 10.3603 11.2288V7.76219C10.3603 7.62427 10.3055 7.49201 10.208 7.39449C10.1105 7.29697 9.97822 7.24219 9.84031 7.24219Z" fill="#333333" stroke="#333333" stroke-width="0.458665"/>
</svg>
