<svg width="22" height="17" viewBox="0 0 22 17" fill="none" xmlns="http://www.w3.org/2000/svg">
<path d="M8.15847 0.625C4.21377 0.625 1 3.83814 1 7.78347C1 10.0458 2.05413 12.072 3.69766 13.383C3.82042 13.4851 3.97951 13.5471 4.15364 13.5471C4.54886 13.5471 4.86955 13.227 4.86955 12.8312C4.86955 12.6013 4.76056 12.3965 4.59208 12.2656L4.5902 12.2643C3.27425 11.2146 2.43182 9.60237 2.43182 7.7841C2.43182 4.61292 4.9873 2.05745 8.15785 2.05745C10.7083 2.05745 12.945 3.7398 13.6553 6.1888C13.7448 6.48882 14.0185 6.70428 14.3424 6.70428C14.4444 6.70428 14.5422 6.68299 14.6305 6.64353L14.6261 6.64541C15.0689 6.45375 15.5481 6.35604 16.0347 6.35291C18.019 6.35291 19.6118 7.94695 19.6118 9.9312C19.6118 11.5014 18.6071 12.8255 17.2116 13.3116C16.9254 13.4099 16.7237 13.6761 16.7237 13.9899C16.7237 14.3851 17.0438 14.7058 17.4396 14.7058C17.5267 14.7058 17.6106 14.6902 17.6877 14.662L17.6826 14.6638C19.6412 13.9805 21.043 12.1134 21.043 9.9312C21.043 7.17216 18.7906 4.92046 16.0322 4.92046C16.0316 4.92046 16.031 4.92046 16.0303 4.92046C16.0297 4.92046 16.0291 4.92046 16.0285 4.92046C15.6019 4.92422 15.1817 4.99875 14.7695 5.10711C13.6859 2.43137 11.0929 0.626879 8.1591 0.625626H8.15785L8.15847 0.625ZM11.0115 8.50001C10.6206 8.50627 10.3062 8.82445 10.3062 9.21592C10.3062 9.21968 10.3062 9.22344 10.3062 9.22719V9.22657V14.169L7.8904 12.2361C7.76763 12.134 7.60854 12.0727 7.43505 12.0727C7.43191 12.0727 7.42941 12.0727 7.4269 12.0727C7.03481 12.0771 6.71914 12.3959 6.71914 12.7886C6.71914 13.0178 6.82687 13.222 6.9941 13.3529L6.99535 13.3542L10.5743 16.2178C10.5724 16.2166 10.573 16.2172 10.5736 16.2172L10.5762 16.2191C10.6977 16.3161 10.853 16.375 11.0227 16.375C11.205 16.375 11.3716 16.3067 11.4981 16.1946L11.4975 16.1953L15.0489 13.3542C15.213 13.222 15.3176 13.0203 15.3176 12.7948C15.3176 12.3996 14.9975 12.0789 14.6017 12.0789C14.4319 12.0789 14.2753 12.1378 14.1526 12.2374L14.1538 12.2361L11.738 14.169V9.22657C11.738 9.22343 11.738 9.21968 11.738 9.21592C11.738 8.8207 11.418 8.50001 11.0221 8.50001C11.0184 8.50001 11.0152 8.50001 11.0115 8.50001Z" fill="#606060" stroke="#606060" stroke-width="0.580175"/>
</svg>
