<svg width="48" height="48" viewBox="0 0 48 48" fill="none" xmlns="http://www.w3.org/2000/svg">
<g clip-path="url(#clip0_3022_134)">
<path d="M5.37679 0.00524606C1.93485 0.00524606 0 1.78169 0 5.41131V42.8274C0 46.2224 1.73958 48 5.17869 48H42.8185C46.2578 48 48 46.3109 48 42.8274V5.41131C48 1.87022 46.2578 0.00524606 42.7105 0.00524606C42.7105 0.00524606 5.36488 -0.00655758 5.37679 0.00524606Z" fill="#751521"/>
<path d="M23.9999 40C15.1636 40 8 32.8364 8 24.0001C8 15.1633 15.1636 8 23.9999 8C32.8367 8 40 15.1633 40 24.0001C40 32.8364 32.8367 40 23.9999 40Z" stroke="white" stroke-width="2"/>
<path d="M16 26.4025H19.8131C20.0543 27.5435 20.3718 28.9237 22.1086 29.4357L22.1041 24.9527C19.7256 24.5981 16.2944 23.5162 16.2944 19.5482C16.2944 15.0878 21.0515 13.6969 22.1086 13.6969V11H25.6951V13.6969C28.113 13.8422 31.6225 15.9389 31.6225 19.9248H27.8471C27.7513 18.7415 26.867 17.5789 25.7328 17.4959V21.6063C28.6154 21.9129 32 23.0542 32 27.0722C32 30.5803 28.6022 33.1388 25.7328 33.2963V36H22.1086V33.2568C20.0321 32.9417 16.2359 30.865 16 26.4025Z" fill="white"/>
<path d="M21.9142 18V21.4285C19.3866 21.3867 19.3374 18.476 21.9142 18ZM25.5223 26.1103C28.6503 26.1939 28.9982 29.4753 25.5189 30L25.5223 26.1103ZM25.5189 30L25.5223 26.1103L25.5189 30Z" fill="#751521"/>
</g>
<defs>
<clipPath id="clip0_3022_134">
<rect width="48" height="48" fill="white"/>
</clipPath>
</defs>
</svg>
