<svg width="46" height="46" viewBox="0 0 46 46" fill="none" xmlns="http://www.w3.org/2000/svg">
<circle cx="22.6299" cy="22.6299" r="22.6299" fill="#720C20"/>
<path d="M16.321 27.5212C15.9872 27.5212 15.7177 27.7919 15.7177 28.1257C15.7177 28.4596 15.9872 28.7303 16.321 28.7303H29.8212C30.155 28.7303 30.4257 28.4596 30.4257 28.1257C30.4257 27.7919 30.155 27.5212 29.8212 27.5212H16.321ZM22.3676 15.4083L23.9227 17.9892L23.9239 17.9916C24.0344 18.1785 24.2323 18.2841 24.435 18.2878L31.4357 18.2902C32.0318 18.2975 32.5125 18.7831 32.5125 19.3815V28.906C32.5125 29.5033 32.0317 29.9889 31.4357 29.9974H14.7063C14.1103 29.9889 13.6308 29.5033 13.6308 28.906V16.4995C13.6308 15.901 14.1103 15.4154 14.7063 15.4081L22.3676 15.4083ZM22.7427 14.1992H14.7187V14.2004C13.4501 14.2004 12.4219 15.2299 12.4219 16.4996V28.9062C12.4219 30.1748 13.4501 31.2042 14.7187 31.2066H31.4238C32.6924 31.2042 33.7206 30.1748 33.7206 28.9062V19.3817C33.7206 18.1119 32.6924 17.0825 31.4238 17.0813H24.7895L23.2635 14.4956C23.1506 14.305 22.9491 14.1992 22.7427 14.1992Z" fill="white" stroke="white" stroke-width="0.354978"/>
</svg>
