<svg width="36" height="36" viewBox="0 0 36 36" fill="none" xmlns="http://www.w3.org/2000/svg">
<path d="M3.9375 35.9423H32.0625C34.2562 35.9423 36 34.1985 36 32.0048C36 25.536 32.4562 19.5735 27 16.4235C28.0688 14.736 28.6875 12.7673 28.6875 10.686C28.6875 4.77978 23.9062 -0.00146484 18 -0.00146484C12.0938 -0.00146484 7.3125 4.77978 7.3125 10.686C7.3125 12.8235 7.93125 14.7923 9 16.4235C3.54375 19.5735 0 25.4798 0 32.0048C0 34.1423 1.74375 35.9423 3.9375 35.9423ZM18 4.44229C21.4312 4.44229 24.1875 7.19853 24.1875 10.6298C24.1875 14.061 21.4312 16.8173 18 16.8173C14.5688 16.8173 11.8125 14.061 11.8125 10.6298C11.8125 7.19853 14.5688 4.44229 18 4.44229ZM12.375 19.7423C14.0063 20.7548 15.9187 21.3173 18 21.3173C20.0812 21.3173 21.9937 20.6985 23.625 19.686C28.1812 21.8235 31.275 26.3798 31.5 31.4423H4.5C4.725 26.3798 7.81875 21.8235 12.375 19.7423Z" fill="#720C20"/>
</svg>
