<svg width="48" height="48" viewBox="0 0 48 48" fill="none" xmlns="http://www.w3.org/2000/svg">
<g clip-path="url(#clip0_3022_151)">
<path d="M39.5864 9.04655C36.1094 5.42319 31.4792 3.12351 26.4912 2.54244L26.308 4.13127C30.9258 4.66988 35.2122 6.79923 38.4312 10.1538L39.5864 9.04655ZM23.2304 4.01447C23.7433 3.99607 24.2567 3.99607 24.7696 4.01447L24.8304 2.41604C24.277 2.39444 23.723 2.39444 23.1696 2.41604L23.2304 4.01447ZM4 24.0004C4 13.8322 11.6056 5.28969 21.6912 4.13127L21.508 2.54244C10.6152 3.79366 2.4 13.0186 2.4 24.0004C2.4 34.9822 10.6152 44.2071 21.5088 45.4584L21.692 43.8695C11.6056 42.7111 4 34.1686 4 24.0004ZM23.2304 43.9863L23.1696 45.5848C23.723 45.6073 24.277 45.6073 24.8304 45.5848L24.7696 43.9863C24.2592 44.0055 23.7408 44.0055 23.2304 43.9863ZM41.6 24.4004H43.9816C43.7832 34.3902 36.2608 42.7263 26.3088 43.8695L26.492 45.4584C37.252 44.2223 45.3936 35.2046 45.5904 24.4004H48L44.8 19.6003L41.6 24.4004ZM47.8728 3.02565C46.1112 2.47364 45.5264 1.88803 44.9736 0.127202C44.9208 -0.0424007 44.6784 -0.0424007 44.6256 0.127202C44.0736 1.88883 43.488 2.47364 41.7272 3.02565C41.5576 3.07845 41.5576 3.32086 41.7272 3.37366C43.4888 3.92567 44.0736 4.51128 44.6256 6.2721C44.6784 6.44171 44.9208 6.44171 44.9736 6.2721C45.5256 4.51048 46.1112 3.92567 47.8728 3.37366C48.0424 3.32086 48.0424 3.07925 47.8728 3.02565ZM6.2728 44.6263C4.5112 44.0743 3.9264 43.4887 3.3744 41.7279C3.3216 41.5583 3.0792 41.5583 3.0264 41.7279C2.4744 43.4895 1.8888 44.0743 0.1272 44.6263C-0.0424 44.6791 -0.0424 44.9215 0.1272 44.9743C1.8888 45.5264 2.4736 46.112 3.0264 47.8728C3.0792 48.0424 3.3216 48.0424 3.3744 47.8728C3.9264 46.1112 4.512 45.5264 6.2728 44.9743C6.4424 44.9215 6.4424 44.6799 6.2728 44.6263Z" fill="#751521"/>
<path d="M7 24C7 33.3889 14.6111 41 24 41C33.3889 41 41 33.3889 41 24C41 14.6111 33.3889 7 24 7C14.6111 7 7 14.6111 7 24ZM15.0952 20.7619H20.7619V15.0952H27.2381V20.7619H32.9048V27.2381H27.2381V32.9048H20.7619V27.2381H15.0952V20.7619Z" fill="#751521"/>
</g>
<defs>
<clipPath id="clip0_3022_151">
<rect width="48" height="48" fill="white"/>
</clipPath>
</defs>
</svg>
