<svg width="57" height="37" viewBox="0 0 57 37" fill="none" xmlns="http://www.w3.org/2000/svg">
<rect width="57" height="37" rx="3" fill="#EFF1F3"/>
<path d="M25.2188 11.0323H33.5326V25.9709H25.2188V11.0323Z" fill="#FF5F00"/>
<path d="M25.745 18.5016C25.745 15.4664 27.1702 12.7742 29.3608 11.0322C27.7509 9.76538 25.7187 9 23.5017 9C18.2493 9 14 13.2493 14 18.5016C14 23.7538 18.2493 28.0032 23.5016 28.0032C25.7186 28.0032 27.7508 27.2378 29.3608 25.9708C27.1702 24.2553 25.745 21.5368 25.745 18.5016Z" fill="#EB001B"/>
<path d="M44.7514 18.5016C44.7514 23.7538 40.5022 28.0032 35.2499 28.0032C33.0328 28.0032 31.0006 27.2378 29.3906 25.9709C31.6076 24.229 33.0065 21.5368 33.0065 18.5016C33.0065 15.4665 31.5812 12.7743 29.3906 11.0323C31.0005 9.76544 33.0328 9.00006 35.2499 9.00006C40.5022 9.00006 44.7514 13.2758 44.7514 18.5016Z" fill="#F79E1B"/>
</svg>
