<svg width="16" height="18" viewBox="0 0 16 18" fill="none" xmlns="http://www.w3.org/2000/svg">
<path d="M11.3685 4.39434V3.78656C11.3685 2.9356 11.3685 2.51012 11.2029 2.18509C11.0572 1.89919 10.8248 1.66675 10.5389 1.52108C10.2139 1.35547 9.78838 1.35547 8.93742 1.35547H7.72187C6.87091 1.35547 6.44542 1.35547 6.1204 1.52108C5.8345 1.66675 5.60206 1.89919 5.45638 2.18509C5.29077 2.51012 5.29077 2.9356 5.29077 3.78656V4.39434M6.81021 8.57278V12.3714M9.84908 8.57278V12.3714M1.49219 4.39434H15.1671M13.6477 4.39434V12.9032C13.6477 14.1796 13.6477 14.8178 13.3993 15.3054C13.1807 15.7342 12.8321 16.0829 12.4032 16.3014C11.9157 16.5498 11.2775 16.5498 10.001 16.5498H6.65827C5.38182 16.5498 4.7436 16.5498 4.25606 16.3014C3.82721 16.0829 3.47854 15.7342 3.26003 15.3054C3.01162 14.8178 3.01162 14.1796 3.01162 12.9032V4.39434" stroke="#F04438" stroke-width="1.51943" stroke-linecap="round" stroke-linejoin="round"/>
</svg>
