<svg width="15" height="17" viewBox="0 0 15 17" fill="none" xmlns="http://www.w3.org/2000/svg">
<path d="M1 15.8128H14M2.35362 9.46471C2.00719 9.81192 1.81259 10.2824 1.8125 10.7728V13.3753H4.43119C4.92194 13.3753 5.39238 13.1803 5.73931 12.8325L13.4581 5.10971C13.8044 4.76245 13.9989 4.29202 13.9989 3.80159C13.9989 3.31115 13.8044 2.84073 13.4581 2.49346L12.6959 1.72971C12.5241 1.55775 12.32 1.42135 12.0954 1.32831C11.8707 1.23527 11.63 1.18742 11.3868 1.1875C11.1437 1.18758 10.903 1.23557 10.6784 1.32875C10.4538 1.42193 10.2498 1.55845 10.0781 1.73052L2.35362 9.46471Z" stroke="#838383" stroke-width="1.625" stroke-linecap="round" stroke-linejoin="round"/>
</svg>
