<svg width="17" height="17" viewBox="0 0 17 17" fill="none" xmlns="http://www.w3.org/2000/svg">
<path d="M6.3648 3.55594C7.31503 1.85198 7.78977 1 8.5 1C9.21023 1 9.68497 1.85198 10.6352 3.55594L10.8812 3.99693C11.1512 4.48142 11.2862 4.72366 11.4962 4.88341C11.7062 5.04315 11.9687 5.1024 12.4937 5.2209L12.9706 5.3289C14.8156 5.74664 15.7373 5.95513 15.9571 6.66087C16.1761 7.36585 15.5476 8.10158 14.2899 9.5723L13.9644 9.95254C13.6074 10.3703 13.4281 10.5795 13.3479 10.8375C13.2676 11.0963 13.2946 11.3753 13.3486 11.9325L13.3981 12.4402C13.5879 14.4029 13.6831 15.3839 13.1086 15.8197C12.5342 16.2554 11.6702 15.8579 9.94372 15.0629L9.49598 14.8574C9.00549 14.6309 8.76024 14.5184 8.5 14.5184C8.23976 14.5184 7.99451 14.6309 7.50402 14.8574L7.05703 15.0629C5.32982 15.8579 4.46584 16.2554 3.89211 15.8204C3.31687 15.3839 3.41212 14.4029 3.60187 12.4402L3.65136 11.9332C3.70536 11.3753 3.73236 11.0963 3.65136 10.8383C3.57187 10.5795 3.39262 10.3703 3.03563 9.95329L2.71014 9.5723C1.45242 8.10233 0.82393 7.3666 1.04293 6.66087C1.26192 5.95513 2.18515 5.74589 4.03011 5.3289L4.50709 5.2209C5.03133 5.1024 5.29308 5.04315 5.50382 4.88341C5.71457 4.72366 5.84881 4.48142 6.11881 3.99693L6.3648 3.55594Z" fill="#FFB45F" stroke="#FFB45F" stroke-width="1.4"/>
</svg>
