<svg width="41" height="26" viewBox="0 0 41 26" fill="none" xmlns="http://www.w3.org/2000/svg">
<g id="Group">
<path id="Vector" d="M8.59158 0.603149C5.58582 0.603149 3.12369 3.06523 3.12369 6.07103C3.12369 9.07684 5.58582 11.539 8.59158 11.539C11.5974 11.539 14.0596 9.07684 14.0596 6.07103C14.0596 3.06528 11.5974 0.603149 8.59158 0.603149ZM31.9491 0.603149C28.9433 0.603149 26.4812 3.06528 26.4812 6.07103C26.4812 9.07684 28.9433 11.539 31.9491 11.539C34.9549 11.539 37.417 9.07684 37.417 6.07103C37.417 3.06523 34.9549 0.603149 31.9491 0.603149ZM8.59158 2.97492C10.3156 2.97492 11.6877 4.34704 11.6877 6.07103C11.6877 7.79504 10.3156 9.16715 8.59158 9.16715C6.86758 9.16715 5.49537 7.79509 5.49537 6.07103C5.49537 4.34704 6.86758 2.97492 8.59158 2.97492ZM31.9491 2.97492C33.6731 2.97492 35.0452 4.34704 35.0452 6.07103C35.0452 7.79509 33.6731 9.16715 31.9491 9.16715C30.2251 9.16715 28.853 7.79504 28.853 6.07103C28.853 4.34704 30.2251 2.97492 31.9491 2.97492ZM20.4568 3.1287C17.451 3.1287 14.9889 5.59084 14.9889 8.59664C14.9889 11.6024 17.451 14.0645 20.4568 14.0645C23.4626 14.0645 25.9247 11.6024 25.9247 8.59664C25.9247 5.59084 23.4626 3.1287 20.4568 3.1287ZM20.4568 5.50039C22.1808 5.50039 23.553 6.87264 23.553 8.59664C23.553 10.3206 22.1808 11.6928 20.4568 11.6928C18.7327 11.6928 17.3606 10.3206 17.3606 8.59664C17.3606 6.87264 18.7327 5.50039 20.4568 5.50039ZM8.77809 12.6363C4.09998 12.6363 0.296875 16.4394 0.296875 21.1174V22.295C0.296874 22.6095 0.421796 22.9111 0.644163 23.1335C0.866529 23.3559 1.16813 23.4809 1.48262 23.4809C1.63835 23.4809 1.79256 23.4502 1.93644 23.3907C2.08032 23.3311 2.21105 23.2437 2.32117 23.1336C2.43129 23.0235 2.51864 22.8927 2.57824 22.7489C2.63784 22.605 2.66851 22.4508 2.66851 22.295V21.1174C2.66851 17.7123 5.37292 15.008 8.77809 15.008C10.1868 15.008 11.4665 15.4737 12.4946 16.2601C12.7444 16.4512 13.0598 16.5352 13.3716 16.4937C13.6833 16.4522 13.9658 16.2886 14.1569 16.0388C14.2516 15.9151 14.3209 15.774 14.361 15.6235C14.4011 15.473 14.4111 15.3161 14.3906 15.1617C14.37 15.0073 14.3193 14.8585 14.2412 14.7237C14.1631 14.589 14.0593 14.4709 13.9356 14.3763C12.5081 13.2843 10.7134 12.6363 8.77809 12.6363ZM32.1355 12.6363C30.296 12.6363 28.583 13.2216 27.1927 14.2173C27.0661 14.308 26.9586 14.4227 26.8763 14.555C26.794 14.6872 26.7386 14.8344 26.7132 14.988C26.6878 15.1417 26.6929 15.2988 26.7282 15.4505C26.7636 15.6022 26.8285 15.7454 26.9192 15.872C27.1023 16.1277 27.3795 16.3001 27.6898 16.3514C28 16.4027 28.318 16.3287 28.5737 16.1456C29.5747 15.4287 30.7967 15.008 32.1356 15.008C35.5408 15.008 38.2451 17.7122 38.2451 21.1174V22.295C38.2451 22.4507 38.2757 22.6049 38.3353 22.7488C38.3949 22.8927 38.4823 23.0234 38.5924 23.1335C38.7025 23.2437 38.8333 23.331 38.9771 23.3906C39.121 23.4502 39.2752 23.4809 39.431 23.4809C39.5867 23.4809 39.7409 23.4502 39.8848 23.3906C40.0287 23.331 40.1594 23.2436 40.2695 23.1335C40.3797 23.0234 40.467 22.8927 40.5266 22.7488C40.5862 22.6049 40.6169 22.4507 40.6169 22.295V21.1174C40.6169 16.4393 36.8137 12.6363 32.1355 12.6363ZM20.6432 15.1615C15.9651 15.1615 12.162 18.9647 12.162 23.6428V24.8204C12.162 24.9761 12.1927 25.1304 12.2523 25.2742C12.3119 25.4181 12.3993 25.5488 12.5094 25.659C12.6195 25.7691 12.7502 25.8564 12.8941 25.916C13.038 25.9756 13.1922 26.0063 13.3479 26.0063C13.5037 26.0063 13.6579 25.9756 13.8017 25.916C13.9456 25.8564 14.0764 25.7691 14.1865 25.659C14.2966 25.5488 14.384 25.4181 14.4435 25.2742C14.5031 25.1304 14.5338 24.9761 14.5338 24.8204V23.6428C14.5338 20.2377 17.2381 17.5333 20.6432 17.5333C24.0484 17.5333 26.7528 20.2377 26.7528 23.6428V24.8204C26.7528 24.9761 26.7835 25.1303 26.8431 25.2742C26.9027 25.4181 26.99 25.5488 27.1001 25.659C27.2102 25.7691 27.341 25.8564 27.4849 25.916C27.6287 25.9756 27.7829 26.0063 27.9387 26.0063C28.2532 26.0063 28.5548 25.8813 28.7771 25.6589C28.9995 25.4365 29.1244 25.1349 29.1244 24.8204V23.6428C29.1244 18.9647 25.3213 15.1615 20.6432 15.1615Z" fill="#606060"/>
</g>
</svg>
