<svg width="24" height="24" viewBox="0 0 24 24" fill="none" xmlns="http://www.w3.org/2000/svg">
<circle cx="12" cy="12" r="12" fill="#720C20"/>
<path d="M12.9571 17.1429V12.9571H17.1429C17.3967 12.9571 17.6402 12.8563 17.8197 12.6768C17.9992 12.4973 18.1 12.2539 18.1 12C18.1 11.7462 17.9992 11.5027 17.8197 11.3232C17.6402 11.1437 17.3967 11.0429 17.1429 11.0429H12.9571V6.85714C12.9571 6.60329 12.8563 6.35984 12.6768 6.18034C12.4973 6.00084 12.2538 5.9 12 5.9C11.7462 5.9 11.5027 6.00084 11.3232 6.18034C11.1437 6.35984 11.0429 6.60329 11.0429 6.85714V11.0429H6.85714C6.60329 11.0429 6.35984 11.1437 6.18034 11.3232C6.00084 11.5027 5.9 11.7462 5.9 12C5.9 12.2539 6.00084 12.4973 6.18034 12.6768C6.35984 12.8563 6.60329 12.9571 6.85714 12.9571H11.0429V17.1429C11.0429 17.3967 11.1437 17.6402 11.3232 17.8197C11.5027 17.9992 11.7462 18.1 12 18.1C12.2538 18.1 12.4973 17.9992 12.6768 17.8197C12.8563 17.6402 12.9571 17.3967 12.9571 17.1429Z" fill="white" stroke="white" stroke-width="0.2"/>
</svg>
