<svg width="17" height="20" viewBox="0 0 17 20" fill="none" xmlns="http://www.w3.org/2000/svg">
<path d="M14.6693 8.75008V5.66675C14.6693 4.26662 14.6693 3.56655 14.3968 3.03177C14.1571 2.56137 13.7747 2.17892 13.3042 1.93923C12.7695 1.66675 12.0694 1.66675 10.6693 1.66675H5.33594C3.93581 1.66675 3.23574 1.66675 2.70096 1.93923C2.23056 2.17892 1.8481 2.56137 1.60842 3.03177C1.33594 3.56655 1.33594 4.26662 1.33594 5.66675V14.3334C1.33594 15.7335 1.33594 16.4336 1.60842 16.9684C1.8481 17.4388 2.23056 17.8212 2.70096 18.0609C3.23574 18.3334 3.93581 18.3334 5.33594 18.3334H8.0026M9.66927 9.16675H4.66927M6.33594 12.5001H4.66927M11.3359 5.83341H4.66927M13.0026 17.5001V12.5001M10.5026 15.0001H15.5026" stroke="#720D21" stroke-width="1.66667" stroke-linecap="round" stroke-linejoin="round"/>
</svg>
