<svg width="12" height="12" viewBox="0 0 12 12" fill="none" xmlns="http://www.w3.org/2000/svg">
<path id="Vector" d="M4.512 0.849609C4.69186 0.849632 4.86941 0.890085 5.03153 0.967976C5.19365 1.04587 5.33619 1.15921 5.4486 1.29961L6.2886 2.34961H10.8C11.1183 2.34961 11.4235 2.47604 11.6485 2.70108C11.8736 2.92612 12 3.23135 12 3.54961V10.4496C12 10.7679 11.8736 11.0731 11.6485 11.2981C11.4235 11.5232 11.1183 11.6496 10.8 11.6496H1.2C0.88174 11.6496 0.576515 11.5232 0.351472 11.2981C0.126428 11.0731 0 10.7679 0 10.4496V2.04961C0 1.73135 0.126428 1.42612 0.351472 1.20108C0.576515 0.976038 0.88174 0.849609 1.2 0.849609H4.512ZM4.512 2.04961H1.2V10.4496H10.8V3.54961H6.288C6.10814 3.54959 5.93059 3.50913 5.76847 3.43124C5.60635 3.35335 5.46381 3.24001 5.3514 3.09961L4.512 2.04961ZM6 4.44961C6.15913 4.44961 6.31174 4.51282 6.42426 4.62535C6.53679 4.73787 6.6 4.89048 6.6 5.04961V6.24961H7.8C7.95913 6.24961 8.11174 6.31282 8.22426 6.42535C8.33679 6.53787 8.4 6.69048 8.4 6.84961C8.4 7.00874 8.33679 7.16135 8.22426 7.27387C8.11174 7.3864 7.95913 7.44961 7.8 7.44961H6.6V8.64961C6.6 8.80874 6.53679 8.96135 6.42426 9.07387C6.31174 9.1864 6.15913 9.24961 6 9.24961C5.84087 9.24961 5.68826 9.1864 5.57574 9.07387C5.46321 8.96135 5.4 8.80874 5.4 8.64961V7.44961H4.2C4.04087 7.44961 3.88826 7.3864 3.77574 7.27387C3.66321 7.16135 3.6 7.00874 3.6 6.84961C3.6 6.69048 3.66321 6.53787 3.77574 6.42535C3.88826 6.31282 4.04087 6.24961 4.2 6.24961H5.4V5.04961C5.4 4.89048 5.46321 4.73787 5.57574 4.62535C5.68826 4.51282 5.84087 4.44961 6 4.44961Z" fill="#333333"/>
</svg>
