<svg width="19" height="24" viewBox="0 0 19 24" fill="none" xmlns="http://www.w3.org/2000/svg">
<path id="Vector" d="M11.3834 0.125C11.941 0.125136 12.4807 0.321453 12.9081 0.679563L13.0625 0.820875L18.3041 6.0625C18.6984 6.45678 18.9414 6.97721 18.9905 7.53262L19 7.74162V21.5C19.0002 22.0992 18.7739 22.6763 18.3665 23.1157C17.9591 23.555 17.4006 23.8241 16.8031 23.8691L16.625 23.875H2.375C1.77582 23.8752 1.1987 23.6489 0.759349 23.2415C0.319996 22.8341 0.0508766 22.2756 0.00593775 21.6781L1.19068e-07 21.5V2.5C-0.0001895 1.90082 0.226108 1.3237 0.633528 0.884349C1.04095 0.444996 1.59938 0.175876 2.19688 0.130938L2.375 0.125H11.3834ZM9.5 2.5H2.375V21.5H16.625V9.625H11.2812C10.8088 9.625 10.3558 9.43733 10.0217 9.10328C9.68767 8.76923 9.5 8.31617 9.5 7.84375V2.5ZM9.5 11.4062C9.81494 11.4062 10.117 11.5314 10.3397 11.7541C10.5624 11.9768 10.6875 12.2788 10.6875 12.5938V14.375H12.4688C12.7837 14.375 13.0857 14.5001 13.3084 14.7228C13.5311 14.9455 13.6562 15.2476 13.6562 15.5625C13.6562 15.8774 13.5311 16.1795 13.3084 16.4022C13.0857 16.6249 12.7837 16.75 12.4688 16.75H10.6875V18.5312C10.6875 18.8462 10.5624 19.1482 10.3397 19.3709C10.117 19.5936 9.81494 19.7188 9.5 19.7188C9.18506 19.7188 8.88301 19.5936 8.66031 19.3709C8.43761 19.1482 8.3125 18.8462 8.3125 18.5312V16.75H6.53125C6.21631 16.75 5.91426 16.6249 5.69156 16.4022C5.46886 16.1795 5.34375 15.8774 5.34375 15.5625C5.34375 15.2476 5.46886 14.9455 5.69156 14.7228C5.91426 14.5001 6.21631 14.375 6.53125 14.375H8.3125V12.5938C8.3125 12.2788 8.43761 11.9768 8.66031 11.7541C8.88301 11.5314 9.18506 11.4062 9.5 11.4062ZM11.875 2.99163V7.25H16.1334L11.875 2.99163Z" fill="white"/>
</svg>
