<svg width="24" height="22" viewBox="0 0 24 22" fill="none" xmlns="http://www.w3.org/2000/svg">
<path d="M10.0379 10.0916C7.24997 10.0916 5.06807 7.9097 5.06807 5.12172C5.06807 2.33375 7.24997 0.151855 10.0379 0.151855C12.8259 0.151855 15.0078 2.33375 15.0078 5.12172C15.0078 7.9097 12.8259 10.2128 10.0379 10.0916ZM10.0379 1.9701C8.34092 1.9701 6.88632 3.42469 6.88632 5.12172C6.88632 6.81875 8.34092 8.27335 10.0379 8.27335C11.735 8.27335 13.1896 6.81875 13.1896 5.12172C13.1896 3.42469 11.8562 1.9701 10.0379 1.9701Z" fill="#838383"/>
<path d="M10.0376 11.0613C15.1286 11.0613 19.25 15.1826 19.25 20.2737C19.25 20.7586 18.8864 21.2435 18.2803 21.2435C17.7954 21.2435 17.3105 20.8798 17.3105 20.2737C17.1893 16.2736 13.674 13.122 9.67391 13.2432C5.79499 13.3644 2.76458 16.516 2.64336 20.2737C2.64336 20.7586 2.27972 21.2435 1.67363 21.2435C1.06755 21.2435 0.703903 20.8798 0.703903 20.2737C0.946335 15.1826 4.94648 11.0613 10.0376 11.0613Z" fill="#838383"/>
<path d="M18.041 10.0915C17.5561 10.0915 17.0713 9.72786 17.0713 9.243C17.0713 8.75813 17.4349 8.27326 18.041 8.27326H19.6168V6.81867C19.6168 6.3338 19.9805 5.84894 20.5865 5.84894C21.0714 5.84894 21.5563 6.21259 21.5563 6.81867V8.27326H22.8896C23.3745 8.27326 23.8594 8.63691 23.8594 9.243C23.8594 9.84908 23.4957 10.0915 22.8896 10.0915H21.435V11.5461C21.435 12.031 21.0714 12.5158 20.4653 12.5158C19.8592 12.5158 19.4956 12.1522 19.4956 11.5461V10.0915H18.041Z" fill="#838383"/>
</svg>
