<svg width="24" height="22" viewBox="0 0 24 22" fill="none" xmlns="http://www.w3.org/2000/svg">
<g id="Group">
<g id="Group_2">
<path id="Vector" d="M9.54081 10.0618C6.75284 10.0618 4.57094 7.87991 4.57094 5.09194C4.57094 2.30396 6.75284 0.12207 9.54081 0.12207C12.3288 0.12207 14.5107 2.30396 14.5107 5.09194C14.5107 7.87991 12.3288 10.183 9.54081 10.0618ZM9.54081 1.94031C7.84378 1.94031 6.38919 3.39491 6.38919 5.09194C6.38919 6.78897 7.84378 8.24356 9.54081 8.24356C11.2378 8.24356 12.6924 6.78897 12.6924 5.09194C12.6924 3.39491 11.3591 1.94031 9.54081 1.94031Z" fill="#720c20"/>
<path id="Vector_2" d="M9.53835 11.0317C14.6294 11.0317 18.7508 15.1531 18.7508 20.2442C18.7508 20.729 18.3871 21.2139 17.7811 21.2139C17.2962 21.2139 16.8113 20.8503 16.8113 20.2442C16.6901 16.244 13.1748 13.0924 9.1747 13.2136C5.29578 13.3348 2.26537 16.4865 2.14416 20.2442C2.14416 20.729 1.78051 21.2139 1.17443 21.2139C0.568346 21.2139 0.204697 20.8503 0.204697 20.2442C0.447128 15.1531 4.44727 11.0317 9.53835 11.0317Z" fill="#720c20"/>
<path id="Vector_3" d="M17.541 10.0624C17.0561 10.0624 16.5713 9.69875 16.5713 9.21388C16.5713 8.72902 16.9349 8.24415 17.541 8.24415H19.1168V6.78956C19.1168 6.30469 19.4805 5.81982 20.0865 5.81982C20.5714 5.81982 21.0563 6.18347 21.0563 6.78956V8.24415H22.3896C22.8745 8.24415 23.3594 8.6078 23.3594 9.21388C23.3594 9.81996 22.9957 10.0624 22.3896 10.0624H20.935V11.517C20.935 12.0019 20.5714 12.4867 19.9653 12.4867C19.3592 12.4867 18.9956 12.1231 18.9956 11.517V10.0624H17.541Z" fill="#720c20"/>
</g>
</g>
</svg>
