<svg width="13" height="14" viewBox="0 0 13 14" fill="none" xmlns="http://www.w3.org/2000/svg">
<path d="M10.2503 10.7173C11.0306 10.9831 11.5039 11.3328 11.5039 11.7158C11.5039 12.5494 9.25878 13.2244 6.48972 13.2244C3.72066 13.2244 1.47559 12.5488 1.47559 11.7158C1.47559 11.3328 1.94879 10.9831 2.72912 10.7173M8.37002 5.38982C8.37002 5.88851 8.17192 6.36677 7.81929 6.71939C7.46667 7.07202 6.98841 7.27012 6.48972 7.27012C5.99103 7.27012 5.51277 7.07202 5.16015 6.71939C4.80752 6.36677 4.60942 5.88851 4.60942 5.38982C4.60942 4.89114 4.80752 4.41287 5.16015 4.06025C5.51277 3.70762 5.99103 3.50952 6.48972 3.50952C6.98841 3.50952 7.46667 3.70762 7.81929 4.06025C8.17192 4.41287 8.37002 4.89114 8.37002 5.38982Z" stroke="#720C20" stroke-width="1.27633" stroke-linecap="round" stroke-linejoin="round"/>
<path d="M6.48981 0.689087C9.03386 0.689087 11.1906 2.83764 11.1906 5.44437C11.1906 8.09246 8.99876 9.95082 6.9743 11.2144C6.82692 11.2992 6.65985 11.3438 6.48981 11.3438C6.31977 11.3438 6.15271 11.2992 6.00532 11.2144C3.98463 9.93829 1.78906 8.10186 1.78906 5.44437C1.78906 2.83764 3.94577 0.689087 6.48981 0.689087Z" stroke="#720C20" stroke-width="1.27633" stroke-linecap="round" stroke-linejoin="round"/>
</svg>
