<svg width="23" height="23" viewBox="0 0 23 23" fill="none" xmlns="http://www.w3.org/2000/svg">
<rect x="1.07415" y="1.66814" width="21.1873" height="19.8539" rx="5.57589" stroke="#707070" stroke-width="1.48033"/>
<path d="M8.52362 8.39178L5.97468 15.7866H4.4336L7.64467 7.25501H8.62909L8.52362 8.39178ZM10.6565 15.7866L8.10172 8.39178L7.99039 7.25501H8.98067L12.2035 15.7866H10.6565ZM10.5335 12.6224V13.7885H5.89264V12.6224H10.5335ZM16.5923 14.5151V11.4915C16.5923 11.2649 16.5513 11.0696 16.4693 10.9056C16.3872 10.7415 16.2622 10.6145 16.0942 10.5247C15.9302 10.4348 15.7231 10.3899 15.4731 10.3899C15.2427 10.3899 15.0434 10.429 14.8754 10.5071C14.7075 10.5852 14.5766 10.6907 14.4829 10.8235C14.3891 10.9563 14.3422 11.1067 14.3422 11.2747H12.9359C12.9359 11.0247 12.9965 10.7825 13.1176 10.5481C13.2387 10.3137 13.4144 10.1047 13.6449 9.92114C13.8754 9.73754 14.1508 9.593 14.4711 9.48753C14.7915 9.38205 15.1508 9.32932 15.5493 9.32932C16.0259 9.32932 16.4478 9.4094 16.815 9.56956C17.1861 9.72972 17.4771 9.97192 17.6881 10.2962C17.9029 10.6165 18.0103 11.0188 18.0103 11.5032V14.3217C18.0103 14.6108 18.0299 14.8706 18.0689 15.101C18.1119 15.3276 18.1725 15.5249 18.2506 15.6929V15.7866H16.8033C16.7369 15.6343 16.6841 15.4409 16.6451 15.2065C16.6099 14.9682 16.5923 14.7377 16.5923 14.5151ZM16.7974 11.931L16.8091 12.8041H15.7954C15.5337 12.8041 15.3032 12.8295 15.104 12.8802C14.9047 12.9271 14.7387 12.9974 14.6059 13.0912C14.4731 13.1849 14.3735 13.2982 14.3071 13.4311C14.2407 13.5639 14.2075 13.7143 14.2075 13.8822C14.2075 14.0502 14.2465 14.2045 14.3246 14.3452C14.4028 14.4819 14.5161 14.5893 14.6645 14.6674C14.8169 14.7456 15.0005 14.7846 15.2153 14.7846C15.5044 14.7846 15.7563 14.726 15.9712 14.6088C16.19 14.4877 16.3618 14.3412 16.4868 14.1694C16.6118 13.9936 16.6783 13.8276 16.6861 13.6713L17.1431 14.2983C17.0962 14.4584 17.0162 14.6303 16.9029 14.8139C16.7896 14.9975 16.6411 15.1733 16.4575 15.3413C16.2779 15.5054 16.061 15.6401 15.8071 15.7456C15.5571 15.8511 15.268 15.9038 14.9399 15.9038C14.5258 15.9038 14.1567 15.8218 13.8324 15.6577C13.5082 15.4897 13.2543 15.2651 13.0707 14.9839C12.8871 14.6987 12.7953 14.3764 12.7953 14.017C12.7953 13.6811 12.8578 13.3842 12.9828 13.1264C13.1117 12.8646 13.2992 12.6459 13.5453 12.4701C13.7953 12.2943 14.1 12.1615 14.4594 12.0716C14.8188 11.9779 15.229 11.931 15.6899 11.931H16.7974Z" fill="#707070"/>
</svg>
