<svg width="52" height="53" viewBox="0 0 52 53" fill="none" xmlns="http://www.w3.org/2000/svg">
<path d="M13.0075 52.0336C12.726 52.0336 12.4486 51.9235 12.2411 51.716L0.317799 39.7927C0.00764841 39.4826 -0.0855028 39.0168 0.0828044 38.6114C0.250053 38.206 0.645945 37.9424 1.08418 37.9424H13.0086C13.2965 37.9424 13.5717 38.0567 13.775 38.2599C13.9782 38.4632 14.0925 38.7384 14.0925 39.0263L14.0915 50.9497C14.0915 51.3879 13.8268 51.7838 13.4225 51.951C13.288 52.0071 13.1473 52.0336 13.0075 52.0336ZM3.70088 40.1103L11.9236 48.333L11.9246 40.1103H3.70088Z" fill="black"/>
<path d="M37.9399 52.0291H13.0092C12.7213 52.0291 12.4461 51.9148 12.2429 51.7116L0.319514 39.7882C0.116275 39.585 0.00195312 39.3098 0.00195312 39.0218V1.08394C0.00195312 0.485339 0.486762 0 1.08589 0H37.9399C38.539 0 39.0238 0.485339 39.0238 1.08394V15.4027C39.0238 15.6901 38.9095 15.9659 38.7062 16.1691L26.0747 28.8006L29.1815 31.9064L37.1735 23.915C37.4847 23.6038 37.9494 23.5122 38.3548 23.68C38.7602 23.8477 39.0238 24.2431 39.0238 24.6813V50.9452C39.0238 51.5443 38.539 52.0291 37.9399 52.0291ZM13.4581 49.8613H36.8559V27.2986L29.9479 34.2055C29.5245 34.6289 28.8386 34.6289 28.4152 34.2055L23.7756 29.567C23.5724 29.3638 23.458 29.0886 23.458 28.8006C23.458 28.5127 23.5724 28.2375 23.7756 28.0343L36.8559 14.9539V2.16788H2.16983V38.573L13.4581 49.8613Z" fill="black"/>
<path d="M29.1805 34.5223C28.9032 34.5223 28.6259 34.4164 28.4142 34.2047L23.7746 29.5662C23.5714 29.363 23.457 29.0878 23.457 28.7998C23.457 28.5119 23.5714 28.2367 23.7746 28.0335L42.3318 9.47576C42.7383 9.06928 43.4581 9.06928 43.8645 9.47576L48.5041 14.1153C48.9275 14.5387 48.9275 15.2247 48.5041 15.6481L29.9469 34.2047C29.7352 34.4164 29.4579 34.5223 29.1805 34.5223ZM26.0737 28.7998L29.1805 31.9056L46.205 14.8817L43.0982 11.7749L26.0737 28.7998Z" fill="black"/>
<path d="M21.6777 37.3871C21.3951 37.3871 21.1188 37.277 20.9114 37.0695C20.6086 36.7668 20.5123 36.3137 20.6658 35.9136L23.5651 28.3758C23.7811 27.8169 24.4067 27.5406 24.9666 27.7534C25.5245 27.9682 25.8039 28.5959 25.589 29.1549L23.5651 34.4158L28.826 32.3919C29.3849 32.1791 30.0127 32.4554 30.2275 33.0143C30.4424 33.5732 30.164 34.2009 29.6051 34.4158L22.0673 37.3151C21.9403 37.3638 21.809 37.3871 21.6777 37.3871Z" fill="black"/>
<path d="M47.7361 15.9681C47.4588 15.9681 47.1814 15.8623 46.9697 15.6506C46.5463 15.2271 46.5463 14.5407 46.9697 14.1178L49.5314 11.5567C49.9336 11.1534 49.9336 10.4976 49.5314 10.0943L47.8875 8.45093C47.4969 8.06086 46.8184 8.0598 46.4256 8.45093L43.864 11.0121C43.4406 11.4355 42.7546 11.4355 42.3312 11.0121C41.9078 10.5886 41.9078 9.90218 42.3312 9.4793L44.8929 6.91817C46.1028 5.70774 48.2125 5.7088 49.4202 6.91817L51.0642 8.56155C52.3122 9.81009 52.3122 11.8409 51.0642 13.0894L48.5025 15.6506C48.2908 15.8623 48.0135 15.9681 47.7361 15.9681Z" fill="black"/>
<path d="M33.6023 9.76065H5.41988C4.82075 9.76065 4.33594 9.27532 4.33594 8.67671C4.33594 8.07811 4.82075 7.59277 5.41988 7.59277H33.6023C34.2015 7.59277 34.6863 8.07811 34.6863 8.67671C34.6863 9.27532 34.2015 9.76065 33.6023 9.76065Z" fill="black"/>
<path d="M33.6043 16.2636H5.42183C4.8227 16.2636 4.33789 15.7782 4.33789 15.1796C4.33789 14.581 4.8227 14.0957 5.42183 14.0957H33.6043C34.2034 14.0957 34.6882 14.581 34.6882 15.1796C34.6882 15.7782 34.2034 16.2636 33.6043 16.2636Z" fill="black"/>
<path d="M22.7638 22.7685H5.42183C4.8227 22.7685 4.33789 22.2831 4.33789 21.6845C4.33789 21.0859 4.8227 20.6006 5.42183 20.6006H22.7638C23.3629 20.6006 23.8478 21.0859 23.8478 21.6845C23.8478 22.2831 23.3629 22.7685 22.7638 22.7685Z" fill="black"/>
<path d="M19.4019 29.2714H5.42183C4.8227 29.2714 4.33789 28.7866 4.33789 28.1875C4.33789 27.5883 4.8227 27.1035 5.42183 27.1035H19.4019C20.001 27.1035 20.4859 27.5883 20.4859 28.1875C20.4859 28.7866 20.001 29.2714 19.4019 29.2714Z" fill="black"/>
</svg>
