<svg width="35" height="30" viewBox="0 0 35 30" fill="none" xmlns="http://www.w3.org/2000/svg">
<path d="M16.044 13.5439C16.044 13.9308 15.8904 14.3017 15.6168 14.5753C15.3433 14.8488 14.9723 15.0025 14.5855 15.0025H1.45855C1.07172 15.0025 0.70073 14.8488 0.427199 14.5753C0.153668 14.3017 0 13.9308 0 13.5439C0 13.1571 0.153668 12.7861 0.427199 12.5126C0.70073 12.239 1.07172 12.0854 1.45855 12.0854H14.5855C14.9723 12.0854 15.3433 12.239 15.6168 12.5126C15.8904 12.7861 16.044 13.1571 16.044 13.5439ZM1.45855 3.33409H26.2539C26.6407 3.33409 27.0117 3.18042 27.2852 2.90689C27.5587 2.63336 27.7124 2.26237 27.7124 1.87554C27.7124 1.48871 27.5587 1.11772 27.2852 0.844191C27.0117 0.57066 26.6407 0.416992 26.2539 0.416992H1.45855C1.07172 0.416992 0.70073 0.57066 0.427199 0.844191C0.153668 1.11772 0 1.48871 0 1.87554C0 2.26237 0.153668 2.63336 0.427199 2.90689C0.70073 3.18042 1.07172 3.33409 1.45855 3.33409ZM11.6684 23.7538H1.45855C1.07172 23.7538 0.70073 23.9074 0.427199 24.1809C0.153668 24.4545 0 24.8255 0 25.2123C0 25.5991 0.153668 25.9701 0.427199 26.2436C0.70073 26.5172 1.07172 26.6708 1.45855 26.6708H11.6684C12.0552 26.6708 12.4262 26.5172 12.6997 26.2436C12.9733 25.9701 13.1269 25.5991 13.1269 25.2123C13.1269 24.8255 12.9733 24.4545 12.6997 24.1809C12.4262 23.9074 12.0552 23.7538 11.6684 23.7538ZM34.5785 19.8047C34.4431 19.6691 34.2822 19.5615 34.1051 19.4881C33.9281 19.4147 33.7383 19.377 33.5466 19.377C33.3549 19.377 33.1651 19.4147 32.9881 19.4881C32.811 19.5615 32.6501 19.6691 32.5147 19.8047L27.7124 24.6088V10.6268C27.7124 10.24 27.5587 9.86901 27.2852 9.59548C27.0117 9.32195 26.6407 9.16828 26.2539 9.16828C25.867 9.16828 25.496 9.32195 25.2225 9.59548C24.949 9.86901 24.7953 10.24 24.7953 10.6268V24.6088L19.993 19.8047C19.7194 19.5311 19.3482 19.3773 18.9611 19.3773C18.5741 19.3773 18.2029 19.5311 17.9292 19.8047C17.6555 20.0784 17.5018 20.4496 17.5018 20.8367C17.5018 21.2237 17.6555 21.5949 17.9292 21.8686L25.2219 29.1613C25.3574 29.2969 25.5183 29.4045 25.6953 29.4779C25.8724 29.5513 26.0622 29.5891 26.2539 29.5891C26.4455 29.5891 26.6353 29.5513 26.8124 29.4779C26.9895 29.4045 27.1503 29.2969 27.2858 29.1613L34.5785 21.8686C34.7141 21.7331 34.8217 21.5723 34.8951 21.3952C34.9685 21.2181 35.0063 21.0283 35.0063 20.8367C35.0063 20.645 34.9685 20.4552 34.8951 20.2781C34.8217 20.1011 34.7141 19.9402 34.5785 19.8047Z" fill="black"/>
</svg>
