<svg width="32" height="32" viewBox="0 0 32 32" fill="none" xmlns="http://www.w3.org/2000/svg">
<path fill-rule="evenodd" clip-rule="evenodd" d="M8.95 6.2502C8.77761 6.2502 8.61228 6.31868 8.49038 6.44058C8.36848 6.56247 8.3 6.7278 8.3 6.9002V27.0502C8.3 27.2226 8.36848 27.3879 8.49038 27.5098C8.61228 27.6317 8.77761 27.7002 8.95 27.7002H23.25C23.4224 27.7002 23.5877 27.6317 23.7096 27.5098C23.8315 27.3879 23.9 27.2226 23.9 27.0502V6.9002C23.9 6.7278 23.8315 6.56247 23.7096 6.44058C23.5877 6.31868 23.4224 6.2502 23.25 6.2502H19.621V4.9502H23.25C23.7672 4.9502 24.2632 5.15564 24.6289 5.52134C24.9946 5.88703 25.2 6.38302 25.2 6.9002V27.0502C25.2 27.5674 24.9946 28.0634 24.6289 28.4291C24.2632 28.7947 23.7672 29.0002 23.25 29.0002H8.95C8.43283 29.0002 7.93684 28.7947 7.57114 28.4291C7.20545 28.0634 7 27.5674 7 27.0502V6.9002C7 6.38302 7.20545 5.88703 7.57114 5.52134C7.93684 5.15564 8.43283 4.9502 8.95 4.9502H12.5789V6.2502H8.95Z" fill="black"/>
<path fill-rule="evenodd" clip-rule="evenodd" d="M11.55 4.95C11.55 4.43283 11.7554 3.93684 12.1211 3.57114C12.4868 3.20545 12.9828 3 13.5 3H18.7C19.2172 3 19.7132 3.20545 20.0789 3.57114C20.4446 3.93684 20.65 4.43283 20.65 4.95V6.25C20.65 6.76717 20.4446 7.26316 20.0789 7.62886C19.7132 7.99455 19.2172 8.2 18.7 8.2H13.5C12.9828 8.2 12.4868 7.99455 12.1211 7.62886C11.7554 7.26316 11.55 6.76717 11.55 6.25V4.95ZM13.5 4.3C13.3276 4.3 13.1623 4.36848 13.0404 4.49038C12.9185 4.61228 12.85 4.77761 12.85 4.95V6.25C12.85 6.42239 12.9185 6.58772 13.0404 6.70962C13.1623 6.83152 13.3276 6.9 13.5 6.9H18.7C18.8724 6.9 19.0377 6.83152 19.1596 6.70962C19.2815 6.58772 19.35 6.42239 19.35 6.25V4.95C19.35 4.77761 19.2815 4.61228 19.1596 4.49038C19.0377 4.36848 18.8724 4.3 18.7 4.3H13.5ZM10.25 14.05C10.25 13.8776 10.3185 13.7123 10.4404 13.5904C10.5623 13.4685 10.7276 13.4 10.9 13.4H15.45C15.6224 13.4 15.7877 13.4685 15.9096 13.5904C16.0315 13.7123 16.1 13.8776 16.1 14.05C16.1 14.2224 16.0315 14.3877 15.9096 14.5096C15.7877 14.6315 15.6224 14.7 15.45 14.7H10.9C10.7276 14.7 10.5623 14.6315 10.4404 14.5096C10.3185 14.3877 10.25 14.2224 10.25 14.05ZM10.25 10.8C10.25 10.6276 10.3185 10.4623 10.4404 10.3404C10.5623 10.2185 10.7276 10.15 10.9 10.15H20.975C21.1474 10.15 21.3127 10.2185 21.4346 10.3404C21.5565 10.4623 21.625 10.6276 21.625 10.8C21.625 10.9724 21.5565 11.1377 21.4346 11.2596C21.3127 11.3815 21.1474 11.45 20.975 11.45H10.9C10.7276 11.45 10.5623 11.3815 10.4404 11.2596C10.3185 11.1377 10.25 10.9724 10.25 10.8ZM11.55 19.25V20.55H12.85V19.25H11.55ZM10.9 17.95C10.7276 17.95 10.5623 18.0185 10.4404 18.1404C10.3185 18.2623 10.25 18.4276 10.25 18.6V21.2C10.25 21.3724 10.3185 21.5377 10.4404 21.6596C10.5623 21.7815 10.7276 21.85 10.9 21.85H13.5C13.6724 21.85 13.8377 21.7815 13.9596 21.6596C14.0815 21.5377 14.15 21.3724 14.15 21.2V18.6C14.15 18.4276 14.0815 18.2623 13.9596 18.1404C13.8377 18.0185 13.6724 17.95 13.5 17.95H10.9ZM18.7 19.25C18.7877 19.254 18.8753 19.2402 18.9576 19.2094C19.0398 19.1787 19.1149 19.1315 19.1785 19.0709C19.242 19.0103 19.2926 18.9374 19.3272 18.8567C19.3617 18.776 19.3796 18.6891 19.3797 18.6013C19.3798 18.5135 19.3621 18.4266 19.3277 18.3458C19.2932 18.2651 19.2428 18.1921 19.1794 18.1313C19.116 18.0706 19.041 18.0233 18.9588 17.9924C18.8766 17.9614 18.789 17.9475 18.7013 17.9513C18.5341 17.9586 18.3762 18.0301 18.2604 18.151C18.1446 18.2718 18.0799 18.4327 18.0797 18.6C18.0795 18.7674 18.1439 18.9284 18.2595 19.0494C18.375 19.1705 18.5328 19.2424 18.7 19.25ZM18.7 20.55C19.2172 20.55 19.7132 20.3446 20.0789 19.9789C20.4446 19.6132 20.65 19.1172 20.65 18.6C20.65 18.0828 20.4446 17.5868 20.0789 17.2211C19.7132 16.8554 19.2172 16.65 18.7 16.65C18.1828 16.65 17.6868 16.8554 17.3211 17.2211C16.9554 17.5868 16.75 18.0828 16.75 18.6C16.75 19.1172 16.9554 19.6132 17.3211 19.9789C17.6868 20.3446 18.1828 20.55 18.7 20.55ZM16.1 23.332C16.1114 23.3187 16.1233 23.3059 16.1358 23.2936C16.2424 23.1896 16.4478 23.0518 16.7702 22.9147C17.4202 22.6384 18.2223 22.5 18.7 22.5C19.1778 22.5 19.9799 22.6384 20.6299 22.9147C20.9523 23.0512 21.1576 23.1896 21.2643 23.2936C21.2767 23.3057 21.2886 23.3183 21.3 23.3313V24.45H16.1V23.332ZM18.7 21.2C17.3981 21.2 14.8 21.8929 14.8 23.2683V25.75H22.6V23.2683C22.6 21.8929 20.002 21.2 18.7 21.2Z" fill="black"/>
</svg>
