<svg width="20" height="18" viewBox="0 0 21 19" fill="none" xmlns="http://www.w3.org/2000/svg">
<path d="M11.8588 7.32129C11.3432 7.32129 10.9437 7.72082 10.9437 8.21409C10.9437 8.70736 11.3432 9.10689 11.8588 9.10689C12.3298 9.10689 12.7293 8.70736 12.7293 8.21409C12.7293 7.72082 12.3298 7.32129 11.8588 7.32129ZM5.60921 7.32129C5.09362 7.32129 4.69409 7.72082 4.69409 8.21409C4.69409 8.70736 5.09362 9.10689 5.60921 9.10689C6.08017 9.10689 6.4797 8.70736 6.4797 8.21409C6.4797 7.72082 6.08017 7.32129 5.60921 7.32129Z" fill="#606060"/>
<path d="M19.0254 5.62565C17.9518 4.15253 16.4518 3.16822 14.8069 2.72405V2.72628C14.4252 2.3022 13.9944 1.9116 13.5123 1.5634C9.8585 -1.09268 4.72935 -0.282466 2.06211 3.37133C-0.0873155 6.3399 0.00419691 10.333 2.19603 13.1698L2.21388 16.1295C2.21388 16.2009 2.22504 16.2723 2.24736 16.3393C2.36566 16.7165 2.76742 16.9241 3.1424 16.8058L5.96812 15.9152C6.71584 16.1808 7.48811 16.3326 8.25592 16.375L8.24476 16.3839C10.2335 17.8325 12.8405 18.2677 15.2309 17.4776L18.0678 18.4017C18.1392 18.424 18.2129 18.4374 18.2888 18.4374C18.6839 18.4374 19.003 18.1182 19.003 17.7231V14.7322C20.9694 12.0628 21.0208 8.37325 19.0254 5.62565ZM6.2806 14.3305L6.01276 14.2189L3.80307 14.9108L3.78075 12.5895L3.60219 12.3886C1.71391 10.0852 1.58892 6.76621 3.35667 4.33109C5.50832 1.38038 9.63307 0.728633 12.5749 2.85797C15.5256 5.00292 16.1795 9.12098 14.048 12.0538C12.2601 14.5068 9.05945 15.413 6.2806 14.3305ZM17.5522 13.951L17.3737 14.1742L17.396 16.4955L15.2086 15.759L14.9408 15.8706C13.6909 16.3348 12.3583 16.3728 11.1241 16.0268L11.1196 16.0246C12.769 15.5179 14.2645 14.4912 15.3425 13.0136C17.0478 10.6633 17.3246 7.71035 16.3336 5.19265L16.3469 5.20157C16.8603 5.56985 17.3313 6.02965 17.7308 6.58542C19.3512 8.80849 19.2597 11.8351 17.5522 13.951Z" fill="#606060"/>
<path d="M8.73421 7.32129C8.21862 7.32129 7.81909 7.72082 7.81909 8.21409C7.81909 8.70736 8.21862 9.10689 8.73421 9.10689C9.20517 9.10689 9.6047 8.70736 9.6047 8.21409C9.6047 7.72082 9.20517 7.32129 8.73421 7.32129Z" fill="#606060"/>
</svg>
