<svg width="17" height="17" viewBox="0 0 18 18" fill="none" xmlns="http://www.w3.org/2000/svg">
<path d="M15 2.6H12.6V1.4C12.6 1.29391 12.5579 1.19217 12.4828 1.11716C12.4078 1.04214 12.3061 1 12.2 1C12.0939 1 11.9922 1.04214 11.9172 1.11716C11.8421 1.19217 11.8 1.29391 11.8 1.4V2.6H6.2V1.4C6.2 1.29391 6.15786 1.19217 6.08284 1.11716C6.00783 1.04214 5.90609 1 5.8 1C5.69391 1 5.59217 1.04214 5.51716 1.11716C5.44214 1.19217 5.4 1.29391 5.4 1.4V2.6H3C2.46976 2.60064 1.96142 2.81155 1.58649 3.18649C1.21155 3.56142 1.00064 4.06976 1 4.6V15C1.00064 15.5302 1.21155 16.0386 1.58649 16.4135C1.96142 16.7884 2.46976 16.9994 3 17H15C15.5303 16.9996 16.0388 16.7887 16.4137 16.4137C16.7887 16.0388 16.9996 15.5303 17 15V4.6C16.9996 4.0697 16.7887 3.56124 16.4137 3.18625C16.0388 2.81127 15.5303 2.60042 15 2.6ZM16.2 15C16.2 15.3183 16.0736 15.6235 15.8485 15.8485C15.6235 16.0736 15.3183 16.2 15 16.2H3C2.68174 16.2 2.37652 16.0736 2.15147 15.8485C1.92643 15.6235 1.8 15.3183 1.8 15V8.2H16.2V15ZM16.2 7.4H1.8V4.6C1.8 3.9376 2.336 3.4 3 3.4H5.4V4.6C5.4 4.70609 5.44214 4.80783 5.51716 4.88284C5.59217 4.95786 5.69391 5 5.8 5C5.90609 5 6.00783 4.95786 6.08284 4.88284C6.15786 4.80783 6.2 4.70609 6.2 4.6V3.4H11.8V4.6C11.8 4.70609 11.8421 4.80783 11.9172 4.88284C11.9922 4.95786 12.0939 5 12.2 5C12.3061 5 12.4078 4.95786 12.4828 4.88284C12.5579 4.80783 12.6 4.70609 12.6 4.6V3.4H15C15.3183 3.4 15.6235 3.52643 15.8485 3.75147C16.0736 3.97652 16.2 4.28174 16.2 4.6V7.4Z" fill="#606060" stroke="#606060" stroke-width="0.8"/>
</svg>
