<svg width="34" height="34" viewBox="0 0 34 34" fill="none" xmlns="http://www.w3.org/2000/svg">
<path d="M17 31.7314C15.0756 31.7346 13.1695 31.3577 11.3912 30.6223C9.61282 29.887 7.9972 28.8076 6.63708 27.4462C0.922732 21.7319 0.922732 12.4346 6.63708 6.72029C9.40515 3.95222 13.0854 2.42691 17 2.42691C20.9147 2.42691 24.5949 3.95105 27.363 6.72029C33.0774 12.4346 33.0774 21.7319 27.363 27.4462C26.0029 28.8076 24.3873 29.887 22.6089 30.6223C20.8305 31.3577 18.9244 31.7346 17 31.7314V31.7314ZM8.29487 25.7884C13.0947 30.5883 20.9054 30.5883 25.7052 25.7884C28.0301 23.4624 29.3104 20.3707 29.3104 17.0833C29.3104 13.7958 28.0301 10.7042 25.7052 8.37808C23.3803 6.05201 20.2887 4.77174 17 4.77174C13.7114 4.77174 10.6209 6.05319 8.29487 8.37808C5.9688 10.703 4.6897 13.7946 4.6897 17.0833C4.6897 20.3719 5.96997 23.4624 8.29487 25.7884V25.7884Z" fill="white"/>
<path d="M19.6942 23.6441C19.5403 23.6442 19.3878 23.614 19.2455 23.555C19.1033 23.4961 18.9741 23.4096 18.8653 23.3005L13.4769 17.9121C13.368 17.8033 13.2815 17.6741 13.2225 17.5319C13.1635 17.3897 13.1332 17.2372 13.1332 17.0832C13.1332 16.9293 13.1635 16.7768 13.2225 16.6346C13.2815 16.4923 13.368 16.3631 13.4769 16.2543L18.8653 10.8659C18.9742 10.7571 19.1034 10.6707 19.2456 10.6118C19.3879 10.5529 19.5403 10.5226 19.6942 10.5226C19.8482 10.5226 20.0006 10.5529 20.1428 10.6118C20.2851 10.6707 20.4143 10.7571 20.5231 10.8659C20.632 10.9748 20.7183 11.104 20.7772 11.2462C20.8362 11.3884 20.8665 11.5409 20.8665 11.6948C20.8665 11.8488 20.8362 12.0012 20.7772 12.1434C20.7183 12.2856 20.632 12.4149 20.5231 12.5237L15.9636 17.0832L20.5231 21.6427C20.6876 21.8065 20.7998 22.0154 20.8453 22.243C20.8908 22.4706 20.8677 22.7066 20.7789 22.921C20.6901 23.1354 20.5396 23.3186 20.3465 23.4474C20.1534 23.5761 19.9263 23.6446 19.6942 23.6441V23.6441Z" fill="white"/>
</svg>
