<svg width="90" height="90" viewBox="0 0 90 90" fill="none" xmlns="http://www.w3.org/2000/svg">
<circle cx="45" cy="45" r="43.2" stroke="white" stroke-width="3.6"/>
<path d="M41.1215 45.6355L53.0224 33.7346C53.6485 33.1047 54 32.2527 54 31.3645C54 30.4764 53.6485 29.6243 53.0224 28.9944C52.7099 28.6793 52.3381 28.4292 51.9284 28.2585C51.5187 28.0879 51.0793 28 50.6355 28C50.1917 28 49.7523 28.0879 49.3426 28.2585C48.9329 28.4292 48.5611 28.6793 48.2486 28.9944L33.9944 43.2486C33.6793 43.5611 33.4292 43.9329 33.2585 44.3426C33.0879 44.7523 33 45.1917 33 45.6355C33 46.0793 33.0879 46.5187 33.2585 46.9284C33.4292 47.3381 33.6793 47.7099 33.9944 48.0224L48.2486 62.4447C48.5627 62.7563 48.9353 63.0028 49.3449 63.1701C49.7545 63.3374 50.1931 63.4222 50.6355 63.4196C51.0779 63.4222 51.5165 63.3374 51.9261 63.1701C52.3357 63.0028 52.7083 62.7563 53.0224 62.4447C53.6485 61.8148 54 60.9627 54 60.0746C54 59.1864 53.6485 58.3344 53.0224 57.7045L41.1215 45.6355Z" fill="white" stroke="white"/>
</svg>
