<svg width="322" height="246" viewBox="0 0 322 246" fill="none" xmlns="http://www.w3.org/2000/svg">
<rect width="322" height="246" fill="#720C20"/>
<path d="M218.4 98.3999C204.812 98.3999 193.8 109.412 193.8 123C193.8 136.587 204.812 147.6 218.4 147.6C231.987 147.6 243 136.587 243 123C243 109.412 231.987 98.3999 218.4 98.3999ZM232.066 135.245H204.733V131.2C204.733 125.159 209.626 120.267 215.666 120.267H218.4C213.871 120.267 210.2 116.596 210.2 112.067C210.2 107.537 213.871 103.867 218.4 103.867C222.929 103.867 226.6 107.537 226.6 112.067C226.6 116.596 222.929 120.267 218.4 120.267H221.133C227.174 120.267 232.066 125.159 232.066 131.2V135.245Z" fill="white"/>
<path d="M218.4 41C204.812 41 193.8 52.0126 193.8 65.6C193.8 79.1874 204.812 90.2 218.4 90.2C231.987 90.2 243 79.1874 243 65.6C243 52.0126 231.987 41 218.4 41ZM232.066 77.8453H204.733V73.8C204.733 67.7593 209.626 62.8666 215.666 62.8666H218.4C213.871 62.8666 210.2 59.1958 210.2 54.6667C210.2 50.1375 213.871 46.4667 218.4 46.4667C222.929 46.4667 226.6 50.1375 226.6 54.6667C226.6 59.1958 222.929 62.8666 218.4 62.8666H221.133C227.174 62.8666 232.066 67.7593 232.066 73.8V77.8453Z" fill="white"/>
<path d="M218.4 155.8C204.812 155.8 193.8 166.813 193.8 180.4C193.8 193.988 204.812 205 218.4 205C231.987 205 243 193.988 243 180.4C243 166.813 231.987 155.8 218.4 155.8ZM232.066 192.646H204.733V188.6C204.733 182.56 209.626 177.667 215.666 177.667H218.4C213.871 177.667 210.2 173.996 210.2 169.467C210.2 164.938 213.871 161.267 218.4 161.267C222.929 161.267 226.6 164.938 226.6 169.467C226.6 173.996 222.929 177.667 218.4 177.667H221.133C227.174 177.667 232.066 182.56 232.066 188.6V192.646Z" fill="white"/>
<path d="M138.434 118.911L132.3 123H117.267V147.6H132.3L140.5 150.333H151.433C154.454 150.333 156.9 147.887 156.9 144.867V142.133C159.92 142.133 162.367 139.687 162.367 136.667V133.933C165.387 133.933 167.833 131.487 167.833 128.467V125.733H178.767C181.03 125.733 182.867 123.896 182.867 121.633C182.867 119.37 181.03 117.533 178.767 117.533H142.982C141.364 117.533 139.781 118.012 138.434 118.911Z" fill="white"/>
<path d="M139.133 155.579C139.016 155.549 138.887 155.56 138.772 155.521L131.412 153.067H117.267C114.249 153.067 111.8 150.618 111.8 147.6V123C111.8 119.983 114.249 117.533 117.267 117.533H130.646L135.402 114.363C136.561 113.592 137.819 113.013 139.133 112.627V87.4668H79V169.467H139.133V155.579ZM122.733 112.067H106.333V106.6H122.733V112.067ZM100.867 95.6668H117.267V101.133H100.867V95.6668ZM87.2 106.6H100.867V112.067H87.2V106.6ZM87.2 117.533H98.1333V123H87.2V117.533ZM87.2 128.467H100.867V133.933H87.2V128.467ZM87.2 142.133H100.867V147.6H87.2V142.133ZM117.267 161.267H87.2V155.8H117.267V161.267Z" fill="white"/>
<path d="M188.665 137.938L180.934 145.668L184.799 149.534L192.53 141.803L188.665 137.938Z" fill="white"/>
<path d="M184.796 93.7351L180.931 97.6006L188.662 105.332L192.527 101.466L184.796 93.7351Z" fill="white"/>
</svg>
