<svg width="15" height="17" viewBox="0 0 15 17" fill="none" xmlns="http://www.w3.org/2000/svg">
<path d="M11.9448 3.79306L11.5109 15.0886C11.5082 15.1614 11.4357 15.2275 11.358 15.2275H3.64177C3.56557 15.2275 3.49165 15.16 3.48888 15.0886L3.05501 3.79306C3.03869 3.36528 2.659 3.03092 2.20719 3.04655C1.75523 3.06215 1.40227 3.4215 1.41877 3.84946L1.85247 15.145C1.88723 16.0499 2.68429 16.7779 3.64176 16.7779H11.358C12.317 16.7779 13.1124 16.0516 13.1473 15.145L13.581 3.84946C13.5975 3.42152 13.2446 3.06217 12.7926 3.04655C12.3408 3.03094 11.9611 3.36527 11.9448 3.79306H11.9448Z" fill="white"/>
<path d="M6.91516 6.03601V13.5664C6.91516 13.8721 7.17704 14.1201 7.49995 14.1201C7.82286 14.1201 8.08474 13.8721 8.08474 13.5664V6.03601C8.08474 5.73026 7.82286 5.4823 7.49995 5.4823C7.17704 5.4823 6.91516 5.73026 6.91516 6.03601Z" fill="white"/>
<path d="M4.2256 6.05231L4.45958 13.5827C4.46905 13.8884 4.73843 14.1289 5.06133 14.1199C5.38408 14.1109 5.63814 13.8558 5.62866 13.5501L5.39468 6.01972C5.38521 5.71413 5.11582 5.47357 4.79293 5.48254C4.47018 5.4915 4.21612 5.74657 4.2256 6.05231V6.05231Z" fill="white"/>
<path d="M9.60558 6.01984L9.37159 13.5502C9.36213 13.856 9.61618 14.1111 9.93892 14.12C10.2618 14.129 10.5312 13.8886 10.5407 13.5828L10.7746 6.05243C10.7841 5.74668 10.5301 5.4916 10.2073 5.48266C9.88442 5.4737 9.61502 5.71425 9.60558 6.01984V6.01984Z" fill="white"/>
<path d="M1.65216 4.04281H13.3479C13.8 4.04281 14.1667 3.69582 14.1667 3.26754C14.1667 2.83945 13.8001 2.49243 13.3479 2.49243H1.65216C1.20004 2.49243 0.833374 2.83942 0.833374 3.26754C0.833374 3.69579 1.20001 4.04281 1.65216 4.04281V4.04281Z" fill="white"/>
<path d="M5.95541 2.90165L6.19608 1.98981C6.23051 1.85973 6.42337 1.71698 6.56369 1.71698H8.43685C8.5775 1.71698 8.77004 1.85942 8.80447 1.98981L9.04514 2.90165L10.6337 2.52561L10.3929 1.61377C10.1764 0.793579 9.32903 0.166626 8.43685 0.166626H6.56369C5.67151 0.166626 4.82415 0.793855 4.60765 1.61377L4.36682 2.52561L5.95541 2.90165Z" fill="white"/>
</svg>
