<svg width="19" height="20" viewBox="0 0 19 20" fill="none" xmlns="http://www.w3.org/2000/svg">
<path d="M3.99997 5.50018H2.99998C2.46955 5.50018 1.96085 5.71089 1.58578 6.08596C1.21071 6.46103 1 6.96974 1 7.50016V16.5001C1 17.0305 1.21071 17.5392 1.58578 17.9143C1.96085 18.2893 2.46955 18.5001 2.99998 18.5001H11.9999C12.5303 18.5001 13.039 18.2893 13.4141 17.9143C13.7892 17.5392 13.9999 17.0305 13.9999 16.5001V15.5001" stroke="#333333" stroke-width="1.99998" stroke-linecap="round" stroke-linejoin="round"/>
<path d="M12.9999 3.50012L15.9999 6.50009M17.3849 5.0851C17.7787 4.69126 18 4.15709 18 3.60012C18 3.04314 17.7787 2.50897 17.3849 2.11513C16.991 1.72129 16.4569 1.50003 15.8999 1.50003C15.3429 1.50003 14.8088 1.72129 14.4149 2.11513L6 10.5V13.5H8.99997L17.3849 5.0851Z" stroke="#333333" stroke-width="1.99998" stroke-linecap="round" stroke-linejoin="round"/>
</svg>
