<svg width="22" height="21" viewBox="0 0 22 21" fill="none" xmlns="http://www.w3.org/2000/svg">
<path d="M17.9263 16.3021L20.8169 19.1912C20.9517 19.3308 21.0263 19.5177 21.0246 19.7118C21.0229 19.9058 20.9451 20.0914 20.8079 20.2286C20.6707 20.3658 20.485 20.4437 20.291 20.4454C20.097 20.447 19.91 20.3725 19.7705 20.2377L16.8799 17.3471C14.9909 18.9654 12.5486 19.7893 10.0653 19.6458C7.58205 19.5022 5.2509 18.4024 3.56102 16.5772C1.87115 14.7519 0.953912 12.3431 1.00178 9.85613C1.04966 7.36918 2.05892 4.99743 3.81778 3.23856C5.57665 1.47969 7.9484 0.470432 10.4354 0.42256C12.9223 0.374688 15.3311 1.29192 17.1564 2.9818C18.9816 4.67168 20.0814 7.00283 20.225 9.4861C20.3685 11.9694 19.5447 14.4117 17.9263 16.3006V16.3021ZM10.6206 18.1818C12.7796 18.1818 14.8501 17.3242 16.3768 15.7976C17.9034 14.2709 18.761 12.2004 18.761 10.0414C18.761 7.88242 17.9034 5.81188 16.3768 4.28525C14.8501 2.75862 12.7796 1.90097 10.6206 1.90097C8.46165 1.90097 6.3911 2.75862 4.86447 4.28525C3.33785 5.81188 2.4802 7.88242 2.4802 10.0414C2.4802 12.2004 3.33785 14.2709 4.86447 15.7976C6.3911 17.3242 8.46165 18.1818 10.6206 18.1818Z" fill="black" fill-opacity="0.8" stroke="black" stroke-opacity="0.8" stroke-width="0.667649"/>
</svg>
