<svg width="66" height="66" viewBox="0 0 66 66" fill="none" xmlns="http://www.w3.org/2000/svg">
<path d="M14.0005 0C10.711 0 8.00046 2.71056 8.00046 6V52C8.00046 55.2894 10.711 58 14.0005 58H60.0005C63.2899 58 66.0005 55.2894 66.0005 52V6C66.0005 2.71056 63.2899 0 60.0005 0H14.0005ZM14.0005 4H60.0005C61.1431 4 62.0005 4.85737 62.0005 6V52C62.0005 53.1426 61.1431 54 60.0005 54H14.0005C12.8578 54 12.0005 53.1426 12.0005 52V6C12.0005 4.85737 12.8578 4 14.0005 4ZM1.78171 11.9688C1.28463 12.0234 0.82604 12.2622 0.49633 12.6382C0.166619 13.0142 -0.0102921 13.5 0.000463112 14V60C0.000463112 63.2895 2.71104 66 6.00046 66H52.0005C52.2655 66.0037 52.5286 65.9548 52.7745 65.856C53.0205 65.7571 53.2443 65.6104 53.4331 65.4243C53.6218 65.2382 53.7717 65.0165 53.874 64.772C53.9763 64.5275 54.0289 64.2651 54.0289 64C54.0289 63.7349 53.9763 63.4725 53.874 63.228C53.7717 62.9835 53.6218 62.7618 53.4331 62.5757C53.2443 62.3896 53.0205 62.2429 52.7745 62.144C52.5286 62.0452 52.2655 61.9963 52.0005 62H6.00046C4.85782 62 4.00046 61.1427 4.00046 60V14C4.0066 13.7153 3.95186 13.4325 3.83992 13.1707C3.72798 12.9088 3.56142 12.6739 3.35137 12.4816C3.14132 12.2893 2.89263 12.1441 2.62194 12.0556C2.35124 11.9672 2.06478 11.9376 1.78171 11.9688ZM36.7817 14.9688C36.2846 15.0234 35.826 15.2622 35.4963 15.6382C35.1666 16.0142 34.9897 16.5 35.0005 17V27H25.0005C24.938 26.9971 24.8754 26.9971 24.813 27C24.5503 27.0123 24.2926 27.0761 24.0546 27.188C23.8166 27.2999 23.603 27.4575 23.4259 27.6519C23.2489 27.8464 23.1119 28.0738 23.0227 28.3212C22.9336 28.5686 22.894 28.8311 22.9063 29.0938C22.9186 29.3564 22.9826 29.6141 23.0945 29.8521C23.2064 30.0901 23.3641 30.3036 23.5585 30.4807C23.753 30.6577 23.9804 30.7946 24.2278 30.8838C24.4752 30.9729 24.7378 31.0124 25.0005 31H35.0005V41C34.9967 41.265 35.0457 41.5281 35.1445 41.7741C35.2433 42.02 35.3901 42.2439 35.5761 42.4326C35.7622 42.6213 35.984 42.7712 36.2285 42.8735C36.473 42.9758 36.7354 43.0285 37.0005 43.0285C37.2655 43.0285 37.5279 42.9758 37.7724 42.8735C38.0169 42.7712 38.2387 42.6213 38.4248 42.4326C38.6109 42.2439 38.7576 42.02 38.8564 41.7741C38.9552 41.5281 39.0042 41.265 39.0005 41V31H49.0005C49.2655 31.0037 49.5286 30.9548 49.7745 30.856C50.0205 30.7571 50.2443 30.6104 50.4331 30.4243C50.6218 30.2382 50.7717 30.0165 50.874 29.772C50.9763 29.5275 51.0289 29.2651 51.0289 29C51.0289 28.7349 50.9763 28.4725 50.874 28.228C50.7717 27.9835 50.6218 27.7618 50.4331 27.5757C50.2443 27.3896 50.0205 27.2429 49.7745 27.144C49.5286 27.0452 49.2655 26.9963 49.0005 27H39.0005V17C39.0066 16.7153 38.9519 16.4325 38.8399 16.1707C38.728 15.9088 38.5614 15.6739 38.3514 15.4816C38.1413 15.2893 37.8926 15.1441 37.6219 15.0556C37.3512 14.9672 37.0648 14.9376 36.7817 14.9688Z" fill="white"/>
</svg>
