<svg width="19" height="20" viewBox="0 0 19 20" fill="none" xmlns="http://www.w3.org/2000/svg">
<path d="M16.1999 11.1025H13.9536V13.3489H16.1999V11.1025ZM15.5951 12.7441H14.5584V11.7073H15.5951V12.7441Z" fill="#76272B"/>
<path d="M13.219 8.12158H10.9727V10.3681H13.219V8.12158ZM12.6142 9.76326H11.5774V8.7265H12.6142V9.76326Z" fill="#76272B"/>
<path d="M4.27656 11.1025H2.05176V13.3489H4.29808L4.29823 11.1025H4.27656ZM3.67176 12.7441H2.635V11.7073H3.67176V12.7441Z" fill="#76272B"/>
<path d="M4.27656 14.083H2.05176V16.3293H4.29808L4.29823 14.083H4.27656ZM3.67176 15.7246H2.635V14.6878H3.67176V15.7246Z" fill="#76272B"/>
<path d="M16.1999 8.12158H13.9536V10.3681H16.1999V8.12158ZM15.5951 9.76326H14.5584V8.7265L15.5951 8.72635V9.76326Z" fill="#76272B"/>
<path d="M13.219 14.083H10.9727V16.3293H13.219V14.083ZM12.6142 15.7246H11.5774V14.6878H12.6142V15.7246Z" fill="#76272B"/>
<path d="M10.2382 11.1025H7.9917V13.3489H10.238L10.2382 11.1025ZM9.63338 12.7441H8.59662V11.7073H9.63338V12.7441Z" fill="#76272B"/>
<path d="M7.25755 14.083H5.01123V16.3293H7.25755V14.083ZM6.65275 15.7246H5.61599V14.6878H6.65275V15.7246Z" fill="#76272B"/>
<path d="M10.2382 8.12158H7.9917V10.3681H10.238L10.2382 8.12158ZM9.63338 9.76326H8.59662V8.7265H9.63338V9.76326Z" fill="#76272B"/>
<path d="M7.25755 8.12158H5.01123V10.3681H7.25755V8.12158ZM6.65275 9.76326H5.61599V8.7265H6.65275V9.76326Z" fill="#76272B"/>
<path d="M13.219 11.1025H10.9727V13.3489H13.219V11.1025ZM12.6142 12.7441H11.5774V11.7073H12.6142V12.7441Z" fill="#76272B"/>
<path d="M7.25755 11.1025H5.01123V13.3489H7.25755V11.1025ZM6.65275 12.7441H5.61599V11.7073H6.65275V12.7441Z" fill="#76272B"/>
<path d="M10.2382 14.083H7.9917V16.3293H10.238L10.2382 14.083ZM9.63338 15.7246H8.59662L8.59647 14.6878H9.63323L9.63338 15.7246Z" fill="#76272B"/>
<path d="M17.1936 0.950438H14.0832C13.9536 0.410438 13.4784 0 12.8951 0C12.3119 0 11.8367 0.410438 11.6856 0.950438H6.54476C6.41518 0.410438 5.91844 0 5.3352 0C4.75196 0 4.27676 0.410438 4.12564 0.950438H1.03676C0.4752 0.950438 0 1.40412 0 1.9872V18.4248C0 18.9864 0.453677 19.4616 1.03676 19.4616H17.172C17.7335 19.4616 18.2087 19.0079 18.2087 18.4248L18.2089 1.9656C18.2089 1.40392 17.7552 0.9504 17.1937 0.9504L17.1936 0.950438ZM12.2688 1.23128C12.2688 0.88565 12.5496 0.604962 12.8951 0.604962C13.2408 0.604962 13.5214 0.885808 13.5214 1.23128V2.07368C13.5214 2.41932 13.2406 2.70001 12.8951 2.70001C12.5495 2.70001 12.2688 2.41916 12.2688 2.07368V1.23128ZM4.7088 1.23128C4.7088 0.88565 4.98965 0.604962 5.33512 0.604962C5.68076 0.604962 5.96145 0.885808 5.96145 1.23128V2.07368C5.96145 2.41932 5.6806 2.70001 5.33512 2.70001C4.98949 2.70001 4.7088 2.41916 4.7088 2.07368V1.23128ZM0.6264 1.96565C0.6264 1.72804 0.820765 1.55521 1.03684 1.55521H4.08248V2.07365C4.08248 2.76492 4.64404 3.32645 5.33528 3.32645H5.5081C6.13442 3.24011 6.60966 2.67841 6.60966 2.03037V1.55517H11.6425V2.07361C11.6425 2.76488 12.204 3.32641 12.8953 3.32641H13.0681C13.6944 3.24007 14.1696 2.67837 14.1696 2.03033V1.55513H17.2153C17.4529 1.55513 17.6257 1.7495 17.6257 1.96557V5.61601H0.626516L0.6264 1.96565ZM17.604 18.4032C17.604 18.6409 17.4096 18.8137 17.1936 18.8137H1.03676C0.799154 18.8137 0.626323 18.6193 0.626323 18.4032L0.626473 6.26405H17.6041L17.604 18.4032Z" fill="#76272B"/>
</svg>
