<svg width="30" height="30" viewBox="0 0 30 30" fill="none" xmlns="http://www.w3.org/2000/svg">
<path d="M28.0167 14.6082C25.2083 9.41657 20.2833 6.2749 14.8333 6.2749C9.38335 6.2749 4.45002 9.41657 1.66668 14.6082L1.43335 14.9999L1.65002 15.3999C4.45835 20.5916 9.38335 23.7332 14.8333 23.7332C20.2833 23.7332 25.2167 20.6332 28.0167 15.3999L28.2333 14.9999L28.0167 14.6082ZM14.8333 22.0249C10.1417 22.0249 5.83335 19.4082 3.33335 14.9999C5.83335 10.5916 10.1417 7.9749 14.8333 7.9749C19.525 7.9749 23.7833 10.5999 26.325 14.9999C23.7833 19.4082 19.5167 22.0249 14.8333 22.0249Z" fill="black"/>
<path d="M15.075 9.30826C13.9451 9.3165 12.843 9.65941 11.9078 10.2937C10.9727 10.9279 10.2465 11.8251 9.82094 12.8718C9.3954 13.9185 9.28959 15.0679 9.51688 16.1747C9.74418 17.2816 10.2944 18.2962 11.098 19.0905C11.9016 19.8848 12.9226 20.4232 14.032 20.6376C15.1414 20.852 16.2895 20.7328 17.3312 20.2951C18.3729 19.8574 19.2615 19.1208 19.8849 18.1783C20.5082 17.2359 20.8382 16.1298 20.8333 14.9999C20.83 14.2478 20.6784 13.5037 20.387 12.8103C20.0957 12.1169 19.6703 11.4878 19.1354 10.959C18.6004 10.4303 17.9664 10.0123 17.2697 9.72902C16.5729 9.44575 15.8271 9.30277 15.075 9.30826ZM15.075 19.0749C14.2769 19.0667 13.499 18.8228 12.839 18.3739C12.179 17.925 11.6664 17.2912 11.3655 16.5519C11.0646 15.8126 10.9889 15.0009 11.1478 14.2187C11.3067 13.4365 11.6932 12.7188 12.2588 12.1555C12.8243 11.5923 13.5437 11.2087 14.3265 11.053C15.1093 10.8972 15.9207 10.9763 16.6588 11.2802C17.3968 11.5841 18.0286 12.0993 18.4748 12.7611C18.921 13.4229 19.1617 14.2018 19.1666 14.9999C19.1689 15.5371 19.0644 16.0694 18.8594 16.5658C18.6543 17.0623 18.3528 17.5132 17.9722 17.8923C17.5915 18.2713 17.1395 18.571 16.6421 18.7741C16.1448 18.9771 15.6121 19.0793 15.075 19.0749Z" fill="black"/>
</svg>
