<svg width="24" height="23" viewBox="0 0 24 23" fill="none" xmlns="http://www.w3.org/2000/svg">
<path d="M1.50797 0.000861662C1.10803 0.000861662 0.724474 0.159737 0.441674 0.442536C0.158875 0.725336 0 1.10889 0 1.50883V5.87161C0 5.91986 0.00258521 5.96812 0.0068937 6.01551V18.1508C0.0068937 18.9832 0.682465 19.6588 1.51486 19.6588H22.492C22.892 19.6588 23.2755 19.4999 23.5583 19.2171C23.8411 18.9343 24 18.5507 24 18.1508V4.87376C24 4.47382 23.8411 4.09026 23.5583 3.80747C23.2755 3.52467 22.892 3.36579 22.492 3.36579H13.1288C12.6856 3.36587 12.2595 3.19521 11.9388 2.88927L9.41232 0.476519C9.09168 0.170579 8.6655 -7.77979e-05 8.22232 2.6606e-08L1.50797 0.000861662Z" fill="#720C20"/>
<path d="M1.50797 0.000861662C1.10803 0.000861662 0.724474 0.159737 0.441674 0.442536C0.158875 0.725336 0 1.10889 0 1.50883V5.87161C0 5.91986 0.00258521 5.96812 0.0068937 6.01551V18.1508C0.0068937 18.9832 0.682465 19.6588 1.51486 19.6588H22.492C22.892 19.6588 23.2755 19.4999 23.5583 19.2171C23.8411 18.9343 24 18.5507 24 18.1508V4.87376C24 4.47382 23.8411 4.09026 23.5583 3.80747C23.2755 3.52467 22.892 3.36579 22.492 3.36579H13.1288C12.6856 3.36587 12.2595 3.19521 11.9388 2.88927L9.41232 0.476519C9.09168 0.170579 8.6655 -7.77979e-05 8.22232 2.6606e-08L1.50797 0.000861662Z" fill="#720C20"/>
<g filter="url(#filter0_ii_2290_879)">
<path d="M22.4851 5.97949H1.50797C0.675142 5.97949 0 6.65463 0 7.48746V20.7628C0 21.5956 0.675142 22.2707 1.50797 22.2707H22.4851C23.318 22.2707 23.9931 21.5956 23.9931 20.7628V7.48746C23.9931 6.65463 23.318 5.97949 22.4851 5.97949Z" fill="url(#paint0_linear_2290_879)"/>
</g>
<path d="M22.4851 5.97949H1.50797C0.675142 5.97949 0 6.65463 0 7.48746V20.7628C0 21.5956 0.675142 22.2707 1.50797 22.2707H22.4851C23.318 22.2707 23.9931 21.5956 23.9931 20.7628V7.48746C23.9931 6.65463 23.318 5.97949 22.4851 5.97949Z" fill="#82293A"/>
<defs>
<filter id="filter0_ii_2290_879" x="-0.0861697" y="5.89332" width="24.1654" height="16.6359" filterUnits="userSpaceOnUse" color-interpolation-filters="sRGB">
<feFlood flood-opacity="0" result="BackgroundImageFix"/>
<feBlend mode="normal" in="SourceGraphic" in2="BackgroundImageFix" result="shape"/>
<feColorMatrix in="SourceAlpha" type="matrix" values="0 0 0 0 0 0 0 0 0 0 0 0 0 0 0 0 0 0 127 0" result="hardAlpha"/>
<feOffset dx="-0.0861697" dy="0.258509"/>
<feGaussianBlur stdDeviation="0.323137"/>
<feComposite in2="hardAlpha" operator="arithmetic" k2="-1" k3="1"/>
<feColorMatrix type="matrix" values="0 0 0 0 1 0 0 0 0 0.94902 0 0 0 0 0.32549 0 0 0 1 0"/>
<feBlend mode="normal" in2="shape" result="effect1_innerShadow_2290_879"/>
<feColorMatrix in="SourceAlpha" type="matrix" values="0 0 0 0 0 0 0 0 0 0 0 0 0 0 0 0 0 0 127 0" result="hardAlpha"/>
<feOffset dx="0.0861697" dy="-0.0861697"/>
<feGaussianBlur stdDeviation="0.129255"/>
<feComposite in2="hardAlpha" operator="arithmetic" k2="-1" k3="1"/>
<feColorMatrix type="matrix" values="0 0 0 0 0.941176 0 0 0 0 0.690196 0 0 0 0 0.364706 0 0 0 1 0"/>
<feBlend mode="normal" in2="effect1_innerShadow_2290_879" result="effect2_innerShadow_2290_879"/>
</filter>
<linearGradient id="paint0_linear_2290_879" x1="11.9966" y1="5.97949" x2="11.9966" y2="22.2707" gradientUnits="userSpaceOnUse">
<stop stop-color="#FFE155"/>
<stop offset="1" stop-color="#FFB45F"/>
</linearGradient>
</defs>
</svg>
