<svg width="20" height="20" viewBox="0 0 20 20" fill="none" xmlns="http://www.w3.org/2000/svg">
<g opacity="0.5">
<path d="M16.3078 10.685C16.4189 10.6085 16.5096 10.5062 16.5724 10.3869C16.6351 10.2676 16.6679 10.1348 16.6679 9.99999C16.6679 9.86518 16.6351 9.7324 16.5724 9.61307C16.5096 9.49374 16.4189 9.39144 16.3078 9.31499L5.47449 1.81499C5.34954 1.72818 5.20319 1.67727 5.05133 1.6678C4.89948 1.65832 4.74793 1.69065 4.61315 1.76125C4.47838 1.83186 4.36553 1.93806 4.28687 2.06829C4.20822 2.19854 4.16675 2.34784 4.16699 2.49999L4.16699 17.5C4.16762 17.6518 4.20962 17.8005 4.28846 17.9303C4.36731 18.06 4.48002 18.1657 4.61449 18.2362C4.74895 18.3066 4.90007 18.3391 5.0516 18.3301C5.20313 18.321 5.34934 18.2709 5.47449 18.185L16.3078 10.685Z" fill="black"/>
</g>
</svg>
