<svg width="20" height="20" viewBox="0 0 20 20" fill="none" xmlns="http://www.w3.org/2000/svg">
<g opacity="0.5">
<path d="M9.31452 16.3073C9.39097 16.4184 9.49327 16.5092 9.6126 16.5719C9.73193 16.6346 9.86471 16.6674 9.99952 16.6674C10.1343 16.6674 10.2671 16.6346 10.3864 16.5719C10.5058 16.5092 10.6081 16.4184 10.6845 16.3073L18.1845 5.474C18.2713 5.34905 18.3222 5.2027 18.3317 5.05084C18.3412 4.89899 18.3089 4.74744 18.2383 4.61267C18.1677 4.47789 18.0615 4.36504 17.9312 4.28639C17.801 4.20773 17.6517 4.16627 17.4995 4.1665H2.49952C2.34772 4.16713 2.19897 4.20913 2.06925 4.28797C1.93954 4.36682 1.83377 4.47954 1.76333 4.614C1.69288 4.74846 1.66042 4.89958 1.66944 5.05111C1.67846 5.20264 1.72862 5.34885 1.81452 5.474L9.31452 16.3073Z" fill="black"/>
</g>
</svg>
