<svg width="21" height="19" viewBox="0 0 21 19" fill="none" xmlns="http://www.w3.org/2000/svg">
<g id="Group">
<path id="Vector" d="M19.978 0.207031H12.5043C12.04 0.207031 11.6641 0.553907 11.6641 0.982401V7.87911C11.6641 8.3076 12.04 8.65448 12.5043 8.65448H19.978C20.4424 8.65448 20.8183 8.3076 20.8183 7.87911V0.982401C20.7962 0.553907 20.4203 0.207031 19.978 0.207031ZM19.1378 7.10374H13.3445V1.73737H19.1599V7.10374H19.1378Z" fill="#7A7A7A" stroke="#7A7A7A" stroke-width="0.216283"/>
<path id="Vector_2" d="M9.18834 0.207031H1.73673C1.27238 0.207031 0.896484 0.553907 0.896484 0.982401V7.87911C0.896484 8.3076 1.27238 8.65448 1.73673 8.65448H9.21045C9.67479 8.65448 10.0507 8.3076 10.0507 7.87911V0.982401C10.0286 0.553907 9.65268 0.207031 9.18834 0.207031ZM8.37021 7.10374H2.55486V1.73737H8.37021V7.10374Z" fill="#7A7A7A" stroke="#7A7A7A" stroke-width="0.216283"/>
<path id="Vector_3" d="M19.978 10.1658H12.5043C12.04 10.1658 11.6641 10.5126 11.6641 10.9411V17.8379C11.6641 18.2663 12.04 18.6132 12.5043 18.6132H19.978C20.4424 18.6132 20.8183 18.2663 20.8183 17.8379V10.9207C20.7962 10.4922 20.4203 10.1658 19.978 10.1658ZM19.1378 17.0421H13.3445V11.6961H19.1599V17.0421H19.1378Z" fill="#7A7A7A" stroke="#7A7A7A" stroke-width="0.216283"/>
<path id="Vector_4" d="M9.18834 10.1658H1.73673C1.27238 10.1658 0.896484 10.5126 0.896484 10.9411V17.8379C0.896484 18.2255 1.27238 18.5724 1.73673 18.5724H9.21045C9.67479 18.5724 10.0507 18.2255 10.0507 17.797V10.9207C10.0286 10.4922 9.65268 10.1658 9.18834 10.1658ZM8.37021 17.0421H2.55486V11.6961H8.37021V17.0421Z" fill="#7A7A7A" stroke="#7A7A7A" stroke-width="0.216283"/>
</g>
</svg>
