<svg width="30" height="30" viewBox="0 0 30 30" fill="none" xmlns="http://www.w3.org/2000/svg">
<path d="M6.66662 6.8335H20V8.16683H6.66662V6.8335ZM6.66662 13.5002H13.405V14.8335H6.66662V13.5002ZM19.4816 10.1668H6.66662V11.5002H18.1491L19.4816 10.1668ZM10.6608 24.2268C10.8849 24.4839 11.1694 24.6812 11.4887 24.801C11.808 24.9209 12.152 24.9595 12.49 24.9135H18.9925C19.1472 24.9135 19.2955 24.852 19.4049 24.7426C19.5143 24.6332 19.5758 24.4849 19.5758 24.3302C19.5758 24.1754 19.5143 24.0271 19.4049 23.9177C19.2955 23.8083 19.1472 23.7468 18.9925 23.7468H12.49C11.7308 23.7335 11.8658 23.0743 11.9725 22.8702C12.1115 22.6305 12.2199 22.3744 12.295 22.1077C12.3448 21.8931 12.3213 21.668 12.2283 21.4683C12.1352 21.2686 11.978 21.1059 11.7816 21.006C11.4662 20.8639 11.1128 20.829 10.7757 20.9069C10.4386 20.9847 10.1362 21.1708 9.91496 21.4368C9.62829 21.7327 9.22996 22.1852 8.84829 22.6252C9.08412 21.701 9.38996 20.5152 9.68996 19.3585C9.77593 19.0949 9.75881 18.8086 9.64206 18.5572C9.52531 18.3057 9.31761 18.1079 9.06079 18.0035C8.77638 17.9059 8.46555 17.9199 8.19102 18.0425C7.91649 18.1652 7.6987 18.3874 7.58162 18.6643C7.22162 19.3568 4.37162 24.1327 4.34329 24.181C4.304 24.2468 4.27806 24.3196 4.26693 24.3954C4.2558 24.4712 4.25971 24.5485 4.27844 24.6228C4.29717 24.697 4.33034 24.7669 4.37607 24.8284C4.4218 24.8899 4.47919 24.9417 4.54496 24.981C4.67779 25.0603 4.8367 25.0837 4.98672 25.0458C5.13675 25.008 5.26561 24.9122 5.34496 24.7793C5.45162 24.6002 7.72662 20.7893 8.44412 19.5168C7.90412 21.6002 7.30912 23.9185 7.27412 24.1268C7.23473 24.28 7.24655 24.4419 7.3078 24.5877C7.36904 24.7335 7.47634 24.8552 7.61329 24.9343C7.76583 25.01 7.93922 25.0327 8.1061 24.9989C8.27299 24.9651 8.42387 24.8767 8.53496 24.7477C8.63996 24.6527 8.83662 24.4268 9.33246 23.851C9.79443 23.3077 10.2676 22.7739 10.7516 22.2502C10.9333 22.0585 11.0433 22.1435 10.9366 22.3318C10.728 22.5955 10.5927 22.9096 10.5444 23.2424C10.4961 23.5751 10.5365 23.9147 10.6616 24.2268H10.6608Z" fill="black"/>
<path d="M23.3333 18.079V26.6665H3.33329V3.33317H23.3333V7.494L24.4416 6.38567C24.6122 6.2174 24.7993 6.06664 25 5.93567V2.49984C25 2.27882 24.9122 2.06686 24.7559 1.91058C24.5996 1.7543 24.3876 1.6665 24.1666 1.6665H2.49996C2.27895 1.6665 2.06698 1.7543 1.9107 1.91058C1.75442 2.06686 1.66663 2.27882 1.66663 2.49984V27.4998C1.66663 27.7209 1.75442 27.9328 1.9107 28.0891C2.06698 28.2454 2.27895 28.3332 2.49996 28.3332H24.1666C24.3876 28.3332 24.5996 28.2454 24.7559 28.0891C24.9122 27.9328 25 27.7209 25 27.4998V17.8557C24.4888 18.1265 23.8977 18.2057 23.3333 18.079Z" fill="black"/>
<path d="M28.44 9.88415L28.0042 9.44832C28.2269 9.15395 28.3397 8.79094 28.323 8.42218C28.3062 8.05342 28.161 7.70212 27.9125 7.42915C27.5899 7.14485 27.1681 6.99951 26.7389 7.0248C26.3096 7.05008 25.9078 7.24394 25.6208 7.56415L15.1833 18L14.4858 20.6183C14.4748 20.6526 14.4735 20.6892 14.482 20.7242C14.4905 20.7592 14.5085 20.7911 14.534 20.8165C14.5596 20.8418 14.5916 20.8596 14.6267 20.8679C14.6617 20.8762 14.6983 20.8746 14.7325 20.8633L17.3417 20.1575L27.085 10.4141L27.4967 10.8266C27.5254 10.8554 27.5482 10.8895 27.5638 10.927C27.5794 10.9645 27.5874 11.0048 27.5874 11.0454C27.5874 11.086 27.5794 11.1263 27.5638 11.1638C27.5482 11.2013 27.5254 11.2354 27.4967 11.2641L23.3992 15.3616C23.2742 15.4867 23.204 15.6564 23.2041 15.8332C23.2042 16.01 23.2745 16.1796 23.3996 16.3046C23.5247 16.4295 23.6943 16.4997 23.8711 16.4996C24.048 16.4996 24.2175 16.4292 24.3425 16.3041L28.44 12.2066C28.748 11.8985 28.921 11.4807 28.921 11.045C28.921 10.6093 28.748 10.1915 28.44 9.88332V9.88415Z" fill="black"/>
</svg>
