<svg width="14" height="14" viewBox="0 0 14 14" fill="none" xmlns="http://www.w3.org/2000/svg">
<path d="M12.6662 8.75154L9.74754 7.4437L9.73949 7.43998C9.58797 7.37517 9.42268 7.34917 9.25859 7.36431C9.09449 7.37946 8.93675 7.43527 8.79965 7.52672C8.7835 7.53736 8.76799 7.54895 8.75319 7.56141L7.24524 8.84695C6.28991 8.38291 5.30361 7.40405 4.83958 6.46111L6.12698 4.93024C6.13937 4.91475 6.15114 4.89927 6.16229 4.88254C6.25177 4.74581 6.30606 4.58908 6.32033 4.42629C6.33459 4.26351 6.3084 4.09973 6.24407 3.94952V3.94208L4.93251 1.01849C4.84747 0.822265 4.70126 0.658801 4.51568 0.552503C4.33011 0.446205 4.11513 0.402775 3.90284 0.428696C3.06335 0.539163 2.29278 0.95144 1.73505 1.58853C1.17731 2.22561 0.870558 3.04394 0.872076 3.89066C0.872076 8.80977 4.87428 12.812 9.79339 12.812C10.6401 12.8135 11.4584 12.5067 12.0955 11.949C12.7326 11.3913 13.1449 10.6207 13.2554 9.78121C13.2813 9.56899 13.238 9.35407 13.1318 9.1685C13.0256 8.98294 12.8623 8.83668 12.6662 8.75154ZM9.79339 11.8207C7.69091 11.8184 5.6752 10.9822 4.18853 9.49552C2.70185 8.00884 1.86563 5.99314 1.86333 3.89066C1.861 3.28568 2.07896 2.70053 2.47651 2.2445C2.87406 1.78846 3.42401 1.49273 4.02365 1.41252C4.02341 1.41499 4.02341 1.41748 4.02365 1.41995L5.32468 4.33177L4.0441 5.8645C4.03107 5.87944 4.01927 5.89539 4.00878 5.91221C3.91555 6.05527 3.86086 6.21999 3.85001 6.3904C3.83915 6.56082 3.8725 6.73114 3.94683 6.88488C4.50813 8.03288 5.6648 9.18088 6.82519 9.74156C6.98006 9.81519 7.15137 9.84739 7.3224 9.83501C7.49343 9.82263 7.65832 9.76609 7.80096 9.67093C7.8169 9.66026 7.83221 9.64868 7.84681 9.63623L9.3529 8.35132L12.2647 9.65544H12.2715C12.1923 10.2559 11.897 10.807 11.4409 11.2055C10.9848 11.6041 10.3991 11.8228 9.79339 11.8207Z" fill="#720C20" stroke="#720C20" stroke-width="0.4"/>
</svg>
