<svg width="23" height="25" viewBox="0 0 23 25" fill="none" xmlns="http://www.w3.org/2000/svg">
<g id="Group">
<path id="Vector" d="M8.89158 1.24109C7.76049 1.24109 6.8241 2.17749 6.8241 3.30857V4.5158H1.68977C1.23763 4.5158 0.871094 4.88234 0.871094 5.33448C0.871094 5.78662 1.23763 6.15316 1.68977 6.15316H2.43969C2.9735 11.3582 3.45919 16.571 3.96192 21.7864C4.08185 23.0306 5.06576 24.1641 6.41476 24.1641H16.2389C17.5872 24.1641 18.567 23.0306 18.6901 21.7896C19.2163 16.5706 19.6937 11.3541 20.2523 6.15316H21.1462C21.5983 6.15316 21.9648 5.78662 21.9648 5.33448C21.9648 4.88234 21.5983 4.5158 21.1462 4.5158H15.8296V3.30857C15.8296 2.17749 14.8932 1.24109 13.7621 1.24109H8.89158ZM8.89158 2.87844H13.7621C14.0153 2.87844 14.1922 3.05532 14.1922 3.30857V4.5158H8.46145V3.30857C8.46145 3.05532 8.63832 2.87844 8.89158 2.87844ZM4.08345 6.15316H18.6086C18.0336 11.5288 17.5201 17.0841 17.0666 21.6225C17.0112 22.186 16.704 22.5267 16.2389 22.5267H6.41476C5.94957 22.5267 5.64702 22.1913 5.59288 21.6297C5.09593 16.4743 4.61151 11.3126 4.08345 6.15316Z" fill="#333333" stroke="#333333" stroke-width="0.652669"/>
<path id="Vector_2" d="M8.96321 10.2458C8.74608 10.2458 8.53785 10.3321 8.38432 10.4856C8.23078 10.6392 8.14453 10.8474 8.14453 11.0645V17.614C8.14453 17.8311 8.23078 18.0393 8.38432 18.1928C8.53785 18.3464 8.74608 18.4326 8.96321 18.4326C9.18034 18.4326 9.38857 18.3464 9.5421 18.1928C9.69563 18.0393 9.78189 17.8311 9.78189 17.614V11.0645C9.78189 10.8474 9.69563 10.6392 9.5421 10.4856C9.38857 10.3321 9.18034 10.2458 8.96321 10.2458Z" fill="#333333" stroke="#333333" stroke-width="0.652669"/>
<path id="Vector_3" d="M13.8773 10.2458C13.6601 10.2458 13.4519 10.3321 13.2984 10.4856C13.1448 10.6392 13.0586 10.8474 13.0586 11.0645V17.614C13.0586 17.8311 13.1448 18.0393 13.2984 18.1928C13.4519 18.3464 13.6601 18.4326 13.8773 18.4326C14.0944 18.4326 14.3026 18.3464 14.4562 18.1928C14.6097 18.0393 14.6959 17.8311 14.6959 17.614V11.0645C14.6959 10.8474 14.6097 10.6392 14.4562 10.4856C14.3026 10.3321 14.0944 10.2458 13.8773 10.2458Z" fill="#333333" stroke="#333333" stroke-width="0.652669"/>
</g>
</svg>
