<svg width="15" height="15" viewBox="0 0 15 15" fill="none" xmlns="http://www.w3.org/2000/svg">
<path fill-rule="evenodd" clip-rule="evenodd" d="M4.76052 2.78295C4.09969 2.78475 3.55022 2.79517 3.10149 2.8555C2.53823 2.93123 2.06398 3.09323 1.68731 3.4699C1.31065 3.84656 1.14865 4.32081 1.07291 4.88407C0.999975 5.42659 0.999988 6.11637 1 6.97217V9.54396C0.999988 10.3998 0.999975 11.0895 1.07291 11.6321C1.14865 12.1953 1.31065 12.6695 1.68731 13.0462C2.06398 13.4229 2.53823 13.5849 3.10149 13.6606C3.64401 13.7335 4.33381 13.7335 5.1896 13.7335H9.63868C10.4945 13.7335 11.1843 13.7335 11.7268 13.6606C12.2901 13.5849 12.7643 13.4229 13.141 13.0462C13.5176 12.6695 13.6797 12.1953 13.7554 11.6321C13.8283 11.0895 13.8283 10.3998 13.8283 9.54396V6.97217C13.8283 6.11637 13.8283 5.42659 13.7554 4.88407C13.6797 4.32081 13.5176 3.84656 13.141 3.4699C12.7643 3.09323 12.2901 2.93123 11.7268 2.8555C11.2781 2.79517 10.7286 2.78475 10.0678 2.78295C9.98805 1.73267 9.1106 0.905273 8.03991 0.905273H6.78837C5.71767 0.905273 4.84022 1.73267 4.76052 2.78295ZM5.70436 2.78258H9.12393C9.04802 2.25189 8.59158 1.84393 8.03991 1.84393H6.78837C6.23669 1.84393 5.78027 2.25189 5.70436 2.78258ZM2.35104 12.3825C2.52423 12.5557 2.76739 12.6686 3.22656 12.7304C3.69924 12.7939 4.3257 12.7949 5.22394 12.7949H9.60433C10.5026 12.7949 11.129 12.7939 11.6017 12.7304C12.0609 12.6686 12.304 12.5557 12.4772 12.3825C12.6504 12.2093 12.7633 11.9662 12.8251 11.507C12.8886 11.0343 12.8896 10.4078 12.8896 9.5096V7.00652C12.8896 6.10829 12.8886 5.48182 12.8251 5.00914C12.7633 4.54997 12.6504 4.30681 12.4772 4.13362C12.304 3.96044 12.0609 3.84752 11.6017 3.78578C11.129 3.72223 10.5026 3.72124 9.60433 3.72124H5.22394C4.3257 3.72124 3.69924 3.72223 3.22656 3.78578C2.76739 3.84752 2.52423 3.96044 2.35104 4.13362C2.17785 4.30681 2.06493 4.54997 2.0032 5.00914C1.93965 5.48182 1.93865 6.10829 1.93865 7.00652V9.5096C1.93865 10.4078 1.93965 11.0343 2.0032 11.507C2.06493 11.9662 2.17785 12.2093 2.35104 12.3825Z" fill="#838383" stroke="#838383" stroke-width="0.625769"/>
</svg>
