<svg width="30" height="30" viewBox="0 0 30 30" fill="none" xmlns="http://www.w3.org/2000/svg">
<g opacity="0.8">
<path d="M27.1113 20.2735H26.9707C27.7734 20.0391 28.459 19.4297 28.916 18.6153C29.6426 17.3262 29.6016 15.7735 28.8047 14.5606C28.5937 14.2383 28.3184 13.9512 28.002 13.7344V13.2891C28.002 12.5567 27.5332 11.918 26.8652 11.7364L25.1602 11.2676C24.8438 11.1797 24.5098 11.1797 24.1934 11.2676L22.5059 11.7364C21.8496 11.9121 21.3867 12.5508 21.3867 13.2832V13.7168C21.0586 13.9453 20.7773 14.2325 20.5605 14.5664C19.7637 15.7852 19.7227 17.3262 20.4492 18.6211C20.9063 19.4356 21.5977 20.045 22.3945 20.2793H21.5801C20.8828 19.5 19.8926 19.0547 18.8496 19.0489H17.0508V18.5918C18.6973 17.8125 19.8164 16.2305 19.9922 14.4141C20.7305 14.3731 21.3105 13.7578 21.3047 13.0196C21.293 12.3047 20.7539 11.7071 20.0391 11.6309V9.48636C20.0391 8.92386 19.916 8.37308 19.6641 7.86917C19.0605 6.63871 17.8008 5.85941 16.4297 5.86527H13.1836C12.4512 5.86527 11.7715 6.25785 11.4082 6.89652C10.0371 7.59378 9.79688 9.18167 9.79102 9.25199C9.78516 9.27542 9.78516 9.293 9.78516 9.31644V11.6368C9.45117 11.6543 9.13477 11.8008 8.90039 12.041C8.63672 12.3047 8.49023 12.6563 8.49023 13.0254C8.49023 13.7696 9.07031 14.3789 9.81445 14.42C9.91992 15.6094 10.4473 16.7227 11.291 17.5664C11.7715 18.0352 12.334 18.4043 12.9492 18.668V19.0489H11.1445C9.85547 19.0606 8.66602 19.7461 8.02148 20.8653H6.73828V20.795L7.5 20.2969C7.52344 20.2793 7.55274 20.2559 7.57031 20.2325C8.08594 19.7168 8.41406 19.0489 8.51367 18.3282C9 18.2285 9.3457 17.8067 9.35156 17.3086C9.35742 16.8282 9.0293 16.4063 8.56055 16.3008V14.2442C8.56055 13.5469 8.08594 12.9375 7.40625 12.7676L5.68359 12.3282C5.54297 12.293 5.39648 12.2754 5.25 12.2696C5.07422 12.2637 4.9043 12.2871 4.73437 12.3223C4.72851 12.3223 4.72852 12.3223 4.72266 12.3223L3.02344 12.7618C2.34961 12.9375 1.875 13.5469 1.875 14.2442V14.918C1.875 14.9532 1.85742 14.9883 1.85742 15.0235C1.85742 15.0703 1.875 15.1114 1.875 15.1524V16.295C1.40625 16.4004 1.07812 16.8223 1.08398 17.3028C1.08398 17.8008 1.42969 18.2227 1.91602 18.3282C2.0625 19.4121 2.73633 20.3262 3.71484 20.8535H2.90039C1.56445 20.8535 0.46875 21.92 0.46875 23.2559V24.4395C0.474609 24.6973 0.691406 24.9024 0.955078 24.8965H7.5V26.1387C7.50586 26.3965 7.7168 26.6016 7.97461 26.5957H22.0195C22.2773 26.6016 22.4883 26.3965 22.4941 26.1387V24.9024H29.0391C29.2969 24.9082 29.5137 24.709 29.5254 24.4453V22.8633C29.5313 21.4453 28.4355 20.2735 27.1113 20.2735ZM28.0078 15.0352C28.0078 15.0469 28.0254 15.0645 28.0313 15.0762C28.1191 15.211 28.1953 15.3575 28.2598 15.5039C28.1777 15.4629 28.0957 15.4278 28.0078 15.3985V15.0352ZM27.9727 17.5137C28.1484 17.4727 28.3125 17.3848 28.4414 17.2618C28.377 17.5782 28.2656 17.8828 28.1074 18.1641C27.9551 18.4395 27.7617 18.6856 27.5273 18.8907C27.7617 18.4688 27.9141 17.9942 27.9727 17.5137ZM20.0391 12.5801C20.2793 12.6504 20.4199 12.9082 20.3496 13.1485C20.3027 13.3067 20.1797 13.4239 20.0215 13.4649L20.0391 12.5801ZM9.78516 13.4707C9.58008 13.4121 9.43945 13.2305 9.42773 13.0196C9.42773 12.8965 9.47461 12.7793 9.5625 12.6973C9.62695 12.6387 9.70313 12.5977 9.78516 12.5743V13.4707ZM5.76562 13.711H5.68359V13.6055C5.68359 13.4707 5.63086 13.3477 5.53125 13.2598L7.17187 13.6758C7.43555 13.7403 7.61719 13.9746 7.62305 14.2442V15.7325C7.03711 15.961 6.45117 15.9141 5.92383 15.5977C5.71875 15.4746 5.53125 15.3223 5.36719 15.1465C5.56055 15.0821 5.68359 14.9004 5.68359 14.7012V14.6485H5.76562C6.02344 14.6485 6.23437 14.4375 6.23437 14.1797C6.23437 13.9219 6.02344 13.711 5.76562 13.711ZM2.8125 15.0235V14.2442C2.8125 13.9746 3 13.7403 3.25781 13.6758L4.9043 13.2539C4.80469 13.3418 4.74609 13.4707 4.74609 13.6055V13.711H4.66406C4.40625 13.711 4.19531 13.9219 4.19531 14.1797C4.19531 14.4375 4.40625 14.6485 4.66406 14.6485H4.74609V14.6719C4.6875 14.666 4.60547 14.666 4.5293 14.666C3.86133 14.666 3.28125 14.9297 2.8125 15.2051V15.0235ZM2.8125 17.877V16.377C3.10547 16.1368 3.76172 15.6153 4.50586 15.6035C4.75781 15.9082 5.05078 16.1719 5.38477 16.3828C5.83008 16.6641 6.3457 16.8106 6.87305 16.8164C7.125 16.8164 7.37109 16.7813 7.61719 16.7168V17.877C7.61719 18.4981 7.37109 19.0899 6.94336 19.5293L6.01172 20.127C5.75391 20.2207 5.48437 20.2618 5.21484 20.2618C4.95703 20.2618 4.69922 20.2207 4.45312 20.1387C3.47461 19.8164 2.8125 18.9024 2.8125 17.877ZM4.74609 23.9649H1.40625V23.2618C1.40625 22.4473 2.08594 21.7969 2.90039 21.7969H4.10156L4.74023 22.418V23.9649H4.74609ZM4.82812 21.1758C5.13281 21.211 5.4375 21.2051 5.73633 21.1582L5.27344 21.6211L4.82812 21.1758ZM7.5 22.6934V23.9649H5.68359V22.541L6.43945 21.7969H7.62891C7.54688 22.0899 7.5 22.3946 7.5 22.6934ZM18.9023 22.5528C19.248 22.5528 19.5293 22.834 19.5293 23.1797C19.5293 23.5254 19.248 23.8067 18.9023 23.8067C18.7383 23.8067 18.5742 23.7422 18.4629 23.625C18.2168 23.3789 18.2168 22.9805 18.4629 22.7344C18.5801 22.6231 18.7383 22.5528 18.9023 22.5528ZM12.1816 7.4473C12.3633 7.04886 12.7559 6.79691 13.1895 6.79691H16.4355C17.4551 6.79691 18.3809 7.37113 18.832 8.28519C19.0137 8.66019 19.1074 9.07035 19.1074 9.48636V11.1621C18.1699 10.6758 17.3379 10.002 16.6641 9.18753C16.5762 9.08206 16.4473 9.01761 16.3125 9.01761H13.1953C12.5801 9.01761 12.0879 8.51956 12.0879 7.90433C12.0762 7.75199 12.1113 7.59378 12.1816 7.4473ZM10.7227 9.34574C10.7812 9.22855 10.8516 8.73636 11.1738 8.29691C11.3379 9.15238 12.0293 9.80863 12.8906 9.93753C12.2695 10.4239 11.5078 10.6993 10.7227 10.7344V9.34574ZM10.7227 11.666C11.4844 11.6485 12.9727 11.3672 14.2383 9.96097H16.084C16.5996 10.5469 17.3789 11.25 18.4629 11.8946H10.8047C10.7812 11.8946 10.7812 11.877 10.7227 11.8828V11.666ZM18.5273 12.8321C18.498 13.5118 17.9238 14.0391 17.2441 14.0098C16.7695 13.9864 16.3535 13.6993 16.166 13.2598C16.1133 13.125 16.0781 12.9785 16.0723 12.8321H18.5273ZM15.1406 12.9493H14.666C14.6719 12.8907 14.6719 12.8907 14.6719 12.8321H15.1289C15.1348 12.8907 15.1348 12.8907 15.1406 12.9493ZM13.7344 12.8321C13.7227 12.9785 13.6934 13.1192 13.6406 13.2539V13.2481C13.377 13.8809 12.6562 14.1797 12.0293 13.916C11.5898 13.7344 11.291 13.3125 11.2734 12.8321H13.7344ZM11.9531 16.8985C11.1855 16.1368 10.7461 15.1055 10.7344 14.0215C11.4316 14.9942 12.7852 15.2227 13.7637 14.5254C14.0039 14.3555 14.2031 14.1387 14.3555 13.8926H15.457C16.0781 14.9121 17.4082 15.2403 18.4277 14.6192C18.6797 14.4668 18.8965 14.2618 19.0723 14.0215C19.0371 16.295 17.1797 18.1231 14.9062 18.1231C14.4551 18.1231 14.0098 18.0528 13.5879 17.9121C12.9727 17.6953 12.4102 17.3496 11.9531 16.8985ZM14.4141 25.6641H8.4375V22.6934C8.44336 22.2891 8.53711 21.8907 8.71875 21.5332C9.13476 20.6836 9.95508 20.1035 10.8984 20.0098V20.3086C10.5703 20.3848 10.2773 20.5547 10.0488 20.8008C9.69141 21.1524 9.49219 21.6387 9.49219 22.1368V24.1289C9.49219 24.3868 9.67383 24.6094 9.9375 24.6094H10.5C10.7578 24.6094 10.9688 24.3985 10.9688 24.1407C10.9688 23.8828 10.7578 23.6719 10.5 23.6719H10.4297V22.1368C10.4238 21.8907 10.5176 21.6504 10.6934 21.4746C10.8633 21.3047 11.0977 21.2051 11.3379 21.211H11.3555C11.8828 21.211 12.3047 21.6094 12.3047 22.1368V23.6719H12.0645C11.8066 23.6719 11.5957 23.8828 11.5957 24.1407C11.5957 24.3985 11.8066 24.6094 12.0645 24.6094H12.7734C13.0371 24.6035 13.2422 24.3868 13.2422 24.1289V22.1368C13.2539 21.2754 12.6738 20.5137 11.8359 20.3028V19.9805H13.2246L14.4141 21.211V25.6641ZM13.8867 19.336V18.9551C14.625 19.1016 15.3809 19.0899 16.1133 18.9141V19.3418L15.0059 20.4551L13.8867 19.336ZM21.5625 25.6641H15.3516V21.4043L16.7637 19.9805H18.457V21.6856C17.8008 21.8848 17.3496 22.4942 17.3496 23.1797C17.3555 24.041 18.0586 24.7383 18.9199 24.7325C19.7813 24.7266 20.4785 24.0235 20.4727 23.1621C20.4668 22.4883 20.0332 21.8965 19.3945 21.6856V20.045C20.6602 20.291 21.5684 21.4043 21.5625 22.6934V25.6641ZM25.2363 12.7149H25.1367V12.5918C25.1426 12.3809 25.002 12.1934 24.7969 12.1407C24.832 12.1465 24.873 12.1524 24.9082 12.1641L26.6191 12.6328C26.8828 12.7032 27.0703 12.9727 27.0703 13.2832V15C25.7227 15.2168 24.9492 14.5196 24.6973 14.25C24.9492 14.2442 25.1426 14.0332 25.1367 13.7813V13.6524H25.2363C25.4941 13.6524 25.7051 13.4414 25.7051 13.1836C25.7051 12.9258 25.5 12.7149 25.2363 12.7149ZM22.3242 13.9922V13.2832C22.3242 12.9727 22.5059 12.7032 22.7695 12.6328L24.457 12.1641C24.498 12.1524 24.5391 12.1407 24.5859 12.1407C24.3691 12.1875 24.2109 12.375 24.2051 12.5977V12.7149H24.1582C23.9004 12.7149 23.6895 12.9258 23.6895 13.1836C23.6895 13.4414 23.9004 13.6524 24.1582 13.6524H24.2051V13.7754C24.2109 13.834 24.2227 13.8926 24.252 13.9453C24.2461 13.9453 24.2402 13.9453 24.2344 13.9453C24.082 13.9453 23.9414 14.0215 23.8535 14.1504C23.3262 14.9121 22.7402 15.0762 22.3301 15.0938V13.9922H22.3242ZM21.3398 15.0762C21.3574 15.0528 21.3867 15.0293 21.3867 15.0059V15.3985C21.2871 15.4219 21.1875 15.4629 21.1055 15.5215C21.1699 15.3633 21.252 15.2168 21.3398 15.0762ZM21.2637 18.1641C21.0996 17.877 20.9824 17.5606 20.9238 17.2383C21.0586 17.3731 21.2285 17.4668 21.416 17.5078C21.4746 18.0059 21.627 18.4864 21.873 18.92C21.6328 18.7032 21.4219 18.4512 21.2637 18.1641ZM22.3242 17.0684V16.0313C22.8516 16.0196 23.5898 15.8496 24.2754 15.1231C25.043 15.791 26.0625 16.0899 27.0703 15.9434V17.0625C27.0762 17.7305 26.8359 18.3809 26.3906 18.8848L25.5059 19.5L24.6504 19.67C24.416 19.6641 24.1816 19.6231 23.959 19.541L23.9355 19.5352C23.9121 19.5293 23.8887 19.5176 23.8711 19.5059C23.8652 19.5059 23.8594 19.5 23.8535 19.5C22.9395 19.125 22.3242 18.1407 22.3242 17.0684ZM24.1992 23.9649H22.5V22.6934C22.4941 22.1836 22.3887 21.6797 22.1836 21.211H23.5957C23.7715 21.3692 23.9766 21.4981 24.1992 21.586V23.9649ZM24.2871 20.584C24.4219 20.6016 24.5625 20.6133 24.6973 20.6133C24.7266 20.6133 24.7617 20.6075 24.791 20.6016L25.2539 20.5078V20.5606C25.1016 20.6778 24.9141 20.7364 24.7207 20.7305C24.5625 20.7246 24.416 20.6719 24.2871 20.584ZM28.5938 23.9649H25.1367V21.6153C25.4297 21.5508 25.6875 21.4453 25.9043 21.211H27.1113C27.9199 21.211 28.5938 21.9668 28.5938 22.8633V23.9649Z" fill="black"/>
<path d="M24.4336 16.6465V16.5176C24.4336 16.2598 24.2227 16.0488 23.9648 16.0488C23.707 16.0488 23.4961 16.2598 23.4961 16.5176C23.4961 16.2598 23.2852 16.0488 23.0273 16.0488C22.7695 16.0488 22.5586 16.2598 22.5586 16.5176V16.6465C22.5586 17.1973 22.9688 17.6426 23.4961 17.6426C24.0234 17.6426 24.4336 17.1914 24.4336 16.6465ZM23.4961 16.6465C23.4961 16.6699 23.502 16.6875 23.4961 16.6934C23.4902 16.6875 23.4961 16.6699 23.4961 16.6465ZM25.8984 17.6367C26.4258 17.6367 26.8359 17.1914 26.8359 16.6406V16.5117C26.8359 16.2539 26.625 16.043 26.3672 16.043C26.1094 16.043 25.8984 16.2539 25.8984 16.5117C25.8984 16.2539 25.6875 16.043 25.4297 16.043C25.1719 16.043 24.9609 16.2539 24.9609 16.5117V16.6406C24.9609 17.1914 25.3711 17.6367 25.8984 17.6367ZM25.8984 16.6465C25.8984 16.6699 25.9043 16.6875 25.8984 16.6992C25.8926 16.6875 25.8984 16.6699 25.8984 16.6465ZM4.98047 17.4258V17.3027C4.98047 17.0449 4.76953 16.834 4.51172 16.834C4.25391 16.834 4.04297 17.0449 4.04297 17.3027V17.4258C4.04297 17.4375 4.02539 17.4434 4.01367 17.4434C4.00195 17.4434 3.98438 17.4375 3.98438 17.4258V17.3027C3.98438 17.0449 3.77344 16.834 3.51562 16.834C3.25781 16.834 3.04688 17.0449 3.04688 17.3027V17.4258C3.04688 17.959 3.48047 18.3926 4.01367 18.3926C4.54688 18.3926 4.98047 17.959 4.98047 17.4258ZM6.41602 18.3809C6.94336 18.3809 7.37695 17.9531 7.38281 17.4258V17.3027C7.38281 17.0449 7.17188 16.834 6.91406 16.834C6.65625 16.834 6.44531 17.0449 6.44531 17.3027V17.4258C6.44531 17.4375 6.42773 17.4434 6.41602 17.4434C6.4043 17.4434 6.38672 17.4375 6.38672 17.4258V17.3027C6.38672 17.0449 6.17578 16.834 5.91797 16.834C5.66016 16.834 5.44922 17.0449 5.44922 17.3027V17.4258C5.45508 17.959 5.88867 18.3809 6.41602 18.3809ZM16.6816 22.0313H16.2891C16.0312 22.0313 15.8203 22.2422 15.8203 22.5C15.8203 22.7578 16.0312 22.9688 16.2891 22.9688H16.6816C16.9395 22.9688 17.1504 22.7578 17.1504 22.5C17.1504 22.2422 16.9395 22.0313 16.6816 22.0313ZM16.6816 23.2031H16.2891C16.0312 23.2031 15.8203 23.4141 15.8203 23.6719C15.8203 23.9297 16.0312 24.1406 16.2891 24.1406H16.6816C16.9395 24.1406 17.1504 23.9297 17.1504 23.6719C17.1504 23.4141 16.9395 23.2031 16.6816 23.2031ZM2.41406 8.14453H4.27734V10.002C4.27734 10.2656 4.48828 10.4824 4.75781 10.4883H6.22266C6.48047 10.4824 6.68555 10.2656 6.68555 10.002V8.14453H8.56641C8.82422 8.13867 9.03516 7.92188 9.0293 7.66406V6.19922C9.0293 5.94727 8.83008 5.74805 8.57812 5.74219C8.57227 5.74219 8.57227 5.74219 8.56641 5.74219H6.67969V3.85547C6.67969 3.60352 6.48047 3.39844 6.23437 3.39844C6.22852 3.39844 6.22852 3.39844 6.22266 3.39844H4.75781C4.5 3.39258 4.2832 3.59766 4.27734 3.85547V5.74219H2.41406C2.15625 5.73633 1.93945 5.93555 1.93359 6.19922V7.66406C1.93945 7.92773 2.15039 8.13867 2.41406 8.14453ZM2.87109 6.67969H4.75781C5.01563 6.67383 5.2207 6.45703 5.21484 6.19922V4.33594H5.74219V6.19922C5.74219 6.46289 5.95313 6.67383 6.2168 6.67969H8.08594V7.20703H6.2168C5.95898 7.20117 5.74805 7.40039 5.74219 7.6582C5.74219 7.6582 5.74219 7.6582 5.74219 7.66406V9.55078H5.21484V7.66406C5.2207 7.41797 5.02148 7.21289 4.76953 7.20703C4.76367 7.20703 4.75781 7.20703 4.75195 7.20703H2.87109V6.67969Z" fill="black"/>
</g>
</svg>
