<svg width="32" height="32" viewBox="0 0 32 32" fill="none" xmlns="http://www.w3.org/2000/svg">
<path d="M17.3307 9.33333L15.8433 6.35856C15.4153 5.5024 15.2012 5.07431 14.8819 4.76155C14.5995 4.48497 14.2592 4.27463 13.8855 4.14575C13.4629 4 12.9843 4 12.0271 4H6.93073C5.43726 4 4.69052 4 4.12009 4.29065C3.61832 4.54631 3.21037 4.95426 2.95471 5.45603C2.66406 6.02646 2.66406 6.77319 2.66406 8.26667V9.33333M2.66406 9.33333H22.9307C25.1709 9.33333 26.291 9.33333 27.1467 9.76931C27.8993 10.1528 28.5113 10.7647 28.8948 11.5174C29.3307 12.373 29.3307 13.4931 29.3307 15.7333V21.6C29.3307 23.8402 29.3307 24.9603 28.8948 25.816C28.5113 26.5686 27.8993 27.1805 27.1467 27.564C26.291 28 25.1709 28 22.9307 28H9.06406C6.82385 28 5.70375 28 4.8481 27.564C4.09545 27.1805 3.48353 26.5686 3.10004 25.816C2.66406 24.9603 2.66406 23.8402 2.66406 21.6V9.33333Z" stroke="white" stroke-width="2" stroke-linecap="round" stroke-linejoin="round"/>
</svg>
