<svg width="40" height="40" viewBox="0 0 40 40" fill="none" xmlns="http://www.w3.org/2000/svg">
<g filter="url(#filter0_d_20851_109174)">
<rect x="2" y="1" width="36" height="36" rx="8" fill="white"/>
<rect x="2.5" y="1.5" width="35" height="35" rx="7.5" stroke="#720D21"/>
<g clip-path="url(#clip0_20851_109174)">
<path d="M19.168 12.3333H15.668C14.2678 12.3333 13.5678 12.3333 13.033 12.6058C12.5626 12.8455 12.1801 13.2279 11.9405 13.6983C11.668 14.2331 11.668 14.9332 11.668 16.3333V23.3333C11.668 24.7335 11.668 25.4335 11.9405 25.9683C12.1801 26.4387 12.5626 26.8212 13.033 27.0608C13.5678 27.3333 14.2678 27.3333 15.668 27.3333H22.668C24.0681 27.3333 24.7682 27.3333 25.3029 27.0608C25.7734 26.8212 26.1558 26.4387 26.3955 25.9683C26.668 25.4335 26.668 24.7335 26.668 23.3333V19.8333M16.6679 22.3333H18.0634C18.4711 22.3333 18.6749 22.3333 18.8667 22.2873C19.0367 22.2464 19.1993 22.1791 19.3484 22.0877C19.5166 21.9847 19.6608 21.8405 19.949 21.5523L27.918 13.5833C28.6083 12.893 28.6083 11.7737 27.918 11.0833C27.2276 10.393 26.1083 10.393 25.418 11.0833L17.449 19.0523C17.1607 19.3405 17.0166 19.4847 16.9135 19.6528C16.8222 19.802 16.7548 19.9645 16.714 20.1346C16.6679 20.3264 16.6679 20.5302 16.6679 20.9379V22.3333Z" stroke="#720D21" stroke-width="1.66667" stroke-linecap="round" stroke-linejoin="round"/>
</g>
</g>
<defs>
<filter id="filter0_d_20851_109174" x="0" y="0" width="40" height="40" filterUnits="userSpaceOnUse" color-interpolation-filters="sRGB">
<feFlood flood-opacity="0" result="BackgroundImageFix"/>
<feColorMatrix in="SourceAlpha" type="matrix" values="0 0 0 0 0 0 0 0 0 0 0 0 0 0 0 0 0 0 127 0" result="hardAlpha"/>
<feOffset dy="1"/>
<feGaussianBlur stdDeviation="1"/>
<feComposite in2="hardAlpha" operator="out"/>
<feColorMatrix type="matrix" values="0 0 0 0 0.0627451 0 0 0 0 0.0941176 0 0 0 0 0.156863 0 0 0 0.05 0"/>
<feBlend mode="normal" in2="BackgroundImageFix" result="effect1_dropShadow_20851_109174"/>
<feBlend mode="normal" in="SourceGraphic" in2="effect1_dropShadow_20851_109174" result="shape"/>
</filter>
<clipPath id="clip0_20851_109174">
<rect width="20" height="20" fill="white" transform="translate(10 9)"/>
</clipPath>
</defs>
</svg>
