<svg width="13" height="13" viewBox="0 0 13 13" fill="none" xmlns="http://www.w3.org/2000/svg">
<g id="Group">
<path id="Vector" d="M2.94118 3.58789H2.29412C1.9509 3.58789 1.62173 3.72423 1.37904 3.96693C1.13634 4.20962 1 4.53879 1 4.88201V10.7055C1 11.0488 1.13634 11.3779 1.37904 11.6206C1.62173 11.8633 1.9509 11.9997 2.29412 11.9997H8.11766C8.46088 11.9997 8.79004 11.8633 9.03274 11.6206C9.27543 11.3779 9.41178 11.0488 9.41178 10.7055V10.0585" stroke="#333333" stroke-width="1.32" stroke-linecap="round" stroke-linejoin="round"/>
<path id="Vector_2" d="M8.76428 2.29419L10.7055 4.23537M11.6016 3.31978C11.8565 3.06494 11.9996 2.7193 11.9996 2.35889C11.9996 1.99849 11.8565 1.65285 11.6016 1.39801C11.3468 1.14317 11.0012 1 10.6408 1C10.2804 1 9.93471 1.14317 9.67987 1.39801L4.23486 6.82361V8.76479H6.17604L11.6016 3.31978Z" stroke="#333333" stroke-width="1.32" stroke-linecap="round" stroke-linejoin="round"/>
</g>
</svg>
