<svg width="23" height="24" viewBox="0 0 23 24" fill="none" xmlns="http://www.w3.org/2000/svg">
<path id="Vector" d="M4.375 10.8125V5.1125C4.375 3.7825 4.375 3.1175 4.63387 2.60925C4.86187 2.16156 5.22406 1.79937 5.67175 1.57137C6.18 1.3125 6.845 1.3125 8.175 1.3125H13.875M13.875 1.3125C14.2146 1.31488 14.4284 1.32913 14.6338 1.37781C14.8761 1.43619 15.1078 1.53236 15.3202 1.66281C15.5589 1.80888 15.7655 2.0155 16.1764 2.42637L19.8873 6.13731C20.2982 6.54819 20.5024 6.75244 20.6485 6.99231C20.7791 7.20467 20.8752 7.43631 20.9335 7.67869C20.9834 7.88413 20.9952 8.09906 21 8.4375M13.875 1.3125V4.6375C13.875 5.9675 13.875 6.6325 14.1339 7.14075C14.3616 7.58762 14.7249 7.95093 15.1718 8.17862C15.6788 8.4375 16.3438 8.4375 17.6714 8.4375H21M21 8.4375V18.8923C21 20.2199 21 20.8837 20.7411 21.3908C20.5133 21.8375 20.15 22.2008 19.7033 22.4286C19.195 22.6875 18.53 22.6875 17.2036 22.6875H12.6875M7.9375 14.375L10.3125 16.75M2 22.6875V19.7188L10.9062 10.8125L13.875 13.7812L4.96875 22.6875H2Z" stroke="white" stroke-width="2.6" stroke-linecap="round" stroke-linejoin="round"/>
</svg>
