<svg width="20" height="25" viewBox="0 0 20 25" fill="none" xmlns="http://www.w3.org/2000/svg">
<path d="M19.7486 7.10857L12.8914 0.251429C12.7314 0.0914286 12.5143 0 12.2857 0H4.28571C1.92 0 0 1.92 0 4.28571V20.2857C0 22.6514 1.92 24.5714 4.28571 24.5714H15.7143C18.08 24.5714 20 22.6514 20 20.2857V7.71429C20 7.48571 19.9086 7.26857 19.7486 7.10857ZM13.1429 2.92571L17.0743 6.85714H13.1429V2.92571ZM15.7143 22.8571H4.28571C2.86857 22.8571 1.71429 21.7029 1.71429 20.2857V4.28571C1.71429 2.86857 2.86857 1.71429 4.28571 1.71429H11.4286V7.71429C11.4286 8.18286 11.8171 8.57143 12.2857 8.57143H18.2857V20.2857C18.2857 21.7029 17.1314 22.8571 15.7143 22.8571ZM4.57143 7.71429C4.57143 7.24571 4.96 6.85714 5.42857 6.85714H7.71429C8.18286 6.85714 8.57143 7.24571 8.57143 7.71429C8.57143 8.18286 8.18286 8.57143 7.71429 8.57143H5.42857C4.96 8.57143 4.57143 8.18286 4.57143 7.71429ZM15.4286 12.2857C15.4286 12.7543 15.04 13.1429 14.5714 13.1429H5.42857C4.96 13.1429 4.57143 12.7543 4.57143 12.2857C4.57143 11.8171 4.96 11.4286 5.42857 11.4286H14.5714C15.04 11.4286 15.4286 11.8171 15.4286 12.2857ZM15.4286 16.8571C15.4286 17.3257 15.04 17.7143 14.5714 17.7143H5.42857C4.96 17.7143 4.57143 17.3257 4.57143 16.8571C4.57143 16.3886 4.96 16 5.42857 16H14.5714C15.04 16 15.4286 16.3886 15.4286 16.8571Z" fill="black" fill-opacity="0.8"/>
</svg>
