<svg width="18" height="15" viewBox="0 0 18 15" fill="none" xmlns="http://www.w3.org/2000/svg">
<path d="M2.17403 14.0643C1.69219 14.0643 1.27956 13.8926 0.936133 13.5492C0.592711 13.2057 0.421292 12.7934 0.421876 12.3121V1.79921C0.421876 1.31737 0.593588 0.904739 0.93701 0.561317C1.28043 0.217894 1.69277 0.0464755 2.17403 0.0470596H16.1913C16.6731 0.0470596 17.0857 0.21877 17.4292 0.562193C17.7726 0.905615 17.944 1.31796 17.9434 1.79921V12.3121C17.9434 12.794 17.7717 13.2066 17.4283 13.55C17.0849 13.8935 16.6725 14.0649 16.1913 14.0643H2.17403ZM9.18264 7.93175L2.17403 3.55137V12.3121H16.1913V3.55137L9.18264 7.93175ZM9.18264 6.1796L16.1913 1.79921H2.17403L9.18264 6.1796ZM2.17403 3.55137V1.79921V12.3121V3.55137Z" fill="black" fill-opacity="0.8"/>
</svg>
