<svg width="22" height="22" viewBox="0 0 22 22" fill="none" xmlns="http://www.w3.org/2000/svg">
<path d="M18.9956 14.7306C19.0995 13.0511 17.8135 11.5966 16.1356 11.4926C16.0754 11.4891 16.0118 11.4891 15.9516 11.4891C15.3588 11.4891 14.7829 11.6599 14.2905 11.9819C13.48 12.5115 12.9643 13.3965 12.9041 14.3583C12.807 15.9572 13.9758 17.3683 15.5632 17.5694C15.6333 17.5794 15.7004 17.5863 15.7641 17.5894C15.8277 17.5959 15.8914 17.5959 15.955 17.5959C16.5444 17.5959 17.1137 17.4251 17.6095 17.1032C18.4197 16.5773 18.9389 15.6892 18.9956 14.7306ZM17.1908 16.4568C16.8223 16.6948 16.3906 16.8222 15.945 16.8222C15.9013 16.8222 15.858 16.8222 15.8112 16.8187C15.761 16.8153 15.7142 16.8087 15.6605 16.8019C14.475 16.651 13.6042 15.5983 13.6778 14.4051C13.7215 13.6878 14.1065 13.0243 14.7127 12.6286C15.1214 12.3638 15.6034 12.2398 16.0892 12.2667C17.3449 12.3473 18.2993 13.4299 18.2257 14.6834C18.182 15.3976 17.7936 16.0611 17.1908 16.4568Z" fill="black" fill-opacity="0.8" stroke="black" stroke-opacity="0.8" stroke-width="0.477206"/>
<path d="M16.1294 18.0652L16.1194 18.2395C16.1194 18.2863 16.116 18.3734 16.1194 18.4606L16.126 18.6014L16.0087 18.6785C15.9818 18.6954 15.9385 18.7223 15.8714 18.7622C15.8212 18.7925 15.7844 18.8125 15.751 18.8428C14.9205 19.4764 13.6812 19.7781 12.6801 20.0226C11.3338 20.3545 9.92396 20.5219 8.49723 20.5219C6.21314 20.5219 4.03983 20.0894 2.21814 19.2681C1.94703 19.1441 1.67903 18.9864 1.43441 18.8325C1.39416 18.8056 1.35735 18.7856 1.32742 18.7653L1.0828 18.621L1.07936 18.4768C1.07592 18.3896 1.07592 18.306 1.07283 18.2354L1.06629 18.0611C1.05287 17.5918 1.03601 17.1059 1.20012 16.744C1.76607 15.4902 3.68169 14.7932 4.77333 14.4881C6.32736 14.0525 7.09423 13.278 7.09732 12.1217C7.09732 11.9474 7.08047 11.7628 7.04709 11.5721C6.97347 11.1464 6.70202 10.8379 6.46119 10.5631C6.39101 10.4794 6.33734 10.4223 6.28711 10.3586C5.71187 9.62818 5.43801 8.77487 5.19512 7.89056C5.1473 7.71666 5.10533 7.54173 5.06852 7.36507C5.05888 7.31893 4.99592 6.86335 4.97906 6.86094C5.42907 6.92533 5.89662 6.97148 6.37897 6.97148C7.63162 6.97148 8.97303 6.66603 10.2935 5.59509C10.6956 6.25212 11.3414 6.60611 12.2504 6.67912C12.2493 6.68532 12.2493 6.69151 12.2483 6.69806C12.1809 7.15777 12.078 7.61198 11.9511 8.05895C11.7199 8.87335 11.4405 9.68638 10.9021 10.3586C10.845 10.4323 10.7848 10.5028 10.7211 10.5731C10.4765 10.8548 10.2222 11.1495 10.1452 11.5752C10.1118 11.7663 10.095 11.9505 10.095 12.1282C10.1015 13.2815 10.8653 14.0556 12.4158 14.4881C12.4258 14.4915 12.4392 14.4946 12.4492 14.4981C12.4492 14.4412 12.4527 14.3841 12.4527 14.3273C12.4661 14.1162 12.4995 13.9051 12.5531 13.7005C11.565 13.4189 10.708 12.9664 10.9255 11.7095C10.9489 11.5821 11.0259 11.4581 11.1229 11.3307C11.1264 11.3241 11.1329 11.3172 11.1364 11.3138C11.6321 10.7942 11.9937 10.2615 12.2483 9.6881C12.3453 9.46702 12.4392 9.24216 12.5194 9.01764C12.881 8.05241 13.0922 7.07685 13.149 6.10473C13.1624 5.93703 13.169 5.77277 13.169 5.60852L13.1655 5.5517V5.47112L13.169 5.41085C13.1724 5.29033 13.1755 5.1426 13.159 4.97524C13.0854 4.16084 12.8407 3.44011 12.4324 2.82991C11.9937 2.17288 11.391 1.68699 10.6375 1.38533C10.0144 1.1374 9.33462 1.00999 8.59149 1C7.86763 1.01033 7.18781 1.13774 6.56509 1.38568C5.81164 1.68733 5.20544 2.17322 4.77023 2.83025C4.36151 3.44045 4.11724 4.16084 4.04362 4.97559C4.02676 5.13985 4.0302 5.28413 4.03364 5.42153V5.47181C4.03708 5.49867 4.03708 5.52208 4.03708 5.54894L4.03364 5.61265C4.03364 5.77691 4.04018 5.93772 4.05359 6.10198C4.11036 7.07065 4.3216 8.04931 4.68319 9.01833C4.73342 9.15917 4.78709 9.30001 4.8473 9.43741C4.85383 9.45738 4.86415 9.4777 4.87413 9.49767C4.89409 9.55139 4.91748 9.60821 4.94122 9.66193C4.94466 9.67191 4.9512 9.6819 4.95464 9.69223C5.03824 9.87991 5.1356 10.0645 5.24604 10.2453C5.28629 10.3124 5.32964 10.3827 5.37678 10.4533C5.42357 10.5204 5.4707 10.5872 5.51749 10.6544C5.56772 10.7215 5.61795 10.7883 5.66818 10.852C5.67816 10.862 5.68504 10.872 5.69501 10.8854C5.74524 10.9491 5.80201 11.0163 5.85912 11.08C5.86256 11.0834 5.86566 11.09 5.8691 11.0934C5.91589 11.1471 5.96302 11.1974 6.00637 11.2511C6.00637 11.2546 6.00981 11.2577 6.01291 11.2611C6.13676 11.4119 6.23722 11.5562 6.2675 11.7071C6.49525 13.0042 5.58114 13.4399 4.56278 13.725C3.06585 14.1441 1.14026 14.9485 0.480387 16.4165C0.239215 16.9495 0.259513 17.5628 0.272587 18.1059L0.279123 18.2701C0.282564 18.3473 0.282564 18.4513 0.282564 18.5449C0.282564 19.068 0.694381 19.3125 0.912158 19.4465L0.985783 19.4867C1.24691 19.651 1.55517 19.8387 1.89336 19.9895C3.81552 20.8576 6.09961 21.317 8.49723 21.317C9.98761 21.317 11.4642 21.1393 12.8776 20.7939C13.9458 20.5326 15.2721 20.2075 16.213 19.4867L16.2935 19.4399C16.5113 19.306 16.9097 19.0646 16.9063 18.5515C16.9063 18.4509 16.9097 18.3469 16.9128 18.2667L16.9193 18.0856C16.9193 18.0284 16.9228 17.9716 16.9259 17.9113C16.6679 17.9885 16.4002 18.0318 16.1287 18.0453V18.0652H16.1294ZM4.87723 5.05307C4.93744 4.37916 5.13526 3.78928 5.46313 3.29651C5.8082 2.78376 6.28023 2.40153 6.87301 2.16702C6.9167 2.15015 6.96005 2.13362 7.00374 2.12019C7.49263 1.93906 8.03174 1.84539 8.60113 1.83851C9.18393 1.84505 9.73646 1.9425 10.2353 2.13018C10.2656 2.14016 10.2955 2.15015 10.3258 2.16358C10.9186 2.40153 11.394 2.78376 11.7391 3.29651C12.0673 3.78928 12.2648 4.37916 12.325 5.04963C12.3384 5.17359 12.335 5.28758 12.3316 5.38813V5.4384C12.3281 5.47869 12.3281 5.51898 12.3281 5.56237L12.3316 5.6061C12.3292 5.85163 12.3119 6.09888 12.2868 6.34647C11.4168 6.2776 10.825 5.92429 10.4899 5.26209L10.3936 5.07166L10.2315 5.21078C8.42257 6.76417 6.61807 6.76899 4.93365 6.51693C4.89649 6.2132 4.8731 5.9112 4.87035 5.60955L4.87379 5.56272C4.87379 5.51933 4.87379 5.47904 4.87035 5.4353V5.39846C4.86691 5.28758 4.86381 5.17359 4.87723 5.05307Z" fill="black" fill-opacity="0.8" stroke="black" stroke-opacity="0.8" stroke-width="0.477206"/>
<path d="M21.0294 18.2925L19.0615 16.3259C18.7997 16.7836 18.4339 17.1813 17.9922 17.4909L19.9161 19.4103C20.0705 19.5618 20.2694 19.6407 20.471 19.6407C20.673 19.6407 20.8746 19.5618 21.0294 19.4103C21.3383 19.1007 21.3383 18.6021 21.0294 18.2925Z" fill="black" fill-opacity="0.8" stroke="black" stroke-opacity="0.8" stroke-width="0.477206"/>
</svg>
