<svg width="26" height="26" viewBox="0 0 26 26" fill="none" xmlns="http://www.w3.org/2000/svg">
<path d="M21.4255 8.55461H21.3712C21.3239 8.55461 21.2771 8.56014 21.2302 8.56175C20.3486 6.85103 18.9509 5.45281 17.2405 4.57048C17.2422 4.52245 17.2482 4.47513 17.2482 4.42673C17.2482 2.12282 15.3709 0.218184 13.0552 0.18335H13.0009C12.4268 0.18335 11.8605 0.299779 11.3252 0.524598C9.76199 1.19568 8.75357 2.7278 8.75357 4.42672C8.75357 4.47583 8.75822 4.5244 8.75982 4.57315C7.05198 5.45475 5.65409 6.84995 4.77217 8.56031C4.74217 8.55924 4.71288 8.55495 4.6827 8.55441H4.62842C4.05429 8.55441 3.48808 8.67084 2.95271 8.89566C1.38951 9.56675 0.381104 11.0989 0.381104 12.7978C0.381104 14.7908 1.74165 16.6733 4.21342 17.0256C4.40485 17.0442 4.59218 17.0465 4.77736 17.0408C5.65877 18.7469 7.05288 20.1408 8.75916 21.0221C8.75755 21.0706 8.7538 21.1187 8.7538 21.1674C8.7538 23.1605 10.1144 25.0429 12.5861 25.3953C15.1733 25.6474 17.2485 23.5956 17.2485 21.1674C17.2485 21.1181 17.2428 21.0703 17.2412 21.0214C18.9508 20.1394 20.3457 18.7447 21.2298 17.0376C23.6875 17.1245 25.6189 15.1394 25.6189 12.7979C25.6187 10.494 23.7412 8.58953 21.4257 8.55456L21.4255 8.55461ZM21.3712 10.0868C22.085 10.0868 22.6668 10.6686 22.6668 11.3823C22.6668 12.0921 22.0927 12.6662 21.3907 12.6818H21.3559C20.6461 12.6663 20.072 12.0922 20.072 11.3823C20.0718 10.6686 20.6538 10.0868 21.3713 10.0868H21.3712ZM13.001 1.71557C13.7147 1.71557 14.2965 2.29737 14.2965 3.01111C14.2965 3.72092 13.7224 4.29504 13.0204 4.31059H12.9856C12.2758 4.29505 11.7017 3.72096 11.7017 3.01111C11.7015 2.29737 12.2835 1.71557 13.001 1.71557H13.001ZM12.2563 5.17934H13.7418C14.7088 5.17934 15.447 5.95593 15.4911 6.8395C14.7047 7.65289 13.5574 7.99859 12.6324 7.88288C11.8831 7.82931 11.0042 7.35287 10.5069 6.83557C10.5501 5.97326 11.2751 5.17934 12.2564 5.17934H12.2563ZM4.62843 10.0868C5.34216 10.0868 5.92397 10.6686 5.92397 11.3823C5.92397 12.0921 5.34984 12.6662 4.6479 12.6818H4.61308C3.90327 12.6663 3.32915 12.0922 3.32915 11.3823C3.32915 10.6686 3.91095 10.0868 4.62844 10.0868H4.62843ZM4.25986 16.2541C3.51055 16.2005 2.63165 15.7241 2.13432 15.2068C2.17736 14.3445 2.90255 13.5505 3.88363 13.5505H5.36916C6.33611 13.5505 7.07435 14.3271 7.11846 15.2107C6.33241 16.0241 5.18489 16.3698 4.2599 16.2541H4.25986ZM12.6324 24.6239C11.8831 24.5703 11.0042 24.0939 10.5069 23.5766C10.5499 22.7143 11.2751 21.9204 12.2562 21.9204H13.7417C14.7087 21.9204 15.4469 22.697 15.491 23.5805C14.7048 24.3939 13.5573 24.7395 12.6325 24.6239H12.6324ZM11.7014 19.7521C11.7014 19.0384 12.2832 18.4566 13.0008 18.4566C13.7146 18.4566 14.2964 19.0384 14.2964 19.7521C14.2964 20.4619 13.7223 21.0361 13.0203 21.0516H12.9855C12.2755 21.0359 11.7014 20.462 11.7014 19.7521H11.7014ZM16.8781 19.453C16.2218 17.9891 14.7586 16.9502 13.0552 16.9245H13.0009C12.4268 16.9245 11.8606 17.0409 11.3252 17.2657C10.3179 17.6982 9.5429 18.4893 9.11771 19.4511C7.97412 18.7797 7.01787 17.8268 6.34733 16.6845C7.85142 16.0175 8.87556 14.5022 8.87556 12.798C8.87556 11.0814 7.83286 9.58802 6.34395 8.92283C7.01147 7.77659 7.96877 6.82034 9.11465 6.14674C9.66948 7.40818 10.8534 8.40763 12.5857 8.65458C14.5266 8.84368 16.1793 7.73618 16.8839 6.14582C18.0278 6.81385 18.9818 7.77083 19.6539 8.91565C18.1148 9.59602 17.1237 11.1146 17.1237 12.798C17.1237 14.4096 18.0141 15.948 19.6614 16.6646C18.9902 17.8169 18.0291 18.7798 16.878 19.453L16.8781 19.453ZM21.0027 16.2543C20.2534 16.2007 19.3745 15.7243 18.8772 15.207C18.9202 14.3446 19.6454 13.5507 20.6265 13.5507H22.112C23.079 13.5507 23.8172 14.3273 23.8613 15.2109C23.0753 16.0243 21.9277 16.37 21.0028 16.2543H21.0027Z" fill="#76272C"/>
</svg>
