<svg width="46" height="46" viewBox="0 0 46 46" fill="none" xmlns="http://www.w3.org/2000/svg">
<circle cx="23" cy="23" r="23" fill="white"/>
<circle cx="23" cy="23" r="23" stroke="white"/>
<path fill-rule="evenodd" clip-rule="evenodd" d="M38.387 12.1145C37.778 11.7389 37.1357 12.045 36.6173 12.4309C36.4071 12.5874 36.2278 12.7847 36.0423 12.9725C35.5623 13.4622 35.1075 13.9788 34.6054 14.4455C33.3975 15.5696 32.0158 16.4527 30.4782 17.0553C27.5651 18.1974 24.4208 18.4588 21.375 19.0656C20.1532 19.3089 18.9564 19.6466 17.8354 20.2129C17.6247 20.3197 17.5058 20.4002 17.7789 20.5662C19.6193 20.9991 21.4721 21.3495 23.3698 21.4052C23.8044 21.4181 24.1166 21.6033 24.2144 22.0776C24.4472 23.2065 24.5251 24.402 24.5406 25.5524C24.5516 26.3141 24.4449 28.1378 24.4449 28.1378C24.5398 28.1154 24.6834 28.0655 24.8623 28.0263C25.8442 27.8124 27.334 28.3335 27.9653 29.1223C28.6105 29.9301 28.7975 31.1552 28.4003 32.1148C28.3619 32.2068 28.1212 32.5125 28.2141 32.5914C28.3908 32.7408 28.928 32.2847 29.0839 32.1879C29.5466 31.8975 30.0095 31.614 30.4377 31.2731C31.1345 30.7175 31.8481 30.2862 32.7111 31.222C32.6117 30.6526 32.4668 23.6757 32.5041 22.6596C32.5283 22.0231 32.5188 21.8219 32.7553 21.2142C32.977 20.6448 33.426 20.1813 33.8763 19.7844C34.4366 19.2905 34.9966 18.7967 35.5531 18.2993C36.5687 17.3929 37.4464 16.3905 38.2058 15.26C38.5467 14.7537 38.9415 14.1724 38.9962 13.5466C39.0338 13.1076 38.7887 12.3619 38.387 12.1147L38.387 12.1145ZM29.3626 32.6041C28.8381 32.9966 28.2137 33.3349 27.5892 33.5345C25.2249 34.2878 22.7303 33.3782 20.5836 32.3942C20.3235 32.2748 20.0565 32.2185 19.8269 32.3447C19.5736 32.4857 19.6601 32.7877 19.6875 33.0233C19.729 33.3766 19.8921 33.6854 20.1446 33.9371C21.0463 34.8322 22.069 35.5487 23.2416 36.0469C23.7844 36.2775 23.6106 37.2407 23.6145 37.6951C23.6214 38.7204 23.6448 39.7483 23.6756 40.7759C24.239 40.8246 27.8196 40.7344 28.9933 40.5153C29.0012 39.1796 29.0822 37.255 29.0559 35.9201C29.0427 35.261 29.229 35.2954 29.6753 35.0045C30.2882 34.6044 30.7432 34.2906 31.1328 33.9211C31.7662 33.3208 32.2146 32.6861 32.1434 31.7637C32.03 30.2865 29.7814 32.2892 29.3623 32.604L29.3626 32.6041ZM16.9189 19.0104C18.5071 19.0104 19.7946 17.7226 19.7946 16.1344C19.7946 14.5462 18.5074 13.2584 16.9189 13.2584C15.3299 13.2584 14.0424 14.5462 14.0424 16.1344C14.0424 17.7226 15.3297 19.0104 16.9189 19.0104ZM26.55 17.0666C28.2668 17.0666 29.6572 15.6754 29.6572 13.9591C29.6572 12.2432 28.0206 10.6699 26.3046 10.6699C24.5886 10.6699 23.2437 12.2003 23.4434 13.9591C23.6356 15.6646 24.8348 17.0666 26.55 17.0666H26.55ZM25.6731 33.0548C26.8491 32.9662 27.8081 32.0784 27.8081 30.8745C27.8081 29.6706 26.853 28.6943 25.6731 28.6943C24.4955 28.6943 23.4928 29.198 23.3963 30.6597C23.3171 31.8612 24.1817 33.1682 25.6731 33.0548V33.0548ZM19.2927 32.18C19.3464 31.9654 19.5797 31.6631 19.9982 31.7123C18.693 29.7251 18.1822 25.2065 18.6875 24.8932C19.1957 24.5776 22.1237 24.9619 23.4236 24.0907C23.8897 23.7782 24.0141 22.8434 23.769 22.412C23.5057 21.9483 22.9965 21.9251 22.5143 21.8883C21.7605 21.8302 21.0153 21.7126 20.2731 21.5737C17.997 21.1484 15.7749 20.5311 13.889 19.1281C12.3687 17.9968 11.5288 16.4155 10.8255 14.7271C10.4202 13.7541 10.0438 12.7677 9.52772 11.8453C9.33465 11.4999 9.0227 11.3695 8.63605 11.4139C8.25413 11.4581 8.05712 11.7064 7.93138 12.0442C7.79802 12.4016 7.80013 12.7741 7.82275 13.1415C7.86983 13.9372 7.97689 14.7295 8.14654 15.5085C8.44035 16.861 8.91619 18.1662 9.5443 19.3993C10.033 20.3591 10.7611 21.2058 11.0967 22.2456C12.9169 27.8747 12.2743 34.2933 12.0797 36.0407C11.999 36.7608 16.3384 38.6671 17.2178 39.0697C17.4745 39.1878 19.1061 39.7759 19.1116 39.8594C20.1048 39.241 22.0404 37.4689 22.6365 36.4371C21.8784 35.8752 21.0614 35.4089 20.3197 34.8097C19.0977 33.8209 19.1942 32.5784 19.2929 32.1799L19.2927 32.18Z" fill="#6129C3"/>
</svg>
