<svg width="89" height="98" viewBox="0 0 89 98" fill="none" xmlns="http://www.w3.org/2000/svg">
<path fill-rule="evenodd" clip-rule="evenodd" d="M65.954 73.429H65.194C64.167 73.429 63.331 72.592 63.331 71.564C63.331 70.539 64.167 69.702 65.194 69.702H66.262C66.854 69.702 67.418 69.993 67.772 70.482C68.268 71.167 69.225 71.322 69.911 70.826C70.597 70.33 70.751 69.373 70.255 68.688C69.497 67.637 68.355 66.934 67.107 66.714V65.271C67.107 64.426 66.419 63.74 65.576 63.74C64.728 63.74 64.043 64.427 64.043 65.271V66.775C61.881 67.296 60.27 69.246 60.27 71.564C60.27 74.281 62.481 76.492 65.196 76.492H65.956C66.981 76.492 67.817 77.326 67.817 78.353C67.817 79.38 66.981 80.216 65.956 80.216H64.888C64.294 80.216 63.73 79.923 63.374 79.437C62.88 78.751 61.923 78.597 61.237 79.093C60.551 79.587 60.399 80.545 60.893 81.231C61.651 82.281 62.791 82.984 64.043 83.204V84.646C64.043 85.492 64.729 86.176 65.576 86.176C66.42 86.176 67.107 85.491 67.107 84.646V83.142C69.267 82.621 70.878 80.671 70.878 78.353C70.878 75.638 68.667 73.429 65.954 73.429ZM80.343 74.961C80.343 83.104 73.716 89.726 65.575 89.726C57.429 89.726 50.807 83.104 50.807 74.961C50.807 66.816 57.428 60.191 65.575 60.191C73.716 60.191 80.343 66.816 80.343 74.961ZM83.405 74.961C83.405 84.791 75.405 92.789 65.575 92.789C55.741 92.789 47.745 84.791 47.745 74.961C47.745 65.127 55.741 57.129 65.575 57.129C75.405 57.129 83.405 65.127 83.405 74.961ZM85.36 74.961C85.36 85.871 76.485 94.746 65.575 94.746C54.661 94.746 45.786 85.871 45.786 74.961C45.786 64.049 54.661 55.173 65.575 55.173C76.485 55.173 85.36 64.049 85.36 74.961ZM46.562 87.619C45.304 85.738 44.32 83.66 43.662 81.443H12.327V85.455C12.327 86.648 13.298 87.619 14.489 87.619H46.562ZM5.228 78.381H42.98C42.812 77.265 42.724 76.122 42.724 74.961C42.724 70.59 43.956 66.504 46.093 63.03H28.173C27.327 63.03 26.642 62.342 26.642 61.498C26.642 60.652 27.328 59.969 28.173 59.969H48.345C51.294 56.583 55.22 54.074 59.677 52.883V5.227C59.677 4.035 58.706 3.062 57.513 3.062H22.23V17.36C22.23 20.046 20.044 22.229 17.361 22.229H3.064V76.216C3.064 77.41 4.034 78.381 5.228 78.381ZM5.228 19.168L19.167 5.228V17.361C19.167 18.356 18.356 19.169 17.36 19.169L5.228 19.168ZM62.739 12.336V52.287C63.669 52.17 64.612 52.111 65.575 52.111C66.708 52.111 67.823 52.195 68.913 52.355V14.5C68.913 13.306 67.942 12.336 66.749 12.336H62.739ZM88.423 74.961C88.423 87.559 78.175 97.809 65.575 97.809C59.061 97.809 53.175 95.071 49.007 90.681H14.489C11.608 90.681 9.264 88.338 9.264 85.455V81.443H5.227C2.344 81.443 0 79.098 0 76.216V22.229C0 20.813 0.529 19.535 1.531 18.531L18.531 1.53C19.535 0.53 20.812 0 22.228 0H57.511C60.394 0 62.738 2.345 62.738 5.228V9.274H66.748C69.631 9.274 71.975 11.619 71.975 14.501V53.024C81.466 55.799 88.423 64.582 88.423 74.961ZM40.853 67.097C41.699 67.097 42.384 67.783 42.384 68.628C42.384 69.473 41.698 70.159 40.853 70.159H28.173C27.327 70.159 26.642 69.473 26.642 68.628C26.642 67.783 27.328 67.097 28.173 67.097H40.853ZM17.794 61.537V68.59H10.741V61.537H17.794ZM20.857 60.006V70.121C20.857 70.969 20.169 71.652 19.326 71.652H9.21C8.364 71.652 7.677 70.968 7.677 70.121V60.006C7.677 59.16 8.365 58.475 9.21 58.475H19.325C20.169 58.474 20.857 59.16 20.857 60.006ZM28.173 53.961C27.327 53.961 26.642 53.276 26.642 52.431C26.642 51.584 27.328 50.9 28.173 50.9H40.853C41.699 50.9 42.384 51.585 42.384 52.431C42.384 53.277 41.698 53.961 40.853 53.961H28.173ZM28.173 46.831C27.327 46.831 26.642 46.146 26.642 45.3C26.642 44.454 27.328 43.769 28.173 43.769H53.532C54.376 43.769 55.063 44.454 55.063 45.3C55.063 46.146 54.375 46.831 53.532 46.831H28.173ZM17.794 45.339V52.392H10.741V45.339H17.794ZM20.857 43.807V53.924C20.857 54.77 20.169 55.455 19.326 55.455H9.21C8.364 55.455 7.677 54.769 7.677 53.924V43.807C7.677 42.96 8.365 42.276 9.21 42.276H19.325C20.169 42.276 20.857 42.961 20.857 43.807ZM28.173 37.762C27.327 37.762 26.642 37.076 26.642 36.231C26.642 35.386 27.328 34.7 28.173 34.7H40.853C41.699 34.7 42.384 35.387 42.384 36.231C42.384 37.077 41.698 37.762 40.853 37.762H28.173ZM28.173 30.633C27.327 30.633 26.642 29.947 26.642 29.102C26.642 28.257 27.328 27.571 28.173 27.571H53.532C54.376 27.571 55.063 28.257 55.063 29.102C55.063 29.947 54.375 30.633 53.532 30.633H28.173ZM17.794 29.139V36.192H10.741V29.139H17.794ZM20.857 27.608V37.723C20.857 38.57 20.169 39.255 19.326 39.255H9.21C8.364 39.255 7.677 38.569 7.677 37.723V27.608C7.677 26.762 8.365 26.077 9.21 26.077H19.325C20.169 26.077 20.857 26.762 20.857 27.608ZM40.853 14.433C40.007 14.433 39.322 13.748 39.322 12.902C39.322 12.056 40.008 11.371 40.853 11.371H53.533C54.377 11.371 55.064 12.057 55.064 12.902C55.064 13.749 54.376 14.433 53.533 14.433H40.853ZM26.642 20.035C26.642 19.188 27.328 18.503 28.173 18.503H53.532C54.376 18.503 55.063 19.189 55.063 20.035C55.063 20.879 54.375 21.566 53.532 21.566H28.173C27.327 21.566 26.642 20.879 26.642 20.035Z" fill="black"/>
</svg>
