<svg width="191" height="145" viewBox="0 0 191 145" fill="none" xmlns="http://www.w3.org/2000/svg">
<rect width="190.2" height="145" fill="white"/>
<path d="M72.3052 59.615H110.019V61.1522H72.3052V59.615Z" fill="#751521"/>
<path d="M73.7843 87.2881L72.3054 88.8253H110.02V87.2881H73.7843Z" fill="#751521"/>
<path d="M87.095 68.8394H110.019V70.3766H87.095V68.8394Z" fill="#751521"/>
<path d="M82.6581 78.0637L81.1792 79.601H110.019V78.0637H82.6581Z" fill="#751521"/>
<path d="M76.1519 28L76.0853 28.7131C76.0853 28.7131 75.3621 34.5374 75.1161 36.554H67.1296V72.1117L61.733 77.6024L63.6999 79.6909L74.7877 68.4125L76.1056 69.8248L65.0251 81.0984L67.9752 84.2325L79.0433 72.9739L80.3617 74.3867L69.3007 85.6395L71.2686 87.728L82.3553 76.4501C82.41 76.4711 82.4667 76.4855 82.5255 76.4855C82.5642 76.4855 82.6024 76.4807 82.6416 76.4711C82.8092 76.4282 82.9423 76.2957 82.9924 76.1241L86.7559 63.028C86.8054 62.8543 86.7626 62.6661 86.6429 62.5353C86.5232 62.4039 86.3447 62.3487 86.1755 62.3905L73.2128 65.6253C73.0425 65.6677 72.9074 65.8012 72.8584 65.976C72.831 66.0752 72.8408 66.1749 72.8697 66.2698L68.6084 70.6067V38.0908H105.583V46.4051C105.583 46.8019 106.092 47.3155 106.472 47.3155H115.197V102.662H68.6085V90.4331L70.416 88.5934L60.8809 78.4678L56.5535 82.8716C55.8267 83.6094 55.8138 84.8201 56.5257 85.5756L63.4858 92.9687C64.1966 93.7226 65.3618 93.736 66.0897 92.9971L67.1296 91.9392V104.199H116.676V100.462L119.23 100.733L125.586 33.0139L76.1519 28ZM84.1142 63.9475C84.612 64.2719 84.9447 64.6939 85.1577 65.0542L82.2964 75.0078L74.2707 66.4044L84.1142 63.9475ZM107.062 45.7788V38.7337L114.414 45.7788H107.062ZM117.991 99.1689L116.676 98.97V46.3623C116.676 46.3623 116.712 45.8583 116.523 45.7307L106.917 36.6142C106.761 36.4636 106.571 36.5542 106.365 36.5542H76.6466C76.7693 35.7086 76.9917 33.812 77.3904 29.5654L124.08 34.3005L117.991 99.1689Z" fill="#751521"/>
</svg>
