<svg width="38" height="38" viewBox="0 0 38 38" fill="none" xmlns="http://www.w3.org/2000/svg">
<circle cx="18.6299" cy="18.6299" r="18.6299" fill="#E1E1E1"/>
<path d="M25.0541 22.1963C23.2538 22.1963 21.7891 23.661 21.7891 25.4613C21.7891 27.2616 23.2538 28.7263 25.0541 28.7263C26.8544 28.7263 28.3191 27.2616 28.3191 25.4613C28.3191 23.661 26.8544 22.1963 25.0541 22.1963ZM23.7481 27.7201V27.4203C23.7481 26.8803 24.1875 26.4408 24.7276 26.4408H25.3806C25.9206 26.4408 26.3601 26.8803 26.3601 27.4203V27.7201C25.9755 27.9434 25.5301 28.0733 25.0541 28.0733C24.578 28.0733 24.1327 27.9434 23.7481 27.7201ZM25.0541 25.7878C24.694 25.7878 24.4011 25.4949 24.4011 25.1348C24.4011 24.7747 24.694 24.4818 25.0541 24.4818C25.4142 24.4818 25.7071 24.7747 25.7071 25.1348C25.7071 25.4949 25.4142 25.7878 25.0541 25.7878ZM26.9915 27.2068C26.9174 26.6468 26.5629 26.1773 26.0698 25.9455C26.2484 25.7222 26.3601 25.4427 26.3601 25.1348C26.3601 24.4145 25.7743 23.8288 25.0541 23.8288C24.3338 23.8288 23.7481 24.4145 23.7481 25.1348C23.7481 25.4427 23.8597 25.7222 24.0387 25.9458C23.5453 26.1773 23.1911 26.6468 23.1169 27.2071C22.699 26.7438 22.4421 26.1326 22.4421 25.4613C22.4421 24.0211 23.6139 22.8493 25.0541 22.8493C26.4943 22.8493 27.6661 24.0211 27.6661 25.4613C27.6661 26.1326 27.4091 26.7438 26.9915 27.2068Z" fill="#720C20" stroke="#720C20" stroke-width="0.377651"/>
<path d="M25.0541 15.3396C23.2538 15.3396 21.7891 16.8043 21.7891 18.6046C21.7891 20.405 23.2538 21.8696 25.0541 21.8696C26.8544 21.8696 28.3191 20.405 28.3191 18.6046C28.3191 16.8043 26.8544 15.3396 25.0541 15.3396ZM23.7481 20.8634V20.5636C23.7481 20.0236 24.1875 19.5841 24.7276 19.5841H25.3806C25.9206 19.5841 26.3601 20.0236 26.3601 20.5636V20.8634C25.9755 21.0867 25.5301 21.2166 25.0541 21.2166C24.578 21.2166 24.1327 21.0867 23.7481 20.8634ZM25.0541 18.9311C24.694 18.9311 24.4011 18.6383 24.4011 18.2781C24.4011 17.918 24.694 17.6251 25.0541 17.6251C25.4142 17.6251 25.7071 17.918 25.7071 18.2781C25.7071 18.6383 25.4142 18.9311 25.0541 18.9311ZM26.9915 20.3501C26.9174 19.7902 26.5629 19.3206 26.0698 19.0888C26.2484 18.8655 26.3601 18.586 26.3601 18.2781C26.3601 17.5579 25.7743 16.9721 25.0541 16.9721C24.3338 16.9721 23.7481 17.5579 23.7481 18.2781C23.7481 18.586 23.8597 18.8655 24.0387 19.0892C23.5453 19.3206 23.1911 19.7902 23.1169 20.3504C22.699 19.8871 22.4421 19.2759 22.4421 18.6046C22.4421 17.1644 23.6139 15.9926 25.0541 15.9926C26.4943 15.9926 27.6661 17.1644 27.6661 18.6046C27.6661 19.2759 27.4091 19.8871 26.9915 20.3501Z" fill="#720C20" stroke="#720C20" stroke-width="0.377651"/>
<path d="M25.0541 8.4834C23.2538 8.4834 21.7891 9.94809 21.7891 11.7484C21.7891 13.5488 23.2538 15.0134 25.0541 15.0134C26.8544 15.0134 28.3191 13.5488 28.3191 11.7484C28.3191 9.94809 26.8544 8.4834 25.0541 8.4834ZM23.7481 14.0072V13.7074C23.7481 13.1674 24.1875 12.7279 24.7276 12.7279H25.3806C25.9206 12.7279 26.3601 13.1674 26.3601 13.7074V14.0072C25.9755 14.2305 25.5301 14.3604 25.0541 14.3604C24.578 14.3604 24.1327 14.2305 23.7481 14.0072ZM25.0541 12.0749C24.694 12.0749 24.4011 11.782 24.4011 11.4219C24.4011 11.0618 24.694 10.7689 25.0541 10.7689C25.4142 10.7689 25.7071 11.0618 25.7071 11.4219C25.7071 11.782 25.4142 12.0749 25.0541 12.0749ZM26.9915 13.4939C26.9174 12.9339 26.5629 12.4644 26.0698 12.2326C26.2484 12.0093 26.3601 11.7298 26.3601 11.4219C26.3601 10.7017 25.7743 10.1159 25.0541 10.1159C24.3338 10.1159 23.7481 10.7017 23.7481 11.4219C23.7481 11.7298 23.8597 12.0093 24.0387 12.2329C23.5453 12.4644 23.1911 12.9339 23.1169 13.4942C22.699 13.0309 22.4421 12.4197 22.4421 11.7484C22.4421 10.3082 23.6139 9.1364 25.0541 9.1364C26.4943 9.1364 27.6661 10.3082 27.6661 11.7484C27.6661 12.4197 27.4091 13.0309 26.9915 13.4939Z" fill="#720C20" stroke="#720C20" stroke-width="0.377651"/>
<path d="M8.39681 24.482H15.5799C15.7601 24.482 15.9064 24.3357 15.9064 24.1555V22.8495H15.2534V23.829H8.72332V14.6869H15.2534V16.9725H15.9064V14.3604C15.9064 14.1802 15.7601 14.0339 15.5799 14.0339H8.39681C8.21659 14.0339 8.07031 14.1802 8.07031 14.3604V24.1555C8.07031 24.3357 8.21659 24.482 8.39681 24.482Z" fill="#720C20" stroke="#720C20" stroke-width="0.377651"/>
<path d="M15.6487 22.1794C15.682 22.1905 15.7169 22.196 15.7518 22.196H17.0578C17.5979 22.196 18.0373 21.7566 18.0373 21.2165V21.1607C18.4174 21.0258 18.6903 20.6628 18.6903 20.237V20.1812C19.0704 20.0463 19.3434 19.6833 19.3434 19.2575H20.3229C20.7728 19.2575 21.1391 18.8912 21.1391 18.4413C21.1391 17.9913 20.7728 17.625 20.3229 17.625H16.0483C15.7897 17.625 15.539 17.7007 15.3238 17.8444L14.6734 18.278H12.9766V18.931H14.7723C14.8366 18.931 14.9 18.9117 14.9535 18.8762L15.6862 18.3877C15.7939 18.3159 15.919 18.278 16.0483 18.278H20.3229C20.413 18.278 20.4861 18.3511 20.4861 18.4413C20.4861 18.5314 20.413 18.6045 20.3229 18.6045H19.0169C18.8366 18.6045 18.6903 18.7508 18.6903 18.931V19.2575C18.6903 19.4374 18.5437 19.584 18.3638 19.584C18.1836 19.584 18.0373 19.7303 18.0373 19.9105V20.237C18.0373 20.4169 17.8907 20.5635 17.7108 20.5635C17.5306 20.5635 17.3843 20.7098 17.3843 20.89V21.2165C17.3843 21.3964 17.2377 21.543 17.0578 21.543H15.8047L14.8755 21.2332C14.8422 21.2221 14.8073 21.2165 14.7723 21.2165H12.9766V21.8695H14.7194L15.6487 22.1794Z" fill="#720C20" stroke="#720C20" stroke-width="0.377651"/>
<path d="M12.9668 15.3396H11.0078V15.9926H12.9668V15.3396Z" fill="#720C20" stroke="#720C20" stroke-width="0.377651"/>
<path d="M11.0075 16.6458H9.375V17.2988H11.0075V16.6458Z" fill="#720C20" stroke="#720C20" stroke-width="0.377651"/>
<path d="M13.6153 16.6458H11.6562V17.2988H13.6153V16.6458Z" fill="#720C20" stroke="#720C20" stroke-width="0.377651"/>
<path d="M12.9665 22.5229H9.375V23.176H12.9665V22.5229Z" fill="#720C20" stroke="#720C20" stroke-width="0.377651"/>
<path d="M10.681 17.9521H9.375V18.6052H10.681V17.9521Z" fill="#720C20" stroke="#720C20" stroke-width="0.377651"/>
<path d="M11.0075 20.8906H9.375V21.5436H11.0075V20.8906Z" fill="#720C20" stroke="#720C20" stroke-width="0.377651"/>
<path d="M11.0075 19.2578H9.375V19.9108H11.0075V19.2578Z" fill="#720C20" stroke="#720C20" stroke-width="0.377651"/>
<path d="M21.4938 20.3893L20.5703 21.3127L21.0321 21.7745L21.9555 20.851L21.4938 20.3893Z" fill="#720C20" stroke="#720C20" stroke-width="0.377651"/>
<path d="M21.0321 15.1091L20.5703 15.5708L21.4938 16.4943L21.9555 16.0325L21.0321 15.1091Z" fill="#720C20" stroke="#720C20" stroke-width="0.377651"/>
</svg>
