<svg width="62" height="62" viewBox="0 0 62 62" fill="none" xmlns="http://www.w3.org/2000/svg">
<circle cx="30.9417" cy="30.9417" r="30.9417" fill="white"/>
<path d="M41.6181 36.8652C38.628 36.8652 36.1953 39.2979 36.1953 42.288C36.1953 45.2781 38.628 47.7108 41.6181 47.7108C44.6082 47.7108 47.0408 45.2781 47.0408 42.288C47.0408 39.2979 44.6082 36.8652 41.6181 36.8652ZM39.449 46.0395V45.5417C39.449 44.6447 40.1789 43.9148 41.0758 43.9148H42.1604C43.0573 43.9148 43.7872 44.6447 43.7872 45.5417V46.0395C43.1484 46.4104 42.4087 46.6262 41.6181 46.6262C40.8274 46.6262 40.0878 46.4104 39.449 46.0395ZM41.6181 42.8303C41.0199 42.8303 40.5335 42.3439 40.5335 41.7457C40.5335 41.1476 41.0199 40.6612 41.6181 40.6612C42.2162 40.6612 42.7026 41.1476 42.7026 41.7457C42.7026 42.3439 42.2162 42.8303 41.6181 42.8303ZM44.8359 45.187C44.7128 44.257 44.1239 43.4772 43.3051 43.0922C43.6017 42.7213 43.7872 42.2571 43.7872 41.7457C43.7872 40.5495 42.8143 39.5766 41.6181 39.5766C40.4218 39.5766 39.449 40.5495 39.449 41.7457C39.449 42.2571 39.6344 42.7213 39.9316 43.0927C39.1122 43.4772 38.5238 44.257 38.4008 45.1875C37.7066 44.4181 37.2799 43.4029 37.2799 42.288C37.2799 39.896 39.2261 37.9498 41.6181 37.9498C44.0101 37.9498 45.9563 39.896 45.9563 42.288C45.9563 43.4029 45.5295 44.4181 44.8359 45.187Z" fill="#720C20" stroke="#720C20" stroke-width="0.627228"/>
<path d="M41.6181 25.4771C38.628 25.4771 36.1953 27.9097 36.1953 30.8998C36.1953 33.8899 38.628 36.3226 41.6181 36.3226C44.6082 36.3226 47.0408 33.8899 47.0408 30.8998C47.0408 27.9097 44.6082 25.4771 41.6181 25.4771ZM39.449 34.6513V34.1535C39.449 33.2565 40.1789 32.5266 41.0758 32.5266H42.1604C43.0573 32.5266 43.7872 33.2565 43.7872 34.1535V34.6513C43.1484 35.0222 42.4087 35.238 41.6181 35.238C40.8274 35.238 40.0878 35.0222 39.449 34.6513ZM41.6181 31.4421C41.0199 31.4421 40.5335 30.9557 40.5335 30.3575C40.5335 29.7594 41.0199 29.273 41.6181 29.273C42.2162 29.273 42.7026 29.7594 42.7026 30.3575C42.7026 30.9557 42.2162 31.4421 41.6181 31.4421ZM44.8359 33.7988C44.7128 32.8688 44.1239 32.089 43.3051 31.704C43.6017 31.3331 43.7872 30.8689 43.7872 30.3575C43.7872 29.1613 42.8143 28.1884 41.6181 28.1884C40.4218 28.1884 39.449 29.1613 39.449 30.3575C39.449 30.8689 39.6344 31.3331 39.9316 31.7046C39.1122 32.089 38.5238 32.8688 38.4008 33.7994C37.7066 33.0299 37.2799 32.0147 37.2799 30.8998C37.2799 28.5078 39.2261 26.5616 41.6181 26.5616C44.0101 26.5616 45.9563 28.5078 45.9563 30.8998C45.9563 32.0147 45.5295 33.0299 44.8359 33.7988Z" fill="#720C20" stroke="#720C20" stroke-width="0.627228"/>
<path d="M41.6181 14.0898C38.628 14.0898 36.1953 16.5225 36.1953 19.5126C36.1953 22.5027 38.628 24.9354 41.6181 24.9354C44.6082 24.9354 47.0408 22.5027 47.0408 19.5126C47.0408 16.5225 44.6082 14.0898 41.6181 14.0898ZM39.449 23.2641V22.7663C39.449 21.8693 40.1789 21.1394 41.0758 21.1394H42.1604C43.0573 21.1394 43.7872 21.8693 43.7872 22.7663V23.2641C43.1484 23.635 42.4087 23.8508 41.6181 23.8508C40.8274 23.8508 40.0878 23.635 39.449 23.2641ZM41.6181 20.0549C41.0199 20.0549 40.5335 19.5685 40.5335 18.9703C40.5335 18.3722 41.0199 17.8858 41.6181 17.8858C42.2162 17.8858 42.7026 18.3722 42.7026 18.9703C42.7026 19.5685 42.2162 20.0549 41.6181 20.0549ZM44.8359 22.4116C44.7128 21.4816 44.1239 20.7018 43.3051 20.3168C43.6017 19.9459 43.7872 19.4817 43.7872 18.9703C43.7872 17.7741 42.8143 16.8012 41.6181 16.8012C40.4218 16.8012 39.449 17.7741 39.449 18.9703C39.449 19.4817 39.6344 19.9459 39.9316 20.3173C39.1122 20.7018 38.5238 21.4816 38.4008 22.4122C37.7066 21.6427 37.2799 20.6275 37.2799 19.5126C37.2799 17.1206 39.2261 15.1744 41.6181 15.1744C44.0101 15.1744 45.9563 17.1206 45.9563 19.5126C45.9563 20.6275 45.5295 21.6427 44.8359 22.4116Z" fill="#720C20" stroke="#720C20" stroke-width="0.627228"/>
<path d="M13.9485 40.6614H25.8786C26.1779 40.6614 26.4209 40.4185 26.4209 40.1192V37.95H25.3363V39.5769H14.4908V24.3931H25.3363V28.1891H26.4209V23.8509C26.4209 23.5515 26.1779 23.3086 25.8786 23.3086H13.9485C13.6492 23.3086 13.4062 23.5515 13.4062 23.8509V40.1192C13.4062 40.4185 13.6492 40.6614 13.9485 40.6614Z" fill="#720C20" stroke="#720C20" stroke-width="0.627228"/>
<path d="M25.9927 36.8372C26.048 36.8556 26.106 36.8648 26.164 36.8648H28.3331C29.2301 36.8648 29.96 36.1349 29.96 35.238V35.1453C30.5912 34.9213 31.0445 34.3183 31.0445 33.6112V33.5184C31.6757 33.2945 32.1291 32.6915 32.1291 31.9843H33.7559C34.5032 31.9843 35.1116 31.3759 35.1116 30.6286C35.1116 29.8814 34.5032 29.2729 33.7559 29.2729H26.6564C26.2269 29.2729 25.8105 29.3988 25.4531 29.6374L24.3729 30.3575H21.5547V31.4421H24.5372C24.644 31.4421 24.7492 31.4101 24.8382 31.351L26.055 30.5397C26.234 30.4204 26.4417 30.3575 26.6564 30.3575H33.7559C33.9056 30.3575 34.027 30.479 34.027 30.6286C34.027 30.7783 33.9056 30.8998 33.7559 30.8998H31.5868C31.2875 30.8998 31.0445 31.1427 31.0445 31.4421V31.9843C31.0445 32.2831 30.801 32.5266 30.5022 32.5266C30.2029 32.5266 29.96 32.7695 29.96 33.0689V33.6112C29.96 33.91 29.7165 34.1534 29.4177 34.1534C29.1184 34.1534 28.8754 34.3964 28.8754 34.6957V35.238C28.8754 35.5368 28.6319 35.7803 28.3331 35.7803H26.2519L24.7086 35.2656C24.6533 35.2472 24.5952 35.238 24.5372 35.238H21.5547V36.3225H24.4494L25.9927 36.8372Z" fill="#720C20" stroke="#720C20" stroke-width="0.627228"/>
<path d="M21.5349 25.4771H18.2812V26.5616H21.5349V25.4771Z" fill="#720C20" stroke="#720C20" stroke-width="0.627228"/>
<path d="M18.2817 27.6465H15.5703V28.731H18.2817V27.6465Z" fill="#720C20" stroke="#720C20" stroke-width="0.627228"/>
<path d="M22.613 27.6465H19.3594V28.731H22.613V27.6465Z" fill="#720C20" stroke="#720C20" stroke-width="0.627228"/>
<path d="M21.5353 37.4077H15.5703V38.4923H21.5353V37.4077Z" fill="#720C20" stroke="#720C20" stroke-width="0.627228"/>
<path d="M17.7394 29.8159H15.5703V30.9005H17.7394V29.8159Z" fill="#720C20" stroke="#720C20" stroke-width="0.627228"/>
<path d="M18.2817 34.6963H15.5703V35.7808H18.2817V34.6963Z" fill="#720C20" stroke="#720C20" stroke-width="0.627228"/>
<path d="M18.2817 31.9849H15.5703V33.0694H18.2817V31.9849Z" fill="#720C20" stroke="#720C20" stroke-width="0.627228"/>
<path d="M35.6978 33.8637L34.1641 35.3975L34.9309 36.1643L36.4647 34.6306L35.6978 33.8637Z" fill="#720C20" stroke="#720C20" stroke-width="0.627228"/>
<path d="M34.9309 25.0944L34.1641 25.8613L35.6978 27.3951L36.4647 26.6282L34.9309 25.0944Z" fill="#720C20" stroke="#720C20" stroke-width="0.627228"/>
</svg>
