<svg width="58" height="58" viewBox="0 0 58 58" fill="none" xmlns="http://www.w3.org/2000/svg">
<circle cx="29" cy="23" r="23" fill="#C4C4C4" fill-opacity="0.5"/>
<circle cx="29" cy="23" r="23" stroke="#C4C4C4"/>
<path fill-rule="evenodd" clip-rule="evenodd" 
d="M44.387 12.1142C43.778 11.7386 43.1357 12.0448 42.6173 12.4307C42.4071 12.5872 42.2278 12.7844 42.0423 12.9722C41.5623 13.462 41.1075 13.9786 40.6054 14.4452C39.3975 15.5694 38.0158 16.4524 36.4782 17.055C33.5651 18.1971 30.4208 18.4586 27.375 19.0653C26.1532 19.3086 24.9564 19.6464 23.8354 20.2127C23.6247 20.3195 23.5058 20.4 23.7789 20.5659C25.6193 20.9989 27.4721 21.3492 29.3698 21.405C29.8044 21.4179 30.1166 21.6031 30.2144 22.0773C30.4472 23.2063 30.5251 24.4017 30.5406 25.5522C30.5516 26.3139 30.4449 28.1375 30.4449 28.1375C30.5398 28.1152 30.6834 28.0652 30.8623 28.026C31.8442 27.8122 33.334 28.3332 33.9653 29.1221C34.6105 29.9298 34.7975 31.155 34.4003 32.1145C34.3619 32.2066 34.1212 32.5122 34.2141 32.5911C34.3908 32.7405 34.928 32.2844 35.0839 32.1877C35.5466 31.8973 36.0095 31.6137 36.4377 31.2728C37.1345 30.7173 37.8481 30.2859 38.7111 31.2218C38.6117 30.6523 38.4668 23.6755 38.5041 22.6594C38.5283 22.0228 38.5188 21.8216 38.7553 21.214C38.977 20.6445 39.426 20.1811 39.8763 19.7842C40.4366 19.2902 40.9966 18.7965 41.5531 18.2991C42.5687 17.3927 43.4464 16.3902 44.2058 15.2597C44.5467 14.7534 44.9415 14.1721 44.9962 13.5464C45.0338 13.1074 44.7887 12.3617 44.387 12.1144L44.387 12.1142ZM35.3626 32.6039C34.8381 32.9963 34.2137 33.3346 33.5892 33.5342C31.2249 34.2876 28.7303 33.378 26.5836 32.3939C26.3235 32.2745 26.0565 32.2182 25.8269 32.3445C25.5736 32.4855 25.6601 32.7874 25.6875 33.0231C25.729 33.3764 25.8921 33.6852 26.1446 33.9369C27.0463 34.8319 28.069 35.5485 29.2416 36.0466C29.7844 36.2773 29.6106 37.2405 29.6145 37.6948C29.6214 38.7201 29.6448 39.748 29.6756 40.7757C30.239 40.8244 33.8196 40.7341 34.9933 40.515C35.0012 39.1794 35.0822 37.2548 35.0559 35.9199C35.0427 35.2607 35.229 35.2952 35.6753 35.0043C36.2882 34.6042 36.7432 34.2904 37.1328 33.9208C37.7662 33.3206 38.2146 32.6859 38.1434 31.7634C38.03 30.2862 35.7814 32.289 35.3623 32.6038L35.3626 32.6039ZM22.9189 19.0101C24.5071 19.0101 25.7946 17.7223 25.7946 16.1341C25.7946 14.5459 24.5074 13.2581 22.9189 13.2581C21.3299 13.2581 20.0424 14.5459 20.0424 16.1341C20.0424 17.7223 21.3297 19.0101 22.9189 19.0101ZM32.55 17.0663C34.2668 17.0663 35.6572 15.6752 35.6572 13.9589C35.6572 12.2429 34.0206 10.6697 32.3046 10.6697C30.5886 10.6697 29.2437 12.2 29.4434 13.9589C29.6356 15.6644 30.8348 17.0663 32.55 17.0663H32.55ZM31.6731 33.0546C32.8491 32.9659 33.8081 32.0782 33.8081 30.8743C33.8081 29.6704 32.853 28.694 31.6731 28.694C30.4955 28.694 29.4928 29.1977 29.3963 30.6594C29.3171 31.861 30.1817 33.168 31.6731 33.0546ZM25.2927 32.1797C25.3464 31.9651 25.5797 31.6629 25.9982 31.7121C24.693 29.7249 24.1822 25.2063 24.6875 24.893C25.1957 24.5773 28.1237 24.9616 29.4236 24.0905C29.8897 23.778 30.0141 22.8432 29.769 22.4118C29.5057 21.948 28.9965 21.9249 28.5143 21.8881C27.7605 21.8299 27.0153 21.7124 26.2731 21.5735C23.997 21.1482 21.7749 20.5309 19.889 19.1278C18.3687 17.9965 17.5288 16.4152 16.8255 14.7268C16.4202 13.7539 16.0438 12.7675 15.5277 11.8451C15.3347 11.4997 15.0227 11.3692 14.6361 11.4137C14.2541 11.4579 14.0571 11.7062 13.9314 12.0439C13.798 12.4014 13.8001 12.7738 13.8227 13.1413C13.8698 13.9369 13.9769 14.7292 14.1465 15.5083C14.4403 16.8608 14.9162 18.166 15.5443 19.399C16.033 20.3588 16.7611 21.2055 17.0967 22.2453C18.9169 27.8745 18.2743 34.2931 18.0797 36.0404C17.999 36.7606 22.3384 38.6668 23.2178 39.0695C23.4745 39.1876 25.1061 39.7757 25.1116 39.8591C26.1048 39.2407 28.0404 37.4687 28.6365 36.4368C27.8784 35.875 27.0614 35.4086 26.3197 34.8095C25.0977 33.8207 25.1942 32.5782 25.2929 32.1797L25.2927 32.1797Z" fill="#76272B"/>
</svg>
