<svg width="100" height="80" viewBox="0 0 100 80" fill="none" xmlns="http://www.w3.org/2000/svg">
<rect width="100" height="80" fill="#720C20"/>
<g clip-path="url(#clip0_8077_5213)">
<path d="M41.9 39.5C47.8653 39.5 52.7 34.6877 52.7 28.75C52.7 22.8123 47.8653 18 41.9 18C35.9347 18 31.1 22.8123 31.1 28.75C31.1 34.6877 35.9347 39.5 41.9 39.5ZM49.46 42.1875H48.0509C46.1778 43.0441 44.0938 43.5312 41.9 43.5312C39.7063 43.5312 37.6306 43.0441 35.7491 42.1875H34.34C28.0794 42.1875 23 47.2434 23 53.475V56.9688C23 59.1943 24.8141 61 27.05 61H50.2447C50.0422 60.4289 49.9578 59.8242 50.0253 59.2111L50.5991 54.0965L50.7003 53.1643L51.3669 52.5008L57.8891 46.0088C55.8219 43.6824 52.8266 42.1875 49.46 42.1875V42.1875ZM53.2822 54.3904L52.7084 59.5135C52.6156 60.3701 53.3413 61.0924 54.1934 60.9916L59.3319 60.4205L70.9672 48.8391L64.9175 42.8174L53.2822 54.3904V54.3904ZM76.4094 40.5834L73.2116 37.4004C72.4269 36.6193 71.1444 36.6193 70.3597 37.4004L67.1703 40.575L66.8244 40.9193L72.8825 46.941L76.4094 43.4305C77.1941 42.641 77.1941 41.3729 76.4094 40.5834V40.5834Z" fill="white"/>
<path d="M41.9 39.5C47.8653 39.5 52.7 34.6877 52.7 28.75C52.7 22.8123 47.8653 18 41.9 18C35.9347 18 31.1 22.8123 31.1 28.75C31.1 34.6877 35.9347 39.5 41.9 39.5ZM49.46 42.1875H48.0509C46.1778 43.0441 44.0938 43.5312 41.9 43.5312C39.7063 43.5312 37.6306 43.0441 35.7491 42.1875H34.34C28.0794 42.1875 23 47.2434 23 53.475V56.9688C23 59.1943 24.8141 61 27.05 61H50.2447C50.0422 60.4289 49.9578 59.8242 50.0253 59.2111L50.5991 54.0965L50.7003 53.1643L51.3669 52.5008L57.8891 46.0088C55.8219 43.6824 52.8266 42.1875 49.46 42.1875V42.1875ZM53.2822 54.3904L52.7084 59.5135C52.6156 60.3701 53.3413 61.0924 54.1934 60.9916L59.3319 60.4205L70.9672 48.8391L64.9175 42.8174L53.2822 54.3904V54.3904ZM76.4094 40.5834L73.2116 37.4004C72.4269 36.6193 71.1444 36.6193 70.3597 37.4004L67.1703 40.575L66.8244 40.9193L72.8825 46.941L76.4094 43.4305C77.1941 42.641 77.1941 41.3729 76.4094 40.5834V40.5834Z" fill="white"/>
</g>
<defs>
<clipPath id="clip0_8077_5213">
<rect width="54" height="43" fill="white" transform="translate(23 18)"/>
</clipPath>
</defs>
</svg>
