<svg width="134" height="144" viewBox="0 0 134 144" fill="none" xmlns="http://www.w3.org/2000/svg">
<path d="M120.6 79.2834H105.525V39.8717C105.525 39.632 105.479 39.398 105.395 39.1815C105.31 38.9637 105.187 38.7678 105.033 38.6035L84.9354 17.109C84.7818 16.9444 84.5982 16.8129 84.3945 16.722C84.1921 16.6314 83.9735 16.5829 83.75 16.5829H78.725V11.2086C78.725 10.2184 77.975 9.41712 77.05 9.41712H21.775C20.85 9.41712 20.1 10.2184 20.1 11.2086V79.2834H13.4C10.6291 79.2834 8.375 81.6942 8.375 84.6578V125.861C8.375 130.8 12.1323 134.818 16.75 134.818H117.25C121.868 134.818 125.625 130.8 125.625 125.861V84.6578C125.625 81.6942 123.371 79.2834 120.6 79.2834ZM88.775 79.2834C88.6842 79.2834 88.606 79.3237 88.5191 79.3385C88.4071 79.3576 88.2963 79.3672 88.1904 79.4094C88.0844 79.4522 87.9965 79.5196 87.902 79.5835C87.8135 79.6421 87.7237 79.6915 87.6461 79.7678C87.557 79.8557 87.4945 79.964 87.425 80.0707C87.3784 80.142 87.3141 80.1936 87.2767 80.2736L82.7146 90.0321H51.2854L46.7233 80.2736C46.6857 80.1931 46.6212 80.1411 46.5743 80.0694C46.5051 79.9635 46.443 79.8557 46.3545 79.7682C46.2762 79.6911 46.1853 79.641 46.0958 79.5817C46.0022 79.5192 45.9154 79.4518 45.8105 79.4098C45.7039 79.367 45.5925 79.3573 45.4798 79.3383C45.3933 79.3237 45.3154 79.2834 45.225 79.2834H31.825V20.1658H82.075V36.2888C82.075 39.2524 84.3291 41.6631 87.1 41.6631H102.175V79.2834H88.775ZM85.425 22.699L99.8064 38.0802H87.1C86.1766 38.0802 85.425 37.2772 85.425 36.2888V22.699ZM23.45 13H75.375V16.5829H30.15C29.225 16.5829 28.475 17.3841 28.475 18.3743V79.2834H23.45V13ZM122.275 125.861C122.275 128.825 120.021 131.235 117.25 131.235H16.75C13.9791 131.235 11.725 128.825 11.725 125.861V84.6578C11.725 83.6693 12.4766 82.8663 13.4 82.8663H44.1896L48.2887 91.6346C48.8596 92.8557 50.0079 93.615 51.2854 93.615H82.7146C83.9921 93.615 85.1404 92.8557 85.7113 91.6346L89.8104 82.8663H120.6C121.523 82.8663 122.275 83.6693 122.275 84.6578V125.861Z" fill="black"/>
<path d="M82.0751 106.155C81.1501 106.155 80.4001 106.956 80.4001 107.947V111.529H53.6001V107.947C53.6001 106.956 52.8501 106.155 51.9251 106.155C51.0001 106.155 50.2501 106.956 50.2501 107.947V113.321C50.2501 114.311 51.0001 115.112 51.9251 115.112H82.0751C83.0001 115.112 83.7501 114.311 83.7501 113.321V107.947C83.7501 106.956 83.0001 106.155 82.0751 106.155ZM38.5251 32.7059H72.0251C72.9501 32.7059 73.7001 31.9046 73.7001 30.9144C73.7001 29.9243 72.9501 29.123 72.0251 29.123H38.5251C37.6001 29.123 36.8501 29.9243 36.8501 30.9144C36.8501 31.9046 37.6001 32.7059 38.5251 32.7059ZM38.5251 45.246H77.0501C77.9751 45.246 78.7251 44.4447 78.7251 43.4546C78.7251 42.4644 77.9751 41.6631 77.0501 41.6631H38.5251C37.6001 41.6631 36.8501 42.4644 36.8501 43.4546C36.8501 44.4447 37.6001 45.246 38.5251 45.246ZM38.5251 57.7861H95.4751C96.4001 57.7861 97.1501 56.9849 97.1501 55.9947C97.1501 55.0045 96.4001 54.2032 95.4751 54.2032H38.5251C37.6001 54.2032 36.8501 55.0045 36.8501 55.9947C36.8501 56.9849 37.6001 57.7861 38.5251 57.7861ZM95.4751 66.7433H38.5251C37.6001 66.7433 36.8501 67.5446 36.8501 68.5348C36.8501 69.525 37.6001 70.3262 38.5251 70.3262H95.4751C96.4001 70.3262 97.1501 69.525 97.1501 68.5348C97.1501 67.5446 96.4001 66.7433 95.4751 66.7433Z" fill="black"/>
</svg>
