<svg width="204" height="174" viewBox="0 0 204 174" fill="none" xmlns="http://www.w3.org/2000/svg">
<g filter="url(#filter0_d_957_478)">
<rect x="33" y="34" width="142" height="99" fill="white"/>
<rect x="34.5" y="35.5" width="139" height="96" stroke="#EAE5E1" stroke-width="3"/>
</g>
<rect x="84" y="103" width="44" height="7" rx="3.5" fill="#7A7A7A"/>
<rect x="61" y="64" width="83" height="24" rx="4" fill="#EFEAE6"/>
<path d="M80.388 71.5685V81H78.6655V75.2085C78.6655 75.0872 78.6677 74.9572 78.672 74.8185C78.6807 74.6798 78.6937 74.539 78.711 74.396L76.0135 79.5115C75.8662 79.7932 75.6387 79.934 75.331 79.934H75.058C74.9063 79.934 74.772 79.8993 74.655 79.83C74.538 79.7563 74.4448 79.6502 74.3755 79.5115L71.665 74.3765C71.678 74.5282 71.6888 74.6755 71.6975 74.8185C71.7062 74.9572 71.7105 75.0872 71.7105 75.2085V81H69.988V71.5685H71.47C71.5523 71.5685 71.626 71.5707 71.691 71.575C71.756 71.5793 71.8123 71.5923 71.86 71.614C71.912 71.6313 71.9575 71.6617 71.9965 71.705C72.0398 71.744 72.081 71.8003 72.12 71.874L74.759 76.905C74.8413 77.0567 74.9172 77.2127 74.9865 77.373C75.0602 77.5333 75.1295 77.698 75.1945 77.867C75.2595 77.6937 75.3267 77.5247 75.396 77.36C75.4697 77.1953 75.5477 77.0372 75.63 76.8855L78.2495 71.874C78.2885 71.8003 78.3297 71.744 78.373 71.705C78.4163 71.6617 78.4618 71.6313 78.5095 71.614C78.5615 71.5923 78.6178 71.5793 78.6785 71.575C78.7435 71.5707 78.8193 71.5685 78.906 71.5685H80.388ZM88.1806 74.2985L84.5666 82.8005C84.5103 82.9218 84.4409 83.0128 84.3586 83.0735C84.2806 83.1342 84.1549 83.1645 83.9816 83.1645H82.6491L83.9166 80.4605L81.2256 74.2985H82.7986C82.9416 74.2985 83.0521 74.331 83.1301 74.396C83.2081 74.461 83.2644 74.5368 83.2991 74.6235L84.5731 77.828C84.6208 77.9537 84.6619 78.0815 84.6966 78.2115C84.7356 78.3372 84.7724 78.4628 84.8071 78.5885C84.8851 78.3328 84.9739 78.0772 85.0736 77.8215L86.2566 74.6235C86.2913 74.5282 86.3541 74.4502 86.4451 74.3895C86.5361 74.3288 86.6358 74.2985 86.7441 74.2985H88.1806ZM97.4839 79.414V81H91.8874V71.5685H93.8374V79.414H97.4839ZM100.278 74.2985V81H98.4844V74.2985H100.278ZM100.493 72.394C100.493 72.5457 100.463 72.6865 100.402 72.8165C100.341 72.9465 100.259 73.0613 100.155 73.161C100.055 73.2607 99.9361 73.3387 99.7974 73.395C99.6631 73.4513 99.5179 73.4795 99.3619 73.4795C99.2146 73.4795 99.0737 73.4513 98.9394 73.395C98.8094 73.3387 98.6946 73.2607 98.5949 73.161C98.4952 73.0613 98.4151 72.9465 98.3544 72.8165C98.2981 72.6865 98.2699 72.5457 98.2699 72.394C98.2699 72.2423 98.2981 72.1015 98.3544 71.9715C98.4151 71.8372 98.4952 71.7202 98.5949 71.6205C98.6946 71.5208 98.8094 71.4428 98.9394 71.3865C99.0737 71.3302 99.2146 71.302 99.3619 71.302C99.5179 71.302 99.6631 71.3302 99.7974 71.3865C99.9361 71.4428 100.055 71.5208 100.155 71.6205C100.259 71.7202 100.341 71.8372 100.402 71.9715C100.463 72.1015 100.493 72.2423 100.493 72.394ZM102.297 81V75.5855L101.777 75.4945C101.643 75.4685 101.532 75.4208 101.445 75.3515C101.363 75.2822 101.322 75.1825 101.322 75.0525V74.3375H102.297V73.8955C102.297 73.5142 102.355 73.1697 102.472 72.862C102.594 72.55 102.765 72.2878 102.986 72.0755C103.207 71.8588 103.478 71.692 103.798 71.575C104.119 71.458 104.481 71.3995 104.884 71.3995C105.04 71.3995 105.187 71.4103 105.326 71.432C105.469 71.4493 105.612 71.4775 105.755 71.5165L105.716 72.4005C105.707 72.5348 105.649 72.6237 105.54 72.667C105.436 72.706 105.319 72.7255 105.189 72.7255C105.007 72.7255 104.843 72.745 104.695 72.784C104.552 72.823 104.431 72.8902 104.331 72.9855C104.232 73.0765 104.156 73.2022 104.104 73.3625C104.052 73.5185 104.026 73.7135 104.026 73.9475V74.3375H105.69V75.5855H104.084V81H102.297ZM110.618 76.8595C110.618 76.6732 110.592 76.4955 110.54 76.3265C110.492 76.1575 110.414 76.008 110.306 75.878C110.198 75.748 110.061 75.6462 109.896 75.5725C109.732 75.4945 109.535 75.4555 109.305 75.4555C108.876 75.4555 108.54 75.5768 108.297 75.8195C108.055 76.0622 107.897 76.4088 107.823 76.8595H110.618ZM107.797 77.9255C107.853 78.5538 108.031 79.0132 108.33 79.3035C108.633 79.5938 109.028 79.739 109.513 79.739C109.76 79.739 109.972 79.7108 110.15 79.6545C110.332 79.5938 110.49 79.5288 110.624 79.4595C110.763 79.3858 110.887 79.3208 110.995 79.2645C111.108 79.2038 111.218 79.1735 111.326 79.1735C111.465 79.1735 111.573 79.2255 111.651 79.3295L112.171 79.9795C111.981 80.2005 111.771 80.3847 111.541 80.532C111.311 80.675 111.073 80.7898 110.826 80.8765C110.579 80.9588 110.33 81.0152 110.078 81.0455C109.827 81.0802 109.584 81.0975 109.35 81.0975C108.882 81.0975 108.445 81.0217 108.037 80.87C107.634 80.714 107.281 80.4865 106.978 80.1875C106.679 79.8842 106.443 79.5093 106.269 79.063C106.096 78.6167 106.009 78.0988 106.009 77.5095C106.009 77.0545 106.083 76.6255 106.23 76.2225C106.382 75.8195 106.599 75.4685 106.88 75.1695C107.162 74.8705 107.504 74.6343 107.907 74.461C108.31 74.2833 108.765 74.1945 109.272 74.1945C109.701 74.1945 110.096 74.2638 110.455 74.4025C110.819 74.5368 111.131 74.734 111.391 74.994C111.656 75.254 111.859 75.5747 112.002 75.956C112.15 76.333 112.223 76.7642 112.223 77.2495C112.223 77.3838 112.217 77.4943 112.204 77.581C112.191 77.6677 112.169 77.737 112.139 77.789C112.109 77.841 112.067 77.8778 112.015 77.8995C111.963 77.9168 111.896 77.9255 111.814 77.9255H107.797ZM115.131 79.232C115.3 79.427 115.482 79.5635 115.677 79.6415C115.876 79.7195 116.088 79.7585 116.314 79.7585C116.53 79.7585 116.728 79.7173 116.905 79.635C117.083 79.5527 117.235 79.4248 117.36 79.2515C117.49 79.0738 117.59 78.8485 117.659 78.5755C117.729 78.3025 117.763 77.9775 117.763 77.6005C117.763 77.2278 117.733 76.9115 117.672 76.6515C117.616 76.3915 117.534 76.1813 117.425 76.021C117.321 75.8607 117.193 75.7458 117.042 75.6765C116.89 75.6028 116.721 75.566 116.535 75.566C116.218 75.566 115.952 75.6288 115.735 75.7545C115.523 75.8758 115.321 76.0557 115.131 76.294V79.232ZM115.027 75.176C115.161 75.0287 115.304 74.8943 115.456 74.773C115.607 74.6473 115.77 74.5412 115.943 74.4545C116.117 74.3635 116.303 74.2942 116.502 74.2465C116.702 74.1945 116.918 74.1685 117.152 74.1685C117.512 74.1685 117.841 74.2465 118.14 74.4025C118.444 74.5542 118.704 74.7773 118.92 75.072C119.137 75.3623 119.306 75.7198 119.427 76.1445C119.549 76.5692 119.609 77.0545 119.609 77.6005C119.609 78.1032 119.54 78.569 119.401 78.998C119.267 79.4227 119.074 79.791 118.823 80.103C118.571 80.415 118.268 80.6598 117.913 80.8375C117.562 81.0108 117.17 81.0975 116.736 81.0975C116.372 81.0975 116.062 81.0433 115.807 80.935C115.555 80.8267 115.33 80.6793 115.131 80.493V83.1645H113.337V74.2985H114.442C114.667 74.2985 114.817 74.4025 114.89 74.6105L115.027 75.176ZM122.57 71.3085V81H120.776V71.3085H122.57ZM127.568 78.1985C127.13 78.2202 126.766 78.2592 126.476 78.3155C126.185 78.3675 125.954 78.4368 125.78 78.5235C125.611 78.6102 125.49 78.7098 125.416 78.8225C125.347 78.9308 125.312 79.05 125.312 79.18C125.312 79.44 125.384 79.6242 125.527 79.7325C125.674 79.8408 125.878 79.895 126.138 79.895C126.437 79.895 126.695 79.843 126.911 79.739C127.132 79.6307 127.351 79.4638 127.568 79.2385V78.1985ZM123.915 75.228C124.309 74.8727 124.745 74.6083 125.221 74.435C125.698 74.2573 126.214 74.1685 126.768 74.1685C127.167 74.1685 127.522 74.2335 127.834 74.3635C128.151 74.4935 128.417 74.6755 128.634 74.9095C128.855 75.1392 129.024 75.4143 129.141 75.735C129.258 76.0557 129.316 76.4067 129.316 76.788V81H128.497C128.328 81 128.198 80.9762 128.107 80.9285C128.021 80.8808 127.949 80.7812 127.893 80.6295L127.75 80.2005C127.581 80.3478 127.416 80.4778 127.256 80.5905C127.1 80.7032 126.937 80.7985 126.768 80.8765C126.599 80.9502 126.417 81.0065 126.222 81.0455C126.032 81.0845 125.817 81.104 125.579 81.104C125.284 81.104 125.015 81.065 124.773 80.987C124.53 80.909 124.32 80.7942 124.142 80.6425C123.969 80.4865 123.835 80.2937 123.739 80.064C123.644 79.8343 123.596 79.57 123.596 79.271C123.596 79.024 123.659 78.777 123.785 78.53C123.91 78.283 124.125 78.0598 124.428 77.8605C124.736 77.6568 125.143 77.49 125.65 77.36C126.162 77.2257 126.801 77.1498 127.568 77.1325V76.788C127.568 76.3677 127.479 76.06 127.301 75.865C127.124 75.6657 126.868 75.566 126.534 75.566C126.287 75.566 126.081 75.5963 125.917 75.657C125.752 75.7133 125.607 75.7762 125.481 75.8455C125.36 75.9105 125.245 75.9733 125.137 76.034C125.028 76.0903 124.903 76.1185 124.76 76.1185C124.634 76.1185 124.528 76.0882 124.441 76.0275C124.359 75.9625 124.29 75.8867 124.233 75.8L123.915 75.228ZM132.381 75.0785C132.515 74.9485 132.654 74.8293 132.797 74.721C132.944 74.6127 133.098 74.5195 133.258 74.4415C133.423 74.3635 133.598 74.3028 133.785 74.2595C133.975 74.2162 134.181 74.1945 134.402 74.1945C134.766 74.1945 135.089 74.2573 135.371 74.383C135.652 74.5087 135.888 74.6842 136.079 74.9095C136.274 75.1348 136.419 75.4035 136.515 75.7155C136.614 76.0275 136.664 76.3698 136.664 76.7425V81H134.877V76.7425C134.877 76.3698 134.79 76.0817 134.617 75.878C134.443 75.67 134.188 75.566 133.85 75.566C133.598 75.566 133.362 75.6202 133.141 75.7285C132.92 75.8368 132.71 75.9885 132.511 76.1835V81H130.717V74.2985H131.822C132.047 74.2985 132.196 74.4025 132.27 74.6105L132.381 75.0785Z" fill="black"/>
<g filter="url(#filter1_d_957_478)">
<path d="M45.8136 15.6322H158.186L187 32.2414H17L45.8136 15.6322Z" fill="#C4C4C4"/>
</g>
<path d="M36.4392 0.00191512C34.8775 0.00191512 33.6094 1.2708 33.6094 2.83136V32.2414H168.177C169.738 32.2414 169.378 30.9725 169.378 29.4158V14.1433C169.378 12.5818 168.109 11.3139 166.548 11.3139H100.08L92.4431 1.13253C91.909 0.419496 91.0727 0 90.1815 0L36.4392 0.00191512Z" fill="#C4A67A"/>
<g filter="url(#filter2_d_957_478)">
<rect x="17" y="32.2413" width="170" height="120.172" fill="white"/>
<rect x="18.5" y="33.7413" width="167" height="117.172" stroke="#EAE5E1" stroke-width="3"/>
</g>
<defs>
<filter id="filter0_d_957_478" x="16" y="21" width="176" height="133" filterUnits="userSpaceOnUse" color-interpolation-filters="sRGB">
<feFlood flood-opacity="0" result="BackgroundImageFix"/>
<feColorMatrix in="SourceAlpha" type="matrix" values="0 0 0 0 0 0 0 0 0 0 0 0 0 0 0 0 0 0 127 0" result="hardAlpha"/>
<feOffset dy="4"/>
<feGaussianBlur stdDeviation="8.5"/>
<feComposite in2="hardAlpha" operator="out"/>
<feColorMatrix type="matrix" values="0 0 0 0 0 0 0 0 0 0 0 0 0 0 0 0 0 0 0.1 0"/>
<feBlend mode="normal" in2="BackgroundImageFix" result="effect1_dropShadow_957_478"/>
<feBlend mode="normal" in="SourceGraphic" in2="effect1_dropShadow_957_478" result="shape"/>
</filter>
<filter id="filter1_d_957_478" x="7" y="9.6322" width="190" height="36.6092" filterUnits="userSpaceOnUse" color-interpolation-filters="sRGB">
<feFlood flood-opacity="0" result="BackgroundImageFix"/>
<feColorMatrix in="SourceAlpha" type="matrix" values="0 0 0 0 0 0 0 0 0 0 0 0 0 0 0 0 0 0 127 0" result="hardAlpha"/>
<feOffset dy="4"/>
<feGaussianBlur stdDeviation="5"/>
<feComposite in2="hardAlpha" operator="out"/>
<feColorMatrix type="matrix" values="0 0 0 0 0 0 0 0 0 0 0 0 0 0 0 0 0 0 0.5 0"/>
<feBlend mode="normal" in2="BackgroundImageFix" result="effect1_dropShadow_957_478"/>
<feBlend mode="normal" in="SourceGraphic" in2="effect1_dropShadow_957_478" result="shape"/>
</filter>
<filter id="filter2_d_957_478" x="0" y="19.2413" width="204" height="154.172" filterUnits="userSpaceOnUse" color-interpolation-filters="sRGB">
<feFlood flood-opacity="0" result="BackgroundImageFix"/>
<feColorMatrix in="SourceAlpha" type="matrix" values="0 0 0 0 0 0 0 0 0 0 0 0 0 0 0 0 0 0 127 0" result="hardAlpha"/>
<feOffset dy="4"/>
<feGaussianBlur stdDeviation="8.5"/>
<feComposite in2="hardAlpha" operator="out"/>
<feColorMatrix type="matrix" values="0 0 0 0 0 0 0 0 0 0 0 0 0 0 0 0 0 0 0.1 0"/>
<feBlend mode="normal" in2="BackgroundImageFix" result="effect1_dropShadow_957_478"/>
<feBlend mode="normal" in="SourceGraphic" in2="effect1_dropShadow_957_478" result="shape"/>
</filter>
</defs>
</svg>
