<svg width="95" height="96" viewBox="0 0 95 96" fill="none" xmlns="http://www.w3.org/2000/svg">
<path d="M89.4866 53.8098H74.2188C72.7571 53.8115 71.3557 54.3929 70.3221 55.4265C69.2884 56.4601 68.7071 57.8614 68.7054 59.3232C68.7048 59.8854 68.4813 60.4245 68.0836 60.822C67.6861 61.2196 67.147 61.4432 66.5848 61.4437H28.4152C27.853 61.4432 27.3139 61.2196 26.9164 60.822C26.5187 60.4245 26.2952 59.8854 26.2946 59.3232C26.2929 57.8614 25.7116 56.4601 24.6779 55.4265C23.6443 54.3929 22.2429 53.8115 20.7812 53.8098H5.51339C4.05167 53.8115 2.6503 54.3929 1.6167 55.4265C0.58311 56.4601 0.00169266 57.8614 0 59.3232V89.8589C0.00169266 91.3206 0.58311 92.722 1.6167 93.7556C2.6503 94.7891 4.05167 95.3706 5.51339 95.3723H89.4866C90.9482 95.3706 92.3497 94.7891 93.3833 93.7556C94.4169 92.722 94.9983 91.3206 95 89.8589V59.3232C94.9983 57.8614 94.4169 56.4601 93.3833 55.4265C92.3497 54.3929 90.9482 53.8115 89.4866 53.8098ZM91.6071 89.8589C91.6066 90.4211 91.383 90.9602 90.9854 91.3577C90.5879 91.7554 90.0488 91.9789 89.4866 91.9795H5.51339C4.95115 91.9789 4.41209 91.7554 4.01453 91.3577C3.61696 90.9602 3.39338 90.4211 3.39286 89.8589V59.3232C3.39338 58.7608 3.61696 58.2219 4.01453 57.8242C4.41209 57.4268 4.95115 57.2032 5.51339 57.2027H20.7812C21.3434 57.2032 21.8826 57.4268 22.28 57.8242C22.6777 58.2219 22.9013 58.7608 22.9018 59.3232C22.9035 60.7849 23.4848 62.1863 24.5185 63.2199C25.5521 64.2534 26.9535 64.8349 28.4152 64.8366H66.5848C68.0465 64.8349 69.4479 64.2534 70.4815 63.2199C71.5152 62.1863 72.0965 60.7849 72.0982 59.3232C72.0987 58.7608 72.3223 58.2219 72.72 57.8242C73.1174 57.4268 73.6566 57.2032 74.2188 57.2027H89.4866C90.0488 57.2032 90.5879 57.4268 90.9854 57.8242C91.383 58.2219 91.6066 58.7608 91.6071 59.3232V89.8589Z" fill="white"/>
<path d="M67.0095 72.8945H27.9916C21.1895 72.942 21.1764 83.8726 27.9918 83.923H67.0095C73.822 83.8803 73.8112 72.9427 67.0095 72.8945ZM68.7059 78.8337C68.7058 79.2835 68.5268 79.7149 68.2087 80.0329C67.8908 80.351 67.4594 80.5298 67.0095 80.5302H27.9916C25.6367 80.5502 25.6702 76.2625 27.9916 76.2874H67.0095C68.4406 76.3242 68.842 77.596 68.7059 78.8337Z" fill="white"/>
<path d="M16.1492 50.4249C16.372 50.425 16.5927 50.3812 16.7985 50.2961C17.0045 50.2109 17.1914 50.0859 17.349 49.9283C17.5066 49.7709 17.6315 49.5838 17.7168 49.3778C17.802 49.172 17.8457 48.9513 17.8456 48.7284V8.72658C17.8471 7.4537 18.3533 6.23338 19.2534 5.33332C20.1534 4.43326 21.3738 3.92698 22.6466 3.92557H46.7363C50.7161 3.92065 54.6579 4.69794 58.338 6.21321V14.5333C58.3403 16.707 59.2048 18.791 60.742 20.3282C62.2789 21.8651 64.363 22.7298 66.5368 22.7322H74.853C78.1555 29.4846 76.958 41.4021 77.1544 48.7286C77.1615 49.1737 77.3434 49.5983 77.6608 49.9105C77.9782 50.2228 78.4055 50.3979 78.8508 50.3979C79.2961 50.3979 79.7235 50.2228 80.0409 49.9105C80.3581 49.5982 80.54 49.1737 80.5473 48.7284C80.3771 40.1893 81.6656 27.9144 77.4039 20.1886C74.6968 14.3304 70.3719 9.36775 64.9386 5.88535C59.5051 2.40298 53.1898 0.54588 46.7363 0.532817L22.6466 0.532715C20.4743 0.535301 18.3916 1.39941 16.8556 2.9355C15.3195 4.47158 14.4554 6.55422 14.4528 8.72658V48.7284C14.4526 48.9513 14.4964 49.172 14.5816 49.3778C14.6668 49.5838 14.7918 49.7709 14.9493 49.9283C15.1069 50.0859 15.294 50.2109 15.4998 50.2961C15.7057 50.3812 15.9264 50.425 16.1492 50.4249ZM61.7308 7.89878C66.5217 10.5901 70.4795 14.5481 73.1703 19.3392H66.5368C65.2624 19.338 64.0408 18.8312 63.1397 17.9303C62.2387 17.0292 61.732 15.8075 61.7308 14.5332V7.89878Z" fill="white"/>
<path d="M70.2622 34.8125H24.7402C24.2961 34.8215 23.8734 35.004 23.5624 35.3213C23.2516 35.6385 23.0774 36.065 23.0774 36.5091C23.0774 36.9532 23.2516 37.3795 23.5626 37.6968C23.8734 38.014 24.2963 38.1965 24.7402 38.2054H70.2622C70.7062 38.1965 71.1291 38.0138 71.44 37.6968C71.7508 37.3795 71.925 36.9531 71.925 36.5089C71.925 36.0648 71.7508 35.6385 71.44 35.3213C71.1291 35.004 70.7062 34.8215 70.2622 34.8125Z" fill="white"/>
<path d="M24.7402 44.6848C24.2961 44.6936 23.8734 44.8763 23.5624 45.1934C23.2516 45.5106 23.0774 45.9371 23.0774 46.3812C23.0774 46.8254 23.2516 47.2519 23.5626 47.5689C23.8734 47.8861 24.2963 48.0687 24.7402 48.0777H70.2622C70.7062 48.0687 71.1291 47.8861 71.44 47.5689C71.7508 47.2517 71.925 46.8254 71.925 46.3812C71.925 45.9371 71.7508 45.5106 71.44 45.1934C71.1291 44.8763 70.7062 44.6936 70.2622 44.6848H24.7402Z" fill="white"/>
<path d="M33.9287 29.5419C39.6438 29.5419 44.2769 24.9088 44.2769 19.1937C44.2769 13.4785 39.6438 8.84546 33.9287 8.84546C28.2135 8.84546 23.5804 13.4785 23.5804 19.1937C23.5804 24.9088 28.2135 29.5419 33.9287 29.5419Z" stroke="white" stroke-width="3.05357"/>
<path d="M38.2957 18.9281C38.2353 18.9887 38.1636 19.0369 38.0845 19.0696C38.0055 19.1025 37.9208 19.1193 37.8353 19.1193C37.7496 19.1193 37.665 19.1025 37.5859 19.0696C37.5069 19.0369 37.4351 18.9887 37.3747 18.9281L34.5853 16.1386V24.1024C34.5853 24.2749 34.5168 24.4403 34.3948 24.5621C34.273 24.6841 34.1076 24.7526 33.9352 24.7526C33.7627 24.7526 33.5973 24.6841 33.4755 24.5621C33.3535 24.4403 33.285 24.2749 33.285 24.1024V16.1386L30.4944 18.9281C30.3724 19.0503 30.2066 19.119 30.034 19.119C29.8613 19.119 29.6955 19.0503 29.5735 18.9281C29.4514 18.806 29.3827 18.6404 29.3827 18.4677C29.3827 18.295 29.4514 18.1293 29.5735 18.0071L33.4741 14.1065C33.5345 14.0459 33.6063 13.9978 33.6853 13.965C33.7644 13.9322 33.849 13.9153 33.9345 13.9153C34.0202 13.9153 34.1049 13.9322 34.1839 13.965C34.263 13.9978 34.3347 14.0459 34.3951 14.1065L38.2957 18.0071C38.3563 18.0675 38.4045 18.1393 38.4372 18.2183C38.4701 18.2974 38.4869 18.382 38.4869 18.4677C38.4869 18.5532 38.4701 18.6379 38.4372 18.7169C38.4045 18.796 38.3563 18.8677 38.2957 18.9281Z" fill="white" stroke="white" stroke-width="1.69643"/>
</svg>
