<svg width="34" height="33" viewBox="0 0 34 33" fill="none" xmlns="http://www.w3.org/2000/svg">
<path fill-rule="evenodd" clip-rule="evenodd" d="M7.01493 15.6521V9.04835L5.39609 9.46329L4.01511 12.6871L2.72444 15.6521H7.01493ZM13.5298 13.1042C13.3972 13.1042 13.27 13.0515 13.1763 12.9578C13.0825 12.864 13.0299 12.7369 13.0299 12.6043C13.0299 12.4717 13.0825 12.3445 13.1763 12.2508C13.27 12.157 13.3972 12.1044 13.5298 12.1044H20.4702C20.6028 12.1044 20.73 12.157 20.8237 12.2508C20.9175 12.3445 20.9701 12.4717 20.9701 12.6043C20.9701 12.7369 20.9175 12.864 20.8237 12.9578C20.73 13.0515 20.6028 13.1042 20.4702 13.1042H13.5298ZM13.5298 9.71147C13.3995 9.70799 13.2756 9.65378 13.1847 9.56037C13.0937 9.46697 13.0428 9.34175 13.0428 9.21138C13.0428 9.08101 13.0937 8.95579 13.1847 8.86238C13.2756 8.76898 13.3995 8.71476 13.5298 8.71129H20.4702C20.6005 8.71476 20.7244 8.76898 20.8153 8.86238C20.9063 8.95579 20.9572 9.08101 20.9572 9.21138C20.9572 9.34175 20.9063 9.46697 20.8153 9.56037C20.7244 9.65378 20.6005 9.70799 20.4702 9.71147H13.5298ZM13.9156 21.2812H20.0844C20.7889 21.2837 21.4638 21.5645 21.962 22.0625C22.4602 22.5605 22.7413 23.2353 22.744 23.9397V24.7113C22.742 25.416 22.4612 26.0913 21.9628 26.5896C21.4645 27.0879 20.7892 27.3686 20.0844 27.3705H13.9156C13.2108 27.3686 12.5355 27.0879 12.0372 26.5896C11.5388 26.0913 11.258 25.416 11.256 24.7113V23.9397C11.2582 23.2351 11.5391 22.56 12.0374 22.0619C12.5357 21.5638 13.211 21.2831 13.9156 21.2812ZM20.0844 22.2814H13.9156C13.4758 22.2819 13.0542 22.4567 12.7431 22.7676C12.432 23.0784 12.2569 23.5 12.2562 23.9397V24.7113C12.2578 25.1509 12.4331 25.572 12.744 25.8829C13.0548 26.1937 13.476 26.3691 13.9156 26.3707H20.0844C20.524 26.3689 20.945 26.1935 21.2558 25.8827C21.5666 25.5719 21.742 25.1508 21.7438 24.7113V23.9397C21.7431 23.5 21.568 23.0784 21.2569 22.7676C20.9458 22.4567 20.5242 22.2819 20.0844 22.2814ZM7.01493 8.02151V5.66418C7.01638 5.3544 7.13757 5.05719 7.35315 4.83472C7.56872 4.61225 7.86198 4.48177 8.17156 4.47058V2.27111C8.17221 1.93419 8.30635 1.61126 8.54458 1.37303C8.78282 1.13479 9.10575 1.00066 9.44267 1H24.5573C24.8943 1.00066 25.2172 1.13479 25.4554 1.37303C25.6937 1.61126 25.8278 1.93419 25.8284 2.27111V4.47058C26.1383 4.48081 26.4322 4.61099 26.6479 4.83366C26.8637 5.05634 26.9846 5.35411 26.9851 5.66418V8.02151L29.0889 8.55982C29.1631 8.57873 29.232 8.61452 29.2902 8.66441C29.3483 8.7143 29.3942 8.77695 29.4242 8.84747L30.9058 12.3067L32.3924 15.72C32.5713 15.7914 32.7248 15.9147 32.8331 16.0741C32.9414 16.2334 32.9995 16.4215 33 16.6142V30.6494C32.9996 30.9046 32.8981 31.1492 32.7177 31.3296C32.5373 31.51 32.2927 31.6115 32.0375 31.6119H1.96249C1.70762 31.6106 1.46357 31.5088 1.28335 31.3286C1.10313 31.1483 1.00131 30.9043 1 30.6494V16.6142C1.00148 16.422 1.05989 16.2346 1.16785 16.0755C1.27581 15.9165 1.42848 15.793 1.60658 15.7207L3.09778 12.2967L4.57582 8.84782C4.60779 8.77241 4.65788 8.70606 4.72164 8.65464C4.7854 8.60322 4.86086 8.56833 4.94133 8.55307L7.01564 8.01973L7.01493 8.02151ZM26.9851 9.04978V15.6521H31.2763L29.9924 12.7042L29.9849 12.6871L28.6039 9.46364L26.9851 9.04835V9.04978ZM25.9852 15.6521V5.66418C25.9846 5.61289 25.9639 5.56389 25.9277 5.52762C25.8914 5.49135 25.8424 5.47069 25.7911 5.47004H8.20853C8.15747 5.46971 8.10837 5.48966 8.072 5.52551C8.03538 5.56237 8.0148 5.61221 8.01476 5.66418V15.6521H11.7609C11.8671 15.6521 11.9705 15.6859 12.0561 15.7486C12.1418 15.8113 12.2052 15.8997 12.2373 16.0009L13.1131 18.178H20.7333L21.6222 15.9664C21.6591 15.874 21.7229 15.7947 21.8053 15.7389C21.8877 15.683 21.9849 15.6532 22.0844 15.6532L25.9852 15.6521ZM12.3138 18.8635L11.4249 16.6519H1.99982V30.6117H32.0002V16.6519H22.4215L21.5461 18.8304C21.514 18.9317 21.4505 19.0201 21.3648 19.0829C21.2791 19.1457 21.1756 19.1795 21.0693 19.1796H12.7767C12.6772 19.1793 12.58 19.1493 12.4977 19.0934C12.4153 19.0375 12.3515 18.9583 12.3145 18.866L12.3138 18.8635ZM9.17173 4.47022H24.8283V2.27111C24.8278 2.19937 24.7991 2.13069 24.7484 2.07992C24.6977 2.02915 24.6291 2.00038 24.5573 1.99982H9.44267C9.37092 2.00038 9.30228 2.02915 9.25158 2.07992C9.20088 2.13069 9.1722 2.19937 9.17173 2.27111V4.47022Z" fill="white" stroke="white"/>
</svg>
