<svg width="46" height="46" viewBox="0 0 46 46" fill="none" xmlns="http://www.w3.org/2000/svg">
<circle cx="22.6299" cy="22.6299" r="22.6299" fill="#720C20"/>
<path d="M32.7232 23.8369H29.1875C28.849 23.8373 28.5245 23.9719 28.2851 24.2113C28.0458 24.4507 27.9111 24.7752 27.9107 25.1137C27.9106 25.2439 27.8588 25.3687 27.7667 25.4608C27.6747 25.5529 27.5498 25.6047 27.4196 25.6048H18.5804C18.4502 25.6047 18.3253 25.5529 18.2333 25.4608C18.1412 25.3687 18.0894 25.2439 18.0893 25.1137C18.0889 24.7752 17.9542 24.4507 17.7149 24.2113C17.4755 23.9719 17.151 23.8373 16.8125 23.8369H13.2768C12.9383 23.8373 12.6138 23.9719 12.3744 24.2113C12.135 24.4507 12.0004 24.7752 12 25.1137V32.1851C12.0004 32.5236 12.135 32.8482 12.3744 33.0875C12.6138 33.3269 12.9383 33.4615 13.2768 33.4619H32.7232C33.0617 33.4615 33.3862 33.3269 33.6256 33.0875C33.865 32.8482 33.9996 32.5236 34 32.1851V25.1137C33.9996 24.7752 33.865 24.4507 33.6256 24.2113C33.3862 23.9719 33.0617 23.8373 32.7232 23.8369ZM33.2143 32.1851C33.2142 32.3153 33.1624 32.4402 33.0703 32.5322C32.9783 32.6243 32.8534 32.6761 32.7232 32.6762H13.2768C13.1466 32.6761 13.0217 32.6243 12.9297 32.5322C12.8376 32.4402 12.7858 32.3153 12.7857 32.1851V25.1137C12.7858 24.9835 12.8376 24.8587 12.9297 24.7666C13.0217 24.6745 13.1466 24.6227 13.2768 24.6226H16.8125C16.9427 24.6227 17.0675 24.6745 17.1596 24.7666C17.2517 24.8587 17.3035 24.9835 17.3036 25.1137C17.304 25.4522 17.4386 25.7767 17.678 26.0161C17.9173 26.2554 18.2419 26.3901 18.5804 26.3905H27.4196C27.7581 26.3901 28.0827 26.2554 28.322 26.0161C28.5614 25.7767 28.696 25.4522 28.6964 25.1137C28.6965 24.9835 28.7483 24.8587 28.8404 24.7666C28.9325 24.6745 29.0573 24.6227 29.1875 24.6226H32.7232C32.8534 24.6227 32.9783 24.6745 33.0703 24.7666C33.1624 24.8587 33.2142 24.9835 33.2143 25.1137V32.1851Z" fill="white" stroke="white" stroke-width="0.4"/>
<path d="M27.5181 28.2578H18.4824C16.9071 28.2688 16.9041 30.8001 18.4824 30.8118H27.5181C29.0957 30.8019 29.0932 28.269 27.5181 28.2578ZM27.911 29.6332C27.9109 29.7374 27.8695 29.8373 27.7958 29.9109C27.7222 29.9846 27.6223 30.026 27.5181 30.0261H18.4824C17.937 30.0307 17.9448 29.0378 18.4824 29.0435H27.5181C27.8495 29.0521 27.9424 29.3466 27.911 29.6332Z" fill="white" stroke="white" stroke-width="0.4"/>
<path d="M15.7405 23.054C15.7921 23.054 15.8432 23.0439 15.8909 23.0241C15.9386 23.0044 15.9819 22.9755 16.0184 22.939C16.0549 22.9025 16.0838 22.8592 16.1035 22.8115C16.1233 22.7638 16.1334 22.7127 16.1334 22.6611V13.3975C16.1337 13.1028 16.2509 12.8202 16.4594 12.6117C16.6678 12.4033 16.9504 12.286 17.2452 12.2857H22.8238C23.7455 12.2846 24.6583 12.4646 25.5105 12.8155V14.7422C25.5111 15.2456 25.7113 15.7282 26.0673 16.0842C26.4232 16.4401 26.9058 16.6404 27.4092 16.6409H29.3351C30.0999 18.2047 29.8225 20.9645 29.868 22.6611C29.8697 22.7642 29.9118 22.8626 29.9853 22.9349C30.0588 23.0072 30.1578 23.0477 30.2609 23.0477C30.364 23.0477 30.463 23.0072 30.5365 22.9349C30.61 22.8625 30.6521 22.7642 30.6537 22.6611C30.6143 20.6836 30.9127 17.841 29.9258 16.0519C29.2989 14.6952 28.2973 13.546 27.0391 12.7396C25.7808 11.9331 24.3183 11.503 22.8238 11.5L17.2452 11.5C16.7421 11.5006 16.2598 11.7007 15.9041 12.0564C15.5484 12.4122 15.3483 12.8945 15.3477 13.3975V22.6611C15.3476 22.7127 15.3578 22.7638 15.3775 22.8115C15.3972 22.8592 15.4262 22.9025 15.4627 22.939C15.4991 22.9755 15.5425 23.0044 15.5901 23.0241C15.6378 23.0439 15.6889 23.054 15.7405 23.054ZM26.2962 13.2058C27.4057 13.8291 28.3222 14.7457 28.9454 15.8552H27.4092C27.1141 15.8549 26.8312 15.7376 26.6225 15.5289C26.4139 15.3202 26.2965 15.0373 26.2963 14.7422L26.2962 13.2058Z" fill="white" stroke="white" stroke-width="0.4"/>
<path d="M28.2707 19.4385H17.7288C17.626 19.4405 17.5281 19.4828 17.4561 19.5563C17.3841 19.6297 17.3437 19.7285 17.3438 19.8313C17.3438 19.9342 17.3841 20.0329 17.4561 20.1064C17.5281 20.1798 17.626 20.2221 17.7288 20.2242H28.2707C28.3736 20.2221 28.4715 20.1798 28.5435 20.1064C28.6155 20.0329 28.6558 19.9342 28.6558 19.8313C28.6558 19.7285 28.6155 19.6297 28.5435 19.5563C28.4715 19.4828 28.3736 19.4405 28.2707 19.4385Z" fill="white" stroke="white" stroke-width="0.4"/>
<path d="M17.7288 21.7241C17.626 21.7262 17.5281 21.7685 17.4561 21.8419C17.3841 21.9154 17.3437 22.0141 17.3438 22.117C17.3438 22.2198 17.3841 22.3186 17.4561 22.392C17.5281 22.4655 17.626 22.5078 17.7288 22.5098H28.2707C28.3736 22.5078 28.4715 22.4655 28.5435 22.392C28.6155 22.3186 28.6558 22.2198 28.6558 22.117C28.6558 22.0141 28.6155 21.9154 28.5435 21.8419C28.4715 21.7685 28.3736 21.7262 28.2707 21.7241H17.7288Z" fill="white" stroke="white" stroke-width="0.4"/>
<circle cx="19.8555" cy="15.8208" r="2.75" stroke="white" stroke-width="0.8"/>
<path d="M20.8668 15.759C20.8528 15.7731 20.8362 15.7842 20.8179 15.7918C20.7996 15.7994 20.78 15.8033 20.7602 15.8033C20.7404 15.8033 20.7207 15.7994 20.7024 15.7918C20.6841 15.7842 20.6675 15.7731 20.6535 15.759L20.0075 15.113V16.9573C20.0075 16.9972 19.9917 17.0355 19.9634 17.0637C19.9352 17.092 19.8969 17.1078 19.857 17.1078C19.8171 17.1078 19.7788 17.092 19.7505 17.0637C19.7223 17.0355 19.7064 16.9972 19.7064 16.9573V15.113L19.0602 15.759C19.0319 15.7873 18.9935 15.8032 18.9535 15.8032C18.9135 15.8032 18.8752 15.7873 18.8469 15.759C18.8186 15.7307 18.8027 15.6924 18.8027 15.6524C18.8027 15.6124 18.8186 15.574 18.8469 15.5457L19.7502 14.6424C19.7642 14.6284 19.7808 14.6173 19.7991 14.6097C19.8174 14.6021 19.837 14.5981 19.8569 14.5981C19.8767 14.5981 19.8963 14.6021 19.9146 14.6097C19.9329 14.6173 19.9495 14.6284 19.9635 14.6424L20.8668 15.5457C20.8808 15.5597 20.892 15.5763 20.8996 15.5946C20.9072 15.6129 20.9111 15.6326 20.9111 15.6524C20.9111 15.6722 20.9072 15.6918 20.8996 15.7101C20.892 15.7284 20.8808 15.745 20.8668 15.759Z" fill="white" stroke="white" stroke-width="0.6"/>
</svg>
