<svg width="18" height="12" viewBox="0 0 18 12" fill="none" xmlns="http://www.w3.org/2000/svg">
<path d="M1.21007 11.6619H4.98785C5.50729 11.6619 5.93229 11.2369 5.93229 10.7175C5.93229 10.1981 5.50729 9.77306 4.98785 9.77306H1.21007C0.690625 9.77306 0.265625 10.1981 0.265625 10.7175C0.265625 11.2369 0.690625 11.6619 1.21007 11.6619ZM0.265625 1.27306C0.265625 1.7925 0.690625 2.2175 1.21007 2.2175H16.3212C16.8406 2.2175 17.2656 1.7925 17.2656 1.27306C17.2656 0.753613 16.8406 0.328613 16.3212 0.328613H1.21007C0.690625 0.328613 0.265625 0.753613 0.265625 1.27306ZM1.21007 6.93972H10.6545C11.174 6.93972 11.599 6.51472 11.599 5.99528C11.599 5.47584 11.174 5.05084 10.6545 5.05084H1.21007C0.690625 5.05084 0.265625 5.47584 0.265625 5.99528C0.265625 6.51472 0.690625 6.93972 1.21007 6.93972Z" fill="black" fill-opacity="0.8"/>
</svg>
