<svg width="24" height="23" viewBox="0 0 24 23" fill="none" xmlns="http://www.w3.org/2000/svg">
<path d="M11.8688 1.01035C6.00346 1.01035 1.23438 5.77943 1.23438 11.6448C1.23438 17.5102 6.00346 22.2793 11.8688 22.2793C17.7342 22.2793 22.5033 17.5102 22.5033 11.6448C22.5033 5.77943 17.7342 1.01035 11.8688 1.01035ZM11.8688 2.33965C17.0158 2.33965 21.174 6.49784 21.174 11.6448C21.174 16.7918 17.0158 20.95 11.8688 20.95C6.72187 20.95 2.56368 16.7918 2.56368 11.6448C2.56368 6.49784 6.72187 2.33965 11.8688 2.33965ZM11.8619 4.76287C11.774 4.76377 11.6872 4.78209 11.6065 4.81677C11.5257 4.85145 11.4526 4.90179 11.3915 4.96489C11.3303 5.02799 11.2823 5.10259 11.2501 5.18437C11.218 5.26616 11.2024 5.35351 11.2042 5.44137V6.36219C10.5689 6.42663 9.97024 6.59447 9.45946 6.94376C8.77354 7.41283 8.32401 8.24395 8.32401 9.24928C8.32401 10.1989 8.88022 10.9396 9.54254 11.3886C10.2049 11.8377 10.9865 12.0865 11.6957 12.2818C12.3562 12.4636 13.012 12.6997 13.4474 12.9949C13.8827 13.29 14.0843 13.5512 14.0843 14.0334C14.0843 14.6962 13.8869 15.0013 13.5305 15.245C13.174 15.4888 12.5818 15.6327 11.8688 15.6327C10.8594 15.6327 9.81729 14.7046 9.6187 14.0957C9.59786 14.006 9.55862 13.9217 9.50347 13.848C9.44833 13.7743 9.37847 13.7128 9.29833 13.6675C9.21819 13.6222 9.12952 13.5941 9.03793 13.5848C8.94634 13.5756 8.85383 13.5855 8.76626 13.6139C8.67869 13.6423 8.59797 13.6885 8.52922 13.7498C8.46047 13.811 8.40518 13.8858 8.36686 13.9695C8.32854 14.0532 8.30802 14.1439 8.3066 14.236C8.30519 14.328 8.3229 14.4194 8.35863 14.5042C8.72772 15.6359 9.82253 16.6537 11.2042 16.9066V17.8482C11.2029 17.9363 11.2192 18.0238 11.252 18.1055C11.2849 18.1872 11.3336 18.2616 11.3955 18.3243C11.4573 18.3871 11.531 18.4369 11.6123 18.4709C11.6935 18.5048 11.7807 18.5224 11.8688 18.5224C11.9569 18.5224 12.0441 18.5048 12.1254 18.4709C12.2066 18.4369 12.2803 18.3871 12.3422 18.3243C12.404 18.2616 12.4528 18.1872 12.4856 18.1055C12.5185 18.0238 12.5347 17.9363 12.5335 17.8482V16.9343C13.1687 16.8679 13.7674 16.6882 14.2782 16.3389C14.9641 15.8699 15.4137 15.0387 15.4137 14.0334C15.4137 13.0838 14.8574 12.3431 14.1951 11.894C13.5328 11.445 12.7511 11.1962 12.0419 11.0009C11.3815 10.8191 10.7256 10.583 10.2903 10.2878C9.85494 9.99264 9.65332 9.7314 9.65332 9.24928C9.65332 8.58647 9.85071 8.28837 10.2072 8.0446C10.5637 7.80082 11.1559 7.65688 11.8688 7.65688C12.8782 7.65688 13.9204 8.57812 14.119 9.18697C14.1398 9.27663 14.179 9.36099 14.2342 9.4347C14.2893 9.5084 14.3592 9.56985 14.4393 9.61515C14.5195 9.66045 14.6081 9.6886 14.6997 9.69784C14.7913 9.70707 14.8838 9.69718 14.9714 9.6688C15.059 9.64041 15.1397 9.59414 15.2084 9.53293C15.2772 9.47171 15.3325 9.39689 15.3708 9.31319C15.4091 9.22949 15.4296 9.13874 15.4311 9.0467C15.4325 8.95466 15.4148 8.86332 15.379 8.77848C15.0099 7.64685 13.9151 6.6414 12.5335 6.38989V5.44137C12.5353 5.35234 12.5193 5.26385 12.4863 5.18115C12.4533 5.09845 12.404 5.02323 12.3413 4.95994C12.2787 4.89665 12.204 4.8466 12.1216 4.81275C12.0393 4.77889 11.9509 4.76193 11.8619 4.76287Z" fill="#720C20" stroke="#720C20" stroke-width="1.01281"/>
</svg>
