<svg width="46" height="46" viewBox="0 0 46 46" fill="none" xmlns="http://www.w3.org/2000/svg">
<circle cx="23" cy="23" r="23" fill="white"/>
<circle cx="23" cy="23" r="23" stroke="white"/>
<g clip-path="url(#clip0_1_26)">
<path d="M31.3561 27.3083C31.1871 26.7359 30.982 26.2378 30.7411 25.8147C30.5004 25.3913 30.1556 24.9782 29.706 24.5741C29.2571 24.1703 28.8532 23.8451 28.495 23.5979C28.1371 23.3504 27.6454 23.0738 27.0203 22.7676C26.3957 22.4614 25.9008 22.2336 25.5365 22.0838C25.1718 21.9342 24.6441 21.7291 23.9539 21.4686C23.342 21.2344 22.8863 21.0553 22.5866 20.9317C22.2871 20.8079 21.8934 20.6322 21.405 20.4042C20.9169 20.1766 20.5523 19.9746 20.3114 19.7989C20.0705 19.6232 19.8134 19.4084 19.5399 19.1546C19.2664 18.9007 19.0743 18.6305 18.9636 18.344C18.8531 18.0575 18.7977 17.7449 18.7977 17.4064C18.7977 16.5211 19.1882 15.7982 19.9694 15.2385C20.7508 14.6788 21.76 14.3988 22.9971 14.3988C23.5437 14.3988 24.101 14.4735 24.667 14.6234C25.2331 14.7733 25.7182 14.9421 26.1218 15.1311C26.5259 15.32 26.9066 15.5284 27.2648 15.7562C27.6229 15.9841 27.8767 16.1565 28.0266 16.2737C28.1764 16.391 28.2713 16.469 28.3099 16.5081C28.4794 16.6383 28.6548 16.6838 28.8371 16.6449C29.0323 16.6319 29.1822 16.5276 29.2866 16.3325L30.869 13.4808C31.0251 13.2205 30.9929 12.9731 30.7713 12.7386C30.6931 12.6604 30.5958 12.5694 30.4778 12.4651C30.3609 12.3609 30.1069 12.1721 29.716 11.8985C29.3254 11.6252 28.912 11.381 28.4761 11.1661C28.0397 10.9515 27.4731 10.7332 26.7764 10.512C26.0801 10.2904 25.3605 10.1408 24.6181 10.0627V6.625C24.6181 6.44282 24.5596 6.293 24.4428 6.17575C24.3256 6.05877 24.1758 6 23.9932 6H21.3563C21.187 6 21.0405 6.06178 20.9169 6.18553C20.7932 6.30929 20.7313 6.45569 20.7313 6.625V10.1407C18.6869 10.5312 17.0267 11.4037 15.7507 12.7578C14.4747 14.1121 13.8365 15.6874 13.8365 17.4845C13.8365 18.0183 13.8921 18.5261 14.0028 19.0077C14.1133 19.4896 14.2501 19.9226 14.413 20.3067C14.5756 20.691 14.8069 21.0685 15.1063 21.4397C15.4057 21.8108 15.689 22.1298 15.9559 22.3966C16.2229 22.6634 16.5713 22.9402 17.0008 23.2265C17.4306 23.5132 17.7985 23.7445 18.1045 23.9201C18.4107 24.0953 18.8175 24.2978 19.3252 24.5251C19.833 24.7531 20.2336 24.9254 20.5266 25.0429C20.8196 25.16 21.2199 25.3229 21.7279 25.5308C22.431 25.8042 22.952 26.0159 23.2905 26.1657C23.6292 26.3156 24.0588 26.5239 24.5799 26.7908C25.1006 27.0575 25.4813 27.3017 25.7224 27.5231C25.9633 27.7446 26.1813 28.018 26.3767 28.3435C26.5722 28.6689 26.6701 29.014 26.6701 29.3787C26.6701 30.4074 26.2697 31.2015 25.4687 31.761C24.668 32.3211 23.7399 32.601 22.6854 32.601C22.204 32.601 21.7219 32.5492 21.2402 32.4451C19.5475 32.1061 17.9655 31.2923 16.4941 30.0033L16.455 29.9643C16.3378 29.8214 16.1814 29.7627 15.9863 29.7889C15.778 29.8149 15.6281 29.8931 15.5371 30.0236L13.5252 32.6601C13.3299 32.9205 13.3431 33.1874 13.5644 33.4608C13.6296 33.539 13.7435 33.6565 13.9062 33.8124C14.0693 33.969 14.372 34.2128 14.8145 34.5455C15.2571 34.8777 15.739 35.1898 16.2599 35.4831C16.7808 35.776 17.4415 36.0656 18.2425 36.3521C19.0434 36.6382 19.8733 36.84 20.7328 36.9571V40.3751C20.7328 40.5446 20.7947 40.691 20.9183 40.8148C21.0421 40.9387 21.1885 41.0003 21.3577 41.0003H23.9947C24.1773 41.0003 24.3271 40.9418 24.4441 40.8247C24.5612 40.7077 24.6195 40.5578 24.6195 40.3752V36.9572C26.6902 36.6187 28.3732 35.7299 29.6686 34.2911C30.9642 32.8522 31.6122 31.1366 31.6122 29.1446C31.6115 28.4936 31.527 27.8816 31.3561 27.3083Z" fill="#911D1E"/>
</g>
<defs>
<clipPath id="clip0_1_26">
<rect width="35" height="35" fill="white" transform="translate(5 6)"/>
</clipPath>
</defs>
</svg>
