<svg width="24" height="23" viewBox="0 0 24 23" fill="none" xmlns="http://www.w3.org/2000/svg">
<path d="M11.8688 1.01025C6.00346 1.01025 1.23438 5.77933 1.23438 11.6447C1.23438 17.5101 6.00346 22.2792 11.8688 22.2792C17.7342 22.2792 22.5033 17.5101 22.5033 11.6447C22.5033 5.77933 17.7342 1.01025 11.8688 1.01025ZM11.8688 2.33956C17.0158 2.33956 21.174 6.49774 21.174 11.6447C21.174 16.7917 17.0158 20.9499 11.8688 20.9499C6.72187 20.9499 2.56368 16.7917 2.56368 11.6447C2.56368 6.49774 6.72187 2.33956 11.8688 2.33956ZM11.8619 4.76278C11.774 4.76368 11.6872 4.782 11.6065 4.81668C11.5257 4.85135 11.4526 4.9017 11.3915 4.9648C11.3303 5.02789 11.2823 5.10249 11.2501 5.18428C11.218 5.26607 11.2024 5.35342 11.2042 5.44128V6.3621C10.5689 6.42654 9.97024 6.59438 9.45946 6.94367C8.77354 7.41273 8.32401 8.24386 8.32401 9.24919C8.32401 10.1988 8.88022 10.9395 9.54254 11.3885C10.2049 11.8376 10.9865 12.0864 11.6957 12.2817C12.3562 12.4635 13.012 12.6996 13.4474 12.9948C13.8827 13.2899 14.0843 13.5511 14.0843 14.0333C14.0843 14.6961 13.8869 15.0012 13.5305 15.2449C13.174 15.4887 12.5818 15.6326 11.8688 15.6326C10.8594 15.6326 9.81729 14.7045 9.6187 14.0956C9.59786 14.006 9.55862 13.9216 9.50347 13.8479C9.44833 13.7742 9.37847 13.7127 9.29833 13.6674C9.21819 13.6221 9.12952 13.594 9.03793 13.5848C8.94634 13.5755 8.85383 13.5854 8.76626 13.6138C8.67869 13.6422 8.59797 13.6884 8.52922 13.7497C8.46047 13.8109 8.40518 13.8857 8.36686 13.9694C8.32854 14.0531 8.30802 14.1438 8.3066 14.2359C8.30519 14.3279 8.3229 14.4193 8.35863 14.5041C8.72772 15.6358 9.82253 16.6537 11.2042 16.9066V17.8481C11.2029 17.9362 11.2192 18.0237 11.252 18.1054C11.2849 18.1871 11.3337 18.2615 11.3955 18.3242C11.4573 18.387 11.531 18.4368 11.6123 18.4708C11.6935 18.5048 11.7807 18.5223 11.8688 18.5223C11.9569 18.5223 12.0441 18.5048 12.1254 18.4708C12.2066 18.4368 12.2803 18.387 12.3422 18.3242C12.404 18.2615 12.4528 18.1871 12.4856 18.1054C12.5185 18.0237 12.5347 17.9362 12.5335 17.8481V16.9342C13.1687 16.8678 13.7674 16.6881 14.2782 16.3388C14.9641 15.8698 15.4137 15.0386 15.4137 14.0333C15.4137 13.0837 14.8574 12.343 14.1951 11.894C13.5328 11.4449 12.7511 11.1961 12.0419 11.0008C11.3815 10.819 10.7256 10.5829 10.2903 10.2877C9.85494 9.99255 9.65332 9.73131 9.65332 9.24919C9.65332 8.58637 9.85071 8.28828 10.2072 8.0445C10.5637 7.80072 11.1559 7.65679 11.8688 7.65679C12.8782 7.65679 13.9204 8.57803 14.119 9.18688C14.1398 9.27654 14.179 9.3609 14.2342 9.43461C14.2893 9.50831 14.3592 9.56976 14.4393 9.61506C14.5195 9.66035 14.6081 9.68851 14.6997 9.69775C14.7913 9.70698 14.8838 9.69709 14.9714 9.6687C15.059 9.64032 15.1397 9.59405 15.2084 9.53284C15.2772 9.47162 15.3325 9.3968 15.3708 9.3131C15.4091 9.2294 15.4296 9.13865 15.4311 9.04661C15.4325 8.95456 15.4148 8.86323 15.379 8.77839C15.0099 7.64675 13.9151 6.6413 12.5335 6.38979V5.44128C12.5353 5.35225 12.5193 5.26376 12.4863 5.18106C12.4533 5.09836 12.404 5.02313 12.3413 4.95985C12.2787 4.89656 12.204 4.84651 12.1216 4.81265C12.0393 4.7788 11.9509 4.76184 11.8619 4.76278Z" fill="white" stroke="white" stroke-width="1.01281"/>
</svg>
