<svg width="46" height="46" viewBox="0 0 46 46" fill="none" xmlns="http://www.w3.org/2000/svg">
<circle cx="23" cy="23" r="23" fill="#C4C4C4" fill-opacity="0.5"/>
<circle cx="23" cy="23" r="23" stroke="#C4C4C4"/>
<g clip-path="url(#clip0_299_136)">
<path d="M31.3564 27.3083C31.1873 26.7359 30.9822 26.2378 30.7413 25.8147C30.5006 25.3913 30.1558 24.9782 29.7063 24.5742C29.2573 24.1703 28.8534 23.8451 28.4953 23.5979C28.1373 23.3504 27.6457 23.0738 27.0205 22.7676C26.3959 22.4614 25.9011 22.2336 25.5368 22.0838C25.172 21.9342 24.6443 21.7291 23.9541 21.4686C23.3422 21.2344 22.8866 21.0553 22.5868 20.9317C22.2874 20.8079 21.8936 20.6322 21.4053 20.4042C20.9172 20.1765 20.5525 19.9746 20.3116 19.7989C20.0707 19.6232 19.8136 19.4084 19.5401 19.1546C19.2666 18.9007 19.0746 18.6305 18.9638 18.344C18.8533 18.0575 18.7979 17.7449 18.7979 17.4064C18.7979 16.5211 19.1884 15.7982 19.9697 15.2385C20.751 14.6788 21.7603 14.3988 22.9973 14.3988C23.544 14.3988 24.1012 14.4735 24.6673 14.6234C25.2333 14.7733 25.7184 14.9421 26.1221 15.1311C26.5261 15.32 26.9068 15.5284 27.265 15.7562C27.6232 15.9841 27.877 16.1565 28.0269 16.2737C28.1766 16.391 28.2715 16.469 28.3102 16.5081C28.4797 16.6383 28.655 16.6838 28.8373 16.6449C29.0326 16.6319 29.1825 16.5276 29.2869 16.3325L30.8692 13.4808C31.0254 13.2205 30.9931 12.9731 30.7716 12.7386C30.6933 12.6604 30.596 12.5694 30.478 12.4651C30.3612 12.3609 30.1072 12.1721 29.7162 11.8985C29.3256 11.6252 28.9122 11.381 28.4763 11.1661C28.0399 10.9515 27.4733 10.7332 26.7766 10.512C26.0804 10.2904 25.3607 10.1408 24.6184 10.0627V6.625C24.6184 6.44282 24.5599 6.293 24.443 6.17575C24.3259 6.05877 24.1761 6 23.9935 6H21.3565C21.1873 6 21.0408 6.06178 20.9171 6.18553C20.7934 6.30929 20.7316 6.45569 20.7316 6.625V10.1407C18.6872 10.5312 17.027 11.4037 15.7509 12.7578C14.475 14.1121 13.8368 15.6874 13.8368 17.4845C13.8368 18.0183 13.8923 18.5261 14.003 19.0077C14.1136 19.4896 14.2504 19.9226 14.4132 20.3067C14.5759 20.691 14.8071 21.0685 15.1065 21.4397C15.406 21.8108 15.6893 22.1298 15.9561 22.3966C16.2231 22.6634 16.5715 22.9402 17.001 23.2265C17.4309 23.5132 17.7987 23.7445 18.1048 23.9201C18.4109 24.0953 18.8178 24.2978 19.3255 24.5251C19.8333 24.7531 20.2338 24.9254 20.5268 25.0429C20.8198 25.16 21.2202 25.3229 21.7282 25.5308C22.4312 25.8042 22.9522 26.0159 23.2907 26.1657C23.6295 26.3156 24.059 26.5239 24.5802 26.7908C25.1009 27.0575 25.4816 27.3017 25.7226 27.5231C25.9635 27.7446 26.1815 28.018 26.377 28.3435C26.5724 28.6689 26.6703 29.014 26.6703 29.3787C26.6703 30.4074 26.2699 31.2015 25.4689 31.761C24.6682 32.3211 23.7402 32.601 22.6856 32.601C22.2043 32.601 21.7221 32.5492 21.2405 32.4451C19.5477 32.1061 17.9657 31.2923 16.4943 30.0033L16.4553 29.9643C16.338 29.8214 16.1817 29.7627 15.9866 29.7889C15.7782 29.8149 15.6284 29.8931 15.5373 30.0236L13.5255 32.6601C13.3301 32.9205 13.3433 33.1874 13.5646 33.4608C13.6298 33.539 13.7437 33.6565 13.9064 33.8124C14.0695 33.969 14.3723 34.2128 14.8148 34.5455C15.2574 34.8777 15.7392 35.1898 16.2602 35.4831C16.781 35.776 17.4418 36.0656 18.2427 36.3521C19.0437 36.6382 19.8736 36.84 20.733 36.9571V40.3751C20.733 40.5446 20.7949 40.691 20.9185 40.8148C21.0423 40.9387 21.1887 41.0003 21.3579 41.0003H23.9949C24.1775 41.0003 24.3273 40.9418 24.4444 40.8247C24.5614 40.7077 24.6197 40.5578 24.6197 40.3752V36.9572C26.6905 36.6187 28.3734 35.7299 29.6689 34.2911C30.9644 32.8522 31.6124 31.1366 31.6124 29.1446C31.6117 28.4936 31.5273 27.8816 31.3564 27.3083Z" fill="#911D1E"/>
</g>
<defs>
<clipPath id="clip0_299_136">
<rect width="35" height="35" fill="white" transform="translate(5 6)"/>
</clipPath>
</defs>
</svg>
