<svg width="21" height="21" viewBox="0 0 21 21" fill="none" xmlns="http://www.w3.org/2000/svg">
<g id="Finance icon">
<g id="Group">
<path id="Vector" d="M10.5 0.925049C5.26033 0.925049 1 5.18538 1 10.425C1 15.6647 5.26033 19.925 10.5 19.925C15.7397 19.925 20 15.6647 20 10.425C20 5.18538 15.7397 0.925049 10.5 0.925049ZM10.5 2.11255C15.0979 2.11255 18.8125 5.82715 18.8125 10.425C18.8125 15.023 15.0979 18.7375 10.5 18.7375C5.9021 18.7375 2.1875 15.023 2.1875 10.425C2.1875 5.82715 5.9021 2.11255 10.5 2.11255ZM10.4938 4.27726C10.4153 4.27807 10.3378 4.29444 10.2656 4.32541C10.1935 4.35639 10.1282 4.40136 10.0736 4.45773C10.0189 4.5141 9.97601 4.58074 9.94729 4.6538C9.91857 4.72686 9.90462 4.8049 9.90625 4.88338V5.70597C9.33878 5.76354 8.80395 5.91348 8.34766 6.2255C7.73491 6.64453 7.33333 7.38699 7.33333 8.28508C7.33333 9.13338 7.83021 9.79505 8.42188 10.1962C9.01355 10.5973 9.71182 10.8196 10.3454 10.9941C10.9354 11.1565 11.5213 11.3674 11.9102 11.6311C12.2991 11.8948 12.4792 12.1281 12.4792 12.5588C12.4792 13.1509 12.3028 13.4234 11.9844 13.6412C11.6659 13.8589 11.1369 13.9875 10.5 13.9875C9.59828 13.9875 8.66731 13.1584 8.48991 12.6145C8.47129 12.5344 8.43624 12.459 8.38697 12.3932C8.33771 12.3274 8.2753 12.2725 8.20371 12.232C8.13212 12.1915 8.05291 12.1664 7.97109 12.1581C7.88927 12.1499 7.80663 12.1587 7.7284 12.1841C7.65018 12.2094 7.57807 12.2508 7.51665 12.3054C7.45523 12.3601 7.40584 12.427 7.37161 12.5017C7.33738 12.5765 7.31905 12.6576 7.31778 12.7398C7.31651 12.822 7.33234 12.9036 7.36426 12.9794C7.69397 13.9904 8.67199 14.8996 9.90625 15.1256V15.9667C9.90514 16.0454 9.91967 16.1235 9.94901 16.1965C9.97835 16.2695 10.0219 16.336 10.0772 16.392C10.1324 16.4481 10.1982 16.4925 10.2708 16.5229C10.3434 16.5533 10.4213 16.5689 10.5 16.5689C10.5787 16.5689 10.6566 16.5533 10.7292 16.5229C10.8018 16.4925 10.8676 16.4481 10.9228 16.392C10.9781 16.336 11.0216 16.2695 11.051 16.1965C11.0803 16.1235 11.0949 16.0454 11.0938 15.9667V15.1503C11.6612 15.091 12.1961 14.9304 12.6523 14.6184C13.2651 14.1994 13.6667 13.4569 13.6667 12.5588C13.6667 11.7105 13.1698 11.0489 12.5781 10.6477C11.9865 10.2465 11.2882 10.0243 10.6546 9.84985C10.0646 9.68741 9.47874 9.47648 9.08984 9.21281C8.70094 8.94914 8.52083 8.71576 8.52083 8.28508C8.52083 7.69297 8.69717 7.42668 9.01562 7.2089C9.33408 6.99113 9.8631 6.86255 10.5 6.86255C11.4017 6.86255 12.3327 7.68551 12.5101 8.22941C12.5287 8.30951 12.5638 8.38487 12.613 8.45071C12.6623 8.51656 12.7247 8.57145 12.7963 8.61191C12.8679 8.65238 12.9471 8.67753 13.0289 8.68578C13.1107 8.69403 13.1934 8.6852 13.2716 8.65984C13.3498 8.63448 13.4219 8.59315 13.4833 8.53846C13.5448 8.48378 13.5942 8.41694 13.6284 8.34217C13.6626 8.2674 13.681 8.18633 13.6822 8.10411C13.6835 8.02188 13.6677 7.94029 13.6357 7.8645C13.306 6.85358 12.328 5.95539 11.0938 5.73071V4.88338C11.0954 4.80385 11.0811 4.7248 11.0516 4.65093C11.0221 4.57705 10.9781 4.50985 10.9221 4.45331C10.8661 4.39678 10.7994 4.35206 10.7258 4.32182C10.6523 4.29158 10.5734 4.27642 10.4938 4.27726Z" fill="#1A1A1A" stroke="#1A1A1A" stroke-width="0.57"/>
</g>
</g>
</svg>
