<svg width="49" height="49" viewBox="0 0 49 49" fill="none" xmlns="http://www.w3.org/2000/svg">
<path d="M3.81057 47.985C3.41013 47.9844 3.02123 47.8508 2.70496 47.6051C2.38869 47.3595 2.16297 47.0158 2.06326 46.6279C1.8916 45.9612 -2.03487 30.1848 6.38004 19.3323C11.0745 13.2791 18.6004 10.0393 28.7698 9.70678V2.8115C28.7688 2.45522 28.8731 2.10659 29.0697 1.80944C29.2662 1.51228 29.5463 1.27987 29.8745 1.14141C30.2028 1.00296 30.5647 0.96464 30.9147 1.03128C31.2647 1.09791 31.5872 1.26653 31.8416 1.51592L47.4536 16.6942C47.6265 16.8626 47.7639 17.0639 47.8578 17.2862C47.9516 17.5086 48 17.7475 48 17.9889C48 18.2302 47.9516 18.4691 47.8578 18.6915C47.7639 18.9139 47.6265 19.1152 47.4536 19.2836L31.8416 34.4618C31.5872 34.7112 31.2647 34.8798 30.9147 34.9465C30.5647 35.0131 30.2028 34.9748 29.8745 34.8363C29.5463 34.6979 29.2662 34.4655 29.0697 34.1683C28.8731 33.8712 28.7688 33.5225 28.7698 33.1663V26.2547C25.1975 26.2728 16.6633 26.898 11.0618 32.0749C9.20395 33.9034 7.75749 36.1073 6.81897 38.5392C5.88045 40.9712 5.47147 43.5754 5.61932 46.178C5.61931 46.6178 5.4589 47.0425 5.16817 47.3725C4.87744 47.7025 4.47634 47.9151 4.04005 47.9705C3.9639 47.9797 3.88728 47.9846 3.81057 47.985ZM32.3837 7.08852V11.4848C32.3837 11.964 32.1933 12.4236 31.8545 12.7625C31.5156 13.1014 31.056 13.2917 30.5768 13.2917C20.6639 13.2917 13.4831 16.069 9.23681 21.5458C6.52169 25.2938 4.9587 29.7523 4.73934 34.3751C5.75427 32.5193 7.06665 30.8425 8.62426 29.4114C17.0066 21.6777 30.1684 22.6517 30.7213 22.6878C31.1751 22.7242 31.5983 22.9306 31.9065 23.2656C32.2147 23.6006 32.3852 24.0396 32.3837 24.4948V28.891L43.5957 17.9898L32.3837 7.08852Z" fill="black" stroke="black"/>
</svg>
