<svg width="16" height="16" viewBox="0 0 16 16" fill="none" xmlns="http://www.w3.org/2000/svg">
<path d="M5.40152 8.36364C5.81742 8.36364 6.2163 8.52886 6.51039 8.82295C6.80448 9.11704 6.9697 9.51591 6.9697 9.93182V13.7652C6.9697 14.1811 6.80448 14.5799 6.51039 14.874C6.2163 15.1681 5.81742 15.3333 5.40152 15.3333H1.56818C1.15227 15.3333 0.753401 15.1681 0.45931 14.874C0.165219 14.5799 0 14.1811 0 13.7652V9.93182C0 9.51591 0.165219 9.11704 0.45931 8.82295C0.753401 8.52886 1.15227 8.36364 1.56818 8.36364H5.40152ZM13.7652 8.36364C14.1811 8.36364 14.5799 8.52886 14.874 8.82295C15.1681 9.11704 15.3333 9.51591 15.3333 9.93182V13.7652C15.3333 14.1811 15.1681 14.5799 14.874 14.874C14.5799 15.1681 14.1811 15.3333 13.7652 15.3333H9.93182C9.51591 15.3333 9.11704 15.1681 8.82295 14.874C8.52886 14.5799 8.36364 14.1811 8.36364 13.7652V9.93182C8.36364 9.51591 8.52886 9.11704 8.82295 8.82295C9.11704 8.52886 9.51591 8.36364 9.93182 8.36364H13.7652ZM5.40152 0C5.81742 0 6.2163 0.165219 6.51039 0.45931C6.80448 0.753401 6.9697 1.15227 6.9697 1.56818V5.40152C6.9697 5.81742 6.80448 6.2163 6.51039 6.51039C6.2163 6.80448 5.81742 6.9697 5.40152 6.9697H1.56818C1.15227 6.9697 0.753401 6.80448 0.45931 6.51039C0.165219 6.2163 0 5.81742 0 5.40152V1.56818C0 1.15227 0.165219 0.753401 0.45931 0.45931C0.753401 0.165219 1.15227 0 1.56818 0H5.40152ZM13.7652 0C14.1811 0 14.5799 0.165219 14.874 0.45931C15.1681 0.753401 15.3333 1.15227 15.3333 1.56818V5.40152C15.3333 5.81742 15.1681 6.2163 14.874 6.51039C14.5799 6.80448 14.1811 6.9697 13.7652 6.9697H9.93182C9.51591 6.9697 9.11704 6.80448 8.82295 6.51039C8.52886 6.2163 8.36364 5.81742 8.36364 5.40152V1.56818C8.36364 1.15227 8.52886 0.753401 8.82295 0.45931C9.11704 0.165219 9.51591 0 9.93182 0H13.7652Z" fill="#720C20"/>
</svg>
