<svg width="224" height="171" viewBox="0 0 224 171" fill="none" xmlns="http://www.w3.org/2000/svg">
<rect width="224" height="171" rx="2" fill="#414141"/>
<path d="M133.812 72.0811C132.053 72.0802 130.365 72.778 129.121 74.022C127.876 75.2659 127.177 76.9528 127.177 78.7121V80.4261C128.042 80.8736 128.716 81.6185 129.073 82.5252C129.431 83.4311 129.449 84.4354 129.122 85.3531C128.719 86.4849 128.178 87.5625 127.509 88.5614C130.69 89.7212 133.531 91.6567 135.774 94.1925H163.999C164.983 94.1934 165.781 94.9916 165.782 95.9761V125.567C165.781 126.512 165.405 127.42 164.736 128.089C164.067 128.758 163.159 129.134 162.214 129.135H142.455C142.52 130.579 142.575 132.025 142.62 133.47H164.758C166.518 133.471 168.206 132.773 169.449 131.529C170.694 130.286 171.393 128.599 171.394 126.84V78.7122C171.393 76.9529 170.694 75.266 169.449 74.022C168.206 72.7781 166.518 72.0802 164.758 72.0811L133.812 72.0811ZM134.574 76.4176H164.001C164.985 76.4194 165.782 77.2167 165.783 78.2012V87.6365C165.782 88.621 164.985 89.4192 164.001 89.421H134.574C133.59 89.4192 132.793 88.621 132.792 87.6365V78.2012C132.793 77.2167 133.59 76.4194 134.574 76.4176Z" fill="white"/>
<path d="M153.421 116.129H145.141V107.202H153.421V116.129Z" fill="white"/>
<path d="M140.702 107.203C141.04 110.175 141.338 113.151 141.596 116.13H143.107V107.203H140.702Z" fill="white"/>
<path d="M141.762 118.17C141.999 121.142 142.197 124.118 142.354 127.097H143.102V118.17H141.762Z" fill="white"/>
<path d="M153.421 127.097V118.17H145.141V127.097H153.421Z" fill="white"/>
<path d="M162.215 127.097C162.621 127.097 163.011 126.936 163.298 126.649C163.586 126.362 163.747 125.973 163.747 125.567V118.17H155.467V127.097L162.215 127.097Z" fill="white"/>
<path d="M155.467 116.129H163.747V107.202H155.467V116.129Z" fill="white"/>
<path d="M155.467 105.162H163.747V96.2344H155.467V105.162Z" fill="white"/>
<path d="M145.141 105.162H153.421V96.2344H145.141V105.162Z" fill="white"/>
<path d="M139.431 100.123C138.885 98.7554 138.189 97.4509 137.36 96.2324H143.103V105.16H140.464V105.16C140.383 104.488 140.3 103.816 140.214 103.145C140.084 102.109 139.822 101.093 139.435 100.123H139.431Z" fill="white"/>
<path d="M163.748 78.459H134.831V87.3843H163.748V78.459Z" fill="white"/>
<path d="M66.9941 90.6738C68.8085 92.5144 71.0802 93.8379 73.5762 94.5077C76.0722 95.1774 78.7019 95.1694 81.1934 94.4842L72.8521 107.131C72.2509 108.043 72.0457 109.161 72.2853 110.228C72.5248 111.295 73.1875 112.218 74.1213 112.786C75.0561 113.355 76.1807 113.518 77.2384 113.24L86.397 110.818L92.7812 140.913H56.8311L56.8302 140.914C55.692 140.914 54.6008 140.454 53.8063 139.639C53.0108 138.824 52.5777 137.723 52.6058 136.585C52.877 125.51 53.7087 114.455 55.0964 103.465C55.1977 102.644 55.4047 101.84 55.7093 101.071C57.7054 96.0782 61.854 92.256 66.9933 90.6739L66.9941 90.6738Z" fill="white"/>
<path d="M105.414 48.4733C100.314 56.0977 92.2639 61.2479 83.2038 62.6825C82.8096 62.7458 82.4579 62.9664 82.2283 63.2936C81.9996 63.6209 81.9128 64.0268 81.9888 64.4191C83.3574 71.5365 87.0945 77.9813 92.591 82.7057C93.7815 83.7281 95.2832 84.3203 96.8516 84.3844C98.42 84.4486 99.965 83.9821 101.236 83.06C105.584 79.9015 108.935 75.5594 110.885 70.5511C112.511 65.2319 112.605 59.5629 111.156 54.1937C110.464 51.9943 109.291 49.9773 107.72 48.2886C107.414 47.9577 106.972 47.786 106.523 47.8221C106.072 47.8583 105.665 48.0979 105.413 48.4721L105.414 48.4733Z" fill="white"/>
<path d="M126.719 84.4997C125.408 88.179 122.385 90.9869 118.62 92.0249C115.594 92.6722 112.441 92.3413 109.614 91.0811C106.788 89.82 104.436 87.6937 102.896 85.0089C107.593 81.5527 111.203 76.8274 113.302 71.3881C115.098 65.5682 115.203 59.3576 113.604 53.4804C112.801 50.8995 111.428 48.5327 109.589 46.5529C108.751 45.6507 107.546 45.1824 106.319 45.2809C105.092 45.3785 103.977 46.033 103.293 47.0555C98.5886 54.0898 91.1621 58.8412 82.8045 60.1648C81.7278 60.3365 80.7659 60.9377 80.1403 61.83C79.5147 62.7231 79.2778 63.8314 79.484 64.9017C80.9096 72.3245 84.7228 79.0776 90.3422 84.132C88.9147 87.0684 86.5444 89.4412 83.609 90.8724C80.6745 92.3034 77.3451 92.7093 74.1521 92.025C70.3895 90.9854 67.3701 88.1775 66.0602 84.5008C65.9192 84.1049 65.9535 83.6682 66.1551 83.2994C66.3558 82.9305 66.7048 82.6647 67.1134 82.5689C68.4793 82.248 69.7369 81.5718 70.7584 80.6099C71.5756 79.8379 72.033 78.7585 72.0195 77.634C71.9824 74.1688 71.5413 70.7201 70.7041 67.3572C69.9249 64.2438 69.7242 61.0128 70.1111 57.826C71.0739 49.9438 74.4377 42.548 79.748 36.6432C82.3851 33.7114 85.9135 31.7271 89.789 30.9975C93.6645 30.267 97.6719 30.832 101.196 32.603C103.438 33.7303 105.496 35.1894 107.303 36.9314C107.734 37.3472 108.253 37.6618 108.821 37.8508C113.941 39.5639 118.059 43.425 120.098 48.4234C123.016 54.2887 123.716 61.011 122.068 67.3517C121.228 70.7155 120.784 74.1661 120.745 77.634C120.734 78.7596 121.194 79.8389 122.015 80.61C123.036 81.5719 124.293 82.2481 125.659 82.569C126.067 82.6648 126.416 82.9306 126.618 83.2994C126.819 83.6683 126.853 84.1049 126.712 84.5009L126.719 84.4997Z" fill="white"/>
<path d="M125.786 90.6738C130.923 92.2577 135.068 96.0798 137.062 101.071C137.371 101.839 137.581 102.644 137.686 103.465C139.072 114.456 139.901 125.51 140.17 136.585C140.198 137.723 139.765 138.824 138.97 139.639C138.175 140.454 137.084 140.914 135.946 140.914H99.9956L106.38 110.819L115.537 113.241L115.537 113.24C116.594 113.519 117.72 113.356 118.654 112.787C119.588 112.219 120.252 111.295 120.491 110.229C120.73 109.162 120.526 108.043 119.924 107.13L111.542 94.4199C114.065 95.0283 116.693 95.0573 119.229 94.5031C121.715 93.8314 123.98 92.5097 125.788 90.6746L125.786 90.6738Z" fill="white"/>
<path d="M100.67 86.2635C101.857 88.3392 103.467 90.1437 105.393 91.5603L96.3909 101.76L87.3813 91.5603C89.4841 90.0135 91.2062 88.0057 92.4159 85.6924C94.9363 87.1298 97.9748 87.3404 100.67 86.2637V86.2635Z" fill="white"/>
<path d="M117.795 108.533C118.134 109.045 118.12 109.712 117.762 110.21C117.404 110.707 116.775 110.932 116.183 110.773L106.85 108.305C106.221 108.139 105.552 108.239 104.999 108.579C104.445 108.92 104.056 109.473 103.921 110.109L97.3879 140.914H95.3846L88.8514 110.109C88.7167 109.473 88.327 108.92 87.7738 108.579C87.2196 108.239 86.5506 108.139 85.9224 108.305L76.5893 110.773C75.9972 110.932 75.3689 110.707 75.01 110.21C74.652 109.712 74.6384 109.045 74.9765 108.533L85.2416 92.9834L94.6082 103.594L94.6073 103.595C95.0584 104.106 95.7075 104.399 96.3891 104.399C97.0707 104.399 97.7198 104.106 98.1709 103.595L107.538 92.9843L117.795 108.533Z" fill="white"/>
</svg>
