<svg width="224" height="171" viewBox="0 0 224 171" fill="none" xmlns="http://www.w3.org/2000/svg">
<rect width="224" height="171" rx="2" fill="#414141"/>
<path d="M97.355 74.654C74.2862 74.3946 77.6556 43.6796 77.6556 43.6796C78.5632 23.2028 95.7991 23.332 97.4844 23.332C99.1695 23.2027 116.406 23.0725 117.313 43.6796C117.313 43.6796 120.683 74.3948 97.6138 74.654H97.4845H97.3552H97.355ZM97.4852 128.179H110.575C108.501 117.941 111.482 106.924 119.387 99.0188C123.145 95.2609 127.552 92.5388 132.476 91.1132C132.088 90.8538 131.699 90.5952 131.31 90.3358C122.367 84.6331 112.259 79.8384 112.259 79.8384L104.224 105.11L99.5583 91.891C107.723 80.4859 99.0403 79.8386 97.3552 79.8386C95.8003 79.8386 86.987 80.4868 95.1521 91.891L90.4865 105.11L82.4516 79.8384C82.4516 79.8384 72.4721 84.7634 63.4004 90.3358C56.661 94.6126 55.3654 99.1481 55.2354 105.758V128.18L97.4852 128.179ZM122.498 139.583L122.239 139.323C113.036 128.955 113.426 113.015 123.405 103.035C133.773 92.6672 150.621 92.6672 160.859 103.035C171.227 113.404 171.227 130.251 160.859 140.49C152.176 149.173 138.827 150.599 128.718 144.638C124.701 147.618 120.424 148.137 117.443 147.748C116.406 147.619 116.277 146.193 117.184 145.805C119.777 144.379 121.461 141.657 122.498 139.583L122.498 139.583ZM134.421 133.362C135.718 134.011 137.143 134.27 138.569 134.529C139.735 134.658 139.735 134.788 139.735 135.954V137.509C139.735 138.157 140.124 138.546 140.772 138.546H143.104C143.752 138.546 144.012 138.157 144.012 137.509V135.306C144.012 134.529 144.271 134.14 145.049 134.01C146.734 133.621 148.029 132.713 149.197 131.418C152.177 127.789 151.011 122.475 146.864 120.143C145.568 119.365 144.142 118.847 142.717 118.329C141.939 117.94 141.162 117.551 140.513 117.032C139.217 115.995 139.477 114.181 141.031 113.533C141.42 113.404 141.939 113.273 142.457 113.273C144.271 113.144 145.957 113.533 147.641 114.31C148.418 114.699 148.678 114.57 149.066 113.792C149.326 112.885 149.584 111.978 149.844 111.07C149.973 110.422 149.844 110.033 149.196 109.774C148.159 109.256 146.992 108.996 145.956 108.737C144.401 108.477 144.53 108.477 144.401 107.052C144.401 104.978 144.401 104.978 142.327 104.978H141.419C140.382 104.978 140.253 105.237 140.253 106.144V107.441C140.253 108.737 140.253 108.737 138.957 109.255C135.846 110.421 134.032 112.495 133.773 115.864C133.644 118.845 135.199 120.789 137.531 122.215C139.086 123.123 140.642 123.641 142.326 124.289C142.974 124.548 143.492 124.937 144.011 125.326C145.566 126.622 145.307 128.695 143.493 129.473C142.585 129.862 141.549 129.991 140.512 129.862C138.827 129.603 137.272 129.214 135.847 128.436C134.939 128.048 134.681 128.048 134.421 129.085C134.162 129.862 133.903 130.64 133.773 131.547C133.255 132.585 133.384 132.844 134.421 133.362L134.421 133.362Z" fill="white"/>
</svg>
