<svg width="224" height="171" viewBox="0 0 224 171" fill="none" xmlns="http://www.w3.org/2000/svg">
<rect width="224" height="171" rx="2" fill="#414141"/>
<path d="M113.45 76.6944C113.1 73.2415 110.3 70.4745 106.775 70.1309C106.575 70.082 106.4 70.082 106.2 70.082H56.0001C51.8749 70.082 51 73.3883 51 77.4292V138.653C51 142.694 51.875 146 56.0001 146H105.998C110.149 146 113.498 142.694 113.498 138.653V77.2337C113.498 77.1359 113.498 77.0622 113.474 76.9636C113.498 76.8659 113.473 76.7931 113.449 76.6953L113.45 76.6944ZM58.5003 94.5714V84.7752C58.5003 82.081 60.7501 79.8772 63.5004 79.8772H98.5001C101.25 79.8772 103.5 82.0811 103.5 84.7752V94.5714C103.5 97.2656 101.25 99.4694 98.5001 99.4694H63.5004C60.7509 99.4694 58.5013 97.2656 58.5013 94.5714H58.5003ZM66.2252 135.984H63.7251C62.3504 135.984 61.225 134.906 61.225 133.535C61.225 132.188 62.3503 131.086 63.7251 131.086H66.2252C67.6 131.086 68.7254 132.187 68.7254 133.535C68.7254 134.906 67.6 135.984 66.2252 135.984ZM61.0002 121.51C61.0002 120.163 62.1256 119.061 63.5004 119.061H66.0005C67.3752 119.061 68.5007 120.162 68.5007 121.51C68.5007 122.857 67.3762 123.959 66.0005 123.959H63.4997C62.125 123.959 61.0005 122.857 61.0005 121.51H61.0002ZM66.2252 111.495H63.7251C62.3504 111.495 61.225 110.417 61.225 109.045C61.225 107.699 62.3503 106.596 63.7251 106.596H66.2252C67.6 106.596 68.7254 107.698 68.7254 109.045C68.7254 110.416 67.6 111.495 66.2252 111.495ZM83.4997 136.204H80.9995C79.6248 136.204 78.4994 135.102 78.4994 133.755C78.4994 132.408 79.6247 131.306 80.9995 131.306H83.4997C84.8744 131.306 85.9998 132.407 85.9998 133.755C85.9998 135.102 84.8745 136.204 83.4997 136.204ZM83.4997 123.959H80.9995C79.6248 123.959 78.4994 122.857 78.4994 121.51C78.4994 120.163 79.6247 119.061 80.9995 119.061H83.4997C84.8744 119.061 85.9998 120.162 85.9998 121.51C85.9998 122.857 84.8745 123.959 83.4997 123.959ZM83.7246 111.495H81.2244C79.8497 111.495 78.7243 110.417 78.7243 109.045C78.7243 107.699 79.8496 106.596 81.2244 106.596H83.7246C85.0993 106.596 86.2247 107.698 86.2247 109.045C86.2247 110.416 85.0994 111.495 83.7246 111.495ZM100.999 136.204H98.4989C97.1241 136.204 95.9987 135.102 95.9987 133.755C95.9987 132.408 97.1241 131.306 98.4989 131.306H100.999C102.374 131.306 103.499 132.407 103.499 133.755C103.499 135.102 102.375 136.204 100.999 136.204ZM101.225 123.739H98.7247C97.3499 123.739 96.2245 122.661 96.2245 121.29C96.2245 119.943 97.3499 118.841 98.7247 118.841H101.225C102.6 118.841 103.725 119.942 103.725 121.29C103.724 122.661 102.6 123.739 101.225 123.739ZM101.225 111.495H98.7247C97.3499 111.495 96.2245 110.417 96.2245 109.045C96.2245 107.699 97.3499 106.596 98.7247 106.596H101.225C102.6 106.596 103.725 107.698 103.725 109.045C103.724 110.416 102.6 111.495 101.225 111.495Z" fill="white"/>
<path d="M95.7518 38.2441H91.002C88.2516 38.2441 86.002 40.448 86.002 43.1422V67.6313H95.7518V38.2441Z" fill="white"/>
<path d="M166 38.2444H161V128.856H116.002V145.998H166C168.751 145.998 171 143.794 171 141.1V43.1413C171 40.4479 168.75 38.2441 166 38.2441L166 38.2444Z" fill="white"/>
<path d="M116.002 123.957H156.002V38.2441H151.003V44.3663C151.003 49.092 147.077 52.9374 142.253 52.9374H114.754C109.93 52.9374 106.004 49.092 106.004 44.3663L106.003 38.2441H100.753V67.6316H108.703C108.903 67.6316 109.078 67.6316 109.278 67.6804C112.853 67.9256 115.702 70.7415 115.953 74.244C115.977 74.3417 116.003 74.4145 115.977 74.5131C116.003 74.6108 116.003 74.6846 116.003 74.7823L116.002 123.957ZM126.002 57.835H146.001C147.376 57.835 148.501 58.9365 148.501 60.2841C148.501 61.6308 147.377 62.7333 146.001 62.7333H126.002C124.627 62.7333 123.502 61.6309 123.502 60.2841C123.502 58.9374 124.626 57.835 126.002 57.835ZM126.002 72.5292H146.001C147.376 72.5292 148.501 73.6307 148.501 74.9783C148.501 76.325 147.377 77.4274 146.001 77.4274H126.002C124.627 77.4274 123.502 76.3251 123.502 74.9783C123.502 73.6308 124.626 72.5292 126.002 72.5292ZM126.002 87.2224H146.001C147.376 87.2224 148.501 88.3239 148.501 89.6716C148.501 91.0182 147.377 92.1207 146.001 92.1207H126.002C124.627 92.1207 123.502 91.0183 123.502 89.6716C123.502 88.3248 124.626 87.2224 126.002 87.2224ZM126.002 101.917H146.001C147.376 101.917 148.501 103.018 148.501 104.366C148.501 105.712 147.377 106.815 146.001 106.815H126.002C124.627 106.815 123.502 105.712 123.502 104.366C123.502 103.018 124.626 101.917 126.002 101.917ZM126.002 116.611H146.001C147.376 116.611 148.501 117.712 148.501 119.06C148.501 120.407 147.377 121.509 146.001 121.509H126.002C124.627 121.509 123.502 120.407 123.502 119.06C123.502 117.712 124.626 116.611 126.002 116.611Z" fill="white"/>
<path d="M114.75 48.0411H142.249C144.324 48.0411 145.999 46.4005 145.999 44.3681L145.999 38.245V34.572C145.999 32.5396 144.325 30.899 142.25 30.899H135.575C134.549 28.0332 131.775 26 128.499 26C125.249 26 122.475 28.0324 121.424 30.8981H114.75C112.675 30.8981 111 32.5387 111 34.572V44.3672C111 46.3996 112.675 48.0411 114.75 48.0411H114.75Z" fill="white"/>
</svg>
