<svg width="41" height="27" viewBox="0 0 41 27" fill="none" xmlns="http://www.w3.org/2000/svg">
<g id="Group">
<path id="Vector" d="M8.58377 0.793945C5.57801 0.793945 3.11588 3.25603 3.11588 6.26183C3.11588 9.26763 5.57801 11.7298 8.58377 11.7298C11.5896 11.7298 14.0518 9.26763 14.0518 6.26183C14.0518 3.25608 11.5896 0.793945 8.58377 0.793945ZM31.9413 0.793945C28.9355 0.793945 26.4734 3.25608 26.4734 6.26183C26.4734 9.26763 28.9355 11.7298 31.9413 11.7298C34.9471 11.7298 37.4092 9.26763 37.4092 6.26183C37.4092 3.25603 34.9471 0.793945 31.9413 0.793945ZM8.58377 3.16572C10.3078 3.16572 11.6799 4.53783 11.6799 6.26183C11.6799 7.98583 10.3078 9.35795 8.58377 9.35795C6.85977 9.35795 5.48756 7.98588 5.48756 6.26183C5.48756 4.53783 6.85977 3.16572 8.58377 3.16572ZM31.9413 3.16572C33.6653 3.16572 35.0374 4.53783 35.0374 6.26183C35.0374 7.98588 33.6653 9.35795 31.9413 9.35795C30.2173 9.35795 28.8452 7.98583 28.8452 6.26183C28.8452 4.53783 30.2173 3.16572 31.9413 3.16572ZM20.449 3.3195C17.4432 3.3195 14.981 5.78164 14.981 8.78744C14.981 11.7932 17.4432 14.2553 20.449 14.2553C23.4548 14.2553 25.9169 11.7932 25.9169 8.78744C25.9169 5.78164 23.4548 3.3195 20.449 3.3195ZM20.449 5.69118C22.173 5.69118 23.5452 7.06344 23.5452 8.78744C23.5452 10.5114 22.173 11.8836 20.449 11.8836C18.7249 11.8836 17.3528 10.5114 17.3528 8.78744C17.3528 7.06344 18.7249 5.69118 20.449 5.69118ZM8.77028 12.8271C4.09217 12.8271 0.289063 16.6302 0.289063 21.3082V22.4858C0.289062 22.8003 0.413983 23.1019 0.63635 23.3243C0.858717 23.5467 1.16032 23.6717 1.47481 23.6717C1.63054 23.6717 1.78475 23.641 1.92863 23.5815C2.07251 23.5219 2.20324 23.4345 2.31336 23.3244C2.42348 23.2143 2.51083 23.0835 2.57043 22.9397C2.63002 22.7958 2.6607 22.6416 2.6607 22.4858V21.3082C2.6607 17.9031 5.36511 15.1988 8.77028 15.1988C10.179 15.1988 11.4587 15.6645 12.4868 16.4509C12.7366 16.642 13.052 16.726 13.3638 16.6845C13.6755 16.643 13.958 16.4793 14.1491 16.2296C14.2437 16.1059 14.3131 15.9648 14.3532 15.8143C14.3933 15.6638 14.4033 15.5069 14.3828 15.3525C14.3622 15.1981 14.3115 15.0493 14.2334 14.9145C14.1553 14.7798 14.0515 14.6617 13.9278 14.5671C12.5003 13.4751 10.7056 12.8271 8.77028 12.8271ZM32.1277 12.8271C30.2882 12.8271 28.5752 13.4124 27.1849 14.4081C27.0583 14.4988 26.9507 14.6135 26.8685 14.7458C26.7862 14.878 26.7308 15.0252 26.7054 15.1788C26.68 15.3325 26.6851 15.4896 26.7204 15.6413C26.7558 15.793 26.8206 15.9362 26.9113 16.0628C27.0945 16.3185 27.3717 16.4909 27.682 16.5422C27.9922 16.5935 28.3102 16.5195 28.5659 16.3364C29.5669 15.6195 30.7888 15.1988 32.1278 15.1988C35.533 15.1988 38.2372 17.903 38.2372 21.3082V22.4858C38.2372 22.6415 38.2679 22.7957 38.3275 22.9396C38.3871 23.0835 38.4745 23.2142 38.5846 23.3243C38.6947 23.4345 38.8255 23.5218 38.9693 23.5814C39.1132 23.641 39.2674 23.6717 39.4232 23.6717C39.5789 23.6717 39.7331 23.641 39.877 23.5814C40.0209 23.5218 40.1516 23.4344 40.2617 23.3243C40.3718 23.2142 40.4592 23.0835 40.5188 22.9396C40.5784 22.7957 40.6091 22.6415 40.6091 22.4858V21.3082C40.6091 16.6301 36.8058 12.8271 32.1277 12.8271ZM20.6354 15.3523C15.9573 15.3523 12.1542 19.1555 12.1542 23.8336V25.0112C12.1542 25.1669 12.1849 25.3211 12.2445 25.465C12.3041 25.6089 12.3914 25.7396 12.5016 25.8498C12.6117 25.9599 12.7424 26.0472 12.8863 26.1068C13.0302 26.1664 13.1844 26.1971 13.3401 26.1971C13.4958 26.1971 13.6501 26.1664 13.7939 26.1068C13.9378 26.0472 14.0685 25.9599 14.1787 25.8498C14.2888 25.7396 14.3761 25.6089 14.4357 25.465C14.4953 25.3211 14.526 25.1669 14.526 25.0112V23.8336C14.526 20.4285 17.2303 17.7241 20.6354 17.7241C24.0406 17.7241 26.745 20.4285 26.745 23.8336V25.0112C26.745 25.1669 26.7757 25.3211 26.8352 25.465C26.8948 25.6089 26.9822 25.7396 27.0923 25.8498C27.2024 25.9599 27.3332 26.0472 27.477 26.1068C27.6209 26.1664 27.7751 26.1971 27.9309 26.1971C28.2454 26.1971 28.547 26.0721 28.7693 25.8497C28.9917 25.6273 29.1166 25.3257 29.1166 25.0112V23.8336C29.1166 19.1555 25.3135 15.3523 20.6354 15.3523Z" fill="#720C20"/>
</g>
</svg>
