<svg width="16" height="24" viewBox="0 0 16 24" fill="none" xmlns="http://www.w3.org/2000/svg">
<path d="M15.2617 22.6225C15.2617 23.3391 14.6809 23.9199 13.9643 23.9199H1.93931C1.22271 23.9199 0.641926 23.3391 0.641926 22.6225V20.9392H15.2615L15.2617 22.6225Z" fill="#149230"/>
<path d="M0.642003 8.64556C0.642003 7.64291 1.45483 6.83008 2.45748 6.83008H13.4462C14.4489 6.83008 15.2617 7.64291 15.2617 8.64556V9.61746H0.642107L0.642003 8.64556Z" fill="#149230"/>
<path d="M0.64212 10.4812H15.2617V20.0752H0.64212V10.4812ZM4.82995 16.7092H6.54617V18.4254H9.35787V16.7092H11.0741V13.8975H9.35787V12.1813H6.54617V13.8975H4.82995V16.7092Z" fill="#149230"/>
<path d="M9.16744 2.93463C8.96856 3.43787 8.49141 3.76288 7.95182 3.76288C7.41203 3.76288 6.93493 3.43784 6.73621 2.93478L6.62813 2.66137H3.1155V1.95464C3.1157 1.36362 3.59946 0.879883 4.19067 0.879883H11.7131C12.3043 0.879883 12.7881 1.36363 12.7881 1.95484V2.66157H9.27546L9.16744 2.93463Z" fill="#149230"/>
<path d="M12.7879 6.00264H3.11571V3.52563H6.06303C6.44452 4.20326 7.15748 4.62693 7.952 4.62693C8.74652 4.62693 9.45932 4.20304 9.84097 3.52563H12.7881L12.7879 6.00264Z" fill="#149230"/>
</svg>
