<svg width="25" height="26" viewBox="0 0 25 26" fill="none" xmlns="http://www.w3.org/2000/svg">
<path fill-rule="evenodd" clip-rule="evenodd" d="M12.4844 25.9949C8.55714 24.2182 1.45058 18.7948 1.29454 14.6184L0.889404 3.80291C0.889404 3.80291 6.31272 0.405518 12.4842 0.405518C18.6557 0.405518 24.1101 3.80291 24.1101 3.80291L23.6737 14.6184C23.5179 18.795 16.4424 24.2186 12.4838 25.9949H12.4844ZM6.65563 10.1611H10.8946V5.89097H14.105V10.1611H18.344V13.3403H14.105V17.6104H10.8946V13.3403H6.65563V10.1611ZM2.79067 4.79999L3.16468 14.5557C3.28935 17.7974 9.52331 22.348 12.4844 23.9376C15.4454 22.348 21.7102 17.7973 21.8351 14.5557L22.2092 4.8311C19.404 3.33507 15.6016 2.24414 12.4845 2.24414C10.0534 2.24414 7.59109 2.83634 5.34662 3.67794C4.50503 4.02083 3.60125 4.39484 2.79077 4.79999H2.79067ZM12.4842 24.8102C15.8505 23.1582 22.4893 18.2338 22.6142 14.5868L23.0194 4.39456C20.0271 2.64919 15.8193 1.46472 12.4844 1.46472C9.95963 1.46472 7.40378 2.05693 5.06596 2.96075C4.19325 3.27252 2.88414 3.80235 1.98032 4.36344L2.35433 14.5868C2.51012 18.2336 9.11792 23.1584 12.4844 24.8102H12.4842Z" fill="#327A4F"/>
</svg>
