<svg width="23" height="18" viewBox="0 0 23 18" fill="none" xmlns="http://www.w3.org/2000/svg">
<path id="Vector" fill-rule="evenodd" clip-rule="evenodd" d="M9.64611 0.746142C9.09484 0.342487 8.34723 0.345388 7.79899 0.753313L1.23087 5.64105C0.884028 5.89918 0.810673 6.39147 1.06705 6.74073C1.32341 7.08991 1.81241 7.16374 2.15926 6.90569L2.67126 6.52466V13.6233C2.67126 14.4918 3.37056 15.1958 4.23318 15.1958H8.13793V15.9821C8.13793 16.8506 8.83728 17.5546 9.69984 17.5546H18.6808C19.5435 17.5546 20.2428 16.8506 20.2428 15.9821V8.88347L20.7548 9.2645C21.1017 9.52255 21.5906 9.44872 21.847 9.09954C22.1034 8.75028 22.0301 8.258 21.6832 7.99986L15.1187 3.1149C14.567 2.70432 13.8138 2.70432 13.262 3.1149L13.0731 3.25547L9.64611 0.746142ZM11.756 4.23552L8.7274 2.01791L4.23318 5.36232V13.6233H8.13793V8.88347L7.62593 9.2645C7.27911 9.52255 6.79008 9.44872 6.53377 9.09954C6.27737 8.75028 6.35073 8.258 6.69761 7.99986L11.756 4.23552ZM9.69984 15.9821V7.72113L14.1903 4.37948L18.6808 7.72113V15.9821H9.69984Z" fill="#1A1A1A" stroke="#1A1A1A" stroke-width="0.2"/>
</svg>
