<svg width="26" height="22" viewBox="0 0 26 22" fill="none" xmlns="http://www.w3.org/2000/svg">
<path fill-rule="evenodd" clip-rule="evenodd" d="M10.7906 0.746483C10.1276 0.26103 9.2285 0.264519 8.56917 0.755107L0.670074 6.63331C0.252942 6.94375 0.164722 7.53579 0.473046 7.95583C0.781361 8.37577 1.36946 8.46456 1.78659 8.15422L2.40235 7.69598V16.2331C2.40235 17.2776 3.24334 18.1243 4.28077 18.1243H8.97679V19.0699C8.97679 20.1144 9.81785 20.9611 10.8552 20.9611H21.6561C22.6936 20.9611 23.5346 20.1144 23.5346 19.0699V10.5328L24.1504 10.991C24.5675 11.3014 25.1556 11.2126 25.4639 10.7926C25.7722 10.3726 25.6841 9.78056 25.2669 9.47011L17.3722 3.59525C16.7087 3.10147 15.8028 3.10147 15.1392 3.59525L14.912 3.76431L10.7906 0.746483ZM13.3281 4.94295L9.68571 2.27597L4.28077 6.29809V16.2331H8.97679V10.5328L8.36104 10.991C7.94394 11.3014 7.3558 11.2126 7.04756 10.7926C6.7392 10.3726 6.82742 9.78056 7.2446 9.47011L13.3281 4.94295ZM10.8552 19.0699V9.1349L16.2557 5.11609L21.6561 9.1349V19.0699H10.8552Z" fill="white" stroke="white" stroke-width="0.528309"/>
</svg>
