<svg width="46" height="46" viewBox="0 0 46 46" fill="none" xmlns="http://www.w3.org/2000/svg">
<circle cx="23" cy="23" r="23" fill="white"/>
<circle cx="23" cy="23" r="23" stroke="white"/>
<g clip-path="url(#clip0_1_19)">
<path d="M35.7881 20.7752L23.5035 9.93335L11.2128 20.7797V36.2782C11.2128 36.6789 11.5373 37 11.9387 37H19.6201V30.2042C19.6201 29.8042 19.9423 29.4809 20.3444 29.4809H26.6557C27.0579 29.4809 27.38 29.8042 27.38 30.2042V37H35.0638C35.4651 37 35.7881 36.6789 35.7881 36.2782V20.7752V20.7752Z" fill="#1E8C35"/>
<path d="M23.4327 4L6.00024 19.3834L7.83651 21.4474L23.5035 7.62122L39.1674 21.4474L41.0001 19.3834L23.5714 4L23.5035 4.0782L23.4326 4H23.4327Z" fill="#1E8C35"/>
<path d="M11.2128 6.21439H15.6319L15.5934 8.82278L11.2128 12.7666V6.21439Z" fill="#1E8C35"/>
</g>
<defs>
<clipPath id="clip0_1_19">
<rect width="35" height="33" fill="white" transform="translate(6 4)"/>
</clipPath>
</defs>
</svg>
