<svg width="26" height="22" viewBox="0 0 26 22" fill="none" xmlns="http://www.w3.org/2000/svg">
<path fill-rule="evenodd" clip-rule="evenodd" d="M10.7906 0.746575C10.1276 0.261122 9.2285 0.264611 8.56917 0.755199L0.670074 6.6334C0.252942 6.94384 0.164722 7.53588 0.473046 7.95592C0.781361 8.37586 1.36946 8.46465 1.78659 8.15431L2.40235 7.69607V16.2332C2.40235 17.2777 3.24334 18.1244 4.28077 18.1244H8.97679V19.07C8.97679 20.1145 9.81786 20.9612 10.8552 20.9612H21.6561C22.6936 20.9612 23.5346 20.1145 23.5346 19.07V10.5329L24.1504 10.9911C24.5675 11.3015 25.1556 11.2127 25.4639 10.7927C25.7722 10.3727 25.6841 9.78065 25.2669 9.47021L17.3722 3.59534C16.7087 3.10156 15.8028 3.10156 15.1392 3.59534L14.912 3.7644L10.7906 0.746575ZM13.3281 4.94304L9.68571 2.27606L4.28077 6.29818V16.2332H8.97679V10.5329L8.36104 10.9911C7.94394 11.3015 7.35581 11.2127 7.04756 10.7927C6.7392 10.3727 6.82742 9.78065 7.2446 9.47021L13.3281 4.94304ZM10.8552 19.07V9.13499L16.2557 5.11618L21.6561 9.13499V19.07H10.8552Z" fill="#720C20" stroke="#720C20" stroke-width="0.528309"/>
</svg>
