<svg width="46" height="46" viewBox="0 0 46 46" fill="none" xmlns="http://www.w3.org/2000/svg">
<circle cx="23" cy="23" r="23" fill="#C4C4C4" fill-opacity="0.5"/>
<circle cx="23" cy="23" r="23" stroke="#C4C4C4"/>
<g clip-path="url(#clip0_299_135)">
<path d="M35.7876 20.7752L23.503 9.93335L11.2124 20.7797V36.2782C11.2124 36.6789 11.5368 37 11.9382 37H19.6197V30.2042C19.6197 29.8042 19.9418 29.4809 20.344 29.4809H26.6553C27.0574 29.4809 27.3796 29.8042 27.3796 30.2042V37H35.0633C35.4647 37 35.7876 36.6789 35.7876 36.2782V20.7752Z" fill="#1E8C35"/>
<path d="M23.4325 4L6 19.3834L7.83628 21.4474L23.5033 7.62122L39.1672 21.4474L40.9999 19.3834L23.5712 4L23.5033 4.0782L23.4323 4H23.4325Z" fill="#1E8C35"/>
<path d="M11.2124 6.21436H15.6314L15.593 8.82275L11.2124 12.7665V6.21436Z" fill="#1E8C35"/>
</g>
<defs>
<clipPath id="clip0_299_135">
<rect width="35" height="33" fill="white" transform="translate(6 4)"/>
</clipPath>
</defs>
</svg>
