<svg width="33" height="33" viewBox="0 0 33 33" fill="none" xmlns="http://www.w3.org/2000/svg">
<g id="Group">
<g id="Group_2">
<g id="Group_3">
<path id="Vector" d="M16.4561 32.8651C7.56269 32.8651 0.328125 25.6306 0.328125 16.7371C0.328125 7.84369 7.56269 0.609131 16.4561 0.609131C25.3496 0.609131 32.5841 7.84369 32.5841 16.7371C32.5841 25.6306 25.3496 32.8651 16.4561 32.8651ZM16.4561 3.37393C9.03724 3.37393 3.04684 9.36433 3.04684 16.7371C3.04684 24.1099 9.03724 30.1464 16.4561 30.1464C23.875 30.1464 29.8654 24.156 29.8654 16.7371C29.8193 9.36433 23.8289 3.37393 16.4561 3.37393Z" fill="#FFFFFF"/>
<path id="Vector_2" d="M16.0292 21.2069C15.292 21.2069 14.6468 20.6078 14.6468 19.8245C14.6468 17.7048 16.0292 15.8616 18.0107 15.2626C18.8862 14.9861 19.4852 14.2027 19.4392 13.2811C19.4392 11.6222 18.0568 10.2398 16.3979 10.2398C14.739 10.2398 13.3566 11.6222 13.3566 13.2811C13.3566 14.0184 12.7576 14.6635 11.9742 14.6635C11.2369 14.6635 10.5918 14.0645 10.5918 13.2811C10.684 10.1016 13.2644 7.52112 16.444 7.52112C19.6235 7.52112 22.204 10.1016 22.204 13.2811C22.204 15.4008 20.8216 17.244 18.8401 17.843C17.9646 18.1195 17.3656 18.9029 17.4116 19.8245C17.4116 20.5618 16.7665 21.2069 16.0292 21.2069Z" fill="#FFFFFF"/>
<path id="Vector_3" d="M16.0456 25.7229C16.9618 25.7229 17.7045 24.9802 17.7045 24.064C17.7045 23.1479 16.9618 22.4052 16.0456 22.4052C15.1294 22.4052 14.3867 23.1479 14.3867 24.064C14.3867 24.9802 15.1294 25.7229 16.0456 25.7229Z" fill="#FFFFFF"/>
</g>
</g>
</g>
</svg>
