<svg width="40" height="26" viewBox="0 0 40 26" fill="none" xmlns="http://www.w3.org/2000/svg">
<g id="Group">
<path id="Vector" d="M8.22887 0.470215C5.24697 0.470215 2.80438 2.91276 2.80438 5.8947C2.80438 8.87665 5.24697 11.3193 8.22887 11.3193C11.2108 11.3193 13.6535 8.87665 13.6535 5.8947C13.6535 2.91281 11.2108 0.470215 8.22887 0.470215ZM31.4011 0.470215C28.4191 0.470215 25.9765 2.91281 25.9765 5.8947C25.9765 8.87665 28.4191 11.3193 31.4011 11.3193C34.383 11.3193 36.8256 8.87665 36.8256 5.8947C36.8256 2.91276 34.383 0.470215 31.4011 0.470215ZM8.22887 2.82317C9.93924 2.82317 11.3005 4.18439 11.3005 5.8947C11.3005 7.60502 9.93924 8.96625 8.22887 8.96625C6.51856 8.96625 5.15724 7.60507 5.15724 5.8947C5.15724 4.18439 6.51856 2.82317 8.22887 2.82317ZM31.4011 2.82317C33.1114 2.82317 34.4725 4.18439 34.4725 5.8947C34.4725 7.60507 33.1114 8.96625 31.4011 8.96625C29.6907 8.96625 28.3295 7.60502 28.3295 5.8947C28.3295 4.18439 29.6907 2.82317 31.4011 2.82317ZM19.9999 2.97572C17.018 2.97572 14.5754 5.41832 14.5754 8.40027C14.5754 11.3822 17.018 13.8248 19.9999 13.8248C22.9819 13.8248 25.4244 11.3822 25.4244 8.40027C25.4244 5.41832 22.9819 2.97572 19.9999 2.97572ZM19.9999 5.32859C21.7102 5.32859 23.0716 6.68995 23.0716 8.40027C23.0716 10.1106 21.7102 11.4718 19.9999 11.4718C18.2896 11.4718 16.9283 10.1106 16.9283 8.40027C16.9283 6.68995 18.2896 5.32859 19.9999 5.32859ZM8.41391 12.4078C3.77292 12.4078 0 16.1808 0 20.8217V21.9899C-9.21802e-07 22.3019 0.123929 22.6012 0.344531 22.8218C0.565133 23.0424 0.864339 23.1664 1.17634 23.1664C1.33083 23.1664 1.48382 23.136 1.62655 23.0769C1.76929 23.0177 1.89899 22.9311 2.00823 22.8218C2.11748 22.7126 2.20414 22.5829 2.26326 22.4402C2.32238 22.2974 2.35281 22.1444 2.35281 21.9899V20.8217C2.35281 17.4435 5.03576 14.7608 8.41391 14.7608C9.81144 14.7608 11.081 15.2228 12.1009 16.0029C12.3487 16.1925 12.6617 16.2758 12.9709 16.2346C13.2802 16.1935 13.5605 16.0311 13.75 15.7833C13.8439 15.6606 13.9127 15.5206 13.9525 15.3713C13.9923 15.222 14.0022 15.0664 13.9819 14.9132C13.9615 14.7601 13.9111 14.6124 13.8337 14.4787C13.7562 14.345 13.6532 14.2279 13.5305 14.134C12.1143 13.0508 10.3339 12.4078 8.41391 12.4078ZM31.586 12.4078C29.7611 12.4078 28.0616 12.9885 26.6824 13.9763C26.5567 14.0663 26.4501 14.1801 26.3685 14.3113C26.2868 14.4425 26.2319 14.5885 26.2067 14.7409C26.1815 14.8934 26.1865 15.0493 26.2216 15.1997C26.2567 15.3502 26.321 15.4923 26.411 15.6179C26.5927 15.8716 26.8677 16.0426 27.1755 16.0935C27.4833 16.1444 27.7987 16.071 28.0524 15.8893C29.0455 15.1781 30.2577 14.7607 31.5861 14.7607C34.9642 14.7607 37.647 17.4435 37.647 20.8216V21.9899C37.647 22.1444 37.6774 22.2974 37.7366 22.4401C37.7957 22.5829 37.8823 22.7125 37.9916 22.8218C38.1008 22.931 38.2305 23.0177 38.3733 23.0768C38.516 23.1359 38.669 23.1664 38.8235 23.1664C38.978 23.1664 39.131 23.1359 39.2737 23.0768C39.4165 23.0177 39.5462 22.931 39.6554 22.8218C39.7647 22.7125 39.8513 22.5828 39.9104 22.4401C39.9696 22.2974 40 22.1444 40 21.9899V20.8216C40 16.1807 36.227 12.4078 31.586 12.4078ZM20.1849 14.913C15.5439 14.913 11.771 18.6861 11.771 23.327V24.4953C11.771 24.6498 11.8014 24.8028 11.8605 24.9455C11.9197 25.0882 12.0063 25.2179 12.1156 25.3272C12.2248 25.4364 12.3545 25.5231 12.4973 25.5822C12.64 25.6413 12.793 25.6718 12.9475 25.6717C13.102 25.6718 13.255 25.6413 13.3977 25.5822C13.5404 25.5231 13.6701 25.4364 13.7794 25.3272C13.8886 25.2179 13.9753 25.0882 14.0344 24.9455C14.0935 24.8028 14.124 24.6498 14.124 24.4953V23.327C14.124 19.9489 16.8068 17.266 20.1849 17.266C23.563 17.266 26.246 19.9489 26.246 23.327V24.4953C26.246 24.6498 26.2764 24.8028 26.3355 24.9455C26.3946 25.0882 26.4813 25.2179 26.5905 25.3272C26.6998 25.4364 26.8295 25.5231 26.9722 25.5822C27.1149 25.6413 27.2679 25.6717 27.4224 25.6717C27.7344 25.6717 28.0336 25.5478 28.2542 25.3271C28.4748 25.1065 28.5988 24.8073 28.5988 24.4953V23.327C28.5988 18.6861 24.8258 14.913 20.1849 14.913Z" fill="white"/>
</g>
</svg>
