<svg width="26" height="26" viewBox="0 0 26 26" fill="none" xmlns="http://www.w3.org/2000/svg">
<path d="M13.8125 17.875V11.375H10.5625V13H12.1875V17.875H9.75V19.5H16.25V17.875H13.8125ZM13 6.5C12.759 6.5 12.5233 6.57148 12.3229 6.7054C12.1225 6.83931 11.9663 7.02966 11.874 7.25235C11.7818 7.47505 11.7576 7.7201 11.8047 7.95652C11.8517 8.19293 11.9678 8.41009 12.1382 8.58054C12.3087 8.75098 12.5258 8.86706 12.7622 8.91408C12.9986 8.96111 13.2437 8.93697 13.4664 8.84473C13.6891 8.75248 13.8794 8.59627 14.0134 8.39585C14.1473 8.19543 14.2188 7.9598 14.2188 7.71875C14.2188 7.39552 14.0903 7.08552 13.8618 6.85696C13.6332 6.6284 13.3232 6.5 13 6.5Z" fill="#3B88C3"/>
<path d="M21.125 22.75H4.875C4.44416 22.7496 4.03108 22.5782 3.72643 22.2736C3.42177 21.9689 3.25043 21.5558 3.25 21.125V4.875C3.25043 4.44416 3.42177 4.03108 3.72643 3.72643C4.03108 3.42177 4.44416 3.25043 4.875 3.25H21.125C21.5558 3.25043 21.9689 3.42177 22.2736 3.72643C22.5782 4.03108 22.7496 4.44416 22.75 4.875V21.125C22.7496 21.5558 22.5782 21.9689 22.2736 22.2736C21.9689 22.5782 21.5558 22.7496 21.125 22.75ZM4.875 4.875V21.125H21.125V4.875H4.875Z" fill="#3B88C3"/>
</svg>
