<svg width="46" height="46" viewBox="0 0 46 46" fill="none" xmlns="http://www.w3.org/2000/svg">
<circle cx="23" cy="23" r="23" fill="white"/>
<path d="M22.7257 5.12617C22.5737 5.21875 22.534 5.31794 22.3654 6.00894C22.1802 6.78591 22.081 7.11984 21.9322 7.45708C21.5917 8.23074 21.6082 8.91844 21.9785 9.64912C22.0909 9.87064 22.124 9.96322 22.0976 9.98967C22.0777 10.0095 22.0678 10.0756 22.0777 10.1351C22.0909 10.2079 22.0645 10.3104 21.9918 10.4757C21.9322 10.6079 21.8397 10.8989 21.7835 11.1237L21.6777 11.5337L21.4132 11.5568C20.451 11.6362 19.4658 11.8643 18.4574 12.2412C17.8689 12.4594 17.5217 12.6148 16.8935 12.9322C16.2389 13.2662 15.8752 13.5042 14.9395 14.2084C13.8022 15.0681 13.2798 15.4053 12.6979 15.6467C12.2714 15.8285 12.278 15.8252 12.2515 15.6996C12.1953 15.4516 12.0135 15.2168 11.7721 15.0912C11.6895 15.0482 11.587 15.0284 11.4085 15.0284C11.1274 15.0284 10.9687 15.0945 10.7935 15.283C10.615 15.4714 10.5654 15.5971 10.5654 15.8715C10.5654 16.1624 10.6348 16.3211 10.8431 16.5096L10.9753 16.6286L10.8232 16.9361C10.6414 17.3097 9.25939 20.163 8.99489 20.7151C8.88909 20.9334 8.50887 21.7202 8.14518 22.4675C7.7848 23.2114 7.09379 24.6364 6.61439 25.6315L5.73823 27.4434H5.62913H5.52002L5.65888 27.6483C5.86718 27.9624 6.51189 28.584 6.87889 28.8287C7.72529 29.3874 8.81635 29.7743 10.0529 29.9462C10.6414 30.0288 12.1457 30.0255 12.7475 29.9462C14.3642 29.7247 15.6735 29.1626 16.5695 28.3129C16.8439 28.0484 17.2605 27.5459 17.2605 27.4731C17.2605 27.4566 17.2208 27.4434 17.1679 27.4434C17.0787 27.4434 17.0357 27.3541 15.69 24.5768C14.9263 22.9998 13.7559 20.5862 13.0913 19.2108L11.8846 16.7146L12.1986 16.6617C13.2963 16.4765 14.2386 16.0401 15.6239 15.078C15.8785 14.9028 16.2488 14.6482 16.4472 14.5159C17.4556 13.8414 18.8773 13.2695 20.2262 12.9984C20.6362 12.9157 21.2809 12.8297 21.4925 12.8297C21.5388 12.8297 21.552 12.9091 21.5851 13.3984C21.6578 14.4465 21.8562 15.3822 22.21 16.3311C22.3092 16.5956 22.3191 16.6518 22.286 16.7146C22.2397 16.8005 22.2629 16.8634 22.3422 16.8634C22.3852 16.8634 22.3885 16.9295 22.3687 17.4155C22.3554 17.723 22.3389 17.9941 22.3356 18.0205C22.3323 18.047 22.3158 18.3148 22.2992 18.6157C22.286 18.9165 22.2728 19.1678 22.2695 19.1777C22.2662 19.1877 22.253 19.4555 22.2364 19.7729C22.2199 20.0903 22.2067 20.3581 22.2034 20.368C22.2001 20.3779 22.1868 20.6457 22.1703 20.9631C22.1538 21.2805 22.1405 21.5483 22.1372 21.5582C22.1339 21.5682 22.1207 21.8492 22.1075 22.1864C22.0909 22.5237 22.0744 22.8212 22.0711 22.8477C22.0678 22.8741 22.0513 23.1717 22.0414 23.5089C22.0281 23.8462 22.0116 24.1735 22.005 24.2363C21.9719 24.5272 21.9157 26.8185 21.9289 27.278C21.9422 27.6682 21.962 27.8401 22.0149 27.9988C22.0943 28.2402 22.081 28.3063 21.9322 28.4848C21.7173 28.7361 21.6711 29.1395 21.8165 29.4701C21.876 29.6056 21.8793 29.6222 21.8298 29.6718C21.7835 29.7181 21.7835 29.728 21.8364 29.7842C21.8893 29.8437 21.8827 29.8966 21.7041 30.786C21.4826 31.9002 21.4628 32.1812 21.5388 33.0937C21.5686 33.4442 21.5917 33.8277 21.5917 33.9434V34.155H20.494C19.4063 34.155 19.3897 34.155 19.2244 34.2344C19.0062 34.3369 18.8442 34.4824 18.745 34.6675L18.6657 34.8163H18.2425C17.6308 34.8163 17.3762 34.9188 17.0985 35.2825C17.0059 35.4048 16.9596 35.4346 16.8109 35.4676C16.5497 35.5271 16.3877 35.623 16.2455 35.7983C15.981 36.1256 15.9347 36.1619 15.6206 36.2545C15.4586 36.3041 15.2735 36.3735 15.2073 36.4066C15.0652 36.4793 14.9131 36.648 14.9131 36.7372C14.9131 36.8 15.042 36.8 22.9142 36.8C30.7864 36.8 30.9153 36.8 30.9153 36.7372C30.9153 36.5653 30.6442 36.3835 30.2045 36.2545C29.9069 36.1686 29.8441 36.1256 29.6457 35.8776C29.444 35.623 29.2291 35.4941 28.9613 35.4577C28.8291 35.4412 28.7993 35.4213 28.7663 35.3453C28.7134 35.213 28.5117 35.0312 28.3034 34.9254C28.1315 34.8394 28.0918 34.8328 27.6322 34.8229L27.1429 34.8097L27.1098 34.7237C27.0503 34.5716 26.8619 34.37 26.68 34.2708L26.5015 34.1716L25.3707 34.1617L24.2367 34.1517V33.9071C24.2367 33.7748 24.2598 33.3847 24.2896 33.0408C24.359 32.2077 24.3425 31.9101 24.1607 30.9976C23.9358 29.8668 23.9358 29.8635 23.9821 29.7875C24.0119 29.7412 24.0119 29.7081 23.9854 29.6685C23.959 29.6255 23.9656 29.5792 24.0086 29.4734C24.1574 29.1428 24.1111 28.7361 23.8962 28.4848C23.7474 28.3063 23.7342 28.2402 23.8135 27.9988C23.9094 27.7046 23.9226 27.159 23.8763 25.6811C23.8532 25.0033 23.83 24.3917 23.8234 24.319C23.8168 24.2462 23.8003 23.9255 23.7904 23.6081C23.7804 23.2907 23.7639 22.9766 23.7573 22.9138C23.7507 22.851 23.7342 22.5534 23.7242 22.2525C23.711 21.9517 23.6978 21.6706 23.6912 21.6244C23.6846 21.5781 23.6713 21.3103 23.6581 21.0292C23.6449 20.7482 23.6317 20.4804 23.625 20.4341C23.6184 20.3878 23.6052 20.12 23.592 19.839C23.5788 19.558 23.5655 19.2901 23.5589 19.2439C23.5523 19.1976 23.5358 18.9298 23.5259 18.6487C23.5126 18.3677 23.4961 18.1131 23.4928 18.0867C23.4895 18.0602 23.473 17.7792 23.4597 17.4684L23.4366 16.8964L23.5126 16.8336C23.5854 16.7741 23.5887 16.7675 23.5358 16.708C23.4994 16.6683 23.4895 16.6319 23.5093 16.5956C23.5721 16.4831 23.7771 15.8781 23.8895 15.4813C24.0978 14.7242 24.2069 14.0398 24.2532 13.2166C24.2731 12.876 24.283 12.8297 24.3359 12.8297C24.4781 12.8297 25.1029 12.9025 25.3608 12.9488C26.3758 13.1306 27.6058 13.5472 28.5481 14.0299C28.7663 14.139 29.1895 14.3969 29.4903 14.5986C29.7912 14.8003 30.2706 15.1243 30.5516 15.3127C31.7584 16.1261 32.7503 16.5526 33.7521 16.6815C33.8447 16.6947 33.924 16.7146 33.924 16.7278C33.924 16.741 33.0446 18.5661 31.9733 20.7813C30.8988 22.9998 29.735 25.4067 29.3845 26.1275L28.7497 27.4434H28.6406H28.5315L28.6704 27.6517C28.7497 27.7641 28.9779 28.022 29.1795 28.2236C30.0954 29.1428 31.3881 29.7114 33.0809 29.9462C33.6794 30.0255 35.1837 30.0255 35.7755 29.9429C37.4551 29.7114 38.7478 29.1362 39.6604 28.2236C39.862 28.022 40.0902 27.7641 40.1695 27.6517L40.3084 27.4434H40.1993H40.0869L39.3893 25.9952C39.0024 25.2017 37.8254 22.765 36.7707 20.5862L34.8498 16.622L34.9985 16.4931C35.3523 16.1823 35.3688 15.6367 35.0349 15.283C34.8597 15.0945 34.701 15.0284 34.42 15.0284C34.2315 15.0284 34.1422 15.0449 34.0397 15.1011C33.8083 15.2235 33.6298 15.4549 33.5769 15.6996C33.5504 15.8252 33.5636 15.8285 33.1008 15.6367C32.6015 15.4284 32.0097 15.0515 30.9748 14.2779C29.8937 13.4678 29.6292 13.2926 28.915 12.9256C27.3942 12.1387 25.8898 11.6825 24.3954 11.5535L24.1408 11.5337L24.0879 11.2956C24.0185 10.9848 23.8862 10.5683 23.8003 10.4063C23.7573 10.3203 23.7408 10.2343 23.7474 10.155C23.7573 10.0889 23.7474 10.0095 23.7275 9.97644C23.6978 9.93015 23.7077 9.89048 23.7672 9.7946C23.9028 9.57639 24.0119 9.31519 24.078 9.04408C24.1342 8.82917 24.1441 8.71345 24.1309 8.41589C24.1111 8.03237 24.0747 7.89681 23.83 7.3083C23.7639 7.1529 23.6184 6.65366 23.5093 6.2007C23.3969 5.74444 23.2812 5.33116 23.2547 5.28157C23.1985 5.16915 23.0299 5.06005 22.9142 5.06005C22.8679 5.06005 22.7853 5.0898 22.7257 5.12617ZM11.5341 15.7458C11.5572 15.769 11.5738 15.8252 11.5738 15.8715C11.5738 15.9178 11.5572 15.974 11.5341 15.9971C11.5109 16.0203 11.4547 16.0368 11.4085 16.0368C11.3622 16.0368 11.306 16.0203 11.2828 15.9971C11.2597 15.974 11.2431 15.9178 11.2431 15.8715C11.2431 15.8252 11.2597 15.769 11.2828 15.7458C11.306 15.7227 11.3622 15.7062 11.4085 15.7062C11.4547 15.7062 11.5109 15.7227 11.5341 15.7458ZM34.5456 15.7458C34.5687 15.769 34.5853 15.8252 34.5853 15.8715C34.5853 15.9178 34.5687 15.974 34.5456 15.9971C34.5224 16.0203 34.4662 16.0368 34.42 16.0368C34.3737 16.0368 34.3175 16.0203 34.2943 15.9971C34.2712 15.974 34.2546 15.9178 34.2546 15.8715C34.2546 15.8252 34.2712 15.769 34.2943 15.7458C34.3175 15.7227 34.3737 15.7062 34.42 15.7062C34.4662 15.7062 34.5224 15.7227 34.5456 15.7458ZM11.2564 16.7179C11.306 16.7377 11.3093 17.2403 11.3093 22.0905V27.4434H8.65104H5.98951L6.23086 26.9375C6.36642 26.6631 6.74003 25.8828 7.06734 25.2116C7.39466 24.5372 8.45266 22.3484 9.4247 20.3415C10.3934 18.3379 11.1902 16.698 11.1969 16.698C11.2002 16.698 11.2266 16.708 11.2564 16.7179ZM35.1209 17.6965C35.878 19.2703 39.7331 27.2251 39.7893 27.3409L39.8455 27.4434H37.1807H34.5191V22.0938C34.5191 19.1513 34.5291 16.7311 34.5423 16.7212C34.5522 16.708 34.582 16.698 34.6018 16.698C34.6216 16.698 34.8564 17.1477 35.1209 17.6965ZM12.1689 17.8222C12.4565 18.414 13.4749 20.5168 14.4337 22.5005C15.3925 24.481 16.3248 26.4052 16.5034 26.7722L16.8274 27.4434H14.1659H11.5076V22.0839V16.7278L11.5804 16.7377C11.6399 16.7443 11.7457 16.9427 12.1689 17.8222ZM34.2976 22.0773L34.2877 27.4268L31.646 27.4367L29.001 27.4434L29.2258 26.9739C29.3515 26.7127 29.5862 26.2267 29.7482 25.8894C29.9135 25.5522 30.9418 23.4263 32.0395 21.1615C34.4067 16.2715 34.1753 16.7311 34.248 16.7311C34.3009 16.7311 34.3042 17.0254 34.2976 22.0773Z" fill="#AD9169"/>
</svg>
