<svg width="45" height="43" viewBox="0 0 45 43" fill="none" xmlns="http://www.w3.org/2000/svg">
<circle cx="22" cy="23" r="23" fill="#C4C4C4" fill-opacity="0.5"/>
<circle cx="22" cy="23" r="23" stroke="#C4C4C4"/>
<path d="M22.2997 3.94141C22.138 4.03984 22.0958 4.14531 21.9165 4.88008C21.7196 5.70625 21.6142 6.06133 21.456 6.41992C21.0938 7.24258 21.1114 7.97383 21.5052 8.75078C21.6247 8.98633 21.6599 9.08477 21.6317 9.11289C21.6106 9.13399 21.6001 9.2043 21.6106 9.26758C21.6247 9.34492 21.5966 9.45391 21.5192 9.62969C21.456 9.77031 21.3575 10.0797 21.2978 10.3188L21.1853 10.7547L20.904 10.7793C19.881 10.8637 18.8333 11.1063 17.761 11.507C17.1353 11.7391 16.7661 11.9043 16.0981 12.2418C15.4021 12.5969 15.0153 12.85 14.0204 13.5988C12.811 14.5129 12.2556 14.8715 11.6368 15.1281C11.1833 15.3215 11.1903 15.318 11.1622 15.1844C11.1024 14.9207 10.9091 14.6711 10.6524 14.5375C10.5646 14.4918 10.4556 14.4707 10.2657 14.4707C9.9669 14.4707 9.79815 14.541 9.61182 14.7414C9.42197 14.9418 9.36924 15.0754 9.36924 15.3672C9.36924 15.6766 9.44307 15.8453 9.66455 16.0457L9.80518 16.1723L9.64346 16.4992C9.4501 16.8965 7.98057 19.9305 7.69932 20.5176C7.58682 20.7496 7.18252 21.5863 6.7958 22.3809C6.4126 23.1719 5.67783 24.6871 5.16807 25.7453L4.23643 27.6719H4.12041H4.00439L4.15205 27.8898C4.37354 28.2238 5.05908 28.8848 5.44932 29.1449C6.34932 29.7391 7.50947 30.1504 8.82432 30.3332C9.4501 30.4211 11.0497 30.4176 11.6896 30.3332C13.4087 30.0977 14.8009 29.5 15.7536 28.5965C16.0454 28.3152 16.4884 27.7809 16.4884 27.7035C16.4884 27.6859 16.4462 27.6719 16.3899 27.6719C16.295 27.6719 16.2493 27.577 14.8185 24.6238C14.0063 22.9469 12.7618 20.3805 12.0552 18.918L10.772 16.2637L11.106 16.2074C12.2731 16.0105 13.2751 15.5465 14.7481 14.5234C15.0188 14.3371 15.4126 14.0664 15.6235 13.9258C16.6958 13.2086 18.2075 12.6004 19.6419 12.3121C20.0778 12.2242 20.7634 12.1328 20.9884 12.1328C21.0376 12.1328 21.0517 12.2172 21.0868 12.7375C21.1642 13.852 21.3751 14.8469 21.7513 15.8559C21.8567 16.1371 21.8673 16.1969 21.8321 16.2637C21.7829 16.3551 21.8075 16.4219 21.8919 16.4219C21.9376 16.4219 21.9411 16.4922 21.92 17.009C21.906 17.3359 21.8884 17.6242 21.8849 17.6523C21.8813 17.6805 21.8638 17.9652 21.8462 18.2852C21.8321 18.6051 21.8181 18.8723 21.8146 18.8828C21.811 18.8934 21.797 19.1781 21.7794 19.5156C21.7618 19.8531 21.7478 20.1379 21.7442 20.1484C21.7407 20.159 21.7267 20.4438 21.7091 20.7812C21.6915 21.1187 21.6774 21.4035 21.6739 21.4141C21.6704 21.4246 21.6563 21.7234 21.6423 22.082C21.6247 22.4406 21.6071 22.757 21.6036 22.7852C21.6001 22.8133 21.5825 23.1297 21.572 23.4883C21.5579 23.8469 21.5403 24.1949 21.5333 24.2617C21.4981 24.5711 21.4384 27.0074 21.4524 27.4961C21.4665 27.9109 21.4876 28.0938 21.5438 28.2625C21.6282 28.5191 21.6142 28.5895 21.456 28.7793C21.2274 29.0465 21.1782 29.4754 21.3329 29.827C21.3962 29.9711 21.3997 29.9887 21.347 30.0414C21.2978 30.0906 21.2978 30.1012 21.354 30.1609C21.4103 30.2242 21.4032 30.2805 21.2134 31.2262C20.9778 32.4109 20.9567 32.7098 21.0376 33.6801C21.0692 34.0527 21.0938 34.4605 21.0938 34.5836V34.8086H19.9267C18.77 34.8086 18.7524 34.8086 18.5767 34.893C18.3446 35.002 18.1724 35.1566 18.0669 35.3535L17.9825 35.5117H17.5325C16.8821 35.5117 16.6114 35.6207 16.3161 36.0074C16.2177 36.1375 16.1685 36.1691 16.0103 36.2043C15.7325 36.2676 15.5603 36.3695 15.4091 36.5559C15.1278 36.9039 15.0786 36.9426 14.7446 37.041C14.5724 37.0938 14.3755 37.1676 14.3052 37.2027C14.154 37.2801 13.9923 37.4594 13.9923 37.5543C13.9923 37.6211 14.1294 37.6211 22.5001 37.6211C30.8708 37.6211 31.0079 37.6211 31.0079 37.5543C31.0079 37.3715 30.7196 37.1781 30.2521 37.041C29.9356 36.9496 29.8689 36.9039 29.6579 36.6402C29.4435 36.3695 29.2149 36.2324 28.9302 36.1938C28.7896 36.1762 28.7579 36.1551 28.7228 36.0742C28.6665 35.9336 28.4521 35.7402 28.2306 35.6277C28.0478 35.5363 28.0056 35.5293 27.5169 35.5187L26.9966 35.5047L26.9614 35.4133C26.8981 35.2516 26.6978 35.0371 26.5044 34.9316L26.3146 34.8262L25.1122 34.8156L23.9063 34.8051V34.5449C23.9063 34.4043 23.931 33.9895 23.9626 33.6238C24.0364 32.7379 24.0189 32.4215 23.8255 31.4512C23.5864 30.2488 23.5864 30.2453 23.6356 30.1645C23.6673 30.1152 23.6673 30.0801 23.6392 30.0379C23.611 29.9922 23.6181 29.943 23.6638 29.8305C23.822 29.4789 23.7728 29.0465 23.5442 28.7793C23.386 28.5895 23.372 28.5191 23.4564 28.2625C23.5583 27.9496 23.5724 27.3695 23.5231 25.798C23.4985 25.0773 23.4739 24.427 23.4669 24.3496C23.4599 24.2723 23.4423 23.9313 23.4317 23.5938C23.4212 23.2563 23.4036 22.9223 23.3966 22.8555C23.3896 22.7887 23.372 22.4723 23.3614 22.1523C23.3474 21.8324 23.3333 21.5336 23.3263 21.4844C23.3192 21.4352 23.3052 21.1504 23.2911 20.8516C23.2771 20.5527 23.263 20.268 23.256 20.2188C23.2489 20.1695 23.2349 19.8848 23.2208 19.5859C23.2067 19.2871 23.1927 19.0023 23.1856 18.9531C23.1786 18.9039 23.161 18.6191 23.1505 18.3203C23.1364 18.0215 23.1188 17.7508 23.1153 17.7227C23.1118 17.6945 23.0942 17.3957 23.0802 17.0652L23.0556 16.457L23.1364 16.3902C23.2138 16.327 23.2173 16.3199 23.161 16.2566C23.1224 16.2145 23.1118 16.1758 23.1329 16.1371C23.1997 16.0176 23.4177 15.3742 23.5372 14.9523C23.7587 14.1473 23.8747 13.4195 23.9239 12.5441C23.945 12.182 23.9556 12.1328 24.0118 12.1328C24.163 12.1328 24.8274 12.2102 25.1017 12.2594C26.181 12.4527 27.4888 12.8957 28.4907 13.409C28.7228 13.525 29.1728 13.7992 29.4927 14.0137C29.8126 14.2281 30.3224 14.5727 30.6212 14.773C31.9044 15.6379 32.9591 16.0914 34.0243 16.2285C34.1228 16.2426 34.2071 16.2637 34.2071 16.2777C34.2071 16.2918 33.272 18.2324 32.1329 20.5879C30.9903 22.9469 29.7528 25.5063 29.3802 26.2727L28.7052 27.6719H28.5892H28.4731L28.6208 27.8934C28.7052 28.0129 28.9478 28.2871 29.1622 28.5016C30.136 29.4789 31.5106 30.0836 33.3106 30.3332C33.947 30.4176 35.5466 30.4176 36.1759 30.3297C37.9618 30.0836 39.3364 29.4719 40.3067 28.5016C40.5212 28.2871 40.7638 28.0129 40.8481 27.8934L40.9958 27.6719H40.8798H40.7603L40.0185 26.132C39.6071 25.2883 38.3556 22.6973 37.2341 20.3805L35.1915 16.1652L35.3497 16.0281C35.7259 15.6977 35.7435 15.1176 35.3884 14.7414C35.2021 14.541 35.0333 14.4707 34.7345 14.4707C34.5341 14.4707 34.4392 14.4883 34.3302 14.548C34.0841 14.6781 33.8942 14.9242 33.838 15.1844C33.8099 15.318 33.8239 15.3215 33.3317 15.1176C32.8009 14.8961 32.1716 14.4953 31.0712 13.6727C29.9216 12.8113 29.6403 12.625 28.881 12.2348C27.2638 11.398 25.6642 10.9129 24.0751 10.7758L23.8044 10.7547L23.7481 10.5016C23.6743 10.1711 23.5337 9.72813 23.4423 9.55586C23.3966 9.46445 23.379 9.37305 23.386 9.28867C23.3966 9.21836 23.386 9.13399 23.3649 9.09883C23.3333 9.04961 23.3438 9.00742 23.4071 8.90547C23.5513 8.67344 23.6673 8.3957 23.7376 8.10742C23.7974 7.87891 23.8079 7.75586 23.7938 7.43945C23.7728 7.03164 23.7341 6.8875 23.4739 6.26172C23.4036 6.09649 23.2489 5.56562 23.1329 5.08398C23.0134 4.59883 22.8903 4.15937 22.8622 4.10664C22.8024 3.98711 22.6231 3.87109 22.5001 3.87109C22.4509 3.87109 22.363 3.90274 22.2997 3.94141ZM10.3993 15.2336C10.4239 15.2582 10.4415 15.318 10.4415 15.3672C10.4415 15.4164 10.4239 15.4762 10.3993 15.5008C10.3747 15.5254 10.3149 15.543 10.2657 15.543C10.2165 15.543 10.1567 15.5254 10.1321 15.5008C10.1075 15.4762 10.0899 15.4164 10.0899 15.3672C10.0899 15.318 10.1075 15.2582 10.1321 15.2336C10.1567 15.209 10.2165 15.1914 10.2657 15.1914C10.3149 15.1914 10.3747 15.209 10.3993 15.2336ZM34.8681 15.2336C34.8927 15.2582 34.9103 15.318 34.9103 15.3672C34.9103 15.4164 34.8927 15.4762 34.8681 15.5008C34.8435 15.5254 34.7837 15.543 34.7345 15.543C34.6853 15.543 34.6255 15.5254 34.6009 15.5008C34.5763 15.4762 34.5587 15.4164 34.5587 15.3672C34.5587 15.318 34.5763 15.2582 34.6009 15.2336C34.6255 15.209 34.6853 15.1914 34.7345 15.1914C34.7837 15.1914 34.8435 15.209 34.8681 15.2336ZM10.104 16.2672C10.1567 16.2883 10.1603 16.8227 10.1603 21.9801V27.6719H7.33369H4.50361L4.76025 27.134C4.90439 26.8422 5.30166 26.0125 5.64971 25.2988C5.99775 24.5816 7.12275 22.2543 8.15635 20.1203C9.18643 17.9898 10.0337 16.2461 10.0407 16.2461C10.0442 16.2461 10.0724 16.2566 10.104 16.2672ZM35.4798 17.3078C36.2849 18.9813 40.3841 27.4398 40.4439 27.5629L40.5036 27.6719H37.67H34.8399V21.9836C34.8399 18.8547 34.8505 16.2812 34.8646 16.2707C34.8751 16.2566 34.9067 16.2461 34.9278 16.2461C34.9489 16.2461 35.1985 16.7242 35.4798 17.3078ZM11.0743 17.4414C11.3802 18.0707 12.463 20.3066 13.4825 22.416C14.5021 24.5219 15.4935 26.568 15.6833 26.9582L16.0278 27.6719H13.1978H10.3712V21.973V16.2777L10.4485 16.2883C10.5118 16.2953 10.6243 16.5063 11.0743 17.4414ZM34.6044 21.966L34.5939 27.6543L31.7849 27.6648L28.9724 27.6719L29.2114 27.1727C29.345 26.8949 29.5946 26.3781 29.7669 26.0195C29.9427 25.6609 31.036 23.4004 32.2032 20.9922C34.7204 15.7926 34.4743 16.2812 34.5517 16.2812C34.6079 16.2812 34.6114 16.5941 34.6044 21.966Z" fill="#AD9169"/>
</svg>
