<svg width="40" height="40" viewBox="0 0 40 40" fill="none" xmlns="http://www.w3.org/2000/svg">
<g filter="url(#filter0_d_6062_4984)">
<rect x="2.17969" y="1.08984" width="35.8203" height="35.8203" rx="7.96007" fill="white"/>
<rect x="2.67719" y="1.58735" width="34.8253" height="34.8253" rx="7.46256" stroke="#720D21" stroke-width="0.995009"/>
<g clip-path="url(#clip0_6062_4984)">
<path d="M19.2633 12.3664H15.7808C14.3877 12.3664 13.6911 12.3664 13.159 12.6375C12.6909 12.876 12.3104 13.2565 12.0719 13.7246C11.8008 14.2567 11.8008 14.9533 11.8008 16.3464V23.3115C11.8008 24.7046 11.8008 25.4012 12.0719 25.9333C12.3104 26.4013 12.6909 26.7819 13.159 27.0204C13.6911 27.2915 14.3877 27.2915 15.7808 27.2915H22.7459C24.139 27.2915 24.8356 27.2915 25.3677 27.0204C25.8358 26.7819 26.2163 26.4013 26.4548 25.9333C26.7259 25.4012 26.7259 24.7046 26.7259 23.3115V19.8289M16.7758 22.3165H18.1643C18.5699 22.3165 18.7727 22.3165 18.9636 22.2706C19.1328 22.23 19.2945 22.163 19.4429 22.0721C19.6103 21.9695 19.7537 21.8261 20.0405 21.5393L27.9697 13.6101C28.6566 12.9232 28.6566 11.8095 27.9697 11.1226C27.2828 10.4357 26.1691 10.4357 25.4821 11.1226L17.553 19.0518C17.2661 19.3386 17.1227 19.482 17.0202 19.6494C16.9293 19.7977 16.8622 19.9595 16.8216 20.1287C16.7758 20.3196 16.7758 20.5224 16.7758 20.928V22.3165Z" stroke="#720D21" stroke-width="1.65835" stroke-linecap="round" stroke-linejoin="round"/>
</g>
</g>
<defs>
<filter id="filter0_d_6062_4984" x="0.179688" y="0.0898438" width="39.8203" height="39.8203" filterUnits="userSpaceOnUse" color-interpolation-filters="sRGB">
<feFlood flood-opacity="0" result="BackgroundImageFix"/>
<feColorMatrix in="SourceAlpha" type="matrix" values="0 0 0 0 0 0 0 0 0 0 0 0 0 0 0 0 0 0 127 0" result="hardAlpha"/>
<feOffset dy="1"/>
<feGaussianBlur stdDeviation="1"/>
<feComposite in2="hardAlpha" operator="out"/>
<feColorMatrix type="matrix" values="0 0 0 0 0.0627451 0 0 0 0 0.0941176 0 0 0 0 0.156863 0 0 0 0.05 0"/>
<feBlend mode="normal" in2="BackgroundImageFix" result="effect1_dropShadow_6062_4984"/>
<feBlend mode="normal" in="SourceGraphic" in2="effect1_dropShadow_6062_4984" result="shape"/>
</filter>
<clipPath id="clip0_6062_4984">
<rect width="19.9002" height="19.9002" fill="white" transform="translate(10.1406 9.0498)"/>
</clipPath>
</defs>
</svg>
