<svg width="19" height="19" viewBox="0 0 19 19" fill="none" xmlns="http://www.w3.org/2000/svg">
<g id="Group">
<path id="Vector" d="M15.02 15.4497H12.8952V15.0247C12.8952 14.3218 12.3232 13.7498 11.6203 13.7498H9.92038V3.55054H15.8699C16.1045 3.55054 16.2949 3.36016 16.2949 3.12557C16.2949 2.89099 16.1045 2.70061 15.8699 2.70061H9.92038V1.4257C9.92038 1.19112 9.73 1.00073 9.49542 1.00073C9.26083 1.00073 9.07045 1.19112 9.07045 1.4257V2.70061H3.12089C2.88631 2.70061 2.69592 2.89099 2.69592 3.12557C2.69592 3.36016 2.88631 3.55054 3.12089 3.55054H9.07045V13.7498H7.37057C6.66768 13.7498 6.09567 14.3218 6.09567 15.0247V15.4497H3.97083C3.26793 15.4497 2.69592 16.0217 2.69592 16.7246V17.5745C2.69592 17.8091 2.88631 17.9995 3.12089 17.9995H15.8699C16.1045 17.9995 16.2949 17.8091 16.2949 17.5745V16.7246C16.2949 16.0217 15.7229 15.4497 15.02 15.4497ZM6.94561 15.0247C6.94561 14.7901 7.13599 14.5997 7.37057 14.5997H11.6203C11.8548 14.5997 12.0452 14.7901 12.0452 15.0247V15.4497H6.94561V15.0247ZM15.445 17.1495H3.54586V16.7246C3.54586 16.49 3.73625 16.2996 3.97083 16.2996H15.02C15.2546 16.2996 15.445 16.49 15.445 16.7246V17.1495Z" fill="#333333" stroke="#333333" stroke-width="0.6"/>
<path id="Vector_2" d="M6.94955 9.9248C6.94955 9.92055 6.947 9.9163 6.947 9.91205C6.94615 9.884 6.93681 9.85681 6.93001 9.82876C6.92321 9.80071 6.91981 9.77266 6.90791 9.74632C6.90621 9.74207 6.90621 9.73782 6.90451 9.73442L4.3547 4.6348C4.21021 4.34667 3.7385 4.34667 3.59401 4.6348L1.0442 9.73442C1.0425 9.73867 1.0425 9.74292 1.0408 9.74632C1.0289 9.77181 1.0255 9.79986 1.0187 9.82791C1.0119 9.85596 1.00255 9.88316 1.0017 9.9112C1.00255 9.9163 1 9.92055 1 9.9248C1 11.5652 2.3344 12.8996 3.97478 12.8996C5.61515 12.8996 6.94955 11.5652 6.94955 9.9248ZM3.97478 5.77541L5.83529 9.49643H2.11427L3.97478 5.77541ZM1.89158 10.3472H6.05712C5.86164 11.317 5.0015 12.0496 3.97478 12.0496C2.94805 12.0496 2.08792 11.317 1.89158 10.3472Z" fill="#333333" stroke="#333333" stroke-width="0.6"/>
<path id="Vector_3" d="M17.9984 9.91205C17.9975 9.88401 17.9882 9.85681 17.9814 9.82876C17.9746 9.80071 17.9712 9.77266 17.9593 9.74632C17.9576 9.74207 17.9576 9.73782 17.9559 9.73442L15.4061 4.6348C15.2616 4.34667 14.7899 4.34667 14.6454 4.6348L12.0956 9.73442C12.0939 9.73867 12.0939 9.74292 12.0922 9.74632C12.0803 9.77181 12.0769 9.79986 12.0701 9.82791C12.0633 9.85596 12.0539 9.88316 12.0531 9.9112C12.0531 9.91545 12.0505 9.9197 12.0505 9.92395C12.0505 11.5643 13.3849 12.8987 15.0253 12.8987C16.6657 12.8987 18.0001 11.5643 18.0001 9.92395C18.0009 9.92055 17.9984 9.9163 17.9984 9.91205ZM15.0262 5.77541L16.8867 9.49643H13.1657L15.0262 5.77541ZM15.0262 12.0496C13.9994 12.0496 13.1393 11.317 12.943 10.3472H17.1085C16.913 11.317 16.0529 12.0496 15.0262 12.0496Z" fill="#333333" stroke="#333333" stroke-width="0.6"/>
</g>
</svg>
