<svg width="23" height="23" viewBox="0 0 23 23" fill="none" xmlns="http://www.w3.org/2000/svg">
<path d="M18.6975 18.916H15.9655V18.3696C15.9655 17.4658 15.23 16.7304 14.3262 16.7304H12.1406V3.61646H19.7904C20.092 3.61646 20.3368 3.37167 20.3368 3.07005C20.3368 2.76843 20.092 2.52363 19.7904 2.52363H12.1406V0.884395C12.1406 0.582775 11.8958 0.337982 11.5942 0.337982C11.2925 0.337982 11.0478 0.582775 11.0478 0.884395V2.52363H3.39798C3.09636 2.52363 2.85156 2.76843 2.85156 3.07005C2.85156 3.37167 3.09636 3.61646 3.39798 3.61646H11.0478V16.7304H8.8621C7.95834 16.7304 7.22286 17.4658 7.22286 18.3696V18.916H4.4908C3.58703 18.916 2.85156 19.6515 2.85156 20.5553V21.6481C2.85156 21.9497 3.09636 22.1945 3.39798 22.1945H19.7904C20.092 22.1945 20.3368 21.9497 20.3368 21.6481V20.5553C20.3368 19.6515 19.6013 18.916 18.6975 18.916ZM8.31569 18.3696C8.31569 18.068 8.56048 17.8232 8.8621 17.8232H14.3262C14.6278 17.8232 14.8726 18.068 14.8726 18.3696V18.916H8.31569V18.3696ZM19.2439 21.1017H3.94439V20.5553C3.94439 20.2536 4.18918 20.0088 4.4908 20.0088H18.6975C18.9992 20.0088 19.2439 20.2536 19.2439 20.5553V21.1017Z" fill="#720C20" stroke="#720C20" stroke-width="0.560401"/>
<path d="M8.31384 11.8125C8.31384 11.807 8.31056 11.8016 8.31056 11.7961C8.30947 11.76 8.29745 11.7251 8.2887 11.689C8.27996 11.653 8.27559 11.6169 8.26029 11.583C8.2581 11.5775 8.2581 11.5721 8.25592 11.5677L4.97744 5.01076C4.79166 4.64029 4.18515 4.64029 3.99936 5.01076L0.720889 11.5677C0.718704 11.5732 0.718704 11.5786 0.716518 11.583C0.701219 11.6158 0.696847 11.6519 0.688105 11.6879C0.679362 11.724 0.667341 11.759 0.666248 11.795C0.667341 11.8016 0.664062 11.807 0.664062 11.8125C0.664062 13.9217 2.3798 15.6374 4.48895 15.6374C6.5981 15.6374 8.31384 13.9217 8.31384 11.8125ZM4.48895 6.47733L6.88115 11.2617H2.09676L4.48895 6.47733ZM1.81044 12.3556H7.16637C6.91502 13.6026 5.80908 14.5446 4.48895 14.5446C3.16882 14.5446 2.06288 13.6026 1.81044 12.3556Z" fill="#720C20" stroke="#720C20" stroke-width="0.560401"/>
<path d="M22.5148 11.7961C22.5137 11.76 22.5017 11.7251 22.4929 11.689C22.4842 11.653 22.4798 11.6169 22.4645 11.583C22.4623 11.5775 22.4623 11.5721 22.4601 11.5677L19.1817 5.01076C18.9959 4.64029 18.3894 4.64029 18.2036 5.01076L14.9251 11.5677C14.9229 11.5732 14.9229 11.5786 14.9207 11.583C14.9054 11.6158 14.9011 11.6519 14.8923 11.6879C14.8836 11.724 14.8716 11.759 14.8705 11.795C14.8705 11.8005 14.8672 11.8059 14.8672 11.8114C14.8672 13.9206 16.5829 15.6363 18.6921 15.6363C20.8012 15.6363 22.517 13.9206 22.517 11.8114C22.5181 11.807 22.5148 11.8016 22.5148 11.7961ZM18.6932 6.47733L21.0854 11.2617H16.301L18.6932 6.47733ZM18.6932 14.5446C17.373 14.5446 16.2671 13.6026 16.0147 12.3556H21.3706C21.1192 13.6026 20.0133 14.5446 18.6932 14.5446Z" fill="#720C20" stroke="#720C20" stroke-width="0.560401"/>
</svg>
