<svg width="20" height="20" viewBox="0 0 20 20" fill="none" xmlns="http://www.w3.org/2000/svg">
<g id="Group">
<g id="Group_2">
<path id="Vector" d="M15.8527 16.0475H13.603V15.5976C13.603 14.8534 12.9974 14.2478 12.2532 14.2478H10.4535V3.44946H16.7525C17.0009 3.44946 17.2025 3.24789 17.2025 2.99953C17.2025 2.75117 17.0009 2.5496 16.7525 2.5496H10.4535V1.19981C10.4535 0.951447 10.2519 0.749878 10.0036 0.749878C9.75521 0.749878 9.55364 0.951447 9.55364 1.19981V2.5496H3.25462C3.00626 2.5496 2.80469 2.75117 2.80469 2.99953C2.80469 3.24789 3.00626 3.44946 3.25462 3.44946H9.55364V14.2478H7.75392C7.00974 14.2478 6.40413 14.8534 6.40413 15.5976V16.0475H4.15448C3.41029 16.0475 2.80469 16.6531 2.80469 17.3973V18.2972C2.80469 18.5455 3.00626 18.7471 3.25462 18.7471H16.7525C17.0009 18.7471 17.2025 18.5455 17.2025 18.2972V17.3973C17.2025 16.6531 16.5969 16.0475 15.8527 16.0475ZM7.30399 15.5976C7.30399 15.3492 7.50556 15.1476 7.75392 15.1476H12.2532C12.5016 15.1476 12.7032 15.3492 12.7032 15.5976V16.0475H7.30399V15.5976ZM16.3026 17.8472H3.70455V17.3973C3.70455 17.1489 3.90612 16.9474 4.15448 16.9474H15.8527C16.101 16.9474 16.3026 17.1489 16.3026 17.3973V17.8472Z" fill="#1A1A1A" stroke="#1A1A1A" stroke-width="0.56831"/>
<path id="Vector_2" d="M7.29902 10.1992C7.29902 10.1947 7.29632 10.1902 7.29632 10.1857C7.29542 10.156 7.28552 10.1272 7.27833 10.0975C7.27113 10.0678 7.26753 10.0381 7.25493 10.0102C7.25313 10.0057 7.25313 10.0012 7.25133 9.99758L4.55175 4.59842C4.39877 4.29337 3.89935 4.29337 3.74637 4.59842L1.04679 9.99758C1.04499 10.0021 1.04499 10.0066 1.04319 10.0102C1.0306 10.0372 1.027 10.0669 1.0198 10.0966C1.0126 10.1263 1.0027 10.1551 1.0018 10.1848C1.0027 10.1902 1 10.1947 1 10.1992C1 11.9359 2.41278 13.3487 4.14951 13.3487C5.88624 13.3487 7.29902 11.9359 7.29902 10.1992ZM4.14951 5.80603L6.11931 9.74562H2.17972L4.14951 5.80603ZM1.94395 10.6464H6.35417C6.1472 11.6731 5.23654 12.4488 4.14951 12.4488C3.06248 12.4488 2.15182 11.6731 1.94395 10.6464Z" fill="#1A1A1A" stroke="#1A1A1A" stroke-width="0.56831"/>
<path id="Vector_3" d="M18.9964 10.1857C18.9955 10.156 18.9856 10.1272 18.9784 10.0975C18.9712 10.0678 18.9676 10.0381 18.955 10.0102C18.9532 10.0057 18.9532 10.0012 18.9515 9.99758L16.2519 4.59842C16.0989 4.29337 15.5995 4.29337 15.4465 4.59842L12.7469 9.99758C12.7451 10.0021 12.7451 10.0066 12.7433 10.0102C12.7307 10.0372 12.7271 10.0669 12.7199 10.0966C12.7127 10.1263 12.7028 10.1551 12.7019 10.1848C12.7019 10.1893 12.6992 10.1937 12.6992 10.1982C12.6992 11.935 14.112 13.3478 15.8487 13.3478C17.5855 13.3478 18.9982 11.935 18.9982 10.1982C18.9991 10.1946 18.9964 10.1902 18.9964 10.1857ZM15.8496 5.80603L17.8194 9.74562H13.8798L15.8496 5.80603ZM15.8496 12.4488C14.7626 12.4488 13.8519 11.6731 13.6441 10.6464H18.0543C17.8473 11.6731 16.9367 12.4488 15.8496 12.4488Z" fill="#1A1A1A" stroke="#1A1A1A" stroke-width="0.56831"/>
</g>
</g>
</svg>
