<svg width="23" height="23" viewBox="0 0 23 23" fill="none" xmlns="http://www.w3.org/2000/svg">
<path d="M18.6956 18.9159H15.9635V18.3695C15.9635 17.4657 15.228 16.7303 14.3243 16.7303H12.1386V3.61637H19.7884C20.09 3.61637 20.3348 3.37157 20.3348 3.06995C20.3348 2.76833 20.09 2.52354 19.7884 2.52354H12.1386V0.884303C12.1386 0.582684 11.8938 0.337891 11.5922 0.337891C11.2906 0.337891 11.0458 0.582684 11.0458 0.884303V2.52354H3.39602C3.0944 2.52354 2.84961 2.76833 2.84961 3.06995C2.84961 3.37157 3.0944 3.61637 3.39602 3.61637H11.0458V16.7303H8.86015C7.95638 16.7303 7.22091 17.4657 7.22091 18.3695V18.9159H4.48885C3.58508 18.9159 2.84961 19.6514 2.84961 20.5552V21.648C2.84961 21.9496 3.0944 22.1944 3.39602 22.1944H19.7884C20.09 22.1944 20.3348 21.9496 20.3348 21.648V20.5552C20.3348 19.6514 19.5993 18.9159 18.6956 18.9159ZM8.31374 18.3695C8.31374 18.0679 8.55853 17.8231 8.86015 17.8231H14.3243C14.6259 17.8231 14.8707 18.0679 14.8707 18.3695V18.9159H8.31374V18.3695ZM19.242 21.1016H3.94243V20.5552C3.94243 20.2535 4.18723 20.0087 4.48885 20.0087H18.6956C18.9972 20.0087 19.242 20.2535 19.242 20.5552V21.1016Z" fill="white" stroke="white" stroke-width="0.560401"/>
<path d="M8.31384 11.8125C8.31384 11.807 8.31056 11.8016 8.31056 11.7961C8.30947 11.76 8.29745 11.7251 8.2887 11.689C8.27996 11.653 8.27559 11.6169 8.26029 11.583C8.2581 11.5775 8.2581 11.5721 8.25592 11.5677L4.97744 5.01076C4.79166 4.64029 4.18515 4.64029 3.99937 5.01076L0.720889 11.5677C0.718704 11.5732 0.718704 11.5786 0.716518 11.583C0.701219 11.6158 0.696847 11.6519 0.688105 11.6879C0.679362 11.724 0.667341 11.759 0.666248 11.795C0.667341 11.8016 0.664062 11.807 0.664062 11.8125C0.664062 13.9217 2.3798 15.6374 4.48895 15.6374C6.5981 15.6374 8.31384 13.9217 8.31384 11.8125ZM4.48895 6.47733L6.88115 11.2617H2.09676L4.48895 6.47733ZM1.81044 12.3556H7.16637C6.91502 13.6026 5.80908 14.5446 4.48895 14.5446C3.16882 14.5446 2.06288 13.6026 1.81044 12.3556Z" fill="white" stroke="white" stroke-width="0.560401"/>
<path d="M22.5172 11.7961C22.5161 11.76 22.5041 11.7251 22.4954 11.689C22.4866 11.653 22.4823 11.6169 22.467 11.583C22.4648 11.5775 22.4648 11.5721 22.4626 11.5677L19.1841 5.01076C18.9983 4.64029 18.3918 4.64029 18.206 5.01076L14.9275 11.5677C14.9254 11.5732 14.9254 11.5786 14.9232 11.583C14.9079 11.6158 14.9035 11.6519 14.8948 11.6879C14.886 11.724 14.874 11.759 14.8729 11.795C14.8729 11.8005 14.8696 11.8059 14.8696 11.8114C14.8696 13.9206 16.5854 15.6363 18.6945 15.6363C20.8037 15.6363 22.5194 13.9206 22.5194 11.8114C22.5205 11.807 22.5172 11.8016 22.5172 11.7961ZM18.6956 6.47733L21.0878 11.2617H16.3034L18.6956 6.47733ZM18.6956 14.5446C17.3755 14.5446 16.2695 13.6026 16.0171 12.3556H21.373C21.1217 13.6026 20.0157 14.5446 18.6956 14.5446Z" fill="white" stroke="white" stroke-width="0.560401"/>
</svg>
