<svg width="19" height="20" viewBox="0 0 19 20" fill="none" xmlns="http://www.w3.org/2000/svg">
<path d="M13.4755 11.3936C13.4022 11.1756 13.4185 10.9425 13.4331 10.7367C13.4436 10.5875 13.458 10.383 13.4104 10.3198C13.3611 10.2542 13.162 10.2064 13.002 10.1678C12.7956 10.1181 12.5618 10.0617 12.3716 9.92796C12.1836 9.79577 12.0572 9.59984 11.9457 9.42688C11.8578 9.29063 11.7484 9.12095 11.6659 9.09516C11.5934 9.07251 11.3989 9.14766 11.2571 9.20266C11.0564 9.28048 10.8291 9.3686 10.5873 9.3686C10.3455 9.3686 10.1182 9.28047 9.91747 9.20251C9.77571 9.14751 9.58151 9.07219 9.50869 9.09501C9.42616 9.12079 9.31676 9.29048 9.22905 9.42673C9.11755 9.5997 8.99115 9.79563 8.80312 9.92781C8.6128 10.0616 8.37897 10.1178 8.17278 10.1677C8.01273 10.2062 7.81368 10.2542 7.76432 10.3197C7.71658 10.383 7.73098 10.5873 7.74166 10.7367C7.75607 10.9423 7.77257 11.1758 7.69927 11.3936C7.62839 11.6042 7.47594 11.7786 7.34146 11.9328C7.23319 12.0569 7.09839 12.2112 7.09839 12.2998C7.09839 12.3884 7.23319 12.5428 7.34146 12.6669C7.47594 12.8209 7.62839 12.9955 7.6991 13.2061C7.77241 13.424 7.75607 13.6571 7.7415 13.8629C7.73098 14.0122 7.71658 14.2167 7.76416 14.2798C7.81352 14.3455 8.01257 14.3933 8.17262 14.4319C8.37896 14.4815 8.6128 14.538 8.80296 14.6717C8.99101 14.8039 9.11739 14.9998 9.22888 15.1728C9.31676 15.309 9.42616 15.4787 9.50869 15.5045C9.58151 15.5273 9.77571 15.452 9.91747 15.397C10.1181 15.3192 10.3453 15.2308 10.5873 15.2308C10.8291 15.2308 11.0564 15.3189 11.2571 15.397C11.3989 15.452 11.5929 15.5273 11.6659 15.5045C11.7484 15.4787 11.8578 15.309 11.9455 15.1728C12.057 14.9998 12.1834 14.8039 12.3715 14.6717C12.5618 14.538 12.7956 14.4817 13.0018 14.4319C13.1619 14.3933 13.3609 14.3453 13.4103 14.2798C13.458 14.2165 13.4436 14.0122 13.4329 13.8628C13.4185 13.6572 13.402 13.4237 13.4753 13.2059C13.5462 12.9953 13.6986 12.8209 13.8331 12.6667C13.9414 12.5426 14.0762 12.3883 14.0762 12.2997C14.0762 12.2111 13.9414 12.0567 13.8331 11.9326C13.6988 11.7787 13.5462 11.6042 13.4755 11.3936V11.3936ZM9.86228 10.8998C10.0089 10.8998 10.1411 10.9852 10.1971 11.1159C10.2533 11.2467 10.2224 11.3972 10.1186 11.4973C10.0149 11.5975 9.85905 11.6273 9.72359 11.5731C9.58814 11.5191 9.49978 11.3914 9.49978 11.2498C9.49978 11.0566 9.6621 10.8998 9.86228 10.8998ZM11.3123 13.6998C11.1657 13.6998 11.0334 13.6145 10.9775 13.4837C10.9213 13.353 10.9522 13.2025 11.0559 13.1023C11.1597 13.0022 11.3155 12.9723 11.451 13.0266C11.5864 13.0806 11.6748 13.2083 11.6748 13.3498C11.6748 13.4427 11.6366 13.5317 11.5686 13.5973C11.5007 13.663 11.4084 13.6998 11.3123 13.6998ZM11.6139 11.4439L11.6134 11.4447L10.1639 13.5441V13.5439C10.1112 13.6225 10.028 13.6773 9.93317 13.6964C9.83818 13.7153 9.7393 13.6967 9.65855 13.6448C9.57796 13.593 9.52212 13.5119 9.50384 13.42C9.48539 13.3281 9.50594 13.233 9.56064 13.1558L9.56113 13.155L11.0106 11.0556V11.0558C11.0634 10.9772 11.1466 10.9224 11.2414 10.9033C11.3364 10.8844 11.4353 10.903 11.516 10.9549C11.5966 11.0067 11.6525 11.0878 11.6707 11.1797C11.6892 11.2716 11.6686 11.3667 11.6139 11.4439Z" fill="#D12558"/>
<path d="M0.832764 19.9999H2.28003L3.66706 4.59985H2.21979L0.832764 19.9999Z" fill="#D12558"/>
<path d="M16.7803 4.5999H14.5752C14.5752 2.31742 12.7863 0.399903 10.5877 0.399903C10.2192 0.399746 9.85266 0.452559 9.50019 0.556467C9.14772 0.452559 8.78119 0.399747 8.41269 0.399903C6.21407 0.399903 4.42519 2.31742 4.42519 4.5999H4.39509L3.00806 19.9999H18.1672L16.7803 4.5999ZM13.8502 4.5999H12.4002C12.4002 3.16898 11.697 1.90538 10.6307 1.16162C12.4097 1.186 13.8502 2.71866 13.8502 4.5999ZM9.50019 1.3577C10.766 1.83098 11.6752 3.10522 11.6752 4.5999H7.32519C7.32519 3.10522 8.23434 1.83098 9.50019 1.3577ZM8.36964 1.16161C7.30335 1.90537 6.60019 3.16897 6.60019 4.59989H5.15019C5.15019 2.71865 6.59066 1.18597 8.36964 1.16161ZM14.388 13.118C14.2918 13.228 14.1925 13.3419 14.1655 13.4222C14.1354 13.5114 14.1464 13.6661 14.1569 13.8155C14.1769 14.1002 14.1996 14.423 13.997 14.6918C13.7928 14.963 13.452 15.045 13.1779 15.111C13.0289 15.1469 12.8747 15.1841 12.7986 15.2375C12.7248 15.2894 12.6418 15.4181 12.5615 15.5425C12.4114 15.7755 12.2244 16.0653 11.8903 16.1702L11.8901 16.1703C11.8076 16.1961 11.7213 16.2089 11.6347 16.2086C11.4051 16.2086 11.1865 16.1237 10.9872 16.0467C10.8408 15.9898 10.6893 15.9312 10.5878 15.9312C10.4862 15.9312 10.3347 15.99 10.1885 16.0467C9.91658 16.1522 9.60845 16.2717 9.28544 16.1705C8.95126 16.0658 8.76435 15.7758 8.61417 15.5428C8.5339 15.4183 8.45104 15.2897 8.37709 15.2378C8.30103 15.1844 8.1468 15.1472 7.99776 15.1113C7.72394 15.0452 7.38312 14.963 7.17871 14.6919C6.9761 14.423 6.99876 14.1003 7.01882 13.8157C7.02934 13.6661 7.04019 13.5116 7.01025 13.4224C6.98306 13.3421 6.88386 13.2282 6.78773 13.1182C6.60308 12.9069 6.37361 12.6441 6.37361 12.2999C6.37361 11.9557 6.60308 11.6928 6.78741 11.4818C6.88353 11.3718 6.9829 11.2579 7.00992 11.1775C7.04002 11.0883 7.02902 10.9336 7.0185 10.7843C6.99843 10.4996 6.97578 10.1767 7.17839 9.90802C7.38262 9.63678 7.72342 9.55474 7.99743 9.48882C8.14648 9.45289 8.3007 9.4157 8.37676 9.36226C8.45055 9.31038 8.53358 9.18164 8.61384 9.05726C8.76402 8.82429 8.95094 8.53446 9.28511 8.42962C9.60813 8.32837 9.91623 8.4479 10.1881 8.55337C10.3346 8.61025 10.4861 8.66884 10.5875 8.66884C10.6892 8.66884 10.8406 8.61009 10.9869 8.55337C11.2588 8.4479 11.5669 8.32837 11.8899 8.42962C12.2241 8.53431 12.411 8.82431 12.5612 9.05726C12.6415 9.18179 12.7243 9.31038 12.7983 9.36226C12.8744 9.4157 13.0286 9.45288 13.1776 9.48882C13.4514 9.55492 13.7923 9.6371 13.9967 9.90818C14.1993 10.1771 14.1766 10.4997 14.1566 10.7844C14.146 10.934 14.1352 11.0885 14.1651 11.1777C14.1923 11.258 14.2915 11.3719 14.3876 11.4819C14.5723 11.6929 14.8018 11.9557 14.8018 12.2999C14.8018 12.6441 14.5723 12.9069 14.388 13.118V13.118Z" fill="#D12558"/>
</svg>
