<svg width="288" height="219" viewBox="0 0 288 219" fill="none" xmlns="http://www.w3.org/2000/svg">
<rect x="0.5" y="0.5" width="287" height="218" stroke="#DEE2E6"/>
<circle cx="199.815" cy="109.979" r="39.1967" stroke="#720C20" stroke-width="2.61011"/>
<path d="M221.578 121.26C221.054 113.093 210.321 111.377 210.321 111.377C207.579 110.887 206.462 108.533 206.019 107.01C208.127 104.649 209.602 101.599 210.417 98.6261C210.727 97.4932 210.895 96.3107 210.895 95.1344C210.895 94.4656 210.828 93.8136 210.714 93.1775C212.082 90.8845 211.679 88.3273 211.355 87.0984C211.256 86.7251 210.883 86.5411 210.5 86.5411C210.459 86.5411 210.418 86.543 210.377 86.5471C210.231 86.5624 210.077 86.5692 209.915 86.5692C207.465 86.5692 203.414 84.942 203.414 84.942C201.742 84.2226 200.238 83.9196 198.899 83.8858V83.8789H198.646H198.645H198.455V83.8835C193.599 83.9789 191.081 87.6513 191.081 87.6513C188.611 88.4778 188.194 91.659 188.34 94.4439C188.326 94.6728 188.314 94.9021 188.314 95.1344C188.314 99.3212 190.092 104.123 192.864 107.287C192.945 107.38 193.029 107.468 193.113 107.557C192.574 109.045 191.42 110.943 188.991 111.377C188.991 111.377 178.257 113.093 177.734 121.26C177.734 121.26 177.087 125.529 177.629 130.62C177.812 132.331 179.403 133.713 181.133 133.713H218.179C219.908 133.713 221.461 132.326 221.619 130.613C222.04 126.051 221.578 121.26 221.578 121.26ZM206.147 110.95L206.717 111.58L206.854 111.731L207.025 111.842L207.526 112.166L203.682 117.662L202.037 114.996C201.918 114.854 201.909 114.574 202.006 114.404L206.147 110.95ZM200.58 117.361H198.704L198.14 116.365L198.364 115.998C198.51 115.825 198.617 115.625 198.694 115.414H200.515C200.591 115.625 200.699 115.825 200.845 115.998L201.098 116.415L200.58 117.361ZM201.937 127.227C201.959 127.314 201.891 127.526 201.803 127.593L199.942 129.009C199.888 129.051 199.732 129.051 199.678 129.009L197.817 127.593C197.718 127.518 197.639 127.289 197.662 127.182L199.374 118.918H199.871L201.937 127.227ZM200.882 113.315C200.739 113.475 200.633 113.661 200.551 113.857H198.657C198.576 113.661 198.469 113.475 198.327 113.315L193.879 109.603C194.064 109.284 194.221 108.964 194.356 108.651C195.867 109.754 197.661 110.353 199.452 110.353C201.188 110.353 202.92 109.792 204.386 108.587C204.523 108.474 204.655 108.356 204.787 108.239C204.946 108.659 205.148 109.103 205.4 109.544L200.882 113.315ZM191.576 89.128C191.891 89.0226 192.17 88.8109 192.361 88.5387C192.45 88.4121 194.588 85.4366 198.645 85.4362V85.4214H198.646V85.4362C199.958 85.4362 201.355 85.751 202.798 86.3723C202.81 86.3776 202.822 86.3822 202.833 86.3871C203.276 86.565 207.241 88.1265 209.915 88.1265C209.941 88.1265 209.966 88.1265 209.991 88.1261C210.377 90.2009 210.153 93.3341 206.054 94.9751C206.035 94.9823 204.138 95.7134 201.806 95.7134C199.494 95.7134 197.588 95.01 196.131 93.6128C195.822 93.3224 195.411 93.1626 194.973 93.1626C194.513 93.1623 193.937 93.2657 191.965 94.5147L191.94 94.5306C191.179 95.0116 190.547 95.5975 190.071 96.2586C189.664 93.3687 189.701 89.7557 191.576 89.128ZM190.477 99.3622C190.536 98.8428 190.767 98.2562 190.886 97.9688C191.26 97.0665 191.954 96.364 192.772 95.8472C193.006 95.6993 194.538 94.7196 194.972 94.72C195.013 94.72 195.044 94.7283 195.063 94.7466C197.125 96.7232 199.645 97.2707 201.806 97.2707C204.494 97.2707 206.625 96.4236 206.625 96.4236C207.747 95.9742 208.631 95.4283 209.325 94.826C209.329 94.9291 209.337 95.0309 209.337 95.1344C209.337 96.1556 209.195 97.192 208.915 98.2144C207.872 102.016 205.861 105.358 203.397 107.384C202.273 108.308 200.909 108.796 199.452 108.796C197.421 108.796 195.447 107.872 194.035 106.261C192.433 104.432 191.174 101.929 190.477 99.3622ZM192.184 111.842L192.355 111.731L192.492 111.58L193.062 110.95L197.202 114.404C197.3 114.574 197.291 114.854 197.171 114.996L195.527 117.662L191.683 112.166L192.184 111.842ZM220.068 130.47C219.985 131.368 219.102 132.155 218.179 132.155H181.133C180.188 132.155 179.274 131.361 179.178 130.455C178.665 125.642 179.267 121.533 179.273 121.494L179.283 121.427L179.288 121.36C179.725 114.546 189.144 112.93 189.236 112.915L189.25 112.913L189.265 112.91C189.576 112.854 189.867 112.776 190.147 112.688L194.526 118.949C194.755 119.443 195.118 119.697 195.503 119.697C195.811 119.697 196.133 119.534 196.413 119.201L197.213 117.888L197.787 118.902L196.139 126.859C195.986 127.562 196.295 128.391 196.873 128.832L198.735 130.249C199.041 130.482 199.425 130.599 199.81 130.598C200.194 130.598 200.578 130.482 200.885 130.249L202.746 128.832C203.325 128.391 203.625 127.532 203.446 126.843L201.476 118.918H201.502L202.033 117.949L202.795 119.201C203.075 119.534 203.398 119.697 203.706 119.697C204.091 119.697 204.454 119.443 204.683 118.949L209.079 112.662C209.384 112.763 209.704 112.849 210.047 112.91L210.061 112.913L210.075 112.915C210.17 112.93 219.585 114.513 220.024 121.36L220.025 121.385L220.028 121.41C220.032 121.456 220.471 126.104 220.068 130.47Z" fill="#720C20" stroke="#720C20" stroke-width="0.900038"/>
<path d="M93.8135 68.5577L98.2289 73.4147L107.06 63.0068" stroke="#720C20" stroke-width="3.78468" stroke-linecap="round" stroke-linejoin="round"/>
<path d="M93.8135 95.9962L98.2289 100.853L107.06 90.4453" stroke="#720C20" stroke-width="3.78468" stroke-linecap="round" stroke-linejoin="round"/>
<path d="M93.8135 123.437L98.2289 128.294L107.06 117.886" stroke="#720C20" stroke-width="3.78468" stroke-linecap="round" stroke-linejoin="round"/>
<path d="M93.8135 150.874L98.2289 155.731L107.06 145.323" stroke="#720C20" stroke-width="3.78468" stroke-linecap="round" stroke-linejoin="round"/>
<rect x="114.63" y="121.67" width="36.9007" height="4.73086" rx="2.36543" fill="#720C20"/>
<rect x="114.63" y="149.108" width="52.0394" height="4.73086" rx="2.36543" fill="#720C20"/>
<rect x="114.63" y="95.1768" width="36.9007" height="4.73086" rx="2.36543" fill="#720C20"/>
<rect x="114.63" y="67.7383" width="52.0394" height="4.73086" rx="2.36543" fill="#720C20"/>
<path d="M155.477 109.099L155.479 109.06V109.021C155.479 85.7578 174.096 67.1914 196.285 65.5225C199.084 65.312 201.493 63.0516 201.493 60.0864V43.8345C201.493 40.9226 199.132 38.5621 196.221 38.5621H73.5171C70.6052 38.5621 68.2447 40.9226 68.2447 43.8345V175.166C68.2447 178.077 70.6052 180.438 73.5171 180.438H196.221C199.132 180.438 201.493 178.077 201.493 175.166V159.942C201.493 156.937 199.028 154.676 196.211 154.475C174.527 152.93 154.166 133.136 155.477 109.099Z" stroke="#720C20" stroke-width="2.87586"/>
</svg>
