<svg width="14" height="16" viewBox="0 0 14 16" fill="none" xmlns="http://www.w3.org/2000/svg">
<path id="Vector" d="M11.202 11.71L7.66127 15.2517C7.52174 15.3913 7.35607 15.5021 7.17372 15.5777C6.99138 15.6532 6.79593 15.6921 6.59854 15.6921C6.40116 15.6921 6.20571 15.6532 6.02336 15.5777C5.84101 15.5021 5.67534 15.3913 5.53582 15.2517L1.99507 11.71C1.39046 11.1054 0.910854 10.3877 0.58362 9.59783C0.256386 8.80794 0.0879371 7.96133 0.0878906 7.10634C0.0878441 6.25135 0.256201 5.40472 0.583349 4.6148C0.910497 3.82487 1.39003 3.10712 1.99457 2.50251C2.5991 1.89791 3.31681 1.4183 4.1067 1.09107C4.89659 0.763832 5.7432 0.595383 6.59819 0.595337C7.45318 0.59529 8.29981 0.763647 9.08974 1.0908C9.87966 1.41794 10.5974 1.89748 11.202 2.50201C11.8067 3.10659 12.2863 3.82434 12.6136 4.6143C12.9408 5.40426 13.1092 6.25094 13.1092 7.10599C13.1092 7.96104 12.9408 8.80772 12.6136 9.59768C12.2863 10.3876 11.8067 11.1054 11.202 11.71ZM10.1403 3.56474C9.20096 2.62541 7.92696 2.09669 6.59854 2.09669C5.27013 2.09669 3.99612 2.62441 3.05679 3.56374C2.11746 4.50307 1.58975 5.77707 1.58975 7.10549C1.58975 8.4339 2.11746 9.70791 3.05679 10.6472L6.59854 14.188L10.1403 10.6482C10.6055 10.1832 10.9745 9.63102 11.2263 9.02332C11.478 8.41562 11.6076 7.76428 11.6076 7.10649C11.6076 6.4487 11.478 5.79736 11.2263 5.18966C10.9745 4.58195 10.6055 4.0298 10.1403 3.56474ZM6.59854 9.10974C6.33177 9.11577 6.06648 9.06845 5.81825 8.97054C5.57002 8.87264 5.34385 8.72613 5.15302 8.53961C4.96219 8.3531 4.81055 8.13034 4.707 7.88441C4.60344 7.63848 4.55007 7.37434 4.55 7.1075C4.54993 6.84066 4.60318 6.5765 4.70661 6.33052C4.81004 6.08454 4.96157 5.8617 5.15231 5.67509C5.34304 5.48848 5.56914 5.34186 5.81732 5.24383C6.0655 5.1458 6.33077 5.09834 6.59754 5.10424C7.12095 5.11581 7.61903 5.33183 7.98516 5.70605C8.35129 6.08028 8.55638 6.58296 8.55651 7.1065C8.55664 7.63004 8.35181 8.13283 7.98587 8.50723C7.61992 8.88164 7.12195 9.09791 6.59854 9.10974Z" fill="#838383"/>
</svg>
