<svg width="12" height="14" viewBox="0 0 12 14" fill="none" xmlns="http://www.w3.org/2000/svg">
<path d="M10.0828 10.5198L7.01995 13.5835C6.89925 13.7043 6.75594 13.8001 6.59821 13.8654C6.44047 13.9308 6.2714 13.9644 6.10066 13.9644C5.92992 13.9644 5.76085 13.9308 5.60311 13.8654C5.44537 13.8001 5.30207 13.7043 5.18137 13.5835L2.11851 10.5198C1.59552 9.99682 1.18064 9.37598 0.897571 8.6927C0.614504 8.00942 0.46879 7.27708 0.46875 6.53749C0.46871 5.7979 0.614344 5.06554 0.897336 4.38223C1.18033 3.69892 1.59514 3.07804 2.11808 2.55504C2.64102 2.03204 3.26186 1.61716 3.94514 1.33409C4.62842 1.05103 5.36076 0.905314 6.10035 0.905273C6.83995 0.905233 7.57231 1.05087 8.25562 1.33386C8.93893 1.61685 9.55981 2.03166 10.0828 2.55461C10.6058 3.07758 11.0208 3.69846 11.3038 4.3818C11.5869 5.06513 11.7326 5.79754 11.7326 6.53718C11.7326 7.27683 11.5869 8.00923 11.3038 8.69257C11.0208 9.3759 10.6058 9.99679 10.0828 10.5198ZM9.16438 3.47389C8.35183 2.66135 7.24978 2.20399 6.10066 2.20399C4.95154 2.20399 3.84949 2.66048 3.03694 3.47303C2.22439 4.28558 1.7679 5.38763 1.7679 6.53675C1.7679 7.68587 2.22439 8.78792 3.03694 9.60047L6.10066 12.6633L9.16438 9.60134C9.56678 9.19904 9.88599 8.72142 10.1038 8.19574C10.3216 7.67006 10.4337 7.10662 10.4337 6.53762C10.4337 5.96861 10.3216 5.40518 10.1038 4.8795C9.88599 4.35382 9.56678 3.87619 9.16438 3.47389ZM6.10066 8.27049C5.86989 8.27571 5.64041 8.23477 5.42568 8.15008C5.21096 8.06539 5.01531 7.93865 4.85024 7.77731C4.68517 7.61597 4.55399 7.42327 4.46442 7.21054C4.37484 6.9978 4.32867 6.76932 4.32861 6.53849C4.32855 6.30767 4.37461 6.07916 4.46408 5.86638C4.55355 5.6536 4.68463 5.46084 4.84962 5.29941C5.01461 5.13799 5.21019 5.01115 5.42488 4.92636C5.63956 4.84156 5.86903 4.80051 6.09979 4.80561C6.55256 4.81562 6.98342 5.00248 7.30013 5.3262C7.61684 5.64991 7.79424 6.08475 7.79436 6.53763C7.79447 6.9905 7.61729 7.42543 7.30074 7.7493C6.98418 8.07317 6.55342 8.26025 6.10066 8.27049Z" fill="#838383"/>
</svg>
