<svg width="15" height="18" viewBox="0 0 15 18" fill="none" xmlns="http://www.w3.org/2000/svg">
<path d="M12.375 13.875C13.3866 14.2195 14 14.6729 14 15.1693C14 16.2499 11.0896 17.125 7.5 17.125C3.91037 17.125 1 16.2491 1 15.1693C1 14.6729 1.61344 14.2195 2.625 13.875M9.9375 6.96875C9.9375 7.61522 9.68069 8.2352 9.22357 8.69232C8.76645 9.14944 8.14647 9.40625 7.5 9.40625C6.85353 9.40625 6.23355 9.14944 5.77643 8.69232C5.31931 8.2352 5.0625 7.61522 5.0625 6.96875C5.0625 6.32228 5.31931 5.7023 5.77643 5.24518C6.23355 4.78806 6.85353 4.53125 7.5 4.53125C8.14647 4.53125 8.76645 4.78806 9.22357 5.24518C9.68069 5.7023 9.9375 6.32228 9.9375 6.96875Z" stroke="#5E5E5E" stroke-width="1.51667" stroke-linecap="round" stroke-linejoin="round"/>
<path d="M7.5 0.875C10.7979 0.875 13.5938 3.66025 13.5938 7.03944C13.5938 10.4722 10.7524 12.8813 8.12806 14.5193C7.937 14.6292 7.72043 14.6871 7.5 14.6871C7.27957 14.6871 7.063 14.6292 6.87194 14.5193C4.25244 12.8651 1.40625 10.4844 1.40625 7.03944C1.40625 3.66025 4.20206 0.875 7.5 0.875Z" stroke="#5E5E5E" stroke-width="1.51667" stroke-linecap="round" stroke-linejoin="round"/>
</svg>
