<svg width="54" height="56" viewBox="0 0 54 56" fill="none" xmlns="http://www.w3.org/2000/svg">
<path d="M43.9802 34.439C42.9039 31.8732 36.3615 29.6552 36.3615 29.6552C32.8676 28.3323 32.8464 27.0095 32.8464 27.0095C25.9752 41.5663 20.7635 27.0494 20.7635 27.0494C20.2863 29.0109 13.219 31.3201 13.219 31.3201C11.1566 32.1754 10.2818 33.4526 10.2818 33.4526C7.23327 38.3219 6.87274 49.1668 6.87274 49.1668C6.91516 51.6414 7.90129 51.898 7.90129 51.898C14.9262 55.2678 25.9381 55.8665 25.9381 55.8665C37.2522 56.123 45.4859 52.4112 45.4859 52.4112C46.6788 51.6015 46.7159 50.9572 46.7159 50.9572C47.5536 43.1913 43.9802 34.439 43.9802 34.439Z" fill="black" fill-opacity="0.6"/>
<path d="M19.0351 19.3235C19.56 23.999 23.3031 28.8512 26.7015 28.8512C30.6037 28.8512 34.3149 23.7538 34.8928 19.3235C35.1102 19.1524 35.476 18.7476 35.6033 17.8239C35.6033 17.8239 36.4357 14.6138 35.3329 14.9616C35.7199 13.7243 36.9924 8.90624 34.5217 5.90708C34.5217 5.90708 33.3659 4.20794 30.5507 3.30705C30.4499 3.22153 30.3545 3.1303 30.2378 3.04477C30.2378 3.04477 30.3015 3.1246 30.3916 3.25574C30.2325 3.21012 30.0629 3.16451 29.8932 3.11889C29.7395 2.94784 29.5698 2.77108 29.3736 2.58292C29.3736 2.58292 29.5433 2.77108 29.7501 3.08468C29.6706 3.06758 29.6016 3.04477 29.5274 3.03337C29.4002 2.8224 29.2464 2.61143 29.0449 2.38906C29.0449 2.38906 29.1298 2.56012 29.2358 2.8224C28.7162 2.41187 27.6718 1.46537 27.6718 0.404829C27.6718 0.404829 27.0196 0.729833 26.6379 1.32852C26.7864 0.838167 27.0408 0.37632 27.4491 0C27.4491 0 27.0196 0.233775 26.622 0.746938C26.3145 0.935098 25.6147 1.44826 25.3761 2.36625L25.1534 2.24652C25.2647 1.98423 25.4185 1.71055 25.6253 1.43686C25.6253 1.43686 25.3178 1.72765 25.0527 2.1952L24.602 1.95002C24.7346 1.68204 24.9148 1.40265 25.1534 1.12896C25.1534 1.12896 24.9095 1.32852 24.655 1.67063C24.7293 1.35703 24.7133 0.992116 23.8014 2.06976C23.8014 2.06976 19.6872 3.98557 18.4996 7.95974C18.4996 7.95974 17.7998 9.75011 18.7276 15.03C17.4074 14.3572 18.3088 17.8239 18.3088 17.8239C18.4519 18.7476 18.8124 19.1524 19.0351 19.3235ZM26.5054 0.923695C26.3039 1.22019 26.1342 1.59651 26.0494 2.05265L25.9063 1.99564C26.0176 1.60791 26.2085 1.243 26.5054 0.923695Z" fill="black" fill-opacity="0.6"/>
<mask id="mask0_1_59" style="mask-type:alpha" maskUnits="userSpaceOnUse" x="0" y="0" width="54" height="56">
<path d="M53 28C53 42.9463 41.3254 55 27 55C12.6746 55 1 42.9463 1 28C1 13.0537 12.6746 1 27 1C41.3254 1 53 13.0537 53 28Z" fill="#C4C4C4" stroke="black" stroke-width="2"/>
</mask>
<g mask="url(#mask0_1_59)">
</g>
</svg>
