<svg width="22" height="20" viewBox="0 0 22 20" fill="none" xmlns="http://www.w3.org/2000/svg">
<path d="M2.2571 1.13623C1.57977 1.13623 1 1.67696 1 2.35782V13.0965C1 13.589 1.30104 14.0136 1.72443 14.2044C1.83452 14.2536 1.95963 14.2573 2.07239 14.2145C2.18515 14.1718 2.27639 14.0861 2.32615 13.9762C2.37591 13.8664 2.38015 13.7413 2.33793 13.6283C2.2957 13.5154 2.21047 13.4237 2.10085 13.3734C1.98049 13.3192 1.90909 13.2188 1.90909 13.0965V2.35782C1.90909 2.1888 2.04708 2.04532 2.2571 2.04532H8.20881L8.99716 3.82089C9.03264 3.90069 9.09036 3.96858 9.16341 4.01645C9.23647 4.06431 9.32176 4.09011 9.40909 4.09078H17.4702C17.6813 4.09123 17.8182 4.23425 17.8182 4.40328V7.72714H11.973L11.1847 5.95157C11.1492 5.87177 11.0915 5.80388 11.0184 5.75601C10.9454 5.70815 10.8601 5.68235 10.7727 5.68168H4.52983C3.8525 5.68168 3.27273 6.22362 3.27273 6.90328V17.6419C3.27273 18.3216 3.8525 18.8635 4.52983 18.8635H19.7429C20.4202 18.8635 21 18.3216 21 17.6419V8.94873C21 8.26907 20.4191 7.72853 19.7429 7.72714H18.7273V4.40328C18.7273 3.72241 18.1464 3.18308 17.4702 3.18168H9.70028L8.91193 1.40612C8.87645 1.32631 8.81873 1.25842 8.74568 1.21056C8.67263 1.1627 8.58733 1.13689 8.5 1.13623H2.2571ZM4.52983 6.59078H10.4815L11.2699 8.36634C11.3054 8.44615 11.3631 8.51404 11.4361 8.5619C11.5092 8.60976 11.5945 8.63557 11.6818 8.63623H19.7429C19.9541 8.63666 20.0909 8.7785 20.0909 8.94873V17.6419C20.0909 17.8122 19.9529 17.9544 19.7429 17.9544H4.52983C4.3198 17.9544 4.18182 17.8122 4.18182 17.6419V6.90328C4.18182 6.73304 4.3198 6.59078 4.52983 6.59078Z" fill="#1A1A1A" stroke="#1A1A1A" stroke-width="1.2"/>
</svg>
