<svg width="44" height="44" viewBox="0 0 44 44" fill="none" xmlns="http://www.w3.org/2000/svg">
<circle cx="22.5" cy="19.5" r="15.5" fill="#C4C4C4"/>
<path d="M22.5397 25.9802L22.6565 25.8127C22.8845 25.4862 28.2433 17.7832 28.2433 14.7031C28.2433 11.5588 25.6844 9 22.5397 9C19.395 9 16.8367 11.5585 16.8367 14.7031C16.8367 17.7837 22.1948 25.4863 22.423 25.8127L22.5397 25.9802ZM20.5513 14.7031C20.5513 13.6066 21.4432 12.7146 22.5397 12.7146C23.6362 12.7146 24.5286 13.6066 24.5286 14.7031C24.5286 15.7996 23.6362 16.6919 22.5397 16.6919C21.4432 16.6919 20.5513 15.7998 20.5513 14.7031Z" fill="black"/>
<path d="M27.2354 21.1742C27.1476 21.1411 27.0499 21.153 26.9727 21.2064C26.8958 21.2596 26.8498 21.3472 26.8498 21.4407V21.7381C26.8498 21.8558 26.9221 21.9615 27.0322 22.0039C29.0581 22.7855 30.2677 24.0321 30.2677 25.3387C30.2677 27.6067 26.8011 29.452 22.5397 29.452C18.2784 29.452 14.8117 27.6069 14.8117 25.3387C14.8117 24.0321 16.0212 22.7855 18.047 22.0039C18.157 21.9617 18.2295 21.8556 18.2295 21.7381V21.4407C18.2295 21.3472 18.1837 21.2595 18.1066 21.2064C18.0293 21.1532 17.9316 21.1411 17.8442 21.1742C15.41 22.0915 13.9568 23.6483 13.9568 25.3385C13.9568 28.0778 17.807 30.3068 22.5397 30.3068C27.2725 30.3068 31.1227 28.0783 31.1227 25.3385C31.1225 23.6485 29.6695 22.0915 27.2355 21.1742H27.2354Z" fill="black"/>
</svg>
