<svg width="12" height="11" viewBox="0 0 12 11" fill="none" xmlns="http://www.w3.org/2000/svg">
<path id="Vector" d="M10.2857 6.24261H6.71429V9.81403C6.71429 10.0035 6.63903 10.1852 6.50508 10.3191C6.37112 10.4531 6.18944 10.5283 6 10.5283C5.81056 10.5283 5.62888 10.4531 5.49492 10.3191C5.36097 10.1852 5.28571 10.0035 5.28571 9.81403V6.24261H1.71429C1.52485 6.24261 1.34316 6.16735 1.20921 6.0334C1.07526 5.89944 1 5.71776 1 5.52832C1 5.33888 1.07526 5.1572 1.20921 5.02324C1.34316 4.88929 1.52485 4.81403 1.71429 4.81403H5.28571V1.24261C5.28571 1.05317 5.36097 0.871484 5.49492 0.73753C5.62888 0.603575 5.81056 0.52832 6 0.52832C6.18944 0.52832 6.37112 0.603575 6.50508 0.73753C6.63903 0.871484 6.71429 1.05317 6.71429 1.24261V4.81403H10.2857C10.4752 4.81403 10.6568 4.88929 10.7908 5.02324C10.9247 5.1572 11 5.33888 11 5.52832C11 5.71776 10.9247 5.89944 10.7908 6.0334C10.6568 6.16735 10.4752 6.24261 10.2857 6.24261Z" fill="#720C20" stroke="#720C20" stroke-width="0.5"/>
</svg>
