<svg width="16" height="16" viewBox="0 0 16 16" fill="none" xmlns="http://www.w3.org/2000/svg">
<path d="M12.0026 4.66659V3.46659C12.0026 2.71985 12.0026 2.34648 11.8573 2.06126C11.7294 1.81038 11.5255 1.60641 11.2746 1.47858C10.9894 1.33325 10.616 1.33325 9.86927 1.33325H6.13594C5.3892 1.33325 5.01583 1.33325 4.73062 1.47858C4.47973 1.60641 4.27576 1.81038 4.14793 2.06126C4.0026 2.34648 4.0026 2.71985 4.0026 3.46659V4.66659M4.0026 11.9999C3.38262 11.9999 3.07263 11.9999 2.8183 11.9318C2.12812 11.7468 1.58902 11.2077 1.40409 10.5176C1.33594 10.2632 1.33594 9.95323 1.33594 9.33325V7.86659C1.33594 6.74648 1.33594 6.18643 1.55392 5.7586C1.74567 5.38228 2.05163 5.07632 2.42796 4.88457C2.85578 4.66659 3.41583 4.66659 4.53594 4.66659H11.4693C12.5894 4.66659 13.1494 4.66659 13.5773 4.88457C13.9536 5.07632 14.2595 5.38228 14.4513 5.7586C14.6693 6.18643 14.6693 6.74648 14.6693 7.86659V9.33325C14.6693 9.95323 14.6693 10.2632 14.6011 10.5176C14.4162 11.2077 13.8771 11.7468 13.1869 11.9318C12.9326 11.9999 12.6226 11.9999 12.0026 11.9999M10.0026 6.99992H12.0026M6.13594 14.6666H9.86927C10.616 14.6666 10.9894 14.6666 11.2746 14.5213C11.5255 14.3934 11.7294 14.1895 11.8573 13.9386C12.0026 13.6534 12.0026 13.28 12.0026 12.5333V11.4666C12.0026 10.7198 12.0026 10.3465 11.8573 10.0613C11.7294 9.81038 11.5255 9.60641 11.2746 9.47858C10.9894 9.33325 10.616 9.33325 9.86927 9.33325H6.13594C5.3892 9.33325 5.01583 9.33325 4.73062 9.47858C4.47973 9.60641 4.27576 9.81038 4.14793 10.0613C4.0026 10.3465 4.0026 10.7198 4.0026 11.4666V12.5333C4.0026 13.28 4.0026 13.6534 4.14793 13.9386C4.27576 14.1895 4.47973 14.3934 4.73062 14.5213C5.01583 14.6666 5.3892 14.6666 6.13594 14.6666Z" stroke="#720D21" stroke-linecap="round" stroke-linejoin="round"/>
</svg>
