<svg width="20" height="20" viewBox="0 0 20 20" fill="none" xmlns="http://www.w3.org/2000/svg">
<path d="M10.8307 5.83333L9.90111 3.9741C9.63357 3.439 9.49978 3.17144 9.3002 2.97597C9.12371 2.80311 8.911 2.67164 8.67746 2.59109C8.41337 2.5 8.11424 2.5 7.51597 2.5H4.33073C3.39731 2.5 2.9306 2.5 2.57408 2.68166C2.26047 2.84144 2.00551 3.09641 1.84572 3.41002C1.66406 3.76654 1.66406 4.23325 1.66406 5.16667V5.83333M1.66406 5.83333H14.3307C15.7309 5.83333 16.4309 5.83333 16.9657 6.10582C17.4361 6.3455 17.8186 6.72795 18.0582 7.19836C18.3307 7.73314 18.3307 8.4332 18.3307 9.83333V13.5C18.3307 14.9001 18.3307 15.6002 18.0582 16.135C17.8186 16.6054 17.4361 16.9878 16.9657 17.2275C16.4309 17.5 15.7309 17.5 14.3307 17.5H5.66406C4.26393 17.5 3.56387 17.5 3.02909 17.2275C2.55868 16.9878 2.17623 16.6054 1.93655 16.135C1.66406 15.6002 1.66406 14.9001 1.66406 13.5V5.83333ZM9.9974 14.1667V9.16667M7.4974 11.6667H12.4974" stroke="#720D21" stroke-width="1.66667" stroke-linecap="round" stroke-linejoin="round"/>
</svg>
