<svg width="12" height="14" viewBox="0 0 12 14" fill="none" xmlns="http://www.w3.org/2000/svg">
<path d="M11.3307 13C11.3307 12.0696 11.3307 11.6044 11.2159 11.2259C10.9574 10.3736 10.2904 9.70669 9.43816 9.44816C9.05963 9.33333 8.59444 9.33333 7.66406 9.33333H4.33073C3.40035 9.33333 2.93517 9.33333 2.55663 9.44816C1.70437 9.70669 1.03742 10.3736 0.778889 11.2259C0.664062 11.6044 0.664062 12.0696 0.664062 13M8.9974 4C8.9974 5.65685 7.65425 7 5.9974 7C4.34054 7 2.9974 5.65685 2.9974 4C2.9974 2.34315 4.34054 1 5.9974 1C7.65425 1 8.9974 2.34315 8.9974 4Z" stroke="white" stroke-linecap="round" stroke-linejoin="round"/>
</svg>
