<svg width="19" height="21" viewBox="0 0 19 21" fill="none" xmlns="http://www.w3.org/2000/svg">
<circle cx="9.5" cy="9.5" r="9.5" fill="#C4C4C4"/>
<path d="M12.1663 3.78613H6.83356C6.42492 3.78613 6.09253 4.13136 6.09253 4.55569V14.6444C6.09253 15.0689 6.42492 15.414 6.83356 15.414H12.1663C12.575 15.414 12.9073 15.0687 12.9073 14.6444V4.55569C12.9073 4.13147 12.5747 3.78624 12.1663 3.78624V3.78613ZM8.72894 4.64865H10.306C10.3741 4.64865 10.4296 4.704 10.4296 4.77228C10.4296 4.84056 10.3743 4.89591 10.306 4.89591H8.72894C8.66066 4.89591 8.60532 4.84056 8.60532 4.77228C8.60532 4.704 8.66066 4.64865 8.72894 4.64865ZM9.96077 14.6584H8.99698C8.86063 14.6584 8.74993 14.5477 8.74993 14.4114C8.74993 14.275 8.86063 14.1643 8.99698 14.1643H9.96077C10.0971 14.1643 10.2078 14.275 10.2078 14.4114C10.2077 14.5478 10.0972 14.6584 9.96077 14.6584ZM12.6033 6.32879V13.4413H6.3965V5.69881H12.6033V6.32879Z" fill="black"/>
</svg>
