<svg width="32" height="32" viewBox="0 0 32 32" fill="none" xmlns="http://www.w3.org/2000/svg">
<path d="M6.85716 14.2859C6.85716 13.5281 7.15818 12.8014 7.694 12.2655C8.22982 11.7297 8.95654 11.4287 9.7143 11.4287C10.4721 11.4287 11.1988 11.7297 11.7346 12.2655C12.2704 12.8014 12.5714 13.5281 12.5714 14.2859C12.5714 15.0436 12.2704 15.7703 11.7346 16.3062C11.1988 16.842 10.4721 17.143 9.7143 17.143C8.95654 17.143 8.22982 16.842 7.694 16.3062C7.15818 15.7703 6.85716 15.0436 6.85716 14.2859ZM9.7143 13.143C9.4112 13.143 9.12051 13.2634 8.90618 13.4777C8.69185 13.6921 8.57145 13.9827 8.57145 14.2859C8.57145 14.589 8.69185 14.8796 8.90618 15.094C9.12051 15.3083 9.4112 15.4287 9.7143 15.4287C10.0174 15.4287 10.3081 15.3083 10.5224 15.094C10.7368 14.8796 10.8572 14.589 10.8572 14.2859C10.8572 13.9827 10.7368 13.6921 10.5224 13.4777C10.3081 13.2634 10.0174 13.143 9.7143 13.143ZM9.7143 19.4287C8.95654 19.4287 8.22982 19.7297 7.694 20.2655C7.15818 20.8014 6.85716 21.5281 6.85716 22.2859C6.85716 23.0436 7.15818 23.7703 7.694 24.3062C8.22982 24.842 8.95654 25.143 9.7143 25.143C10.4721 25.143 11.1988 24.842 11.7346 24.3062C12.2704 23.7703 12.5714 23.0436 12.5714 22.2859C12.5714 21.5281 12.2704 20.8014 11.7346 20.2655C11.1988 19.7297 10.4721 19.4287 9.7143 19.4287ZM8.57145 22.2859C8.57145 21.9827 8.69185 21.6921 8.90618 21.4777C9.12051 21.2634 9.4112 21.143 9.7143 21.143C10.0174 21.143 10.3081 21.2634 10.5224 21.4777C10.7368 21.6921 10.8572 21.9827 10.8572 22.2859C10.8572 22.589 10.7368 22.8796 10.5224 23.094C10.3081 23.3083 10.0174 23.4287 9.7143 23.4287C9.4112 23.4287 9.12051 23.3083 8.90618 23.094C8.69185 22.8796 8.57145 22.589 8.57145 22.2859ZM14.8572 14.0001C14.8572 13.7728 14.9475 13.5548 15.1082 13.394C15.269 13.2333 15.487 13.143 15.7143 13.143H24.2857C24.5131 13.143 24.7311 13.2333 24.8918 13.394C25.0526 13.5548 25.1429 13.7728 25.1429 14.0001C25.1429 14.2275 25.0526 14.4455 24.8918 14.6062C24.7311 14.767 24.5131 14.8573 24.2857 14.8573H15.7143C15.487 14.8573 15.269 14.767 15.1082 14.6062C14.9475 14.4455 14.8572 14.2275 14.8572 14.0001ZM15.7143 21.143C15.487 21.143 15.269 21.2333 15.1082 21.394C14.9475 21.5548 14.8572 21.7728 14.8572 22.0001C14.8572 22.2275 14.9475 22.4455 15.1082 22.6062C15.269 22.767 15.487 22.8573 15.7143 22.8573H24.2857C24.5131 22.8573 24.7311 22.767 24.8918 22.6062C25.0526 22.4455 25.1429 22.2275 25.1429 22.0001C25.1429 21.7728 25.0526 21.5548 24.8918 21.394C24.7311 21.2333 24.5131 21.143 24.2857 21.143H15.7143ZM6.85716 8.28585C6.85716 8.05853 6.94747 7.84051 7.10821 7.67976C7.26896 7.51902 7.48697 7.42871 7.7143 7.42871H24.2857C24.5131 7.42871 24.7311 7.51902 24.8918 7.67976C25.0526 7.84051 25.1429 8.05853 25.1429 8.28585C25.1429 8.51318 25.0526 8.7312 24.8918 8.89194C24.7311 9.05269 24.5131 9.143 24.2857 9.143H7.7143C7.48697 9.143 7.26896 9.05269 7.10821 8.89194C6.94747 8.7312 6.85716 8.51318 6.85716 8.28585ZM7.7143 3.42871C6.57766 3.42871 5.48757 3.88024 4.68385 4.68397C3.88012 5.48769 3.42859 6.57778 3.42859 7.71443V24.2859C3.42859 25.4225 3.88012 26.5126 4.68385 27.3163C5.48757 28.12 6.57766 28.5716 7.7143 28.5716H24.2857C25.4224 28.5716 26.5125 28.12 27.3162 27.3163C28.1199 26.5126 28.5714 25.4225 28.5714 24.2859V7.71443C28.5714 6.57778 28.1199 5.48769 27.3162 4.68397C26.5125 3.88024 25.4224 3.42871 24.2857 3.42871H7.7143ZM5.14287 7.71443C5.14287 7.03244 5.41379 6.37839 5.89603 5.89615C6.37826 5.41391 7.03232 5.143 7.7143 5.143H24.2857C24.9677 5.143 25.6218 5.41391 26.104 5.89615C26.5862 6.37839 26.8572 7.03244 26.8572 7.71443V24.2859C26.8572 24.9678 26.5862 25.6219 26.104 26.1041C25.6218 26.5864 24.9677 26.8573 24.2857 26.8573H7.7143C7.03232 26.8573 6.37826 26.5864 5.89603 26.1041C5.41379 25.6219 5.14287 24.9678 5.14287 24.2859V7.71443Z" fill="black"/>
</svg>
