<svg width="26" height="24" viewBox="0 0 26 24" fill="none" xmlns="http://www.w3.org/2000/svg">
<path d="M13.7761 4.57045H21.3611C22.4283 4.57045 23.2186 5.36081 23.2186 6.42794V7.35668L11.1449 17.1085L0.566534 21.5015C0.204324 20.9442 0 20.1492 0 19.4304V2.78726C0 2.27492 0.203527 1.78356 0.565808 1.42128C0.928089 1.059 1.41945 0.855469 1.93179 0.855469H8.13116C8.88251 0.855469 9.60322 1.15267 10.1354 1.68205L12.4136 4.00206C12.7758 4.36148 13.2662 4.57045 13.7761 4.57045Z" fill="#720C20"/>
<path d="M24.0647 7.35669H8.25279C7.54865 7.35696 6.86178 7.57472 6.28609 7.98017C5.7104 8.38563 5.274 8.959 5.03654 9.6219C0.772678 21.8488 1.12467 20.9702 1.01694 21.1077C0.971357 21.178 0.909102 21.236 0.835705 21.2766C0.762308 21.3171 0.680042 21.3388 0.596217 21.3399C0.536328 21.339 0.477833 21.3217 0.427185 21.2897C0.744525 21.8869 1.22749 22.3799 1.81809 22.7094C2.4087 23.0389 3.08185 23.1909 3.75673 23.1472H20.4296C20.8348 23.1453 21.2287 23.0131 21.553 22.7701C21.8773 22.5271 22.1148 22.1861 22.2304 21.7977L25.9101 9.8773C26.0017 9.58722 26.0236 9.27965 25.9743 8.9795C25.9249 8.67934 25.8055 8.39503 25.6258 8.14959C25.4461 7.90415 25.2111 7.70446 24.9399 7.56671C24.6687 7.42896 24.3689 7.35701 24.0647 7.35669Z" fill="#82293A"/>
</svg>
