<svg width="22" height="23" viewBox="0 0 22 23" fill="none" xmlns="http://www.w3.org/2000/svg">
<path d="M18.2588 11.1062H14.0036C13.2277 11.1062 12.4836 10.798 11.935 10.2493C11.3863 9.70069 11.0781 8.95658 11.0781 8.1807V3.92547C11.0781 3.14959 11.3863 2.40548 11.935 1.85685C12.4836 1.30822 13.2277 1 14.0036 1H18.2588C19.0347 1 19.7788 1.30822 20.3274 1.85685C20.8761 2.40548 21.1843 3.14959 21.1843 3.92547V8.1807C21.1843 8.95658 20.8761 9.70069 20.3274 10.2493C19.7788 10.798 19.0347 11.1062 18.2588 11.1062ZM14.0036 2.59571C13.6509 2.59571 13.3127 2.73581 13.0633 2.98519C12.8139 3.23457 12.6738 3.5728 12.6738 3.92547V8.1807C12.6738 8.35533 12.7082 8.52824 12.7751 8.68958C12.8419 8.85091 12.9398 8.9975 13.0633 9.12098C13.1868 9.24446 13.3334 9.34241 13.4947 9.40924C13.6561 9.47606 13.829 9.51046 14.0036 9.51046H18.2588C18.6115 9.51046 18.9497 9.37036 19.1991 9.12098C19.4485 8.8716 19.5886 8.53337 19.5886 8.1807V3.92547C19.5886 3.5728 19.4485 3.23457 19.1991 2.98519C18.9497 2.73581 18.6115 2.59571 18.2588 2.59571H14.0036Z" fill="#720C20" stroke="#720C20" stroke-width="0.518606"/>
<path d="M6.55439 11.1058H3.36297C2.58709 11.1058 1.84298 10.7976 1.29435 10.2489C0.745718 9.7003 0.4375 8.95619 0.4375 8.18031V4.98889C0.4375 4.213 0.745718 3.4689 1.29435 2.92027C1.84298 2.37163 2.58709 2.06342 3.36297 2.06342H6.55439C7.33028 2.06342 8.07438 2.37163 8.62301 2.92027C9.17165 3.4689 9.47986 4.213 9.47986 4.98889V8.18031C9.47986 8.95619 9.17165 9.7003 8.62301 10.2489C8.07438 10.7976 7.33028 11.1058 6.55439 11.1058ZM3.36297 3.65913C3.0103 3.65913 2.67207 3.79923 2.42269 4.0486C2.17331 4.29798 2.03321 4.63621 2.03321 4.98889V8.18031C2.03321 8.35494 2.06761 8.52785 2.13443 8.68919C2.20126 8.85052 2.29921 8.99711 2.42269 9.12059C2.54617 9.24407 2.69276 9.34202 2.85409 9.40885C3.01543 9.47567 3.18834 9.51007 3.36297 9.51007H6.55439C6.72902 9.51007 6.90194 9.47567 7.06327 9.40885C7.2246 9.34202 7.3712 9.24407 7.49468 9.12059C7.61816 8.99711 7.7161 8.85052 7.78293 8.68919C7.84976 8.52785 7.88415 8.35494 7.88415 8.18031V4.98889C7.88415 4.63621 7.74405 4.29798 7.49468 4.0486C7.2453 3.79923 6.90707 3.65913 6.55439 3.65913H3.36297Z" fill="#720C20" stroke="#720C20" stroke-width="0.518606"/>
<path d="M17.195 21.7447H14.0036C13.2277 21.7447 12.4836 21.4364 11.935 20.8878C11.3863 20.3392 11.0781 19.5951 11.0781 18.8192V15.6278C11.0781 14.8519 11.3863 14.1078 11.935 13.5592C12.4836 13.0105 13.2277 12.7023 14.0036 12.7023H17.195C17.9709 12.7023 18.715 13.0105 19.2636 13.5592C19.8123 14.1078 20.1205 14.8519 20.1205 15.6278V18.8192C20.1205 19.5951 19.8123 20.3392 19.2636 20.8878C18.715 21.4364 17.9709 21.7447 17.195 21.7447ZM14.0036 14.298C13.6509 14.298 13.3127 14.4381 13.0633 14.6875C12.8139 14.9369 12.6738 15.2751 12.6738 15.6278V18.8192C12.6738 19.1719 12.8139 19.5101 13.0633 19.7595C13.3127 20.0089 13.6509 20.149 14.0036 20.149H17.195C17.5477 20.149 17.8859 20.0089 18.1353 19.7595C18.3847 19.5101 18.5248 19.1719 18.5248 18.8192V15.6278C18.5248 15.2751 18.3847 14.9369 18.1353 14.6875C17.8859 14.4381 17.5477 14.298 17.195 14.298H14.0036Z" fill="#720C20" stroke="#720C20" stroke-width="0.518606"/>
<path d="M6.55439 21.7447H3.36297C2.58709 21.7447 1.84298 21.4364 1.29435 20.8878C0.745718 20.3392 0.4375 19.5951 0.4375 18.8192V15.6278C0.4375 14.8519 0.745718 14.1078 1.29435 13.5592C1.84298 13.0105 2.58709 12.7023 3.36297 12.7023H6.55439C7.33028 12.7023 8.07438 13.0105 8.62301 13.5592C9.17165 14.1078 9.47986 14.8519 9.47986 15.6278V18.8192C9.47986 19.5951 9.17165 20.3392 8.62301 20.8878C8.07438 21.4364 7.33028 21.7447 6.55439 21.7447ZM3.36297 14.298C3.0103 14.298 2.67207 14.4381 2.42269 14.6875C2.17331 14.9369 2.03321 15.2751 2.03321 15.6278V18.8192C2.03321 19.1719 2.17331 19.5101 2.42269 19.7595C2.67207 20.0089 3.0103 20.149 3.36297 20.149H6.55439C6.90707 20.149 7.2453 20.0089 7.49468 19.7595C7.74405 19.5101 7.88415 19.1719 7.88415 18.8192V15.6278C7.88415 15.2751 7.74405 14.9369 7.49468 14.6875C7.2453 14.4381 6.90707 14.298 6.55439 14.298H3.36297Z" fill="#720C20" stroke="#720C20" stroke-width="0.518606"/>
</svg>
