<svg width="22" height="23" viewBox="0 0 22 23" fill="none" xmlns="http://www.w3.org/2000/svg">
<path d="M18.2588 11.1062H14.0036C13.2277 11.1062 12.4836 10.798 11.935 10.2493C11.3863 9.70069 11.0781 8.95658 11.0781 8.1807V3.92547C11.0781 3.14959 11.3863 2.40548 11.935 1.85685C12.4836 1.30822 13.2277 1 14.0036 1H18.2588C19.0347 1 19.7788 1.30822 20.3274 1.85685C20.8761 2.40548 21.1843 3.14959 21.1843 3.92547V8.1807C21.1843 8.95658 20.8761 9.70069 20.3274 10.2493C19.7788 10.798 19.0347 11.1062 18.2588 11.1062ZM14.0036 2.59571C13.6509 2.59571 13.3127 2.73581 13.0633 2.98519C12.8139 3.23457 12.6738 3.5728 12.6738 3.92547V8.1807C12.6738 8.35533 12.7082 8.52824 12.7751 8.68958C12.8419 8.85091 12.9398 8.9975 13.0633 9.12098C13.1868 9.24446 13.3334 9.34241 13.4947 9.40924C13.6561 9.47606 13.829 9.51046 14.0036 9.51046H18.2588C18.6115 9.51046 18.9497 9.37036 19.1991 9.12098C19.4485 8.8716 19.5886 8.53337 19.5886 8.1807V3.92547C19.5886 3.5728 19.4485 3.23457 19.1991 2.98519C18.9497 2.73581 18.6115 2.59571 18.2588 2.59571H14.0036Z" fill="white" stroke="white" stroke-width="0.518606"/>
<path d="M6.55439 11.1058H3.36297C2.58709 11.1058 1.84298 10.7976 1.29435 10.249C0.745718 9.70036 0.4375 8.95625 0.4375 8.18037V4.98895C0.4375 4.21306 0.745718 3.46896 1.29435 2.92033C1.84298 2.37169 2.58709 2.06348 3.36297 2.06348H6.55439C7.33028 2.06348 8.07438 2.37169 8.62301 2.92033C9.17165 3.46896 9.47987 4.21306 9.47987 4.98895V8.18037C9.47987 8.95625 9.17165 9.70036 8.62301 10.249C8.07438 10.7976 7.33028 11.1058 6.55439 11.1058ZM3.36297 3.65919C3.0103 3.65919 2.67207 3.79929 2.42269 4.04867C2.17331 4.29804 2.03321 4.63627 2.03321 4.98895V8.18037C2.03321 8.355 2.06761 8.52791 2.13443 8.68925C2.20126 8.85058 2.29921 8.99717 2.42269 9.12065C2.54617 9.24413 2.69276 9.34208 2.85409 9.40891C3.01543 9.47573 3.18834 9.51013 3.36297 9.51013H6.55439C6.72902 9.51013 6.90194 9.47573 7.06327 9.40891C7.2246 9.34208 7.3712 9.24413 7.49468 9.12065C7.61816 8.99717 7.7161 8.85058 7.78293 8.68925C7.84976 8.52791 7.88415 8.355 7.88415 8.18037V4.98895C7.88415 4.63627 7.74405 4.29804 7.49468 4.04867C7.2453 3.79929 6.90707 3.65919 6.55439 3.65919H3.36297Z" fill="white" stroke="white" stroke-width="0.518606"/>
<path d="M17.195 21.7445H14.0036C13.2277 21.7445 12.4836 21.4363 11.935 20.8877C11.3863 20.339 11.0781 19.5949 11.0781 18.819V15.6276C11.0781 14.8517 11.3863 14.1076 11.935 13.559C12.4836 13.0104 13.2277 12.7021 14.0036 12.7021H17.195C17.9709 12.7021 18.715 13.0104 19.2636 13.559C19.8123 14.1076 20.1205 14.8517 20.1205 15.6276V18.819C20.1205 19.5949 19.8123 20.339 19.2636 20.8877C18.715 21.4363 17.9709 21.7445 17.195 21.7445ZM14.0036 14.2979C13.6509 14.2979 13.3127 14.438 13.0633 14.6873C12.8139 14.9367 12.6738 15.2749 12.6738 15.6276V18.819C12.6738 19.1717 12.8139 19.5099 13.0633 19.7593C13.3127 20.0087 13.6509 20.1488 14.0036 20.1488H17.195C17.5477 20.1488 17.8859 20.0087 18.1353 19.7593C18.3847 19.5099 18.5248 19.1717 18.5248 18.819V15.6276C18.5248 15.2749 18.3847 14.9367 18.1353 14.6873C17.8859 14.438 17.5477 14.2979 17.195 14.2979H14.0036Z" fill="white" stroke="white" stroke-width="0.518606"/>
<path d="M6.55439 21.7445H3.36297C2.58709 21.7445 1.84298 21.4363 1.29435 20.8877C0.745718 20.339 0.4375 19.5949 0.4375 18.819V15.6276C0.4375 14.8517 0.745718 14.1076 1.29435 13.559C1.84298 13.0104 2.58709 12.7021 3.36297 12.7021H6.55439C7.33028 12.7021 8.07438 13.0104 8.62301 13.559C9.17165 14.1076 9.47987 14.8517 9.47987 15.6276V18.819C9.47987 19.5949 9.17165 20.339 8.62301 20.8877C8.07438 21.4363 7.33028 21.7445 6.55439 21.7445ZM3.36297 14.2979C3.0103 14.2979 2.67207 14.438 2.42269 14.6873C2.17331 14.9367 2.03321 15.2749 2.03321 15.6276V18.819C2.03321 19.1717 2.17331 19.5099 2.42269 19.7593C2.67207 20.0087 3.0103 20.1488 3.36297 20.1488H6.55439C6.90707 20.1488 7.2453 20.0087 7.49468 19.7593C7.74405 19.5099 7.88415 19.1717 7.88415 18.819V15.6276C7.88415 15.2749 7.74405 14.9367 7.49468 14.6873C7.2453 14.438 6.90707 14.2979 6.55439 14.2979H3.36297Z" fill="white" stroke="white" stroke-width="0.518606"/>
</svg>
