<svg width="20" height="20" viewBox="0 0 20 20" fill="none" xmlns="http://www.w3.org/2000/svg">
<g id="Group 258">
<g id="Group">
<path id="Vector" d="M7.15574 9.46063H3.30489C2.034 9.46063 1 8.42663 1 7.15574V3.30468C1 2.03378 2.034 1 3.30489 1H7.15595C8.42685 1 9.46063 2.03378 9.46063 3.30468V7.15574C9.46041 8.42663 8.42663 9.46063 7.15574 9.46063ZM3.30489 1.85755C2.50672 1.85755 1.85755 2.50672 1.85755 3.30468V7.15574C1.85755 7.95391 2.50672 8.60308 3.30489 8.60308H7.15595C7.95391 8.60308 8.60308 7.95391 8.60308 7.15574V3.30468C8.60308 2.50672 7.95391 1.85755 7.15595 1.85755H3.30489Z" fill="black" stroke="black" stroke-width="0.6"/>
</g>
<g id="Group_2">
<path id="Vector_2" d="M16.6948 9.46063H12.844C11.5731 9.46063 10.5391 8.42663 10.5391 7.15574V3.30468C10.5391 2.03378 11.5731 1 12.844 1H16.6948C17.9657 1 18.9995 2.03378 18.9995 3.30468V7.15574C18.9995 8.42663 17.9657 9.46063 16.6948 9.46063ZM12.844 1.85755C12.0458 1.85755 11.3966 2.50672 11.3966 3.30468V7.15574C11.3966 7.95391 12.0458 8.60308 12.844 8.60308H16.6948C17.4928 8.60308 18.1419 7.95391 18.1419 7.15574V3.30468C18.1419 2.50672 17.4928 1.85755 16.6948 1.85755H12.844Z" fill="black" stroke="black" stroke-width="0.6"/>
</g>
<g id="Group_3">
<path id="Vector_3" d="M16.3708 18.9169H12.5197C11.2488 18.9169 10.2148 17.8829 10.2148 16.612V12.761C10.2148 11.4901 11.2488 10.4563 12.5197 10.4563H16.3708C17.6417 10.4563 18.6755 11.4901 18.6755 12.761V16.612C18.6755 17.8827 17.6417 18.9169 16.3708 18.9169ZM12.5197 11.3139C11.7216 11.3139 11.0724 11.963 11.0724 12.761V16.612C11.0724 17.4102 11.7216 18.0594 12.5197 18.0594H16.3708C17.1687 18.0594 17.8179 17.4102 17.8179 16.612V12.761C17.8179 11.963 17.1687 11.3139 16.3708 11.3139H12.5197Z" fill="black" stroke="black" stroke-width="0.6"/>
</g>
<g id="Group_4">
<path id="Vector_4" d="M7.15574 18.9169H3.30489C2.034 18.9169 1 17.8829 1 16.612V12.761C1 11.4901 2.034 10.4563 3.30489 10.4563H7.15595C8.42685 10.4563 9.46063 11.4901 9.46063 12.761V16.612C9.46041 17.8827 8.42663 18.9169 7.15574 18.9169ZM3.30489 11.3139C2.50672 11.3139 1.85755 11.963 1.85755 12.761V16.612C1.85755 17.4102 2.50672 18.0594 3.30489 18.0594H7.15595C7.95391 18.0594 8.60308 17.4102 8.60308 16.612V12.761C8.60308 11.963 7.95391 11.3139 7.15595 11.3139H3.30489Z" fill="black" stroke="black" stroke-width="0.6"/>
</g>
</g>
</svg>
