<svg width="27" height="32" viewBox="0 0 27 32" fill="none" xmlns="http://www.w3.org/2000/svg">
<g opacity="0.3">
<path opacity="0.3" d="M18.8542 6.56639C18.1162 6.56569 17.4086 6.2758 16.8867 5.76037C16.3649 5.24494 16.0714 4.54608 16.0707 3.81716V0H3.6326C2.66918 0 1.74521 0.378015 1.06397 1.05087C0.382722 1.72372 0 2.63628 0 3.58784V25.2163C0.00143068 26.1669 0.384781 27.0781 1.06587 27.7498C1.74696 28.4215 2.67011 28.7988 3.6326 28.7988H18.564C19.5265 28.7988 20.4496 28.4215 21.1307 27.7498C21.8118 27.0781 22.1951 26.1669 22.1966 25.2163V6.56639H18.8542Z" fill="#FF3E4C"/>
</g>
<path d="M22.1962 6.56639H18.8538C18.1158 6.56568 17.4082 6.27579 16.8864 5.76037C16.3645 5.24494 16.071 4.54608 16.0703 3.81716V0L22.1962 6.56639Z" fill="#FF3E4C"/>
<path d="M17.6302 20.1112H3.69372C3.55946 20.1112 3.4307 20.0585 3.33576 19.9647C3.24083 19.871 3.1875 19.7438 3.1875 19.6112C3.18786 19.4788 3.24135 19.352 3.33624 19.2585C3.43114 19.165 3.55969 19.1125 3.69372 19.1125H17.6302C17.7641 19.1125 17.8925 19.1651 17.9872 19.2586C18.0819 19.3521 18.135 19.4789 18.135 19.6112C18.1352 19.6768 18.1223 19.7418 18.097 19.8024C18.0717 19.8631 18.0346 19.9182 17.9877 19.9646C17.9408 20.0111 17.885 20.0479 17.8237 20.0731C17.7624 20.0982 17.6966 20.1112 17.6302 20.1112Z" fill="#FF3E4C"/>
<path d="M17.6302 14.4793H3.69372C3.55969 14.4793 3.43114 14.4268 3.33624 14.3333C3.24135 14.2399 3.18786 14.1131 3.1875 13.9807C3.1875 13.8481 3.24083 13.7209 3.33576 13.6271C3.4307 13.5334 3.55946 13.4807 3.69372 13.4807H17.6302C17.6966 13.4807 17.7624 13.4937 17.8237 13.5188C17.885 13.5439 17.9408 13.5808 17.9877 13.6272C18.0346 13.6737 18.0717 13.7288 18.097 13.7895C18.1223 13.8501 18.1352 13.9151 18.135 13.9807C18.135 14.1129 18.0819 14.2398 17.9872 14.3333C17.8925 14.4268 17.7641 14.4793 17.6302 14.4793Z" fill="#FF3E4C"/>
<path d="M17.6302 17.2953H3.69372C3.55946 17.2953 3.4307 17.2426 3.33576 17.1488C3.24083 17.055 3.1875 16.9279 3.1875 16.7953C3.18786 16.6629 3.24135 16.5361 3.33624 16.4426C3.43114 16.3491 3.55969 16.2966 3.69372 16.2966H17.6302C17.7641 16.2966 17.8925 16.3492 17.9872 16.4427C18.0819 16.5362 18.135 16.663 18.135 16.7953C18.1352 16.8609 18.1223 16.9259 18.097 16.9865C18.0717 17.0472 18.0346 17.1023 17.9877 17.1487C17.9408 17.1952 17.885 17.232 17.8237 17.2572C17.7624 17.2823 17.6966 17.2953 17.6302 17.2953Z" fill="#FF3E4C"/>
<path d="M12.1334 11.6634H3.69372C3.55969 11.6634 3.43114 11.6109 3.33624 11.5175C3.24135 11.424 3.18786 11.2971 3.1875 11.1648C3.1875 11.0322 3.24083 10.905 3.33576 10.8112C3.4307 10.7175 3.55946 10.6648 3.69372 10.6648H12.1334C12.2674 10.6651 12.3958 10.718 12.4904 10.8117C12.5851 10.9054 12.6382 11.0324 12.6382 11.1648C12.6379 11.2969 12.5846 11.4235 12.49 11.517C12.3954 11.6104 12.2671 11.6631 12.1334 11.6634Z" fill="#FF3E4C"/>
<path d="M12.1334 8.84774H3.69372C3.55969 8.84774 3.43114 8.79523 3.33624 8.70175C3.24135 8.60828 3.18786 8.48147 3.1875 8.3491C3.1875 8.2165 3.24083 8.0893 3.33576 7.99553C3.4307 7.90177 3.55946 7.84912 3.69372 7.84912H12.1334C12.2674 7.84947 12.3958 7.9023 12.4904 7.99602C12.5851 8.08975 12.6382 8.21673 12.6382 8.3491C12.6379 8.48124 12.5846 8.60786 12.49 8.7013C12.3954 8.79474 12.2671 8.84739 12.1334 8.84774Z" fill="#FF3E4C"/>
<path d="M24.8285 22.7471H7.9492C6.75188 22.7471 5.78125 23.7057 5.78125 24.8883V29.8588C5.78125 31.0413 6.75188 32 7.9492 32H24.8285C26.0258 32 26.9964 31.0413 26.9964 29.8588V24.8883C26.9964 23.7057 26.0258 22.7471 24.8285 22.7471Z" fill="#FF3E4C"/>
<path d="M11.3198 28.4495V29.4188H10.3047V28.4495H11.3198Z" fill="white"/>
<path d="M12.8173 28.0122V29.4188H11.8359V25.4097H13.4261C13.9081 25.4097 14.2766 25.5283 14.529 25.7643C14.6567 25.8883 14.7565 26.0375 14.8216 26.2023C14.8868 26.3671 14.9158 26.5436 14.907 26.7203C14.9119 26.9534 14.8536 27.1835 14.7382 27.3869C14.6204 27.5857 14.4457 27.7458 14.2361 27.8469C13.9832 27.9649 13.7057 28.022 13.4261 28.0136L12.8173 28.0122ZM13.9081 26.7203C13.9081 26.3647 13.711 26.1869 13.3168 26.1869H12.8173V27.2309H13.3168C13.711 27.2345 13.9081 27.0642 13.9081 26.7203Z" fill="white"/>
<path d="M18.7857 28.4522C18.6166 28.7554 18.3613 29.0029 18.0513 29.1642C17.7025 29.3406 17.3146 29.4281 16.9228 29.4188H15.3906V25.4097H16.9228C17.3148 25.3999 17.7033 25.4855 18.054 25.659C18.3632 25.8168 18.6178 26.0618 18.7857 26.363C18.9613 26.6826 19.0497 27.042 19.0421 27.4056C19.0495 27.7705 18.9611 28.131 18.7857 28.4522ZM17.73 28.2509C17.8398 28.1396 17.9248 28.007 17.9796 27.8614C18.0345 27.7159 18.058 27.5606 18.0486 27.4056C18.058 27.2508 18.0346 27.0957 17.9797 26.9503C17.9248 26.805 17.8398 26.6726 17.73 26.5616C17.4845 26.3488 17.1638 26.2405 16.8377 26.2603H16.372V28.5509H16.8377C17.1635 28.5704 17.484 28.4627 17.73 28.2509Z" fill="white"/>
<path d="M22.2409 25.4097V26.1816H20.5765V27.0602H21.8616V27.7976H20.5765V29.4188H19.5938V25.4097H22.2409Z" fill="white"/>
<path d="M17.3743 7.84888H14.9876C14.5716 7.84888 14.2344 8.18196 14.2344 8.59285V10.9501C14.2344 11.361 14.5716 11.694 14.9876 11.694H17.3743C17.7903 11.694 18.1275 11.361 18.1275 10.9501V8.59285C18.1275 8.18196 17.7903 7.84888 17.3743 7.84888Z" fill="#FF3E4C"/>
</svg>
