<svg width="36" height="36" viewBox="0 0 36 36" fill="none" xmlns="http://www.w3.org/2000/svg">
<g opacity="0.7">
<path d="M29.2793 8.92969C29.5801 9.25781 29.8379 9.70312 30.0527 10.2656C30.2676 10.8281 30.375 11.3438 30.375 11.8125V32.0625C30.375 32.5312 30.2246 32.9297 29.9238 33.2578C29.623 33.5859 29.2578 33.75 28.8281 33.75H7.17188C6.74219 33.75 6.37695 33.5859 6.07617 33.2578C5.77539 32.9297 5.625 32.5312 5.625 32.0625V3.9375C5.625 3.46875 5.77539 3.07031 6.07617 2.74219C6.37695 2.41406 6.74219 2.25 7.17188 2.25H21.6094C22.0391 2.25 22.5117 2.36719 23.0273 2.60156C23.543 2.83594 23.9512 3.11719 24.252 3.44531L29.2793 8.92969ZM22.125 4.64062V11.25H28.1836C28.0762 10.9102 27.958 10.6699 27.8291 10.5293L22.7856 5.02734C22.6567 4.88672 22.4365 4.75781 22.125 4.64062ZM28.3125 31.5V13.5H21.6094C21.1797 13.5 20.8145 13.3359 20.5137 13.0078C20.2129 12.6797 20.0625 12.2812 20.0625 11.8125V4.5H7.6875V31.5H28.3125ZM20.0303 21.0762C20.3848 21.3809 20.8359 21.709 21.3838 22.0605C22.0176 21.9785 22.646 21.9375 23.269 21.9375C24.8481 21.9375 25.7988 22.2246 26.1211 22.7988C26.293 23.0566 26.3037 23.3613 26.1533 23.7129C26.1533 23.7246 26.1479 23.7363 26.1372 23.748L26.105 23.7832V23.8008C26.0405 24.2461 25.6592 24.4688 24.9609 24.4688C24.4453 24.4688 23.8276 24.3516 23.1079 24.1172C22.3882 23.8828 21.6899 23.5723 21.0132 23.1855C18.6392 23.4668 16.5337 23.9531 14.6968 24.6445C13.0532 27.7148 11.7534 29.25 10.7974 29.25C10.6362 29.25 10.4858 29.209 10.3462 29.127L9.95947 28.916C9.94873 28.9043 9.9165 28.875 9.86279 28.8281C9.75537 28.7109 9.72314 28.5 9.76611 28.1953C9.86279 27.7266 10.1636 27.1904 10.6685 26.5869C11.1733 25.9834 11.8823 25.418 12.7954 24.8906C12.9458 24.7852 13.0693 24.8203 13.166 24.9961C13.1875 25.0195 13.1982 25.043 13.1982 25.0664C13.7568 24.0703 14.3315 22.916 14.9224 21.6035C15.6528 20.0098 16.2114 18.4746 16.5981 16.998C16.3403 16.0371 16.1765 15.1025 16.1067 14.1943C16.0369 13.2861 16.0718 12.5391 16.2114 11.9531C16.3296 11.4844 16.5552 11.25 16.8882 11.25H17.2427C17.4897 11.25 17.6777 11.3379 17.8066 11.5137C18 11.7598 18.0483 12.1582 17.9517 12.709C17.9302 12.7793 17.9087 12.8262 17.8872 12.8496C17.8979 12.8848 17.9033 12.9316 17.9033 12.9902V13.5176C17.8818 14.959 17.8066 16.084 17.6777 16.8926C18.2686 18.8145 19.0527 20.209 20.0303 21.0762ZM10.749 28.3008C11.3076 28.0195 12.0435 27.0938 12.9565 25.5234C12.4087 25.9922 11.9387 26.4844 11.5466 27C11.1545 27.5156 10.8887 27.9492 10.749 28.3008ZM17.1621 12.1289C17.001 12.6211 16.9902 13.3945 17.1299 14.4492C17.1406 14.3672 17.1782 14.1094 17.2427 13.6758C17.2427 13.6406 17.2803 13.3887 17.3555 12.9199C17.3662 12.873 17.3877 12.8262 17.4199 12.7793C17.4092 12.7676 17.4038 12.7559 17.4038 12.7441C17.3931 12.7207 17.3877 12.7031 17.3877 12.6914C17.377 12.4336 17.3071 12.2227 17.1782 12.0586C17.1782 12.0703 17.1729 12.082 17.1621 12.0938V12.1289ZM15.1641 23.748C16.6143 23.1152 18.1396 22.6406 19.7402 22.3242C19.7187 22.3125 19.6489 22.2568 19.5308 22.1572C19.4126 22.0576 19.3267 21.9785 19.2729 21.9199C18.4565 21.1348 17.7744 20.1035 17.2266 18.8262C16.9365 19.834 16.4907 20.9883 15.8892 22.2891C15.5669 22.9453 15.3252 23.4316 15.1641 23.748ZM25.5732 23.4668C25.3154 23.1855 24.5635 23.0449 23.3174 23.0449C24.1338 23.373 24.7998 23.5371 25.3154 23.5371C25.4658 23.5371 25.5625 23.5313 25.6055 23.5195C25.6055 23.5078 25.5947 23.4902 25.5732 23.4668Z" fill="black"/>
</g>
</svg>
