<svg width="25" height="24" viewBox="0 0 25 24" fill="none" xmlns="http://www.w3.org/2000/svg">
<path d="M20.2197 0.939592L17.7011 3.22744C17.4665 3.44664 17.447 3.85788 17.6599 4.09686L21.3652 8.10699C21.5812 8.35224 22.0028 8.37335 22.2441 8.15125L24.7534 5.86047C24.988 5.64127 25.0075 5.23003 24.7946 4.99106L21.0893 0.980918C20.8039 0.757451 20.5088 0.664237 20.2197 0.939592V0.939592ZM16.7596 4.44128C16.5653 4.39801 16.3512 4.45579 16.205 4.59066L3.38261 16.241C3.31388 16.306 3.26022 16.3871 3.22715 16.476C3.10355 16.7957 2.55745 18.1054 2.01932 19.4007C1.48112 20.6963 0.950283 21.9699 0.79977 22.3626C0.71959 22.5756 0.769303 22.8316 0.923225 22.9993C1.07714 23.167 1.32802 23.2383 1.54702 23.1769C1.9536 23.0626 3.27527 22.6596 4.62272 22.2415C5.97018 21.8235 7.3385 21.3916 7.67066 21.2973C7.76138 21.2717 7.8463 21.2249 7.91643 21.162L20.733 9.53003C20.975 9.30976 20.9919 8.88731 20.7678 8.64863L17.0745 4.63208C16.992 4.53878 16.8805 4.47119 16.7593 4.4413L16.7596 4.44128ZM7.20284 20.1453C6.82117 20.3634 5.54721 20.6513 4.25823 21.0511C3.45808 21.2992 3.04254 21.4239 2.44944 21.6056C2.68351 21.0365 2.83928 20.6443 3.15628 19.8815C3.6668 18.6528 4.13768 17.5282 4.31703 17.0736C4.02502 16.8831 7.50451 20.2545 7.20263 20.1453L7.20284 20.1453Z" fill="black"/>
</svg>
