<svg width="45" height="45" viewBox="0 0 45 45" fill="none" xmlns="http://www.w3.org/2000/svg">
<circle cx="22.5" cy="22.5" r="22.5" fill="#D9D9D9"/>
<path d="M29.916 17.5308L23.9846 14.3624C23.9846 14.3624 26.7954 10.768 27.624 9.65805C29.761 6.81228 31.7357 6.58637 33.3463 7.43167C34.957 8.27051 35.5997 9.85809 33.4625 12.7039C32.6107 13.8398 29.916 17.5308 29.916 17.5308H29.916ZM11.2632 35.7286C11.2478 35.748 11.2246 35.7673 11.2089 35.7867C11.0385 36.0126 10.9767 36.2899 11.0077 36.5352C11.0231 36.6579 11.0542 36.774 11.0928 36.858C11.1082 36.8967 11.1314 36.9354 11.1392 36.9613C11.1546 36.9872 11.1546 37 11.1546 37H11.2011C11.2321 37 11.2862 37 11.3326 36.9872C11.4409 36.9743 11.5805 36.9485 11.7199 36.9032C12.0064 36.8193 12.2697 36.6451 12.4398 36.4193C12.4552 36.4 12.4631 36.3741 12.4785 36.3547C14.4221 36.2064 18.0457 33.225 21.1972 29.0305C22.6063 27.1525 29.4824 18.1437 29.4824 18.1437L23.5742 14.943C23.5742 14.943 16.799 24.0678 15.3589 25.9842C12.2153 30.185 10.5739 34.2056 11.2631 35.7284L11.2632 35.7286ZM36.8074 11.4327L36.4434 11.2456C36.2189 11.1295 35.886 11.2263 35.7077 11.4716L28.3593 21.2607C28.1813 21.4995 28.2121 21.7964 28.4368 21.9125L28.8008 22.0995C29.0252 22.2157 29.3582 22.1189 29.5365 21.8736L36.8849 12.0844C37.0632 11.8393 37.0321 11.5488 36.8074 11.4327V11.4327Z" fill="#751521"/>
</svg>
