<svg width="24" height="18" viewBox="0 0 24 18" fill="none" xmlns="http://www.w3.org/2000/svg">
<g id="Group">
<path id="Vector" d="M7.07663 3.22217C9.70964 3.22217 11.7941 5.36149 11.7941 7.93964C11.7941 9.47556 11.081 10.9018 9.81935 11.7794C11.9038 12.6023 13.4946 14.3576 14.1528 16.4421C14.2625 16.826 14.098 17.21 13.714 17.3197C13.33 17.4294 12.946 17.2649 12.8363 16.8809C12.0684 14.3576 9.70964 12.6571 7.07663 12.6571C4.49848 12.6571 2.13974 14.3576 1.37178 16.8809C1.26208 17.2649 0.878095 17.4294 0.494115 17.3197C0.110135 17.21 -0.109282 16.826 0.0552809 16.4421C0.713533 14.3576 2.30431 12.6023 4.38877 11.7794C3.12712 10.9018 2.35916 9.47556 2.35916 7.93964C2.35916 5.36149 4.49848 3.22217 7.07663 3.22217ZM7.07663 4.64838C5.26644 4.64838 3.78537 6.12945 3.78537 7.93964C3.78537 9.80468 5.26644 11.2858 7.07663 11.2858C8.94168 11.2858 10.4227 9.80468 10.4227 7.93964C10.4227 6.12945 8.94168 4.64838 7.07663 4.64838Z" fill="black"/>
<path id="Vector_2" d="M17.3342 0.150391C19.7478 0.150391 21.7774 2.12515 21.7774 4.59359C21.7774 6.0198 21.1192 7.3363 19.9672 8.15912C21.8871 8.98193 23.3133 10.5727 23.9716 12.5475C24.0813 12.8766 23.8619 13.2606 23.4779 13.3703C23.1488 13.5348 22.7099 13.3154 22.6002 12.9314C21.8871 10.6276 19.7478 9.03679 17.3342 9.03679C15.6337 9.03679 14.043 9.80475 13.0007 11.1213C12.7265 11.4504 12.2876 11.5052 12.0133 11.231C11.6842 11.0115 11.6294 10.5727 11.9036 10.2436C12.6167 9.36591 13.6041 8.65281 14.6464 8.15912C13.5493 7.3363 12.891 6.0198 12.891 4.59359C12.891 2.12515 14.8658 0.150391 17.3342 0.150391ZM17.3342 1.52175C15.6337 1.52175 14.2624 2.89311 14.2624 4.59359C14.2624 6.29407 15.6337 7.66543 17.3342 7.66543C18.9798 7.66543 20.3512 6.29407 20.3512 4.59359C20.3512 2.89311 18.9798 1.52175 17.3342 1.52175Z" fill="black"/>
</g>
</svg>
