<svg width="46" height="47" viewBox="0 0 46 47" fill="none" xmlns="http://www.w3.org/2000/svg">
<circle cx="23" cy="23" r="23" fill="#C4C4C4" fill-opacity="0.5"/>
<circle cx="23" cy="23" r="23" stroke="#C4C4C4"/>
<path d="M25.5 10H23.95C23.7 8.85 22.7 8 21.5 8C20.3 8 19.3 8.85 19.05 10H17.5C16.95 10 16.5 10.45 16.5 11V15C16.5 15.55 16.95 16 17.5 16H25.5C26.05 16 26.5 15.55 26.5 15V11C26.5 10.45 26.05 10 25.5 10Z" fill="#76272C"/>
<path d="M30 23.7497L31.45 24.7497L31.75 22.9497H32V13C32 12.45 31.55 12 31 12H27.5V14H30V23.7497Z" fill="#76272C"/>
<path d="M27.8 33.5498L26 33.2498V32.9998H13V13.9998H15.5V11.9998H12C11.45 11.9998 11 12.4498 11 12.9998V33.9998C11 34.5498 11.45 34.9998 12 34.9998H26.7497L27.8 33.5498Z" fill="#76272C"/>
<path d="M26 28.7498L27.8 28.4498L26.75 26.9498L29 24.6998V14.9998H27.5C27.5 16.0998 26.6 16.9998 25.5 16.9998H17.5C16.4 16.9998 15.5 16.0998 15.5 14.9998H14V31.9998H26V28.7498ZM21.5 18C22.9 18 24 19.1 24 20.5C24 21.9 22.9 23 21.5 23C20.1 23 19 21.9 19 20.5C19 19.1 20.1 18 21.5 18ZM25.5 30H17.5V25.5C17.5 24.65 18.15 24 19 24H24C24.85 24 25.5 24.65 25.5 25.5V30Z" fill="#76272C"/>
<path d="M41 32.4V29.55L39.2 29.25L38.9 28.5L39.95 27.05L37.95 25.05L36.5 26.1C36.25 26 36 25.85 35.75 25.8L35.4 24H32.55L32.25 25.8L31.5 26.1L30.05 25.05L28.05 27.05L29.1 28.5C29 28.75 28.85 29 28.8 29.25L27 29.6V32.45L28.8 32.75L29.1 33.5L28.05 34.95L30.05 36.95L31.5 35.9C31.75 36 32 36.15 32.25 36.2L32.55 38H35.4L35.7 36.2L36.45 35.9L37.9 36.95L39.9 34.95L38.85 33.5C38.95 33.25 39.1 33 39.15 32.75L41 32.4ZM34 33C32.9 33 32 32.1 32 31C32 29.9 32.9 29 34 29C35.1 29 36 29.9 36 31C36 32.1 35.1 33 34 33Z" fill="#76272C"/>
</svg>
