<svg width="46" height="46" viewBox="0 0 46 46" fill="none" xmlns="http://www.w3.org/2000/svg">
<path d="M46 22.5106C46 34.9429 35.7025 45.0213 23 45.0213C10.2975 45.0213 0 34.9429 0 22.5106C0 10.0784 10.2975 0 23 0C35.7025 0 46 10.0784 46 22.5106Z" fill="white"/>
<path d="M46 22.5106C46 34.9429 35.7025 45.0213 23 45.0213C10.2975 45.0213 0 34.9429 0 22.5106C0 10.0784 10.2975 0 23 0C35.7025 0 46 10.0784 46 22.5106Z" stroke="white"/>
<path d="M25.5 9.78723H23.95C23.7 8.6617 22.7 7.82979 21.5 7.82979C20.3 7.82979 19.3 8.6617 19.05 9.78723H17.5C16.95 9.78723 16.5 10.2277 16.5 10.766V14.6809C16.5 15.2191 16.95 15.6596 17.5 15.6596H25.5C26.05 15.6596 26.5 15.2191 26.5 14.6809V10.766C26.5 10.2277 26.05 9.78723 25.5 9.78723Z" fill="#76272C"/>
<path d="M30 23.2444L31.45 24.2231L31.75 22.4614H32V12.7234C32 12.1851 31.55 11.7447 31 11.7447H27.5V13.7021H30V23.2444Z" fill="#76272C"/>
<path d="M27.8 32.8359L26 32.5423V32.2976H13V13.7018H15.5V11.7444H12C11.45 11.7444 11 12.1848 11 12.7231V33.2763C11 33.8146 11.45 34.255 12 34.255H26.7497L27.8 32.8359Z" fill="#76272C"/>
<path d="M26 28.138L27.8 27.8444L26.75 26.3763L29 24.1742V14.6806H27.5C27.5 15.7572 26.6 16.638 25.5 16.638H17.5C16.4 16.638 15.5 15.7572 15.5 14.6806H14V31.3189H26V28.138ZM21.5 17.617C22.9 17.617 24 18.6936 24 20.0638C24 21.434 22.9 22.5106 21.5 22.5106C20.1 22.5106 19 21.434 19 20.0638C19 18.6936 20.1 17.617 21.5 17.617ZM25.5 29.3617H17.5V24.9574C17.5 24.1255 18.15 23.4894 19 23.4894H24C24.85 23.4894 25.5 24.1255 25.5 24.9574V29.3617Z" fill="#76272C"/>
<path d="M41 31.7106V28.9213L39.2 28.6277L38.9 27.8936L39.95 26.4745L37.95 24.517L36.5 25.5447C36.25 25.4468 36 25.3 35.75 25.2511L35.4 23.4894H32.55L32.25 25.2511L31.5 25.5447L30.05 24.517L28.05 26.4745L29.1 27.8936C29 28.1383 28.85 28.383 28.8 28.6277L27 28.9702V31.7596L28.8 32.0532L29.1 32.7872L28.05 34.2064L30.05 36.1638L31.5 35.1362C31.75 35.234 32 35.3809 32.25 35.4298L32.55 37.1915H35.4L35.7 35.4298L36.45 35.1362L37.9 36.1638L39.9 34.2064L38.85 32.7872C38.95 32.5426 39.1 32.2979 39.15 32.0532L41 31.7106ZM34 32.2979C32.9 32.2979 32 31.417 32 30.3404C32 29.2638 32.9 28.383 34 28.383C35.1 28.383 36 29.2638 36 30.3404C36 31.417 35.1 32.2979 34 32.2979Z" fill="#76272C"/>
</svg>
