<svg width="16" height="16" viewBox="0 0 16 16" fill="none" xmlns="http://www.w3.org/2000/svg">
<path d="M14.3734 6.40288C12.6224 10.216 9.51116 13.2381 5.64882 14.8776L5.02864 15.1539C4.34184 15.4597 3.56915 15.5134 2.8467 15.3053C2.12426 15.0972 1.49843 14.6409 1.0795 14.0166L0.268691 12.8091C0.141813 12.6197 0.0904481 12.3897 0.124716 12.1643C0.158984 11.9389 0.276402 11.7346 0.453836 11.5915L3.2009 9.37523C3.29657 9.29809 3.40685 9.24109 3.5251 9.20764C3.64335 9.17419 3.76714 9.16499 3.88903 9.18058C4.01093 9.19616 4.12842 9.23623 4.23445 9.29836C4.34048 9.36049 4.43285 9.4434 4.50604 9.54213L5.35606 10.6886C7.53802 9.61093 9.30418 7.84446 10.3814 5.6623L9.23589 4.81228C9.13716 4.7391 9.05424 4.64672 8.99211 4.54069C8.92998 4.43467 8.88992 4.31718 8.87433 4.19528C8.85874 4.07338 8.86795 3.94959 8.9014 3.83134C8.93485 3.71309 8.99185 3.60282 9.06898 3.50715L11.2852 0.76008C11.4283 0.582645 11.6327 0.465229 11.8581 0.430961C12.0834 0.396693 12.3134 0.448057 12.5028 0.574935L13.7186 1.3903C14.3466 1.81146 14.8047 2.4419 15.0113 3.1693C15.218 3.8967 15.1596 4.67383 14.8468 5.36224L14.3734 6.40288Z" fill="black" fill-opacity="0.8"/>
</svg>
