<svg width="29" height="26" viewBox="0 0 29 26" fill="none" xmlns="http://www.w3.org/2000/svg">
<path d="M13.7558 19.0811V15.2748H17.5183V12.3873H13.7558V8.58105H10.7371V12.3873H7.01831V15.3623H10.8246V19.0811H13.7558Z" fill="#0056A5"/>
<path d="M27.3624 2.01875C26.9687 1.66875 26.4874 1.40625 26.0499 1.1875C26.0062 1.14375 25.9624 1.14375 25.9187 1.1C25.6562 0.925 25.3062 0.75 24.9999 0.75C24.8249 0.75 24.6937 0.79375 24.5624 0.88125C24.2124 1.14375 24.0374 1.45 24.0374 1.8C24.0812 2.0625 24.2562 2.325 24.6062 2.5C24.7374 2.54375 24.8249 2.5875 24.9562 2.5875C25.1312 2.5875 25.3062 2.54375 25.4374 2.45625C25.5687 2.4125 25.6562 2.36875 25.7874 2.36875C26.0937 2.36875 26.4437 2.7625 26.7499 3.41875C27.1437 4.3375 26.7062 5.43125 26.3124 6.39375L26.0499 7.05C25.6999 7.96875 25.3499 8.93125 24.9999 9.85C24.7374 9.98125 24.5624 10.2 24.5187 10.5063C24.2124 12.475 23.2062 12.65 22.8999 12.65H22.8562H22.8124C22.3312 12.65 21.9374 12.3 21.6312 11.6875L21.4999 11.4688C21.2812 10.9875 21.1937 10.55 21.1937 10.5063C21.1499 10.2438 21.0187 10.0688 20.7999 9.9375C20.7999 9.89375 20.7562 9.80625 20.7124 9.7625C20.2312 8.40625 19.5749 6.6125 19.0062 4.81875C18.7437 3.9875 18.9624 3.24375 19.6187 2.63125C19.7937 2.5 19.9687 2.36875 20.1437 2.4125C20.2312 2.4125 20.2749 2.45625 20.3624 2.5C20.4937 2.54375 20.6249 2.63125 20.7999 2.63125H20.8437C21.3687 2.63125 21.8937 2.28125 21.8937 1.7125C21.8937 1.45 21.8062 1.23125 21.6312 1.05625C21.4562 0.88125 21.2374 0.79375 20.9312 0.8375C20.6687 0.8375 20.4499 0.925 20.2312 1.0125C20.0999 1.05625 19.9687 1.1 19.8374 1.14375C19.0937 1.31875 18.4812 1.84375 18.0874 2.54375C17.6499 3.375 17.5187 4.38125 17.8249 5.3C18.3499 6.91875 18.9187 8.625 19.4874 10.375C19.4437 10.5063 19.3999 10.6813 19.4437 10.8563C19.5312 11.3375 19.6624 11.775 19.8374 12.2125C20.1437 12.9125 20.6249 13.6125 21.3249 14.05L21.8499 14.3125H22.0249C22.0249 14.6188 21.9812 14.925 21.9374 15.2313C21.8062 16.9375 21.0624 18.6 19.9687 20C17.7812 22.7125 14.4127 24.0688 10.9997 23.5875C9.94967 23.4563 8.94342 23.15 8.02467 22.7125L7.58717 22.4938L7.32467 22.5375L6.88717 22.625C6.49342 22.7563 6.14342 22.8438 5.74967 22.8875C5.61842 22.9313 5.48717 22.9313 5.35592 22.9313L5.13717 22.975C4.52467 23.0625 3.82467 23.0625 3.03717 22.9313H2.94967C2.81842 22.9313 2.73092 22.8875 2.64342 22.8875L4.17467 21.3563L4.91842 20.4813L4.26217 19.5625C2.81842 17.5063 2.16217 15.0125 2.51217 12.5185C2.73092 10.7248 3.47467 9.06225 4.61217 7.66225C6.31842 5.56225 8.63717 4.2935 11.2622 4.031C11.5684 4.6435 12.2247 5.12475 12.9684 5.12475C14.0184 5.12475 14.8497 4.2935 14.8497 3.2435C14.8497 2.1935 14.0184 1.36225 12.9684 1.36225C12.1809 1.36225 11.5247 1.8435 11.2184 2.49975C8.11217 2.76225 5.31242 4.24975 3.34342 6.7435C2.03092 8.36225 1.19967 10.331 0.937169 12.3875C0.543419 15.2313 1.24342 18.1185 2.90592 20.4815L2.77467 20.6128L1.37467 21.969C0.980919 22.3628 0.849669 22.8878 0.980919 23.369C1.19967 23.9815 1.76842 24.3753 2.77467 24.5065H2.86217C3.78092 24.6378 4.61217 24.6378 5.35592 24.5503L5.53092 24.5065C5.66217 24.5065 5.83717 24.4628 6.01217 24.4628C6.44967 24.3753 6.84342 24.2878 7.28092 24.1565C8.33092 24.6815 9.51217 25.0315 10.6934 25.1628C11.2622 25.2503 11.7872 25.2503 12.3122 25.2503C15.7247 25.2503 18.9622 23.719 21.1932 20.9628C22.5057 19.344 23.3369 17.3753 23.5994 15.3188C23.6432 14.925 23.6869 14.575 23.6869 14.1813C24.2994 14.05 24.9119 13.5688 25.2619 13.0875C25.7869 12.4313 26.0494 11.5563 26.2244 10.725V10.375C26.2682 10.2 26.3557 10.025 26.3994 9.80625C26.6182 9.15 26.8807 8.45 27.0994 7.79375C27.3619 7.00625 27.6682 6.21875 27.9307 5.3875C28.0619 5.0375 28.1494 4.6 28.1494 4.1625C28.1932 3.2875 27.8869 2.5 27.3619 2.01875H27.3624Z" fill="#0056A5"/>
</svg>
