<svg width="12" height="4" viewBox="0 0 12 4" fill="none" xmlns="http://www.w3.org/2000/svg">
<path d="M5.9974 2.66536C6.36559 2.66536 6.66406 2.36689 6.66406 1.9987C6.66406 1.63051 6.36559 1.33203 5.9974 1.33203C5.62921 1.33203 5.33073 1.63051 5.33073 1.9987C5.33073 2.36689 5.62921 2.66536 5.9974 2.66536Z" stroke="white" stroke-linecap="round" stroke-linejoin="round"/>
<path d="M10.6641 2.66536C11.0323 2.66536 11.3307 2.36689 11.3307 1.9987C11.3307 1.63051 11.0323 1.33203 10.6641 1.33203C10.2959 1.33203 9.9974 1.63051 9.9974 1.9987C9.9974 2.36689 10.2959 2.66536 10.6641 2.66536Z" stroke="white" stroke-linecap="round" stroke-linejoin="round"/>
<path d="M1.33073 2.66536C1.69892 2.66536 1.9974 2.36689 1.9974 1.9987C1.9974 1.63051 1.69892 1.33203 1.33073 1.33203C0.962539 1.33203 0.664062 1.63051 0.664062 1.9987C0.664062 2.36689 0.962539 2.66536 1.33073 2.66536Z" stroke="white" stroke-linecap="round" stroke-linejoin="round"/>
</svg>
