<svg width="15" height="13" viewBox="0 0 15 13" fill="none" xmlns="http://www.w3.org/2000/svg">
<path id="Vector" d="M4.70139 0.458008H10.2986C10.5984 0.457988 10.8868 0.57268 11.1047 0.778556C11.3226 0.984432 11.4534 1.26588 11.4704 1.56517L11.4722 1.63162V2.62431L12.1042 2.62467C13.1514 2.62467 14 3.47329 14 4.52051V9.39551C14 9.70677 13.8764 10.0053 13.6563 10.2254C13.4362 10.4455 13.1376 10.5691 12.8264 10.5691L11.4722 10.5688V11.2011C11.4722 11.5123 11.3486 11.8108 11.1285 12.0309C10.9084 12.251 10.6099 12.3747 10.2986 12.3747H4.70139C4.39013 12.3747 4.09162 12.251 3.87152 12.0309C3.65143 11.8108 3.52778 11.5123 3.52778 11.2011V10.5688L2.17361 10.5691C1.86235 10.5691 1.56384 10.4455 1.34374 10.2254C1.12365 10.0053 1 9.70677 1 9.39551V4.52051C1 3.47329 1.84861 2.62467 2.89583 2.62467L3.52778 2.62431V1.63162C3.52776 1.33185 3.64245 1.04343 3.84833 0.825535C4.0542 0.60764 4.33565 0.476785 4.63494 0.459813L4.70139 0.458008ZM10.2986 7.86079H4.70139C4.62956 7.86079 4.56067 7.88932 4.50988 7.94011C4.45909 7.9909 4.43056 8.05979 4.43056 8.13162V11.2011C4.43056 11.3506 4.55189 11.4719 4.70139 11.4719H10.2986C10.3704 11.4719 10.4393 11.4434 10.4901 11.3926C10.5409 11.3418 10.5694 11.2729 10.5694 11.2011V8.13162C10.5694 8.05979 10.5409 7.9909 10.4901 7.94011C10.4393 7.88932 10.3704 7.86079 10.2986 7.86079ZM12.1042 3.52745H2.89583C2.63246 3.52745 2.37987 3.63208 2.19364 3.81831C2.0074 4.00455 1.90278 4.25713 1.90278 4.52051V9.39551C1.90278 9.54501 2.02411 9.66634 2.17361 9.66634L3.52778 9.66598V8.13162C3.52778 7.82036 3.65143 7.52184 3.87152 7.30175C4.09162 7.08166 4.39013 6.95801 4.70139 6.95801H10.2986C10.6099 6.95801 10.9084 7.08166 11.1285 7.30175C11.3486 7.52184 11.4722 7.82036 11.4722 8.13162V9.66598L12.8264 9.66634C12.8982 9.66634 12.9671 9.63781 13.0179 9.58702C13.0687 9.53622 13.0972 9.46734 13.0972 9.39551V4.52051C13.0972 4.25713 12.9926 4.00455 12.8064 3.81831C12.6201 3.63208 12.3675 3.52745 12.1042 3.52745ZM10.2986 1.36079H4.70139C4.63594 1.36079 4.57271 1.38449 4.52339 1.42751C4.47406 1.47052 4.44198 1.52995 4.43308 1.59479L4.43056 1.63162V2.62431H10.5694V1.63162C10.5694 1.56617 10.5457 1.50294 10.5027 1.45362C10.4597 1.40429 10.4003 1.37221 10.3354 1.36331L10.2986 1.36079Z" fill="#333333" stroke="#333333" stroke-width="0.2"/>
</svg>
