<svg width="17" height="18" viewBox="0 0 17 18" fill="none" xmlns="http://www.w3.org/2000/svg">
<path d="M11 2.83333C11 2.36662 11 2.13327 10.9092 1.95501C10.8293 1.79821 10.7018 1.67072 10.545 1.59083C10.3667 1.5 10.1334 1.5 9.66667 1.5H7.33333C6.86662 1.5 6.63327 1.5 6.45501 1.59083C6.29821 1.67072 6.17072 1.79821 6.09083 1.95501C6 2.13327 6 2.36662 6 2.83333V5.16667C6 5.63338 6 5.86673 5.90917 6.04499C5.82928 6.20179 5.70179 6.32928 5.54499 6.40917C5.36673 6.5 5.13338 6.5 4.66667 6.5H2.33333C1.86662 6.5 1.63327 6.5 1.45501 6.59083C1.29821 6.67072 1.17072 6.79821 1.09083 6.95501C1 7.13327 1 7.36662 1 7.83333V10.1667C1 10.6334 1 10.8667 1.09083 11.045C1.17072 11.2018 1.29821 11.3293 1.45501 11.4092C1.63327 11.5 1.86662 11.5 2.33333 11.5H4.66667C5.13338 11.5 5.36673 11.5 5.54499 11.5908C5.70179 11.6707 5.82928 11.7982 5.90917 11.955C6 12.1333 6 12.3666 6 12.8333V15.1667C6 15.6334 6 15.8667 6.09083 16.045C6.17072 16.2018 6.29821 16.3293 6.45501 16.4092C6.63327 16.5 6.86662 16.5 7.33333 16.5H9.66667C10.1334 16.5 10.3667 16.5 10.545 16.4092C10.7018 16.3293 10.8293 16.2018 10.9092 16.045C11 15.8667 11 15.6334 11 15.1667V12.8333C11 12.3666 11 12.1333 11.0908 11.955C11.1707 11.7982 11.2982 11.6707 11.455 11.5908C11.6333 11.5 11.8666 11.5 12.3333 11.5H14.6667C15.1334 11.5 15.3667 11.5 15.545 11.4092C15.7018 11.3293 15.8293 11.2018 15.9092 11.045C16 10.8667 16 10.6334 16 10.1667V7.83333C16 7.36662 16 7.13327 15.9092 6.95501C15.8293 6.79821 15.7018 6.67072 15.545 6.59083C15.3667 6.5 15.1334 6.5 14.6667 6.5L12.3333 6.5C11.8666 6.5 11.6333 6.5 11.455 6.40917C11.2982 6.32928 11.1707 6.20179 11.0908 6.04499C11 5.86673 11 5.63338 11 5.16667V2.83333Z" stroke="#720D21" stroke-width="1.66667" stroke-linecap="round" stroke-linejoin="round"/>
</svg>
