<svg width="20" height="18" viewBox="0 0 20 18" fill="none" xmlns="http://www.w3.org/2000/svg">
<path d="M1.66406 13.1667V13.0415C1.66406 12.7778 1.66406 12.6459 1.68424 12.5174C1.70215 12.4033 1.73186 12.2914 1.77291 12.1835C1.81913 12.062 1.88456 11.9475 2.01541 11.7185L4.9974 6.5M1.66406 13.1667C1.66406 15.0076 3.15645 16.5 4.9974 16.5C6.83835 16.5 8.33073 15.0076 8.33073 13.1667M1.66406 13.1667V13C1.66406 12.7666 1.66406 12.65 1.70948 12.5608C1.74942 12.4824 1.81317 12.4187 1.89157 12.3787C1.9807 12.3333 2.09737 12.3333 2.33073 12.3333H7.66406C7.89742 12.3333 8.0141 12.3333 8.10323 12.3787C8.18163 12.4187 8.24537 12.4824 8.28532 12.5608C8.33073 12.65 8.33073 12.7666 8.33073 13V13.1667M4.9974 6.5L7.97938 11.7185C8.11023 11.9475 8.17566 12.062 8.22188 12.1835C8.26293 12.2914 8.29265 12.4033 8.31056 12.5174C8.33073 12.6459 8.33073 12.7778 8.33073 13.0415V13.1667M4.9974 6.5L14.9974 4.83333M11.6641 11.5V11.3748C11.6641 11.1111 11.6641 10.9792 11.6842 10.8507C11.7021 10.7367 11.7319 10.6248 11.7729 10.5168C11.8191 10.3953 11.8846 10.2808 12.0154 10.0518L14.9974 4.83333M11.6641 11.5C11.6641 13.3409 13.1564 14.8333 14.9974 14.8333C16.8383 14.8333 18.3307 13.3409 18.3307 11.5M11.6641 11.5V11.3333C11.6641 11.1 11.6641 10.9833 11.7095 10.8942C11.7494 10.8158 11.8132 10.752 11.8916 10.7121C11.9807 10.6667 12.0974 10.6667 12.3307 10.6667H17.6641C17.8974 10.6667 18.0141 10.6667 18.1032 10.7121C18.1816 10.752 18.2454 10.8158 18.2853 10.8942C18.3307 10.9833 18.3307 11.1 18.3307 11.3333V11.5M14.9974 4.83333L17.9794 10.0518C18.1102 10.2808 18.1757 10.3953 18.2219 10.5168C18.2629 10.6248 18.2926 10.7367 18.3106 10.8507C18.3307 10.9792 18.3307 11.1111 18.3307 11.3748V11.5M9.9974 1.5V5.66667" stroke="#767676" stroke-width="1.66667" stroke-linecap="round" stroke-linejoin="round"/>
</svg>
