<svg width="61" height="60" viewBox="0 0 61 60" fill="none" xmlns="http://www.w3.org/2000/svg">
<g clip-path="url(#clip0_1_2)">
<path d="M30.5 0C13.725 0 0 13.5 0 30C0 46.5 13.725 60 30.5 60C47.3703 60 61 46.5 61 30C61 13.5 47.3703 0 30.5 0ZM30.5 58.2188C14.6781 58.2188 1.81094 45.5625 1.81094 30C1.81094 14.4375 14.6781 1.78125 30.5 1.78125C46.3219 1.78125 59.1891 14.4375 59.1891 30C59.1891 45.5625 46.3219 58.2188 30.5 58.2188Z" fill="#4C4744"/>
<path d="M30.5 1.78125C14.6781 1.78125 1.81094 14.4375 1.81094 30C1.81094 45.5625 14.6781 58.2188 30.5 58.2188C46.3219 58.2188 59.1891 45.5625 59.1891 30C59.1891 14.4375 46.3219 1.78125 30.5 1.78125ZM30.5 11.9063C35.075 11.9063 38.8875 15.5625 38.8875 20.1563C38.8875 24.6563 35.1703 28.4063 30.5 28.4063C25.925 28.4063 22.1125 24.75 22.1125 20.1563C22.2078 15.6563 25.925 11.9063 30.5 11.9063ZM45.6547 47.25H15.3453C14.8688 47.25 14.3922 46.875 14.3922 46.3125C14.3922 37.5937 21.6359 30.4688 30.5 30.4688C39.3641 30.4688 46.6078 37.5937 46.6078 46.3125C46.6078 46.875 46.2266 47.25 45.6547 47.25Z" fill="#EDEDED"/>
<path d="M30.5 30.4688C21.6359 30.4688 14.3922 37.5937 14.3922 46.3125C14.3922 46.7812 14.7734 47.25 15.3453 47.25H45.75C46.2266 47.25 46.7031 46.875 46.7031 46.3125C46.6078 37.5937 39.3641 30.4688 30.5 30.4688ZM16.2984 45.4688C16.775 38.1563 22.9703 32.3437 30.5 32.3437C38.0297 32.3437 44.225 38.1563 44.7016 45.4688H16.2984Z" fill="#4C4744"/>
<path d="M44.7016 45.4688H16.2984C16.775 38.1563 22.9703 32.3438 30.5 32.3438C38.0297 32.3438 44.225 38.1563 44.7016 45.4688Z" fill="#720C20"/>
<path d="M30.5 11.9063C25.925 11.9063 22.1125 15.5625 22.1125 20.1563C22.1125 24.6563 25.8297 28.4063 30.5 28.4063C35.075 28.4063 38.8875 24.75 38.8875 20.1563C38.8875 15.6563 35.075 11.9063 30.5 11.9063ZM30.5 26.5312C26.8781 26.5312 24.0188 23.7188 24.0188 20.1563C24.0188 16.5937 26.9734 13.7812 30.5 13.7812C34.1219 13.7812 36.9812 16.6875 36.9812 20.1563C36.9812 23.625 34.1219 26.5312 30.5 26.5312Z" fill="#4C4744"/>
<path d="M36.9812 20.1563C36.9812 23.7188 34.0266 26.5312 30.5 26.5312C26.8781 26.5312 24.0188 23.7188 24.0188 20.1563C24.0188 16.5937 26.9734 13.7812 30.5 13.7812C34.1219 13.7812 36.9812 16.5937 36.9812 20.1563Z" fill="#720C20"/>
<path d="M30.5 32.3438C22.9703 32.3438 16.775 38.1563 16.2984 45.4688H44.7969C44.225 38.1563 38.0297 32.3438 30.5 32.3438ZM30.5 33.75C36.6953 33.75 42.0328 38.1563 43.0813 44.0625H17.9187C18.9672 38.1563 24.3047 33.75 30.5 33.75Z" fill="#720C20"/>
</g>
<defs>
<clipPath id="clip0_1_2">
<rect width="61" height="60" fill="white"/>
</clipPath>
</defs>
</svg>
