<svg width="46" height="46" viewBox="0 0 46 46" fill="none" xmlns="http://www.w3.org/2000/svg">
<circle cx="23" cy="21.16" r="21.16" fill="white"/>
<circle cx="23" cy="21.16" r="21.16" stroke="white"/>
<path d="M20.7821 28.656L17.9618 30.0301L16.0006 22.7897L18.7589 21.4105C19.7967 20.8917 20.9408 20.6214 22.101 20.6214H28.9248C29.8278 20.6214 30.6123 21.3766 30.6123 22.3089C30.6123 23.1627 29.9226 23.9197 29.0663 23.9893L26.7866 24.1779C25.3319 24.3001 25.5121 26.4984 26.9688 26.3794L29.2475 26.1907C31.0131 26.0454 32.4388 24.7029 32.7527 23.0087L37.0506 21.8292C37.8241 21.6169 38.6308 22.0355 38.9019 22.7908C39.1686 23.5331 38.8298 24.3569 38.1177 24.6967L28.9571 29.6567C27.948 30.2027 26.7659 30.3354 25.6614 30.025L20.7821 28.656Z" fill="#C43A0F"/>
<path d="M15.9022 32.5181L9.2 36.0638V24.4718L13.0402 22.7491C13.3498 22.6105 13.7104 22.7807 13.799 23.1082L16.1771 31.8857C16.2443 32.1349 16.1304 32.3978 15.9022 32.5184L15.9022 32.5181Z" fill="#C43A0F"/>
<path d="M29.2015 4.5425L28.2722 5.81033C28.1983 5.91121 28.0756 5.95741 27.9523 5.93431C27.221 5.79698 26.5084 5.79698 25.7761 5.93431C25.6531 5.95741 25.5307 5.91146 25.4568 5.81033L24.5272 4.5425C24.4274 4.40645 24.241 4.36692 24.0944 4.45163L21.9058 5.71512C21.7592 5.79983 21.7002 5.9808 21.7682 6.13533L22.4033 7.57822C22.4536 7.6927 22.4315 7.8226 22.3504 7.91757C21.8794 8.4669 21.5043 9.10096 21.2579 9.79687C21.2163 9.91418 21.1152 9.99889 20.9915 10.0125L19.4315 10.1832C19.2634 10.2017 19.1361 10.3434 19.1361 10.5123V13.0395C19.1361 13.2084 19.2634 13.3503 19.4313 13.3688L20.9912 13.5395C21.1152 13.5531 21.2161 13.6378 21.2577 13.7551C21.5043 14.451 21.8789 15.0851 22.3502 15.6344C22.4315 15.7294 22.4536 15.8593 22.4036 15.9738L21.7685 17.4167C21.7005 17.5712 21.7598 17.7522 21.9061 17.8369L24.0947 19.1006C24.2413 19.1853 24.4274 19.1457 24.5275 19.0097L25.4567 17.7419C25.5307 17.641 25.6534 17.595 25.7761 17.6179C26.4853 17.7511 27.1995 17.7593 27.9523 17.6179C28.0753 17.5948 28.1977 17.6407 28.2717 17.7419L29.2009 19.0097C29.3008 19.1457 29.4872 19.1853 29.6337 19.1006L31.8223 17.8371C31.9689 17.7524 32.028 17.5714 31.9599 17.4169L31.3249 15.974C31.2746 15.8595 31.2966 15.7296 31.3777 15.6346C31.8488 15.0853 32.2238 14.4512 32.4702 13.7553C32.5118 13.638 32.613 13.5533 32.7367 13.5397L34.2966 13.369C34.4653 13.3503 34.5921 13.2086 34.5921 13.0394V10.5122C34.5921 10.3433 34.4648 10.2014 34.2969 10.1829L32.737 10.0122C32.613 9.99857 32.5121 9.91386 32.4705 9.79655C32.2243 9.10064 31.8493 8.46663 31.378 7.91726C31.2966 7.82228 31.2746 7.69239 31.3251 7.5779L31.9602 6.13501C32.0282 5.98048 31.9689 5.79951 31.8226 5.7148L29.634 4.45112C29.4877 4.36718 29.301 4.40645 29.2015 4.5425H29.2015ZM29.2541 13.1557C28.4919 14.4756 26.8044 14.9277 25.4842 14.1658C24.1643 13.4039 23.7123 11.7161 24.4742 10.3959C25.236 9.076 26.9238 8.62395 28.244 9.38584C29.5639 10.1483 30.0162 11.836 29.2541 13.1557V13.1557Z" fill="#C43A0F"/>
</svg>
