<svg width="50" height="51" viewBox="0 0 50 51" fill="none" xmlns="http://www.w3.org/2000/svg">
<circle cx="25" cy="23" r="23" fill="#C4C4C4" fill-opacity="0.5"/>
<circle cx="25" cy="23" r="23" stroke="#C4C4C4"/>
<path d="M21.5894 30.148L18.5238 31.6415L16.3921 23.7715L19.3902 22.2724C20.5182 21.7085 21.7618 21.4147 23.0229 21.4147H30.4401C31.4217 21.4147 32.2744 22.2355 32.2744 23.249C32.2744 24.177 31.5247 24.9998 30.5939 25.0754L28.1159 25.2805C26.5347 25.4133 26.7306 27.8028 28.314 27.6733L30.7909 27.4683C32.71 27.3103 34.2596 25.851 34.6009 24.0095L39.2725 22.7275C40.1132 22.4967 40.9901 22.9518 41.2848 23.7727C41.5747 24.5796 41.2063 25.475 40.4323 25.8444L30.4752 31.2356C29.3784 31.8291 28.0935 31.9733 26.8929 31.636L21.5894 30.148Z" fill="#C43A0F"/>
<path d="M16.285 34.3458L9 38.1998V25.5998L13.1741 23.7273C13.5106 23.5766 13.9026 23.7616 13.9989 24.1177L16.5838 33.6584C16.6569 33.9293 16.533 34.215 16.285 34.3462L16.285 34.3458Z" fill="#C43A0F"/>
<path d="M30.7409 3.93755L29.7308 5.31562C29.6505 5.42528 29.5171 5.4755 29.3832 5.45039C28.5883 5.30112 27.8137 5.30112 27.0177 5.45039C26.884 5.4755 26.7509 5.42556 26.6706 5.31562L25.6602 3.93755C25.5517 3.78967 25.3491 3.7467 25.1898 3.83878L22.8109 5.21214C22.6516 5.30422 22.5874 5.50092 22.6613 5.66889L23.3516 7.23725C23.4063 7.36169 23.3823 7.50288 23.2941 7.60611C22.7821 8.20321 22.3745 8.8924 22.1066 9.64883C22.0614 9.77634 21.9515 9.86841 21.817 9.8832L20.1214 10.0687C19.9387 10.0888 19.8003 10.2429 19.8003 10.4264V13.1734C19.8003 13.357 19.9387 13.5113 20.1212 13.5314L21.8167 13.7169C21.9515 13.7317 22.0612 13.8238 22.1064 13.9513C22.3745 14.7077 22.7816 15.3968 23.2939 15.994C23.3823 16.0972 23.4063 16.2384 23.3519 16.3629L22.6616 17.9312C22.5877 18.0992 22.6521 18.2959 22.8112 18.388L25.1901 19.7615C25.3494 19.8536 25.5517 19.8106 25.6605 19.6628L26.6706 18.2847C26.7509 18.175 26.8843 18.1251 27.0177 18.1499C27.7886 18.2947 28.5648 18.3037 29.3832 18.1499C29.5168 18.1248 29.6499 18.1748 29.7303 18.2847L30.7403 19.6628C30.8489 19.8106 31.0515 19.8536 31.2108 19.7615L33.5897 18.3882C33.749 18.2961 33.8132 18.0994 33.7393 17.9314L33.049 16.3631C32.9943 16.2386 33.0183 16.0974 33.1064 15.9942C33.6184 15.3971 34.0261 14.7079 34.2939 13.9515C34.3391 13.824 34.4491 13.7319 34.5836 13.7171L36.2791 13.5316C36.4624 13.5112 36.6003 13.3572 36.6003 13.1733V10.4264C36.6003 10.2428 36.4619 10.0885 36.2794 10.0684L34.5838 9.88285C34.4491 9.86807 34.3394 9.77599 34.2942 9.64848C34.0266 8.89205 33.619 8.20291 33.1067 7.60577C33.0183 7.50253 32.9943 7.36135 33.0492 7.2369L33.7395 5.66855C33.8135 5.50057 33.749 5.30387 33.59 5.2118L31.211 3.83822C31.052 3.74699 30.8492 3.78968 30.7409 3.93755H30.7409ZM30.7981 13.2997C29.9697 14.7344 28.1355 15.2258 26.7005 14.3976C25.2658 13.5695 24.7744 11.735 25.6025 10.3C26.4307 8.86527 28.2652 8.37391 29.7002 9.20205C31.1349 10.0308 31.6265 11.8653 30.7981 13.2997Z" fill="#C43A0F"/>
</svg>
