<svg width="85" height="85" viewBox="0 0 85 85" fill="none" xmlns="http://www.w3.org/2000/svg">
<g clip-path="url(#clip0_248_97)">
<path d="M42.5 0C19.125 0 0 19.125 0 42.5C0 65.875 19.125 85 42.5 85C66.0078 85 85 65.875 85 42.5C85 19.125 66.0078 0 42.5 0ZM42.5 82.4766C20.4531 82.4766 2.52344 64.5469 2.52344 42.5C2.52344 20.4531 20.4531 2.52344 42.5 2.52344C64.5469 2.52344 82.4766 20.4531 82.4766 42.5C82.4766 64.5469 64.5469 82.4766 42.5 82.4766Z" fill="#4C4744"/>
<path d="M42.5 2.52344C20.4531 2.52344 2.52344 20.4531 2.52344 42.5C2.52344 64.5469 20.4531 82.4766 42.5 82.4766C64.5469 82.4766 82.4766 64.5469 82.4766 42.5C82.4766 20.4531 64.5469 2.52344 42.5 2.52344ZM42.5 16.8672C48.875 16.8672 54.1875 22.0469 54.1875 28.5547C54.1875 34.9297 49.0078 40.2422 42.5 40.2422C36.125 40.2422 30.8125 35.0625 30.8125 28.5547C30.9453 22.1797 36.125 16.8672 42.5 16.8672V16.8672ZM63.6172 66.9375H21.3828C20.7188 66.9375 20.0547 66.4063 20.0547 65.6094C20.0547 53.2578 30.1484 43.1641 42.5 43.1641C54.8516 43.1641 64.9453 53.2578 64.9453 65.6094C64.9453 66.4063 64.4141 66.9375 63.6172 66.9375Z" fill="#EDEDED"/>
<path d="M42.5 43.1641C30.1484 43.1641 20.0547 53.2578 20.0547 65.6094C20.0547 66.2734 20.5859 66.9375 21.3828 66.9375H63.75C64.4141 66.9375 65.0781 66.4063 65.0781 65.6094C64.9453 53.2578 54.8516 43.1641 42.5 43.1641ZM22.7109 64.4141C23.375 54.0547 32.0078 45.8203 42.5 45.8203C52.9922 45.8203 61.625 54.0547 62.2891 64.4141H22.7109Z" fill="#4C4744"/>
<path d="M62.2891 64.4141H22.7109C23.375 54.0547 32.0078 45.8203 42.5 45.8203C52.9922 45.8203 61.625 54.0547 62.2891 64.4141Z" fill="#720C20"/>
<path d="M42.5 16.8672C36.125 16.8672 30.8125 22.0469 30.8125 28.5547C30.8125 34.9297 35.9922 40.2422 42.5 40.2422C48.875 40.2422 54.1875 35.0625 54.1875 28.5547C54.1875 22.1797 48.875 16.8672 42.5 16.8672V16.8672ZM42.5 37.5859C37.4531 37.5859 33.4688 33.6016 33.4688 28.5547C33.4688 23.5078 37.5859 19.5234 42.5 19.5234C47.5469 19.5234 51.5312 23.6406 51.5312 28.5547C51.5312 33.4688 47.5469 37.5859 42.5 37.5859V37.5859Z" fill="#4C4744"/>
<path d="M51.5312 28.5547C51.5312 33.6016 47.4141 37.5859 42.5 37.5859C37.4531 37.5859 33.4688 33.6016 33.4688 28.5547C33.4688 23.5078 37.5859 19.5234 42.5 19.5234C47.5469 19.5234 51.5312 23.5078 51.5312 28.5547Z" fill="#720C20"/>
<path d="M42.5 45.8203C32.0078 45.8203 23.375 54.0547 22.7109 64.4141H62.4219C61.625 54.0547 52.9922 45.8203 42.5 45.8203ZM42.5 47.8125C51.1328 47.8125 58.5703 54.0547 60.0313 62.4219H24.9687C26.4297 54.0547 33.8672 47.8125 42.5 47.8125Z" fill="#720C20"/>
</g>
<defs>
<clipPath id="clip0_248_97">
<rect width="85" height="85" fill="white"/>
</clipPath>
</defs>
</svg>
