<svg width="17" height="18" viewBox="0 0 17 18" fill="none" xmlns="http://www.w3.org/2000/svg">
<path d="M9.31859 1.30492C9.02582 1.07721 8.87943 0.963353 8.71779 0.919588C8.57516 0.880971 8.42484 0.880971 8.28221 0.919588C8.12057 0.963353 7.97418 1.07721 7.68141 1.30492L2.02949 5.70086C1.65168 5.99471 1.46278 6.14163 1.32669 6.32563C1.20614 6.48862 1.11633 6.67224 1.06169 6.86746C1 7.08785 1 7.32717 1 7.8058V13.8349C1 14.7683 1 15.235 1.18166 15.5916C1.34144 15.9052 1.59641 16.1601 1.91002 16.3199C2.26654 16.5016 2.73325 16.5016 3.66667 16.5016H5.33333C5.56669 16.5016 5.68337 16.5016 5.7725 16.4562C5.8509 16.4162 5.91464 16.3525 5.95459 16.2741C6 16.1849 6 16.0683 6 15.8349V10.3349C6 9.8682 6 9.63484 6.09083 9.45658C6.17072 9.29978 6.29821 9.1723 6.45501 9.0924C6.63327 9.00157 6.86662 9.00157 7.33333 9.00157H9.66667C10.1334 9.00157 10.3667 9.00157 10.545 9.0924C10.7018 9.1723 10.8293 9.29978 10.9092 9.45658C11 9.63484 11 9.8682 11 10.3349V15.8349C11 16.0683 11 16.1849 11.0454 16.2741C11.0854 16.3525 11.1491 16.4162 11.2275 16.4562C11.3166 16.5016 11.4333 16.5016 11.6667 16.5016H13.3333C14.2668 16.5016 14.7335 16.5016 15.09 16.3199C15.4036 16.1601 15.6586 15.9052 15.8183 15.5916C16 15.235 16 14.7683 16 13.8349V7.8058C16 7.32717 16 7.08785 15.9383 6.86746C15.8837 6.67224 15.7939 6.48862 15.6733 6.32563C15.5372 6.14163 15.3483 5.99471 14.9705 5.70086L9.31859 1.30492Z" stroke="#720D21" stroke-width="1.66667" stroke-linecap="round" stroke-linejoin="round"/>
</svg>
