<svg width="423" height="423" viewBox="0 0 423 423" fill="none" xmlns="http://www.w3.org/2000/svg">
<path d="M296.861 417.039H356.95C372.886 417.039 388.17 410.708 399.439 399.439C410.708 388.17 417.039 372.886 417.039 356.95V296.861M417.039 125.178V65.089C417.039 49.1524 410.708 33.8685 399.439 22.5997C388.17 11.3308 372.886 5 356.95 5H296.861M125.178 417.039H65.089C49.1524 417.039 33.8685 410.708 22.5997 399.439C11.3308 388.17 5 372.886 5 356.95V296.861M5 125.178V65.089C5 49.1524 11.3308 33.8685 22.5997 22.5997C33.8685 11.3308 49.1524 5 65.089 5H125.178" stroke="black" stroke-width="10" stroke-linecap="round" stroke-linejoin="round"/>
</svg>
