<svg width="14" height="14" viewBox="0 0 14 14" fill="none" xmlns="http://www.w3.org/2000/svg">
<g id="Group 16318">
<path id="Vector" d="M12.5596 3.16134H8.88953V2.42733C8.88922 1.99914 8.71899 1.58859 8.41622 1.28582C8.11345 0.983044 7.70289 0.812811 7.27471 0.8125H6.10029C5.67211 0.812811 5.26155 0.983044 4.95878 1.28582C4.65601 1.58859 4.48578 1.99914 4.48547 2.42733V3.16134H0.815407C0.698604 3.16134 0.586585 3.20774 0.503992 3.29033C0.4214 3.37292 0.375 3.48494 0.375 3.60174C0.375 3.71855 0.4214 3.83057 0.503992 3.91316C0.586585 3.99575 0.698604 4.04215 0.815407 4.04215H1.60109L2.47016 10.9941C2.55531 11.6683 2.88331 12.2884 3.39275 12.7382C3.90218 13.1879 4.55811 13.4366 5.23768 13.4375H8.13732C8.81689 13.4366 9.47282 13.1879 9.98225 12.7382C10.4917 12.2884 10.8197 11.6683 10.9048 10.9941L11.7739 4.04215H12.5596C12.6764 4.04215 12.7884 3.99575 12.871 3.91316C12.9536 3.83057 13 3.71855 13 3.60174C13 3.48494 12.9536 3.37292 12.871 3.29033C12.7884 3.20774 12.6764 3.16134 12.5596 3.16134ZM5.36628 2.42733C5.36659 2.23275 5.44402 2.04623 5.58161 1.90864C5.7192 1.77106 5.90571 1.69362 6.10029 1.69331H7.27471C7.46929 1.69362 7.6558 1.77106 7.79339 1.90864C7.93098 2.04623 8.00841 2.23275 8.00872 2.42733V3.16134H5.36628V2.42733ZM10.0305 10.8831C9.97221 11.3444 9.74784 11.7685 9.39936 12.0763C9.05089 12.384 8.60221 12.5542 8.13732 12.5549H5.23768C4.77279 12.5542 4.32411 12.384 3.97563 12.0763C3.62716 11.7685 3.40279 11.3444 3.34452 10.8831L2.48895 4.04215H10.886L10.0305 10.8831Z" fill="#D70101" stroke="#D70101" stroke-width="0.388462"/>
<path id="Vector_2" d="M5.51365 6.09766C5.39685 6.09766 5.28483 6.14406 5.20223 6.22665C5.11964 6.30924 5.07324 6.42126 5.07324 6.53806V9.47411C5.07324 9.59091 5.11964 9.70293 5.20223 9.78553C5.28483 9.86812 5.39685 9.91452 5.51365 9.91452C5.63045 9.91452 5.74247 9.86812 5.82506 9.78553C5.90766 9.70293 5.95406 9.59091 5.95406 9.47411V6.53806C5.95406 6.42126 5.90766 6.30924 5.82506 6.22665C5.74247 6.14406 5.63045 6.09766 5.51365 6.09766Z" fill="#D70101" stroke="#D70101" stroke-width="0.388462"/>
<path id="Vector_3" d="M7.86179 6.09766C7.74499 6.09766 7.63297 6.14406 7.55038 6.22665C7.46779 6.30924 7.42139 6.42126 7.42139 6.53806V9.47411C7.42139 9.59091 7.46779 9.70293 7.55038 9.78553C7.63297 9.86812 7.74499 9.91452 7.86179 9.91452C7.9786 9.91452 8.09062 9.86812 8.17321 9.78553C8.2558 9.70293 8.3022 9.59091 8.3022 9.47411V6.53806C8.3022 6.42126 8.2558 6.30924 8.17321 6.22665C8.09062 6.14406 7.9786 6.09766 7.86179 6.09766Z" fill="#D70101" stroke="#D70101" stroke-width="0.388462"/>
</g>
</svg>
