<svg width="36" height="31" viewBox="0 0 36 31" fill="none" xmlns="http://www.w3.org/2000/svg">
<path d="M28.5926 12.1137C28.5926 12.6203 28.1781 13.0347 27.6716 13.0347H7.4084C6.90182 13.0347 6.48735 12.6203 6.48735 12.1137C6.48735 11.6071 6.90182 11.1926 7.4084 11.1926H27.6716C28.1781 11.1926 28.5926 11.6071 28.5926 12.1137ZM22.0531 15.7979H7.4084C6.90182 15.7979 6.48735 16.2124 6.48735 16.7189C6.48735 17.2255 6.90182 17.64 7.4084 17.64H22.0531C22.5597 17.64 22.9742 17.2255 22.9742 16.7189C22.9742 16.2124 22.5597 15.7979 22.0531 15.7979ZM27.6716 6.58737H7.4084C6.90182 6.58737 6.48735 7.00184 6.48735 7.50842C6.48735 8.015 6.90182 8.42947 7.4084 8.42947H27.6716C28.1781 8.42947 28.5926 8.015 28.5926 7.50842C28.5926 7.00184 28.1781 6.58737 27.6716 6.58737ZM35.04 1.06105V23.1663C35.04 23.6729 34.6255 24.0874 34.1189 24.0874H16.1584L9.89524 30.2584C9.66498 30.5347 8.32945 30.9032 8.32945 29.6137V24.0874H0.961031C0.454452 24.0874 0.039978 23.6729 0.039978 23.1663V1.06105C0.039978 0.554473 0.454452 0.139999 0.961031 0.139999H34.1189C34.6255 0.139999 35.04 0.554473 35.04 1.06105ZM33.1979 1.9821H1.88208V22.2453H9.2505C9.75708 22.2453 10.1716 22.6597 10.1716 23.1663V27.4032L15.1452 22.5216C15.3295 22.3374 15.5597 22.2453 15.79 22.2453H33.1979V1.9821Z" fill="black"/>
</svg>
