<svg width="14" height="14" viewBox="0 0 14 14" fill="none" xmlns="http://www.w3.org/2000/svg">
<path d="M3.66667 4.66667H7M3.66667 7H9M5.45583 11H9.8C10.9201 11 11.4802 11 11.908 10.782C12.2843 10.5903 12.5903 10.2843 12.782 9.90798C13 9.48016 13 8.9201 13 7.8V4.2C13 3.07989 13 2.51984 12.782 2.09202C12.5903 1.71569 12.2843 1.40973 11.908 1.21799C11.4802 1 10.9201 1 9.8 1H4.2C3.0799 1 2.51984 1 2.09202 1.21799C1.71569 1.40973 1.40973 1.71569 1.21799 2.09202C1 2.51984 1 3.0799 1 4.2V12.557C1 12.9122 1 13.0898 1.07282 13.1811C1.13615 13.2604 1.23218 13.3066 1.33369 13.3065C1.45042 13.3063 1.58911 13.1954 1.8665 12.9735L3.45681 11.7012C3.78168 11.4413 3.94411 11.3114 4.12499 11.219C4.28547 11.137 4.45628 11.0771 4.63281 11.0408C4.83178 11 5.0398 11 5.45583 11Z" stroke="#720D21" stroke-linecap="round" stroke-linejoin="round"/>
</svg>
