<svg width="275" height="276" viewBox="0 0 275 276" fill="none" xmlns="http://www.w3.org/2000/svg">
<path d="M259.164 74.83C258.768 74.067 258.226 73.3895 257.568 72.8363C256.911 72.2831 256.15 71.8649 255.331 71.6059C254.511 71.3468 253.649 71.2518 252.793 71.3264C251.937 71.401 251.104 71.6437 250.341 72.0407C249.579 72.4376 248.903 72.9809 248.351 73.6396C247.798 74.2982 247.382 75.0593 247.124 75.8792C246.867 76.699 246.773 77.5617 246.849 78.4177C246.925 79.2737 247.17 80.1064 247.568 80.8679C259.837 104.289 264.283 131.024 260.253 157.155C256.223 183.286 243.929 207.439 225.173 226.075C176.737 274.501 97.9266 274.512 49.4799 226.075C48.5659 225.16 47.4008 224.537 46.1322 224.284C44.8637 224.031 43.5487 224.16 42.3536 224.655C41.1586 225.15 40.1372 225.989 39.4189 227.064C38.7006 228.14 38.3176 229.405 38.3184 230.698V263.769C38.3184 265.503 39.0072 267.166 40.2335 268.392C41.4597 269.619 43.1228 270.307 44.8569 270.307C46.5911 270.307 48.2542 269.619 49.4804 268.392C50.7066 267.166 51.3955 265.503 51.3955 263.769V245.338C77.7989 266.46 111.058 277.114 144.82 275.267C178.581 273.419 210.479 259.198 234.419 235.321C277.022 192.718 286.968 128.222 259.164 74.83Z" fill="black"/>
<path d="M49.4791 50.3823C61.0147 38.845 74.7099 29.693 89.7828 23.4489C104.856 17.2049 121.011 13.9911 137.326 13.9911C153.641 13.9911 169.796 17.2049 184.869 23.4489C199.942 29.693 213.637 38.845 225.172 50.3823C226.087 51.2975 227.252 51.921 228.52 52.1738C229.789 52.4266 231.104 52.2973 232.299 51.8023C233.494 51.3073 234.515 50.4689 235.233 49.3932C235.952 48.3175 236.335 47.0528 236.334 45.7593V12.6887C236.334 10.9546 235.645 9.29147 234.419 8.06525C233.193 6.83903 231.53 6.15014 229.795 6.15014C228.061 6.15014 226.398 6.83903 225.172 8.06525C223.946 9.29147 223.257 10.9546 223.257 12.6887V31.1089C198.676 11.3987 168.065 0.739703 136.558 0.919223C105.051 1.09874 74.564 12.1059 50.2091 32.0949C25.8542 52.0838 9.11273 79.839 2.7921 110.706C-3.52854 141.573 0.956077 173.675 15.4939 201.628C16.2946 203.165 17.6733 204.322 19.3268 204.843C20.9803 205.364 22.773 205.207 24.3107 204.406C25.8484 203.606 27.005 202.227 27.5262 200.574C28.0473 198.92 27.8903 197.127 27.0896 195.59C14.8181 172.17 10.3711 145.435 14.4003 119.303C18.4295 93.1719 30.723 69.0182 49.4791 50.3823Z" fill="black"/>
<path d="M137.325 37.5352C123.609 37.5507 110.46 43.006 100.762 52.7041C91.0641 62.4022 85.6088 75.5513 85.5932 89.2665V115.16H77.696C71.8018 115.166 66.1508 117.511 61.983 121.678C57.8152 125.846 55.471 131.497 55.4648 137.391V200.999C55.471 206.894 57.8152 212.545 61.983 216.712C66.1508 220.88 71.8018 223.224 77.696 223.231H196.958C202.853 223.224 208.504 220.88 212.671 216.712C216.839 212.545 219.183 206.894 219.19 200.999V137.391C219.183 131.497 216.839 125.846 212.671 121.678C208.504 117.511 202.853 115.166 196.958 115.16H189.061V89.2665C189.045 75.5505 183.589 62.4009 173.89 52.7027C164.191 43.0044 151.041 37.5497 137.325 37.5352ZM98.6704 89.2665C98.6704 79.0141 102.743 69.1816 109.993 61.9321C117.242 54.6825 127.075 50.6098 137.327 50.6098C147.579 50.6098 157.412 54.6825 164.662 61.9321C171.911 69.1816 175.984 79.0141 175.984 89.2665V115.16H98.6704V89.2665ZM206.112 137.391V200.999C206.109 203.426 205.144 205.753 203.428 207.469C201.712 209.185 199.385 210.15 196.958 210.153H77.696C75.2691 210.15 72.9424 209.185 71.2264 207.469C69.5103 205.753 68.5449 203.426 68.542 200.999V137.391C68.5449 134.964 69.5103 132.638 71.2264 130.922C72.9424 129.206 75.2691 128.24 77.696 128.237H196.958C199.385 128.24 201.712 129.206 203.428 130.922C205.144 132.638 206.109 134.964 206.112 137.391Z" fill="black"/>
<path d="M179.173 182.272C186.395 182.272 192.25 176.418 192.25 169.195C192.25 161.973 186.395 156.118 179.173 156.118C171.951 156.118 166.096 161.973 166.096 169.195C166.096 176.418 171.951 182.272 179.173 182.272Z" fill="black"/>
<path d="M137.325 182.272C144.547 182.272 150.402 176.418 150.402 169.195C150.402 161.973 144.547 156.118 137.325 156.118C130.103 156.118 124.248 161.973 124.248 169.195C124.248 176.418 130.103 182.272 137.325 182.272Z" fill="black"/>
<path d="M95.4795 182.272C102.702 182.272 108.557 176.418 108.557 169.195C108.557 161.973 102.702 156.118 95.4795 156.118C88.2572 156.118 82.4023 161.973 82.4023 169.195C82.4023 176.418 88.2572 182.272 95.4795 182.272Z" fill="black"/>
</svg>
