<svg width="64" height="90" viewBox="0 0 64 90" fill="none" xmlns="http://www.w3.org/2000/svg">
<path fill-rule="evenodd" clip-rule="evenodd" d="M17.52 51.59C17.7296 51.3818 18.0132 51.2654 18.3086 51.2663C18.604 51.2672 18.8869 51.3855 19.095 51.595C19.3032 51.8045 19.4197 52.0882 19.4187 52.3835C19.4178 52.6789 19.2996 52.9618 19.09 53.17L18.36 53.9L19.09 54.63C19.1931 54.7331 19.2749 54.8555 19.3307 54.9902C19.3865 55.1249 19.4152 55.2692 19.4152 55.415C19.4152 55.5608 19.3865 55.7051 19.3307 55.8398C19.2749 55.9745 19.1931 56.0969 19.09 56.2C18.987 56.3031 18.8646 56.3849 18.7299 56.4407C18.5952 56.4964 18.4508 56.5252 18.305 56.5252C18.1593 56.5252 18.0149 56.4964 17.8802 56.4407C17.7455 56.3849 17.6231 56.3031 17.52 56.2L16.81 55.47L16.08 56.2C15.8719 56.4082 15.5895 56.5252 15.295 56.5252C15.0006 56.5252 14.7182 56.4082 14.51 56.2C14.3019 55.9918 14.1849 55.7094 14.1849 55.415C14.1849 55.1206 14.3019 54.8382 14.51 54.63L15.23 53.9L14.51 53.17C14.3005 52.9618 14.1823 52.6789 14.1814 52.3835C14.1804 52.0882 14.2968 51.8045 14.505 51.595C14.7132 51.3855 14.9961 51.2672 15.2915 51.2663C15.5869 51.2654 15.8705 51.3818 16.08 51.59L16.81 52.32L17.54 51.59H17.52ZM13.05 36.82C12.7557 36.82 12.4733 36.7031 12.2652 36.4949C12.057 36.2867 11.94 36.0044 11.94 35.71C11.94 35.4156 12.057 35.1333 12.2652 34.9251C12.4733 34.7169 12.7557 34.6 13.05 34.6H51.81C52.1044 34.6 52.3868 34.7169 52.5949 34.9251C52.8031 35.1333 52.92 35.4156 52.92 35.71C52.92 36.0044 52.8031 36.2867 52.5949 36.4949C52.3868 36.7031 52.1044 36.82 51.81 36.82H13.05ZM13.05 30.11C12.8947 30.1247 12.7381 30.1068 12.5901 30.0575C12.4421 30.0082 12.3061 29.9285 12.1907 29.8235C12.0753 29.7185 11.9831 29.5906 11.92 29.4479C11.8569 29.3053 11.8243 29.151 11.8243 28.995C11.8243 28.839 11.8569 28.6847 11.92 28.5421C11.9831 28.3994 12.0753 28.2715 12.1907 28.1665C12.3061 28.0615 12.4421 27.9818 12.5901 27.9325C12.7381 27.8832 12.8947 27.8653 13.05 27.88H51.81C52.0875 27.9063 52.3453 28.0351 52.5328 28.2413C52.7204 28.4475 52.8243 28.7163 52.8243 28.995C52.8243 29.2737 52.7204 29.5425 52.5328 29.7487C52.3453 29.9548 52.0875 30.0837 51.81 30.11H13.05ZM13.05 23.39C12.8947 23.4047 12.7381 23.3868 12.5901 23.3375C12.4421 23.2882 12.3061 23.2085 12.1907 23.1035C12.0753 22.9985 11.9831 22.8706 11.92 22.7279C11.8569 22.5853 11.8243 22.431 11.8243 22.275C11.8243 22.119 11.8569 21.9647 11.92 21.8221C11.9831 21.6794 12.0753 21.5515 12.1907 21.4465C12.3061 21.3415 12.4421 21.2618 12.5901 21.2125C12.7381 21.1632 12.8947 21.1453 13.05 21.16H43.47C43.6253 21.1453 43.782 21.1632 43.93 21.2125C44.078 21.2618 44.214 21.3415 44.3294 21.4465C44.4448 21.5515 44.537 21.6794 44.6001 21.8221C44.6632 21.9647 44.6958 22.119 44.6958 22.275C44.6958 22.431 44.6632 22.5853 44.6001 22.7279C44.537 22.8706 44.4448 22.9985 44.3294 23.1035C44.214 23.2085 44.078 23.2882 43.93 23.3375C43.782 23.3868 43.6253 23.4047 43.47 23.39H13.05ZM49.17 50.13C49.9157 50.13 50.6446 50.3511 51.2645 50.7654C51.8845 51.1796 52.3677 51.7684 52.6531 52.4573C52.9384 53.1462 53.0131 53.9042 52.8676 54.6355C52.7221 55.3668 52.3631 56.0385 51.8358 56.5658C51.3086 57.093 50.6368 57.4521 49.9055 57.5976C49.1742 57.743 48.4162 57.6684 47.7273 57.383C47.0384 57.0977 46.4497 56.6145 46.0354 55.9945C45.6211 55.3745 45.4 54.6456 45.4 53.9C45.4 52.9001 45.7972 51.9412 46.5042 51.2342C47.2113 50.5272 48.1702 50.13 49.17 50.13ZM50.26 52.81C50.0445 52.5949 49.7701 52.4486 49.4715 52.3894C49.1728 52.3302 48.8634 52.3609 48.5821 52.4775C48.3009 52.5942 48.0606 52.7915 47.8915 53.0447C47.7224 53.2979 47.6322 53.5955 47.6322 53.9C47.6322 54.2045 47.7224 54.5021 47.8915 54.7553C48.0606 55.0085 48.3009 55.2058 48.5821 55.3225C48.8634 55.4391 49.1728 55.4698 49.4715 55.4106C49.7701 55.3515 50.0445 55.2051 50.26 54.99C50.4034 54.847 50.5171 54.6771 50.5946 54.49C50.6722 54.303 50.7122 54.1025 50.7122 53.9C50.7122 53.6975 50.6722 53.497 50.5946 53.31C50.5171 53.1229 50.4034 52.953 50.26 52.81ZM44.21 41.48C44.0062 41.3027 43.7452 41.2051 43.475 41.2051C43.2049 41.2051 42.9439 41.3027 42.74 41.48L39.74 43.76C39.6235 43.8484 39.5256 43.9589 39.4519 44.0853C39.3782 44.2117 39.3302 44.3514 39.3107 44.4963C39.2912 44.6413 39.3005 44.7887 39.3382 44.9301C39.3758 45.0714 39.441 45.2039 39.53 45.32C39.7102 45.5532 39.9749 45.706 40.2669 45.7453C40.5589 45.7846 40.8547 45.7072 41.09 45.53L42.34 44.53V59C42.3374 59.588 42.1027 60.1511 41.6869 60.5669C41.2712 60.9826 40.708 61.2174 40.12 61.22H20.45C19.2724 61.2226 18.1435 61.6909 17.3099 62.5228C16.4762 63.3546 16.0053 64.4823 16 65.66V71.82C15.1382 72.0868 14.4007 72.6538 13.9213 73.4181C13.4419 74.1823 13.2525 75.0932 13.3874 75.9852C13.5224 76.8772 13.9727 77.6913 14.6567 78.2795C15.3406 78.8678 16.2129 79.1913 17.115 79.1913C18.0172 79.1913 18.8895 78.8678 19.5734 78.2795C20.2574 77.6913 20.7077 76.8772 20.8426 75.9852C20.9776 75.0932 20.7881 74.1823 20.3088 73.4181C19.8294 72.6538 19.0918 72.0868 18.23 71.82V65.66C18.2353 65.0738 18.4712 64.5132 18.8867 64.0996C19.3022 63.686 19.8638 63.4526 20.45 63.45H40.14C41.3194 63.4474 42.4498 62.9777 43.2838 62.1437C44.1177 61.3097 44.5874 60.1794 44.59 59V44.57L45.84 45.57C45.9563 45.6586 46.0888 45.7235 46.2301 45.7609C46.3714 45.7984 46.5187 45.8076 46.6635 45.7881C46.8084 45.7686 46.948 45.7207 47.0744 45.6473C47.2007 45.5738 47.3114 45.4762 47.4 45.36C47.4887 45.2438 47.5536 45.1112 47.591 44.9699C47.6284 44.8286 47.6376 44.6814 47.6181 44.5365C47.5986 44.3916 47.5508 44.252 47.4773 44.1257C47.4039 43.9993 47.3063 43.8886 47.19 43.8L44.19 41.52L44.21 41.48ZM18.21 74.34C18.3919 74.5199 18.5264 74.7419 18.6015 74.9864C18.6767 75.2309 18.6902 75.4901 18.6409 75.7411C18.5915 75.992 18.4808 76.2269 18.3187 76.4247C18.1565 76.6224 17.9479 76.777 17.7115 76.8746C17.4751 76.9722 17.2182 77.0098 16.9638 76.9841C16.7093 76.9583 16.4652 76.8699 16.2532 76.7269C16.0411 76.5839 15.8678 76.3906 15.7486 76.1643C15.6294 75.938 15.5681 75.6858 15.57 75.43C15.5724 75.1252 15.6646 74.8278 15.835 74.5751C16.0055 74.3224 16.2467 74.1256 16.5285 74.0093C16.8102 73.8929 17.12 73.8623 17.4191 73.9211C17.7182 73.9799 17.9933 74.1256 18.21 74.34ZM31.4 0C27.95 0 24.52 2 23.81 5.32H18.3C18.0057 5.32 17.7233 5.43695 17.5152 5.64511C17.307 5.85328 17.19 6.13561 17.19 6.43V8.8H1.11004C0.963431 8.79999 0.81827 8.82903 0.682943 8.88544C0.547615 8.94185 0.424804 9.0245 0.321599 9.12864C0.218394 9.23277 0.136842 9.35632 0.081651 9.49215C0.0264599 9.62798 -0.00127578 9.77339 4.50501e-05 9.92V88.92C0.00786302 89.2092 0.12825 89.4838 0.335574 89.6856C0.542898 89.8873 0.820778 90.0001 1.11004 90H62.51C62.8044 90 63.0868 89.8831 63.2949 89.6749C63.5031 89.4667 63.62 89.1844 63.62 88.89V9.89C63.6148 9.59909 63.4955 9.32187 63.2879 9.11801C63.0803 8.91415 62.801 8.79995 62.51 8.8H45.6V6.43C45.6 6.13561 45.4831 5.85328 45.2749 5.64511C45.0668 5.43695 44.7844 5.32 44.49 5.32H38.95C38.27 2 34.81 0 31.4 0ZM36.81 6.43C36.81 6.72532 36.9267 7.00869 37.1345 7.21844C37.3424 7.4282 37.6247 7.54736 37.92 7.55H43.34V17.12H19.34V7.55H24.81C24.9567 7.55001 25.1018 7.52097 25.2371 7.46456C25.3725 7.40815 25.4953 7.3255 25.5985 7.22136C25.7017 7.11723 25.7832 6.99368 25.8384 6.85785C25.8936 6.72202 25.9214 6.57661 25.92 6.43C25.9386 5.86442 26.0839 5.31022 26.3453 4.80829C26.6066 4.30637 26.9773 3.86953 27.43 3.53C28.5673 2.68343 29.9473 2.2262 31.365 2.2262C32.7828 2.2262 34.1628 2.68343 35.3 3.53C35.7528 3.86953 36.1235 4.30637 36.3848 4.80829C36.6462 5.31022 36.7915 5.86442 36.81 6.43ZM45.6 11V12.9H57.88C58.1753 12.9026 58.4577 13.0218 58.6655 13.2316C58.8734 13.4413 58.9901 13.7247 58.99 14.02V71.23C58.993 71.3774 58.9652 71.5238 58.9083 71.6598C58.8515 71.7958 58.767 71.9185 58.66 72.02L45.15 85.53C45.0487 85.6378 44.9262 85.7235 44.7903 85.782C44.6545 85.8405 44.508 85.8705 44.36 85.87H5.74004C5.44474 85.8674 5.16242 85.7482 4.95454 85.5384C4.74666 85.3287 4.63003 85.0453 4.63004 84.75V14.05C4.63003 13.7547 4.74666 13.4713 4.95454 13.2616C5.16242 13.0518 5.44474 12.9326 5.74004 12.93H17.19V11H2.19004V87.77H61.4V11H45.6ZM45.6 15.13V18.21C45.6 18.5044 45.4831 18.7867 45.2749 18.9949C45.0668 19.2031 44.7844 19.32 44.49 19.32H18.3C18.0057 19.32 17.7233 19.2031 17.5152 18.9949C17.307 18.7867 17.19 18.5044 17.19 18.21V15.16H6.86004V83.64H43.24V71.23C43.2427 70.9347 43.3618 70.6524 43.5716 70.4445C43.7814 70.2366 44.0647 70.12 44.36 70.12H56.81V15.12L45.6 15.13ZM45.47 82.03V72.34H55.19L45.47 82.06V82.03ZM32.81 72.15C33.0182 72.3595 33.1347 72.6432 33.1337 72.9385C33.1328 73.2339 33.0146 73.5168 32.805 73.725C32.5955 73.9332 32.3119 74.0496 32.0165 74.0487C31.7211 74.0478 31.4382 73.9295 31.23 73.72L30.49 73L29.76 73.72C29.5519 73.9295 29.269 74.0478 28.9736 74.0487C28.6782 74.0496 28.3946 73.9332 28.185 73.725C27.9755 73.5168 27.8573 73.2339 27.8564 72.9385C27.8554 72.6432 27.9718 72.3595 28.18 72.15L28.91 71.42L28.18 70.69C28.077 70.583 27.996 70.4567 27.9417 70.3184C27.8874 70.18 27.8609 70.0324 27.8637 69.8838C27.8665 69.7352 27.8985 69.5886 27.9579 69.4524C28.0173 69.3162 28.103 69.1931 28.21 69.09C28.3171 68.9869 28.4434 68.9059 28.5817 68.8516C28.72 68.7973 28.8677 68.7708 29.0163 68.7736C29.1648 68.7764 29.3114 68.8084 29.4476 68.8679C29.5838 68.9273 29.707 69.013 29.81 69.12L30.54 69.84L31.26 69.12C31.4745 68.951 31.7436 68.8669 32.0161 68.8839C32.2886 68.9009 32.5453 69.0176 32.7371 69.2119C32.9289 69.4062 33.0424 69.6644 33.0558 69.937C33.0693 70.2097 32.9818 70.4778 32.81 70.69L32.08 71.42L32.81 72.15ZM32.81 54.63C32.9131 54.7351 32.9945 54.8594 33.0496 54.9959C33.1046 55.1324 33.1322 55.2784 33.1308 55.4256C33.1294 55.5728 33.099 55.7183 33.0414 55.8537C32.9838 55.9891 32.9001 56.1119 32.795 56.215C32.69 56.3181 32.5657 56.3995 32.4291 56.4545C32.2926 56.5095 32.1466 56.5372 31.9994 56.5358C31.8523 56.5344 31.7068 56.504 31.5713 56.4464C31.4359 56.3888 31.3131 56.3051 31.21 56.2L30.49 55.47L29.81 56.2C29.707 56.3037 29.5844 56.3862 29.4495 56.4426C29.3146 56.499 29.1698 56.5282 29.0236 56.5287C28.8773 56.5292 28.7324 56.5008 28.5971 56.4453C28.4618 56.3897 28.3388 56.3081 28.235 56.205C28.1313 56.1019 28.0489 55.9794 27.9925 55.8445C27.9361 55.7095 27.9068 55.5648 27.9064 55.4185C27.9059 55.2723 27.9342 55.1274 27.9898 54.9921C28.0453 54.8568 28.127 54.7337 28.23 54.63L28.96 53.9L28.23 53.17C28.114 53.0692 28.0199 52.9456 27.9537 52.8069C27.8874 52.6682 27.8505 52.5173 27.8451 52.3637C27.8397 52.2101 27.8659 52.057 27.9222 51.914C27.9786 51.771 28.0637 51.6411 28.1724 51.5324C28.2811 51.4237 28.411 51.3385 28.554 51.2822C28.6971 51.2259 28.8501 51.1996 29.0038 51.205C29.1574 51.2104 29.3082 51.2474 29.447 51.3136C29.5857 51.3799 29.7093 51.4739 29.81 51.59L30.54 52.32L31.26 51.59C31.4773 51.4345 31.743 51.3617 32.0092 51.3849C32.2753 51.408 32.5245 51.5256 32.7116 51.7163C32.8987 51.907 33.0115 52.1584 33.0295 52.425C33.0476 52.6915 32.9697 52.9558 32.81 53.17L32.08 53.9L32.81 54.63Z" fill="black"/>
</svg>
