<svg width="31" height="31" viewBox="0 0 31 31" fill="none" xmlns="http://www.w3.org/2000/svg">
<path d="M15.2334 11.3889C13.1739 11.3889 11.5264 13.0365 11.5264 15.096C11.5264 17.1554 13.1739 18.803 15.2334 18.803C17.2929 18.803 18.9405 17.1554 18.9405 15.096C18.9405 13.0365 17.2471 11.3889 15.2334 11.3889ZM15.2334 17.6589C13.8147 17.6589 12.6705 16.5147 12.6705 15.096C12.6705 13.6772 13.8147 12.5331 15.2334 12.5331C16.6522 12.5331 17.7963 13.6772 17.7963 15.096C17.7963 16.5147 16.6064 17.6589 15.2334 17.6589Z" fill="#720C20" stroke="#720C20"/>
<path d="M29.741 12.5788C29.741 12.2584 29.4664 12.0296 29.1461 12.0296H25.9424C25.7594 11.3889 25.5306 10.7939 25.256 10.2447L27.4985 8.00219C27.59 7.91066 27.6816 7.72759 27.6816 7.5903C27.6816 7.453 27.6358 7.3157 27.4985 7.1784L23.6084 3.2883C23.3796 3.05947 23.0134 3.05947 22.7846 3.2883L20.6336 5.4393C20.0386 5.11893 19.3979 4.84434 18.7572 4.66128V1.59496C18.7572 1.2746 18.4826 1 18.1622 1H12.6246C12.3042 1 12.0296 1.2746 12.0296 1.59496V4.66128C11.3889 4.84434 10.7481 5.11893 10.1532 5.4393L8.00219 3.2883C7.77336 3.05947 7.40723 3.05947 7.1784 3.2883L3.2883 7.1784C3.05947 7.40723 3.05947 7.77336 3.2883 8.00219L5.48506 10.199C5.21047 10.7939 4.98164 11.3889 4.79857 12.0296H1.59496C1.45766 12.0296 1.32036 12.0754 1.18306 12.2127C1.09153 12.3042 1 12.4873 1 12.6245V18.1622C1 18.4826 1.2746 18.7114 1.59496 18.7114H4.93587C5.11894 19.2606 5.34777 19.8098 5.66813 20.359L3.24253 22.7846C3.0137 23.0134 3.0137 23.3795 3.24253 23.6084L7.13264 27.4985C7.36147 27.7273 7.7276 27.7273 7.95643 27.4985L10.4278 25.0271C10.9312 25.256 11.4346 25.4848 11.9838 25.6678V29.1918C11.9838 29.5122 12.2584 29.7868 12.5788 29.7868H18.1622C18.4826 29.7868 18.7572 29.5122 18.7572 29.1918V25.6678C19.3064 25.4848 19.8098 25.3017 20.3132 25.0271L22.7846 27.4985C23.0134 27.7273 23.3796 27.7273 23.6084 27.4985L27.4985 23.6084C27.7273 23.3795 27.7273 23.0134 27.4985 22.7846L25.0729 20.359C25.3475 19.8098 25.6221 19.2606 25.8051 18.7114H29.1918C29.3291 18.7114 29.4664 18.6657 29.6037 18.5284C29.6953 18.4368 29.7868 18.2538 29.7868 18.1165L29.741 12.5788ZM25.3933 17.5215C25.1187 17.5215 24.9356 17.7046 24.8441 17.9334C24.6152 18.6657 24.2949 19.3979 23.883 20.0844C23.7457 20.3132 23.7914 20.5878 23.9745 20.7709L26.2628 23.105L23.1965 26.217L20.8167 23.8372C20.6336 23.6541 20.359 23.6084 20.1302 23.7457C19.4894 24.1118 18.7572 24.3864 18.0249 24.6152C17.7961 24.661 17.613 24.8898 17.613 25.1644V28.5511H13.2195V25.1644C13.2195 24.8898 13.0364 24.661 12.8076 24.6152C12.0296 24.3864 11.3431 24.1118 10.7024 23.7457C10.4736 23.6084 10.199 23.6541 10.0159 23.8372L7.63606 26.217L4.52398 23.105L6.81228 20.8167C6.99534 20.6336 7.04111 20.359 6.90381 20.1302C6.49191 19.4437 6.17155 18.7114 5.94272 17.9792C5.85119 17.7503 5.66813 17.5673 5.39353 17.5673H2.23568V13.1737H5.302C5.5766 13.1737 5.80543 12.9907 5.85119 12.7618C6.08002 11.8923 6.35462 11.1143 6.76651 10.382C6.90381 10.1532 6.85804 9.87859 6.67498 9.69553L4.56974 7.54453L7.68183 4.43245L9.7413 6.49191C9.92436 6.67498 10.199 6.72074 10.4278 6.58345C11.16 6.12579 11.9838 5.80542 12.8076 5.57659C13.0364 5.53083 13.2195 5.302 13.2195 5.0274V2.14415H17.613V5.0274C17.613 5.302 17.7961 5.53083 18.0249 5.57659C18.8487 5.80542 19.6725 6.17155 20.4048 6.58345C20.6336 6.72074 20.9082 6.67498 21.0913 6.49191L23.1507 4.43245L26.2628 7.54453L24.1118 9.69553C23.9287 9.87859 23.883 10.1532 24.0203 10.382C24.4322 11.1143 24.7068 11.8923 24.9356 12.7161C24.9814 12.9907 25.2102 13.128 25.4848 13.128H28.5511V17.5215H25.3933Z" fill="#720C20" stroke="#720C20"/>
</svg>
