<svg width="38" height="38" viewBox="0 0 38 38" fill="none" xmlns="http://www.w3.org/2000/svg">
<circle cx="18.665" cy="18.665" r="18.665" fill="#E1E1E1"/>
<path d="M18.9828 8.30103C17.942 8.30103 17.0847 9.15834 17.0847 10.1992C17.0847 11.24 17.942 12.0973 18.9828 12.0973C20.0237 12.0973 20.881 11.24 20.881 10.1992C20.881 9.15834 20.0237 8.30103 18.9828 8.30103ZM18.9828 12.0973C18.0286 12.0973 17.1564 12.2619 16.4586 12.618C15.7608 12.974 15.1866 13.6048 15.1866 14.4106V16.5263C15.1872 16.6637 15.2325 16.7973 15.3158 16.9067C15.399 17.0161 15.5156 17.0954 15.6479 17.1326C16.5779 17.3974 17.4776 17.5561 18.5479 17.5808C18.5523 17.5808 18.5566 17.5808 18.561 17.5808H19.4047C19.409 17.5808 19.4134 17.5808 19.4178 17.5808C20.4881 17.5561 21.3878 17.3974 22.3178 17.1326C22.4501 17.0954 22.5667 17.0161 22.6499 16.9067C22.7332 16.7973 22.7785 16.6637 22.7791 16.5263V14.4106C22.7791 13.6048 22.2049 12.974 21.5071 12.618C20.8093 12.2619 19.9371 12.0973 18.9828 12.0973ZM18.9828 9.56645C19.3398 9.56645 19.6156 9.84223 19.6156 10.1992C19.6156 10.5561 19.3398 10.8319 18.9828 10.8319C18.6259 10.8319 18.3501 10.5561 18.3501 10.1992C18.3501 9.84223 18.6259 9.56645 18.9828 9.56645ZM18.9828 13.3627C19.7812 13.3627 20.4879 13.5175 20.9337 13.745C21.3795 13.9725 21.5137 14.1777 21.5137 14.4106V16.0188C20.8409 16.1827 20.1865 16.2964 19.4047 16.3154H19.3915H18.5742C18.5695 16.3153 18.5658 16.3155 18.561 16.3154C17.7791 16.2964 17.1248 16.1827 16.452 16.0188V14.4106C16.452 14.1777 16.5862 13.9725 17.032 13.745C17.4778 13.5175 18.1845 13.3627 18.9828 13.3627ZM18.9763 17.7785C18.8926 17.7794 18.81 17.7968 18.7331 17.8298C18.6562 17.8628 18.5867 17.9108 18.5284 17.9708C18.4702 18.0309 18.4245 18.1019 18.3939 18.1798C18.3633 18.2576 18.3484 18.3408 18.3501 18.4244V20.1709L16.5509 21.2518C16.4764 21.2927 16.411 21.3481 16.3584 21.4148C16.3059 21.4815 16.2673 21.558 16.2449 21.6399C16.2226 21.7218 16.2169 21.8074 16.2283 21.8915C16.2397 21.9757 16.268 22.0566 16.3113 22.1296C16.3547 22.2026 16.4123 22.2662 16.4807 22.3164C16.5491 22.3667 16.627 22.4027 16.7096 22.4223C16.7922 22.4418 16.8779 22.4446 16.9616 22.4303C17.0453 22.4161 17.1253 22.3851 17.1968 22.3393L18.9828 21.265L20.7689 22.3393C20.8404 22.3851 20.9204 22.4161 21.0041 22.4303C21.0878 22.4446 21.1735 22.4418 21.2561 22.4223C21.3387 22.4027 21.4166 22.3667 21.485 22.3164C21.5534 22.2662 21.611 22.2026 21.6544 22.1296C21.6977 22.0566 21.726 21.9757 21.7374 21.8915C21.7488 21.8074 21.7431 21.7218 21.7208 21.6399C21.6984 21.558 21.6598 21.4815 21.6073 21.4148C21.5547 21.3481 21.4893 21.2927 21.4148 21.2518L19.6156 20.1709V18.4244C19.6173 18.3397 19.602 18.2554 19.5706 18.1767C19.5392 18.098 19.4923 18.0264 19.4326 17.9661C19.373 17.9059 19.3019 17.8582 19.2235 17.826C19.1451 17.7938 19.061 17.7776 18.9763 17.7785ZM13.2885 18.0026C12.2476 18.0026 11.3903 18.8599 11.3903 19.9007C11.3903 20.9415 12.2476 21.7989 13.2885 21.7989C14.3293 21.7989 15.1866 20.9415 15.1866 19.9007C15.1866 18.8599 14.3293 18.0026 13.2885 18.0026ZM13.2885 21.7989C12.3342 21.7989 11.462 21.9634 10.7642 22.3195C10.0664 22.6756 9.49219 23.3063 9.49219 24.1122V26.2278C9.49279 26.3653 9.53814 26.4988 9.62138 26.6082C9.70461 26.7176 9.82121 26.7969 9.95354 26.8342C10.8835 27.0989 11.7832 27.2577 12.8535 27.2823C12.8579 27.2824 12.8623 27.2824 12.8666 27.2823H13.7103C13.7147 27.2824 13.719 27.2824 13.7234 27.2823C14.7937 27.2577 15.6934 27.0989 16.6234 26.8342C16.7557 26.7969 16.8723 26.7176 16.9555 26.6082C17.0388 26.4988 17.0841 26.3653 17.0847 26.2278V24.1122C17.0847 23.3063 16.5105 22.6756 15.8127 22.3195C15.1149 21.9634 14.2427 21.7989 13.2885 21.7989ZM24.6772 18.0026C23.6364 18.0026 22.7791 18.8599 22.7791 19.9007C22.7791 20.9415 23.6364 21.7989 24.6772 21.7989C25.7181 21.7989 26.5754 20.9415 26.5754 19.9007C26.5754 18.8599 25.7181 18.0026 24.6772 18.0026ZM24.6772 21.7989C23.723 21.7989 22.8508 21.9634 22.153 22.3195C21.4552 22.6756 20.881 23.3063 20.881 24.1122V26.2278C20.8816 26.3653 20.9269 26.4988 21.0102 26.6082C21.0934 26.7176 21.21 26.7969 21.3423 26.8342C22.2723 27.0989 23.172 27.2577 24.2423 27.2823C24.2466 27.2824 24.251 27.2824 24.2554 27.2823H25.0991C25.1034 27.2824 25.1078 27.2824 25.1122 27.2823C26.1825 27.2577 27.0822 27.0989 28.0122 26.8342C28.1445 26.7969 28.2611 26.7176 28.3443 26.6082C28.4276 26.4988 28.4729 26.3653 28.4735 26.2278V24.1122C28.4735 23.3063 27.8993 22.6756 27.2015 22.3195C26.5037 21.9634 25.6315 21.7989 24.6772 21.7989ZM13.2885 19.268C13.6454 19.268 13.9212 19.5438 13.9212 19.9007C13.9212 20.2576 13.6454 20.5334 13.2885 20.5334C12.9315 20.5334 12.6557 20.2576 12.6557 19.9007C12.6557 19.5438 12.9315 19.268 13.2885 19.268ZM24.6772 19.268C25.0342 19.268 25.31 19.5438 25.31 19.9007C25.31 20.2576 25.0342 20.5334 24.6772 20.5334C24.3203 20.5334 24.0445 20.2576 24.0445 19.9007C24.0445 19.5438 24.3203 19.268 24.6772 19.268ZM13.2885 23.0643C14.0868 23.0643 14.7935 23.219 15.2393 23.4465C15.6851 23.674 15.8193 23.8792 15.8193 24.1122V25.7203C15.1465 25.8843 14.4922 25.998 13.7103 26.0169H13.6971H12.8798C12.8751 26.0168 12.8714 26.017 12.8666 26.0169C12.0848 25.9979 11.4304 25.8843 10.7576 25.7203V24.1122C10.7576 23.8792 10.8918 23.674 11.3376 23.4465C11.7834 23.219 12.4901 23.0643 13.2885 23.0643ZM24.6772 23.0643C25.4756 23.0643 26.1823 23.219 26.6281 23.4465C27.0739 23.674 27.2081 23.8792 27.2081 24.1122V25.7203C26.5353 25.8843 25.8809 25.998 25.0991 26.0169H25.0859H24.2686C24.2639 26.0168 24.2602 26.017 24.2554 26.0169C23.4735 25.9979 22.8192 25.8843 22.1464 25.7203V24.1122C22.1464 23.8792 22.2805 23.674 22.7264 23.4465C23.1722 23.219 23.8789 23.0643 24.6772 23.0643Z" fill="#720C20"/>
<path d="M18.9828 12.0973C17.942 12.0973 17.0847 11.24 17.0847 10.1992C17.0847 9.15834 17.942 8.30103 18.9828 8.30103C20.0237 8.30103 20.881 9.15834 20.881 10.1992C20.881 11.24 20.0237 12.0973 18.9828 12.0973ZM18.9828 12.0973C18.0286 12.0973 17.1564 12.2619 16.4586 12.618C15.7608 12.974 15.1866 13.6048 15.1866 14.4106V16.5263C15.1872 16.6637 15.2325 16.7973 15.3158 16.9067C15.399 17.0161 15.5156 17.0954 15.6479 17.1326C16.5779 17.3974 17.4776 17.5561 18.5479 17.5808C18.5523 17.5808 18.5566 17.5808 18.561 17.5808H19.4047C19.409 17.5808 19.4134 17.5808 19.4178 17.5808C20.4881 17.5561 21.3878 17.3974 22.3178 17.1326C22.4501 17.0954 22.5667 17.0161 22.6499 16.9067C22.7332 16.7973 22.7785 16.6637 22.7791 16.5263V14.4106C22.7791 13.6048 22.2049 12.974 21.5071 12.618C20.8093 12.2619 19.9371 12.0973 18.9828 12.0973ZM13.2885 21.7989C12.2476 21.7989 11.3903 20.9415 11.3903 19.9007C11.3903 18.8599 12.2476 18.0026 13.2885 18.0026C14.3293 18.0026 15.1866 18.8599 15.1866 19.9007C15.1866 20.9415 14.3293 21.7989 13.2885 21.7989ZM13.2885 21.7989C12.3342 21.7989 11.462 21.9634 10.7642 22.3195C10.0664 22.6756 9.49219 23.3063 9.49219 24.1122V26.2278C9.49279 26.3653 9.53814 26.4988 9.62138 26.6082C9.70461 26.7176 9.82121 26.7969 9.95354 26.8342C10.8835 27.0989 11.7832 27.2577 12.8535 27.2823C12.8579 27.2824 12.8623 27.2824 12.8666 27.2823H13.7103C13.7147 27.2824 13.719 27.2824 13.7234 27.2823C14.7937 27.2577 15.6934 27.0989 16.6234 26.8342C16.7557 26.7969 16.8723 26.7176 16.9555 26.6082C17.0388 26.4988 17.0841 26.3653 17.0847 26.2278V24.1122C17.0847 23.3063 16.5105 22.6756 15.8127 22.3195C15.1149 21.9634 14.2427 21.7989 13.2885 21.7989ZM24.6772 21.7989C23.6364 21.7989 22.7791 20.9415 22.7791 19.9007C22.7791 18.8599 23.6364 18.0026 24.6772 18.0026C25.7181 18.0026 26.5754 18.8599 26.5754 19.9007C26.5754 20.9415 25.7181 21.7989 24.6772 21.7989ZM24.6772 21.7989C23.723 21.7989 22.8508 21.9634 22.153 22.3195C21.4552 22.6756 20.881 23.3063 20.881 24.1122V26.2278C20.8816 26.3653 20.9269 26.4988 21.0102 26.6082C21.0934 26.7176 21.21 26.7969 21.3423 26.8342C22.2723 27.0989 23.172 27.2577 24.2423 27.2823C24.2466 27.2824 24.251 27.2824 24.2554 27.2823H25.0991C25.1034 27.2824 25.1078 27.2824 25.1122 27.2823C26.1825 27.2577 27.0822 27.0989 28.0122 26.8342C28.1445 26.7969 28.2611 26.7176 28.3443 26.6082C28.4276 26.4988 28.4729 26.3653 28.4735 26.2278V24.1122C28.4735 23.3063 27.8993 22.6756 27.2015 22.3195C26.5037 21.9634 25.6315 21.7989 24.6772 21.7989ZM18.9828 9.56645C19.3398 9.56645 19.6156 9.84223 19.6156 10.1992C19.6156 10.5561 19.3398 10.8319 18.9828 10.8319C18.6259 10.8319 18.3501 10.5561 18.3501 10.1992C18.3501 9.84223 18.6259 9.56645 18.9828 9.56645ZM18.9828 13.3627C19.7812 13.3627 20.4879 13.5175 20.9337 13.745C21.3795 13.9725 21.5137 14.1777 21.5137 14.4106V16.0188C20.8409 16.1827 20.1865 16.2964 19.4047 16.3154H19.3915H18.5742C18.5695 16.3153 18.5658 16.3155 18.561 16.3154C17.7791 16.2964 17.1248 16.1827 16.452 16.0188V14.4106C16.452 14.1777 16.5862 13.9725 17.032 13.745C17.4778 13.5175 18.1845 13.3627 18.9828 13.3627ZM18.9763 17.7785C18.8926 17.7794 18.81 17.7968 18.7331 17.8298C18.6562 17.8628 18.5867 17.9108 18.5284 17.9708C18.4702 18.0309 18.4245 18.1019 18.3939 18.1798C18.3633 18.2576 18.3484 18.3408 18.3501 18.4244V20.1709L16.5509 21.2518C16.4764 21.2927 16.411 21.3481 16.3584 21.4148C16.3059 21.4815 16.2673 21.558 16.2449 21.6399C16.2226 21.7218 16.2169 21.8074 16.2283 21.8915C16.2397 21.9757 16.268 22.0566 16.3113 22.1296C16.3547 22.2026 16.4123 22.2662 16.4807 22.3164C16.5491 22.3667 16.627 22.4027 16.7096 22.4223C16.7922 22.4418 16.8779 22.4446 16.9616 22.4303C17.0453 22.4161 17.1253 22.3851 17.1968 22.3393L18.9828 21.265L20.7689 22.3393C20.8404 22.3851 20.9204 22.4161 21.0041 22.4303C21.0878 22.4446 21.1735 22.4418 21.2561 22.4223C21.3387 22.4027 21.4166 22.3667 21.485 22.3164C21.5534 22.2662 21.611 22.2026 21.6544 22.1296C21.6977 22.0566 21.726 21.9757 21.7374 21.8915C21.7488 21.8074 21.7431 21.7218 21.7208 21.6399C21.6984 21.558 21.6598 21.4815 21.6073 21.4148C21.5547 21.3481 21.4893 21.2927 21.4148 21.2518L19.6156 20.1709V18.4244C19.6173 18.3397 19.602 18.2554 19.5706 18.1767C19.5392 18.098 19.4923 18.0264 19.4326 17.9661C19.373 17.9059 19.3019 17.8582 19.2235 17.826C19.1451 17.7938 19.061 17.7776 18.9763 17.7785ZM13.2885 19.268C13.6454 19.268 13.9212 19.5438 13.9212 19.9007C13.9212 20.2576 13.6454 20.5334 13.2885 20.5334C12.9315 20.5334 12.6557 20.2576 12.6557 19.9007C12.6557 19.5438 12.9315 19.268 13.2885 19.268ZM24.6772 19.268C25.0342 19.268 25.31 19.5438 25.31 19.9007C25.31 20.2576 25.0342 20.5334 24.6772 20.5334C24.3203 20.5334 24.0445 20.2576 24.0445 19.9007C24.0445 19.5438 24.3203 19.268 24.6772 19.268ZM13.2885 23.0643C14.0868 23.0643 14.7935 23.219 15.2393 23.4465C15.6851 23.674 15.8193 23.8792 15.8193 24.1122V25.7203C15.1465 25.8843 14.4922 25.998 13.7103 26.0169H13.6971H12.8798C12.8751 26.0168 12.8714 26.017 12.8666 26.0169C12.0848 25.9979 11.4304 25.8843 10.7576 25.7203V24.1122C10.7576 23.8792 10.8918 23.674 11.3376 23.4465C11.7834 23.219 12.4901 23.0643 13.2885 23.0643ZM24.6772 23.0643C25.4756 23.0643 26.1823 23.219 26.6281 23.4465C27.0739 23.674 27.2081 23.8792 27.2081 24.1122V25.7203C26.5353 25.8843 25.8809 25.998 25.0991 26.0169H25.0859H24.2686C24.2639 26.0168 24.2602 26.017 24.2554 26.0169C23.4735 25.9979 22.8192 25.8843 22.1464 25.7203V24.1122C22.1464 23.8792 22.2805 23.674 22.7264 23.4465C23.1722 23.219 23.8789 23.0643 24.6772 23.0643Z" stroke="#720C20" stroke-width="0.126542"/>
</svg>
