<svg width="14" height="14" viewBox="0 0 14 14" fill="none" xmlns="http://www.w3.org/2000/svg">
<path d="M12.8609 7.40489C13.0237 7.26539 13.105 7.19564 13.1348 7.11264C13.161 7.03979 13.161 6.96011 13.1348 6.88726C13.105 6.80426 13.0237 6.73451 12.8609 6.59501L7.21375 1.7546C6.9336 1.51447 6.79353 1.3944 6.67493 1.39146C6.57186 1.3889 6.47341 1.43418 6.40828 1.5141C6.33333 1.60606 6.33333 1.79055 6.33333 2.15953V5.02304C4.91021 5.27201 3.60773 5.99312 2.63981 7.07586C1.58455 8.25629 1.00082 9.78391 1 11.3673V11.7753C1.69956 10.9325 2.573 10.251 3.56051 9.77723C4.43113 9.35957 5.37228 9.11216 6.33333 9.04697V11.8404C6.33333 12.2093 6.33333 12.3938 6.40828 12.4858C6.47341 12.5657 6.57186 12.611 6.67493 12.6084C6.79353 12.6055 6.9336 12.4854 7.21375 12.2453L12.8609 7.40489Z" stroke="#720D21" stroke-linecap="round" stroke-linejoin="round"/>
</svg>
