<svg width="13" height="15" viewBox="0 0 13 15" fill="none" xmlns="http://www.w3.org/2000/svg">
<path d="M8.33333 3.46657L4.66667 6.03324M8.33333 11.5332L4.66667 8.96657M4.66667 7.4999C4.66667 7.98613 4.47351 8.45245 4.1297 8.79626C3.78588 9.14008 3.31956 9.33324 2.83333 9.33324C2.3471 9.33324 1.88079 9.14008 1.53697 8.79626C1.19315 8.45245 1 7.98613 1 7.4999C1 7.01367 1.19315 6.54736 1.53697 6.20354C1.88079 5.85972 2.3471 5.66657 2.83333 5.66657C3.31956 5.66657 3.78588 5.85972 4.1297 6.20354C4.47351 6.54736 4.66667 7.01367 4.66667 7.4999ZM12 12.2666C12 12.7528 11.8068 13.2191 11.463 13.5629C11.1192 13.9067 10.6529 14.0999 10.1667 14.0999C9.68044 14.0999 9.21412 13.9067 8.8703 13.5629C8.52649 13.2191 8.33333 12.7528 8.33333 12.2666C8.33333 11.7803 8.52649 11.314 8.8703 10.9702C9.21412 10.6264 9.68044 10.4332 10.1667 10.4332C10.6529 10.4332 11.1192 10.6264 11.463 10.9702C11.8068 11.314 12 11.7803 12 12.2666ZM12 2.73324C12 3.21947 11.8068 3.68578 11.463 4.0296C11.1192 4.37341 10.6529 4.56657 10.1667 4.56657C9.68044 4.56657 9.21412 4.37341 8.8703 4.0296C8.52649 3.68578 8.33333 3.21947 8.33333 2.73324C8.33333 2.24701 8.52649 1.78069 8.8703 1.43687C9.21412 1.09306 9.68044 0.899902 10.1667 0.899902C10.6529 0.899902 11.1192 1.09306 11.463 1.43687C11.8068 1.78069 12 2.24701 12 2.73324Z" stroke="black" stroke-width="1.1" stroke-linecap="round" stroke-linejoin="round"/>
</svg>
