<svg width="22" height="20" viewBox="0 0 22 20" fill="none" xmlns="http://www.w3.org/2000/svg">
<path d="M17 9H9V11H17V14L22 10L17 6V9ZM18 16H15.292C14.1373 17.0183 12.7133 17.6819 11.1909 17.9109C9.66843 18.14 8.11223 17.9249 6.70899 17.2915C5.30576 16.6581 4.11512 15.6332 3.27993 14.3398C2.44475 13.0465 2.0005 11.5396 2.0005 10C2.0005 8.46042 2.44475 6.95354 3.27993 5.66019C4.11512 4.36683 5.30576 3.34194 6.70899 2.7085C8.11223 2.07506 9.66843 1.85998 11.1909 2.08906C12.7133 2.31815 14.1373 2.98167 15.292 4H18C17.0693 2.75718 15.8617 1.74851 14.4729 1.05414C13.0842 0.359775 11.5527 -0.00116364 10 2.81829e-06C4.477 2.81829e-06 0 4.477 0 10C0 15.523 4.477 20 10 20C11.5527 20.0012 13.0842 19.6402 14.4729 18.9459C15.8617 18.2515 17.0693 17.2428 18 16Z" fill="white"/>
</svg>
