<svg width="24" height="24" viewBox="0 0 24 24" fill="none" xmlns="http://www.w3.org/2000/svg">
<path d="M20.96 4.12003H17.76V3.48003C17.76 1.71537 16.3247 0.280029 14.56 0.280029H9.43998C7.67532 0.280029 6.23998 1.71537 6.23998 3.48003V4.12003H3.03998C1.62604 4.12003 0.47998 5.26609 0.47998 6.68003V20.76C0.47998 22.1736 1.62604 23.32 3.03998 23.32H20.96C22.3736 23.32 23.52 22.1736 23.52 20.76V6.68003C23.52 5.26609 22.3736 4.12003 20.96 4.12003ZM15.84 15H13.28V17.56H10.72V15H8.15998V12.44H10.72V9.88003H13.28V12.44H15.84V15ZM16.48 4.12003H7.51998V3.48003C7.51998 2.42129 8.38124 1.56003 9.43998 1.56003H14.56C15.6187 1.56003 16.48 2.42129 16.48 3.48003V4.12003Z" fill="#1C5AB8"/>
</svg>
