<svg width="16" height="16" viewBox="0 0 16 16" fill="none" xmlns="http://www.w3.org/2000/svg">
<path id="Vector" fill-rule="evenodd" clip-rule="evenodd" d="M5.06734 3.18594C4.3296 3.18794 3.71617 3.19957 3.21522 3.26693C2.5864 3.35147 2.05695 3.53233 1.63645 3.95283C1.21595 4.37334 1.03509 4.90278 0.950542 5.5316C0.869113 6.13726 0.869127 6.90732 0.869141 7.86273V10.7338C0.869127 11.6892 0.869113 12.4593 0.950542 13.065C1.03509 13.6938 1.21595 14.2232 1.63645 14.6437C2.05695 15.0643 2.5864 15.2451 3.21522 15.3297C3.82088 15.411 4.59097 15.411 5.54636 15.411H10.5133C11.4687 15.411 12.2387 15.411 12.8444 15.3297C13.4732 15.2451 14.0026 15.0643 14.4232 14.6437C14.8437 14.2232 15.0245 13.6938 15.1091 13.065C15.1905 12.4593 15.1905 11.6892 15.1905 10.7338V7.86273C15.1905 6.90732 15.1905 6.13727 15.1091 5.5316C15.0245 4.90278 14.8437 4.37334 14.4232 3.95283C14.0026 3.53233 13.4732 3.35147 12.8444 3.26693C12.3435 3.19957 11.73 3.18794 10.9923 3.18594C10.9033 2.01341 9.92371 1.08972 8.7284 1.08972H7.3312C6.13589 1.08972 5.15632 2.01341 5.06734 3.18594ZM6.12103 3.18553H9.93859C9.85385 2.59306 9.34429 2.13762 8.7284 2.13762H7.3312C6.71532 2.13762 6.20578 2.59306 6.12103 3.18553ZM2.37743 13.9028C2.57077 14.0961 2.84223 14.2222 3.35485 14.2911C3.88254 14.362 4.58191 14.3631 5.5847 14.3631H10.4749C11.4777 14.3631 12.177 14.362 12.7048 14.2911C13.2174 14.2222 13.4888 14.0961 13.6822 13.9028C13.8756 13.7094 14.0016 13.438 14.0705 12.9254C14.1414 12.3976 14.1426 11.6983 14.1426 10.6955V7.90108C14.1426 6.89831 14.1414 6.19892 14.0705 5.67123C14.0016 5.15861 13.8756 4.88716 13.6822 4.69381C13.4888 4.50047 13.2174 4.3744 12.7048 4.30549C12.177 4.23454 11.4777 4.23343 10.4749 4.23343H5.5847C4.58191 4.23343 3.88254 4.23454 3.35485 4.30549C2.84223 4.3744 2.57077 4.50047 2.37743 4.69381C2.18408 4.88716 2.05802 5.15861 1.9891 5.67123C1.91815 6.19892 1.91704 6.89831 1.91704 7.90108V10.6955C1.91704 11.6983 1.91815 12.3976 1.9891 12.9254C2.05802 13.438 2.18408 13.7094 2.37743 13.9028Z" fill="#838383" stroke="#838383" stroke-width="0.698601"/>
</svg>
