<svg width="16" height="16" viewBox="0 0 16 16" fill="none" xmlns="http://www.w3.org/2000/svg">
<path d="M4.23593 1.70403L3.76788 2.17402C2.16189 3.78803 4.17983 5.79802 4.17983 5.79802L4.58386 6.19999L8.21791 9.81599L8.62194 10.218C8.62194 10.218 10.64 12.226 12.248 10.612L12.716 10.142C12.902 9.956 12.9001 9.65393 12.7141 9.47002L11.5381 8.30001L11.2361 7.99805C10.9342 7.69608 10.6321 8.00001 10.6321 8.00001L10.026 8.60001C9.72406 8.90198 9.422 8.60197 9.422 8.60197L5.79001 4.98803C5.79001 4.98803 5.48804 4.68607 5.78804 4.38401L6.39001 3.77802C6.39001 3.77802 6.69197 3.47605 6.38804 3.174L6.08608 2.87203L4.9101 1.70202C4.72403 1.51595 4.42199 1.518 4.236 1.70398L4.23593 1.70403Z" fill="black"/>
</svg>
