<svg width="19" height="19" viewBox="0 0 19 19" fill="none" xmlns="http://www.w3.org/2000/svg">
<circle cx="9.5" cy="9.5" r="9.5" fill="#C4C4C4"/>
<path d="M3.91621 4.90783H6.96147V4.21898C6.96147 3.48621 7.55763 2.89014 8.29031 2.89014H9.70905C10.4418 2.89014 11.0379 3.4863 11.0379 4.21898V4.90783H14.0834C14.7065 4.90783 15.2117 5.41302 15.2117 6.03612V7.31004C15.0714 7.64737 14.7383 7.88513 14.351 7.88513H3.64858C3.26136 7.88513 2.92812 7.64737 2.78787 7.31004V6.03612C2.78787 5.41299 3.29306 4.90783 3.91617 4.90783H3.91621ZM10.4072 4.21898C10.4072 3.83416 10.0941 3.52104 9.70923 3.52104H8.29049C7.90558 3.52104 7.59255 3.83416 7.59255 4.21898V4.90783H10.4072V4.21898Z" fill="black"/>
<path d="M3.64896 8.39619C3.32673 8.39619 3.02878 8.28994 2.78826 8.11084V12.7822C2.78826 13.4053 3.29344 13.9104 3.91655 13.9104H14.0836C14.7067 13.9104 15.2119 13.4053 15.2119 12.7822V8.11084C14.9715 8.28995 14.6734 8.39619 14.3512 8.39619H3.64896Z" fill="black"/>
</svg>
