<svg width="47" height="47" viewBox="0 0 47 47" fill="none" xmlns="http://www.w3.org/2000/svg">
<path d="M23.5 0C10.521 0 0 10.521 0 23.5C0 36.479 10.521 47 23.5 47C36.479 47 47 36.479 47 23.5C47 10.521 36.479 0 23.5 0ZM23.5 43.475C20.8767 43.4748 18.2791 42.958 15.8555 41.954C13.432 40.9499 11.2299 39.4783 9.37505 37.6233C7.5202 35.7682 6.0489 33.566 5.04515 31.1423C4.04139 28.7186 3.52485 26.121 3.525 23.4976C3.52515 20.8743 4.04201 18.2767 5.04604 15.8532C6.05008 13.4296 7.52165 11.2276 9.37672 9.3727C11.2318 7.51785 13.434 6.04655 15.8577 5.0428C18.2814 4.03904 20.879 3.5225 23.5023 3.52265C28.8004 3.52296 33.8813 5.62789 37.6273 9.37437C41.3733 13.1208 43.4777 18.202 43.4773 23.5C43.477 28.798 41.3721 33.8789 37.6256 37.6249C33.8792 41.371 28.798 43.4753 23.5 43.475ZM23.5 24.675C16.3607 24.675 10.575 28.7358 10.575 32.9C10.575 37.0642 16.3607 41.125 23.5 41.125C30.6393 41.125 36.425 37.0642 36.425 32.9C36.425 28.7358 30.6393 24.675 23.5 24.675ZM23.5 23.5C25.3698 23.5 27.163 22.7572 28.4851 21.4351C29.8072 20.113 30.55 18.3198 30.55 16.45C30.55 14.5802 29.8072 12.787 28.4851 11.4649C27.163 10.1428 25.3698 9.4 23.5 9.4C21.6302 9.4 19.837 10.1428 18.5149 11.4649C17.1928 12.787 16.45 14.5802 16.45 16.45C16.45 18.3198 17.1928 20.113 18.5149 21.4351C19.837 22.7572 21.6302 23.5 23.5 23.5Z" fill="#333333"/>
</svg>
