<svg width="12" height="12" viewBox="0 0 12 12" fill="none" xmlns="http://www.w3.org/2000/svg">
<path id="Vector" d="M10.4302 6.60558H6.78966V10.2461C6.78966 10.4392 6.71295 10.6244 6.57641 10.7609C6.43986 10.8975 6.25467 10.9742 6.06156 10.9742C5.86846 10.9742 5.68326 10.8975 5.54672 10.7609C5.41017 10.6244 5.33346 10.4392 5.33346 10.2461V6.60558H1.69295C1.49984 6.60558 1.31465 6.52887 1.1781 6.39233C1.04155 6.25578 0.964844 6.07058 0.964844 5.87748C0.964844 5.68437 1.04155 5.49918 1.1781 5.36263C1.31465 5.22609 1.49984 5.14938 1.69295 5.14938H5.33346V1.50886C5.33346 1.31576 5.41017 1.13056 5.54672 0.994018C5.68326 0.857472 5.86846 0.780762 6.06156 0.780762C6.25467 0.780762 6.43986 0.857472 6.57641 0.994018C6.71295 1.13056 6.78966 1.31576 6.78966 1.50886V5.14938H10.4302C10.6233 5.14938 10.8085 5.22609 10.945 5.36263C11.0816 5.49918 11.1583 5.68437 11.1583 5.87748C11.1583 6.07058 11.0816 6.25578 10.945 6.39233C10.8085 6.52887 10.6233 6.60558 10.4302 6.60558Z" fill="white" stroke="white" stroke-width="0.681115"/>
</svg>
