<svg width="30" height="25" viewBox="0 0 30 25" fill="none" xmlns="http://www.w3.org/2000/svg">
<path d="M17.6824 0H17.7572C18.6934 0 19.6295 0.154684 20.4908 0.541393C21.2023 0.889431 21.8389 1.43082 22.2882 2.1269C22.7001 2.74564 22.9622 3.48038 23.0746 4.21513C23.2244 5.02722 23.2618 5.87798 23.1869 6.72874C23.1495 7.50216 22.9623 8.31425 22.6252 9.01033C22.2508 9.74508 21.7265 10.4025 21.1648 10.9825C20.9776 11.1372 20.8653 11.3693 20.8278 11.6013C20.7904 11.8333 20.9402 12.0653 21.1274 12.22C21.3895 12.452 21.6891 12.6067 21.9887 12.7614C22.4754 12.9934 22.9622 13.2641 23.4865 13.4962C23.1869 13.5735 22.8874 13.6508 22.6252 13.8055C22.1384 13.9989 21.6891 14.2696 21.2772 14.5789C21.2397 14.5789 21.2023 14.6176 21.1648 14.6176C20.8278 14.4629 20.5283 14.3082 20.2287 14.0762C19.667 13.6895 19.2176 13.1481 19.0304 12.4907C18.8806 12.0267 18.8432 11.4853 18.993 11.0212C19.1053 10.5572 19.33 10.1318 19.5921 9.78375C20.0789 9.24235 20.6031 8.73963 20.9027 8.08223C21.1274 7.5795 21.2397 7.03811 21.2772 6.49672C21.3146 5.994 21.3146 5.4526 21.2397 4.94988C21.1648 4.48583 21.0525 4.02178 20.8653 3.5964C20.7155 3.3257 20.5283 3.055 20.3036 2.86165C20.0415 2.62962 19.7044 2.43627 19.33 2.32026C18.9181 2.16557 18.4687 2.1269 18.0194 2.08823C17.5326 2.08823 17.0458 2.08823 16.559 2.20424C16.1845 2.28158 15.8475 2.43627 15.5479 2.62962C15.2484 2.82298 14.9862 3.09367 14.799 3.40304C14.5743 3.75108 14.462 4.17646 14.3497 4.60184C14.2373 5.1819 14.2373 5.80064 14.2373 6.3807C14.2748 6.88343 14.3122 7.34748 14.462 7.81153C14.6867 8.54628 15.1735 9.12634 15.6228 9.70641C16.1471 10.2865 16.4466 11.0986 16.4466 11.9106C16.4466 12.4134 16.2969 12.9548 15.9973 13.3801C15.8101 13.6508 15.5854 13.8442 15.3233 14.0376C15.1735 14.1536 15.0237 14.2696 14.8365 14.3469C13.9752 14.7336 13.0765 15.1203 12.2152 15.5457C11.7659 15.7391 11.354 15.9711 10.9421 16.1645C10.6425 16.3191 10.3055 16.5125 10.0434 16.7445C9.89357 16.8605 9.74379 17.0152 9.6689 17.2086C9.594 17.4406 9.63145 17.7113 9.63145 17.9433C9.63145 18.446 9.63145 18.9488 9.63145 19.4128C9.78124 19.5288 9.93102 19.6062 10.0808 19.6835C10.4927 19.8382 10.9421 19.9542 11.3914 20.0315C12.2152 20.1862 13.0765 20.2636 13.9377 20.3022C15.6228 20.4183 17.2704 20.4183 18.9555 20.3796C19.0304 21.0757 19.2551 21.7717 19.5547 22.3905C18.3189 22.4291 17.0832 22.4291 15.8475 22.3905C14.9862 22.3518 14.125 22.3518 13.2637 22.2745C12.4399 22.1971 11.5786 22.1198 10.7548 21.9651C10.0808 21.8104 9.40678 21.6557 8.77019 21.3077C8.35829 21.0757 7.98382 20.7276 7.75915 20.2636C6.63577 20.2636 5.47494 20.2249 4.35156 20.1089C3.75242 20.0315 3.11584 19.9542 2.5167 19.8382C2.10479 19.7608 1.69289 19.6448 1.31842 19.4515C0.98141 19.2968 0.644396 19.1034 0.419719 18.7941C0.195043 18.5234 0.0452586 18.214 0.0078125 17.866C0.0078125 17.7886 0.0078125 17.7113 0.0078125 17.6339V16.2805C0.0078125 16.0098 0.00781243 15.7391 0.0827046 15.507C0.157597 15.1203 0.344827 14.7336 0.569503 14.4243C0.831626 14.0762 1.16864 13.8442 1.5431 13.6122C1.95501 13.3415 2.36691 13.1481 2.81627 12.9548C3.64008 12.5681 4.50134 12.1813 5.32515 11.7946C5.43749 11.7173 5.51238 11.64 5.62472 11.5626C5.69961 11.4466 5.66217 11.3306 5.62472 11.2146C5.54983 11.0212 5.40005 10.8665 5.25026 10.7119C4.76346 10.1318 4.35156 9.51305 4.12688 8.81697C3.9022 8.19824 3.82731 7.5795 3.82731 6.9221C3.78987 6.03267 3.9022 5.10456 4.20177 4.2538C4.50134 3.51906 4.98814 2.86165 5.62472 2.3976C6.29875 1.93355 7.12256 1.70152 7.94638 1.62418C8.58296 1.58551 9.21954 1.62418 9.85613 1.74019C10.4927 1.89488 11.1293 2.16557 11.6161 2.62962C11.9906 2.93899 12.2901 3.3257 12.5148 3.75108C12.6646 3.20969 12.8893 2.70697 13.1888 2.24291C13.6007 1.62418 14.1624 1.08279 14.8365 0.734748C15.6603 0.193355 16.6713 0.0386709 17.6824 0ZM7.08512 3.78975C6.71066 3.94444 6.37364 4.17646 6.14897 4.5245C5.8494 5.02722 5.73706 5.60729 5.69961 6.18735C5.69961 6.6514 5.69961 7.15412 5.77451 7.61818C5.8494 7.96621 5.96174 8.27558 6.11152 8.58495C6.29875 8.93299 6.56087 9.24235 6.823 9.55172C7.27235 10.0931 7.53447 10.8279 7.49703 11.5626C7.45958 12.104 7.2349 12.6067 6.86044 12.9934C6.59832 13.2641 6.29875 13.4962 5.92429 13.6508C4.95069 14.0762 3.9771 14.5016 3.04094 15.0043C2.74138 15.159 2.40436 15.3524 2.14224 15.5457C2.06735 15.6231 1.95501 15.7004 1.91756 15.8164C1.88012 15.9711 1.88012 16.1645 1.88012 16.3191C1.88012 16.7058 1.88012 17.0926 1.88012 17.4793C2.06735 17.5953 2.29202 17.6726 2.5167 17.7113C3.0035 17.866 3.52774 17.9433 4.05199 17.982C5.21282 18.098 6.37364 18.1367 7.53447 18.1753C7.53447 17.9046 7.53447 17.6339 7.53447 17.4019C7.57192 16.9765 7.64681 16.5512 7.83404 16.2031C8.02127 15.8551 8.24595 15.5457 8.54551 15.275C8.88253 14.9657 9.25699 14.7336 9.63145 14.5403C10.0808 14.2696 10.5676 14.0376 11.0544 13.8055C10.7548 13.6508 10.4927 13.4962 10.2306 13.3028C9.85613 13.0321 9.55656 12.6454 9.36933 12.22C9.1821 11.7946 9.14465 11.3306 9.21954 10.8665C9.29444 10.4025 9.51911 10.0158 9.78123 9.62906C10.1557 9.20368 10.605 8.7783 10.8297 8.27558C11.0918 7.73419 11.0918 7.07678 11.0918 6.45805C11.0918 5.83931 11.017 5.22058 10.7174 4.67918C10.5302 4.29247 10.1557 4.02178 9.78123 3.86709C9.33188 3.67374 8.88253 3.63507 8.39573 3.63507C7.98382 3.55773 7.53447 3.63507 7.08512 3.78975ZM11.3914 10.8279C11.2791 10.9439 11.2042 11.0599 11.1667 11.2146C11.1293 11.3306 11.2042 11.4466 11.2791 11.5626C11.4663 11.756 11.691 11.872 11.9157 11.988C12.4025 12.22 12.9267 12.4907 13.4135 12.7227C13.6007 12.6454 13.788 12.5681 13.9377 12.4907C14.0501 12.4134 14.1999 12.2974 14.3122 12.22C14.3871 12.1427 14.4245 11.988 14.4245 11.872C14.4245 11.6013 14.3122 11.2919 14.125 11.0986C13.5633 10.4412 13.039 9.78375 12.7395 8.97166C12.4399 9.62906 11.9157 10.2478 11.3914 10.8279Z" fill="white"/>
<path d="M24.423 14.8891C25.3217 14.8118 26.2204 14.9664 27.0068 15.4305C27.7932 15.8559 28.4672 16.552 28.8791 17.364C29.291 18.1375 29.4782 19.0269 29.4033 19.9163C29.3659 20.8058 29.0663 21.6565 28.5421 22.3913C28.0553 23.0873 27.3813 23.6287 26.5949 23.9768C25.6962 24.3635 24.6851 24.4408 23.749 24.2088C23.0001 24.0155 22.326 23.6674 21.7644 23.126C21.0903 22.5073 20.6035 21.6952 20.4163 20.8058C20.1542 19.8003 20.2665 18.7175 20.641 17.7508C21.0529 16.7453 21.8392 15.8946 22.8128 15.3918C23.3371 15.0825 23.8613 14.9665 24.423 14.8891ZM24.3856 16.9773C24.3856 17.6734 24.3856 18.3695 24.3856 19.0656C23.749 19.0656 23.1124 19.0656 22.4758 19.0656C22.4758 19.4523 22.4758 19.839 22.4758 20.187C23.1124 20.187 23.749 20.187 24.3856 20.187C24.3856 20.9218 24.3856 21.6565 24.3856 22.3913C24.76 22.3913 25.1719 22.3913 25.5464 22.3913C25.5464 21.6565 25.5464 20.9218 25.5464 20.187C26.183 20.187 26.7821 20.187 27.4187 20.187C27.4187 19.8003 27.4187 19.4136 27.4187 19.0656C26.7821 19.0656 26.183 19.0656 25.5464 19.0656C25.5464 18.3695 25.5464 17.6734 25.5464 16.9773C25.1719 16.9773 24.7975 16.9773 24.3856 16.9773Z" fill="white"/>
</svg>
