<svg width="10" height="11" viewBox="0 0 10 11" fill="none" xmlns="http://www.w3.org/2000/svg">
<path d="M6.20845 2.68966L3.79465 4.37931M6.20845 8L3.79465 6.31035M3.79465 5.34483C3.79465 5.66492 3.6675 5.9719 3.44116 6.19823C3.21482 6.42457 2.90784 6.55172 2.58776 6.55172C2.26767 6.55172 1.96069 6.42457 1.73435 6.19823C1.50801 5.9719 1.38086 5.66492 1.38086 5.34483C1.38086 5.02474 1.50801 4.71776 1.73435 4.49142C1.96069 4.26509 2.26767 4.13793 2.58776 4.13793C2.90784 4.13793 3.21482 4.26509 3.44116 4.49142C3.6675 4.71776 3.79465 5.02474 3.79465 5.34483ZM8.62224 8.48276C8.62224 8.80285 8.49508 9.10983 8.26875 9.33616C8.04241 9.5625 7.73543 9.68966 7.41534 9.68966C7.09525 9.68966 6.78827 9.5625 6.56194 9.33616C6.3356 9.10983 6.20845 8.80285 6.20845 8.48276C6.20845 8.16267 6.3356 7.85569 6.56194 7.62935C6.78827 7.40302 7.09525 7.27586 7.41534 7.27586C7.73543 7.27586 8.04241 7.40302 8.26875 7.62935C8.49508 7.85569 8.62224 8.16267 8.62224 8.48276ZM8.62224 2.2069C8.62224 2.52699 8.49508 2.83396 8.26875 3.0603C8.04241 3.28664 7.73543 3.41379 7.41534 3.41379C7.09525 3.41379 6.78827 3.28664 6.56194 3.0603C6.3356 2.83396 6.20845 2.52699 6.20845 2.2069C6.20845 1.88681 6.3356 1.57983 6.56194 1.35349C6.78827 1.12715 7.09525 1 7.41534 1C7.73543 1 8.04241 1.12715 8.26875 1.35349C8.49508 1.57983 8.62224 1.88681 8.62224 2.2069Z" stroke="white" stroke-width="1.2" stroke-linecap="round" stroke-linejoin="round"/>
</svg>
