<svg width="54" height="56" viewBox="0 0 54 56" fill="none" xmlns="http://www.w3.org/2000/svg">
<path d="M17.3973 32.75C19.5368 33.0832 22.1484 32.5728 25.0011 32.3958C25.5335 32.5207 26.0659 32.6042 26.6183 32.6042C27.1808 32.6042 27.7333 32.5207 28.2857 32.3854C35.7087 32.7604 41.4944 34.9375 41.4944 19.2708C41.4944 8.63542 34.8348 0 26.6183 0C18.4018 0 11.7422 8.63542 11.7422 19.2708C11.7422 27.8229 13.3192 31.1458 15.8806 32.3021C16.3527 32.5313 16.865 32.6667 17.3973 32.75ZM15.0268 13.2604C16.5837 15.5 20.6217 15.0208 24.1071 12.1875C24.9911 11.4688 25.7645 10.6458 26.3873 9.8125C26.4676 9.82292 26.548 9.83333 26.6284 9.85417C26.9699 9.91667 27.2813 10.0417 27.6328 10.1563C27.9443 10.3125 28.2857 10.4375 28.5871 10.6354C28.8985 10.8021 29.1797 11.0313 29.4609 11.2292C29.7121 11.4583 29.9933 11.6771 30.2043 11.9271C30.4251 12.1563 30.6362 12.4063 30.7968 12.6458C30.9776 12.875 31.1083 13.1146 31.2387 13.3229C31.3692 13.5313 31.4797 13.7188 31.5401 13.8854C31.6908 14.2083 31.7811 14.3958 31.7811 14.3958C31.7811 14.3958 31.7509 14.1979 31.6908 13.8333C31.6707 13.6458 31.6204 13.4375 31.5602 13.1875C31.4998 12.9375 31.4295 12.6458 31.3091 12.3542C31.2086 12.0521 31.068 11.7396 30.9073 11.4063C30.7566 11.0729 30.5356 10.75 30.3246 10.3958C30.0735 10.0729 29.8424 9.71875 29.5411 9.40625C29.2599 9.07292 28.9183 8.79167 28.5869 8.48958C28.2755 8.26042 27.9441 8.01042 27.5925 7.8125C27.7432 7.48958 27.8636 7.15625 27.9641 6.84375C29.2096 7.42708 30.4854 8.16667 31.4998 9.21875C35.2265 13.0833 33.7599 17.5729 36.6327 14.6042C37.0847 14.1354 37.4563 13.6458 37.7477 13.1563C37.8481 13.1563 37.9486 13.1458 38.0289 13.1667C38.4207 13.2708 38.6718 13.5833 38.8124 13.8333C39.2042 14.5104 39.2947 15.4896 39.0535 16.4688C38.6919 17.9271 37.7678 18.7917 37.0245 18.8854L36.4218 18.9688L36.2612 19.5833C34.8348 24.9479 30.9877 30.6563 26.6384 30.6563C22.2891 30.6563 18.452 24.9479 17.0156 19.5833L16.8549 18.9688L16.2522 18.8854C15.519 18.7813 14.5848 17.9167 14.2232 16.4688C13.9821 15.4896 14.0725 14.5104 14.4643 13.8333C14.5547 13.6458 14.7556 13.4063 15.0268 13.2604Z" fill="black" fill-opacity="0.6"/>
<path d="M37.798 34.1562C36.6328 36.2186 35.2768 37.9583 33.4888 38.9166C29.7924 40.8749 27.0403 42.4791 27.0403 42.4791L27.0301 42.4686V42.4373L27 42.4581L26.9699 42.4373V42.4686L26.9598 42.4791C26.9598 42.4791 24.2176 40.8957 20.5111 38.9166C18.7232 37.9583 17.3772 36.2186 16.202 34.1562C10.7277 36.4686 6.91071 41.7603 6.91071 46.3957C6.91071 51.2708 6.91071 55.9999 6.91071 55.9999H26.9598H27.0402H47.0893C47.0893 55.9999 47.0893 51.2708 47.0893 46.3957C47.0893 41.7708 43.2623 36.4688 37.798 34.1562Z" fill="black" fill-opacity="0.6"/>
</svg>
