<svg width="322" height="246" viewBox="0 0 322 246" fill="none" xmlns="http://www.w3.org/2000/svg">
<path d="M322 0H0V246H322V0Z" fill="white"/>
<path d="M200.316 103.164C199.688 103.165 199.082 103.415 198.638 103.86C198.194 104.304 197.946 104.906 197.946 105.535V118.073C197.945 118.385 198.005 118.693 198.124 118.982C198.243 119.27 198.418 119.532 198.638 119.753C198.858 119.973 199.122 120.149 199.409 120.269C199.697 120.388 200.004 120.45 200.316 120.451H239.416C239.728 120.45 240.035 120.388 240.323 120.269C240.611 120.149 240.874 119.973 241.094 119.753C241.314 119.532 241.49 119.27 241.608 118.982C241.727 118.693 241.787 118.385 241.787 118.073V105.535C241.786 104.906 241.538 104.304 241.094 103.86C240.65 103.415 240.044 103.165 239.416 103.164H200.316ZM200.645 105.877H239.073V117.737H200.645V105.877Z" fill="#720C20" stroke="#720C20" stroke-width="1.77297"/>
<path d="M144.339 39.0159C140.672 39.1411 137.069 40.0048 133.743 41.5556C130.417 43.1063 127.436 45.3123 124.982 48.0411H124.946C117.427 56.4054 112.663 66.8802 111.301 78.0445C110.734 82.6894 111.026 87.3992 112.158 91.9394C113.207 96.1519 113.761 100.472 113.808 104.813C113.812 105.084 113.762 105.352 113.658 105.601C113.553 105.851 113.396 106.076 113.201 106.263C112.276 107.133 111.138 107.744 109.902 108.034C109.169 108.206 108.479 108.532 107.881 108.988C107.283 109.445 106.792 110.022 106.432 110.683C106.072 111.345 105.855 112.074 105.796 112.824C105.737 113.575 105.836 114.329 106.089 115.038C106.624 116.542 107.343 117.974 108.231 119.301C104.655 120.601 101.396 122.642 98.6631 125.29C95.9302 127.938 93.7852 131.133 92.3725 134.667C91.8585 135.955 91.5101 137.303 91.3372 138.68C89.479 153.399 88.3658 168.203 88.0027 183.035C87.9734 184.235 88.1847 185.43 88.6239 186.547C89.063 187.665 89.7202 188.684 90.5589 189.543C91.3975 190.403 92.4012 191.086 93.5078 191.553C94.6144 192.019 95.8056 192.26 97.0065 192.26H202.14C203.341 192.26 204.531 192.02 205.638 191.554C206.745 191.087 207.748 190.404 208.587 189.544C209.426 188.685 210.083 187.666 210.522 186.548C210.962 185.43 211.173 184.236 211.143 183.035C211.144 182.587 211.144 182.14 211.143 181.692H240.476C243.532 181.692 246.462 180.478 248.623 178.316C250.784 176.155 252 173.224 252 170.168V106.213C252 103.157 250.784 100.225 248.623 98.064C246.462 95.9028 243.532 94.6887 240.476 94.6884H199.341C197.827 94.6881 196.326 94.9859 194.928 95.5649C193.529 96.1439 192.264 96.9925 191.194 98.0626C190.123 99.1328 189.274 100.404 188.695 101.802C188.115 103.2 187.816 104.699 187.816 106.213V107.512C187.149 107.192 186.535 106.77 185.995 106.263C185.797 106.077 185.638 105.853 185.531 105.603C185.424 105.354 185.372 105.085 185.374 104.813C185.422 100.475 185.975 96.1567 187.024 91.9466C189.402 82.7773 188.402 73.0584 184.21 64.5637C182.679 60.8568 180.373 57.5223 177.441 54.7851C174.51 52.0479 171.02 49.972 167.217 48.698C166.935 48.6069 166.681 48.453 166.467 48.2482C163.823 45.6969 160.809 43.5594 157.527 41.9077C153.443 39.8544 148.908 38.86 144.339 39.0159ZM144.411 42.4003C148.413 42.2638 152.386 43.1356 155.964 44.9351C158.942 46.4341 161.676 48.3744 164.075 50.6902C164.649 51.2427 165.346 51.6598 166.103 51.9112C169.465 53.0365 172.542 54.8746 175.128 57.2998C177.714 59.7251 179.744 62.6801 181.083 65.9632C184.958 73.7564 185.886 82.6875 183.696 91.1111C182.581 95.5827 181.998 100.169 181.947 104.778C181.939 105.518 182.085 106.251 182.375 106.932C182.665 107.613 183.093 108.226 183.632 108.733C184.989 110.01 186.659 110.906 188.473 111.332C188.742 111.395 188.989 111.514 189.209 111.682C189.429 111.849 189.612 112.061 189.744 112.304C189.876 112.547 189.958 112.815 189.98 113.09C190.001 113.366 189.966 113.643 189.873 113.903C189.014 116.311 187.583 118.477 185.71 120.217C183.836 121.957 181.57 123.22 179.105 123.899C175.084 124.761 170.894 124.323 167.138 122.648C163.382 120.973 160.259 118.148 158.213 114.581C164.453 109.989 169.252 103.709 172.043 96.4806C174.428 88.7459 174.561 80.4924 172.436 72.6822C171.369 69.2539 169.546 66.1088 167.102 63.4784C166.553 62.8864 165.877 62.4267 165.125 62.1333C164.372 61.84 163.566 61.7205 162.761 61.7843C161.956 61.8482 161.173 62.0936 160.476 62.5019C159.779 62.9103 159.183 63.4712 158.734 64.1424C155.642 68.7661 151.631 72.7007 146.945 75.6989C142.26 78.6971 137.009 80.6939 131.515 81.5646C130.808 81.6775 130.124 81.9314 129.516 82.3112C128.908 82.6911 128.385 83.1891 127.974 83.7759C127.562 84.3626 127.274 85.0262 127.124 85.727C126.974 86.4277 126.968 87.1513 127.103 87.8552C128.997 97.719 134.058 106.693 141.526 113.41C139.629 117.312 136.479 120.466 132.579 122.367C128.679 124.268 124.255 124.808 120.012 123.899C117.549 123.219 115.286 121.955 113.415 120.215C111.543 118.475 110.124 116.31 109.266 113.903C109.173 113.643 109.131 113.366 109.152 113.09C109.173 112.815 109.256 112.547 109.388 112.304C109.52 112.061 109.703 111.849 109.923 111.682C110.143 111.514 110.397 111.395 110.666 111.332C112.48 110.906 114.143 110.01 115.5 108.733C116.038 108.226 116.468 107.612 116.756 106.931C117.045 106.25 117.194 105.517 117.185 104.778C117.135 100.172 116.542 95.5878 115.428 91.1183C114.396 86.9817 114.135 82.6909 114.65 78.4586C115.927 67.9824 120.397 58.1527 127.453 50.3046C129.59 47.9283 132.184 46.0051 135.078 44.6486C137.973 43.2921 141.11 42.53 144.304 42.4075C144.34 42.4074 144.374 42.4074 144.411 42.4075V42.4003ZM163.247 65.1563C163.508 65.163 163.765 65.2221 164.004 65.3299C164.242 65.4378 164.454 65.5925 164.632 65.7847C166.719 68.0282 168.281 70.7089 169.202 73.6318C171.124 80.7672 170.999 88.3 168.837 95.3667C166.244 102.022 161.793 107.792 156.014 111.989C154.325 113.215 152.272 113.835 150.187 113.75C148.102 113.664 146.108 112.878 144.525 111.518C137.222 105.24 132.256 96.6767 130.437 87.2197C130.388 86.9621 130.39 86.6971 130.444 86.4405C130.499 86.1839 130.608 85.9406 130.759 85.7256C130.909 85.5106 131.1 85.3278 131.323 85.1883C131.545 85.0488 131.792 84.9554 132.051 84.9134C138.008 83.9707 143.7 81.8064 148.78 78.5564C153.861 75.3063 158.216 71.0405 161.569 66.0274C161.752 65.7536 162.005 65.5304 162.297 65.3781C162.589 65.2259 162.91 65.1496 163.24 65.1563H163.247ZM199.312 97.4017H240.447C241.605 97.401 242.748 97.6287 243.817 98.0711C244.887 98.5136 245.862 99.162 246.681 99.9802C247.499 100.798 248.144 101.77 248.587 102.839C249.03 103.909 249.265 105.055 249.265 106.213V170.168C249.265 171.326 249.03 172.472 248.587 173.541C248.144 174.611 247.499 175.582 246.681 176.4C245.862 177.218 244.887 177.867 243.817 178.31C242.748 178.752 241.605 178.98 240.447 178.979H211.029C210.969 177.058 210.894 175.137 210.808 173.217H237.063C238.32 173.216 239.522 172.716 240.411 171.827C241.3 170.938 241.803 169.733 241.804 168.476V129.154C241.803 128.526 241.555 127.924 241.111 127.479C240.667 127.035 240.061 126.785 239.433 126.784H201.925C198.945 123.414 195.17 120.842 190.944 119.301C191.831 117.974 192.551 116.542 193.086 115.038C193.52 113.819 193.497 112.483 193.022 111.279C192.546 110.075 191.651 109.085 190.501 108.491V106.213C190.501 105.055 190.729 103.909 191.172 102.839C191.615 101.77 192.267 100.798 193.086 99.9802C193.905 99.162 194.879 98.5136 195.949 98.0711C197.019 97.6287 198.162 97.401 199.319 97.4017H199.312ZM144.304 115.488C145.957 116.43 147.796 116.988 149.694 117.119C151.593 117.25 153.504 116.951 155.271 116.245C156.85 119.004 158.987 121.402 161.547 123.285L149.573 136.837L137.613 123.285C140.408 121.229 142.696 118.562 144.304 115.488ZM110.516 122.107C112.927 124.554 115.945 126.313 119.263 127.202C122.58 128.092 126.076 128.081 129.388 127.169L118.306 143.978C117.711 144.882 117.399 145.945 117.421 147.027C117.442 148.109 117.796 149.159 118.427 150.039C119.058 150.918 119.937 151.585 120.955 151.953C121.973 152.32 123.078 152.37 124.125 152.096L136.299 148.876L144.789 188.868H97.0065C96.2582 188.868 95.5183 188.718 94.8287 188.427C94.1392 188.136 93.5165 187.711 92.9937 187.175C92.4709 186.64 92.0611 186.005 91.787 185.309C91.5129 184.613 91.3769 183.869 91.3943 183.12C91.7547 168.403 92.8635 153.714 94.7074 139.108C94.8413 138.016 95.1093 136.946 95.5142 135.923C96.8241 132.647 98.8528 129.706 101.448 127.315C104.043 124.924 107.144 123.145 110.516 122.107ZM188.645 122.107C192.015 123.146 195.105 124.926 197.698 127.317C200.291 129.708 202.316 132.648 203.625 135.923C204.036 136.945 204.313 138.015 204.453 139.108C206.293 153.714 207.395 168.403 207.752 183.12C207.769 183.869 207.64 184.613 207.366 185.309C207.092 186.005 206.682 186.64 206.16 187.175C205.637 187.711 205.007 188.136 204.317 188.427C203.628 188.718 202.888 188.868 202.14 188.868H154.378L162.854 148.876L175.021 152.096C176.069 152.373 177.178 152.326 178.198 151.959C179.219 151.593 180.101 150.926 180.733 150.046C181.366 149.166 181.718 148.114 181.74 147.03C181.762 145.947 181.458 144.882 180.862 143.978L169.716 127.084C173.067 127.893 176.558 127.932 179.926 127.197C183.23 126.303 186.243 124.546 188.645 122.107ZM134.771 125.177L147.217 139.279C147.513 139.615 147.873 139.884 148.281 140.068C148.689 140.252 149.132 140.348 149.58 140.348C150.028 140.348 150.472 140.252 150.88 140.068C151.288 139.884 151.655 139.615 151.951 139.279L164.389 125.177L178.027 145.841C178.247 146.173 178.356 146.564 178.348 146.962C178.341 147.36 178.217 147.747 177.984 148.07C177.752 148.393 177.424 148.638 177.049 148.771C176.674 148.905 176.269 148.922 175.885 148.819L163.475 145.541C163.062 145.433 162.634 145.409 162.211 145.472C161.789 145.534 161.382 145.682 161.019 145.905C160.655 146.129 160.344 146.424 160.098 146.773C159.851 147.121 159.68 147.516 159.591 147.933L150.908 188.868H148.238L139.555 147.933C139.466 147.516 139.295 147.121 139.048 146.773C138.802 146.424 138.491 146.129 138.127 145.905C137.764 145.682 137.357 145.534 136.935 145.472C136.513 145.409 136.084 145.433 135.671 145.541L123.261 148.819C122.877 148.922 122.472 148.905 122.097 148.771C121.722 148.638 121.395 148.393 121.162 148.07C120.929 147.747 120.806 147.36 120.798 146.962C120.79 146.564 120.899 146.173 121.119 145.841L134.771 125.177ZM204.025 129.497H211.658V141.357H208.152C208.045 140.464 207.936 139.572 207.823 138.68C207.648 137.303 207.297 135.955 206.781 134.667C206.052 132.849 205.128 131.115 204.025 129.497ZM214.357 129.497H225.374V141.357H214.357V129.497ZM228.087 129.497H239.09V141.357H228.087V129.497ZM208.466 144.07H211.665V155.938H209.658C209.315 151.977 208.917 148.021 208.466 144.07ZM214.357 144.07H225.374V155.938H214.357V144.07ZM228.087 144.07H239.09V155.938H228.087V144.07ZM209.873 158.644H211.658V170.511H210.658C210.448 166.552 210.189 162.596 209.873 158.644ZM214.357 158.644H225.374V170.511H214.357V158.644ZM228.087 158.644H239.09V168.476C239.091 168.743 239.036 169.008 238.933 169.255C238.831 169.502 238.68 169.726 238.491 169.915C238.302 170.104 238.081 170.254 237.834 170.356C237.587 170.458 237.316 170.511 237.048 170.511H228.087V158.644Z" fill="#720C20" stroke="#720C20" stroke-width="1.77297"/>
</svg>
