<svg width="46" height="46" viewBox="0 0 46 46" fill="none" xmlns="http://www.w3.org/2000/svg">
<circle cx="22.6299" cy="22.6299" r="22.6299" fill="#720C20"/>
<path d="M25.5 24.5H23V27C23 27.1326 22.9473 27.2598 22.8536 27.3536C22.7598 27.4473 22.6326 27.5 22.5 27.5C22.3674 27.5 22.2402 27.4473 22.1464 27.3536C22.0527 27.2598 22 27.1326 22 27V24.5H19.5C19.3674 24.5 19.2402 24.4473 19.1464 24.3536C19.0527 24.2598 19 24.1326 19 24C19 23.8674 19.0527 23.7402 19.1464 23.6464C19.2402 23.5527 19.3674 23.5 19.5 23.5H22V21C22 20.8674 22.0527 20.7402 22.1464 20.6464C22.2402 20.5527 22.3674 20.5 22.5 20.5C22.6326 20.5 22.7598 20.5527 22.8536 20.6464C22.9473 20.7402 23 20.8674 23 21V23.5H25.5C25.6326 23.5 25.7598 23.5527 25.8536 23.6464C25.9473 23.7402 26 23.8674 26 24C26 24.1326 25.9473 24.2598 25.8536 24.3536C25.7598 24.4473 25.6326 24.5 25.5 24.5Z" fill="white" stroke="white" stroke-width="0.6"/>
<path d="M27.5 13V15M22.5 13V15M17.5 13V15M14 21C14 17.7 14 16.05 15.025 15.025C16.05 14 17.7 14 21 14H24C27.3 14 28.95 14 29.975 15.025C31 16.05 31 17.7 31 21V26C31 29.3 31 30.95 29.975 31.975C28.95 33 27.3 33 24 33H21C17.7 33 16.05 33 15.025 31.975C14 30.95 14 29.3 14 26V21Z" stroke="white" stroke-width="1.8" stroke-linecap="round" stroke-linejoin="round"/>
</svg>
