<svg width="322" height="246" viewBox="0 0 322 246" fill="none" xmlns="http://www.w3.org/2000/svg">
<path d="M322 0H0V246H322V0Z" fill="white"/>
<path d="M122.412 95.3415C120.238 95.3511 120.238 98.6573 122.412 98.6665C122.412 98.6665 127.615 98.6665 127.615 98.6665V100.253C127.615 101.171 128.359 101.915 129.278 101.915C130.197 101.915 130.94 101.171 130.94 100.253V98.6665C139.986 98.3942 140.043 85.1588 130.94 84.8737V77.7951H136.144C137.063 77.7951 137.806 77.0507 137.806 76.1326C137.806 75.2145 137.063 74.4701 136.144 74.4701H130.94V72.8831C130.94 71.9649 130.197 71.2206 129.278 71.2206C128.359 71.2206 127.615 71.9649 127.615 72.8831V74.4701C118.539 74.7591 118.546 87.9127 127.615 88.1988V95.3415H122.412ZM130.94 88.1988C135.58 88.3039 135.642 95.2223 130.94 95.3415V88.1988ZM124.074 81.3344C124.074 79.3829 125.662 77.7951 127.615 77.7951V84.8737C125.662 84.8737 124.074 83.2859 124.074 81.3344ZM231.03 107.669H202.729L201.079 103.288V64.56C201.079 60.3339 197.634 56.896 193.398 56.896H183.602L180.635 49.0048C179.91 47.0882 178.484 45.5661 176.62 44.7187C174.75 43.8679 172.669 43.8014 170.751 44.5246L137.887 56.896H115.26C111.034 56.896 107.595 60.3339 107.595 64.56V68.3019L97.6316 72.051C93.6751 73.5511 91.6749 77.9859 93.1701 81.9343L107.595 120.243V129.459L103.374 114.582C102.942 113.065 101.575 112.079 100.078 112.033C97.6419 98.4305 79.527 103.577 84.5984 116.423C83.3469 117.246 82.7029 118.805 83.1334 120.325L92.0548 151.762C92.4855 153.283 93.8545 154.283 95.353 154.324L105.043 188.47C105.128 188.692 105.237 188.908 105.381 189.1L115.267 200.551C116.132 201.618 117.994 201.088 118.166 199.728C118.166 199.728 120.564 184.793 120.564 184.793C120.584 184.558 120.569 184.322 120.523 184.095H131.636L132.585 186.621C133.95 190.517 138.646 192.631 142.471 191.089C142.471 191.089 161.045 184.095 161.045 184.095H179.442V193.158C179.442 197.552 183.023 201.128 187.425 201.128H231.03C235.425 201.128 239 197.552 239 193.158V115.653C239 111.251 235.425 107.669 231.03 107.669ZM107.586 110.782L96.2808 80.7597C95.4334 78.5224 96.5682 76.01 98.8071 75.1617L107.586 71.8586V110.782ZM171.927 47.6353C174.091 46.7616 176.745 47.9819 177.525 50.1786L180.044 56.8822H147.362L171.927 47.6353ZM87.5949 109.739C89.4514 106.11 95.2832 106.788 96.2581 110.751C96.2581 110.751 96.8296 112.768 96.8296 112.768L87.749 115.345C87.196 113.588 86.5043 111.434 87.5949 109.739ZM95.2531 150.855L86.3318 119.419C86.2176 119.091 86.8973 119.088 87.0575 118.997C87.0575 118.997 99.338 115.512 99.338 115.512C99.5166 115.505 100.09 115.158 100.176 115.49L108.938 146.371L109.089 146.926C109.116 147.023 109.038 147.136 108.953 147.182C105.741 148.083 99.2898 149.932 96.088 150.833C95.916 150.839 95.3366 151.181 95.2531 150.855ZM98.5976 153.577L107.678 151.001L116.015 180.377L116.863 183.387L107.788 185.961L98.5976 153.577ZM115.45 195.676L109.603 188.903L116.867 186.843L115.45 195.676ZM141.297 187.978C139.127 188.851 136.473 187.663 135.699 185.454C135.699 185.454 135.187 184.095 135.187 184.095H151.611L141.297 187.978ZM179.432 115.666V180.77H169.876L169.884 180.767H130.387L119.583 180.77L110.92 150.243V149.882C112.114 149.012 112.709 147.461 112.294 146.018L110.92 141.177V64.56C110.92 62.1677 112.867 60.2211 115.26 60.2211H193.398C195.799 60.2211 197.754 62.1677 197.754 64.56V94.4612L197.746 94.4397V107.669H187.412C183.012 107.669 179.432 111.256 179.432 115.666ZM235.675 193.158C235.675 195.719 233.592 197.802 231.03 197.802H187.425C184.856 197.802 182.767 195.719 182.767 193.158V115.653C182.767 113.084 184.856 110.994 187.425 110.994H197.746V110.999H203.983L203.982 110.994H231.03C233.592 110.994 235.675 113.084 235.675 115.653V193.158ZM227.09 117.423H191.354C189.065 117.423 187.202 119.286 187.202 121.575V138.314C187.202 140.603 189.065 142.466 191.354 142.466H227.09C229.379 142.466 231.241 140.603 231.241 138.314V121.575C231.241 119.286 229.379 117.423 227.09 117.423ZM227.916 138.314C227.916 138.77 227.546 139.141 227.09 139.141H191.354C190.898 139.141 190.528 138.77 190.528 138.314V121.575C190.528 121.119 190.898 120.748 191.354 120.748H227.09C227.546 120.748 227.916 121.119 227.916 121.575V138.314ZM195.509 150.702H190.234C188.563 150.702 187.202 152.062 187.202 153.733V159.008C187.202 160.679 188.563 162.039 190.234 162.039H195.509C197.179 162.039 198.54 160.679 198.54 159.008V153.733C198.54 152.062 197.179 150.702 195.509 150.702ZM195.215 158.714H190.528V154.027H195.215V158.714ZM211.859 150.702H206.584C204.914 150.702 203.553 152.062 203.553 153.733V159.008C203.553 160.679 204.914 162.039 206.584 162.039H211.859C213.53 162.039 214.89 160.679 214.89 159.008V153.733C214.89 152.062 213.53 150.702 211.859 150.702ZM211.565 158.714H206.878V154.027H211.565V158.714ZM228.21 150.702H222.935C221.264 150.702 219.904 152.062 219.904 153.733V159.008C219.904 160.679 221.264 162.039 222.935 162.039H228.21C229.881 162.039 231.241 160.679 231.241 159.008V153.733C231.241 152.062 229.881 150.702 228.21 150.702ZM227.916 158.714H223.229V154.027H227.916V158.714ZM195.509 165.388H190.234C188.563 165.388 187.202 166.749 187.202 168.42V173.695C187.202 175.365 188.563 176.726 190.234 176.726H195.509C197.179 176.726 198.54 175.365 198.54 173.695V168.42C198.54 166.749 197.179 165.388 195.509 165.388ZM195.215 173.401H190.528V168.713H195.215V173.401ZM211.859 165.388H206.584C204.914 165.388 203.553 166.749 203.553 168.42V173.695C203.553 175.365 204.914 176.726 206.584 176.726H211.859C213.53 176.726 214.89 175.365 214.89 173.695V168.42C214.89 166.749 213.53 165.388 211.859 165.388ZM211.565 173.401H206.878V168.713H211.565V173.401ZM228.21 165.388H222.935C221.264 165.388 219.904 166.749 219.904 168.42V173.695C219.904 175.365 221.264 176.726 222.935 176.726H228.21C229.881 176.726 231.241 175.365 231.241 173.695V168.42C231.241 166.749 229.881 165.388 228.21 165.388ZM227.916 173.401H223.229V168.713H227.916V173.401ZM195.509 180.075H190.234C188.563 180.075 187.202 181.436 187.202 183.106V188.381C187.202 190.052 188.563 191.412 190.234 191.412H195.509C197.179 191.412 198.54 190.052 198.54 188.381V183.106C198.54 181.436 197.179 180.075 195.509 180.075ZM195.215 188.087H190.528V183.4H195.215V188.087ZM211.859 180.075H206.584C204.914 180.075 203.553 181.436 203.553 183.106V188.381C203.553 190.052 204.914 191.412 206.584 191.412H211.859C213.53 191.412 214.89 190.052 214.89 188.381V183.106C214.89 181.436 213.53 180.075 211.859 180.075ZM211.565 188.087H206.878V183.4H211.565V188.087ZM228.21 180.075H222.935C221.264 180.075 219.904 181.436 219.904 183.106V188.381C219.904 190.052 221.264 191.412 222.935 191.412H228.21C229.881 191.412 231.241 190.052 231.241 188.381V183.106C231.241 181.436 229.881 180.075 228.21 180.075ZM227.916 188.087H223.229V183.4H227.916V188.087ZM185.145 77.3308H146.918C144.734 77.3214 144.756 74.0126 146.918 74.0057C146.918 74.0057 185.145 74.0057 185.145 74.0057C187.329 74.0151 187.307 77.3238 185.145 77.3308ZM185.145 89.6226H146.918C144.734 89.6133 144.756 86.3045 146.918 86.2976C146.918 86.2976 185.145 86.2976 185.145 86.2976C187.329 86.3069 187.307 89.6156 185.145 89.6226ZM185.145 101.915H146.918C144.734 101.906 144.756 98.5971 146.918 98.5902C146.918 98.5902 185.145 98.5902 185.145 98.5902C187.329 98.5996 187.307 101.908 185.145 101.915ZM171.103 114.208H120.749C118.562 114.198 118.592 110.889 120.749 110.883C120.749 110.883 171.103 110.883 171.103 110.883C173.291 110.892 173.261 114.202 171.103 114.208ZM171.103 126.501H120.749C118.562 126.491 118.592 123.182 120.749 123.176C120.749 123.176 171.103 123.176 171.103 123.176C173.291 123.185 173.261 126.494 171.103 126.501ZM171.103 138.793H120.749C118.562 138.784 118.592 135.474 120.749 135.468C120.749 135.468 171.103 135.468 171.103 135.468C173.291 135.477 173.261 138.788 171.103 138.793ZM171.103 151.085H120.749C118.562 151.076 118.592 147.766 120.749 147.76C120.749 147.76 171.103 147.76 171.103 147.76C173.291 147.769 173.261 151.079 171.103 151.085ZM171.103 163.379H120.749C118.562 163.37 118.592 160.059 120.749 160.053C120.749 160.053 171.103 160.053 171.103 160.053C173.291 160.062 173.261 163.373 171.103 163.379Z" fill="#720C20" stroke="#720C20" stroke-width="1.73333"/>
</svg>
