<svg width="30" height="36" viewBox="0 0 30 36" fill="720c20" xmlns="http://www.w3.org/2000/svg">
<path d="M12.5652 26.5652C12.4435 26.5652 12.3217 26.5652 12.2 26.4435L10.4957 25.3478H5.26087C4.28696 25.3478 3.43478 24.4957 3.43478 23.5218V21.087C3.43478 20.1131 4.28696 19.2609 5.26087 19.2609H11.3478C12.3217 19.2609 13.1739 20.1131 13.1739 21.087V25.9565C13.1739 26.2 13.0522 26.4435 12.8087 26.4435C12.8087 26.5652 12.687 26.5652 12.5652 26.5652ZM5.26087 20.4783C4.89565 20.4783 4.65217 20.7218 4.65217 21.087V23.5218C4.65217 23.887 4.89565 24.1304 5.26087 24.1304H10.7391C10.8609 24.1304 10.9826 24.1304 11.1043 24.2522L11.9565 24.8609V21.087C11.9565 20.7218 11.713 20.4783 11.3478 20.4783H5.26087ZM18.6522 21.6957C18.5304 21.6957 18.4087 21.6957 18.4087 21.5739C18.1652 21.4522 18.0435 21.2087 18.0435 21.087V13.7826C18.0435 12.8087 18.8957 11.9565 19.8696 11.9565H27.1739C28.1478 11.9565 29 12.8087 29 13.7826V18.6522C29 19.6261 28.1478 20.4783 27.1739 20.4783H20.7217L19.0174 21.5739C18.8957 21.6957 18.7739 21.6957 18.6522 21.6957ZM19.8696 13.1739C19.5043 13.1739 19.2609 13.4174 19.2609 13.7826V19.9913L20.113 19.3826C20.2348 19.2609 20.3565 19.2609 20.4783 19.2609H27.1739C27.5391 19.2609 27.7826 19.0174 27.7826 18.6522V13.7826C27.7826 13.4174 27.5391 13.1739 27.1739 13.1739H19.8696ZM12.5652 18.0435C12.4435 18.0435 12.3217 18.0435 12.2 17.9218L10.4957 16.8261H2.82609C1.85217 16.8261 1 15.9739 1 15V10.1305C1 9.15654 1.85217 8.30436 2.82609 8.30436H11.3478C12.3217 8.30436 13.1739 9.15654 13.1739 10.1305V17.4348C13.1739 17.6783 13.0522 17.9218 12.8087 17.9218C12.8087 18.0435 12.687 18.0435 12.5652 18.0435ZM2.82609 9.52175C2.46087 9.52175 2.21739 9.76523 2.21739 10.1305V15C2.21739 15.3652 2.46087 15.6087 2.82609 15.6087H10.7391C10.8609 15.6087 10.9826 15.6087 11.1043 15.7304L11.9565 16.3391V10.1305C11.9565 9.76523 11.713 9.52175 11.3478 9.52175H2.82609ZM17.4348 4.65219H13.7826C13.4174 4.65219 13.1739 4.40871 13.1739 4.04349C13.1739 3.67828 13.4174 3.4348 13.7826 3.4348H17.4348C17.8 3.4348 18.0435 3.67828 18.0435 4.04349C18.0435 4.40871 17.8 4.65219 17.4348 4.65219Z" fill="#000000" stroke="#000000" stroke-width="0.4"/>
<path d="M10.1303 11.9565H4.04333C3.67811 11.9565 3.43463 11.7131 3.43463 11.3478C3.43463 10.9826 3.67811 10.7391 4.04333 10.7391H10.1303C10.4955 10.7391 10.739 10.9826 10.739 11.3478C10.739 11.7131 10.4955 11.9565 10.1303 11.9565ZM7.6955 14.3913H4.04333C3.67811 14.3913 3.43463 14.1478 3.43463 13.7826C3.43463 13.4174 3.67811 13.1739 4.04333 13.1739H7.6955C8.06072 13.1739 8.3042 13.4174 8.3042 13.7826C8.3042 14.1478 8.06072 14.3913 7.6955 14.3913ZM10.1303 22.9131H6.47811C6.11289 22.9131 5.86941 22.6696 5.86941 22.3044C5.86941 21.9391 6.11289 21.6957 6.47811 21.6957H10.1303C10.4955 21.6957 10.739 21.9391 10.739 22.3044C10.739 22.6696 10.4955 22.9131 10.1303 22.9131ZM24.739 18.0435H21.0868C20.7216 18.0435 20.4781 17.8 20.4781 17.4348C20.4781 17.0696 20.7216 16.8261 21.0868 16.8261H24.739C25.1042 16.8261 25.3477 17.0696 25.3477 17.4348C25.3477 17.8 25.1042 18.0435 24.739 18.0435ZM24.739 15.6087H21.0868C20.7216 15.6087 20.4781 15.3652 20.4781 15C20.4781 14.6348 20.7216 14.3913 21.0868 14.3913H24.739C25.1042 14.3913 25.3477 14.6348 25.3477 15C25.3477 15.3652 25.1042 15.6087 24.739 15.6087ZM8.91289 4.65219H8.66941C8.54767 4.65219 8.54768 4.53045 8.42594 4.53045C8.3042 4.53045 8.3042 4.40871 8.3042 4.28697V4.04349C8.3042 3.92176 8.3042 3.67828 8.42594 3.55654C8.42594 3.55654 8.54767 3.4348 8.66941 3.4348H9.15637C9.27811 3.4348 9.27811 3.55654 9.39985 3.55654C9.52159 3.55654 9.52159 3.67828 9.52159 3.80002V4.04349C9.52159 4.16523 9.39985 4.40871 9.27811 4.40871C9.27811 4.40871 9.15637 4.53045 9.03463 4.53045C9.03463 4.65219 9.03463 4.65219 8.91289 4.65219ZM24.1303 7.08697H7.08681C6.72159 7.08697 6.47811 6.8435 6.47811 6.47828C6.47811 6.11306 6.72159 5.86958 7.08681 5.86958H24.1303C24.4955 5.86958 24.739 6.11306 24.739 6.47828C24.739 6.8435 24.4955 7.08697 24.1303 7.08697ZM24.1303 29H7.08681C6.72159 29 6.47811 28.7565 6.47811 28.3913C6.47811 28.0261 6.72159 27.7826 7.08681 27.7826H24.1303C24.4955 27.7826 24.739 28.0261 24.739 28.3913C24.739 28.7565 24.4955 29 24.1303 29ZM6.47811 20.4783C6.11289 20.4783 5.86941 20.2348 5.86941 19.8696V16.2174C5.86941 15.8522 6.11289 15.6087 6.47811 15.6087C6.84333 15.6087 7.08681 15.8522 7.08681 16.2174V19.8696C7.08681 20.2348 6.84333 20.4783 6.47811 20.4783Z" fill="#000000" stroke="#000000" stroke-width="0.4"/>
<path d="M22.3045 35.0869H8.91317C7.20882 35.0869 5.86969 33.7478 5.86969 32.0434V24.7391C5.86969 24.3739 6.11317 24.1304 6.47839 24.1304C6.8436 24.1304 7.08708 24.3739 7.08708 24.7391V32.0434C7.08708 33.0173 7.93925 33.8695 8.91317 33.8695H22.3045C23.2784 33.8695 24.1306 33.0173 24.1306 32.0434V19.8695C24.1306 19.5043 24.374 19.2608 24.7393 19.2608C25.1045 19.2608 25.3479 19.5043 25.3479 19.8695V32.0434C25.3479 33.7478 24.0088 35.0869 22.3045 35.0869ZM24.7393 13.1739C24.374 13.1739 24.1306 12.9304 24.1306 12.5652V4.04343C24.1306 3.06952 23.2784 2.21735 22.3045 2.21735H8.91317C7.93925 2.21735 7.08708 3.06952 7.08708 4.04343V8.913C7.08708 9.27821 6.8436 9.52169 6.47839 9.52169C6.11317 9.52169 5.86969 9.27821 5.86969 8.913V4.04343C5.86969 2.33908 7.20882 0.999954 8.91317 0.999954H22.3045C24.0088 0.999954 25.3479 2.33908 25.3479 4.04343V12.5652C25.3479 12.9304 25.1045 13.1739 24.7393 13.1739Z" fill="#000000" stroke="#000000" stroke-width="0.4"/>
</svg>
