<svg width="33" height="40" viewBox="0 0 33 40" fill="none" xmlns="http://www.w3.org/2000/svg">
<path d="M13.9607 29.6498C13.8243 29.6498 13.6878 29.6498 13.5514 29.5134L11.6414 28.2856H5.77499C4.68356 28.2856 3.72856 27.3306 3.72856 26.2391V23.5106C3.72856 22.4191 4.68356 21.4641 5.77499 21.4641H12.5964C13.6878 21.4641 14.6428 22.4191 14.6428 23.5106V28.9677C14.6428 29.2405 14.5064 29.5134 14.2335 29.5134C14.2335 29.6498 14.0971 29.6498 13.9607 29.6498ZM5.77499 22.8284C5.3657 22.8284 5.09285 23.1013 5.09285 23.5106V26.2391C5.09285 26.6484 5.3657 26.9213 5.77499 26.9213H11.9143C12.0507 26.9213 12.1871 26.9213 12.3235 27.0577L13.2785 27.7398V23.5106C13.2785 23.1013 13.0057 22.8284 12.5964 22.8284H5.77499ZM20.7821 24.1927C20.6457 24.1927 20.5092 24.1927 20.5092 24.0563C20.2364 23.9198 20.1 23.647 20.1 23.5106V15.3249C20.1 14.2334 21.055 13.2784 22.1464 13.2784H30.3321C31.4235 13.2784 32.3785 14.2334 32.3785 15.3249V20.782C32.3785 21.8734 31.4235 22.8284 30.3321 22.8284H23.1014L21.1914 24.0563C21.055 24.1927 20.9185 24.1927 20.7821 24.1927ZM22.1464 14.6427C21.7371 14.6427 21.4642 14.9156 21.4642 15.3249V22.2827L22.4192 21.6006C22.5557 21.4641 22.6921 21.4641 22.8285 21.4641H30.3321C30.7414 21.4641 31.0142 21.1913 31.0142 20.782V15.3249C31.0142 14.9156 30.7414 14.6427 30.3321 14.6427H22.1464ZM13.9607 20.0999C13.8243 20.0999 13.6878 20.0999 13.5514 19.9634L11.6414 18.7356H3.04642C1.955 18.7356 1 17.7806 1 16.6892V11.232C1 10.1406 1.955 9.1856 3.04642 9.1856H12.5964C13.6878 9.1856 14.6428 10.1406 14.6428 11.232V19.4177C14.6428 19.6906 14.5064 19.9634 14.2335 19.9634C14.2335 20.0999 14.0971 20.0999 13.9607 20.0999ZM3.04642 10.5499C2.63714 10.5499 2.36428 10.8227 2.36428 11.232V16.6892C2.36428 17.0984 2.63714 17.3713 3.04642 17.3713H11.9143C12.0507 17.3713 12.1871 17.3713 12.3235 17.5077L13.2785 18.1899V11.232C13.2785 10.8227 13.0057 10.5499 12.5964 10.5499H3.04642ZM19.4178 5.09275H15.325C14.9157 5.09275 14.6428 4.8199 14.6428 4.41061C14.6428 4.00133 14.9157 3.72847 15.325 3.72847H19.4178C19.8271 3.72847 20.1 4.00133 20.1 4.41061C20.1 4.8199 19.8271 5.09275 19.4178 5.09275Z" fill="white" stroke="white" stroke-width="0.448264"/>
<path d="M11.2394 13.2784H4.41798C4.0087 13.2784 3.73584 13.0056 3.73584 12.5963C3.73584 12.187 4.0087 11.9142 4.41798 11.9142H11.2394C11.6487 11.9142 11.9215 12.187 11.9215 12.5963C11.9215 13.0056 11.6487 13.2784 11.2394 13.2784ZM8.51083 16.007H4.41798C4.0087 16.007 3.73584 15.7342 3.73584 15.3249C3.73584 14.9156 4.0087 14.6427 4.41798 14.6427H8.51083C8.92011 14.6427 9.19297 14.9156 9.19297 15.3249C9.19297 15.7342 8.92011 16.007 8.51083 16.007ZM11.2394 25.557H7.14655C6.73726 25.557 6.4644 25.2841 6.4644 24.8748C6.4644 24.4656 6.73726 24.1927 7.14655 24.1927H11.2394C11.6487 24.1927 11.9215 24.4656 11.9215 24.8748C11.9215 25.2841 11.6487 25.557 11.2394 25.557ZM27.6108 20.0999H23.5179C23.1086 20.0999 22.8358 19.827 22.8358 19.4177C22.8358 19.0084 23.1086 18.7356 23.5179 18.7356H27.6108C28.0201 18.7356 28.2929 19.0084 28.2929 19.4177C28.2929 19.827 28.0201 20.0999 27.6108 20.0999ZM27.6108 17.3713H23.5179C23.1086 17.3713 22.8358 17.0984 22.8358 16.6892C22.8358 16.2799 23.1086 16.007 23.5179 16.007H27.6108C28.0201 16.007 28.2929 16.2799 28.2929 16.6892C28.2929 17.0984 28.0201 17.3713 27.6108 17.3713ZM9.87511 5.09275H9.60225C9.46583 5.09275 9.46583 4.95632 9.3294 4.95632C9.19297 4.95632 9.19297 4.8199 9.19297 4.68347V4.41061C9.19297 4.27418 9.19297 4.00133 9.3294 3.8649C9.3294 3.8649 9.46583 3.72847 9.60225 3.72847H10.148C10.2844 3.72847 10.2844 3.8649 10.4208 3.8649C10.5573 3.8649 10.5573 4.00133 10.5573 4.13775V4.41061C10.5573 4.54704 10.4208 4.8199 10.2844 4.8199C10.2844 4.8199 10.148 4.95632 10.0115 4.95632C10.0115 5.09275 10.0115 5.09275 9.87511 5.09275V5.09275ZM26.9286 7.82132H7.82869C7.4194 7.82132 7.14655 7.54846 7.14655 7.13918C7.14655 6.72989 7.4194 6.45703 7.82869 6.45703H26.9286C27.3379 6.45703 27.6108 6.72989 27.6108 7.13918C27.6108 7.54846 27.3379 7.82132 26.9286 7.82132ZM26.9286 32.3784H7.82869C7.4194 32.3784 7.14655 32.1055 7.14655 31.6963C7.14655 31.287 7.4194 31.0141 7.82869 31.0141H26.9286C27.3379 31.0141 27.6108 31.287 27.6108 31.6963C27.6108 32.1055 27.3379 32.3784 26.9286 32.3784ZM7.14655 22.8284C6.73726 22.8284 6.4644 22.5556 6.4644 22.1463V18.0534C6.4644 17.6442 6.73726 17.3713 7.14655 17.3713C7.55583 17.3713 7.82869 17.6442 7.82869 18.0534V22.1463C7.82869 22.5556 7.55583 22.8284 7.14655 22.8284Z" fill="white" stroke="white" stroke-width="0.448264"/>
<path d="M24.8659 39.1999H9.85883C7.94883 39.1999 6.44812 37.6992 6.44812 35.7892V27.6035C6.44812 27.1942 6.72098 26.9214 7.13026 26.9214C7.53955 26.9214 7.8124 27.1942 7.8124 27.6035V35.7892C7.8124 36.8806 8.7674 37.8356 9.85883 37.8356H24.8659C25.9574 37.8356 26.9124 36.8806 26.9124 35.7892V22.1464C26.9124 21.7371 27.1852 21.4642 27.5945 21.4642C28.0038 21.4642 28.2766 21.7371 28.2766 22.1464V35.7892C28.2766 37.6992 26.7759 39.1999 24.8659 39.1999ZM27.5945 14.6428C27.1852 14.6428 26.9124 14.37 26.9124 13.9607V4.41071C26.9124 3.31928 25.9574 2.36428 24.8659 2.36428H9.85883C8.7674 2.36428 7.8124 3.31928 7.8124 4.41071V9.86784C7.8124 10.2771 7.53955 10.55 7.13026 10.55C6.72098 10.55 6.44812 10.2771 6.44812 9.86784V4.41071C6.44812 2.50071 7.94883 1 9.85883 1H24.8659C26.7759 1 28.2766 2.50071 28.2766 4.41071V13.9607C28.2766 14.37 28.0038 14.6428 27.5945 14.6428Z" fill="white" stroke="white" stroke-width="0.448264"/>
</svg>
