<svg width="30" height="36" viewBox="0 0 30 36" fill="none" xmlns="http://www.w3.org/2000/svg">
<path d="M12.5652 26.5546C12.4435 26.5546 12.3217 26.5546 12.2 26.4329L10.4957 25.3372H5.26087C4.28696 25.3372 3.43478 24.4851 3.43478 23.5111V21.0764C3.43478 20.1024 4.28696 19.2503 5.26087 19.2503H11.3478C12.3217 19.2503 13.1739 20.1024 13.1739 21.0764V25.9459C13.1739 26.1894 13.0522 26.4329 12.8087 26.4329C12.8087 26.5546 12.687 26.5546 12.5652 26.5546ZM5.26087 20.4677C4.89565 20.4677 4.65217 20.7111 4.65217 21.0764V23.5111C4.65217 23.8764 4.89565 24.1198 5.26087 24.1198H10.7391C10.8609 24.1198 10.9826 24.1198 11.1043 24.2416L11.9565 24.8503V21.0764C11.9565 20.7111 11.713 20.4677 11.3478 20.4677H5.26087ZM18.6522 21.6851C18.5304 21.6851 18.4087 21.6851 18.4087 21.5633C18.1652 21.4416 18.0435 21.1981 18.0435 21.0764V13.772C18.0435 12.7981 18.8957 11.9459 19.8696 11.9459H27.1739C28.1478 11.9459 29 12.7981 29 13.772V18.6416C29 19.6155 28.1478 20.4677 27.1739 20.4677H20.7217L19.0174 21.5633C18.8957 21.6851 18.7739 21.6851 18.6522 21.6851ZM19.8696 13.1633C19.5043 13.1633 19.2609 13.4068 19.2609 13.772V19.9807L20.113 19.372C20.2348 19.2503 20.3565 19.2503 20.4783 19.2503H27.1739C27.5391 19.2503 27.7826 19.0068 27.7826 18.6416V13.772C27.7826 13.4068 27.5391 13.1633 27.1739 13.1633H19.8696ZM12.5652 18.0329C12.4435 18.0329 12.3217 18.0329 12.2 17.9111L10.4957 16.8155H2.82609C1.85217 16.8155 1 15.9633 1 14.9894V10.1198C1 9.14593 1.85217 8.29375 2.82609 8.29375H11.3478C12.3217 8.29375 13.1739 9.14593 13.1739 10.1198V17.4242C13.1739 17.6677 13.0522 17.9111 12.8087 17.9111C12.8087 18.0329 12.687 18.0329 12.5652 18.0329ZM2.82609 9.51114C2.46087 9.51114 2.21739 9.75462 2.21739 10.1198V14.9894C2.21739 15.3546 2.46087 15.5981 2.82609 15.5981H10.7391C10.8609 15.5981 10.9826 15.5981 11.1043 15.7198L11.9565 16.3285V10.1198C11.9565 9.75462 11.713 9.51114 11.3478 9.51114H2.82609ZM17.4348 4.64158H13.7826C13.4174 4.64158 13.1739 4.3981 13.1739 4.03288C13.1739 3.66766 13.4174 3.42419 13.7826 3.42419H17.4348C17.8 3.42419 18.0435 3.66766 18.0435 4.03288C18.0435 4.3981 17.8 4.64158 17.4348 4.64158Z" fill="#720C20" stroke="#720C20" stroke-width="0.4"/>
<path d="M10.1302 11.9459H4.04327C3.67805 11.9459 3.43457 11.7024 3.43457 11.3372C3.43457 10.972 3.67805 10.7285 4.04327 10.7285H10.1302C10.4954 10.7285 10.7389 10.972 10.7389 11.3372C10.7389 11.7024 10.4954 11.9459 10.1302 11.9459ZM7.69544 14.3807H4.04327C3.67805 14.3807 3.43457 14.1372 3.43457 13.772C3.43457 13.4068 3.67805 13.1633 4.04327 13.1633H7.69544C8.06066 13.1633 8.30414 13.4068 8.30414 13.772C8.30414 14.1372 8.06066 14.3807 7.69544 14.3807ZM10.1302 22.9024H6.47805C6.11283 22.9024 5.86935 22.659 5.86935 22.2938C5.86935 21.9285 6.11283 21.6851 6.47805 21.6851H10.1302C10.4954 21.6851 10.7389 21.9285 10.7389 22.2938C10.7389 22.659 10.4954 22.9024 10.1302 22.9024ZM24.7389 18.0329H21.0867C20.7215 18.0329 20.478 17.7894 20.478 17.4242C20.478 17.059 20.7215 16.8155 21.0867 16.8155H24.7389C25.1041 16.8155 25.3476 17.059 25.3476 17.4242C25.3476 17.7894 25.1041 18.0329 24.7389 18.0329ZM24.7389 15.5981H21.0867C20.7215 15.5981 20.478 15.3546 20.478 14.9894C20.478 14.6242 20.7215 14.3807 21.0867 14.3807H24.7389C25.1041 14.3807 25.3476 14.6242 25.3476 14.9894C25.3476 15.3546 25.1041 15.5981 24.7389 15.5981ZM8.91283 4.64158H8.66935C8.54761 4.64158 8.54761 4.51984 8.42587 4.51984C8.30414 4.51984 8.30414 4.3981 8.30414 4.27636V4.03288C8.30414 3.91114 8.30414 3.66766 8.42587 3.54593C8.42587 3.54593 8.54761 3.42419 8.66935 3.42419H9.15631C9.27805 3.42419 9.27805 3.54593 9.39979 3.54593C9.52153 3.54593 9.52153 3.66767 9.52153 3.7894V4.03288C9.52153 4.15462 9.39979 4.3981 9.27805 4.3981C9.27805 4.3981 9.15631 4.51984 9.03457 4.51984C9.03457 4.64158 9.03457 4.64158 8.91283 4.64158V4.64158ZM24.1302 7.07636H7.08674C6.72153 7.07636 6.47805 6.83288 6.47805 6.46767C6.47805 6.10245 6.72153 5.85897 7.08674 5.85897H24.1302C24.4954 5.85897 24.7389 6.10245 24.7389 6.46767C24.7389 6.83288 24.4954 7.07636 24.1302 7.07636ZM24.1302 28.9894H7.08674C6.72153 28.9894 6.47805 28.7459 6.47805 28.3807C6.47805 28.0155 6.72153 27.772 7.08674 27.772H24.1302C24.4954 27.772 24.7389 28.0155 24.7389 28.3807C24.7389 28.7459 24.4954 28.9894 24.1302 28.9894ZM6.47805 20.4677C6.11283 20.4677 5.86935 20.2242 5.86935 19.859V16.2068C5.86935 15.8416 6.11283 15.5981 6.47805 15.5981C6.84327 15.5981 7.08674 15.8416 7.08674 16.2068V19.859C7.08674 20.2242 6.84327 20.4677 6.47805 20.4677Z" fill="#720C20" stroke="#720C20" stroke-width="0.4"/>
<path d="M22.3045 35.0763H8.91323C7.20888 35.0763 5.86975 33.7372 5.86975 32.0328V24.7285C5.86975 24.3632 6.11323 24.1198 6.47845 24.1198C6.84366 24.1198 7.08714 24.3632 7.08714 24.7285V32.0328C7.08714 33.0067 7.93932 33.8589 8.91323 33.8589H22.3045C23.2784 33.8589 24.1306 33.0067 24.1306 32.0328V19.8589C24.1306 19.4937 24.3741 19.2502 24.7393 19.2502C25.1045 19.2502 25.348 19.4937 25.348 19.8589V32.0328C25.348 33.7372 24.0089 35.0763 22.3045 35.0763ZM24.7393 13.1632C24.3741 13.1632 24.1306 12.9198 24.1306 12.5545V4.0328C24.1306 3.05889 23.2784 2.20672 22.3045 2.20672H8.91323C7.93932 2.20672 7.08714 3.05889 7.08714 4.0328V8.90237C7.08714 9.26759 6.84366 9.51107 6.47845 9.51107C6.11323 9.51107 5.86975 9.26759 5.86975 8.90237V4.0328C5.86975 2.32846 7.20888 0.989326 8.91323 0.989326H22.3045C24.0089 0.989326 25.348 2.32846 25.348 4.0328V12.5545C25.348 12.9198 25.1045 13.1632 24.7393 13.1632Z" fill="#720C20" stroke="#720C20" stroke-width="0.4"/>
</svg>
