<svg width="25" height="29" viewBox="0 0 25 29" fill="none" xmlns="http://www.w3.org/2000/svg">
<path d="M12.4375 16.0918C13.1034 15.7383 13.632 15.1722 13.9391 14.4835C14.2461 13.7949 14.314 13.0233 14.1318 12.2917C13.9497 11.56 13.528 10.9103 12.9339 10.446C12.3399 9.98174 11.6076 9.72951 10.8536 9.72951C10.0996 9.72951 9.36729 9.98174 8.77323 10.446C8.17917 10.9103 7.7575 11.56 7.57536 12.2917C7.39321 13.0233 7.46106 13.7949 7.7681 14.4835C8.07514 15.1722 8.60373 15.7383 9.26971 16.0918C8.14515 16.2111 7.10444 16.7421 6.3478 17.5825C5.59115 18.423 5.17201 19.5135 5.17102 20.6444V22.2892C5.17102 22.5509 5.27499 22.8019 5.46006 22.987C5.64513 23.172 5.89614 23.276 6.15786 23.276H15.5526C15.8143 23.276 16.0653 23.172 16.2504 22.987C16.4355 22.8019 16.5394 22.5509 16.5394 22.2892V20.6444C16.5384 19.513 16.1188 18.4221 15.3614 17.5815C14.6041 16.741 13.5626 16.2104 12.4375 16.0918ZM10.8552 11.7036C11.133 11.7036 11.4046 11.786 11.6356 11.9403C11.8666 12.0947 12.0466 12.3141 12.1529 12.5707C12.2592 12.8274 12.287 13.1098 12.2328 13.3823C12.1787 13.6547 12.0449 13.905 11.8484 14.1014C11.652 14.2979 11.4017 14.4317 11.1293 14.4858C10.8568 14.54 10.5744 14.5122 10.3177 14.4059C10.0611 14.2996 9.84168 14.1196 9.68734 13.8886C9.533 13.6576 9.45063 13.386 9.45063 13.1082C9.45149 12.736 9.59976 12.3792 9.86298 12.116C10.1262 11.8528 10.483 11.7045 10.8552 11.7036ZM14.5658 21.2957H7.14471V20.6378C7.14558 19.948 7.41999 19.2867 7.90777 18.7989C8.39554 18.3112 9.05686 18.0367 9.74668 18.0359H11.9605C12.6503 18.0367 13.3116 18.3112 13.7994 18.7989C14.2872 19.2867 14.5616 19.948 14.5625 20.6378L14.5658 21.2957Z" fill="#720C20"/>
<path d="M21.3816 3.30553C21.0569 2.52622 20.5087 1.86046 19.8063 1.39216C19.1038 0.92385 18.2785 0.67395 17.4342 0.67395H2.30263C1.69194 0.67395 1.10625 0.916548 0.674425 1.34838C0.242598 1.7802 0 2.36589 0 2.97658V26.0029C0 26.6136 0.242598 27.1993 0.674425 27.6311C1.10625 28.0629 1.69194 28.3055 2.30263 28.3055H21.3816C22.3412 28.3055 23.2616 27.9243 23.9402 27.2457C24.6188 26.5671 25 25.6468 25 24.6871V6.92395C25 5.96429 24.6188 5.04393 23.9402 4.36534C23.2616 3.68675 22.3412 3.30553 21.3816 3.30553ZM4.27632 26.3318H2.30263C2.21539 26.3318 2.13172 26.2972 2.07003 26.2355C2.00834 26.1738 1.97368 26.0901 1.97368 26.0029V2.97658C1.97368 2.88934 2.00834 2.80567 2.07003 2.74398C2.13172 2.68229 2.21539 2.64763 2.30263 2.64763H17.4342C18.0449 2.64763 18.6306 2.89023 19.0624 3.32206C19.4942 3.75389 19.7368 4.33957 19.7368 4.95027V24.0292C19.7368 24.6399 19.4942 25.2256 19.0624 25.6574C18.6306 26.0892 18.0449 26.3318 17.4342 26.3318H4.27632ZM23.0263 24.6871C23.0263 24.9031 22.9838 25.117 22.9011 25.3165C22.8185 25.5161 22.6973 25.6974 22.5446 25.8501C22.3919 26.0028 22.2105 26.124 22.011 26.2066C21.8114 26.2893 21.5976 26.3318 21.3816 26.3318H21.0329C21.4755 25.6454 21.7108 24.8459 21.7105 24.0292V5.31211C22.082 5.38794 22.4159 5.5898 22.6557 5.88352C22.8955 6.17724 23.0264 6.54479 23.0263 6.92395V24.6871Z" fill="#720C20"/>
<path d="M6.16775 7.66418H15.5428C15.8045 7.66418 16.0555 7.56021 16.2406 7.37514C16.4256 7.19007 16.5296 6.93907 16.5296 6.67734C16.5296 6.41561 16.4256 6.16461 16.2406 5.97954C16.0555 5.79447 15.8045 5.6905 15.5428 5.6905H6.16775C5.90602 5.6905 5.65502 5.79447 5.46995 5.97954C5.28488 6.16461 5.18091 6.41561 5.18091 6.67734C5.18091 6.93907 5.28488 7.19007 5.46995 7.37514C5.65502 7.56021 5.90602 7.66418 6.16775 7.66418Z" fill="#720C20"/>
</svg>
