<svg width="29" height="32" viewBox="0 0 29 32" fill="none" xmlns="http://www.w3.org/2000/svg">
<path d="M14.2001 17.6076C14.9607 17.2038 15.5643 16.5573 15.915 15.7709C16.2656 14.9844 16.3431 14.1033 16.1351 13.2677C15.9271 12.4321 15.4455 11.6901 14.7671 11.1599C14.0886 10.6296 13.2523 10.3416 12.3912 10.3416C11.5301 10.3416 10.6938 10.6296 10.0154 11.1599C9.33692 11.6901 8.85536 12.4321 8.64734 13.2677C8.43933 14.1033 8.51681 14.9844 8.86747 15.7709C9.21812 16.5573 9.82179 17.2038 10.5824 17.6076C9.29807 17.7438 8.10954 18.3502 7.24542 19.3101C6.38129 20.2699 5.90262 21.5154 5.90149 22.8069V24.6852C5.90149 24.9841 6.02023 25.2708 6.23159 25.4821C6.44294 25.6935 6.7296 25.8122 7.02851 25.8122H17.7577C18.0566 25.8122 18.3433 25.6935 18.5546 25.4821C18.766 25.2708 18.8847 24.9841 18.8847 24.6852V22.8069C18.8835 21.5148 18.4043 20.2688 17.5394 19.3089C16.6745 18.349 15.4851 17.743 14.2001 17.6076ZM12.3931 12.5961C12.7104 12.5961 13.0205 12.6902 13.2843 12.8664C13.5481 13.0427 13.7537 13.2932 13.8751 13.5863C13.9965 13.8795 14.0283 14.202 13.9664 14.5132C13.9045 14.8243 13.7517 15.1102 13.5274 15.3345C13.303 15.5588 13.0172 15.7116 12.706 15.7735C12.3949 15.8354 12.0723 15.8036 11.7792 15.6822C11.4861 15.5608 11.2356 15.3552 11.0593 15.0914C10.8831 14.8276 10.789 14.5175 10.789 14.2002C10.79 13.7751 10.9593 13.3676 11.2599 13.067C11.5605 12.7664 11.968 12.5971 12.3931 12.5961ZM16.6307 23.5507H8.15552V22.7993C8.15652 22.0115 8.46991 21.2563 9.02697 20.6992C9.58403 20.1422 10.3393 19.8288 11.1271 19.8278H13.6554C14.4432 19.8288 15.1984 20.1422 15.7555 20.6992C16.3125 21.2563 16.6259 22.0115 16.6269 22.7993L16.6307 23.5507Z" fill="white"/>
<path d="M24.4187 3.00538C24.0478 2.11537 23.4219 1.35505 22.6196 0.820222C21.8174 0.285396 20.8748 0 19.9106 0H2.6297C1.93226 0 1.26339 0.277057 0.770223 0.770223C0.277057 1.26339 0 1.93226 0 2.6297V28.9267C0 29.6242 0.277057 30.2931 0.770223 30.7862C1.26339 31.2794 1.93226 31.5564 2.6297 31.5564H24.4187C25.5147 31.5564 26.5657 31.1211 27.3407 30.3461C28.1157 29.5711 28.5511 28.52 28.5511 27.4241V7.13777C28.5511 6.04179 28.1157 4.9907 27.3407 4.21573C26.5657 3.44075 25.5147 3.00538 24.4187 3.00538ZM4.88374 29.3024H2.6297C2.53007 29.3024 2.43452 29.2628 2.36406 29.1924C2.29361 29.1219 2.25403 29.0264 2.25403 28.9267V2.6297C2.25403 2.53007 2.29361 2.43452 2.36406 2.36406C2.43452 2.29361 2.53007 2.25403 2.6297 2.25403H19.9106C20.6081 2.25403 21.2769 2.53109 21.7701 3.02425C22.2633 3.51742 22.5403 4.18629 22.5403 4.88374V26.6727C22.5403 27.3702 22.2633 28.039 21.7701 28.5322C21.2769 29.0254 20.6081 29.3024 19.9106 29.3024H4.88374ZM26.297 27.4241C26.297 27.6707 26.2485 27.915 26.1541 28.1429C26.0597 28.3708 25.9213 28.5778 25.7469 28.7523C25.5725 28.9267 25.3654 29.065 25.1375 29.1594C24.9096 29.2538 24.6654 29.3024 24.4187 29.3024H24.0205C24.5259 28.5185 24.7946 27.6055 24.7944 26.6727V5.29698C25.2186 5.38358 25.5999 5.61411 25.8738 5.94955C26.1476 6.285 26.2971 6.70475 26.297 7.13777V27.4241Z" fill="white"/>
<path d="M7.02851 7.9826H17.7352C18.0341 7.9826 18.3207 7.86386 18.5321 7.65251C18.7434 7.44115 18.8622 7.15449 18.8622 6.85559C18.8622 6.55668 18.7434 6.27002 18.5321 6.05866C18.3207 5.84731 18.0341 5.72857 17.7352 5.72857H7.02851C6.7296 5.72857 6.44294 5.84731 6.23158 6.05866C6.02023 6.27002 5.90149 6.55668 5.90149 6.85559C5.90149 7.15449 6.02023 7.44115 6.23158 7.65251C6.44294 7.86386 6.7296 7.9826 7.02851 7.9826Z" fill="white"/>
</svg>
