<svg width="25" height="29" viewBox="0 0 25 29" fill="none" xmlns="http://www.w3.org/2000/svg">
<path d="M12.4374 16.1024C13.1034 15.7489 13.632 15.1828 13.939 14.4941C14.2461 13.8055 14.3139 13.034 14.1318 12.3023C13.9496 11.5707 13.5279 10.921 12.9339 10.4567C12.3398 9.99236 11.6075 9.74013 10.8535 9.74013C10.0995 9.74013 9.36723 9.99236 8.77317 10.4567C8.1791 10.921 7.75744 11.5707 7.57529 12.3023C7.39315 13.034 7.461 13.8055 7.76804 14.4941C8.07508 15.1828 8.60366 15.7489 9.26964 16.1024C8.14509 16.2217 7.10438 16.7527 6.34773 17.5932C5.59109 18.4336 5.17195 19.5242 5.17096 20.655V22.2998C5.17096 22.5615 5.27493 22.8125 5.46 22.9976C5.64507 23.1826 5.89607 23.2866 6.1578 23.2866H15.5525C15.8143 23.2866 16.0653 23.1826 16.2503 22.9976C16.4354 22.8125 16.5394 22.5615 16.5394 22.2998V20.655C16.5383 19.5237 16.1187 18.4327 15.3614 17.5921C14.6041 16.7516 13.5626 16.221 12.4374 16.1024ZM10.8552 11.7142C11.133 11.7142 11.4045 11.7966 11.6355 11.951C11.8665 12.1053 12.0465 12.3247 12.1529 12.5813C12.2592 12.838 12.287 13.1204 12.2328 13.3929C12.1786 13.6653 12.0448 13.9156 11.8484 14.1121C11.6519 14.3085 11.4017 14.4423 11.1292 14.4965C10.8567 14.5507 10.5743 14.5228 10.3177 14.4165C10.061 14.3102 9.84162 14.1302 9.68728 13.8992C9.53294 13.6682 9.45056 13.3967 9.45056 13.1188C9.45143 12.7466 9.5997 12.3898 9.86292 12.1266C10.1262 11.8634 10.4829 11.7151 10.8552 11.7142ZM14.5657 21.3064H7.14464V20.6485C7.14551 19.9586 7.41993 19.2973 7.90771 18.8095C8.39548 18.3218 9.0568 18.0474 9.74662 18.0465H11.9604C12.6503 18.0474 13.3116 18.3218 13.7993 18.8095C14.2871 19.2973 14.5615 19.9586 14.5624 20.6485L14.5657 21.3064Z" fill="#000000"/>
<path d="M21.3816 3.31615C21.0569 2.53684 20.5087 1.87108 19.8063 1.40278C19.1038 0.93447 18.2785 0.68457 17.4342 0.68457H2.30263C1.69194 0.68457 1.10625 0.927168 0.674425 1.359C0.242598 1.79082 0 2.37651 0 2.9872V26.0135C0 26.6242 0.242598 27.2099 0.674425 27.6417C1.10625 28.0736 1.69194 28.3161 2.30263 28.3161H21.3816C22.3412 28.3161 23.2616 27.9349 23.9402 27.2563C24.6188 26.5778 25 25.6574 25 24.6977V6.93457C25 5.97491 24.6188 5.05455 23.9402 4.37596C23.2616 3.69737 22.3412 3.31615 21.3816 3.31615ZM4.27632 26.3425H2.30263C2.21539 26.3425 2.13172 26.3078 2.07003 26.2461C2.00834 26.1844 1.97368 26.1008 1.97368 26.0135V2.9872C1.97368 2.89996 2.00834 2.81629 2.07003 2.7546C2.13172 2.69291 2.21539 2.65825 2.30263 2.65825H17.4342C18.0449 2.65825 18.6306 2.90085 19.0624 3.33268C19.4942 3.76451 19.7368 4.35019 19.7368 4.96089V24.0398C19.7368 24.6505 19.4942 25.2362 19.0624 25.668C18.6306 26.0999 18.0449 26.3425 17.4342 26.3425H4.27632ZM23.0263 24.6977C23.0263 24.9137 22.9838 25.1276 22.9011 25.3271C22.8185 25.5267 22.6973 25.708 22.5446 25.8607C22.3919 26.0135 22.2105 26.1346 22.011 26.2173C21.8114 26.2999 21.5976 26.3425 21.3816 26.3425H21.0329C21.4755 25.6561 21.7108 24.8566 21.7105 24.0398V5.32273C22.082 5.39856 22.4159 5.60042 22.6557 5.89414C22.8955 6.18786 23.0264 6.55541 23.0263 6.93457V24.6977Z" fill="#000000"/>
<path d="M6.16769 7.67481H15.5427C15.8044 7.67481 16.0554 7.57084 16.2405 7.38577C16.4256 7.2007 16.5295 6.9497 16.5295 6.68797C16.5295 6.42624 16.4256 6.17523 16.2405 5.99017C16.0554 5.8051 15.8044 5.70113 15.5427 5.70113H6.16769C5.90596 5.70113 5.65496 5.8051 5.46989 5.99017C5.28482 6.17523 5.18085 6.42624 5.18085 6.68797C5.18085 6.9497 5.28482 7.2007 5.46989 7.38577C5.65496 7.57084 5.90596 7.67481 6.16769 7.67481Z" fill="#000000"/>
</svg>
