<svg width="322" height="246" viewBox="0 0 322 246" fill="none" xmlns="http://www.w3.org/2000/svg">
<path d="M322 0H0V246H322V0Z" fill="white"/>
<path d="M194.6 105.085C193.705 105.085 192.979 105.811 192.979 106.705C192.979 117.463 201.735 126.212 212.493 126.212C223.244 126.212 232 117.463 232 106.705C232 105.811 231.274 105.085 230.38 105.085H224.23L215.779 66.0191C217.554 63.6212 218.527 60.7308 218.462 57.7302C218.442 56.8358 217.755 56.11 216.803 56.1489C215.902 56.1683 215.202 56.9136 215.221 57.808C215.286 60.303 214.424 62.7268 212.856 64.5868C212.026 65.4941 210.976 66.1941 209.81 66.6088C208.358 67.1338 206.932 67.406 205.176 67.3541C198.87 67.3217 192.986 63.0703 187.296 58.9615C182.5 55.4943 177.97 52.2215 173.479 51.9947H166.998C166.998 48.6895 164.308 46 161.003 46C157.717 46 155.054 48.6571 155.021 51.9947H148.444C144.043 52.2345 139.513 55.5073 134.711 58.9745C128.995 63.0963 123.078 67.3671 116.759 67.3671C115.275 67.4254 113.804 67.1662 112.398 66.7449C112.294 66.6866 112.184 66.6348 112.073 66.6023C111.043 66.2718 110.116 65.6886 109.371 64.9044C109.313 64.8007 109.248 64.7035 109.17 64.6192C107.53 62.7333 106.656 60.316 106.72 57.8144C106.74 56.9201 106.04 56.1748 105.139 56.1554C104.141 56.1035 103.499 56.8423 103.48 57.7367C103.409 60.7308 104.381 63.6212 106.176 65.9996L97.7056 105.085H91.6202C90.7258 105.085 90 105.811 90 106.705C90 117.463 98.749 126.212 109.507 126.212C120.265 126.212 129.014 117.463 129.014 106.705C129.014 105.811 128.288 105.085 127.394 105.085H121.25C116.629 83.6338 114.64 74.3922 113.707 70.3482C114.692 70.5102 115.69 70.6075 116.694 70.6075C116.72 70.6075 116.74 70.6075 116.766 70.6075C116.772 70.6075 116.772 70.6075 116.779 70.6075C124.782 71.5536 132.929 70.439 140.394 67.3736C145.449 65.2738 150.777 64.1073 156.201 63.7897L154.568 93.1411C144.38 94.0613 136.324 102.609 136.337 112.992V120.477C134.251 121.715 133.544 124.301 133.499 125.629C133.441 126.076 132.287 136.232 138.664 138.37C139.202 140.133 139.895 141.857 140.757 143.529C141.606 145.045 142.611 146.743 143.726 148.441V150.982C143.732 151.935 143.473 152.881 142.98 153.71C142.961 153.736 142.98 153.769 142.967 153.795C142.967 153.801 142.961 153.801 142.961 153.801L142.624 154.378C142.604 154.404 142.559 154.397 142.54 154.43C141.885 155.343 140.984 156.011 139.941 156.38L124.264 161.954C115.871 164.935 109.702 172.239 108.172 181.027L105.91 194.222C105.67 195.498 105.949 196.788 106.688 197.864C107.427 198.94 108.535 199.652 109.838 199.886C110.11 199.938 110.395 199.963 110.68 199.963H211.333C214.009 199.951 216.18 197.767 216.174 195.09C216.174 194.805 216.148 194.533 216.096 194.247L213.828 181.02C212.292 172.239 206.129 164.928 197.743 161.954L182.059 156.38C180.964 155.985 180.031 155.279 179.363 154.345L178.974 153.736C178.521 152.887 178.274 151.941 178.274 150.975V148.428C179.331 146.834 180.329 145.182 181.113 143.639C181.392 143.224 181.625 142.751 181.742 142.421C182.37 141.138 182.889 139.777 183.297 138.377C189.713 136.232 188.559 126.089 188.514 125.72C188.384 123.951 187.659 122.266 186.324 120.833C186.129 120.671 185.876 120.62 185.663 120.49V112.992C185.656 102.635 177.613 94.0937 167.439 93.1475L165.741 63.7962C171.204 64.1073 176.538 65.2738 181.612 67.38C187.348 69.739 193.491 70.9445 199.667 70.9445C201.508 70.9445 203.342 70.8278 205.176 70.6075C205.183 70.6075 205.189 70.6075 205.196 70.6075C205.299 70.6075 205.39 70.6075 205.494 70.6075C206.407 70.6075 207.315 70.5297 208.209 70.3742L200.75 105.085H194.6ZM212.486 122.972C204.061 122.972 197.114 116.537 196.297 108.325H228.669C227.852 116.537 220.911 122.972 212.486 122.972ZM160.997 49.2533C162.513 49.2533 163.751 50.4847 163.751 51.9882C163.745 52.3511 163.68 52.6946 163.544 53.0316C163.129 54.088 162.086 54.7944 160.997 54.7944C159.876 54.775 158.871 54.101 158.411 53.077C158.314 52.727 158.262 52.3511 158.242 52.0012C158.242 50.4847 159.48 49.2533 160.997 49.2533ZM109.507 122.972C101.089 122.972 94.1347 116.537 93.3182 108.325H125.696C124.879 116.537 117.932 122.972 109.507 122.972ZM101.017 105.085L108.911 68.6373C109.313 68.8901 109.74 69.091 110.175 69.2789C111.114 73.4655 115.826 95.2927 117.932 105.085H101.017ZM162.481 63.673L164.172 92.9661H157.821L159.454 63.673H162.481ZM175.974 172.939L179.486 180.074L167.205 192.439L178.002 158.467L183.31 167.579L176.719 170.768C176.324 170.949 176.032 171.286 175.89 171.701C175.753 172.103 175.779 172.55 175.974 172.939ZM145.216 170.768L138.677 167.579L143.92 158.506L154.749 192.439L142.507 180.074L145.961 172.932C146.35 172.129 146.02 171.163 145.216 170.768ZM165.592 186.82L162.785 176.911L166.583 173.107C166.888 172.803 167.056 172.388 167.056 171.954C167.056 171.519 166.881 171.111 166.577 170.807L163.414 167.689L174.418 159.05L165.592 186.82ZM160.971 169.841L163.135 171.967L160.971 174.131L158.839 171.967L160.971 169.841ZM155.404 173.101L159.156 176.905L156.376 186.931L147.491 159.025L158.534 167.689L155.417 170.807C154.782 171.442 154.782 172.466 155.404 173.101ZM158.171 192.575L160.984 182.44L163.822 192.452L162.448 196.71H159.487L158.171 192.575ZM175.209 152.434C175.3 152.971 175.429 153.483 175.617 153.995L160.964 165.499L146.337 154.015C146.538 153.496 146.681 152.965 146.771 152.421C147.173 152.9 147.504 153.432 147.932 153.892C149.604 155.648 151.58 157.061 153.868 158.104C156.162 159.05 158.573 159.407 161.081 159.517C166 159.517 170.731 157.469 174.088 153.866C174.49 153.425 174.82 152.9 175.209 152.434ZM110.395 196.697C109.967 196.619 109.598 196.38 109.352 196.023C109.105 195.667 109.015 195.245 109.099 194.798L111.361 181.584C112.696 173.95 118.055 167.599 125.346 165.006L139.332 160.036L135.002 167.469C134.776 167.858 134.724 168.324 134.853 168.752C134.989 169.18 135.288 169.536 135.696 169.731L142.345 172.971L139.092 179.685C138.794 180.307 138.917 181.046 139.396 181.532L154.412 196.71L110.395 196.697ZM210.633 181.571L212.927 195.096C212.927 195.524 212.765 195.939 212.461 196.244C212.156 196.555 211.754 196.723 211.32 196.723L167.529 196.71L182.604 181.532C183.09 181.046 183.213 180.301 182.908 179.679L179.603 172.971L186.298 169.731C186.706 169.536 187.011 169.18 187.147 168.752C187.283 168.324 187.224 167.851 186.998 167.462L182.675 160.036L196.654 165.006C203.938 167.592 209.298 173.943 210.633 181.571ZM181.677 135.441C181.042 135.558 180.543 136.024 180.394 136.646C180.011 138.163 179.48 139.628 178.748 141.151C178.657 141.403 178.54 141.637 178.313 142C177.419 143.743 176.408 145.447 175.306 147.087C174.211 148.714 172.999 150.256 171.703 151.675C168.968 154.605 165.099 156.283 161.068 156.283C159.091 156.238 156.992 155.894 155.151 155.136C153.298 154.287 151.658 153.121 150.291 151.695C148.988 150.256 147.77 148.714 146.674 147.08C145.469 145.311 144.458 143.529 143.596 142C142.721 140.289 142.021 138.48 141.516 136.614C141.354 136.011 140.855 135.558 140.239 135.441C135.8 134.637 136.687 126.109 136.707 125.901C136.739 125.331 137.05 123.607 138.074 123.153C138.133 123.128 138.184 123.102 138.236 123.069C138.334 123.05 138.431 123.024 138.528 122.985C138.677 122.927 138.742 122.901 139.014 122.901C139.701 122.914 140.505 123.406 140.718 124.171H140.744C140.764 124.242 140.783 124.307 140.809 124.372C140.984 125.104 141.088 127.871 141.14 129.064C141.172 129.881 141.211 130.483 141.237 130.593C141.399 131.442 142.209 131.974 143.058 131.857C143.913 131.728 144.516 130.924 144.432 130.068C144.419 129.913 144.406 129.492 144.38 128.934C144.315 127.172 144.238 125.512 144.095 124.398C144.957 123.516 147.97 121.209 156.078 121.209C161.094 121.52 165.974 119.868 169.914 116.75C171.709 119.971 174.47 122.454 177.866 123.886C177.588 125.137 177.562 130.295 177.562 130.354C177.562 131.248 178.287 131.974 179.182 131.974C180.076 131.974 180.802 131.248 180.802 130.354C180.802 129.453 180.886 125.26 180.996 124.657C181.081 124.378 181.191 124.119 181.385 123.802C181.683 123.251 182.267 122.901 182.934 122.901C183.2 122.92 183.42 122.927 183.615 122.972C183.835 123.037 184.042 123.141 184.081 123.153C184.775 123.905 185.202 124.897 185.287 126.011C185.287 126.102 186.175 134.637 181.677 135.441ZM182.416 112.992V119.732C181.249 119.829 180.206 120.295 179.428 121.06C176.272 119.822 173.744 117.483 172.286 114.404C174.049 112.195 175.365 109.667 175.903 106.887C176.071 106.012 175.501 105.156 174.626 104.988C173.699 104.806 172.889 105.39 172.727 106.271C172.221 108.876 170.99 111.294 169.24 113.193C165.793 116.543 161.01 118.267 156.169 117.982C148.463 117.982 144.523 119.907 142.656 121.332C141.833 120.477 140.751 119.939 139.578 119.771V112.985C139.565 103.847 146.992 96.3231 156.104 96.2065H165.864C174.982 96.3426 182.409 103.873 182.416 112.992ZM182.843 64.3794C176.855 61.8973 170.53 60.5688 164.01 60.4327H157.886C151.418 60.5752 145.119 61.9038 139.163 64.373C135.547 65.8571 131.762 66.8292 127.912 67.3152C130.978 65.6432 133.881 63.5693 136.61 61.5992C141.01 58.4236 145.171 55.423 148.521 55.248H155.987C157.089 56.9071 158.903 57.9959 160.971 58.0348C163.051 58.0348 164.879 56.946 165.968 55.248H173.394C176.842 55.4295 180.996 58.4301 185.397 61.6057C188.125 63.5758 191.029 65.6497 194.094 67.3217C190.238 66.8292 186.453 65.8635 182.843 64.3794ZM211.774 69.2271C212.195 69.0326 212.623 68.8512 213.018 68.5984L220.911 105.085H204.061L211.774 69.2271Z" fill="#720C20" stroke="#720C20" stroke-width="1.86229"/>
</svg>
