<svg width="32" height="32" viewBox="0 0 32 32" fill="none" xmlns="http://www.w3.org/2000/svg">
<path d="M25.8224 26.3917H6.17744C6.04641 26.3917 5.92183 26.3356 5.83514 26.2371C5.74868 26.139 5.70834 26.0084 5.72461 25.8783L7.37238 12.7523C7.67791 10.3183 9.75847 8.48239 12.2119 8.48239H19.788C22.2413 8.48239 24.3219 10.3183 24.6274 12.7523L26.2752 25.8783C26.2915 26.0084 26.2511 26.139 26.1647 26.2371C26.078 26.3356 25.9534 26.3917 25.8224 26.3917ZM6.69469 25.4789H25.3051L23.7218 12.8664C23.4733 10.8874 21.782 9.3952 19.788 9.3952H12.2119C10.2178 9.3952 8.52654 10.8874 8.27806 12.8664L6.69469 25.4789Z" fill="#720C20" stroke="#720C20" stroke-width="0.910885"/>
<path d="M10.1041 18.9805C10.0849 18.9805 10.066 18.9792 10.0466 18.9769C9.79655 18.9457 9.61916 18.7175 9.65058 18.4671L10.1215 14.716C10.1899 14.1705 10.4065 13.6548 10.7479 13.2247C10.9043 13.0281 11.1923 12.9942 11.3891 13.1511C11.5865 13.308 11.6195 13.595 11.4628 13.7925C11.2255 14.0916 11.0748 14.4504 11.0271 14.8301L10.5563 18.5812C10.5273 18.8116 10.3307 18.9805 10.1041 18.9805Z" fill="#720C20" stroke="#720C20" stroke-width="0.910885"/>
<path d="M26.5267 30.586H5.47309C4.5146 30.586 3.73462 29.8315 3.73462 28.9035V27.1621C3.73462 26.2342 4.5146 25.4796 5.47309 25.4796H26.5267C27.4854 25.4796 28.2654 26.2342 28.2654 27.1621V28.9035C28.2654 29.8315 27.4854 30.586 26.5267 30.586ZM5.47309 26.3924C5.01781 26.3924 4.64742 26.7378 4.64742 27.1621V28.9035C4.64742 29.3278 5.01781 29.6732 5.47309 29.6732H26.5267C26.982 29.6732 27.3526 29.3278 27.3526 28.9035V27.1621C27.3526 26.7378 26.982 26.3924 26.5267 26.3924H5.47309Z" fill="#720C20" stroke="#720C20" stroke-width="0.910885"/>
<path d="M16 4.31884C15.7479 4.31884 15.5436 4.11471 15.5436 3.86244V0.919446C15.5436 0.667176 15.7479 0.463043 16 0.463043C16.252 0.463043 16.4564 0.667176 16.4564 0.919446V3.86244C16.4564 4.11471 16.252 4.31884 16 4.31884Z" fill="#720C20" stroke="#720C20" stroke-width="0.910885"/>
<path d="M24.2027 7.71628C24.086 7.71628 23.9692 7.67171 23.88 7.58257C23.7018 7.40428 23.7018 7.11547 23.88 6.93718L25.961 4.85618C26.1393 4.6779 26.4281 4.6779 26.6064 4.85618C26.7847 5.03447 26.7847 5.32328 26.6064 5.50157L24.5254 7.58257C24.4363 7.67171 24.3195 7.71628 24.2027 7.71628Z" fill="#720C20" stroke="#720C20" stroke-width="0.910885"/>
<path d="M30.5436 15.9193H27.6006C27.3485 15.9193 27.1442 15.7151 27.1442 15.4629C27.1442 15.2106 27.3485 15.0065 27.6006 15.0065H30.5436C30.7956 15.0065 31 15.2106 31 15.4629C31 15.7151 30.7956 15.9193 30.5436 15.9193Z" fill="#720C20" stroke="#720C20" stroke-width="0.910885"/>
<path d="M4.3994 15.9193H1.4564C1.20436 15.9193 1 15.7152 1 15.4629C1 15.2107 1.20436 15.0065 1.4564 15.0065H4.3994C4.65144 15.0065 4.8558 15.2107 4.8558 15.4629C4.8558 15.7152 4.65144 15.9193 4.3994 15.9193Z" fill="#720C20" stroke="#720C20" stroke-width="0.910885"/>
<path d="M7.79717 7.71628C7.68039 7.71628 7.56362 7.67171 7.47448 7.58257L5.39348 5.50157C5.2152 5.32328 5.2152 5.03447 5.39348 4.85618C5.57176 4.6779 5.86058 4.6779 6.03886 4.85618L8.11986 6.93718C8.29814 7.11547 8.29814 7.40428 8.11986 7.58257C8.03072 7.67171 7.91394 7.71628 7.79717 7.71628Z" fill="#720C20" stroke="#720C20" stroke-width="0.910885"/>
</svg>
