<svg width="32" height="32" viewBox="0 0 32 32" fill="none" xmlns="http://www.w3.org/2000/svg">
<path d="M25.8224 26.4023H6.17744C6.04641 26.4023 5.92183 26.3462 5.83514 26.2477C5.74868 26.1496 5.70834 26.019 5.72461 25.8889L7.37238 12.7628C7.67791 10.3288 9.75847 8.49298 12.2119 8.49298H19.788C22.2413 8.49298 24.3219 10.3288 24.6274 12.7628L26.2752 25.8889C26.2915 26.019 26.2511 26.1496 26.1647 26.2477C26.078 26.3462 25.9534 26.4023 25.8224 26.4023ZM6.69469 25.4895H25.3051L23.7218 12.8769C23.4733 10.898 21.782 9.40579 19.788 9.40579H12.2119C10.2178 9.40579 8.52654 10.898 8.27806 12.8769L6.69469 25.4895Z" fill="#000000" stroke="#000000" stroke-width="0.910885"/>
<path d="M10.104 18.9911C10.0849 18.9911 10.0659 18.9898 10.0465 18.9875C9.79649 18.9563 9.6191 18.7281 9.65052 18.4776L10.1214 14.7266C10.1898 14.181 10.4064 13.6654 10.7478 13.2353C10.9043 13.0387 11.1922 13.0048 11.389 13.1617C11.5864 13.3186 11.6194 13.6056 11.4628 13.8031C11.2254 14.1022 11.0748 14.4609 11.0271 14.8407L10.5562 18.5917C10.5272 18.8222 10.3307 18.9911 10.104 18.9911Z" fill="#000000" stroke="#000000" stroke-width="0.910885"/>
<path d="M26.5266 30.5966H5.47303C4.51454 30.5966 3.73456 29.842 3.73456 28.9141V27.1727C3.73456 26.2448 4.51454 25.4902 5.47303 25.4902H26.5266C27.4853 25.4902 28.2653 26.2448 28.2653 27.1727V28.9141C28.2653 29.842 27.4853 30.5966 26.5266 30.5966ZM5.47303 26.403C5.01774 26.403 4.64736 26.7484 4.64736 27.1727V28.9141C4.64736 29.3384 5.01774 29.6838 5.47303 29.6838H26.5266C26.9819 29.6838 27.3525 29.3384 27.3525 28.9141V27.1727C27.3525 26.7484 26.9819 26.403 26.5266 26.403H5.47303Z" fill="#000000" stroke="#000000" stroke-width="0.910885"/>
<path d="M15.9999 4.32943C15.7479 4.32943 15.5435 4.1253 15.5435 3.87303V0.930035C15.5435 0.677766 15.7479 0.473633 15.9999 0.473633C16.252 0.473633 16.4563 0.677766 16.4563 0.930035V3.87303C16.4563 4.1253 16.252 4.32943 15.9999 4.32943Z" fill="#000000" stroke="#000000" stroke-width="0.910885"/>
<path d="M24.2027 7.72685C24.086 7.72685 23.9692 7.68228 23.88 7.59314C23.7018 7.41486 23.7018 7.12604 23.88 6.94776L25.961 4.86676C26.1393 4.68848 26.4281 4.68848 26.6064 4.86676C26.7847 5.04504 26.7847 5.33386 26.6064 5.51214L24.5254 7.59314C24.4363 7.68228 24.3195 7.72685 24.2027 7.72685Z" fill="#000000" stroke="#000000" stroke-width="0.910885"/>
<path d="M30.5436 15.9299H27.6006C27.3485 15.9299 27.1442 15.7257 27.1442 15.4735C27.1442 15.2212 27.3485 15.0171 27.6006 15.0171H30.5436C30.7956 15.0171 31 15.2212 31 15.4735C31 15.7257 30.7956 15.9299 30.5436 15.9299Z" fill="#000000" stroke="#000000" stroke-width="0.910885"/>
<path d="M4.3994 15.9299H1.4564C1.20436 15.9299 1 15.7258 1 15.4735C1 15.2213 1.20436 15.0171 1.4564 15.0171H4.3994C4.65144 15.0171 4.8558 15.2213 4.8558 15.4735C4.8558 15.7258 4.65144 15.9299 4.3994 15.9299Z" fill="#000000" stroke="#000000" stroke-width="0.910885"/>
<path d="M7.79717 7.72685C7.68039 7.72685 7.56362 7.68228 7.47448 7.59314L5.39348 5.51214C5.2152 5.33386 5.2152 5.04504 5.39348 4.86676C5.57176 4.68848 5.86058 4.68848 6.03886 4.86676L8.11986 6.94776C8.29814 7.12604 8.29814 7.41486 8.11986 7.59314C8.03072 7.68228 7.91394 7.72685 7.79717 7.72685Z" fill="#000000" stroke="#000000" stroke-width="0.910885"/>
</svg>
