<svg width="35" height="35" viewBox="0 0 35 35" fill="none" xmlns="http://www.w3.org/2000/svg">
<path d="M28.4896 29.7172H6.73154C6.58641 29.7172 6.44843 29.655 6.35242 29.5459C6.25665 29.4373 6.21198 29.2926 6.22999 29.1485L8.05501 14.6105C8.39341 11.9147 10.6978 9.88138 13.415 9.88138H21.8061C24.5234 9.88138 26.8277 11.9147 27.1661 14.6105L28.9911 29.1485C29.0092 29.2926 28.9645 29.4373 28.8687 29.5459C28.7727 29.655 28.6347 29.7172 28.4896 29.7172ZM7.30442 28.7062H27.9167L26.163 14.7369C25.8878 12.5451 24.0147 10.8924 21.8061 10.8924H13.415C11.2065 10.8924 9.33331 12.5451 9.0581 14.7369L7.30442 28.7062Z" fill="white" stroke="white" stroke-width="1.00886"/>
<path d="M11.0806 21.5087C11.0594 21.5087 11.0384 21.5072 11.0169 21.5047C10.74 21.4702 10.5435 21.2174 10.5783 20.94L11.0999 16.7855C11.1756 16.1812 11.4156 15.6101 11.7937 15.1337C11.967 14.916 12.2859 14.8785 12.5038 15.0523C12.7225 15.226 12.759 15.5439 12.5855 15.7626C12.3226 16.0939 12.1558 16.4912 12.103 16.9118L11.5814 21.0664C11.5493 21.3216 11.3316 21.5087 11.0806 21.5087Z" fill="white" stroke="white" stroke-width="1.00886"/>
<path d="M29.3034 34.3631H5.98517C4.92358 34.3631 4.05969 33.5274 4.05969 32.4996V30.5709C4.05969 29.5431 4.92358 28.7074 5.98517 28.7074H29.3034C30.3652 28.7074 31.2291 29.5431 31.2291 30.5709V32.4996C31.2291 33.5274 30.3652 34.3631 29.3034 34.3631ZM5.98517 29.7184C5.48091 29.7184 5.07068 30.101 5.07068 30.5709V32.4996C5.07068 32.9695 5.48091 33.3521 5.98517 33.3521H29.3034C29.8076 33.3521 30.2181 32.9695 30.2181 32.4996V30.5709C30.2181 30.101 29.8076 29.7184 29.3034 29.7184H5.98517Z" fill="white" stroke="white" stroke-width="1.00886"/>
<path d="M17.601 5.27055C17.3218 5.27055 17.0955 5.04446 17.0955 4.76506V1.5055C17.0955 1.22609 17.3218 1 17.601 1C17.8801 1 18.1065 1.22609 18.1065 1.5055V4.76506C18.1065 5.04446 17.8801 5.27055 17.601 5.27055Z" fill="white" stroke="white" stroke-width="1.00886"/>
<path d="M26.6854 9.03218C26.5561 9.03218 26.4268 8.98281 26.328 8.88408C26.1306 8.68662 26.1306 8.36674 26.328 8.16928L28.6329 5.86443C28.8303 5.66697 29.1502 5.66697 29.3477 5.86443C29.5451 6.06189 29.5451 6.38178 29.3477 6.57924L27.0428 8.88408C26.9441 8.98281 26.8148 9.03218 26.6854 9.03218Z" fill="white" stroke="white" stroke-width="1.00886"/>
<path d="M33.7249 18.1196H30.4653C30.1862 18.1196 29.9598 17.8936 29.9598 17.6142C29.9598 17.3347 30.1862 17.1087 30.4653 17.1087H33.7249C34.0041 17.1087 34.2304 17.3347 34.2304 17.6142C34.2304 17.8936 34.0041 18.1196 33.7249 18.1196Z" fill="white" stroke="white" stroke-width="1.00886"/>
<path d="M4.76506 18.1194H1.5055C1.22634 18.1194 1 17.8933 1 17.6139C1 17.3345 1.22634 17.1084 1.5055 17.1084H4.76506C5.04421 17.1084 5.27055 17.3345 5.27055 17.6139C5.27055 17.8933 5.04421 18.1194 4.76506 18.1194Z" fill="white" stroke="white" stroke-width="1.00886"/>
<path d="M8.51298 9.03242C8.38364 9.03242 8.25431 8.98305 8.15558 8.88433L5.85073 6.57948C5.65327 6.38202 5.65327 6.06214 5.85073 5.86468C6.04819 5.66722 6.36807 5.66722 6.56553 5.86468L8.87038 8.16952C9.06784 8.36698 9.06784 8.68687 8.87038 8.88433C8.77165 8.98305 8.64231 9.03242 8.51298 9.03242Z" fill="white" stroke="white" stroke-width="1.00886"/>
</svg>
