<svg width="37" height="38" viewBox="0 0 37 38" fill="none" xmlns="http://www.w3.org/2000/svg">
<path d="M30.3184 25.3145C27.1263 25.3145 24.5293 27.9114 24.5293 31.1035C24.5293 34.2956 27.1263 36.8926 30.3184 36.8926C33.5105 36.8926 36.1075 34.2956 36.1075 31.1035C36.1075 27.9114 33.5105 25.3145 30.3184 25.3145ZM28.0028 35.1084V34.577C28.0028 33.6195 28.782 32.8403 29.7395 32.8403H30.8973C31.8548 32.8403 32.634 33.6195 32.634 34.577V35.1084C31.9521 35.5044 31.1624 35.7348 30.3184 35.7348C29.4743 35.7348 28.6847 35.5044 28.0028 35.1084ZM30.3184 31.6825C29.6798 31.6825 29.1606 31.1632 29.1606 30.5246C29.1606 29.8861 29.6798 29.3668 30.3184 29.3668C30.9569 29.3668 31.4762 29.8861 31.4762 30.5246C31.4762 31.1632 30.9569 31.6825 30.3184 31.6825ZM33.7536 34.1984C33.6222 33.2056 32.9935 32.3731 32.1194 31.9621C32.436 31.5661 32.634 31.0705 32.634 30.5246C32.634 29.2476 31.5955 28.209 30.3184 28.209C29.0413 28.209 28.0028 29.2476 28.0028 30.5246C28.0028 31.0705 28.2007 31.5661 28.518 31.9626C27.6432 32.3731 27.0151 33.2056 26.8837 34.199C26.1427 33.3775 25.6871 32.2938 25.6871 31.1035C25.6871 28.55 27.7648 26.4723 30.3184 26.4723C32.872 26.4723 34.9497 28.55 34.9497 31.1035C34.9497 32.2938 34.4941 33.3775 33.7536 34.1984Z" fill="#000000" stroke="#000000" stroke-width="0.336491"/>
<path d="M30.3184 13.1572C27.1263 13.1572 24.5293 15.7542 24.5293 18.9463C24.5293 22.1384 27.1263 24.7354 30.3184 24.7354C33.5105 24.7354 36.1075 22.1384 36.1075 18.9463C36.1075 15.7542 33.5105 13.1572 30.3184 13.1572ZM28.0028 22.9512V22.4198C28.0028 21.4623 28.782 20.683 29.7395 20.683H30.8973C31.8548 20.683 32.634 21.4623 32.634 22.4198V22.9512C31.9521 23.3472 31.1624 23.5776 30.3184 23.5776C29.4743 23.5776 28.6847 23.3472 28.0028 22.9512ZM30.3184 19.5252C29.6798 19.5252 29.1606 19.0059 29.1606 18.3674C29.1606 17.7289 29.6798 17.2096 30.3184 17.2096C30.9569 17.2096 31.4762 17.7289 31.4762 18.3674C31.4762 19.0059 30.9569 19.5252 30.3184 19.5252ZM33.7536 22.0412C33.6222 21.0483 32.9935 20.2159 32.1194 19.8048C32.436 19.4089 32.634 18.9133 32.634 18.3674C32.634 17.0903 31.5955 16.0518 30.3184 16.0518C29.0413 16.0518 28.0028 17.0903 28.0028 18.3674C28.0028 18.9133 28.2007 19.4089 28.518 19.8054C27.6432 20.2159 27.0151 21.0483 26.8837 22.0417C26.1427 21.2203 25.6871 20.1366 25.6871 18.9463C25.6871 16.3927 27.7648 14.315 30.3184 14.315C32.872 14.315 34.9497 16.3927 34.9497 18.9463C34.9497 20.1366 34.4941 21.2203 33.7536 22.0412Z" fill="#000000" stroke="#000000" stroke-width="0.336491"/>
<path d="M30.3184 1C27.1263 1 24.5293 3.59699 24.5293 6.78909C24.5293 9.98119 27.1263 12.5782 30.3184 12.5782C33.5105 12.5782 36.1075 9.98119 36.1075 6.78909C36.1075 3.59699 33.5105 1 30.3184 1ZM28.0028 10.794V10.2625C28.0028 9.30503 28.782 8.52582 29.7395 8.52582H30.8973C31.8548 8.52582 32.634 9.30503 32.634 10.2625V10.794C31.9521 11.19 31.1624 11.4204 30.3184 11.4204C29.4743 11.4204 28.6847 11.19 28.0028 10.794ZM30.3184 7.368C29.6798 7.368 29.1606 6.84872 29.1606 6.21018C29.1606 5.57164 29.6798 5.05236 30.3184 5.05236C30.9569 5.05236 31.4762 5.57164 31.4762 6.21018C31.4762 6.84872 30.9569 7.368 30.3184 7.368ZM33.7536 9.88394C33.6222 8.89111 32.9935 8.05864 32.1194 7.64761C32.436 7.25164 32.634 6.75609 32.634 6.21018C32.634 4.93311 31.5955 3.89454 30.3184 3.89454C29.0413 3.89454 28.0028 4.93311 28.0028 6.21018C28.0028 6.75609 28.2007 7.25164 28.518 7.64819C27.6432 8.05864 27.0151 8.89111 26.8837 9.88451C26.1427 9.06304 25.6871 7.97933 25.6871 6.78909C25.6871 4.23552 27.7648 2.15782 30.3184 2.15782C32.872 2.15782 34.9497 4.23552 34.9497 6.78909C34.9497 7.97933 34.4941 9.06304 33.7536 9.88394Z" fill="#000000" stroke="#000000" stroke-width="0.336491"/>
<path d="M0.794241 29.3664H13.5302C13.8498 29.3664 14.1091 29.107 14.1091 28.7875V26.4718H12.9513V28.2086H1.37315V11.9991H12.9513V16.0515H14.1091V11.4202C14.1091 11.1007 13.8498 10.8413 13.5302 10.8413H0.794241C0.474683 10.8413 0.215332 11.1007 0.215332 11.4202V28.7875C0.215332 29.107 0.474683 29.3664 0.794241 29.3664Z" fill="#000000" stroke="#000000" stroke-width="0.336491"/>
<path d="M13.6367 25.2847C13.6958 25.3044 13.7577 25.3142 13.8197 25.3142H16.1353C17.0928 25.3142 17.872 24.535 17.872 23.5775V23.4785C18.5459 23.2394 19.0298 22.5956 19.0298 21.8407V21.7417C19.7037 21.5027 20.1876 20.8589 20.1876 20.104H21.9244C22.7221 20.104 23.3716 19.4545 23.3716 18.6567C23.3716 17.859 22.7221 17.2095 21.9244 17.2095H14.3453C13.8868 17.2095 13.4422 17.3438 13.0607 17.5985L11.9075 18.3673H8.89893V19.5251H12.0829C12.197 19.5251 12.3093 19.491 12.4042 19.4279L13.7033 18.5618C13.8943 18.4344 14.1161 18.3673 14.3453 18.3673H21.9244C22.0842 18.3673 22.2138 18.497 22.2138 18.6567C22.2138 18.8165 22.0842 18.9462 21.9244 18.9462H19.6087C19.2892 18.9462 19.0298 19.2056 19.0298 19.5251V20.104C19.0298 20.423 18.7699 20.6829 18.4509 20.6829C18.1314 20.6829 17.872 20.9423 17.872 21.2618V21.8407C17.872 22.1597 17.6121 22.4197 17.2931 22.4197C16.9735 22.4197 16.7142 22.679 16.7142 22.9986V23.5775C16.7142 23.8964 16.4543 24.1564 16.1353 24.1564H13.9134L12.2659 23.607C12.2068 23.5873 12.1449 23.5775 12.0829 23.5775H8.89893V24.7353H11.9891L13.6367 25.2847Z" fill="#000000" stroke="#000000" stroke-width="0.336491"/>
<path d="M8.89875 13.1572H5.42529V14.315H8.89875V13.1572Z" fill="#000000" stroke="#000000" stroke-width="0.336491"/>
<path d="M5.42531 15.4727H2.53076V16.6305H5.42531V15.4727Z" fill="#000000" stroke="#000000" stroke-width="0.336491"/>
<path d="M10.0569 15.4727H6.5835V16.6305H10.0569V15.4727Z" fill="#000000" stroke="#000000" stroke-width="0.336491"/>
<path d="M8.89876 25.8931H2.53076V27.0509H8.89876V25.8931Z" fill="#000000" stroke="#000000" stroke-width="0.336491"/>
<path d="M4.8464 17.7886H2.53076V18.9464H4.8464V17.7886Z" fill="#000000" stroke="#000000" stroke-width="0.336491"/>
<path d="M5.42531 22.9985H2.53076V24.1564H5.42531V22.9985Z" fill="#000000" stroke="#000000" stroke-width="0.336491"/>
<path d="M5.42531 20.104H2.53076V21.2618H5.42531V20.104Z" fill="#000000" stroke="#000000" stroke-width="0.336491"/>
<path d="M24.0207 22.1102L22.3833 23.7476L23.202 24.5663L24.8394 22.9289L24.0207 22.1102Z" fill="#000000" stroke="#000000" stroke-width="0.336491"/>
<path d="M23.2015 12.7477L22.3828 13.5664L24.0202 15.2038L24.8389 14.3851L23.2015 12.7477Z" fill="#000000" stroke="#000000" stroke-width="0.336491"/>
</svg>
