<svg width="35" height="26" viewBox="0 0 35 26" fill="none" xmlns="http://www.w3.org/2000/svg">
<path d="M6.2138 1.00083C6.0261 1.01852 5.8518 1.1058 5.72519 1.2455C5.59858 1.3852 5.52883 1.56721 5.52964 1.75575V7.04013H3.64229C3.61871 7.03903 3.5951 7.03903 3.57152 7.04013C3.38381 7.05782 3.20951 7.14511 3.08291 7.28481C2.9563 7.42451 2.88654 7.60652 2.88735 7.79505V13.8344H1.75495C1.73137 13.8332 1.70775 13.8332 1.68417 13.8344C1.49646 13.852 1.32217 13.9393 1.19556 14.079C1.06895 14.2187 0.999197 14.4007 1.00001 14.5892V24.4031C1.00002 24.6033 1.07956 24.7953 1.22114 24.9369C1.36271 25.0785 1.55473 25.158 1.75495 25.158H33.4624C33.6626 25.158 33.8546 25.0785 33.9962 24.9369C34.1378 24.7953 34.2173 24.6033 34.2173 24.4031V14.5892C34.2173 14.389 34.1377 14.197 33.9962 14.0555C33.8546 13.9139 33.6626 13.8344 33.4624 13.8344H32.33V7.79505C32.3299 7.59484 32.2504 7.40283 32.1088 7.26126C31.9673 7.11969 31.7752 7.04015 31.575 7.04013H29.6877V1.75575C29.6877 1.55554 29.6081 1.36353 29.4665 1.22196C29.325 1.08039 29.133 1.00085 28.9327 1.00083H6.28458C6.261 0.999723 6.23738 0.999723 6.2138 1.00083ZM7.03952 2.51066H28.1778V7.04013H7.03952V2.51066ZM10.7434 4.02047C10.6443 4.02512 10.547 4.04924 10.4572 4.09148C10.3674 4.13371 10.2868 4.19323 10.22 4.26662C10.1532 4.34 10.1015 4.42582 10.0678 4.51919C10.0342 4.61256 10.0192 4.71164 10.0239 4.81077C10.0285 4.90991 10.0527 5.00717 10.0949 5.09699C10.1371 5.1868 10.1966 5.2674 10.27 5.33422C10.3434 5.40103 10.4292 5.45274 10.5226 5.48639C10.616 5.52003 10.7151 5.53495 10.8142 5.5303H24.4031C24.5031 5.5317 24.6025 5.51322 24.6953 5.47591C24.7881 5.4386 24.8726 5.38321 24.9438 5.31298C25.015 5.24274 25.0716 5.15905 25.1102 5.06676C25.1488 4.97447 25.1687 4.87542 25.1687 4.77539C25.1687 4.67535 25.1488 4.57632 25.1102 4.48404C25.0716 4.39175 25.015 4.30806 24.9438 4.23782C24.8726 4.16758 24.7881 4.1122 24.6953 4.07489C24.6025 4.03758 24.5031 4.01907 24.4031 4.02047H10.8142C10.7906 4.01936 10.767 4.01936 10.7434 4.02047ZM4.39723 8.54996H30.8201V13.8344H24.0256H17.6087H4.39723V8.54996ZM10.7434 10.4372C10.6442 10.4418 10.5469 10.4658 10.4569 10.508C10.367 10.5502 10.2863 10.6097 10.2194 10.6831C10.1525 10.7565 10.1007 10.8424 10.067 10.9358C10.0333 11.0292 10.0184 11.1284 10.023 11.2276C10.0277 11.3268 10.0518 11.4241 10.0941 11.514C10.1364 11.6038 10.196 11.6845 10.2695 11.7513C10.343 11.8181 10.4289 11.8698 10.5224 11.9034C10.6158 11.937 10.715 11.9518 10.8142 11.9471H24.4031C24.5032 11.9485 24.6025 11.93 24.6953 11.8927C24.7882 11.8554 24.8726 11.8 24.9439 11.7298C25.0151 11.6596 25.0717 11.5759 25.1103 11.4836C25.149 11.3913 25.1688 11.2922 25.1688 11.1922C25.1688 11.0921 25.149 10.9931 25.1103 10.9008C25.0717 10.8085 25.0151 10.7248 24.9439 10.6545C24.8726 10.5843 24.7882 10.5289 24.6953 10.4916C24.6025 10.4543 24.5032 10.4358 24.4031 10.4372H10.8142C10.7906 10.4361 10.767 10.4361 10.7434 10.4372ZM2.50988 15.3442H3.58331H10.4367V18.3638C10.4368 18.564 10.5163 18.756 10.6579 18.8976C10.7995 19.0392 10.9915 19.1187 11.1917 19.1187H24.0256C24.2259 19.1187 24.4179 19.0392 24.5594 18.8976C24.701 18.756 24.7806 18.564 24.7806 18.3638V15.3442H31.6458H32.7074V23.6482H2.50988V15.3442ZM11.9466 15.3442H17.6087H23.2707V17.6089H11.9466V15.3442Z" fill="white" stroke="white" stroke-width="0.4"/>
</svg>
