<svg width="29" height="22" viewBox="0 0 29 22" fill="none" xmlns="http://www.w3.org/2000/svg">
<path d="M4.55185 0.455803C4.38798 0.471247 4.23581 0.547448 4.12528 0.669412C4.01474 0.791375 3.95384 0.950278 3.95455 1.11487V5.72835H2.30682C2.28624 5.72738 2.26562 5.72738 2.24503 5.72835C2.08116 5.74379 1.92899 5.81999 1.81846 5.94196C1.70792 6.06392 1.64702 6.22282 1.64773 6.38742V11.66H0.659097C0.638512 11.659 0.617892 11.659 0.597307 11.66C0.433433 11.6754 0.281267 11.7516 0.170734 11.8736C0.0602003 11.9955 -0.000701075 12.1544 6.09008e-06 12.319V20.8869C1.75641e-05 21.0617 0.0694602 21.2293 0.193061 21.3529C0.316661 21.4765 0.484297 21.546 0.659097 21.546H28.3409C28.5157 21.546 28.6833 21.4765 28.8069 21.3529C28.9305 21.2293 29 21.0617 29 20.8869V12.319C29 12.1442 28.9305 11.9766 28.8069 11.853C28.6833 11.7294 28.5157 11.66 28.3409 11.66H27.3523V6.38742C27.3523 6.21263 27.2828 6.045 27.1592 5.9214C27.0356 5.79781 26.868 5.72837 26.6932 5.72835H25.0455V1.11487C25.0454 0.940083 24.976 0.772451 24.8524 0.648855C24.7288 0.52526 24.5612 0.45582 24.3864 0.455803H4.61364C4.59306 0.454837 4.57244 0.454837 4.55185 0.455803ZM5.27273 1.77394H23.7273V5.72835H5.27273V1.77394ZM8.5064 3.09207C8.41984 3.09612 8.33494 3.11719 8.25653 3.15406C8.17811 3.19093 8.10773 3.24289 8.0494 3.30696C7.99106 3.37103 7.94592 3.44596 7.91655 3.52747C7.88717 3.60898 7.87414 3.69548 7.8782 3.78203C7.88226 3.86858 7.90332 3.9535 7.94019 4.03191C7.97706 4.11031 8.02902 4.18069 8.09309 4.23902C8.15716 4.29735 8.23209 4.3425 8.31361 4.37187C8.39513 4.40124 8.48163 4.41426 8.56819 4.41021H20.4318C20.5192 4.41143 20.6059 4.39529 20.6869 4.36272C20.7679 4.33015 20.8417 4.28179 20.9039 4.22047C20.9661 4.15915 21.0154 4.08609 21.0492 4.00552C21.0829 3.92495 21.1002 3.83847 21.1002 3.75114C21.1002 3.6638 21.0829 3.57735 21.0492 3.49678C21.0154 3.41621 20.9661 3.34314 20.9039 3.28182C20.8417 3.2205 20.7679 3.17215 20.6869 3.13957C20.6059 3.107 20.5192 3.09084 20.4318 3.09207H8.56819C8.5476 3.0911 8.52698 3.0911 8.5064 3.09207ZM2.96591 7.04649H26.0341V11.66H20.1023H14.5H2.96591V7.04649ZM8.5064 8.69416C8.41978 8.69812 8.33479 8.71912 8.25628 8.75595C8.17778 8.79278 8.10731 8.84471 8.0489 8.90879C7.99049 8.97287 7.94528 9.04783 7.91586 9.1294C7.88644 9.21097 7.87339 9.29753 7.87745 9.38414C7.88151 9.47076 7.9026 9.55572 7.93952 9.63418C7.97644 9.71263 8.02846 9.78305 8.09262 9.84139C8.15677 9.89973 8.23179 9.94484 8.31339 9.97416C8.39499 10.0035 8.48158 10.0165 8.56819 10.0123H20.4318C20.5192 10.0135 20.6059 9.99739 20.6869 9.96483C20.768 9.93226 20.8417 9.88393 20.9039 9.8226C20.9662 9.76128 21.0155 9.6882 21.0493 9.60763C21.083 9.52705 21.1003 9.44057 21.1003 9.35323C21.1003 9.26588 21.083 9.1794 21.0493 9.09883C21.0155 9.01825 20.9662 8.94517 20.9039 8.88385C20.8417 8.82253 20.768 8.77417 20.6869 8.7416C20.6059 8.70904 20.5192 8.69292 20.4318 8.69416H8.56819C8.5476 8.69319 8.52698 8.69319 8.5064 8.69416ZM1.31819 12.9781H2.25533H8.23864V15.6144C8.23866 15.7892 8.30811 15.9568 8.43171 16.0804C8.55531 16.204 8.72294 16.2734 8.89773 16.2734H20.1023C20.2771 16.2734 20.4447 16.204 20.5683 16.0804C20.6919 15.9568 20.7613 15.7892 20.7614 15.6144V12.9781H26.755H27.6818V20.2278H1.31819V12.9781ZM9.55682 12.9781H14.5H19.4432V14.9553H9.55682V12.9781Z" fill="#000000"/>
</svg>
