<svg width="29" height="22" viewBox="0 0 29 22" fill="none" xmlns="http://www.w3.org/2000/svg">
<path d="M4.55185 0.445213C4.38798 0.460657 4.23581 0.536858 4.12528 0.658822C4.01474 0.780786 3.95384 0.939689 3.95455 1.10428V5.71776H2.30682C2.28624 5.71679 2.26562 5.71679 2.24503 5.71776C2.08116 5.7332 1.92899 5.8094 1.81846 5.93137C1.70792 6.05333 1.64702 6.21223 1.64773 6.37683V11.6494H0.659097C0.638512 11.6484 0.617892 11.6484 0.597307 11.6494C0.433433 11.6648 0.281267 11.741 0.170734 11.863C0.0602003 11.9849 -0.000701075 12.1438 6.09008e-06 12.3084V20.8763C1.75641e-05 21.0511 0.0694602 21.2187 0.193061 21.3423C0.316661 21.4659 0.484297 21.5354 0.659097 21.5354H28.3409C28.5157 21.5354 28.6833 21.4659 28.8069 21.3423C28.9305 21.2187 29 21.0511 29 20.8763V12.3084C29 12.1336 28.9305 11.966 28.8069 11.8424C28.6833 11.7188 28.5157 11.6494 28.3409 11.6494H27.3523V6.37683C27.3523 6.20204 27.2828 6.03441 27.1592 5.91081C27.0356 5.78722 26.868 5.71778 26.6932 5.71776H25.0455V1.10428C25.0454 0.929493 24.976 0.761861 24.8524 0.638266C24.7288 0.51467 24.5612 0.44523 24.3864 0.445213H4.61364C4.59306 0.444247 4.57244 0.444247 4.55185 0.445213ZM5.27273 1.76335H23.7273V5.71776H5.27273V1.76335ZM8.5064 3.08148C8.41984 3.08553 8.33494 3.1066 8.25653 3.14347C8.17811 3.18034 8.10773 3.2323 8.0494 3.29637C7.99106 3.36044 7.94592 3.43537 7.91655 3.51688C7.88717 3.59839 7.87414 3.68489 7.8782 3.77144C7.88226 3.85799 7.90332 3.94291 7.94019 4.02132C7.97706 4.09973 8.02902 4.1701 8.09309 4.22843C8.15716 4.28676 8.23209 4.33191 8.31361 4.36128C8.39513 4.39065 8.48163 4.40367 8.56819 4.39962H20.4318C20.5192 4.40084 20.6059 4.3847 20.6869 4.35213C20.7679 4.31956 20.8417 4.2712 20.9039 4.20988C20.9661 4.14856 21.0154 4.0755 21.0492 3.99493C21.0829 3.91436 21.1002 3.82788 21.1002 3.74055C21.1002 3.65321 21.0829 3.56676 21.0492 3.48619C21.0154 3.40562 20.9661 3.33255 20.9039 3.27123C20.8417 3.20991 20.7679 3.16156 20.6869 3.12898C20.6059 3.09641 20.5192 3.08025 20.4318 3.08148H8.56819C8.5476 3.08051 8.52698 3.08051 8.5064 3.08148ZM2.96591 7.0359H26.0341V11.6494H20.1023H14.5H2.96591V7.0359ZM8.5064 8.68357C8.41978 8.68753 8.33479 8.70853 8.25628 8.74536C8.17778 8.78219 8.10731 8.83412 8.0489 8.8982C7.99049 8.96228 7.94528 9.03724 7.91586 9.11881C7.88644 9.20038 7.87339 9.28694 7.87745 9.37355C7.88151 9.46017 7.9026 9.54513 7.93952 9.62359C7.97644 9.70204 8.02846 9.77246 8.09261 9.8308C8.15677 9.88914 8.23179 9.93425 8.31339 9.96357C8.39499 9.9929 8.48158 10.0059 8.56819 10.0017H20.4318C20.5192 10.0029 20.6059 9.9868 20.6869 9.95424C20.768 9.92167 20.8417 9.87334 20.9039 9.81201C20.9662 9.75069 21.0155 9.67761 21.0493 9.59704C21.083 9.51646 21.1003 9.42998 21.1003 9.34264C21.1003 9.25529 21.083 9.16881 21.0493 9.08824C21.0155 9.00766 20.9662 8.93458 20.9039 8.87326C20.8417 8.81194 20.768 8.76358 20.6869 8.73101C20.6059 8.69845 20.5192 8.68233 20.4318 8.68357H8.56819C8.5476 8.6826 8.52698 8.6826 8.5064 8.68357ZM1.31819 12.9675H2.25533H8.23864V15.6038C8.23866 15.7786 8.30811 15.9462 8.43171 16.0698C8.55531 16.1934 8.72294 16.2628 8.89773 16.2628H20.1023C20.2771 16.2628 20.4447 16.1934 20.5683 16.0698C20.6919 15.9462 20.7613 15.7786 20.7614 15.6038V12.9675H26.755H27.6818V20.2173H1.31819V12.9675ZM9.55682 12.9675H14.5H19.4432V14.9447H9.55682V12.9675Z" fill="#720C20"/>
</svg>
