<svg width="322" height="246" viewBox="0 0 322 246" fill="none" xmlns="http://www.w3.org/2000/svg">
<path d="M322 0H0V246H322V0Z" fill="white"/>
<path d="M191.485 120.48C192.44 120.823 193.373 121.223 194.279 121.678C194.712 121.903 195.193 122.02 195.681 122.019C196.369 122.02 197.036 121.789 197.577 121.364C198.118 120.939 198.5 120.345 198.662 119.677C198.825 119.009 198.758 118.305 198.472 117.68C198.187 117.054 197.7 116.543 197.088 116.227C195.959 115.656 194.796 115.154 193.606 114.725L180.395 109.91L171.501 103.981C170.996 103.652 170.403 103.48 169.8 103.488V94.1498L172.603 90.7866C176.732 85.8239 178.995 79.5732 179 73.1174V63.6C179 56.28 176.092 49.2599 170.916 44.0839C165.74 38.9078 158.72 36 151.4 36C144.08 36 137.06 38.9078 131.884 44.0839C126.708 49.2599 123.8 56.28 123.8 63.6V73.1174C123.804 79.5724 126.067 85.8225 130.197 90.7839L133 94.148V103.488C132.397 103.48 131.804 103.652 131.299 103.982L122.403 109.913L109.206 114.712C102.707 117.09 97.0932 121.405 93.1224 127.073C89.1516 132.741 87.0147 139.491 87 146.412V192.4C87 193.213 87.3231 193.993 87.8982 194.568C88.4733 195.144 89.2533 195.467 90.0667 195.467C90.88 195.467 91.66 195.144 92.2351 194.568C92.8102 193.993 93.1333 193.213 93.1333 192.4V146.412C93.1453 140.749 94.8936 135.226 98.1426 130.588C101.392 125.95 105.985 122.42 111.303 120.474L122.279 116.482L133.324 138.572C133.541 139.006 133.858 139.383 134.25 139.671C134.641 139.959 135.095 140.15 135.575 140.227C136.055 140.305 136.546 140.268 137.008 140.119C137.471 139.97 137.891 139.713 138.235 139.369L141.208 136.397L142.637 138.779C142.848 139.128 143.127 139.432 143.458 139.672C143.788 139.911 144.163 140.083 144.56 140.175L136.136 179.489C136.028 179.99 136.047 180.51 136.191 181.001C136.336 181.492 136.602 181.939 136.964 182.301L149.23 194.568C149.515 194.853 149.853 195.079 150.225 195.233C150.597 195.387 150.996 195.467 151.398 195.467C151.801 195.467 152.2 195.387 152.572 195.233C152.944 195.079 153.282 194.853 153.567 194.568L165.833 182.301C166.195 181.939 166.461 181.492 166.606 181.001C166.75 180.51 166.769 179.99 166.661 179.489L158.239 140.175C158.636 140.082 159.011 139.911 159.341 139.671C159.672 139.431 159.951 139.128 160.162 138.778L161.591 136.396L164.564 139.368C164.908 139.712 165.328 139.969 165.791 140.118C166.253 140.267 166.744 140.305 167.224 140.227C167.704 140.149 168.158 139.958 168.549 139.67C168.941 139.383 169.258 139.006 169.476 138.571L180.519 116.484L191.485 120.48ZM151.4 117.873L139.133 107.651V100.659C141.709 102.483 144.787 103.464 147.944 103.467H154.856C158.013 103.464 161.091 102.482 163.667 100.658V107.65L151.4 117.873ZM129.933 73.1174V63.6C129.933 57.9067 132.195 52.4466 136.221 48.4208C140.247 44.395 145.707 42.1333 151.4 42.1333C157.093 42.1333 162.553 44.395 166.579 48.4208C170.605 52.4466 172.867 57.9067 172.867 63.6V73.1174C172.863 78.1377 171.102 82.9984 167.889 86.8561L161.921 94.0226C161.059 95.0597 159.979 95.8941 158.758 96.4664C157.537 97.0386 156.205 97.3346 154.856 97.3333H147.944C146.595 97.3348 145.263 97.0391 144.042 96.4671C142.821 95.8951 141.741 95.061 140.879 94.0241L134.911 86.8576C131.697 82.9995 129.937 78.1382 129.933 73.1174ZM136.908 132.022L127.753 113.718L132.796 110.355L146.857 122.073L136.908 132.022ZM151.4 188.063L142.482 179.145L150.812 140.267H151.988L160.318 179.145L151.4 188.063ZM155.796 134.133H147.004L145.678 131.925L151.4 126.203L157.122 131.925L155.796 134.133ZM165.892 132.022L155.943 122.073L170.004 110.355L175.047 113.718L165.892 132.022ZM117.667 155.6V192.4C117.667 193.213 117.344 193.993 116.768 194.568C116.193 195.144 115.413 195.467 114.6 195.467C113.787 195.467 113.007 195.144 112.432 194.568C111.856 193.993 111.533 193.213 111.533 192.4V155.6C111.533 154.787 111.856 154.007 112.432 153.432C113.007 152.856 113.787 152.533 114.6 152.533C115.413 152.533 116.193 152.856 116.768 153.432C117.344 154.007 117.667 154.787 117.667 155.6ZM221.933 121.867C212.229 121.867 202.742 124.744 194.673 130.136C186.604 135.527 180.315 143.191 176.602 152.156C172.888 161.122 171.916 170.988 173.809 180.506C175.703 190.024 180.376 198.767 187.238 205.629C194.1 212.491 202.843 217.164 212.361 219.057C221.879 220.95 231.745 219.979 240.71 216.265C249.676 212.551 257.339 206.262 262.731 198.193C268.122 190.124 271 180.638 271 170.933C270.985 157.925 265.811 145.453 256.612 136.254C247.414 127.056 234.942 121.882 221.933 121.867ZM221.933 213.867C213.442 213.867 205.141 211.349 198.081 206.631C191.02 201.914 185.518 195.208 182.268 187.363C179.019 179.518 178.168 170.886 179.825 162.557C181.482 154.229 185.571 146.579 191.575 140.575C197.579 134.571 205.229 130.482 213.557 128.825C221.886 127.168 230.518 128.019 238.363 131.268C246.208 134.518 252.914 140.02 257.631 147.081C262.349 154.141 264.867 162.442 264.867 170.933C264.854 182.316 260.326 193.229 252.278 201.278C244.229 209.326 233.316 213.854 221.933 213.867ZM221.933 134.133C214.655 134.133 207.54 136.292 201.488 140.335C195.437 144.379 190.72 150.126 187.935 156.851C185.149 163.575 184.42 170.974 185.84 178.113C187.26 185.251 190.765 191.808 195.912 196.955C201.058 202.101 207.616 205.606 214.754 207.026C221.893 208.446 229.292 207.717 236.016 204.932C242.74 202.147 248.488 197.43 252.531 191.378C256.575 185.327 258.733 178.212 258.733 170.933C258.723 161.177 254.842 151.823 247.943 144.924C241.044 138.025 231.69 134.144 221.933 134.133ZM221.933 201.6C215.868 201.6 209.939 199.801 204.896 196.432C199.853 193.062 195.922 188.273 193.601 182.669C191.28 177.065 190.673 170.899 191.856 164.951C193.039 159.002 195.96 153.538 200.249 149.249C204.538 144.96 210.002 142.039 215.951 140.856C221.899 139.673 228.065 140.28 233.669 142.601C239.273 144.922 244.062 148.853 247.432 153.896C250.801 158.939 252.6 164.868 252.6 170.933C252.591 179.064 249.357 186.858 243.607 192.607C237.858 198.357 230.064 201.591 221.933 201.6ZM215.8 163.267C215.801 164.486 216.286 165.655 217.149 166.518C218.011 167.38 219.18 167.865 220.4 167.867H223.467C226.18 167.858 228.795 168.879 230.784 170.725C232.773 172.57 233.988 175.101 234.183 177.808C234.377 180.514 233.538 183.193 231.833 185.304C230.129 187.415 227.686 188.8 225 189.18V192.4C225 193.213 224.677 193.993 224.102 194.568C223.527 195.144 222.747 195.467 221.933 195.467C221.12 195.467 220.34 195.144 219.765 194.568C219.19 193.993 218.867 193.213 218.867 192.4V189.333H212.733C211.92 189.333 211.14 189.01 210.565 188.435C209.99 187.86 209.667 187.08 209.667 186.267C209.667 185.453 209.99 184.673 210.565 184.098C211.14 183.523 211.92 183.2 212.733 183.2H223.467C224.687 183.2 225.857 182.715 226.719 181.853C227.582 180.99 228.067 179.82 228.067 178.6C228.067 177.38 227.582 176.21 226.719 175.347C225.857 174.485 224.687 174 223.467 174H220.4C217.689 174.006 215.076 172.983 213.089 171.138C211.103 169.293 209.89 166.763 209.695 164.059C209.5 161.355 210.339 158.677 212.041 156.567C213.743 154.457 216.182 153.071 218.867 152.688V149.467C218.867 148.653 219.19 147.873 219.765 147.298C220.34 146.723 221.12 146.4 221.933 146.4C222.747 146.4 223.527 146.723 224.102 147.298C224.677 147.873 225 148.653 225 149.467V152.533H231.133C231.947 152.533 232.727 152.856 233.302 153.432C233.877 154.007 234.2 154.787 234.2 155.6C234.2 156.413 233.877 157.193 233.302 157.768C232.727 158.344 231.947 158.667 231.133 158.667H220.4C219.18 158.668 218.011 159.153 217.149 160.016C216.286 160.878 215.801 162.047 215.8 163.267Z" fill="#720C20"/>
</svg>
