<svg width="29" height="29" viewBox="0 0 29 29" fill="none" xmlns="http://www.w3.org/2000/svg">
<path d="M14.4706 0.713379C6.79106 0.713379 0.546875 6.95756 0.546875 14.6371C0.546875 22.3167 6.79106 28.5609 14.4706 28.5609C22.1502 28.5609 28.3944 22.3167 28.3944 14.6371C28.3944 6.95756 22.1502 0.713379 14.4706 0.713379ZM14.4706 2.45385C21.2096 2.45385 26.6539 7.89818 26.6539 14.6371C26.6539 21.3761 21.2096 26.8204 14.4706 26.8204C7.73168 26.8204 2.28734 21.3761 2.28734 14.6371C2.28734 7.89818 7.73168 2.45385 14.4706 2.45385ZM14.4616 5.62658C14.3465 5.62776 14.2328 5.65175 14.1271 5.69715C14.0214 5.74255 13.9257 5.80847 13.8456 5.89108C13.7655 5.9737 13.7026 6.07137 13.6605 6.17846C13.6184 6.28554 13.598 6.39991 13.6004 6.51494V7.72058C12.7687 7.80495 11.9848 8.02471 11.316 8.48204C10.4179 9.09619 9.82938 10.1844 9.82938 11.5007C9.82938 12.744 10.5576 13.7138 11.4248 14.3017C12.292 14.8897 13.3154 15.2155 14.244 15.4711C15.1088 15.7092 15.9675 16.0183 16.5374 16.4048C17.1074 16.7912 17.3714 17.1332 17.3714 17.7645C17.3714 18.6324 17.113 19.0318 16.6462 19.3509C16.1795 19.6701 15.4041 19.8585 14.4706 19.8585C13.149 19.8585 11.7845 18.6433 11.5245 17.8461C11.4972 17.7287 11.4459 17.6183 11.3737 17.5218C11.3014 17.4253 11.21 17.3448 11.1051 17.2855C11.0001 17.2262 10.884 17.1893 10.7641 17.1772C10.6442 17.1651 10.5231 17.1781 10.4084 17.2153C10.2938 17.2524 10.1881 17.313 10.0981 17.3932C10.008 17.4733 9.93565 17.5713 9.88548 17.6809C9.8353 17.7905 9.80844 17.9093 9.80658 18.0298C9.80473 18.1503 9.82793 18.2699 9.8747 18.381C10.358 19.8627 11.7914 21.1954 13.6004 21.5265V22.7593C13.5988 22.8746 13.6201 22.9891 13.6631 23.0961C13.7061 23.2032 13.7699 23.3006 13.8509 23.3827C13.9319 23.4648 14.0283 23.53 14.1347 23.5745C14.2411 23.619 14.3553 23.642 14.4706 23.642C14.586 23.642 14.7001 23.619 14.8065 23.5745C14.9129 23.53 15.0094 23.4648 15.0904 23.3827C15.1713 23.3006 15.2352 23.2032 15.2782 23.0961C15.3212 22.9891 15.3425 22.8746 15.3409 22.7593V21.5628C16.1726 21.4758 16.9565 21.2405 17.6252 20.7832C18.5233 20.1691 19.1119 19.0808 19.1119 17.7645C19.1119 16.5212 18.3836 15.5514 17.5165 14.9635C16.6493 14.3755 15.6258 14.0498 14.6973 13.7941C13.8325 13.556 12.9738 13.2469 12.4038 12.8604C11.8338 12.474 11.5698 12.1319 11.5698 11.5007C11.5698 10.6328 11.8283 10.2425 12.295 9.92336C12.7618 9.60418 13.5372 9.41573 14.4706 9.41573C15.7922 9.41573 17.1567 10.6219 17.4167 11.4191C17.444 11.5365 17.4954 11.6469 17.5676 11.7434C17.6398 11.8399 17.7313 11.9204 17.8362 11.9797C17.9411 12.039 18.0572 12.0759 18.1772 12.088C18.2971 12.1001 18.4182 12.0871 18.5328 12.0499C18.6475 12.0128 18.7532 11.9522 18.8432 11.872C18.9332 11.7919 19.0056 11.6939 19.0558 11.5843C19.106 11.4748 19.1328 11.3559 19.1347 11.2354C19.1365 11.1149 19.1133 10.9953 19.0666 10.8842C18.5833 9.40259 17.1499 8.08615 15.3409 7.75684V6.51494C15.3433 6.39838 15.3223 6.28252 15.2791 6.17424C15.2358 6.06596 15.1713 5.96747 15.0893 5.88461C15.0073 5.80175 14.9094 5.73621 14.8016 5.69188C14.6938 5.64756 14.5781 5.62535 14.4616 5.62658Z" fill="#000000" stroke="#000000" stroke-width="0.4"/>
</svg>
