<svg width="17" height="17" viewBox="0 0 17 17" fill="none" xmlns="http://www.w3.org/2000/svg">
<path d="M2.53477 0.417268L8.50016 6.38266L14.4346 0.448177C14.5657 0.308651 14.7236 0.197035 14.8989 0.120022C15.0742 0.0430093 15.2632 0.00218578 15.4546 0C15.8645 0 16.2576 0.162822 16.5474 0.452648C16.8372 0.742474 17.0001 1.13556 17.0001 1.54544C17.0037 1.73491 16.9685 1.92312 16.8968 2.09852C16.825 2.27392 16.7182 2.43281 16.5828 2.56543L10.571 8.49991L16.5828 14.5117C16.8375 14.7609 16.9869 15.0983 17.0001 15.4544C17.0001 15.8643 16.8372 16.2573 16.5474 16.5472C16.2576 16.837 15.8645 16.9998 15.4546 16.9998C15.2577 17.008 15.0612 16.9751 14.8776 16.9033C14.694 16.8315 14.5274 16.7222 14.3883 16.5826L8.50016 10.6172L2.55022 16.5671C2.41964 16.702 2.26365 16.8097 2.09123 16.8839C1.91882 16.9582 1.73341 16.9976 1.54569 16.9998C1.13581 16.9998 0.742726 16.837 0.4529 16.5472C0.163074 16.2573 0.000251453 15.8643 0.000251453 15.4544C-0.00335173 15.2649 0.0318022 15.0767 0.103556 14.9013C0.17531 14.7259 0.28215 14.567 0.41752 14.4344L6.42927 8.49991L0.41752 2.48816C0.162808 2.23897 0.0134489 1.90153 0.000251453 1.54544C0.000251453 1.13556 0.163074 0.742474 0.4529 0.452648C0.742726 0.162822 1.13581 0 1.54569 0C1.91659 0.00463632 2.27205 0.154544 2.53477 0.417268Z" fill="#939393"/>
</svg>
