<svg width="16" height="15" viewBox="0 0 16 15" fill="none" xmlns="http://www.w3.org/2000/svg">
<path d="M14.2153 1.28468C13.9666 1.03591 13.6713 0.83857 13.3463 0.703933C13.0213 0.569297 12.6729 0.5 12.3211 0.5C11.9693 0.5 11.621 0.569297 11.296 0.703933C10.971 0.83857 10.6757 1.03591 10.4269 1.28468L9.65722 2.05579C9.61873 2.08657 9.58355 2.12127 9.55226 2.15935L1.91112 9.8019C1.81342 9.89935 1.74671 10.0235 1.71939 10.1588L1.01405 13.6575C0.991043 13.7705 0.996354 13.8875 1.02951 13.9981C1.06267 14.1086 1.12265 14.2092 1.20411 14.2909C1.28557 14.3727 1.38597 14.433 1.49639 14.4665C1.6068 14.5001 1.72379 14.5058 1.83695 14.4831L5.34124 13.7834C5.4765 13.7561 5.60065 13.6894 5.6981 13.5917L14.2153 5.07446C14.4641 4.82573 14.6614 4.53042 14.7961 4.20542C14.9307 3.88041 15 3.53206 15 3.18027C15 2.82848 14.9307 2.48013 14.7961 2.15513C14.6614 1.83012 14.4641 1.53482 14.2153 1.28608M10.0995 3.59382L11.909 5.40334L4.85842 12.4525L2.59406 12.9059L3.04889 10.6444L10.0995 3.59382ZM12.8984 4.41391L11.0889 2.60299L11.4164 2.27551C11.5346 2.15437 11.6756 2.0579 11.8314 1.99167C11.9872 1.92545 12.1545 1.8908 12.3238 1.88973C12.493 1.88866 12.6608 1.92119 12.8174 1.98544C12.974 2.04969 13.1163 2.14437 13.236 2.264C13.3557 2.38364 13.4505 2.52585 13.5149 2.68238C13.5792 2.83892 13.6119 3.00668 13.611 3.17593C13.61 3.34518 13.5755 3.51256 13.5094 3.66838C13.4433 3.82419 13.3469 3.96534 13.2259 4.08363L12.8984 4.41391Z" fill="#606060"/>
<path d="M14.2153 1.28468C13.9666 1.03591 13.6713 0.83857 13.3463 0.703933C13.0213 0.569297 12.6729 0.5 12.3211 0.5C11.9693 0.5 11.621 0.569297 11.296 0.703933C10.971 0.83857 10.6757 1.03591 10.4269 1.28468L9.65722 2.05579C9.61873 2.08657 9.58355 2.12127 9.55226 2.15935L1.91112 9.8019C1.81342 9.89935 1.74671 10.0235 1.71939 10.1588L1.01405 13.6575C0.991043 13.7705 0.996354 13.8875 1.02951 13.9981C1.06267 14.1086 1.12265 14.2092 1.20411 14.2909C1.28557 14.3727 1.38597 14.433 1.49639 14.4665C1.6068 14.5001 1.72379 14.5058 1.83695 14.4831L5.34124 13.7834C5.4765 13.7561 5.60065 13.6894 5.6981 13.5917L14.2153 5.07446C14.4641 4.82573 14.6614 4.53042 14.7961 4.20542C14.9307 3.88041 15 3.53206 15 3.18027C15 2.82848 14.9307 2.48013 14.7961 2.15513C14.6614 1.83012 14.4641 1.53482 14.2153 1.28608M10.0995 3.59382L11.909 5.40334L4.85842 12.4525L2.59406 12.9059L3.04889 10.6444L10.0995 3.59382ZM12.8984 4.41391L11.0889 2.60299L11.4164 2.27551C11.5346 2.15437 11.6756 2.0579 11.8314 1.99167C11.9872 1.92545 12.1545 1.8908 12.3238 1.88973C12.493 1.88866 12.6608 1.92119 12.8174 1.98544C12.974 2.04969 13.1163 2.14437 13.236 2.264C13.3557 2.38364 13.4505 2.52585 13.5149 2.68238C13.5792 2.83892 13.6119 3.00668 13.611 3.17593C13.61 3.34518 13.5755 3.51256 13.5094 3.66838C13.4433 3.82419 13.3469 3.96534 13.2259 4.08363L12.8984 4.41391Z" stroke="#606060" stroke-width="0.2"/>
</svg>
