<svg width="63" height="63" viewBox="0 0 63 63" fill="none" xmlns="http://www.w3.org/2000/svg">
<circle cx="31.1953" cy="31.2397" r="31" fill="#720C20"/>
<path d="M39.4797 35.8199C39.1135 35.9279 38.576 35.9401 37.9994 35.8565C37.3808 35.7667 36.7497 35.5776 36.1296 35.299C37.2355 35.1381 38.0936 35.1876 38.8273 35.4477C39.0014 35.5094 39.2869 35.674 39.4797 35.8199ZM33.3091 34.8053C33.264 34.8175 33.2199 34.8291 33.1757 34.8413C32.878 34.9224 32.5885 35.0013 32.3096 35.0717L31.9333 35.1672C31.1764 35.3588 30.4025 35.5544 29.6384 35.7873C29.9289 35.0868 30.1988 34.3787 30.463 33.6862C30.6586 33.1738 30.8583 32.6501 31.0649 32.1332C31.1698 32.3064 31.2791 32.4795 31.393 32.6532C31.9114 33.443 32.5631 34.1733 33.3091 34.8053ZM31.3839 26.9064C31.4331 27.7707 31.2465 28.6022 30.9729 29.3998C30.6361 28.4134 30.4789 27.3244 30.9003 26.445C31.0083 26.2196 31.0969 26.0991 31.1541 26.0362C31.2427 26.1733 31.3595 26.4795 31.3839 26.9064ZM27.4328 37.8553C27.2434 38.194 27.0502 38.5111 26.8521 38.8103C26.3741 39.5306 25.5924 40.302 25.1908 40.302C25.1513 40.302 25.1034 40.2957 25.0336 40.2218C24.9886 40.1746 24.9814 40.1408 24.9835 40.0947C24.997 39.8299 25.3479 39.3582 25.8563 38.9208C26.3177 38.5239 26.8392 38.1714 27.4328 37.8553ZM40.7588 35.8571C40.6974 34.975 39.2124 34.409 39.1977 34.4037C38.6236 34.2002 38 34.1013 37.2913 34.1013C36.5325 34.1013 35.7145 34.2112 34.6639 34.4566C33.7292 33.7939 32.9216 32.9644 32.3183 32.0459C32.0519 31.6402 31.8125 31.2351 31.6037 30.8395C32.1133 29.6208 32.5722 28.3104 32.4889 26.8429C32.4216 25.6662 31.891 24.8758 31.1695 24.8758C30.6746 24.8758 30.2482 25.2423 29.9017 25.9664C29.2834 27.2567 29.4459 28.9077 30.3844 30.8776C30.0463 31.6715 29.7323 32.4945 29.4284 33.2915C29.0502 34.2822 28.6605 35.3043 28.2213 36.2766C26.9895 36.764 25.9778 37.355 25.1344 38.0807C24.5819 38.5552 23.9161 39.2805 23.8779 40.0378C23.8594 40.3943 23.9815 40.7214 24.2301 40.9835C24.494 41.2617 24.8258 41.4082 25.1905 41.4086C26.395 41.4086 27.5542 39.7535 27.774 39.4217C28.2166 38.7546 28.6307 38.0105 29.0368 37.1522C30.0591 36.7828 31.1488 36.507 32.2047 36.2403L32.5829 36.1442C32.8671 36.0719 33.1626 35.9921 33.4656 35.9091C33.7865 35.8224 34.1164 35.7326 34.4517 35.6471C35.5361 36.3367 36.7021 36.7866 37.8394 36.9515C38.7973 37.0908 39.6481 37.0101 40.2238 36.7099C40.7422 36.44 40.771 36.0237 40.7588 35.8571ZM43.0915 43.4427C43.0915 45.0583 41.6675 45.1578 41.3802 45.1613H23.0089C21.3993 45.1613 21.3022 43.7275 21.2991 43.4427V19.036C21.2991 17.4189 22.7256 17.3209 23.0089 17.3175H35.4193L35.4259 17.324V22.167C35.4259 23.139 36.0134 24.9791 38.2388 24.9791H43.0502L43.0915 25.0204V43.4427ZM41.9508 23.875H38.2391C36.6298 23.875 36.5325 22.4491 36.5303 22.167V18.4322L41.9508 23.875ZM44.1953 43.4427V24.5646L36.5303 16.8676V16.8319H36.4936L35.8782 16.2134H23.0089C22.0357 16.2134 20.1953 16.8035 20.1953 19.036V43.443C20.1953 44.419 20.7835 46.2653 23.0089 46.2653H41.382C42.355 46.265 44.1953 45.6753 44.1953 43.4427Z" fill="white" stroke="white" stroke-width="0.332173"/>
</svg>
