<svg width="63" height="62" viewBox="0 0 63 62" fill="none" xmlns="http://www.w3.org/2000/svg">
<circle cx="31.4219" cy="31" r="31" fill="#D9D9D9"/>
<mask id="path-2-inside-1_1303_1001" fill="white">
<path d="M31.0617 13.0476C29.2403 13.0476 27.74 14.5479 27.74 16.3693C27.74 18.1908 29.2403 19.6911 31.0617 19.6911C32.8832 19.6911 34.3835 18.1908 34.3835 16.3693C34.3835 14.5479 32.8832 13.0476 31.0617 13.0476ZM31.0617 19.6911C29.3918 19.6911 27.8654 19.9791 26.6443 20.6022C25.4232 21.2253 24.4183 22.3291 24.4183 23.7394V27.4417C24.4194 27.6823 24.4987 27.916 24.6444 28.1074C24.79 28.2989 24.9941 28.4377 25.2257 28.5029C26.8532 28.9662 28.4275 29.244 30.3005 29.2872C30.3082 29.2872 30.3159 29.2872 30.3236 29.2872H31.7999C31.8076 29.2872 31.8153 29.2872 31.823 29.2872C33.696 29.244 35.2703 28.9662 36.8978 28.5029C37.1294 28.4377 37.3335 28.2989 37.4791 28.1074C37.6248 27.916 37.7041 27.6823 37.7052 27.4417V23.7394C37.7052 22.3291 36.7003 21.2253 35.4792 20.6022C34.2581 19.9791 32.7317 19.6911 31.0617 19.6911ZM31.0617 15.2621C31.6864 15.2621 32.169 15.7447 32.169 16.3693C32.169 16.994 31.6864 17.4766 31.0617 17.4766C30.4371 17.4766 29.9545 16.994 29.9545 16.3693C29.9545 15.7447 30.4371 15.2621 31.0617 15.2621ZM31.0617 21.9055C32.4589 21.9055 33.6955 22.1764 34.4757 22.5745C35.256 22.9726 35.4907 23.3317 35.4907 23.7394V26.5536C34.3133 26.8405 33.1682 27.0395 31.7999 27.0727H31.7768H30.3467C30.3384 27.0725 30.3319 27.0729 30.3236 27.0727C28.9553 27.0396 27.8102 26.8405 26.6328 26.5536V23.7394C26.6328 23.3317 26.8675 22.9726 27.6478 22.5745C28.428 22.1764 29.6646 21.9055 31.0617 21.9055ZM31.0502 29.6332C30.9038 29.6347 30.7592 29.6652 30.6247 29.723C30.4902 29.7807 30.3684 29.8646 30.2665 29.9697C30.1646 30.0748 30.0846 30.1991 30.031 30.3353C29.9775 30.4716 29.9515 30.6171 29.9545 30.7635V33.8199L26.8058 35.7115C26.6755 35.783 26.561 35.8799 26.469 35.9966C26.3771 36.1133 26.3095 36.2473 26.2704 36.3906C26.2313 36.534 26.2214 36.6837 26.2414 36.831C26.2613 36.9782 26.3107 37.1199 26.3866 37.2476C26.4625 37.3754 26.5633 37.4866 26.683 37.5745C26.8027 37.6625 26.9389 37.7255 27.0835 37.7597C27.2281 37.794 27.3781 37.7987 27.5246 37.7738C27.671 37.7489 27.811 37.6947 27.9361 37.6145L31.0617 35.7345L34.1874 37.6145C34.3125 37.6947 34.4525 37.7489 34.5989 37.7738C34.7454 37.7987 34.8954 37.794 35.04 37.7597C35.1846 37.7255 35.3208 37.6625 35.4405 37.5745C35.5602 37.4866 35.661 37.3754 35.7369 37.2476C35.8128 37.1199 35.8622 36.9782 35.8821 36.831C35.9021 36.6837 35.8922 36.534 35.8531 36.3906C35.814 36.2473 35.7464 36.1133 35.6545 35.9966C35.5625 35.8799 35.448 35.783 35.3177 35.7115L32.169 33.8199V30.7635C32.1721 30.6152 32.1453 30.4678 32.0903 30.33C32.0354 30.1922 31.9532 30.0669 31.8489 29.9615C31.7445 29.856 31.6201 29.7727 31.4829 29.7163C31.3457 29.6599 31.1985 29.6316 31.0502 29.6332ZM21.0966 30.0253C19.2751 30.0253 17.7748 31.5256 17.7748 33.347C17.7748 35.1685 19.2751 36.6688 21.0966 36.6688C22.918 36.6688 24.4183 35.1685 24.4183 33.347C24.4183 31.5256 22.918 30.0253 21.0966 30.0253ZM21.0966 36.6688C19.4266 36.6688 17.9003 36.9568 16.6791 37.5799C15.458 38.2031 14.4531 39.3068 14.4531 40.7171V44.4195C14.4542 44.66 14.5335 44.8937 14.6792 45.0851C14.8249 45.2766 15.0289 45.4154 15.2605 45.4806C16.888 45.9439 18.4623 46.2217 20.3353 46.2649C20.343 46.2649 20.3507 46.2649 20.3584 46.2649H21.8347C21.8424 46.2649 21.8501 46.2649 21.8578 46.2649C23.7308 46.2217 25.3052 45.9439 26.9327 45.4806C27.1642 45.4154 27.3683 45.2766 27.5139 45.0851C27.6596 44.8937 27.739 44.66 27.74 44.4195V40.7171C27.74 39.3068 26.7351 38.2031 25.514 37.5799C24.2929 36.9568 22.7665 36.6688 21.0966 36.6688ZM41.0269 30.0253C39.2055 30.0253 37.7052 31.5256 37.7052 33.347C37.7052 35.1685 39.2055 36.6688 41.0269 36.6688C42.8483 36.6688 44.3486 35.1685 44.3486 33.347C44.3486 31.5256 42.8483 30.0253 41.0269 30.0253ZM41.0269 36.6688C39.357 36.6688 37.8306 36.9568 36.6095 37.5799C35.3884 38.2031 34.3835 39.3068 34.3835 40.7171V44.4195C34.3845 44.66 34.4639 44.8937 34.6096 45.0851C34.7552 45.2766 34.9593 45.4154 35.1908 45.4806C36.8183 45.9439 38.3927 46.2217 40.2657 46.2649C40.2734 46.2649 40.2811 46.2649 40.2888 46.2649H41.7651C41.7728 46.2649 41.7805 46.2649 41.7882 46.2649C43.6612 46.2217 45.2355 45.9439 46.863 45.4806C47.0946 45.4154 47.2986 45.2766 47.4443 45.0851C47.59 44.8937 47.6693 44.66 47.6704 44.4195V40.7171C47.6704 39.3068 46.6655 38.2031 45.4444 37.5799C44.2232 36.9568 42.6969 36.6688 41.0269 36.6688ZM21.0966 32.2398C21.7212 32.2398 22.2038 32.7224 22.2038 33.347C22.2038 33.9716 21.7212 34.4543 21.0966 34.4543C20.4719 34.4543 19.9893 33.9716 19.9893 33.347C19.9893 32.7224 20.4719 32.2398 21.0966 32.2398ZM41.0269 32.2398C41.6516 32.2398 42.1342 32.7224 42.1342 33.347C42.1342 33.9716 41.6516 34.4543 41.0269 34.4543C40.4023 34.4543 39.9197 33.9716 39.9197 33.347C39.9197 32.7224 40.4023 32.2398 41.0269 32.2398ZM21.0966 38.8832C22.4937 38.8832 23.7304 39.1541 24.5106 39.5522C25.2908 39.9503 25.5255 40.3094 25.5255 40.7171V43.5314C24.3482 43.8182 23.203 44.0173 21.8347 44.0504H21.8117H20.3815C20.3732 44.0502 20.3667 44.0506 20.3584 44.0504C18.9901 44.0172 17.845 43.8182 16.6676 43.5314V40.7171C16.6676 40.3094 16.9024 39.9503 17.6826 39.5522C18.4628 39.1541 19.6994 38.8832 21.0966 38.8832ZM41.0269 38.8832C42.424 38.8832 43.6607 39.1541 44.4409 39.5522C45.2211 39.9503 45.4559 40.3094 45.4559 40.7171V43.5314C44.2785 43.8182 43.1334 44.0173 41.7651 44.0504H41.742H40.3118C40.3035 44.0502 40.2971 44.0506 40.2888 44.0504C38.9205 44.0172 37.7753 43.8182 36.598 43.5314V40.7171C36.598 40.3094 36.8327 39.9503 37.6129 39.5522C38.3931 39.1541 39.6298 38.8832 41.0269 38.8832Z"/>
</mask>
<path d="M31.0617 13.0476C29.2403 13.0476 27.74 14.5479 27.74 16.3693C27.74 18.1908 29.2403 19.6911 31.0617 19.6911C32.8832 19.6911 34.3835 18.1908 34.3835 16.3693C34.3835 14.5479 32.8832 13.0476 31.0617 13.0476ZM31.0617 19.6911C29.3918 19.6911 27.8654 19.9791 26.6443 20.6022C25.4232 21.2253 24.4183 22.3291 24.4183 23.7394V27.4417C24.4194 27.6823 24.4987 27.916 24.6444 28.1074C24.79 28.2989 24.9941 28.4377 25.2257 28.5029C26.8532 28.9662 28.4275 29.244 30.3005 29.2872C30.3082 29.2872 30.3159 29.2872 30.3236 29.2872H31.7999C31.8076 29.2872 31.8153 29.2872 31.823 29.2872C33.696 29.244 35.2703 28.9662 36.8978 28.5029C37.1294 28.4377 37.3335 28.2989 37.4791 28.1074C37.6248 27.916 37.7041 27.6823 37.7052 27.4417V23.7394C37.7052 22.3291 36.7003 21.2253 35.4792 20.6022C34.2581 19.9791 32.7317 19.6911 31.0617 19.6911ZM31.0617 15.2621C31.6864 15.2621 32.169 15.7447 32.169 16.3693C32.169 16.994 31.6864 17.4766 31.0617 17.4766C30.4371 17.4766 29.9545 16.994 29.9545 16.3693C29.9545 15.7447 30.4371 15.2621 31.0617 15.2621ZM31.0617 21.9055C32.4589 21.9055 33.6955 22.1764 34.4757 22.5745C35.256 22.9726 35.4907 23.3317 35.4907 23.7394V26.5536C34.3133 26.8405 33.1682 27.0395 31.7999 27.0727H31.7768H30.3467C30.3384 27.0725 30.3319 27.0729 30.3236 27.0727C28.9553 27.0396 27.8102 26.8405 26.6328 26.5536V23.7394C26.6328 23.3317 26.8675 22.9726 27.6478 22.5745C28.428 22.1764 29.6646 21.9055 31.0617 21.9055ZM31.0502 29.6332C30.9038 29.6347 30.7592 29.6652 30.6247 29.723C30.4902 29.7807 30.3684 29.8646 30.2665 29.9697C30.1646 30.0748 30.0846 30.1991 30.031 30.3353C29.9775 30.4716 29.9515 30.6171 29.9545 30.7635V33.8199L26.8058 35.7115C26.6755 35.783 26.561 35.8799 26.469 35.9966C26.3771 36.1133 26.3095 36.2473 26.2704 36.3906C26.2313 36.534 26.2214 36.6837 26.2414 36.831C26.2613 36.9782 26.3107 37.1199 26.3866 37.2476C26.4625 37.3754 26.5633 37.4866 26.683 37.5745C26.8027 37.6625 26.9389 37.7255 27.0835 37.7597C27.2281 37.794 27.3781 37.7987 27.5246 37.7738C27.671 37.7489 27.811 37.6947 27.9361 37.6145L31.0617 35.7345L34.1874 37.6145C34.3125 37.6947 34.4525 37.7489 34.5989 37.7738C34.7454 37.7987 34.8954 37.794 35.04 37.7597C35.1846 37.7255 35.3208 37.6625 35.4405 37.5745C35.5602 37.4866 35.661 37.3754 35.7369 37.2476C35.8128 37.1199 35.8622 36.9782 35.8821 36.831C35.9021 36.6837 35.8922 36.534 35.8531 36.3906C35.814 36.2473 35.7464 36.1133 35.6545 35.9966C35.5625 35.8799 35.448 35.783 35.3177 35.7115L32.169 33.8199V30.7635C32.1721 30.6152 32.1453 30.4678 32.0903 30.33C32.0354 30.1922 31.9532 30.0669 31.8489 29.9615C31.7445 29.856 31.6201 29.7727 31.4829 29.7163C31.3457 29.6599 31.1985 29.6316 31.0502 29.6332ZM21.0966 30.0253C19.2751 30.0253 17.7748 31.5256 17.7748 33.347C17.7748 35.1685 19.2751 36.6688 21.0966 36.6688C22.918 36.6688 24.4183 35.1685 24.4183 33.347C24.4183 31.5256 22.918 30.0253 21.0966 30.0253ZM21.0966 36.6688C19.4266 36.6688 17.9003 36.9568 16.6791 37.5799C15.458 38.2031 14.4531 39.3068 14.4531 40.7171V44.4195C14.4542 44.66 14.5335 44.8937 14.6792 45.0851C14.8249 45.2766 15.0289 45.4154 15.2605 45.4806C16.888 45.9439 18.4623 46.2217 20.3353 46.2649C20.343 46.2649 20.3507 46.2649 20.3584 46.2649H21.8347C21.8424 46.2649 21.8501 46.2649 21.8578 46.2649C23.7308 46.2217 25.3052 45.9439 26.9327 45.4806C27.1642 45.4154 27.3683 45.2766 27.5139 45.0851C27.6596 44.8937 27.739 44.66 27.74 44.4195V40.7171C27.74 39.3068 26.7351 38.2031 25.514 37.5799C24.2929 36.9568 22.7665 36.6688 21.0966 36.6688ZM41.0269 30.0253C39.2055 30.0253 37.7052 31.5256 37.7052 33.347C37.7052 35.1685 39.2055 36.6688 41.0269 36.6688C42.8483 36.6688 44.3486 35.1685 44.3486 33.347C44.3486 31.5256 42.8483 30.0253 41.0269 30.0253ZM41.0269 36.6688C39.357 36.6688 37.8306 36.9568 36.6095 37.5799C35.3884 38.2031 34.3835 39.3068 34.3835 40.7171V44.4195C34.3845 44.66 34.4639 44.8937 34.6096 45.0851C34.7552 45.2766 34.9593 45.4154 35.1908 45.4806C36.8183 45.9439 38.3927 46.2217 40.2657 46.2649C40.2734 46.2649 40.2811 46.2649 40.2888 46.2649H41.7651C41.7728 46.2649 41.7805 46.2649 41.7882 46.2649C43.6612 46.2217 45.2355 45.9439 46.863 45.4806C47.0946 45.4154 47.2986 45.2766 47.4443 45.0851C47.59 44.8937 47.6693 44.66 47.6704 44.4195V40.7171C47.6704 39.3068 46.6655 38.2031 45.4444 37.5799C44.2232 36.9568 42.6969 36.6688 41.0269 36.6688ZM21.0966 32.2398C21.7212 32.2398 22.2038 32.7224 22.2038 33.347C22.2038 33.9716 21.7212 34.4543 21.0966 34.4543C20.4719 34.4543 19.9893 33.9716 19.9893 33.347C19.9893 32.7224 20.4719 32.2398 21.0966 32.2398ZM41.0269 32.2398C41.6516 32.2398 42.1342 32.7224 42.1342 33.347C42.1342 33.9716 41.6516 34.4543 41.0269 34.4543C40.4023 34.4543 39.9197 33.9716 39.9197 33.347C39.9197 32.7224 40.4023 32.2398 41.0269 32.2398ZM21.0966 38.8832C22.4937 38.8832 23.7304 39.1541 24.5106 39.5522C25.2908 39.9503 25.5255 40.3094 25.5255 40.7171V43.5314C24.3482 43.8182 23.203 44.0173 21.8347 44.0504H21.8117H20.3815C20.3732 44.0502 20.3667 44.0506 20.3584 44.0504C18.9901 44.0172 17.845 43.8182 16.6676 43.5314V40.7171C16.6676 40.3094 16.9024 39.9503 17.6826 39.5522C18.4628 39.1541 19.6994 38.8832 21.0966 38.8832ZM41.0269 38.8832C42.424 38.8832 43.6607 39.1541 44.4409 39.5522C45.2211 39.9503 45.4559 40.3094 45.4559 40.7171V43.5314C44.2785 43.8182 43.1334 44.0173 41.7651 44.0504H41.742H40.3118C40.3035 44.0502 40.2971 44.0506 40.2888 44.0504C38.9205 44.0172 37.7753 43.8182 36.598 43.5314V40.7171C36.598 40.3094 36.8327 39.9503 37.6129 39.5522C38.3931 39.1541 39.6298 38.8832 41.0269 38.8832Z" fill="#6A6A6A"/>
<path d="M24.4183 27.4417H24.2522L24.2522 27.4425L24.4183 27.4417ZM25.2257 28.5029L25.2711 28.3431L25.2707 28.343L25.2257 28.5029ZM30.3005 29.2872L30.2967 29.4532L30.2988 29.4532L30.3005 29.2872ZM30.3236 29.2872V29.1211L30.3219 29.1211L30.3236 29.2872ZM31.7999 29.2872L31.8016 29.1211H31.7999V29.2872ZM31.823 29.2872L31.8247 29.4532L31.8268 29.4532L31.823 29.2872ZM36.8978 28.5029L36.8528 28.343L36.8524 28.3431L36.8978 28.5029ZM37.7052 27.4417L37.8713 27.4425V27.4417H37.7052ZM35.4907 26.5536L35.53 26.715L35.6568 26.6841V26.5536H35.4907ZM31.7999 27.0727V27.2388L31.8039 27.2387L31.7999 27.0727ZM30.3467 27.0727L30.3428 27.2388H30.3467V27.0727ZM30.3236 27.0727L30.3196 27.2387L30.3196 27.2387L30.3236 27.0727ZM26.6328 26.5536H26.4667V26.6841L26.5935 26.715L26.6328 26.5536ZM31.0502 29.6332L31.0519 29.7992L31.052 29.7992L31.0502 29.6332ZM29.9545 30.7635H30.1206L30.1206 30.76L29.9545 30.7635ZM29.9545 33.8199L30.04 33.9623L30.1206 33.9139V33.8199H29.9545ZM26.8058 35.7115L26.8858 35.8572L26.8913 35.8538L26.8058 35.7115ZM27.9361 37.6145L27.8505 37.4722L27.8465 37.4747L27.9361 37.6145ZM31.0617 35.7345L31.1474 35.5922L31.0617 35.5407L30.9761 35.5922L31.0617 35.7345ZM34.1874 37.6145L34.277 37.4746L34.273 37.4722L34.1874 37.6145ZM35.3177 35.7115L35.2321 35.8539L35.2378 35.8571L35.3177 35.7115ZM32.169 33.8199H32.0029V33.9139L32.0835 33.9623L32.169 33.8199ZM32.169 30.7635L32.0029 30.76V30.7635H32.169ZM16.6791 37.5799L16.7546 37.7279L16.7546 37.7279L16.6791 37.5799ZM14.4531 44.4195H14.287L14.287 44.4202L14.4531 44.4195ZM14.6792 45.0851L14.8114 44.9846L14.6792 45.0851ZM15.2605 45.4806L15.306 45.3208L15.3055 45.3207L15.2605 45.4806ZM20.3353 46.2649L20.3315 46.4309L20.3336 46.4309L20.3353 46.2649ZM20.3584 46.2649L20.3584 46.0988L20.3567 46.0988L20.3584 46.2649ZM21.8347 46.2649L21.8365 46.0988H21.8347V46.2649ZM21.8578 46.2649L21.8595 46.4309L21.8616 46.4309L21.8578 46.2649ZM26.9327 45.4806L26.8877 45.3207L26.8872 45.3208L26.9327 45.4806ZM27.5139 45.0851L27.3818 44.9846L27.5139 45.0851ZM27.74 44.4195L27.9061 44.4202V44.4195H27.74ZM25.514 37.5799L25.4385 37.7279L25.4385 37.7279L25.514 37.5799ZM36.6095 37.5799L36.685 37.7279L36.685 37.7279L36.6095 37.5799ZM34.3835 44.4195H34.2174L34.2174 44.4202L34.3835 44.4195ZM34.6096 45.0851L34.7417 44.9846L34.6096 45.0851ZM35.1908 45.4806L35.2363 45.3208L35.2358 45.3207L35.1908 45.4806ZM40.2657 46.2649L40.2619 46.4309L40.264 46.4309L40.2657 46.2649ZM40.2888 46.2649V46.0988L40.287 46.0988L40.2888 46.2649ZM41.7651 46.2649L41.7668 46.0988H41.7651V46.2649ZM41.7882 46.2649L41.7899 46.4309L41.792 46.4309L41.7882 46.2649ZM46.863 45.4806L46.818 45.3207L46.8175 45.3208L46.863 45.4806ZM47.4443 45.0851L47.3121 44.9846L47.4443 45.0851ZM47.6704 44.4195L47.8365 44.4202V44.4195H47.6704ZM45.4444 37.5799L45.3689 37.7279L45.3689 37.7279L45.4444 37.5799ZM25.5255 43.5314L25.5649 43.6927L25.6916 43.6618V43.5314H25.5255ZM21.8347 44.0504V44.2165L21.8388 44.2164L21.8347 44.0504ZM20.3815 44.0504L20.3778 44.2165H20.3815V44.0504ZM20.3584 44.0504L20.3544 44.2164L20.3547 44.2164L20.3584 44.0504ZM16.6676 43.5314H16.5015V43.6618L16.6283 43.6927L16.6676 43.5314ZM45.4559 43.5314L45.4952 43.6927L45.622 43.6618V43.5314H45.4559ZM41.7651 44.0504V44.2165L41.7691 44.2164L41.7651 44.0504ZM40.3118 44.0504L40.3081 44.2165H40.3118V44.0504ZM40.2888 44.0504L40.2847 44.2164L40.2851 44.2164L40.2888 44.0504ZM36.598 43.5314H36.4319V43.6618L36.5586 43.6927L36.598 43.5314ZM31.0617 12.8815C29.1486 12.8815 27.5739 14.4562 27.5739 16.3693H27.9061C27.9061 14.6396 29.332 13.2137 31.0617 13.2137V12.8815ZM27.5739 16.3693C27.5739 18.2825 29.1486 19.8571 31.0617 19.8571V19.525C29.332 19.525 27.9061 18.099 27.9061 16.3693H27.5739ZM31.0617 19.8571C32.9749 19.8571 34.5496 18.2825 34.5496 16.3693H34.2174C34.2174 18.099 32.7914 19.525 31.0617 19.525V19.8571ZM34.5496 16.3693C34.5496 14.4562 32.9749 12.8815 31.0617 12.8815V13.2137C32.7914 13.2137 34.2174 14.6396 34.2174 16.3693H34.5496ZM31.0617 19.525C29.3746 19.525 27.8202 19.8157 26.5688 20.4543L26.7198 20.7502C27.9107 20.1425 29.409 19.8571 31.0617 19.8571V19.525ZM26.5688 20.4543C25.3175 21.0928 24.2522 22.2426 24.2522 23.7394H24.5844C24.5844 22.4157 25.5289 21.3579 26.7198 20.7502L26.5688 20.4543ZM24.2522 23.7394V27.4417H24.5844V23.7394H24.2522ZM24.2522 27.4425C24.2534 27.7191 24.3447 27.9878 24.5122 28.208L24.7766 28.0069C24.6527 27.8441 24.5853 27.6455 24.5844 27.441L24.2522 27.4425ZM24.5122 28.208C24.6797 28.4282 24.9144 28.5878 25.1807 28.6627L25.2707 28.343C25.0738 28.2876 24.9004 28.1696 24.7766 28.0069L24.5122 28.208ZM25.1802 28.6626C26.8194 29.1292 28.4078 29.4097 30.2967 29.4532L30.3043 29.1211C28.4472 29.0783 26.8869 28.8031 25.2711 28.3431L25.1802 28.6626ZM30.2988 29.4532C30.3076 29.4533 30.3165 29.4533 30.3253 29.4532L30.3219 29.1211C30.3153 29.1211 30.3088 29.1211 30.3022 29.1211L30.2988 29.4532ZM30.3236 29.4532H31.7999V29.1211H30.3236V29.4532ZM31.7982 29.4532C31.807 29.4533 31.8159 29.4533 31.8247 29.4532L31.8212 29.1211C31.8147 29.1211 31.8082 29.1211 31.8016 29.1211L31.7982 29.4532ZM31.8268 29.4532C33.7157 29.4097 35.3041 29.1292 36.9433 28.6626L36.8524 28.3431C35.2366 28.8031 33.6763 29.0783 31.8192 29.1211L31.8268 29.4532ZM36.9428 28.6627C37.2091 28.5878 37.4438 28.4282 37.6113 28.208L37.3469 28.0069C37.2231 28.1696 37.0497 28.2876 36.8528 28.343L36.9428 28.6627ZM37.6113 28.208C37.7788 27.9878 37.8701 27.7191 37.8713 27.4425L37.5391 27.441C37.5382 27.6455 37.4708 27.8441 37.3469 28.0069L37.6113 28.208ZM37.8713 27.4417V23.7394H37.5391V27.4417H37.8713ZM37.8713 23.7394C37.8713 22.2426 36.806 21.0928 35.5547 20.4543L35.4037 20.7502C36.5946 21.3579 37.5391 22.4157 37.5391 23.7394H37.8713ZM35.5547 20.4543C34.3033 19.8157 32.7489 19.525 31.0617 19.525V19.8571C32.7145 19.8571 34.2128 20.1425 35.4037 20.7502L35.5547 20.4543ZM31.0617 15.4282C31.5947 15.4282 32.0029 15.8364 32.0029 16.3693H32.3351C32.3351 15.653 31.7781 15.096 31.0617 15.096V15.4282ZM32.0029 16.3693C32.0029 16.9022 31.5947 17.3105 31.0617 17.3105V17.6427C31.7781 17.6427 32.3351 17.0857 32.3351 16.3693H32.0029ZM31.0617 17.3105C30.5288 17.3105 30.1206 16.9022 30.1206 16.3693H29.7884C29.7884 17.0857 30.3454 17.6427 31.0617 17.6427V17.3105ZM30.1206 16.3693C30.1206 15.8364 30.5288 15.4282 31.0617 15.4282V15.096C30.3454 15.096 29.7884 15.653 29.7884 16.3693H30.1206ZM31.0617 22.0716C32.4416 22.0716 33.6503 22.3397 34.4003 22.7224L34.5512 22.4266C33.7408 22.013 32.4762 21.7395 31.0617 21.7395V22.0716ZM34.4003 22.7224C34.7807 22.9166 35.0118 23.0933 35.1474 23.2587C35.2785 23.4185 35.3246 23.5727 35.3246 23.7394H35.6568C35.6568 23.4984 35.5856 23.2692 35.4042 23.048C35.2274 22.8324 34.951 22.6305 34.5512 22.4266L34.4003 22.7224ZM35.3246 23.7394V26.5536H35.6568V23.7394H35.3246ZM35.4514 26.3923C34.2819 26.6773 33.149 26.8739 31.7959 26.9066L31.8039 27.2387C33.1874 27.2052 34.3448 27.0038 35.53 26.715L35.4514 26.3923ZM31.7999 26.9066H31.7768V27.2388H31.7999V26.9066ZM31.7768 26.9066H30.3467V27.2388H31.7768V26.9066ZM30.3505 26.9066C30.3429 26.9065 30.3363 26.9066 30.3329 26.9066C30.329 26.9067 30.3282 26.9066 30.3276 26.9066L30.3196 27.2387C30.3272 27.2389 30.3338 27.2388 30.3373 27.2387C30.3413 27.2387 30.3421 27.2387 30.3428 27.2387L30.3505 26.9066ZM30.3276 26.9066C28.9745 26.8739 27.8416 26.6773 26.6721 26.3923L26.5935 26.715C27.7787 27.0038 28.9361 27.2052 30.3196 27.2387L30.3276 26.9066ZM26.7989 26.5536V23.7394H26.4667V26.5536H26.7989ZM26.7989 23.7394C26.7989 23.5727 26.845 23.4185 26.9761 23.2587C27.1117 23.0933 27.3427 22.9166 27.7232 22.7224L27.5723 22.4266C27.1725 22.6305 26.8961 22.8324 26.7193 23.048C26.5379 23.2692 26.4667 23.4984 26.4667 23.7394H26.7989ZM27.7232 22.7224C28.4732 22.3397 29.6819 22.0716 31.0617 22.0716V21.7395C29.6473 21.7395 28.3827 22.013 27.5723 22.4266L27.7232 22.7224ZM31.0485 29.4671C30.8802 29.4688 30.7138 29.5039 30.5591 29.5703L30.6902 29.8756C30.8045 29.8265 30.9275 29.8005 31.0519 29.7992L31.0485 29.4671ZM30.5591 29.5703C30.4044 29.6368 30.2645 29.7332 30.1473 29.8541L30.3858 30.0853C30.4724 29.996 30.5759 29.9247 30.6902 29.8756L30.5591 29.5703ZM30.1473 29.8541C30.0301 29.975 29.938 30.1179 29.8765 30.2746L30.1856 30.3961C30.2311 30.2803 30.2992 30.1747 30.3858 30.0853L30.1473 29.8541ZM29.8765 30.2746C29.8149 30.4313 29.785 30.5986 29.7885 30.7669L30.1206 30.76C30.118 30.6356 30.1401 30.5119 30.1856 30.3961L29.8765 30.2746ZM29.7884 30.7635V33.8199H30.1206V30.7635H29.7884ZM29.869 33.6776L26.7203 35.5691L26.8913 35.8538L30.04 33.9623L29.869 33.6776ZM26.7259 35.5659C26.5761 35.6481 26.4444 35.7596 26.3386 35.8938L26.5995 36.0994C26.6777 36.0003 26.775 35.9178 26.8857 35.8571L26.7259 35.5659ZM26.3386 35.8938C26.2328 36.028 26.1551 36.1821 26.1101 36.3469L26.4306 36.4344C26.4639 36.3125 26.5213 36.1986 26.5995 36.0994L26.3386 35.8938ZM26.1101 36.3469C26.0652 36.5118 26.0538 36.684 26.0768 36.8533L26.4059 36.8086C26.389 36.6835 26.3974 36.5562 26.4306 36.4344L26.1101 36.3469ZM26.0768 36.8533C26.0997 37.0226 26.1565 37.1856 26.2438 37.3325L26.5294 37.1628C26.4649 37.0542 26.4229 36.9338 26.4059 36.8086L26.0768 36.8533ZM26.2438 37.3325C26.331 37.4794 26.447 37.6072 26.5847 37.7084L26.7813 37.4407C26.6796 37.3659 26.5939 37.2714 26.5294 37.1628L26.2438 37.3325ZM26.5847 37.7084C26.7223 37.8096 26.879 37.882 27.0453 37.9213L27.1218 37.5981C26.9989 37.569 26.8831 37.5155 26.7813 37.4407L26.5847 37.7084ZM27.0453 37.9213C27.2115 37.9607 27.384 37.9662 27.5525 37.9375L27.4967 37.6101C27.3722 37.6313 27.2447 37.6272 27.1218 37.5981L27.0453 37.9213ZM27.5525 37.9375C27.7209 37.9088 27.8818 37.8466 28.0257 37.7544L27.8465 37.4747C27.7402 37.5428 27.6212 37.5889 27.4967 37.6101L27.5525 37.9375ZM28.0217 37.7569L31.1474 35.8769L30.9761 35.5922L27.8505 37.4722L28.0217 37.7569ZM30.9761 35.8769L34.1018 37.7569L34.273 37.4722L31.1474 35.5922L30.9761 35.8769ZM34.0978 37.7544C34.2417 37.8466 34.4026 37.9088 34.571 37.9375L34.6268 37.6101C34.5023 37.5889 34.3833 37.5428 34.277 37.4747L34.0978 37.7544ZM34.571 37.9375C34.7395 37.9662 34.912 37.9607 35.0782 37.9213L35.0017 37.5981C34.8788 37.6272 34.7513 37.6313 34.6268 37.6101L34.571 37.9375ZM35.0782 37.9213C35.2445 37.882 35.4011 37.8096 35.5388 37.7084L35.3422 37.4407C35.2404 37.5155 35.1246 37.569 35.0017 37.5981L35.0782 37.9213ZM35.5388 37.7084C35.6765 37.6072 35.7925 37.4794 35.8797 37.3325L35.5941 37.1628C35.5296 37.2714 35.4439 37.3659 35.3422 37.4407L35.5388 37.7084ZM35.8797 37.3325C35.967 37.1856 36.0238 37.0226 36.0467 36.8533L35.7176 36.8086C35.7006 36.9338 35.6586 37.0542 35.5941 37.1628L35.8797 37.3325ZM36.0467 36.8533C36.0697 36.684 36.0583 36.5118 36.0133 36.3469L35.6929 36.4344C35.7261 36.5562 35.7345 36.6835 35.7176 36.8086L36.0467 36.8533ZM36.0133 36.3469C35.9684 36.1821 35.8907 36.028 35.7849 35.8938L35.524 36.0994C35.6022 36.1986 35.6596 36.3125 35.6929 36.4344L36.0133 36.3469ZM35.7849 35.8938C35.6791 35.7596 35.5474 35.6481 35.3976 35.5659L35.2378 35.8571C35.3485 35.9178 35.4458 36.0003 35.524 36.0994L35.7849 35.8938ZM35.4032 35.5691L32.2545 33.6776L32.0835 33.9623L35.2322 35.8538L35.4032 35.5691ZM32.3351 33.8199V30.7635H32.0029V33.8199H32.3351ZM32.335 30.7669C32.3386 30.5964 32.3078 30.4269 32.2446 30.2684L31.9361 30.3915C31.9828 30.5087 32.0056 30.634 32.0029 30.76L32.335 30.7669ZM32.2446 30.2684C32.1814 30.11 32.0869 29.9659 31.9669 29.8446L31.7309 30.0783C31.8196 30.1679 31.8893 30.2744 31.9361 30.3915L32.2446 30.2684ZM31.9669 29.8446C31.8469 29.7234 31.7038 29.6275 31.546 29.5626L31.4197 29.8699C31.5364 29.9178 31.6422 29.9887 31.7309 30.0783L31.9669 29.8446ZM31.546 29.5626C31.3882 29.4978 31.219 29.4653 31.0485 29.4671L31.052 29.7992C31.178 29.7979 31.3031 29.8219 31.4197 29.8699L31.546 29.5626ZM21.0966 29.8592C19.1834 29.8592 17.6088 31.4339 17.6088 33.347H17.9409C17.9409 31.6173 19.3669 30.1914 21.0966 30.1914V29.8592ZM17.6088 33.347C17.6088 35.2602 19.1834 36.8349 21.0966 36.8349V36.5027C19.3669 36.5027 17.9409 35.0767 17.9409 33.347H17.6088ZM21.0966 36.8349C23.0097 36.8349 24.5844 35.2602 24.5844 33.347H24.2522C24.2522 35.0767 22.8263 36.5027 21.0966 36.5027V36.8349ZM24.5844 33.347C24.5844 31.4339 23.0097 29.8592 21.0966 29.8592V30.1914C22.8263 30.1914 24.2522 31.6173 24.2522 33.347H24.5844ZM21.0966 36.5027C19.4094 36.5027 17.8551 36.7934 16.6036 37.432L16.7546 37.7279C17.9455 37.1202 19.4439 36.8349 21.0966 36.8349V36.5027ZM16.6037 37.432C15.3523 38.0705 14.287 39.2203 14.287 40.7171H14.6192C14.6192 39.3934 15.5637 38.3356 16.7546 37.7279L16.6037 37.432ZM14.287 40.7171V44.4195H14.6192V40.7171H14.287ZM14.287 44.4202C14.2882 44.6968 14.3795 44.9655 14.547 45.1857L14.8114 44.9846C14.6876 44.8218 14.6201 44.6232 14.6192 44.4187L14.287 44.4202ZM14.547 45.1857C14.7145 45.4059 14.9492 45.5655 15.2155 45.6404L15.3055 45.3207C15.1086 45.2653 14.9352 45.1473 14.8114 44.9846L14.547 45.1857ZM15.215 45.6403C16.8542 46.107 18.4426 46.3874 20.3315 46.4309L20.3392 46.0988C18.482 46.056 16.9217 45.7808 15.306 45.3208L15.215 45.6403ZM20.3336 46.4309C20.3425 46.431 20.3513 46.431 20.3601 46.4309L20.3567 46.0988C20.3501 46.0988 20.3436 46.0988 20.3371 46.0988L20.3336 46.4309ZM20.3584 46.4309H21.8347V46.0988H20.3584V46.4309ZM21.833 46.4309C21.8418 46.431 21.8507 46.431 21.8595 46.4309L21.8561 46.0988C21.8495 46.0988 21.843 46.0988 21.8365 46.0988L21.833 46.4309ZM21.8616 46.4309C23.7505 46.3874 25.3389 46.107 26.9781 45.6403L26.8872 45.3208C25.2714 45.7808 23.7111 46.056 21.854 46.0988L21.8616 46.4309ZM26.9777 45.6404C27.244 45.5655 27.4786 45.4059 27.6461 45.1857L27.3818 44.9846C27.2579 45.1473 27.0845 45.2653 26.8877 45.3207L26.9777 45.6404ZM27.6461 45.1857C27.8136 44.9655 27.9049 44.6968 27.9061 44.4202L27.5739 44.4187C27.573 44.6232 27.5056 44.8218 27.3818 44.9846L27.6461 45.1857ZM27.9061 44.4195V40.7171H27.5739V44.4195H27.9061ZM27.9061 40.7171C27.9061 39.2203 26.8408 38.0705 25.5895 37.432L25.4385 37.7279C26.6294 38.3356 27.5739 39.3934 27.5739 40.7171H27.9061ZM25.5895 37.432C24.3381 36.7934 22.7837 36.5027 21.0966 36.5027V36.8349C22.7493 36.8349 24.2477 37.1202 25.4385 37.7279L25.5895 37.432ZM41.0269 29.8592C39.1138 29.8592 37.5391 31.4339 37.5391 33.347H37.8713C37.8713 31.6173 39.2972 30.1914 41.0269 30.1914V29.8592ZM37.5391 33.347C37.5391 35.2602 39.1138 36.8349 41.0269 36.8349V36.5027C39.2972 36.5027 37.8713 35.0767 37.8713 33.347H37.5391ZM41.0269 36.8349C42.9401 36.8349 44.5147 35.2602 44.5147 33.347H44.1826C44.1826 35.0767 42.7566 36.5027 41.0269 36.5027V36.8349ZM44.5147 33.347C44.5147 31.4339 42.9401 29.8592 41.0269 29.8592V30.1914C42.7566 30.1914 44.1826 31.6173 44.1826 33.347H44.5147ZM41.0269 36.5027C39.3398 36.5027 37.7854 36.7934 36.534 37.432L36.685 37.7279C37.8758 37.1202 39.3742 36.8349 41.0269 36.8349V36.5027ZM36.534 37.432C35.2827 38.0705 34.2174 39.2203 34.2174 40.7171H34.5496C34.5496 39.3934 35.4941 38.3356 36.685 37.7279L36.534 37.432ZM34.2174 40.7171V44.4195H34.5496V40.7171H34.2174ZM34.2174 44.4202C34.2186 44.6968 34.3099 44.9655 34.4774 45.1857L34.7417 44.9846C34.6179 44.8218 34.5505 44.6232 34.5496 44.4187L34.2174 44.4202ZM34.4774 45.1857C34.6449 45.4059 34.8795 45.5655 35.1458 45.6404L35.2358 45.3207C35.039 45.2653 34.8655 45.1473 34.7417 44.9846L34.4774 45.1857ZM35.1454 45.6403C36.7846 46.107 38.373 46.3874 40.2619 46.4309L40.2695 46.0988C38.4124 46.056 36.8521 45.7808 35.2363 45.3208L35.1454 45.6403ZM40.264 46.4309C40.2728 46.431 40.2816 46.431 40.2905 46.4309L40.287 46.0988C40.2805 46.0988 40.274 46.0988 40.2674 46.0988L40.264 46.4309ZM40.2888 46.4309H41.7651V46.0988H40.2888V46.4309ZM41.7634 46.4309C41.7722 46.431 41.781 46.431 41.7899 46.4309L41.7864 46.0988C41.7799 46.0988 41.7733 46.0988 41.7668 46.0988L41.7634 46.4309ZM41.792 46.4309C43.6809 46.3874 45.2693 46.107 46.9085 45.6403L46.8175 45.3208C45.2018 45.7808 43.6415 46.056 41.7843 46.0988L41.792 46.4309ZM46.908 45.6404C47.1743 45.5655 47.409 45.4059 47.5765 45.1857L47.3121 44.9846C47.1883 45.1473 47.0149 45.2653 46.818 45.3207L46.908 45.6404ZM47.5765 45.1857C47.744 44.9655 47.8352 44.6968 47.8365 44.4202L47.5043 44.4187C47.5034 44.6232 47.4359 44.8218 47.3121 44.9846L47.5765 45.1857ZM47.8365 44.4195V40.7171H47.5043V44.4195H47.8365ZM47.8365 40.7171C47.8365 39.2203 46.7712 38.0705 45.5198 37.432L45.3689 37.7279C46.5598 38.3356 47.5043 39.3934 47.5043 40.7171H47.8365ZM45.5198 37.432C44.2684 36.7934 42.7141 36.5027 41.0269 36.5027V36.8349C42.6796 36.8349 44.178 37.1202 45.3689 37.7279L45.5198 37.432ZM21.0966 32.4059C21.6295 32.4059 22.0377 32.8141 22.0377 33.347H22.3699C22.3699 32.6307 21.8129 32.0737 21.0966 32.0737V32.4059ZM22.0377 33.347C22.0377 33.8799 21.6295 34.2882 21.0966 34.2882V34.6204C21.8129 34.6204 22.3699 34.0634 22.3699 33.347H22.0377ZM21.0966 34.2882C20.5637 34.2882 20.1554 33.8799 20.1554 33.347H19.8232C19.8232 34.0634 20.3802 34.6204 21.0966 34.6204V34.2882ZM20.1554 33.347C20.1554 32.8141 20.5637 32.4059 21.0966 32.4059V32.0737C20.3802 32.0737 19.8232 32.6307 19.8232 33.347H20.1554ZM41.0269 32.4059C41.5598 32.4059 41.9681 32.8141 41.9681 33.347H42.3003C42.3003 32.6307 41.7433 32.0737 41.0269 32.0737V32.4059ZM41.9681 33.347C41.9681 33.8799 41.5598 34.2882 41.0269 34.2882V34.6204C41.7433 34.6204 42.3003 34.0634 42.3003 33.347H41.9681ZM41.0269 34.2882C40.494 34.2882 40.0858 33.8799 40.0858 33.347H39.7536C39.7536 34.0634 40.3106 34.6204 41.0269 34.6204V34.2882ZM40.0858 33.347C40.0858 32.8141 40.494 32.4059 41.0269 32.4059V32.0737C40.3106 32.0737 39.7536 32.6307 39.7536 33.347H40.0858ZM21.0966 39.0493C22.4764 39.0493 23.6851 39.3174 24.4351 39.7001L24.5861 39.4043C23.7756 38.9907 22.511 38.7172 21.0966 38.7172V39.0493ZM24.4351 39.7001C24.8156 39.8943 25.0466 40.071 25.1822 40.2364C25.3133 40.3962 25.3595 40.5504 25.3595 40.7171H25.6916C25.6916 40.4761 25.6204 40.2469 25.4391 40.0257C25.2622 39.8101 24.9858 39.6082 24.5861 39.4043L24.4351 39.7001ZM25.3595 40.7171V43.5314H25.6916V40.7171H25.3595ZM25.4862 43.37C24.3167 43.655 23.1839 43.8516 21.8307 43.8843L21.8388 44.2164C23.2222 44.1829 24.3796 43.9815 25.5649 43.6927L25.4862 43.37ZM21.8347 43.8843H21.8117V44.2165H21.8347V43.8843ZM21.8117 43.8843H20.3815V44.2165H21.8117V43.8843ZM20.3852 43.8843C20.3777 43.8842 20.3713 43.8843 20.3679 43.8843C20.3639 43.8844 20.363 43.8843 20.3621 43.8843L20.3547 44.2164C20.3621 44.2166 20.3686 44.2165 20.372 44.2164C20.3759 44.2164 20.3769 44.2164 20.3778 44.2164L20.3852 43.8843ZM20.3624 43.8843C19.0093 43.8515 17.8764 43.655 16.7069 43.37L16.6283 43.6927C17.8136 43.9815 18.9709 44.1828 20.3544 44.2164L20.3624 43.8843ZM16.8337 43.5314V40.7171H16.5015V43.5314H16.8337ZM16.8337 40.7171C16.8337 40.5504 16.8798 40.3962 17.0109 40.2364C17.1465 40.071 17.3776 39.8943 17.7581 39.7001L17.6071 39.4043C17.2074 39.6082 16.9309 39.8101 16.7541 40.0257C16.5728 40.2469 16.5015 40.4761 16.5015 40.7171H16.8337ZM17.7581 39.7001C18.5081 39.3174 19.7167 39.0493 21.0966 39.0493V38.7172C19.6822 38.7172 18.4175 38.9907 17.6071 39.4043L17.7581 39.7001ZM41.0269 39.0493C42.4068 39.0493 43.6154 39.3174 44.3654 39.7001L44.5164 39.4043C43.706 38.9907 42.4413 38.7172 41.0269 38.7172V39.0493ZM44.3654 39.7001C44.7459 39.8943 44.977 40.071 45.1126 40.2364C45.2437 40.3962 45.2898 40.5504 45.2898 40.7171H45.622C45.622 40.4761 45.5507 40.2469 45.3694 40.0257C45.1926 39.8101 44.9161 39.6082 44.5164 39.4043L44.3654 39.7001ZM45.2898 40.7171V43.5314H45.622V40.7171H45.2898ZM45.4166 43.37C44.2471 43.655 43.1142 43.8516 41.7611 43.8843L41.7691 44.2164C43.1526 44.1829 44.3099 43.9815 45.4952 43.6927L45.4166 43.37ZM41.7651 43.8843H41.742V44.2165H41.7651V43.8843ZM41.742 43.8843H40.3118V44.2165H41.742V43.8843ZM40.3155 43.8843C40.3081 43.8842 40.3017 43.8843 40.2982 43.8843C40.2943 43.8844 40.2933 43.8843 40.2925 43.8843L40.2851 44.2164C40.2925 44.2166 40.2989 44.2165 40.3024 44.2164C40.3063 44.2164 40.3073 44.2164 40.3081 44.2164L40.3155 43.8843ZM40.2928 43.8843C38.9396 43.8515 37.8067 43.655 36.6373 43.37L36.5586 43.6927C37.7439 43.9815 38.9013 44.1828 40.2847 44.2164L40.2928 43.8843ZM36.764 43.5314V40.7171H36.4319V43.5314H36.764ZM36.764 40.7171C36.764 40.5504 36.8102 40.3962 36.9413 40.2364C37.0769 40.071 37.3079 39.8943 37.6884 39.7001L37.5374 39.4043C37.1377 39.6082 36.8613 39.8101 36.6844 40.0257C36.5031 40.2469 36.4319 40.4761 36.4319 40.7171H36.764ZM37.6884 39.7001C38.4384 39.3174 39.6471 39.0493 41.0269 39.0493V38.7172C39.6125 38.7172 38.3479 38.9907 37.5374 39.4043L37.6884 39.7001Z" fill="#D9D9D9" mask="url(#path-2-inside-1_1303_1001)"/>
</svg>
