<svg width="62" height="62" viewBox="0 0 62 62" fill="none" xmlns="http://www.w3.org/2000/svg">
<circle cx="31.012" cy="30.9417" r="30.9417" fill="#D9D9D9"/>
<path d="M40.7039 41.443H36.9537V40.693C36.9537 39.4524 35.9442 38.4429 34.7037 38.4429H31.7036V20.4423H42.2039C42.6179 20.4423 42.9539 20.1063 42.9539 19.6923C42.9539 19.2783 42.6179 18.9422 42.2039 18.9422H31.7036V16.6922C31.7036 16.2781 31.3675 15.9421 30.9535 15.9421C30.5395 15.9421 30.2035 16.2781 30.2035 16.6922V18.9422H19.7032C19.2891 18.9422 18.9531 19.2783 18.9531 19.6923C18.9531 20.1063 19.2891 20.4423 19.7032 20.4423H30.2035V38.4429H27.2034C25.9629 38.4429 24.9533 39.4524 24.9533 40.693V41.443H21.2032C19.9627 41.443 18.9531 42.4525 18.9531 43.6931V45.1931C18.9531 45.6071 19.2891 45.9431 19.7032 45.9431H42.2039C42.6179 45.9431 42.9539 45.6071 42.9539 45.1931V43.6931C42.9539 42.4525 41.9444 41.443 40.7039 41.443ZM26.4534 40.693C26.4534 40.279 26.7894 39.9429 27.2034 39.9429H34.7037C35.1177 39.9429 35.4537 40.279 35.4537 40.693V41.443H26.4534V40.693ZM41.4539 44.4431H20.4532V43.6931C20.4532 43.2791 20.7892 42.943 21.2032 42.943H40.7039C41.1179 42.943 41.4539 43.2791 41.4539 43.6931V44.4431Z" fill="#6A6A6A" stroke="#6A6A6A" stroke-width="0.332173"/>
<path d="M26.4613 31.6918C26.4613 31.6843 26.4568 31.6768 26.4568 31.6693C26.4553 31.6198 26.4388 31.5718 26.4268 31.5223C26.4148 31.4728 26.4088 31.4233 26.3878 31.3768C26.3848 31.3693 26.3848 31.3618 26.3818 31.3558L21.8816 22.3555C21.6266 21.847 20.7941 21.847 20.5391 22.3555L16.0389 31.3558C16.0359 31.3633 16.0359 31.3708 16.0329 31.3768C16.0119 31.4218 16.0059 31.4713 15.9939 31.5208C15.9819 31.5703 15.9654 31.6183 15.9639 31.6678C15.9654 31.6768 15.9609 31.6843 15.9609 31.6918C15.9609 34.5869 18.316 36.942 21.2111 36.942C24.1062 36.942 26.4613 34.5869 26.4613 31.6918ZM21.2111 24.3686L24.4947 30.9358H17.9275L21.2111 24.3686ZM17.5345 32.4373H24.8862C24.5412 34.1489 23.0232 35.4419 21.2111 35.4419C19.3991 35.4419 17.881 34.1489 17.5345 32.4373Z" fill="#6A6A6A" stroke="#6A6A6A" stroke-width="0.332173"/>
<path d="M45.9583 31.6693C45.9568 31.6198 45.9403 31.5718 45.9283 31.5223C45.9163 31.4728 45.9103 31.4233 45.8893 31.3768C45.8863 31.3693 45.8863 31.3618 45.8833 31.3558L41.3831 22.3555C41.1281 21.847 40.2956 21.847 40.0406 22.3555L35.5404 31.3558C35.5374 31.3633 35.5374 31.3708 35.5344 31.3768C35.5134 31.4218 35.5074 31.4713 35.4954 31.5208C35.4834 31.5703 35.4669 31.6183 35.4654 31.6678C35.4654 31.6753 35.4609 31.6828 35.4609 31.6903C35.4609 34.5854 37.816 36.9405 40.7111 36.9405C43.6062 36.9405 45.9613 34.5854 45.9613 31.6903C45.9628 31.6843 45.9583 31.6768 45.9583 31.6693ZM40.7126 24.3686L43.9962 30.9358H37.429L40.7126 24.3686ZM40.7126 35.4419C38.9006 35.4419 37.3825 34.1489 37.036 32.4373H44.3877C44.0427 34.1489 42.5247 35.4419 40.7126 35.4419Z" fill="#6A6A6A" stroke="#6A6A6A" stroke-width="0.332173"/>
</svg>
