<svg width="62" height="62" viewBox="0 0 62 62" fill="none" xmlns="http://www.w3.org/2000/svg">
<circle cx="31.101" cy="30.7265" r="30.726" fill="#720C20"/>
<path d="M29.6084 40.6795C29.8927 40.6795 30.1231 40.4491 30.1231 40.1648C30.1231 39.8806 29.8927 39.6501 29.6084 39.6501C29.3242 39.6501 29.0938 39.8806 29.0938 40.1648C29.0938 40.4491 29.3242 40.6795 29.6084 40.6795Z" fill="white" stroke="white" stroke-width="0.49826"/>
<path d="M29.6084 42.512C29.8927 42.512 30.1231 42.2816 30.1231 41.9973C30.1231 41.7131 29.8927 41.4827 29.6084 41.4827C29.3242 41.4827 29.0938 41.7131 29.0938 41.9973C29.0938 42.2816 29.3242 42.512 29.6084 42.512Z" fill="white" stroke="white" stroke-width="0.49826"/>
<path d="M26.024 27.2512C26.8355 30.1093 29.5797 32.1585 31.0941 32.1585C32.6085 32.1585 35.3527 30.1093 36.1642 27.2512C36.8525 26.9772 37.3145 26.3074 37.3145 25.5581V24.8406C37.3145 24.3244 37.0869 23.8465 36.7096 23.5036C36.7744 23.2256 36.842 22.9238 36.9015 22.5849L36.9201 22.479C37.0908 21.5034 37.4138 19.6872 36.2555 18.3065C35.309 17.1799 33.5735 16.6094 31.0941 16.6094C28.6147 16.6094 26.8792 17.1812 25.9367 18.3065C24.7784 19.6872 25.0987 21.5034 25.2721 22.479L25.2907 22.5836C25.3502 22.9225 25.4151 23.2243 25.4826 23.5036C25.1053 23.8451 24.875 24.323 24.875 24.8393V25.5568C24.8737 26.3074 25.3383 26.9772 26.024 27.2512ZM26.4794 18.7618C27.2803 17.8034 28.8344 17.3176 31.0941 17.3176C33.3538 17.3176 34.9079 17.8034 35.7088 18.7618C36.6553 19.8884 36.3839 21.4332 36.2211 22.3546L36.1999 22.4631C36.0344 23.4083 35.8147 24.1258 35.6731 24.5322C35.6731 24.4819 35.6731 24.4289 35.6731 24.3733C35.6731 21.5616 34.7649 21.1433 34.2275 21.1433C33.9323 21.1433 33.6252 21.2691 33.3075 21.5153C32.5264 22.1256 31.899 22.2037 31.4383 22.2037L31.0941 22.1957L30.7499 22.201C30.2893 22.201 29.6618 22.1229 28.8834 21.5126C28.5657 21.2651 28.2546 21.1407 27.9634 21.1407C27.4233 21.1407 26.5178 21.559 26.5178 24.3707C26.5178 24.4263 26.5178 24.4779 26.5152 24.5269C26.3801 24.1403 26.1564 23.4176 25.9883 22.4605L25.9698 22.3546C25.8069 21.4332 25.5329 19.8884 26.4794 18.7618ZM33.9694 23.7935H32.6045C32.2789 23.7935 31.9837 23.9325 31.7507 24.1536H30.4375C30.2045 23.9325 29.9107 23.7935 29.5824 23.7935H28.2202C27.827 23.7935 27.4776 23.9894 27.2274 24.2979C27.2406 22.6193 27.6152 21.8489 27.9647 21.8489C28.0944 21.8489 28.2599 21.927 28.4479 22.0713C29.397 22.8152 30.1781 22.9106 30.7513 22.9106L31.0941 22.9039L31.4383 22.9106C32.0128 22.9106 32.7925 22.8152 33.7443 22.0713C33.931 21.927 34.0991 21.8489 34.2275 21.8489C34.577 21.8489 34.9516 22.6193 34.9622 24.2992C34.7133 23.9908 34.3625 23.7935 33.9694 23.7935ZM34.6127 25.349C34.6127 25.8176 34.3255 26.1975 33.9694 26.1975H32.6045C32.2577 26.1975 31.9638 25.8083 31.9638 25.349C31.9638 24.8817 32.2511 24.5017 32.6045 24.5017H33.9694C34.3255 24.5017 34.6127 24.883 34.6127 25.349ZM30.2284 25.349C30.2284 25.8176 29.9385 26.1975 29.5824 26.1975H28.2202C27.8707 26.1975 27.5768 25.8083 27.5768 25.349C27.5768 24.8817 27.8667 24.5017 28.2202 24.5017H29.5824C29.9385 24.5017 30.2284 24.883 30.2284 25.349ZM25.5819 24.8393C25.5819 24.6606 25.6256 24.4885 25.7063 24.3349C25.8506 24.8036 25.9645 25.0696 25.9671 25.0696C26.1842 25.9791 26.3312 26.3577 26.6939 26.3577C26.862 26.3577 26.9785 26.2915 27.0579 26.1366C27.2935 26.5946 27.7251 26.9057 28.2189 26.9057H29.581C30.3276 26.9057 30.9353 26.2081 30.9353 25.349C30.9353 25.1782 30.9048 25.0167 30.8598 24.8631H31.3258C31.2821 25.0167 31.2503 25.1782 31.2503 25.349C31.2503 26.2068 31.8579 26.9057 32.6019 26.9057H33.9667C34.4631 26.9057 34.892 26.5946 35.1277 26.1366C35.2084 26.2915 35.3236 26.3577 35.4917 26.3577C35.8531 26.3577 36.004 25.9791 36.1999 25.1279C36.2105 25.1067 36.3297 24.8234 36.4792 24.3363C36.56 24.4885 36.6037 24.6619 36.6037 24.8393V25.5568C36.6037 26.0585 36.2621 26.5006 35.7763 26.633C35.6519 26.6661 35.5566 26.7654 35.5261 26.8885C34.8536 29.5678 32.2471 31.4489 31.0915 31.4489C29.9358 31.4489 27.3293 29.5678 26.6595 26.8885C26.629 26.7641 26.5324 26.6661 26.4093 26.633C25.9208 26.5006 25.5793 26.0585 25.5793 25.5568V24.8393H25.5819Z" fill="white" stroke="white" stroke-width="0.49826"/>
<path d="M34.4192 31.6825C34.316 31.6587 34.1995 31.6825 34.1148 31.7527C34.03 31.8202 33.9797 31.9261 33.9824 32.0347C34.0102 33.557 33.2556 35.1998 32.4772 36.4839L32.0814 35.0436C32.2138 34.9787 32.3303 34.8887 32.4256 34.7722C32.787 34.3274 32.7407 33.6881 32.7182 33.5027C32.6427 32.9004 31.6975 32.6952 31.1389 32.6277C31.1085 32.6237 31.082 32.6237 31.0515 32.6277C30.4955 32.6952 29.5464 32.9004 29.4723 33.5027C29.4484 33.6881 29.4021 34.3274 29.7648 34.7722C29.8601 34.8887 29.9766 34.9787 30.109 35.0436L29.7132 36.4839C28.9348 35.1985 28.1803 33.557 28.2081 32.0347C28.2107 31.9261 28.1617 31.8202 28.0757 31.7527C27.991 31.6825 27.8771 31.66 27.7725 31.6825C27.2496 31.8083 22.6694 32.9547 21.9651 34.8305C21.2979 36.603 20.828 40.949 20.8068 41.133C20.7936 41.2535 20.8426 41.3713 20.9366 41.4467C21.0636 41.5473 24.0911 43.9169 31.0952 43.9169C38.0993 43.9169 41.1268 41.5473 41.2539 41.4467C41.3465 41.3699 41.3955 41.2535 41.3836 41.133C41.3651 40.949 40.8925 36.603 40.2253 34.8305C39.5197 32.9547 34.9381 31.8083 34.4192 31.6825ZM34.6337 32.8607C35.1023 33.3942 35.7456 34.2374 36.0329 35.1111H34.8203C34.7065 35.1111 34.5979 35.1654 34.5331 35.2581C34.4656 35.3507 34.4483 35.4699 34.4841 35.5784L35.0017 37.0981L32.1913 38.1929C33.0716 36.9962 34.3676 34.9298 34.6337 32.8607ZM29.9978 38.1942L27.1874 37.0994L27.705 35.5797C27.7408 35.4712 27.7236 35.3521 27.656 35.2594C27.5912 35.1667 27.4826 35.1124 27.3688 35.1124H26.1562C26.4435 34.2388 27.0868 33.3955 27.5554 32.862C27.8202 34.9298 29.1162 36.9962 29.9978 38.1942ZM30.7391 43.2007C27.991 43.1676 25.8888 42.7533 24.3863 42.2833V39.9654H23.6781V42.0398C22.5277 41.6175 21.8222 41.1952 21.5349 41.0033C21.6355 40.111 22.0697 36.5593 22.6257 35.0794C23.003 34.0799 25.1832 33.1969 26.7598 32.7018C26.1986 33.3929 25.5367 34.3804 25.3513 35.3997C25.3328 35.503 25.3593 35.6102 25.4295 35.6923C25.497 35.773 25.5949 35.8193 25.7008 35.8193H26.8724L26.4064 37.1921C26.3468 37.3708 26.4368 37.5667 26.6129 37.6369L30.7391 39.2426V43.2007ZM30.2281 37.2834L30.8821 34.8927C30.9099 34.7908 30.8927 34.6822 30.8305 34.5935C30.7682 34.5088 30.6729 34.4545 30.567 34.4453C30.4532 34.436 30.3751 34.3989 30.3142 34.3222C30.1765 34.154 30.1461 33.8257 30.1593 33.6338C30.2374 33.5332 30.6835 33.3915 31.0952 33.3359C31.5069 33.3902 31.9504 33.5305 32.0152 33.5888C32.043 33.8244 32.0126 34.1527 31.8762 34.3208C31.8167 34.3976 31.7372 34.4347 31.6234 34.4439C31.5175 34.4532 31.4222 34.5075 31.36 34.5922C31.2978 34.6796 31.2792 34.7881 31.3083 34.8914L31.9623 37.2821C31.6181 37.7838 31.3057 38.1916 31.0965 38.4484C30.8847 38.1916 30.571 37.7852 30.2281 37.2834ZM38.5097 42.0451V39.9654H37.8015V42.286C36.3016 42.7559 34.2021 43.1676 31.4487 43.2007V39.2426L35.5749 37.6369C35.7509 37.5667 35.841 37.3708 35.7814 37.1921L35.3154 35.8193H36.487C36.5929 35.8193 36.6908 35.773 36.761 35.6923C36.8285 35.6102 36.8536 35.503 36.8364 35.3997C36.6498 34.3791 35.9879 33.3929 35.4279 32.7018C37.0046 33.1969 39.1848 34.0786 39.5621 35.0794C40.1181 36.558 40.5523 40.1124 40.6555 41.0033C40.3656 41.1979 39.6627 41.6215 38.5097 42.0451Z" fill="white" stroke="white" stroke-width="0.49826"/>
<path d="M36.9606 39.7942H34.0391V40.5024H36.9606V39.7942Z" fill="white" stroke="white" stroke-width="0.49826"/>
<path d="M39.8352 27.8135C40.4838 30.0428 42.6349 31.6353 43.8277 31.6353C45.0164 31.6353 47.1649 30.0428 47.8175 27.8135C48.3576 27.5779 48.723 27.0404 48.723 26.4434V25.8901C48.723 25.481 48.5496 25.1024 48.257 24.8244C48.3113 24.5994 48.3656 24.3545 48.4119 24.0752C48.5496 23.3074 48.8024 21.8777 47.8824 20.7816C47.1358 19.8894 45.7723 19.438 43.8277 19.438C41.8804 19.438 40.5182 19.8894 39.7716 20.7803C38.8516 21.8777 39.1044 23.3061 39.2514 24.1559C39.2951 24.4022 39.344 24.6232 39.3904 24.8284C39.1031 25.1051 38.9297 25.4824 38.9297 25.8914V26.4447C38.9297 27.0418 39.2924 27.5792 39.8352 27.8135ZM40.313 21.237C40.918 20.5142 42.1001 20.1489 43.8263 20.1489C45.5512 20.1489 46.732 20.5142 47.337 21.237C48.0452 22.0816 47.8361 23.2518 47.6984 24.0341C47.6203 24.4789 47.5276 24.8589 47.4403 25.158C47.3621 23.2452 46.6698 22.946 46.2515 22.946C46.0026 22.946 45.7471 23.0493 45.489 23.2531C44.9079 23.7058 44.4551 23.7681 44.0871 23.7681L43.8263 23.7628L43.5603 23.7681C43.1962 23.7681 42.7435 23.7058 42.161 23.2531C41.9002 23.0493 41.6434 22.946 41.3985 22.946C40.9776 22.946 40.2866 23.2438 40.2098 25.1567C40.1251 24.8602 40.0284 24.4803 39.9516 24.0341L39.9358 23.9507C39.8113 23.2505 39.6048 22.0789 40.313 21.237ZM46.0503 24.9992H44.9952C44.7318 24.9992 44.4935 25.1064 44.3029 25.2772H43.3485C43.1565 25.1064 42.9196 24.9992 42.6561 24.9992H41.6011C41.3429 24.9992 41.1073 25.1011 40.918 25.2679C40.9537 24.1056 41.2225 23.6542 41.3985 23.6542C41.4449 23.6542 41.5481 23.6741 41.7242 23.8104C42.4893 24.4061 43.138 24.475 43.5603 24.475L43.8263 24.4697L44.0871 24.475C44.5107 24.475 45.1607 24.4061 45.9259 23.8104C46.0993 23.6728 46.2025 23.6542 46.2515 23.6542C46.4276 23.6542 46.6963 24.1043 46.732 25.2666C46.5414 25.1024 46.3071 24.9992 46.0503 24.9992ZM46.4699 26.2832C46.4699 26.5957 46.278 26.8604 46.0516 26.8604H44.9966C44.7689 26.8604 44.5782 26.597 44.5782 26.2832C44.5782 25.9722 44.7702 25.7074 44.9966 25.7074H46.0516C46.278 25.7087 46.4699 25.9722 46.4699 26.2832ZM43.0744 26.2832C43.0744 26.5957 42.8825 26.8604 42.6561 26.8604H41.6011C41.3734 26.8604 41.1801 26.597 41.1801 26.2832C41.1801 25.9722 41.3734 25.7074 41.6011 25.7074H42.6561C42.8838 25.7087 43.0744 25.9722 43.0744 26.2832ZM39.6379 25.8901C39.6379 25.8464 39.6485 25.8027 39.6538 25.7577C39.7266 25.9669 39.7756 26.0834 39.7782 26.0834C39.9358 26.7426 40.0575 27.1424 40.4189 27.1424C40.5354 27.1424 40.6254 27.108 40.693 27.0404C40.8968 27.3581 41.2251 27.5673 41.6011 27.5673H42.6561C43.2796 27.5673 43.784 26.9901 43.784 26.2819C43.784 26.18 43.7707 26.082 43.7509 25.9841H43.9031C43.8819 26.0807 43.87 26.1787 43.87 26.2819C43.87 26.9901 44.377 27.5673 44.9979 27.5673H46.0529C46.4302 27.5673 46.7638 27.3529 46.9677 27.0272C47.0325 27.0921 47.112 27.1424 47.2337 27.1424C47.5951 27.1424 47.7169 26.7426 47.8546 26.1429C47.8599 26.1297 47.9168 25.9933 47.9989 25.7551C48.0042 25.7987 48.0148 25.8424 48.0148 25.8901V26.4434C48.0148 26.7955 47.7738 27.1053 47.431 27.2006C47.3092 27.2337 47.2139 27.333 47.1821 27.4561C46.6698 29.4947 44.7 30.9257 43.829 30.9257C42.9553 30.9257 40.9855 29.4947 40.4732 27.4561C40.4428 27.3317 40.3488 27.2337 40.2243 27.2006C39.8802 27.1053 39.6406 26.7942 39.6406 26.4434V25.8901H39.6379Z" fill="white" stroke="white" stroke-width="0.49826"/>
<path d="M50.9587 33.5947C50.3974 32.1054 46.8139 31.2079 46.4075 31.1113C46.25 31.0755 46.0925 31.143 46.0144 31.282C45.4637 32.2603 44.259 33.0466 43.8169 33.3114C43.3721 33.0466 42.1675 32.2603 41.6141 31.282C41.536 31.1444 41.3732 31.0768 41.2236 31.1113C40.9734 31.1708 39.5173 31.5362 38.3047 32.1544C38.5708 32.2854 38.8342 32.4258 39.0857 32.5754C39.7635 32.2775 40.5154 32.0273 41.1415 31.8618C41.9795 33.126 43.5773 33.9918 43.6501 34.0315C43.7534 34.0884 43.8804 34.0884 43.9837 34.0315C44.0565 33.9931 45.6543 33.1247 46.4923 31.8618C47.8994 32.2312 49.9936 33.0347 50.2955 33.8449C50.7138 34.9568 51.0447 37.6044 51.1334 38.3616C50.547 38.7468 48.2608 40.0269 43.8195 40.0269C43.1987 40.0269 42.6281 40.0004 42.092 39.9567C42.1278 40.2453 42.1569 40.4876 42.1767 40.6729C42.6917 40.71 43.2344 40.7351 43.8182 40.7351C49.2656 40.7351 51.6312 38.8871 51.7304 38.8064C51.8231 38.7309 51.8721 38.6131 51.8602 38.494C51.843 38.3497 51.4789 34.978 50.9587 33.5947Z" fill="white" stroke="white" stroke-width="0.49826"/>
<path d="M11.981 31.0671C12.3874 31.222 13.0612 31.3279 13.7906 31.3279C14.6882 31.3279 15.6413 31.1518 16.286 30.7256C16.9584 31.263 17.6614 31.5887 18.1816 31.5887C18.7045 31.5887 19.4074 31.263 20.0799 30.7256C20.7233 31.1518 21.6777 31.3279 22.5726 31.3279C23.302 31.3279 23.9771 31.222 24.3822 31.0671C24.5093 31.0181 24.8945 30.8712 24.9276 30.5164C24.9408 30.3973 24.9143 30.1722 24.6231 29.9922L24.4338 29.8757C23.7587 29.4706 23.4767 29.3025 23.3735 25.2094C23.3324 23.5573 22.7248 22.313 21.5837 21.4935C21.7187 20.8846 21.7029 20.4041 21.7002 20.3657C21.6949 20.2717 21.6539 20.1817 21.5811 20.1195C20.1924 18.8738 18.2941 18.6779 18.1472 18.6699C18.0664 18.6779 16.1695 18.8738 14.7808 20.1208C14.708 20.183 14.667 20.2717 14.6617 20.367C14.659 20.4041 14.6431 20.8846 14.7782 21.4962C13.6384 22.313 13.0308 23.5586 12.9884 25.2094C12.8825 29.3038 12.6032 29.4719 11.9254 29.8757L11.7388 29.9922C11.4436 30.1735 11.4211 30.3986 11.4317 30.5164C11.4661 30.8712 11.8539 31.0181 11.981 31.0671ZM18.1803 30.8818C17.3688 30.8818 15.4811 29.4971 14.9953 27.5962C15.2018 25.8091 15.9338 25.1578 16.3349 24.9301C16.6116 25.4424 17.3556 26.2671 19.283 26.2671C20.1381 26.2671 20.9324 26.5437 21.2581 26.9568C21.3957 27.1315 21.4368 27.3168 21.3851 27.5286C20.9258 29.464 19.005 30.8818 18.1803 30.8818ZM18.1472 19.3755C18.1962 19.3808 19.7993 19.5595 20.9907 20.547C20.9801 20.9256 20.8954 21.9635 20.248 22.7114H16.1125C15.4705 21.9688 15.3805 20.927 15.3699 20.547C16.5626 19.5595 18.1631 19.3808 18.1472 19.3755ZM13.698 25.2266C13.7311 23.9068 14.1706 22.8941 15.0006 22.2071C15.1555 22.5896 15.3726 22.9775 15.7035 23.3137C15.7684 23.3812 15.861 23.4196 15.9563 23.4196H20.4042C20.4995 23.4196 20.5909 23.3812 20.6571 23.3137C20.988 22.9775 21.2051 22.5896 21.36 22.2071C22.19 22.8941 22.6295 23.9068 22.6626 25.2266C22.7685 29.4216 23.0743 29.8797 24.0102 30.4489C23.3205 30.6475 21.5586 30.7441 20.6107 30.2424C21.2673 29.5726 21.8366 28.7002 22.0735 27.6928C22.1768 27.2718 22.0868 26.8654 21.8127 26.5173C21.3468 25.9242 20.3778 25.5562 19.2817 25.5562C17.1663 25.5562 16.887 24.4416 16.8777 24.4006C16.8592 24.3079 16.8049 24.2258 16.7281 24.1729C16.6473 24.1212 16.552 24.1027 16.462 24.1212C16.3839 24.1371 14.614 24.525 14.2831 27.5776C14.2804 27.6187 14.2831 27.661 14.291 27.6994C14.532 28.7042 15.0999 29.5726 15.7538 30.2411C14.802 30.7428 13.0414 30.6488 12.3517 30.4476C13.2836 29.8797 13.5881 29.4203 13.698 25.2266Z" fill="white" stroke="white" stroke-width="0.49826"/>
<path d="M15.5755 32.1007C16.3922 33.3292 17.9437 34.1724 18.0139 34.2108C18.1198 34.2677 18.2469 34.2677 18.3501 34.2108C18.4203 34.1737 19.9717 33.3292 20.7912 32.1007C21.3935 32.2582 22.1176 32.5018 22.7715 32.7891C23.0072 32.6315 23.2574 32.4859 23.5168 32.3496C22.34 31.7579 20.95 31.4071 20.7064 31.3488C20.5595 31.3131 20.394 31.3806 20.3159 31.5196C19.7811 32.4687 18.6175 33.2286 18.1833 33.4894C17.7491 33.2286 16.5855 32.4687 16.0507 31.5196C15.9726 31.3819 15.8071 31.3131 15.6602 31.3488C15.2617 31.4441 11.7709 32.3178 11.2255 33.774C10.7159 35.1202 10.3611 38.4032 10.3452 38.5422C10.3346 38.6627 10.381 38.7805 10.4776 38.8559C10.5742 38.9314 12.8776 40.7331 18.182 40.7331C18.8439 40.7331 19.4594 40.7053 20.0287 40.655C20.0498 40.467 20.0803 40.2234 20.1187 39.9309C19.5243 39.9878 18.8823 40.0235 18.182 40.0235C13.8956 40.0235 11.6558 38.7845 11.0746 38.4072C11.162 37.6619 11.481 35.0991 11.8861 34.0215C12.1813 33.2378 14.208 32.4595 15.5755 32.1007Z" fill="white" stroke="white" stroke-width="0.49826"/>
<path d="M17.8088 22.285H18.517V21.398H19.404V20.6898H18.517V19.8042H17.8088V20.6898H16.9219V21.398H17.8088V22.285Z" fill="white" stroke="white" stroke-width="0.49826"/>
</svg>
