<svg width="63" height="62" viewBox="0 0 63 62" fill="none" xmlns="http://www.w3.org/2000/svg">
<circle cx="31.1917" cy="30.9419" r="30.9417" fill="#720C20"/>
<path fill-rule="evenodd" clip-rule="evenodd" d="M29.0876 18.4981C28.2772 17.9046 27.178 17.9089 26.372 18.5086L16.7158 25.6945C16.2058 26.074 16.098 26.7977 16.4749 27.3112C16.8518 27.8245 17.5707 27.9331 18.0807 27.5537L18.8334 26.9935V37.4297C18.8334 38.7066 19.8615 39.7416 21.1297 39.7416H26.8703V40.8976C26.8703 42.1744 27.8985 43.2095 29.1666 43.2095H42.3703C43.6385 43.2095 44.6666 42.1744 44.6666 40.8976V30.4614L45.4194 31.0216C45.9293 31.4009 46.6481 31.2924 47.0251 30.779C47.402 30.2656 47.2942 29.5418 46.7842 29.1623L37.1334 21.9806C36.3222 21.3769 35.2148 21.3769 34.4036 21.9806L34.1259 22.1872L29.0876 18.4981ZM32.1896 23.6281L27.737 20.3678L21.1297 25.2847V37.4297H26.8703V30.4614L26.1176 31.0216C25.6077 31.4009 24.8888 31.2924 24.5119 30.779C24.135 30.2656 24.2428 29.5418 24.7528 29.1623L32.1896 23.6281ZM29.1666 40.8976V28.7525L35.7684 23.8397L42.3703 28.7525V40.8976H29.1666Z" fill="white" stroke="white" stroke-width="0.0996519"/>
</svg>
