<svg width="63" height="62" viewBox="0 0 63 62" fill="none" xmlns="http://www.w3.org/2000/svg">
<circle cx="31.137" cy="30.9417" r="30.9417" fill="#D9D9D9"/>
<path d="M31.4394 17.3276C23.7598 17.3276 17.5156 23.5718 17.5156 31.2514C17.5156 38.931 23.7598 45.1751 31.4394 45.1751C39.119 45.1751 45.3631 38.931 45.3631 31.2514C45.3631 23.5718 39.119 17.3276 31.4394 17.3276ZM31.4394 19.0681C38.1783 19.0681 43.6227 24.5124 43.6227 31.2514C43.6227 37.9903 38.1783 43.4347 31.4394 43.4347C24.7004 43.4347 19.2561 37.9903 19.2561 31.2514C19.2561 24.5124 24.7004 19.0681 31.4394 19.0681ZM31.4303 22.2408C31.3153 22.242 31.2016 22.266 31.0959 22.3114C30.9901 22.3568 30.8945 22.4227 30.8144 22.5053C30.7343 22.588 30.6714 22.6856 30.6293 22.7927C30.5872 22.8998 30.5668 23.0142 30.5691 23.1292V24.3348C29.7374 24.4192 28.9535 24.639 28.2848 25.0963C27.3867 25.7104 26.7981 26.7986 26.7981 28.1149C26.7981 29.3582 27.5264 30.328 28.3936 30.916C29.2607 31.5039 30.2842 31.8297 31.2128 32.0854C32.0775 32.3235 32.9362 32.6326 33.5062 33.0191C34.0762 33.4055 34.3402 33.7475 34.3402 34.3788C34.3402 35.2466 34.0817 35.646 33.615 35.9652C33.1482 36.2843 32.3729 36.4728 31.4394 36.4728C30.1178 36.4728 28.7533 35.2576 28.4933 34.4604C28.466 34.343 28.4146 34.2325 28.3424 34.136C28.2702 34.0395 28.1787 33.9591 28.0738 33.8998C27.9689 33.8405 27.8528 33.8036 27.7329 33.7915C27.6129 33.7794 27.4918 33.7924 27.3772 33.8295C27.2625 33.8667 27.1568 33.9273 27.0668 34.0074C26.9768 34.0876 26.9044 34.1855 26.8542 34.2951C26.8041 34.4047 26.7772 34.5235 26.7753 34.644C26.7735 34.7646 26.7967 34.8841 26.8435 34.9952C27.3267 36.4769 28.7601 37.8096 30.5691 38.1408V39.3736C30.5675 39.4889 30.5888 39.6034 30.6318 39.7104C30.6748 39.8174 30.7387 39.9148 30.8196 39.9969C30.9006 40.0791 30.9971 40.1443 31.1035 40.1888C31.2099 40.2333 31.3241 40.2562 31.4394 40.2562C31.5547 40.2562 31.6689 40.2333 31.7753 40.1888C31.8817 40.1443 31.9782 40.0791 32.0591 39.9969C32.1401 39.9148 32.2039 39.8174 32.2469 39.7104C32.2899 39.6034 32.3112 39.4889 32.3096 39.3736V38.177C33.1413 38.0901 33.9252 37.8547 34.594 37.3974C35.4921 36.7833 36.0806 35.6951 36.0806 34.3788C36.0806 33.1354 35.3524 32.1657 34.4852 31.5777C33.618 30.9898 32.5945 30.664 31.666 30.4084C30.8013 30.1703 29.9426 29.8611 29.3726 29.4747C28.8026 29.0882 28.5386 28.7462 28.5386 28.1149C28.5386 27.2471 28.797 26.8568 29.2638 26.5376C29.7305 26.2184 30.5059 26.03 31.4394 26.03C32.761 26.03 34.1255 27.2362 34.3855 28.0333C34.4128 28.1507 34.4642 28.2612 34.5364 28.3577C34.6086 28.4542 34.7 28.5346 34.805 28.594C34.9099 28.6533 35.026 28.6901 35.1459 28.7022C35.2658 28.7143 35.3869 28.7014 35.5016 28.6642C35.6162 28.627 35.7219 28.5665 35.812 28.4863C35.902 28.4062 35.9744 28.3082 36.0245 28.1986C36.0747 28.089 36.1016 27.9702 36.1034 27.8497C36.1053 27.7292 36.0821 27.6096 36.0353 27.4985C35.5521 26.0168 34.1186 24.7004 32.3096 24.3711V23.1292C32.312 23.0126 32.291 22.8968 32.2478 22.7885C32.2046 22.6802 32.1401 22.5817 32.058 22.4989C31.976 22.416 31.8782 22.3505 31.7704 22.3061C31.6625 22.2618 31.5469 22.2396 31.4303 22.2408Z" fill="#6A6A6A" stroke="#6A6A6A" stroke-width="0.332173"/>
</svg>
