<svg width="63" height="62" viewBox="0 0 63 62" fill="none" xmlns="http://www.w3.org/2000/svg">
<circle cx="31.2542" cy="30.9417" r="30.9417" fill="#720C20"/>
<path d="M41.9306 36.8652C38.9405 36.8652 36.5078 39.2979 36.5078 42.288C36.5078 45.2781 38.9405 47.7108 41.9306 47.7108C44.9207 47.7108 47.3533 45.2781 47.3533 42.288C47.3533 39.2979 44.9207 36.8652 41.9306 36.8652ZM39.7615 46.0395V45.5417C39.7615 44.6447 40.4914 43.9148 41.3883 43.9148H42.4729C43.3698 43.9148 44.0997 44.6447 44.0997 45.5417V46.0395C43.4609 46.4104 42.7212 46.6262 41.9306 46.6262C41.1399 46.6262 40.4003 46.4104 39.7615 46.0395ZM41.9306 42.8303C41.3324 42.8303 40.846 42.3439 40.846 41.7457C40.846 41.1476 41.3324 40.6612 41.9306 40.6612C42.5287 40.6612 43.0151 41.1476 43.0151 41.7457C43.0151 42.3439 42.5287 42.8303 41.9306 42.8303ZM45.1484 45.187C45.0253 44.257 44.4364 43.4772 43.6176 43.0922C43.9142 42.7213 44.0997 42.2571 44.0997 41.7457C44.0997 40.5495 43.1268 39.5766 41.9306 39.5766C40.7343 39.5766 39.7615 40.5495 39.7615 41.7457C39.7615 42.2571 39.9469 42.7213 40.2441 43.0927C39.4247 43.4772 38.8363 44.257 38.7133 45.1875C38.0191 44.4181 37.5924 43.4029 37.5924 42.288C37.5924 39.896 39.5386 37.9498 41.9306 37.9498C44.3226 37.9498 46.2688 39.896 46.2688 42.288C46.2688 43.4029 45.842 44.4181 45.1484 45.187Z" fill="white" stroke="white" stroke-width="0.627228"/>
<path d="M41.9306 25.4771C38.9405 25.4771 36.5078 27.9097 36.5078 30.8998C36.5078 33.8899 38.9405 36.3226 41.9306 36.3226C44.9207 36.3226 47.3533 33.8899 47.3533 30.8998C47.3533 27.9097 44.9207 25.4771 41.9306 25.4771ZM39.7615 34.6513V34.1535C39.7615 33.2565 40.4914 32.5266 41.3883 32.5266H42.4729C43.3698 32.5266 44.0997 33.2565 44.0997 34.1535V34.6513C43.4609 35.0222 42.7212 35.238 41.9306 35.238C41.1399 35.238 40.4003 35.0222 39.7615 34.6513ZM41.9306 31.4421C41.3324 31.4421 40.846 30.9557 40.846 30.3575C40.846 29.7594 41.3324 29.273 41.9306 29.273C42.5287 29.273 43.0151 29.7594 43.0151 30.3575C43.0151 30.9557 42.5287 31.4421 41.9306 31.4421ZM45.1484 33.7988C45.0253 32.8688 44.4364 32.089 43.6176 31.704C43.9142 31.3331 44.0997 30.8689 44.0997 30.3575C44.0997 29.1613 43.1268 28.1884 41.9306 28.1884C40.7343 28.1884 39.7615 29.1613 39.7615 30.3575C39.7615 30.8689 39.9469 31.3331 40.2441 31.7046C39.4247 32.089 38.8363 32.8688 38.7133 33.7994C38.0191 33.0299 37.5924 32.0147 37.5924 30.8998C37.5924 28.5078 39.5386 26.5616 41.9306 26.5616C44.3226 26.5616 46.2688 28.5078 46.2688 30.8998C46.2688 32.0147 45.842 33.0299 45.1484 33.7988Z" fill="white" stroke="white" stroke-width="0.627228"/>
<path d="M41.9306 14.0898C38.9405 14.0898 36.5078 16.5225 36.5078 19.5126C36.5078 22.5027 38.9405 24.9354 41.9306 24.9354C44.9207 24.9354 47.3533 22.5027 47.3533 19.5126C47.3533 16.5225 44.9207 14.0898 41.9306 14.0898ZM39.7615 23.2641V22.7663C39.7615 21.8693 40.4914 21.1394 41.3883 21.1394H42.4729C43.3698 21.1394 44.0997 21.8693 44.0997 22.7663V23.2641C43.4609 23.635 42.7212 23.8508 41.9306 23.8508C41.1399 23.8508 40.4003 23.635 39.7615 23.2641ZM41.9306 20.0549C41.3324 20.0549 40.846 19.5685 40.846 18.9703C40.846 18.3722 41.3324 17.8858 41.9306 17.8858C42.5287 17.8858 43.0151 18.3722 43.0151 18.9703C43.0151 19.5685 42.5287 20.0549 41.9306 20.0549ZM45.1484 22.4116C45.0253 21.4816 44.4364 20.7018 43.6176 20.3168C43.9142 19.9459 44.0997 19.4817 44.0997 18.9703C44.0997 17.7741 43.1268 16.8012 41.9306 16.8012C40.7343 16.8012 39.7615 17.7741 39.7615 18.9703C39.7615 19.4817 39.9469 19.9459 40.2441 20.3173C39.4247 20.7018 38.8363 21.4816 38.7133 22.4122C38.0191 21.6427 37.5924 20.6275 37.5924 19.5126C37.5924 17.1206 39.5386 15.1744 41.9306 15.1744C44.3226 15.1744 46.2688 17.1206 46.2688 19.5126C46.2688 20.6275 45.842 21.6427 45.1484 22.4116Z" fill="white" stroke="white" stroke-width="0.627228"/>
<path d="M14.261 40.6614H26.1911C26.4904 40.6614 26.7334 40.4185 26.7334 40.1192V37.95H25.6488V39.5769H14.8033V24.3931H25.6488V28.1891H26.7334V23.8509C26.7334 23.5515 26.4904 23.3086 26.1911 23.3086H14.261C13.9617 23.3086 13.7188 23.5515 13.7188 23.8509V40.1192C13.7188 40.4185 13.9617 40.6614 14.261 40.6614Z" fill="white" stroke="white" stroke-width="0.627228"/>
<path d="M26.3052 36.8369C26.3605 36.8554 26.4185 36.8646 26.4765 36.8646H28.6456C29.5426 36.8646 30.2725 36.1347 30.2725 35.2377V35.145C30.9037 34.9211 31.357 34.318 31.357 33.6109V33.5182C31.9882 33.2942 32.4416 32.6912 32.4416 31.9841H34.0684C34.8157 31.9841 35.4241 31.3757 35.4241 30.6284C35.4241 29.8811 34.8157 29.2727 34.0684 29.2727H26.9689C26.5394 29.2727 26.123 29.3985 25.7656 29.6371L24.6854 30.3573H21.8672V31.4418H24.8497C24.9565 31.4418 25.0617 31.4098 25.1507 31.3507L26.3675 30.5395C26.5465 30.4202 26.7542 30.3573 26.9689 30.3573H34.0684C34.2181 30.3573 34.3395 30.4787 34.3395 30.6284C34.3395 30.7781 34.2181 30.8995 34.0684 30.8995H31.8993C31.6 30.8995 31.357 31.1425 31.357 31.4418V31.9841C31.357 32.2829 31.1135 32.5264 30.8147 32.5264C30.5154 32.5264 30.2725 32.7693 30.2725 33.0686V33.6109C30.2725 33.9097 30.029 34.1532 29.7302 34.1532C29.4309 34.1532 29.1879 34.3961 29.1879 34.6955V35.2377C29.1879 35.5365 28.9444 35.78 28.6456 35.78H26.5644L25.0211 35.2654C24.9658 35.247 24.9077 35.2377 24.8497 35.2377H21.8672V36.3223H24.7619L26.3052 36.8369Z" fill="white" stroke="white" stroke-width="0.627228"/>
<path d="M21.8474 25.4771H18.5938V26.5616H21.8474V25.4771Z" fill="white" stroke="white" stroke-width="0.627228"/>
<path d="M18.5942 27.6465H15.8828V28.731H18.5942V27.6465Z" fill="white" stroke="white" stroke-width="0.627228"/>
<path d="M22.9255 27.6465H19.6719V28.731H22.9255V27.6465Z" fill="white" stroke="white" stroke-width="0.627228"/>
<path d="M21.8478 37.4077H15.8828V38.4923H21.8478V37.4077Z" fill="white" stroke="white" stroke-width="0.627228"/>
<path d="M18.0519 29.8162H15.8828V30.9007H18.0519V29.8162Z" fill="white" stroke="white" stroke-width="0.627228"/>
<path d="M18.5942 34.6965H15.8828V35.7811H18.5942V34.6965Z" fill="white" stroke="white" stroke-width="0.627228"/>
<path d="M18.5942 31.9846H15.8828V33.0692H18.5942V31.9846Z" fill="white" stroke="white" stroke-width="0.627228"/>
<path d="M36.0103 33.8637L34.4766 35.3975L35.2434 36.1643L36.7772 34.6306L36.0103 33.8637Z" fill="white" stroke="white" stroke-width="0.627228"/>
<path d="M35.2434 25.0942L34.4766 25.8611L36.0103 27.3949L36.7772 26.628L35.2434 25.0942Z" fill="white" stroke="white" stroke-width="0.627228"/>
</svg>
