<svg width="62" height="62" viewBox="0 0 62 62" fill="none" xmlns="http://www.w3.org/2000/svg">
<circle cx="30.9417" cy="30.9417" r="30.9417" fill="#D9D9D9"/>
<path d="M47.4337 17.3269H25.1203V25.3793C22.335 25.6669 20.1554 28.0272 20.1554 30.8873C20.1554 32.2539 20.6603 33.5553 21.5472 34.5572C18.0607 36.1538 15.7969 39.6218 15.7969 43.5477V44.1369L16.3666 44.2867C19.3945 45.0834 22.5325 45.4873 25.6936 45.4873C28.8537 45.4873 31.9915 45.0834 35.0198 44.2873L35.6084 44.1329L35.589 43.4518C35.5531 39.6345 33.3739 36.2673 30.0198 34.6478H47.4337V17.3269ZM28.1692 35.5524C31.5048 36.584 33.8043 39.5173 34.041 42.9587C28.6035 44.2867 22.7804 44.2864 17.3453 42.9584C17.5823 39.517 19.8818 36.5837 23.2173 35.5524L24.7236 35.0864L23.4246 34.1927C22.3345 33.4427 21.6837 32.2071 21.6837 30.8873C21.6837 28.8714 23.1806 27.203 25.1203 26.9236C25.3079 26.8966 25.4982 26.8778 25.6932 26.8778C26.0229 26.8778 26.3418 26.9222 26.6487 26.9977C28.1188 27.3591 29.2717 28.5303 29.6033 30.0118C29.6442 30.1942 29.6717 30.3812 29.6866 30.5721C29.6948 30.6764 29.7026 30.7809 29.7026 30.8873C29.7026 31.6938 29.4572 32.4674 29.0194 33.1194C28.7408 33.5344 28.3858 33.901 27.9619 34.1927L27.3005 34.6478L26.663 35.0864L28.1692 35.5524ZM45.9054 33.1194H30.7546C31.0612 32.425 31.2309 31.668 31.2309 30.8873C31.2309 30.7809 31.2209 30.677 31.2149 30.5721H40.1996V29.0437H30.9087C30.25 27.1866 28.6309 25.7847 26.6487 25.4379V18.8552H45.9054V33.1194Z" fill="#6A6A6A"/>
<path d="M42.9488 21.301H29.6016V22.8293H42.9488V21.301Z" fill="#6A6A6A"/>
<path d="M42.9488 25.1726H29.6016V26.7009H42.9488V25.1726Z" fill="#6A6A6A"/>
</svg>
