<svg width="62" height="62" viewBox="0 0 62 62" fill="none" xmlns="http://www.w3.org/2000/svg">
<circle cx="30.9417" cy="30.9417" r="30.9417" fill="#720C20"/>
<mask id="path-2-inside-1_1303_1063" fill="white">
<path d="M48.4179 16.8377C47.8223 16.4699 46.8322 16.2398 45.4962 17.2326C45.252 17.4151 45.0479 17.6244 44.8679 17.8093L44.7566 17.9228C44.5643 18.1188 44.3758 18.3184 44.1873 18.5181C43.8459 18.8795 43.5237 19.2209 43.1801 19.5405C41.8935 20.738 40.4328 21.6617 38.8382 22.2867C36.5863 23.1695 34.1229 23.5777 31.7411 23.9722C30.7814 24.1311 29.7891 24.2955 28.8157 24.4896C27.4225 24.7668 25.5789 25.3973 24.2937 26.3603C23.1926 25.9662 22.109 25.4422 21.1248 24.71C19.5383 23.5299 18.6755 21.8198 17.979 20.148L17.747 19.5857C17.374 18.6773 16.9881 17.738 16.4871 16.8429C16.1138 16.1749 15.4484 15.8439 14.659 15.9355C14.1755 15.9912 13.526 16.2528 13.1798 17.1806C12.9761 17.725 12.9764 18.2579 13.0069 18.75C13.0618 19.6848 13.1894 20.6178 13.3861 21.5229C13.7235 23.0753 14.2734 24.6057 15.0197 26.0705C15.2428 26.5091 15.5011 26.9185 15.7508 27.3144C16.1368 27.9256 16.5008 28.5031 16.702 29.1258C18.0146 33.1835 18.392 38.5289 17.7645 44.1772C17.6598 45.1131 18.4948 45.9303 23.7178 48.2961L23.9883 48.4189C24.0881 48.4646 24.3601 48.5707 24.6837 48.695C25.0252 48.8264 25.7065 49.0888 25.9325 49.1968C25.9741 49.2298 26.0194 49.2587 26.0676 49.2836C26.189 49.3459 26.3214 49.3771 26.4536 49.3771C26.6083 49.3771 26.7627 49.3344 26.8985 49.2498C27.9161 48.6163 29.6555 46.6762 30.663 45.3024C30.6649 45.463 30.6571 45.6352 30.6515 45.7473C30.6441 45.8887 30.6382 46.0175 30.6389 46.1232C30.646 47.1508 30.6678 48.2501 30.7076 49.5827C30.7202 50.0099 31.0508 50.3598 31.4769 50.3965C31.6127 50.408 31.8368 50.414 32.1619 50.414C33.4345 50.414 36.4456 50.3175 37.6421 50.0941C38.0384 50.0202 38.3271 49.6751 38.3297 49.2717C38.3334 48.7036 38.3487 48.0389 38.3646 47.3516C38.391 46.2223 38.4184 45.0548 38.3991 44.1189C38.3984 44.0725 38.3988 44.035 38.3995 44.0057C38.4114 43.999 38.4233 43.9923 38.4362 43.9849C38.5171 43.9378 38.6077 43.8844 38.7105 43.8179C39.3655 43.3897 39.9485 42.9959 40.4558 42.5146C40.5315 42.443 40.612 42.3684 40.6955 42.2908C41.4927 41.5545 42.5848 40.5459 42.4824 39.224C42.4401 38.6658 42.1655 38.2484 41.7461 38.0361C41.8842 36.6496 41.8671 34.3154 41.8289 31.6749C41.817 30.8448 41.8066 30.1278 41.817 29.8469C41.84 29.2609 42.0716 28.3903 42.1391 28.2355C42.4409 27.6584 42.8509 27.3059 43.2851 26.9322L43.5828 26.6728C44.181 26.1454 44.7792 25.6181 45.3733 25.087C46.5717 24.0171 47.5863 22.8552 48.4892 21.5122C48.9022 20.8969 49.4169 20.1313 49.496 19.2235C49.5631 18.4375 49.1701 17.3012 48.4179 16.8377ZM26.3712 47.5509C26.098 47.4347 25.7451 47.2985 25.2887 47.1234C25.0099 47.0161 24.7747 46.9267 24.6893 46.8877L24.4128 46.7619C20.8083 45.1291 19.764 44.4139 19.4645 44.1267C19.8319 40.6594 20.1303 34.2508 18.3052 28.6077C18.0391 27.7835 17.6001 27.088 17.1759 26.4152C16.9358 26.0348 16.7094 25.6756 16.5212 25.306C15.8403 23.9693 15.3393 22.5761 15.0324 21.1648C14.8542 20.3447 14.7384 19.4989 14.6883 18.6483C14.6665 18.2917 14.6698 18.0056 14.7581 17.7695C14.8064 17.6397 14.8442 17.6059 14.8531 17.6077C14.9459 17.5981 14.9793 17.6118 14.9793 17.6118C14.983 17.6144 14.9978 17.6289 15.0171 17.6638C15.4688 18.4709 15.8187 19.3226 16.1891 20.2248L16.4244 20.7948C17.213 22.6886 18.2064 24.6373 20.1195 26.0605C22.4697 27.8095 25.2181 28.4994 27.5958 28.9436C28.6223 29.1358 29.422 29.2475 30.1884 29.3065L30.2463 29.311C30.6704 29.3433 30.869 29.3737 30.9198 29.4631C30.9384 29.5032 30.9477 29.5622 30.9503 29.6286C30.9495 29.6357 30.9506 29.6431 30.9506 29.6498C30.954 29.8632 30.8879 30.1497 30.8 30.2272C30.0915 30.7015 28.5262 30.7605 27.4904 30.7991C26.4421 30.8385 25.921 30.8681 25.5369 31.1068C25.289 31.2604 25.1257 31.5087 25.0511 31.8456C24.7795 33.0747 25.6471 37.0037 26.7571 39.4686C26.1103 39.9002 26.2109 40.6539 26.248 40.9107L26.2602 40.9994C26.327 41.5686 26.5868 42.0934 27.0124 42.5191C27.7205 43.2227 28.4872 43.8216 29.3007 44.3145C28.5162 45.3829 27.2039 46.8595 26.3712 47.5509ZM39.5522 41.0547C39.4631 41.1371 39.377 41.2165 39.2961 41.2933C38.9276 41.6432 38.4819 41.9553 37.7894 42.4077C37.7148 42.4563 37.6476 42.4949 37.5879 42.5298C37.0075 42.8675 36.6961 43.2264 36.7143 44.153C36.7329 45.0526 36.7061 46.2019 36.6798 47.313C36.6705 47.732 36.6605 48.1428 36.6538 48.5291C35.4919 48.6471 33.5907 48.7217 32.3683 48.7295C32.343 47.7591 32.3286 46.9126 32.323 46.1103C32.3222 46.0323 32.3278 45.9384 32.333 45.8356C32.3679 45.1743 32.4325 43.943 31.393 43.5017C30.2322 43.0089 29.1578 42.276 28.2007 41.3259C28.1254 41.2506 28.066 41.1723 28.0222 41.0899C29.7538 41.8692 31.7741 42.6252 33.8523 42.6252C34.6639 42.6252 35.4455 42.5072 36.1751 42.2745C36.9273 42.0348 37.7189 41.6202 38.4043 41.107L38.4674 41.0595C39.6917 40.1351 40.3883 39.7818 40.7505 39.6471C40.5708 40.1139 39.9734 40.6657 39.5522 41.0547ZM47.0752 20.5959C46.2666 21.7979 45.3429 22.8563 44.2507 23.8312C43.6585 24.36 43.0636 24.8852 42.4679 25.4103L42.1852 25.6567C41.7005 26.0738 41.0971 26.593 40.6462 27.4547C40.445 27.8384 40.163 29.0115 40.1329 29.7845C40.1211 30.11 40.1307 30.7772 40.1441 31.7002C40.1686 33.4344 40.2176 36.8289 40.0465 38.1174C39.3573 38.3942 38.5079 38.9178 37.4521 39.7153L37.3942 39.7591C36.8561 40.1622 36.2415 40.4854 35.6637 40.6695C35.0992 40.8494 34.4899 40.9404 33.8523 40.9404C32.074 40.9407 30.2552 40.2479 28.6809 39.538C27.5621 37.659 26.707 33.8025 26.6758 32.5266C26.9304 32.5051 27.2744 32.4925 27.5531 32.4821C28.7225 32.4383 30.1331 32.3815 31.21 31.9076C31.3132 32.8443 31.4026 33.7398 31.4561 34.2838C30.751 34.7945 30.3279 35.5994 30.2596 36.6385C30.1969 37.59 30.5394 38.5642 31.1763 39.2444C31.7641 39.8723 32.5687 40.2182 33.4419 40.2182C33.5287 40.2182 33.617 40.2149 33.7057 40.2082C35.5082 40.0731 36.8679 38.6651 36.8679 36.9339C36.8679 35.1273 35.421 33.6574 33.6426 33.6574C33.4508 33.6574 33.2678 33.6707 33.0904 33.6912C32.9836 32.6205 32.8028 30.8819 32.6299 29.6001C32.6188 29.242 32.5379 28.9028 32.3868 28.6363C31.8817 27.7471 30.9748 27.6777 30.3747 27.6321L30.3186 27.6276C29.6146 27.5735 28.8706 27.4688 27.9057 27.2884C27.4544 27.2042 26.9887 27.1099 26.5163 27.0008C27.3683 26.6041 28.3332 26.3028 29.1448 26.1414C30.0915 25.9528 31.0701 25.7907 32.0168 25.6337C34.4843 25.2251 37.0361 24.8024 39.4531 23.8546C41.2455 23.1521 42.8858 22.1152 44.3279 20.7733C44.7109 20.4167 45.0676 20.0392 45.4123 19.6741C45.5934 19.4822 45.7749 19.29 45.9571 19.1044L46.0747 18.9842C46.2243 18.8302 46.3657 18.6851 46.5026 18.583C47.1996 18.0646 47.4423 18.2145 47.5302 18.2679C47.6579 18.3637 47.8394 18.8328 47.8178 19.0792C47.7759 19.5531 47.4118 20.0953 47.0752 20.5959ZM31.94 36.7491C31.9827 36.0937 32.2154 35.3418 33.6423 35.3418C34.4921 35.3418 35.1831 36.0559 35.1831 36.9339C35.1831 37.9017 34.3763 38.4692 33.5784 38.5289C33.5321 38.5326 33.4864 38.5345 33.4419 38.5345C33.0281 38.5345 32.6793 38.386 32.4054 38.0936C32.0862 37.7526 31.9077 37.2371 31.94 36.7491ZM24.005 24.2405C26.2398 24.2405 28.0579 22.4221 28.0579 20.1873C28.0579 17.9525 26.2398 16.1337 24.005 16.1337C21.7698 16.1337 19.9514 17.9521 19.9514 20.1869C19.9514 22.4217 21.7698 24.2405 24.005 24.2405ZM24.005 17.8178C25.3113 17.8178 26.3738 18.8806 26.3738 20.1869C26.3738 21.4932 25.3109 22.5561 24.005 22.5561C22.6983 22.5561 21.6355 21.4932 21.6355 20.1869C21.6355 18.8806 22.6983 17.8178 24.005 17.8178ZM34.7593 22.4414C37.1366 22.4414 39.0712 20.5072 39.0712 18.1295C39.0712 15.7663 36.885 13.6143 34.4854 13.6143C33.345 13.6143 32.2503 14.1075 31.4821 14.9673C30.6935 15.8502 30.3183 17.0374 30.453 18.2238C30.7283 20.6679 32.539 22.4414 34.7593 22.4414ZM32.7383 16.0895C33.194 15.5796 33.8141 15.2987 34.4854 15.2987C35.9498 15.2987 37.3867 16.7011 37.3867 18.1295C37.3867 19.5783 36.2081 20.7573 34.7593 20.7573C33.1609 20.7573 32.2744 19.3464 32.1263 18.0349C32.0458 17.3242 32.2688 16.615 32.7383 16.0895Z"/>
</mask>
<path d="M48.4179 16.8377C47.8223 16.4699 46.8322 16.2398 45.4962 17.2326C45.252 17.4151 45.0479 17.6244 44.8679 17.8093L44.7566 17.9228C44.5643 18.1188 44.3758 18.3184 44.1873 18.5181C43.8459 18.8795 43.5237 19.2209 43.1801 19.5405C41.8935 20.738 40.4328 21.6617 38.8382 22.2867C36.5863 23.1695 34.1229 23.5777 31.7411 23.9722C30.7814 24.1311 29.7891 24.2955 28.8157 24.4896C27.4225 24.7668 25.5789 25.3973 24.2937 26.3603C23.1926 25.9662 22.109 25.4422 21.1248 24.71C19.5383 23.5299 18.6755 21.8198 17.979 20.148L17.747 19.5857C17.374 18.6773 16.9881 17.738 16.4871 16.8429C16.1138 16.1749 15.4484 15.8439 14.659 15.9355C14.1755 15.9912 13.526 16.2528 13.1798 17.1806C12.9761 17.725 12.9764 18.2579 13.0069 18.75C13.0618 19.6848 13.1894 20.6178 13.3861 21.5229C13.7235 23.0753 14.2734 24.6057 15.0197 26.0705C15.2428 26.5091 15.5011 26.9185 15.7508 27.3144C16.1368 27.9256 16.5008 28.5031 16.702 29.1258C18.0146 33.1835 18.392 38.5289 17.7645 44.1772C17.6598 45.1131 18.4948 45.9303 23.7178 48.2961L23.9883 48.4189C24.0881 48.4646 24.3601 48.5707 24.6837 48.695C25.0252 48.8264 25.7065 49.0888 25.9325 49.1968C25.9741 49.2298 26.0194 49.2587 26.0676 49.2836C26.189 49.3459 26.3214 49.3771 26.4536 49.3771C26.6083 49.3771 26.7627 49.3344 26.8985 49.2498C27.9161 48.6163 29.6555 46.6762 30.663 45.3024C30.6649 45.463 30.6571 45.6352 30.6515 45.7473C30.6441 45.8887 30.6382 46.0175 30.6389 46.1232C30.646 47.1508 30.6678 48.2501 30.7076 49.5827C30.7202 50.0099 31.0508 50.3598 31.4769 50.3965C31.6127 50.408 31.8368 50.414 32.1619 50.414C33.4345 50.414 36.4456 50.3175 37.6421 50.0941C38.0384 50.0202 38.3271 49.6751 38.3297 49.2717C38.3334 48.7036 38.3487 48.0389 38.3646 47.3516C38.391 46.2223 38.4184 45.0548 38.3991 44.1189C38.3984 44.0725 38.3988 44.035 38.3995 44.0057C38.4114 43.999 38.4233 43.9923 38.4362 43.9849C38.5171 43.9378 38.6077 43.8844 38.7105 43.8179C39.3655 43.3897 39.9485 42.9959 40.4558 42.5146C40.5315 42.443 40.612 42.3684 40.6955 42.2908C41.4927 41.5545 42.5848 40.5459 42.4824 39.224C42.4401 38.6658 42.1655 38.2484 41.7461 38.0361C41.8842 36.6496 41.8671 34.3154 41.8289 31.6749C41.817 30.8448 41.8066 30.1278 41.817 29.8469C41.84 29.2609 42.0716 28.3903 42.1391 28.2355C42.4409 27.6584 42.8509 27.3059 43.2851 26.9322L43.5828 26.6728C44.181 26.1454 44.7792 25.6181 45.3733 25.087C46.5717 24.0171 47.5863 22.8552 48.4892 21.5122C48.9022 20.8969 49.4169 20.1313 49.496 19.2235C49.5631 18.4375 49.1701 17.3012 48.4179 16.8377ZM26.3712 47.5509C26.098 47.4347 25.7451 47.2985 25.2887 47.1234C25.0099 47.0161 24.7747 46.9267 24.6893 46.8877L24.4128 46.7619C20.8083 45.1291 19.764 44.4139 19.4645 44.1267C19.8319 40.6594 20.1303 34.2508 18.3052 28.6077C18.0391 27.7835 17.6001 27.088 17.1759 26.4152C16.9358 26.0348 16.7094 25.6756 16.5212 25.306C15.8403 23.9693 15.3393 22.5761 15.0324 21.1648C14.8542 20.3447 14.7384 19.4989 14.6883 18.6483C14.6665 18.2917 14.6698 18.0056 14.7581 17.7695C14.8064 17.6397 14.8442 17.6059 14.8531 17.6077C14.9459 17.5981 14.9793 17.6118 14.9793 17.6118C14.983 17.6144 14.9978 17.6289 15.0171 17.6638C15.4688 18.4709 15.8187 19.3226 16.1891 20.2248L16.4244 20.7948C17.213 22.6886 18.2064 24.6373 20.1195 26.0605C22.4697 27.8095 25.2181 28.4994 27.5958 28.9436C28.6223 29.1358 29.422 29.2475 30.1884 29.3065L30.2463 29.311C30.6704 29.3433 30.869 29.3737 30.9198 29.4631C30.9384 29.5032 30.9477 29.5622 30.9503 29.6286C30.9495 29.6357 30.9506 29.6431 30.9506 29.6498C30.954 29.8632 30.8879 30.1497 30.8 30.2272C30.0915 30.7015 28.5262 30.7605 27.4904 30.7991C26.4421 30.8385 25.921 30.8681 25.5369 31.1068C25.289 31.2604 25.1257 31.5087 25.0511 31.8456C24.7795 33.0747 25.6471 37.0037 26.7571 39.4686C26.1103 39.9002 26.2109 40.6539 26.248 40.9107L26.2602 40.9994C26.327 41.5686 26.5868 42.0934 27.0124 42.5191C27.7205 43.2227 28.4872 43.8216 29.3007 44.3145C28.5162 45.3829 27.2039 46.8595 26.3712 47.5509ZM39.5522 41.0547C39.4631 41.1371 39.377 41.2165 39.2961 41.2933C38.9276 41.6432 38.4819 41.9553 37.7894 42.4077C37.7148 42.4563 37.6476 42.4949 37.5879 42.5298C37.0075 42.8675 36.6961 43.2264 36.7143 44.153C36.7329 45.0526 36.7061 46.2019 36.6798 47.313C36.6705 47.732 36.6605 48.1428 36.6538 48.5291C35.4919 48.6471 33.5907 48.7217 32.3683 48.7295C32.343 47.7591 32.3286 46.9126 32.323 46.1103C32.3222 46.0323 32.3278 45.9384 32.333 45.8356C32.3679 45.1743 32.4325 43.943 31.393 43.5017C30.2322 43.0089 29.1578 42.276 28.2007 41.3259C28.1254 41.2506 28.066 41.1723 28.0222 41.0899C29.7538 41.8692 31.7741 42.6252 33.8523 42.6252C34.6639 42.6252 35.4455 42.5072 36.1751 42.2745C36.9273 42.0348 37.7189 41.6202 38.4043 41.107L38.4674 41.0595C39.6917 40.1351 40.3883 39.7818 40.7505 39.6471C40.5708 40.1139 39.9734 40.6657 39.5522 41.0547ZM47.0752 20.5959C46.2666 21.7979 45.3429 22.8563 44.2507 23.8312C43.6585 24.36 43.0636 24.8852 42.4679 25.4103L42.1852 25.6567C41.7005 26.0738 41.0971 26.593 40.6462 27.4547C40.445 27.8384 40.163 29.0115 40.1329 29.7845C40.1211 30.11 40.1307 30.7772 40.1441 31.7002C40.1686 33.4344 40.2176 36.8289 40.0465 38.1174C39.3573 38.3942 38.5079 38.9178 37.4521 39.7153L37.3942 39.7591C36.8561 40.1622 36.2415 40.4854 35.6637 40.6695C35.0992 40.8494 34.4899 40.9404 33.8523 40.9404C32.074 40.9407 30.2552 40.2479 28.6809 39.538C27.5621 37.659 26.707 33.8025 26.6758 32.5266C26.9304 32.5051 27.2744 32.4925 27.5531 32.4821C28.7225 32.4383 30.1331 32.3815 31.21 31.9076C31.3132 32.8443 31.4026 33.7398 31.4561 34.2838C30.751 34.7945 30.3279 35.5994 30.2596 36.6385C30.1969 37.59 30.5394 38.5642 31.1763 39.2444C31.7641 39.8723 32.5687 40.2182 33.4419 40.2182C33.5287 40.2182 33.617 40.2149 33.7057 40.2082C35.5082 40.0731 36.8679 38.6651 36.8679 36.9339C36.8679 35.1273 35.421 33.6574 33.6426 33.6574C33.4508 33.6574 33.2678 33.6707 33.0904 33.6912C32.9836 32.6205 32.8028 30.8819 32.6299 29.6001C32.6188 29.242 32.5379 28.9028 32.3868 28.6363C31.8817 27.7471 30.9748 27.6777 30.3747 27.6321L30.3186 27.6276C29.6146 27.5735 28.8706 27.4688 27.9057 27.2884C27.4544 27.2042 26.9887 27.1099 26.5163 27.0008C27.3683 26.6041 28.3332 26.3028 29.1448 26.1414C30.0915 25.9528 31.0701 25.7907 32.0168 25.6337C34.4843 25.2251 37.0361 24.8024 39.4531 23.8546C41.2455 23.1521 42.8858 22.1152 44.3279 20.7733C44.7109 20.4167 45.0676 20.0392 45.4123 19.6741C45.5934 19.4822 45.7749 19.29 45.9571 19.1044L46.0747 18.9842C46.2243 18.8302 46.3657 18.6851 46.5026 18.583C47.1996 18.0646 47.4423 18.2145 47.5302 18.2679C47.6579 18.3637 47.8394 18.8328 47.8178 19.0792C47.7759 19.5531 47.4118 20.0953 47.0752 20.5959ZM31.94 36.7491C31.9827 36.0937 32.2154 35.3418 33.6423 35.3418C34.4921 35.3418 35.1831 36.0559 35.1831 36.9339C35.1831 37.9017 34.3763 38.4692 33.5784 38.5289C33.5321 38.5326 33.4864 38.5345 33.4419 38.5345C33.0281 38.5345 32.6793 38.386 32.4054 38.0936C32.0862 37.7526 31.9077 37.2371 31.94 36.7491ZM24.005 24.2405C26.2398 24.2405 28.0579 22.4221 28.0579 20.1873C28.0579 17.9525 26.2398 16.1337 24.005 16.1337C21.7698 16.1337 19.9514 17.9521 19.9514 20.1869C19.9514 22.4217 21.7698 24.2405 24.005 24.2405ZM24.005 17.8178C25.3113 17.8178 26.3738 18.8806 26.3738 20.1869C26.3738 21.4932 25.3109 22.5561 24.005 22.5561C22.6983 22.5561 21.6355 21.4932 21.6355 20.1869C21.6355 18.8806 22.6983 17.8178 24.005 17.8178ZM34.7593 22.4414C37.1366 22.4414 39.0712 20.5072 39.0712 18.1295C39.0712 15.7663 36.885 13.6143 34.4854 13.6143C33.345 13.6143 32.2503 14.1075 31.4821 14.9673C30.6935 15.8502 30.3183 17.0374 30.453 18.2238C30.7283 20.6679 32.539 22.4414 34.7593 22.4414ZM32.7383 16.0895C33.194 15.5796 33.8141 15.2987 34.4854 15.2987C35.9498 15.2987 37.3867 16.7011 37.3867 18.1295C37.3867 19.5783 36.2081 20.7573 34.7593 20.7573C33.1609 20.7573 32.2744 19.3464 32.1263 18.0349C32.0458 17.3242 32.2688 16.615 32.7383 16.0895Z" fill="white" stroke="white" stroke-width="0.664346" mask="url(#path-2-inside-1_1303_1063)"/>
</svg>
