<svg width="62" height="62" viewBox="0 0 62 62" fill="none" xmlns="http://www.w3.org/2000/svg">
<circle cx="30.9417" cy="30.9419" r="30.9417" fill="#720C20"/>
<path d="M47.4337 17.3271H25.1203V25.3795C22.335 25.6671 20.1554 28.0274 20.1554 30.8875C20.1554 32.2542 20.6603 33.5555 21.5472 34.5574C18.0607 36.1541 15.7969 39.622 15.7969 43.5479V44.1371L16.3666 44.287C19.3945 45.0837 22.5325 45.4875 25.6936 45.4875C28.8537 45.4875 31.9915 45.0837 35.0198 44.2876L35.6084 44.1331L35.589 43.4521C35.5531 39.6348 33.3739 36.2675 30.0198 34.648H47.4337V17.3271ZM28.1692 35.5526C31.5048 36.5842 33.8043 39.5176 34.041 42.959C28.6035 44.287 22.7804 44.2867 17.3453 42.9587C17.5823 39.5173 19.8818 36.5839 23.2173 35.5526L24.7236 35.0866L23.4246 34.1929C22.3345 33.443 21.6837 32.2073 21.6837 30.8875C21.6837 28.8717 23.1806 27.2032 25.1203 26.9238C25.3079 26.8968 25.4982 26.8781 25.6932 26.8781C26.0229 26.8781 26.3418 26.9225 26.6487 26.9979C28.1188 27.3594 29.2717 28.5305 29.6033 30.012C29.6442 30.1945 29.6717 30.3815 29.6866 30.5723C29.6948 30.6766 29.7026 30.7811 29.7026 30.8875C29.7026 31.694 29.4572 32.4677 29.0194 33.1197C28.7408 33.5347 28.3858 33.9013 27.9619 34.1929L27.3005 34.648L26.663 35.0866L28.1692 35.5526ZM45.9054 33.1197H30.7546C31.0612 32.4253 31.2309 31.6682 31.2309 30.8875C31.2309 30.7811 31.2209 30.6772 31.2149 30.5723H40.1996V29.044H30.9087C30.25 27.1869 28.6309 25.785 26.6487 25.4381V18.8555H45.9054V33.1197Z" fill="white"/>
<path d="M42.9488 21.3013H29.6016V22.8296H42.9488V21.3013Z" fill="white"/>
<path d="M42.9488 25.1729H29.6016V26.7012H42.9488V25.1729Z" fill="white"/>
</svg>
