<svg width="322" height="246" viewBox="0 0 322 246" fill="none" xmlns="http://www.w3.org/2000/svg">
<path d="M322 0H0V246H322V0Z" fill="white"/>
<path d="M127.687 55.4004C126.167 55.4004 124.68 55.8513 123.416 56.696C122.152 57.5407 121.167 58.7413 120.585 60.146C120.003 61.5507 119.851 63.0963 120.147 64.5875C120.444 66.0788 121.176 67.4485 122.251 68.5236C123.326 69.5987 124.696 70.3309 126.187 70.6275C127.678 70.9241 129.224 70.7719 130.629 70.1901C132.033 69.6082 133.234 68.6229 134.079 67.3587C134.923 66.0945 135.374 64.6082 135.374 63.0878C135.374 61.049 134.564 59.0937 133.123 57.652C131.681 56.2103 129.726 55.4004 127.687 55.4004ZM127.687 65.6503C127.18 65.6503 126.685 65.5 126.263 65.2184C125.842 64.9369 125.513 64.5367 125.32 64.0684C125.126 63.6002 125.075 63.085 125.174 62.5879C125.273 62.0908 125.517 61.6342 125.875 61.2759C126.233 60.9175 126.69 60.6734 127.187 60.5746C127.684 60.4757 128.199 60.5264 128.668 60.7204C129.136 60.9143 129.536 61.2428 129.818 61.6642C130.099 62.0856 130.249 62.581 130.249 63.0878C130.249 63.7674 129.979 64.4192 129.499 64.8997C129.018 65.3803 128.367 65.6503 127.687 65.6503Z" fill="#720C20"/>
<path d="M81.5625 152.774H173.811C174.491 152.774 175.143 152.504 175.623 152.024C176.104 151.543 176.374 150.891 176.374 150.212V130.686C176.369 130.096 176.161 129.526 175.785 129.071C171.002 122.974 164.349 118.617 156.848 116.669C154.52 115.997 152.249 115.14 150.057 114.107C146.75 112.54 143.665 110.541 140.884 108.162V103.472C142.159 102.459 143.334 101.326 144.394 100.09C148.949 94.8243 151.233 87.97 150.749 81.025H155.874C156.554 81.025 157.206 80.755 157.686 80.2745C158.167 79.7939 158.437 79.1421 158.437 78.4625C158.437 77.7829 158.167 77.1311 157.686 76.6506C157.206 76.17 156.554 75.9001 155.874 75.9001V73.3376C155.874 65.8619 152.904 58.6924 147.618 53.4062C142.332 48.1201 135.163 45.1504 127.687 45.1504C120.211 45.1504 113.042 48.1201 107.756 53.4062C102.469 58.6924 99.4998 65.8619 99.4998 73.3376V75.9001C98.8202 75.9001 98.1684 76.17 97.6878 76.6506C97.2073 77.1311 96.9373 77.7829 96.9373 78.4625C96.9373 79.1421 97.2073 79.7939 97.6878 80.2745C98.1684 80.755 98.8202 81.025 99.4998 81.025H104.625C104.112 87.9559 106.36 94.8085 110.877 100.09C111.937 101.326 113.113 102.459 114.388 103.472V108.238C111.607 110.618 108.522 112.617 105.214 114.183C103.023 115.217 100.752 116.074 98.4235 116.746C95.8659 117.387 93.3835 118.297 91.018 119.462C86.605 121.826 82.7171 125.06 79.5894 128.969C79.2129 129.423 79.0048 129.993 79 130.583V150.212C79 150.891 79.27 151.543 79.7505 152.024C80.2311 152.504 80.8829 152.774 81.5625 152.774ZM171.249 131.634V147.649H160.999V123.613L161.973 124.1C165.521 125.99 168.671 128.549 171.249 131.634ZM155.387 121.589L155.874 121.717V147.649H148.187V118.95C150.517 120.01 152.924 120.892 155.387 121.589ZM104.625 73.3376C104.625 67.2211 107.054 61.3551 111.38 57.0301C115.705 52.7051 121.57 50.2753 127.687 50.2753C133.803 50.2753 139.669 52.7051 143.994 57.0301C148.319 61.3551 150.749 67.2211 150.749 73.3376V75.9001H104.625V73.3376ZM109.878 81.025H145.624C145.888 83.8584 145.57 86.716 144.689 89.4217C143.807 92.1275 142.382 94.6244 140.499 96.7586C138.947 98.6919 137.003 100.274 134.794 101.4C132.586 102.527 130.163 103.172 127.687 103.293C125.211 103.172 122.788 102.527 120.58 101.4C118.371 100.274 116.427 98.6919 114.875 96.7586C113.015 94.614 111.613 92.1125 110.753 89.4072C109.894 86.7018 109.596 83.8495 109.878 81.025ZM118.744 111.313C119.014 111.076 119.231 110.785 119.381 110.458C119.531 110.131 119.611 109.777 119.615 109.417V106.65C122.145 107.829 124.896 108.458 127.687 108.495C130.478 108.458 133.229 107.829 135.759 106.65V109.494C135.763 109.854 135.843 110.208 135.993 110.535C136.143 110.862 136.36 111.153 136.63 111.39C138.634 113.159 140.786 114.754 143.062 116.157V147.649H112.312V116.157C114.591 114.729 116.743 113.109 118.744 111.313ZM107.187 118.95V147.649H99.4998V121.717L99.9866 121.589C102.45 120.892 104.857 120.01 107.187 118.95ZM84.1249 131.634C86.7029 128.549 89.8527 125.99 93.4011 124.1L94.3748 123.613V147.649H84.1249V131.634Z" fill="#720C20"/>
<path d="M196.669 144.73C197.03 145.003 197.458 145.176 197.908 145.23C198.359 145.284 198.815 145.217 199.231 145.037C199.636 144.873 199.992 144.608 200.266 144.267C200.54 143.926 200.721 143.521 200.794 143.09L203.152 128.458C203.157 128.395 203.176 128.335 203.207 128.28C203.239 128.226 203.281 128.179 203.332 128.142C203.384 128.106 203.442 128.081 203.504 128.069C203.565 128.057 203.629 128.059 203.69 128.074L212.658 129.509C212.777 129.533 212.881 129.604 212.948 129.704C213.015 129.805 213.04 129.928 213.017 130.047L210.66 144.678C210.6 145.048 210.622 145.425 210.723 145.785C210.825 146.145 211.004 146.479 211.248 146.762C211.493 147.045 211.796 147.271 212.137 147.425C212.478 147.579 212.848 147.656 213.222 147.651C213.477 147.69 213.736 147.69 213.991 147.651C216.981 146.699 219.691 145.028 221.884 142.784C224.076 140.54 225.685 137.792 226.568 134.781C227.451 131.771 227.581 128.589 226.948 125.516C226.314 122.444 224.936 119.573 222.934 117.158C222.622 116.772 222.288 116.404 221.935 116.056L227.623 80.4117C231.958 78.1207 235.243 74.248 236.797 69.598C238.064 65.744 238.082 61.5885 236.849 57.7236C235.616 53.8586 233.194 50.4815 229.93 48.0733C229.601 47.8351 229.221 47.6784 228.82 47.6161C228.419 47.5537 228.009 47.5874 227.623 47.7145C227.218 47.8789 226.862 48.1441 226.588 48.485C226.315 48.8258 226.133 49.231 226.06 49.662L223.677 64.3193C223.67 64.3768 223.651 64.432 223.62 64.4808C223.589 64.5296 223.547 64.5707 223.498 64.6012C223.391 64.6453 223.271 64.6453 223.165 64.6012L214.196 63.1662C214.135 63.1569 214.077 63.1355 214.024 63.1032C213.971 63.071 213.926 63.0285 213.89 62.9783C213.854 62.9282 213.829 62.8713 213.815 62.8112C213.802 62.751 213.801 62.6888 213.812 62.6281L216.195 47.9964C216.264 47.5617 216.221 47.1164 216.068 46.7035C215.915 46.2906 215.659 45.9239 215.323 45.6389C214.979 45.3358 214.56 45.1307 214.109 45.045C213.658 44.9594 213.193 44.9963 212.761 45.152C209.773 46.1055 207.064 47.7757 204.87 50.0169C202.676 52.2581 201.064 55.0022 200.174 58.0097C199.285 61.0172 199.145 64.1967 199.766 67.2707C200.388 70.3448 201.753 73.22 203.741 75.6455C204.049 76.0298 204.407 76.3886 204.74 76.7473L198.949 112.417C196.081 113.929 193.645 116.149 191.873 118.865C190.101 121.581 189.052 124.704 188.823 127.939C188.595 131.174 189.196 134.414 190.568 137.352C191.941 140.29 194.041 142.829 196.669 144.73ZM204.766 61.2956C205.356 57.6921 207.322 54.4584 210.25 52.2757L208.687 61.9362C208.45 63.3972 208.803 64.8924 209.668 66.0935C210.532 67.2946 211.838 68.1035 213.299 68.3424L222.268 69.803C223.732 70.0322 225.227 69.6732 226.427 68.8043C227.627 67.9354 228.435 66.6271 228.674 65.1649L230.186 55.53C231.685 57.685 232.552 60.2166 232.688 62.8384C232.823 65.4603 232.223 68.0678 230.954 70.3661C229.685 72.6643 227.798 74.5616 225.506 75.8433C223.215 77.1249 220.611 77.7399 217.988 77.6186C216.008 77.5213 214.071 77.0075 212.303 76.1105C210.535 75.2135 208.976 73.9536 207.728 72.413C206.48 70.8725 205.571 69.0861 205.061 67.1703C204.551 65.2546 204.45 63.2528 204.766 61.2956ZM209.353 80.3092C211.932 81.7928 214.815 82.6692 217.783 82.8716H218.706C219.886 82.8593 221.062 82.7305 222.216 82.4873L217.373 112.494C214.794 111.01 211.911 110.134 208.943 109.931C207.455 109.88 205.967 110.009 204.51 110.316L209.353 80.3092ZM194.644 124.794C195.634 121.901 197.529 119.404 200.049 117.673C202.569 115.942 205.58 115.069 208.635 115.184C211.522 115.343 214.29 116.386 216.564 118.172C218.839 119.957 220.508 122.399 221.348 125.166C222.187 127.932 222.155 130.89 221.256 133.638C220.357 136.386 218.635 138.791 216.323 140.527L217.886 130.867C218.123 129.406 217.77 127.911 216.905 126.709C216.04 125.508 214.734 124.7 213.273 124.461L204.561 123C204.263 122.975 203.963 122.975 203.664 123C202.337 123.007 201.054 123.485 200.046 124.348C199.037 125.211 198.367 126.404 198.155 127.715L196.464 137.401C195.205 135.584 194.385 133.499 194.07 131.312C193.754 129.124 193.951 126.892 194.644 124.794Z" fill="#720C20"/>
<path d="M241.128 173.273L223.19 168.148C222.837 168.05 222.466 168.029 222.104 168.087C221.741 168.144 221.395 168.279 221.089 168.481L214.042 173.273H171.249V170.711C171.249 170.031 170.979 169.379 170.498 168.899C170.018 168.418 169.366 168.148 168.687 168.148H158.437V163.023C158.437 162.344 158.167 161.692 157.686 161.211C157.206 160.731 156.554 160.461 155.874 160.461H99.4998C94.0629 160.461 88.8487 162.621 85.0042 166.465C81.1598 170.31 79 175.524 79 180.961C79 186.398 81.1598 191.612 85.0042 195.456C88.8487 199.301 94.0629 201.46 99.4998 201.46H155.874C156.554 201.46 157.206 201.191 157.686 200.71C158.167 200.229 158.437 199.578 158.437 198.898V193.773H168.687C169.366 193.773 170.018 193.503 170.498 193.023C170.979 192.542 171.249 191.89 171.249 191.211V188.648H214.042L221.089 193.337C221.506 193.618 221.996 193.769 222.498 193.773C222.728 193.81 222.961 193.81 223.19 193.773L241.128 188.648C241.682 188.493 242.168 188.156 242.507 187.691C242.847 187.226 243.02 186.661 242.998 186.086V175.836C243.02 175.261 242.847 174.695 242.507 174.23C242.168 173.765 241.682 173.428 241.128 173.273ZM153.312 178.398H104.625V165.586H153.312V178.398ZM84.1249 180.961C84.1249 176.883 85.7448 172.972 88.6281 170.089C91.5115 167.206 95.4221 165.586 99.4998 165.586V196.336C95.4221 196.336 91.5115 194.716 88.6281 191.832C85.7448 188.949 84.1249 185.038 84.1249 180.961ZM104.625 196.336V183.523H153.312V196.336H104.625ZM166.124 188.648H158.437V173.273H166.124V188.648ZM171.249 178.398H212.249V183.523H171.249V178.398ZM237.873 184.164L222.934 188.418L217.374 184.702V177.22L222.934 173.504L237.873 177.758V184.164Z" fill="#720C20"/>
</svg>
