<svg width="27" height="27" viewBox="0 0 27 27" fill="none" xmlns="http://www.w3.org/2000/svg">
<path fill-rule="evenodd" clip-rule="evenodd" d="M13.5 0C20.9558 0 27 6.04416 27 13.5C27 20.9558 20.9558 27 13.5 27H4.10742C3.36184 27 2.75742 26.3956 2.75742 25.65L2.7567 21.6756L2.52617 21.3645L2.27449 21.0015C1.78272 20.2669 1.36388 19.4854 1.02483 18.6678C0.351181 17.0432 0 15.2949 0 13.5C0 6.04416 6.04416 0 13.5 0ZM13.5 2.7C7.53532 2.7 2.7 7.53532 2.7 13.5C2.7 14.9384 2.98062 16.3354 3.5189 17.6336C3.78987 18.287 4.12475 18.9119 4.51814 19.4995C4.71488 19.7934 4.92595 20.0775 5.15052 20.3508C5.34895 20.5923 5.45742 20.8952 5.45742 21.2078L5.4567 24.3H13.5C19.3521 24.3 24.1171 19.6454 24.2949 13.8364L24.3 13.5C24.3 7.53532 19.4647 2.7 13.5 2.7ZM13.5 17.55C14.2456 17.55 14.85 18.1544 14.85 18.9C14.85 19.6456 14.2456 20.25 13.5 20.25C12.7544 20.25 12.15 19.6456 12.15 18.9C12.15 18.1544 12.7544 17.55 13.5 17.55ZM13.5 6.75C14.1923 6.75 14.7629 7.27115 14.8409 7.94256L14.85 8.1V14.85C14.85 15.5956 14.2456 16.2 13.5 16.2C12.8077 16.2 12.2371 15.6788 12.1591 15.0074L12.15 14.85V8.1C12.15 7.35442 12.7544 6.75 13.5 6.75Z" fill="#000000"/>
</svg>
