<svg width="27" height="28" viewBox="0 0 27 28" fill="none" xmlns="http://www.w3.org/2000/svg">
<path fill-rule="evenodd" clip-rule="evenodd" d="M13.5 0.98938C20.9558 0.98938 27 7.03354 27 14.4894C27 21.9452 20.9558 27.9894 13.5 27.9894H4.10742C3.36184 27.9894 2.75742 27.385 2.75742 26.6394L2.7567 22.665L2.52617 22.3539L2.27449 21.9909C1.78272 21.2563 1.36388 20.4748 1.02483 19.6572C0.351181 18.0326 0 16.2843 0 14.4894C0 7.03354 6.04416 0.98938 13.5 0.98938ZM13.5 3.68938C7.53532 3.68938 2.7 8.5247 2.7 14.4894C2.7 15.9278 2.98062 17.3248 3.5189 18.623C3.78987 19.2764 4.12475 19.9012 4.51814 20.4889C4.71488 20.7827 4.92595 21.0669 5.15052 21.3402C5.34895 21.5817 5.45742 21.8846 5.45742 22.1972L5.4567 25.2894H13.5C19.3521 25.2894 24.1171 20.6348 24.2949 14.8258L24.3 14.4894C24.3 8.5247 19.4647 3.68938 13.5 3.68938ZM13.5 18.5394C14.2456 18.5394 14.85 19.1438 14.85 19.8894C14.85 20.635 14.2456 21.2394 13.5 21.2394C12.7544 21.2394 12.15 20.635 12.15 19.8894C12.15 19.1438 12.7544 18.5394 13.5 18.5394ZM13.5 7.73938C14.1923 7.73938 14.7629 8.26053 14.8409 8.93194L14.85 9.08938V15.8394C14.85 16.585 14.2456 17.1894 13.5 17.1894C12.8077 17.1894 12.2371 16.6682 12.1591 15.9968L12.15 15.8394V9.08938C12.15 8.3438 12.7544 7.73938 13.5 7.73938Z" fill="#720C20"/>
</svg>
