<svg width="32" height="32" viewBox="0 0 32 32" fill="none" xmlns="http://www.w3.org/2000/svg">
<path d="M3.37191 25.3335L3.3719 25.284L3.34243 25.2442L3.07441 24.8825L2.78298 24.4622C2.78276 24.4619 2.78253 24.4615 2.78231 24.4612C2.21329 23.6111 1.72866 22.7068 1.33633 21.7606C0.55657 19.8802 0.15 17.8564 0.15 15.7782C0.15 7.14699 7.14699 0.15 15.7782 0.15C24.4095 0.15 31.4064 7.14699 31.4064 15.7782C31.4064 24.4095 24.4095 31.4064 15.7782 31.4064H4.80058C4.01201 31.4064 3.37276 30.7672 3.37276 29.9786L3.37191 25.3335ZM6.22756 28.4008L6.22752 28.5508H6.37756H15.7782C22.6993 28.5508 28.3345 23.0461 28.5447 16.176L28.5448 16.1737L28.5508 15.7805H28.5508V15.7782C28.5508 8.72412 22.8323 3.00564 15.7782 3.00564C8.72412 3.00564 3.00564 8.72412 3.00564 15.7782C3.00564 17.4791 3.33748 19.1313 3.97418 20.6668C4.29467 21.4397 4.69074 22.1787 5.15597 22.8736C5.38862 23.2211 5.63824 23.5572 5.90381 23.8804C6.11367 24.1358 6.22839 24.4562 6.2284 24.7868C6.2284 24.7868 6.2284 24.7868 6.2284 24.7868L6.22756 28.4008ZM15.7782 20.6617C16.5668 20.6617 17.206 21.3009 17.206 22.0895C17.206 22.8781 16.5668 23.5173 15.7782 23.5173C14.9897 23.5173 14.3504 22.8781 14.3504 22.0895C14.3504 21.3009 14.9897 20.6617 15.7782 20.6617ZM15.7782 8.03911C16.5089 8.03911 17.1116 8.58809 17.1959 9.29601L17.206 9.47124V17.356C17.206 18.1446 16.5668 18.7839 15.7782 18.7839C15.0475 18.7839 14.4449 18.2349 14.3605 17.527L14.3504 17.3517V9.46693C14.3504 8.67837 14.9897 8.03911 15.7782 8.03911Z" fill="white" stroke="white" stroke-width="0.3"/>
</svg>
