<svg width="17" height="17" viewBox="0 0 17 17" fill="none" xmlns="http://www.w3.org/2000/svg">
<path d="M1.10254 7.41055C0.755849 7.69946 0.293593 7.5839 0.120247 7.17942C-0.110882 6.77495 0.00468246 6.25491 0.351375 6.02378L8.15195 0.13001C8.38308 -0.0433365 8.67199 -0.0433365 8.90312 0.13001L16.7037 6.02378C16.9926 6.25491 17.1082 6.77495 16.877 7.17942C16.7037 7.5839 16.2414 7.69946 15.8948 7.41055L8.49865 1.80569L1.10254 7.41055Z" fill="#555555"/>
<path fill-rule="evenodd" clip-rule="evenodd" d="M15.0275 7.87241V15.153C15.0275 15.7308 14.5652 16.2508 13.9296 16.2508H10.8672V10.7037C10.8672 10.1259 10.4049 9.72144 9.88489 9.72144H7.16913C6.59131 9.72144 6.18684 10.1259 6.18684 10.7037V16.2508H3.06661C2.48879 16.2508 1.96875 15.7308 1.96875 15.153V7.87241L8.49812 2.96094L15.0275 7.87241Z" fill="#555555"/>
</svg>
