<svg width="29" height="29" viewBox="0 0 29 29" fill="none" xmlns="http://www.w3.org/2000/svg">
<path d="M14.5 0C6.50332 0 0 6.50337 0 14.5C0 22.4967 6.50332 29 14.5 29C22.4967 29 29 22.4967 29 14.5C29 6.50337 22.4967 0 14.5 0ZM14.5 1.93333C21.4518 1.93333 27.0667 7.54823 27.0667 14.5C27.0667 21.4518 21.4518 27.0667 14.5 27.0667C7.54818 27.0667 1.93333 21.4518 1.93333 14.5C1.93333 7.54823 7.54818 1.93333 14.5 1.93333ZM14.5 3.86667C13.4322 3.86667 12.5667 4.73225 12.5667 5.8L12.8889 18.3667C12.8889 19.2565 13.6102 19.9778 14.5 19.9778C15.3898 19.9778 16.1111 19.2565 16.1111 18.3667L16.4333 5.8C16.4333 4.73225 15.5678 3.86667 14.5 3.86667ZM14.5 20.6222C13.2543 20.6222 12.2444 21.6321 12.2444 22.8778C12.2444 24.1235 13.2543 25.1333 14.5 25.1333C15.7457 25.1333 16.7556 24.1235 16.7556 22.8778C16.7556 21.6321 15.7457 20.6222 14.5 20.6222Z" fill="white"/>
</svg>
