<svg width="322" height="246" viewBox="0 0 322 246" fill="none" xmlns="http://www.w3.org/2000/svg">
<path d="M322 0H0V246H322V0Z" fill="white"/>
<path d="M126.444 109.037C137.023 109.037 149.374 106.692 149.374 100.083C149.374 97.4903 147.467 95.5561 144.517 94.1597L129.546 59.8127H156.5V124.944H151.794C150.19 124.944 148.884 126.247 148.884 127.851C148.884 128.033 148.903 128.211 148.935 128.383H146.467C144.863 128.383 143.56 129.686 143.56 131.29C143.56 132.894 144.863 134.196 146.467 134.196H172.215C173.819 134.196 175.125 132.894 175.125 131.29C175.125 129.686 173.819 128.383 172.215 128.383H169.779C169.811 128.211 169.83 128.033 169.83 127.851C169.83 126.247 168.524 124.944 166.92 124.944H162.32V59.8127H190.512L175.958 94.4079C173.295 95.7826 171.604 97.6414 171.604 100.084C171.604 106.692 183.962 109.038 194.538 109.038C205.114 109.038 217.472 106.692 217.472 100.084C217.472 97.4888 215.562 95.5535 212.607 94.1571L197.637 59.8131H203.546C205.15 59.8131 206.456 58.5106 206.456 56.9066C206.456 55.3025 205.15 54 203.546 54H115.279C113.674 54 112.372 55.3025 112.372 56.9066C112.372 58.5106 113.674 59.8131 115.279 59.8131H122.421L107.868 94.405C105.203 95.78 103.51 97.6396 103.51 100.084C103.51 106.692 115.864 109.037 126.444 109.037ZM126.444 103.224C117.046 103.224 111.332 101.262 109.671 100.083C111.332 98.9051 117.046 96.9423 126.444 96.9423C135.838 96.9423 141.552 98.9047 143.213 100.083C141.552 101.262 135.838 103.224 126.444 103.224ZM194.539 103.224C185.141 103.224 179.427 101.262 177.766 100.083C179.427 98.9051 185.141 96.9423 194.539 96.9423C203.937 96.9423 209.651 98.9047 211.312 100.083C209.65 101.262 203.937 103.224 194.539 103.224ZM194.539 91.1292C190.787 91.1292 186.813 91.4264 183.244 92.1026L194.115 66.264L205.337 92.0106C201.898 91.3992 198.117 91.1292 194.539 91.1292ZM126.016 66.264L137.237 92.0095C133.801 91.3988 130.021 91.1292 126.444 91.1292C122.69 91.1292 118.715 91.4267 115.145 92.103L126.016 66.264Z" fill="#720C20"/>
<path d="M240.449 139.314C238.979 136.908 236.658 135.229 233.911 134.583C231.164 133.926 228.332 134.399 225.947 135.9L224.952 136.523C224.739 134.746 224.077 133.042 222.995 131.545C221.235 129.118 218.509 127.538 215.52 127.219C212.539 126.878 209.551 127.858 207.315 129.849L203.908 132.883C203.518 131.943 202.957 131.066 202.247 130.289C199.039 126.793 193.694 126.434 190.06 129.49L170.746 145.688C170.504 145.89 170.305 146.125 170.146 146.378C169.787 146.236 169.436 146.071 169.099 145.88L160.269 140.918C149.061 133.107 137.311 138.718 136.963 138.892L121.812 145.284V141.908C121.812 140.304 120.51 139.002 118.906 139.002H81.9068C80.8848 139.002 79.9371 139.538 79.4119 140.418C78.8868 141.294 78.8618 142.384 79.3481 143.285L104.969 190.92C105.473 191.864 106.456 192.45 107.528 192.45H118.906C120.51 192.45 121.812 191.147 121.812 189.543V183.642L131.76 177.395C133.354 176.391 135.363 176.355 136.999 177.282L148.643 183.908C153.271 186.541 158.516 187.907 163.79 187.907C165.444 187.907 167.105 187.772 168.751 187.499L186.056 184.635C193.495 183.407 200.643 180.397 206.733 175.933L237.702 153.219C242.124 149.972 243.302 143.995 240.449 139.314ZM115.999 186.637H109.266L86.7725 144.815H115.999V186.637ZM202.602 141.827L211.176 134.193C212.205 133.271 213.49 132.816 214.902 133.001C216.272 133.15 217.479 133.846 218.288 134.96C219.062 136.028 219.36 137.331 219.14 138.63C218.983 139.523 218.585 140.33 218 140.99C217.947 141.045 217.897 141.102 217.849 141.16C217.624 141.39 217.375 141.599 217.102 141.785L198.799 154.256C198.163 151.979 196.754 150.051 194.881 148.752L201.558 142.906C201.942 142.572 202.289 142.214 202.602 141.827ZM193.8 133.945C195.035 132.901 196.867 133.029 197.96 134.221C198.513 134.825 198.797 135.606 198.748 136.425C198.719 136.954 198.563 137.451 198.286 137.884L188.074 146.973H178.263L193.8 133.945ZM234.266 148.531L203.297 171.241C197.938 175.17 191.649 177.818 185.105 178.9L167.8 181.764C162.214 182.669 156.443 181.654 151.524 178.854L139.873 172.228C136.37 170.241 132.079 170.333 128.665 172.469L122.29 176.473V151.392L139.361 144.187C139.73 144.006 148.585 139.868 157.181 145.838L166.245 150.945C168.374 152.151 170.802 152.786 173.265 152.786H189.179C191.322 152.786 193.111 154.39 193.338 156.524C193.572 158.667 192.096 160.669 189.981 161.081L184.785 162.163C184.615 162.241 166.862 169.843 152.141 162.241C150.728 161.517 148.968 162.057 148.223 163.49C147.485 164.917 148.045 166.67 149.472 167.408C166.713 176.309 186.304 167.852 186.51 167.678L191.088 166.787C194.005 166.221 196.41 164.39 197.819 161.963L220.382 146.59C220.979 146.182 221.527 145.722 222.02 145.216L229.027 140.826C230.092 140.166 231.334 139.949 232.576 140.24C233.797 140.528 234.826 141.277 235.479 142.345C236.736 144.393 236.197 147.111 234.266 148.531Z" fill="#720C20"/>
</svg>
