<svg width="32" height="32" viewBox="0 0 32 32" fill="none" xmlns="http://www.w3.org/2000/svg">
<path d="M25.8538 26.8285H22.1036V26.0785C22.1036 24.8379 21.0941 23.8284 19.8536 23.8284H16.8535V5.82779H27.3538C27.7678 5.82779 28.1038 5.49178 28.1038 5.07776C28.1038 4.66375 27.7678 4.32774 27.3538 4.32774H16.8535V2.07766C16.8535 1.66365 16.5174 1.32764 16.1034 1.32764C15.6894 1.32764 15.3534 1.66365 15.3534 2.07766V4.32774H4.85305C4.43904 4.32774 4.10303 4.66375 4.10303 5.07776C4.10303 5.49178 4.43904 5.82779 4.85305 5.82779H15.3534V23.8284H12.3533C11.1128 23.8284 10.1032 24.8379 10.1032 26.0785V26.8285H6.3531C5.11256 26.8285 4.10303 27.838 4.10303 29.0786V30.5786C4.10303 30.9926 4.43904 31.3286 4.85305 31.3286H27.3538C27.7678 31.3286 28.1038 30.9926 28.1038 30.5786V29.0786C28.1038 27.838 27.0943 26.8285 25.8538 26.8285ZM11.6033 26.0785C11.6033 25.6645 11.9393 25.3284 12.3533 25.3284H19.8536C20.2676 25.3284 20.6036 25.6645 20.6036 26.0785V26.8285H11.6033V26.0785ZM26.6038 29.8286H5.60308V29.0786C5.60308 28.6646 5.93909 28.3285 6.3531 28.3285H25.8538C26.2678 28.3285 26.6038 28.6646 26.6038 29.0786V29.8286Z" fill="#000000" stroke="#000000" stroke-width="0.681818"/>
<path d="M11.6034 17.0776C11.6034 17.0701 11.5989 17.0626 11.5989 17.0551C11.5974 17.0056 11.5809 16.9576 11.5689 16.9081C11.5569 16.8586 11.5509 16.8091 11.5299 16.7626C11.5269 16.7551 11.5269 16.7476 11.5239 16.7416L7.02373 7.74125C6.76872 7.23273 5.93619 7.23273 5.68118 7.74125L1.18103 16.7416C1.17803 16.7491 1.17803 16.7566 1.17503 16.7626C1.15403 16.8076 1.14803 16.8571 1.13603 16.9066C1.12403 16.9561 1.10753 17.0041 1.10603 17.0536C1.10753 17.0626 1.10303 17.0701 1.10303 17.0776C1.10303 19.9727 3.45811 22.3277 6.3532 22.3277C9.2483 22.3277 11.6034 19.9727 11.6034 17.0776ZM6.3532 9.75432L9.63681 16.3215H3.06959L6.3532 9.75432ZM2.67658 17.8231H10.0283C9.68331 19.5346 8.16526 20.8277 6.3532 20.8277C4.54114 20.8277 3.02309 19.5346 2.67658 17.8231Z" fill="#000000" stroke="#000000" stroke-width="0.681818"/>
<path d="M31.0999 17.0551C31.0984 17.0056 31.0819 16.9576 31.0699 16.9081C31.0579 16.8586 31.0519 16.8091 31.0309 16.7626C31.0279 16.7551 31.0279 16.7476 31.0249 16.7416L26.5247 7.74125C26.2697 7.23273 25.4372 7.23273 25.1822 7.74125L20.682 16.7416C20.679 16.7491 20.679 16.7566 20.676 16.7626C20.655 16.8076 20.649 16.8571 20.637 16.9066C20.625 16.9561 20.6085 17.0041 20.607 17.0536C20.607 17.0611 20.6025 17.0686 20.6025 17.0761C20.6025 19.9712 22.9576 22.3262 25.8527 22.3262C28.7478 22.3262 31.1029 19.9712 31.1029 17.0761C31.1044 17.0701 31.0999 17.0626 31.0999 17.0551ZM25.8542 9.75432L29.1378 16.3215H22.5706L25.8542 9.75432ZM25.8542 20.8277C24.0422 20.8277 22.5241 19.5346 22.1776 17.8231H29.5293C29.1843 19.5346 27.6663 20.8277 25.8542 20.8277Z" fill="#000000" stroke="#000000" stroke-width="0.681818"/>
</svg>
