<svg width="17" height="21" viewBox="0 0 17 21" fill="none" xmlns="http://www.w3.org/2000/svg">
<path d="M12.1778 10.3456C13.0715 9.6677 13.7298 8.72634 14.0599 7.65429C14.39 6.58224 14.3752 5.43361 14.0176 4.37042C13.66 3.30723 12.9777 2.38313 12.0668 1.72849C11.1559 1.07384 10.0625 0.72168 8.94077 0.72168C7.81905 0.72168 6.72563 1.07384 5.81476 1.72849C4.90388 2.38313 4.22151 3.30723 3.86391 4.37042C3.5063 5.43361 3.49151 6.58224 3.82161 7.65429C4.1517 8.72634 4.81004 9.6677 5.70375 10.3456C4.27827 10.9741 3.06603 12.0031 2.21435 13.3075C1.36268 14.612 0.908232 16.1357 0.90625 17.6936C0.90625 18.4039 1.18841 19.0851 1.69067 19.5874C2.19292 20.0896 2.87413 20.3718 3.58442 20.3718H14.2971C15.0074 20.3718 15.6886 20.0896 16.1909 19.5874C16.6931 19.0851 16.9753 18.4039 16.9753 17.6936C16.9733 16.1357 16.5189 14.612 15.6672 13.3075C14.8155 12.0031 13.6033 10.9741 12.1778 10.3456ZM5.36987 6.08819C5.36987 5.38194 5.5793 4.69154 5.97168 4.10431C6.36405 3.51708 6.92175 3.05939 7.57425 2.78911C8.22674 2.51884 8.94473 2.44813 9.63742 2.58591C10.3301 2.72369 10.9664 3.06379 11.4658 3.56319C11.9652 4.06259 12.3053 4.69886 12.4431 5.39155C12.5808 6.08423 12.5101 6.80222 12.2398 7.45472C11.9696 8.10721 11.5119 8.66491 10.9247 9.05729C10.3374 9.44966 9.64703 9.65909 8.94077 9.65909C7.99371 9.65909 7.08544 9.28287 6.41576 8.6132C5.74609 7.94353 5.36987 7.03525 5.36987 6.08819ZM14.2971 18.5863H3.58442C3.34766 18.5863 3.12059 18.4923 2.95317 18.3249C2.78575 18.1574 2.6917 17.9304 2.6917 17.6936C2.6917 16.0363 3.35008 14.4468 4.52201 13.2748C5.69394 12.1029 7.28341 11.4445 8.94077 11.4445C10.5981 11.4445 12.1876 12.1029 13.3595 13.2748C14.5315 14.4468 15.1898 16.0363 15.1898 17.6936C15.1898 17.9304 15.0958 18.1574 14.9284 18.3249C14.7609 18.4923 14.5339 18.5863 14.2971 18.5863Z" fill="black"/>
</svg>
