<svg width="322" height="246" viewBox="0 0 322 246" fill="none" xmlns="http://www.w3.org/2000/svg">
<path d="M322 0H0V246H322V0Z" fill="white"/>
<path d="M226.316 179.412C224.969 179.088 223.559 179.281 222.348 179.962L209.025 187.473C208.503 186.73 207.755 186.136 206.838 185.798L199.057 182.916C198.323 182.603 197.71 182.12 197 181.57C195.316 180.257 193.221 178.615 188.697 178.712C182.142 178.842 179.299 181.903 177.933 183.375C177.793 183.525 177.672 183.655 177.571 183.756C176.827 184.5 175.881 184.625 174.168 184.64V183.056C174.168 181.285 172.729 179.846 170.958 179.846H116.41C115.614 179.846 114.967 180.493 114.967 181.29C114.967 182.086 115.614 182.733 116.41 182.733H170.962C171.141 182.733 171.286 182.878 171.286 183.056V203.422C171.286 203.601 171.141 203.746 170.962 203.746H106.341C99.4814 203.746 93.9011 198.165 93.9011 191.306V147.856C93.9011 137.743 101.137 129.161 111.105 127.457L122.483 125.511L127.711 139.65C128.15 140.838 129.101 141.716 130.322 142.054C130.675 142.151 131.032 142.199 131.384 142.199C132.253 142.199 133.098 141.905 133.803 141.345L135.869 139.698L138.529 144.868L131.515 175.212C131.336 175.989 131.819 176.766 132.596 176.945C132.707 176.969 132.813 176.984 132.924 176.984C133.581 176.984 134.174 176.53 134.329 175.864L141.198 146.114H147.213L154.082 175.864C154.236 176.53 154.83 176.984 155.486 176.984C155.593 176.984 155.704 176.969 155.815 176.945C156.592 176.766 157.075 175.989 156.896 175.212L149.887 144.859L152.547 139.689L154.613 141.335C155.317 141.895 156.162 142.189 157.031 142.189C157.384 142.189 157.741 142.141 158.093 142.045C159.314 141.707 160.265 140.828 160.705 139.641L165.942 125.502L170.446 126.274C170.528 126.289 170.61 126.293 170.692 126.293C171.382 126.293 171.995 125.796 172.116 125.091C172.251 124.305 171.72 123.556 170.938 123.421L165.237 122.446C165.233 122.446 165.233 122.446 165.228 122.446L154.294 120.573V112.686C156.447 111.768 158.421 110.436 160.125 108.737C163.62 105.242 165.546 100.593 165.546 95.6504V92.9713H167.999C172.396 92.9713 175.973 89.3944 175.973 84.9968V83.5776C175.973 81.1109 174.848 78.9 173.082 77.4374C175.003 72.784 175.461 66.779 174.284 61.0877C172.859 54.1897 169.268 48.5081 164.171 45.0904C160.637 42.7203 156.862 41.1514 152.942 40.4322C149.283 39.7612 145.586 39.8722 142.241 40.7604C139.644 41.4507 137.317 42.5754 135.328 44.1008C133.537 45.4766 132.084 47.1275 131.008 49.0149C128.213 48.9763 125.186 49.7535 122.565 51.2065C119.128 53.1084 116.536 56.0288 115.068 59.6444C112.853 65.1039 112.978 72.3737 115.276 77.4857C113.543 78.9483 112.442 81.1399 112.442 83.5776V84.9968C112.442 89.3944 116.019 92.9713 120.417 92.9713H122.869V95.6504C122.869 100.593 124.795 105.242 128.29 108.737C129.994 110.441 131.973 111.773 134.121 112.686V120.573L123.197 122.441C123.193 122.441 123.193 122.441 123.188 122.441L110.608 124.594C105.129 125.531 100.138 128.388 96.5561 132.636C92.9743 136.884 91 142.286 91 147.842V191.291C91 195.385 92.593 199.237 95.4893 202.129C98.3856 205.025 102.233 206.618 106.326 206.618H170.953C172.724 206.618 174.163 205.179 174.163 203.408V198.88C176.712 198.861 178.657 198.798 180.269 198.749C183.33 198.653 184.87 198.605 186.409 199.02C187.669 199.363 188.451 199.594 189.75 199.985C190.841 200.313 192.332 200.762 194.799 201.482C197.444 202.254 199.467 202.616 201.287 202.616C201.982 202.616 202.648 202.563 203.309 202.462C206.013 202.042 208.586 200.762 211.627 198.972L227.798 189.419C229.101 188.651 230.004 187.415 230.342 185.943C230.68 184.471 230.409 182.965 229.574 181.7C228.831 180.551 227.667 179.735 226.316 179.412ZM132.002 139.076C131.746 139.279 131.418 139.346 131.099 139.259C130.781 139.172 130.535 138.945 130.424 138.637L125.384 125.005L135.043 123.349L142.101 131.024L135.454 136.324C135.449 136.329 135.439 136.334 135.434 136.339L132.002 139.076ZM147.488 143.227H140.937L138.176 137.855L144.215 133.042L150.254 137.855L147.488 143.227ZM158.001 138.637C157.886 138.945 157.639 139.172 157.326 139.259C157.007 139.346 156.679 139.279 156.423 139.076L152.991 136.339C152.986 136.334 152.976 136.329 152.971 136.324L146.324 131.024L153.382 123.349L163.055 125.005L158.001 138.637ZM173.086 84.992C173.086 87.7965 170.803 90.0798 167.999 90.0798H165.546V78.4849H167.999C170.803 78.4849 173.086 80.7682 173.086 83.5728V84.992ZM117.752 60.7257C120.32 54.3924 126.731 51.5154 131.732 51.9402C132.321 51.9885 132.886 51.6747 133.151 51.1437C134.985 47.4461 138.48 44.7525 142.989 43.5505C149.23 41.89 156.365 43.3285 162.563 47.4847C171.604 53.5476 174.076 67.1169 170.542 76.0134C169.741 75.7431 168.887 75.5982 167.994 75.5982H165.416C165.097 73.6867 164.161 71.4613 162.264 69.8056C160.743 68.4781 158.016 67.0155 153.647 67.5996C145.47 68.6954 140.43 66.9576 138.239 62.2945C137.954 61.6863 137.288 61.358 136.631 61.498C135.975 61.638 135.502 62.2124 135.487 62.8834C135.391 67.6865 133.494 71.2779 129.854 73.5708C127.595 74.9948 125.302 75.4776 124.486 75.6127C124.433 75.6079 124.375 75.6031 124.317 75.6031H120.422C119.505 75.6031 118.621 75.7575 117.801 76.0472C115.942 71.6641 115.879 65.3453 117.752 60.7257ZM122.874 90.0798H120.422C117.617 90.0798 115.334 87.7965 115.334 84.992V83.5728C115.334 80.7682 117.617 78.4849 120.422 78.4849H122.874V90.0798ZM125.765 95.6456V78.3015C127.064 78.0118 129.169 77.3891 131.293 76.0761C133.832 74.5073 136.776 71.7027 137.911 66.8466C139.335 68.3044 141.135 69.3663 143.298 70.018C146.209 70.8966 149.723 71.0414 154.038 70.4621C156.684 70.1097 158.812 70.6166 160.367 71.9779C162.056 73.4598 162.66 75.5886 162.66 77.0898V95.6456C162.66 104.257 155.651 111.266 147.039 111.266H141.386C132.77 111.266 125.765 104.262 125.765 95.6456ZM141.386 114.158H147.039C148.53 114.158 149.993 113.984 151.403 113.641V121.23L144.21 129.055L137.018 121.23V113.641C138.432 113.984 139.895 114.158 141.386 114.158ZM227.542 185.301C227.383 185.996 226.958 186.575 226.34 186.942L210.169 196.495C204.062 200.096 201.615 200.473 195.62 198.721C193.163 198.006 191.676 197.557 190.59 197.229C189.267 196.833 188.471 196.592 187.172 196.239C185.212 195.708 183.426 195.766 180.182 195.868C178.594 195.921 176.673 195.979 174.168 195.998V187.521C176.253 187.507 178.073 187.328 179.613 185.788C179.753 185.648 179.898 185.494 180.052 185.33C181.312 183.973 183.426 181.7 188.755 181.589C192.25 181.516 193.694 182.646 195.219 183.838C196.025 184.471 196.86 185.122 197.961 185.581C197.98 185.591 197.999 185.595 198.019 185.605L205.834 188.501C206.399 188.709 206.79 189.177 206.925 189.718C206.935 189.766 206.944 189.814 206.954 189.867C206.997 190.133 206.978 190.408 206.891 190.678C206.602 191.581 205.626 192.093 204.719 191.818L192.931 188.236C192.168 188.004 191.362 188.434 191.13 189.196C190.899 189.959 191.328 190.765 192.091 190.997L203.879 194.579C204.323 194.714 204.782 194.782 205.231 194.782C205.969 194.782 206.703 194.603 207.379 194.251C208.465 193.681 209.266 192.73 209.643 191.562C209.778 191.147 209.85 190.727 209.865 190.312L223.762 182.477C224.935 181.816 226.436 182.178 227.175 183.302C227.576 183.896 227.706 184.606 227.542 185.301Z" fill="#720C20" stroke="#720C20" stroke-width="2.49997"/>
<path d="M229.928 119.605C229.918 119.595 229.909 119.585 229.899 119.576C229.894 119.571 229.889 119.566 229.88 119.556L207.791 99.1373C206.762 98.1863 205.42 97.6602 204.016 97.6602C202.611 97.6602 201.274 98.1863 200.241 99.1373L178.152 119.556C178.147 119.561 178.142 119.566 178.137 119.571C178.127 119.58 178.118 119.59 178.103 119.6C177.418 120.256 177.027 121.173 177.027 122.124V166.283C177.027 168.214 178.596 169.783 180.527 169.783H227.5C229.431 169.783 231 168.214 231 166.283V122.124C231.009 121.178 230.613 120.261 229.928 119.605ZM228.118 166.288C228.118 166.626 227.843 166.901 227.505 166.901H180.531C180.193 166.901 179.918 166.626 179.918 166.288V122.129C179.918 122.105 179.918 122.086 179.923 122.062H211.102C211.898 122.062 212.545 121.415 212.545 120.618C212.545 119.822 211.898 119.175 211.102 119.175H182.829L202.21 101.261C202.717 100.793 203.369 100.556 204.02 100.556C204.672 100.556 205.324 100.793 205.831 101.261L225.212 119.175H218.574C217.778 119.175 217.131 119.822 217.131 120.618C217.131 121.415 217.778 122.062 218.574 122.062H228.118C228.118 122.081 228.123 122.105 228.123 122.129L228.118 166.288Z" fill="#720C20" stroke="#720C20" stroke-width="2.49997"/>
<path d="M216.241 129.273C215.619 128.771 214.711 128.872 214.209 129.495L191.57 157.637C191.068 158.26 191.169 159.167 191.792 159.669C192.057 159.882 192.381 159.988 192.694 159.988C193.119 159.988 193.534 159.805 193.819 159.447L216.459 131.305C216.966 130.682 216.864 129.77 216.241 129.273Z" fill="#720C20" stroke="#720C20" stroke-width="2.49997"/>
<path d="M196.825 141.88C200.392 141.88 203.289 138.979 203.289 135.417C203.289 131.854 200.388 128.953 196.825 128.953C193.263 128.953 190.362 131.854 190.362 135.417C190.362 138.979 193.258 141.88 196.825 141.88ZM196.825 131.84C198.799 131.84 200.402 133.442 200.402 135.417C200.402 137.391 198.799 138.994 196.825 138.994C194.851 138.994 193.248 137.391 193.248 135.417C193.248 133.442 194.851 131.84 196.825 131.84Z" fill="#720C20" stroke="#720C20" stroke-width="2.49997"/>
<path d="M211.205 147.055C207.638 147.055 204.742 149.956 204.742 153.518C204.742 157.081 207.643 159.982 211.205 159.982C214.768 159.982 217.669 157.081 217.669 153.518C217.669 149.956 214.773 147.055 211.205 147.055ZM211.205 157.1C209.231 157.1 207.628 155.497 207.628 153.523C207.628 151.549 209.231 149.946 211.205 149.946C213.18 149.946 214.782 151.549 214.782 153.523C214.782 155.493 213.18 157.1 211.205 157.1Z" fill="#720C20" stroke="#720C20" stroke-width="2.49997"/>
</svg>
