<svg width="38" height="32" viewBox="0 0 38 32" fill="none" xmlns="http://www.w3.org/2000/svg">
<path d="M19.2688 7.93477C19.7733 7.93425 20.2664 7.78417 20.6856 7.50349C21.1048 7.22281 21.4315 6.82414 21.6241 6.35787C21.8168 5.8916 21.867 5.37867 21.7682 4.88392C21.6694 4.38916 21.4262 3.9348 21.0692 3.57826C20.7123 3.22173 20.2576 2.97903 19.7627 2.88084C19.2679 2.78266 18.755 2.8334 18.289 3.02665C17.8229 3.2199 17.4246 3.54698 17.1445 3.96655C16.8643 4.38612 16.7148 4.87933 16.7149 5.38385C16.7161 6.06053 16.9857 6.7091 17.4645 7.1873C17.9433 7.6655 18.5921 7.93431 19.2688 7.93477ZM19.2688 3.90497C19.5611 3.90548 19.8467 3.99262 20.0894 4.15537C20.3322 4.31811 20.5213 4.54917 20.6328 4.81934C20.7443 5.08951 20.7733 5.38667 20.716 5.67328C20.6587 5.95989 20.5177 6.22308 20.3109 6.4296C20.104 6.63612 19.8406 6.77671 19.554 6.83359C19.2673 6.89047 18.9701 6.86111 18.7001 6.7492C18.4301 6.63729 18.1994 6.44786 18.037 6.20484C17.8746 5.96183 17.7879 5.67613 17.7878 5.38385C17.7885 4.99146 17.9448 4.61537 18.2225 4.33812C18.5001 4.06086 18.8764 3.90508 19.2688 3.90497ZM4.10659 24.1712C4.10642 24.6021 4.23404 25.0234 4.47331 25.3818C4.71257 25.7402 5.05275 26.0196 5.45081 26.1847C5.84887 26.3498 6.28693 26.3931 6.70962 26.3092C7.1323 26.2253 7.52061 26.0179 7.82544 25.7133C8.13027 25.4087 8.33794 25.0206 8.42218 24.598C8.50642 24.1754 8.46344 23.7373 8.29869 23.3391C8.13394 22.9409 7.85481 22.6005 7.49661 22.3609C7.1384 22.1214 6.7172 21.9934 6.28627 21.9933C5.70856 21.9935 5.15454 22.223 4.74587 22.6313C4.3372 23.0397 4.10728 23.5935 4.10659 24.1712ZM7.39174 24.1712C7.39217 24.3901 7.32763 24.6043 7.20629 24.7865C7.08494 24.9688 6.91226 25.1109 6.71009 25.195C6.50792 25.279 6.28536 25.3012 6.07058 25.2587C5.85581 25.2161 5.65847 25.1109 5.50357 24.9561C5.34866 24.8014 5.24314 24.6042 5.20038 24.3895C5.15761 24.1748 5.17952 23.9522 5.26332 23.7499C5.34713 23.5476 5.48906 23.3748 5.67116 23.2532C5.85326 23.1317 6.06733 23.0669 6.28627 23.067C6.57913 23.0674 6.85991 23.1838 7.06712 23.3907C7.27432 23.5977 7.39105 23.8783 7.39174 24.1712ZM17.0896 24.1712C17.0893 24.6023 17.2169 25.0237 17.4562 25.3823C17.6955 25.7408 18.0358 26.0204 18.434 26.1855C18.8321 26.3506 19.2704 26.394 19.6932 26.31C20.116 26.2261 20.5044 26.0186 20.8093 25.7139C21.1142 25.4092 21.3219 25.0209 21.4061 24.5981C21.4903 24.1754 21.4472 23.7371 21.2823 23.3388C21.1174 22.9406 20.8381 22.6001 20.4797 22.3606C20.1213 22.1211 19.6999 21.9933 19.2688 21.9933C18.6912 21.9937 18.1374 22.2233 17.7288 22.6316C17.3203 23.0399 17.0904 23.5936 17.0896 24.1712ZM20.3752 24.1712C20.3756 24.3901 20.3111 24.6042 20.1898 24.7864C20.0685 24.9687 19.8958 25.1108 19.6937 25.1949C19.4916 25.2789 19.2691 25.3012 19.0543 25.2587C18.8396 25.2163 18.6422 25.1111 18.4873 24.9564C18.3323 24.8018 18.2268 24.6047 18.1839 24.39C18.141 24.1753 18.1628 23.9528 18.2465 23.7505C18.3302 23.5482 18.472 23.3753 18.6539 23.2536C18.8359 23.132 19.0499 23.067 19.2688 23.067C19.5618 23.0672 19.8428 23.1835 20.0502 23.3904C20.2576 23.5974 20.3745 23.8782 20.3752 24.1712ZM37.539 25.7947C37.5374 24.4859 37.051 23.2241 36.1738 22.2527C35.2966 21.2814 34.0908 20.6694 32.7889 20.5348V16.7594C32.7889 16.6889 32.775 16.619 32.748 16.5539C32.7209 16.4887 32.6813 16.4295 32.6314 16.3796C32.5815 16.3298 32.5222 16.2903 32.457 16.2634C32.3918 16.2364 32.3219 16.2226 32.2514 16.2228H19.8051V13.7196C19.8563 13.7157 19.9075 13.7135 19.9583 13.7079C20.0452 13.6988 20.132 13.6814 20.2167 13.6684C20.3526 13.648 20.4885 13.628 20.6218 13.5989C20.7308 13.5754 20.8389 13.5451 20.9448 13.516C21.0508 13.4869 21.1532 13.4591 21.2553 13.4256C21.3756 13.3861 21.4928 13.3418 21.6105 13.2954C21.693 13.2628 21.7746 13.229 21.8558 13.1929C21.9813 13.1369 22.105 13.0779 22.227 13.0136C22.2921 12.9793 22.3573 12.9424 22.4198 12.9059C22.5501 12.833 22.6751 12.7579 22.7984 12.6758C22.8453 12.6445 22.8896 12.6098 22.9356 12.5772C23.3425 12.2887 23.7143 11.9535 24.0433 11.5786C24.098 11.5169 24.1549 11.457 24.207 11.3932C24.2317 11.3628 24.2599 11.3363 24.2843 11.3063L24.5448 10.9746L24.5326 10.959C25.1853 10.0016 25.5645 8.88437 25.6294 7.72752C25.6943 6.57068 25.4425 5.41803 24.9011 4.39366C24.3596 3.36928 23.5491 2.51196 22.5566 1.91398C21.5642 1.316 20.4275 1 19.2688 1C18.1102 1 16.9734 1.316 15.981 1.91398C14.9886 2.51196 14.178 3.36928 13.6366 4.39366C13.0951 5.41803 12.8433 6.57068 12.9083 7.72752C12.9732 8.88437 13.3524 10.0016 14.005 10.959L13.9929 10.9746L14.2534 11.3063C14.2777 11.3372 14.3059 11.3636 14.3307 11.3932C14.3828 11.457 14.4397 11.5169 14.4944 11.5786C14.8234 11.9535 15.1951 12.2887 15.602 12.5772C15.648 12.6098 15.6923 12.6445 15.7392 12.6758C15.8625 12.7579 15.9897 12.833 16.1178 12.9059C16.1821 12.9424 16.2455 12.9793 16.3106 13.0136C16.4326 13.0779 16.5564 13.1369 16.6819 13.1929C16.7631 13.229 16.8447 13.2628 16.9272 13.2954C17.0449 13.3418 17.1621 13.3861 17.2824 13.4256C17.3844 13.4591 17.4886 13.4873 17.5928 13.516C17.697 13.5446 17.8069 13.5754 17.9159 13.5989C18.0492 13.628 18.1851 13.648 18.321 13.6684C18.4078 13.6814 18.4946 13.6988 18.5793 13.7079C18.6301 13.7135 18.6813 13.7157 18.7326 13.7196V16.2228H6.28627C6.14394 16.2228 6.00743 16.2793 5.90679 16.3799C5.80614 16.4806 5.7496 16.6171 5.7496 16.7594V20.537C4.84507 20.6287 3.97953 20.9523 3.2367 21.4765C2.49388 22.0007 1.89892 22.7078 1.5094 23.5292C1.11987 24.3507 0.948962 25.2589 1.01321 26.1657C1.07745 27.0726 1.37467 27.9476 1.87611 28.706L1.86092 28.7251L2.12143 29.0568C2.14314 29.0846 2.16876 29.1085 2.19134 29.1363C2.22651 29.1797 2.26472 29.2188 2.30119 29.2609C2.57656 29.5769 2.88814 29.8595 3.22951 30.1028C3.27293 30.1336 3.31635 30.1662 3.35977 30.1957C3.4579 30.2613 3.5595 30.3212 3.66371 30.3798C3.72102 30.4128 3.77834 30.4458 3.83739 30.4766C3.93465 30.5279 4.03365 30.5752 4.13438 30.6199C4.20559 30.6521 4.27723 30.6816 4.35148 30.7102C4.4457 30.7471 4.53992 30.7832 4.63632 30.8149C4.72315 30.8435 4.81347 30.8683 4.90335 30.8926C4.99323 30.9169 5.07703 30.9404 5.16387 30.9595C5.27676 30.9842 5.39182 31.0029 5.50688 31.0185C5.57679 31.0285 5.64539 31.0428 5.71573 31.0502C6.09616 31.0936 6.48029 31.0936 6.86072 31.0502C6.93149 31.0428 7.00096 31.0285 7.0713 31.0181C7.18593 31.0012 7.30013 30.9842 7.41215 30.9595C7.49899 30.9404 7.58583 30.916 7.67484 30.8917C7.76385 30.8674 7.85199 30.8435 7.93883 30.8153C8.03653 30.7832 8.13162 30.7471 8.22671 30.7094C8.29835 30.6811 8.36912 30.6521 8.43903 30.6225C8.54063 30.5774 8.64079 30.529 8.73949 30.4775C8.79681 30.4475 8.85282 30.415 8.90883 30.3829C9.01261 30.3234 9.11508 30.2634 9.21277 30.197C9.25619 30.1684 9.29657 30.1367 9.33825 30.1067C9.67862 29.8648 9.98933 29.5837 10.264 29.2691C10.3026 29.2257 10.3439 29.1823 10.3812 29.1358C10.4033 29.1093 10.4281 29.0859 10.4498 29.0585L10.7103 28.7268L10.6951 28.7077C11.1972 27.9494 11.495 27.0743 11.5596 26.1671C11.6242 25.2599 11.4535 24.3514 11.064 23.5296C10.6745 22.7078 10.0794 22.0004 9.33634 21.476C8.59325 20.9517 7.72736 20.6281 6.82251 20.5365V17.2974H18.7326V20.5365C17.828 20.6282 16.9624 20.9518 16.2196 21.4761C15.4767 22.0004 14.8818 22.7075 14.4923 23.5291C14.1029 24.3507 13.9321 25.2589 13.9965 26.1658C14.0609 27.0727 14.3583 27.9477 14.86 28.706L14.8448 28.7251L15.1053 29.0568C15.1274 29.085 15.1526 29.1089 15.1752 29.1363C15.2095 29.1797 15.2473 29.217 15.2829 29.2583C15.5604 29.5776 15.8749 29.8627 16.2199 30.1076C16.2607 30.1362 16.2998 30.1671 16.3415 30.1944C16.4413 30.2608 16.5447 30.3216 16.6489 30.3811C16.7044 30.4132 16.76 30.4454 16.8169 30.4749C16.9159 30.527 17.0162 30.5752 17.1182 30.6204C17.1877 30.6516 17.2585 30.6807 17.3293 30.7072C17.4248 30.745 17.5203 30.781 17.618 30.8131C17.7048 30.8414 17.7917 30.8657 17.8816 30.8896C17.9714 30.9134 18.0552 30.9382 18.1447 30.9573C18.2567 30.982 18.3709 31.0007 18.4855 31.0159C18.5559 31.0263 18.6249 31.0407 18.6961 31.048C19.0764 31.0915 19.4604 31.0915 19.8407 31.048C19.9119 31.0407 19.9809 31.0263 20.0512 31.0159C20.1659 30.999 20.2801 30.982 20.3921 30.9573C20.4789 30.9382 20.5658 30.9139 20.6552 30.8896C20.7447 30.8652 20.8324 30.8414 20.9188 30.8131C21.0165 30.781 21.112 30.745 21.2075 30.7072C21.2783 30.679 21.3491 30.6499 21.4185 30.6204C21.5206 30.5769 21.6209 30.527 21.7199 30.4749C21.7768 30.4454 21.8323 30.4132 21.8879 30.3811C21.9921 30.3216 22.0955 30.2608 22.1953 30.1944C22.2387 30.1666 22.2761 30.1358 22.3169 30.1076C22.6618 29.8627 22.9764 29.5776 23.2539 29.2583C23.2895 29.217 23.3273 29.1784 23.3616 29.1363C23.3842 29.1089 23.4093 29.085 23.4315 29.0568L23.692 28.7251L23.6768 28.706C24.1789 27.9477 24.4767 27.0725 24.5413 26.1654C24.6059 25.2582 24.4352 24.3497 24.0457 23.5279C23.6562 22.706 23.0611 21.9987 22.318 21.4743C21.5749 20.9499 20.709 20.6263 19.8042 20.5348V17.2957H31.716V20.5348C30.8112 20.6263 29.9453 20.9499 29.2022 21.4742C28.4591 21.9985 27.864 22.7058 27.4745 23.5276C27.0849 24.3494 26.9142 25.2578 26.9787 26.1649C27.0433 27.0721 27.341 27.9472 27.8429 28.7055L27.8277 28.7251L28.0883 29.0568C28.1108 29.085 28.1365 29.1093 28.1595 29.1371C28.1925 29.1775 28.2285 29.2149 28.2628 29.2544C28.5405 29.5746 28.8555 29.8604 29.2011 30.1058C29.2445 30.1354 29.2828 30.1666 29.3253 30.1927C29.4247 30.2591 29.5272 30.3195 29.6292 30.3785C29.6857 30.4111 29.7417 30.4436 29.7999 30.474C29.898 30.5253 29.9974 30.573 30.0986 30.6182C30.1694 30.6499 30.2406 30.6794 30.3127 30.7076C30.4073 30.745 30.502 30.781 30.5988 30.8127C30.6856 30.8414 30.7755 30.8657 30.8654 30.89C30.9553 30.9143 31.0391 30.9382 31.1259 30.9573C31.2384 30.982 31.3534 31.0007 31.4685 31.0159C31.5384 31.0263 31.607 31.0407 31.6778 31.048C32.0582 31.0915 32.4423 31.0915 32.8228 31.048C32.8931 31.0407 32.9617 31.0263 33.0316 31.0164C33.1467 30.999 33.2617 30.982 33.3746 30.9573C33.4615 30.9382 33.5483 30.9139 33.6352 30.8904C33.722 30.867 33.8145 30.8414 33.9022 30.8127C33.9986 30.781 34.0928 30.745 34.187 30.7081C34.26 30.6794 34.3316 30.6499 34.4041 30.6178C34.5049 30.5743 34.6039 30.5257 34.7011 30.4745C34.7602 30.4436 34.8175 30.4106 34.8748 30.3776C34.9773 30.319 35.0789 30.2591 35.1787 30.1935C35.2222 30.164 35.2656 30.1315 35.309 30.1006C35.6504 29.8573 35.9619 29.5748 36.2373 29.2587C36.2738 29.2153 36.312 29.1771 36.3472 29.1341C36.3697 29.1063 36.3954 29.0824 36.4171 29.0546L36.6776 28.7229L36.6624 28.7038C37.2345 27.8415 37.5395 26.8295 37.539 25.7947ZM18.7235 12.6463C18.6136 12.635 18.5064 12.6141 18.3983 12.5963C18.3314 12.5855 18.2632 12.5785 18.1972 12.5651C18.0526 12.5351 17.9119 12.4969 17.7721 12.4556C17.7452 12.4474 17.7174 12.4422 17.6905 12.4339C17.5372 12.3862 17.3866 12.3302 17.2411 12.2689C17.2294 12.2642 17.2172 12.2607 17.2055 12.2555C17.0574 12.193 16.9137 12.1226 16.7735 12.0471L16.7409 12.031C16.6063 11.9576 16.4765 11.8773 16.3501 11.7926C16.3332 11.7818 16.3158 11.7718 16.2993 11.7605C16.1812 11.6802 16.0675 11.5933 15.9563 11.5039C15.9316 11.4839 15.9055 11.4648 15.8812 11.4444C15.7796 11.3576 15.6823 11.2707 15.5877 11.1774C15.5556 11.1465 15.5234 11.1161 15.4922 11.0844C15.4609 11.0528 15.4223 11.0067 15.3866 10.9685C15.8825 10.4342 16.4833 10.0079 17.1514 9.71639C17.8196 9.42489 18.5407 9.27443 19.2697 9.27443C19.9987 9.27443 20.7198 9.42489 21.3879 9.71639C22.0561 10.0079 22.6569 10.4342 23.1527 10.9685C23.1171 11.0067 23.0837 11.0471 23.0472 11.0844C23.0107 11.1218 22.9838 11.1465 22.9517 11.1774C22.857 11.2694 22.7598 11.3593 22.6582 11.4444C22.6339 11.4648 22.6078 11.4839 22.5831 11.5039C22.4719 11.5933 22.3581 11.6802 22.24 11.7605C22.2235 11.7718 22.2062 11.7818 22.1892 11.7926C22.062 11.8795 21.9322 11.9576 21.7985 12.031L21.7659 12.0471C21.6257 12.1226 21.4819 12.193 21.3339 12.2555C21.3221 12.2607 21.31 12.2642 21.2983 12.2689C21.1515 12.3302 21.0021 12.3862 20.8489 12.4339C20.8219 12.4422 20.7942 12.4474 20.7672 12.4556C20.6274 12.4969 20.4867 12.5351 20.3422 12.5651C20.2762 12.5785 20.208 12.5855 20.1411 12.5963C20.033 12.6141 19.924 12.635 19.8159 12.6463C19.4533 12.6833 19.0878 12.6833 18.7252 12.6463H18.7235ZM19.2688 2.0796C20.2066 2.07762 21.128 2.32513 21.9386 2.79674C22.7491 3.26836 23.4196 3.94711 23.8813 4.76335C24.343 5.5796 24.5792 6.50398 24.5658 7.44165C24.5524 8.37933 24.2898 9.29656 23.8049 10.0993C23.2121 9.49838 22.5059 9.02127 21.7272 8.69562C20.9485 8.36997 20.1129 8.20228 19.2688 8.20228C18.4248 8.20228 17.5891 8.36997 16.8104 8.69562C16.0317 9.02127 15.3255 9.49838 14.7327 10.0993C14.2479 9.29656 13.9853 8.37933 13.9718 7.44165C13.9584 6.50398 14.1946 5.5796 14.6563 4.76335C15.118 3.94711 15.7885 3.26836 16.5991 2.79674C17.4096 2.32513 18.331 2.07762 19.2688 2.0796ZM9.26488 28.7728L9.25749 28.7794C8.86252 29.1743 8.39275 29.4865 7.87568 29.6978C7.3586 29.909 6.80459 30.015 6.24605 30.0096C5.68751 30.0042 5.13566 29.8875 4.62278 29.6662C4.1099 29.445 3.64628 29.1237 3.25904 28.7212C3.65209 28.316 4.12248 27.9939 4.64234 27.774C5.1622 27.554 5.72093 27.4407 6.2854 27.4407C6.84988 27.4407 7.40861 27.554 7.92847 27.774C8.44832 27.9939 8.91872 28.316 9.31177 28.7212C9.2957 28.7381 9.28224 28.7563 9.26488 28.7728ZM10.498 25.7947C10.4981 26.5173 10.3111 27.2277 9.95525 27.8567C8.97153 26.9019 7.65456 26.3678 6.28367 26.3678C4.91277 26.3678 3.5958 26.9019 2.61208 27.8567C2.29745 27.2952 2.11569 26.6691 2.08075 26.0264C2.04581 25.3838 2.15863 24.7417 2.41053 24.1494C2.66243 23.5571 3.04672 23.0305 3.53389 22.6099C4.02105 22.1893 4.59813 21.8859 5.22081 21.7231C5.84349 21.5603 6.4952 21.5423 7.12589 21.6706C7.75659 21.7989 8.34949 22.0701 8.85906 22.4632C9.36863 22.8564 9.78132 23.3611 10.0654 23.9386C10.3495 24.5161 10.4975 25.1511 10.498 25.7947ZM19.2688 30.0099C18.7036 30.0098 18.1442 29.8956 17.6242 29.6742C17.1042 29.4527 16.6342 29.1286 16.2425 28.7212C16.6355 28.316 17.1059 27.9939 17.6258 27.774C18.1456 27.554 18.7043 27.4407 19.2688 27.4407C19.8333 27.4407 20.392 27.554 20.9119 27.774C21.4317 27.9939 21.9021 28.316 22.2952 28.7212C21.9034 29.1286 21.4334 29.4527 20.9134 29.6742C20.3934 29.8956 19.834 30.0098 19.2688 30.0099ZM23.4806 25.7947C23.4811 26.5165 23.295 27.2262 22.9404 27.8549C21.9567 26.9001 20.6397 26.3661 19.2688 26.3661C17.8979 26.3661 16.581 26.9001 15.5972 27.8549C15.2825 27.2935 15.1006 26.6673 15.0655 26.0246C15.0305 25.3819 15.1432 24.7397 15.3951 24.1473C15.6469 23.5549 16.0312 23.0282 16.5184 22.6075C17.0056 22.1868 17.5827 21.8834 18.2055 21.7206C18.8282 21.5577 19.48 21.5398 20.1108 21.6681C20.7415 21.7965 21.3345 22.0677 21.8441 22.4609C22.3537 22.8542 22.7663 23.359 23.0504 23.9366C23.3345 24.5142 23.4824 25.1493 23.4827 25.7929L23.4806 25.7947ZM32.2514 21.5829C32.9865 21.5823 33.7089 21.7742 34.3468 22.1396C34.9846 22.5049 35.5157 23.0309 35.8871 23.6653C36.2586 24.2996 36.4574 25.0202 36.4638 25.7552C36.4703 26.4903 36.2841 27.2142 35.9238 27.8549C34.94 26.9002 33.623 26.3662 32.252 26.3662C30.8811 26.3662 29.5641 26.9002 28.5802 27.8549C28.2193 27.2143 28.0326 26.4902 28.0387 25.7549C28.0447 25.0196 28.2433 24.2987 28.6147 23.664C28.986 23.0293 29.5172 22.503 30.1553 22.1375C30.7933 21.772 31.516 21.58 32.2514 21.5808V21.5829ZM32.2514 30.012C31.6862 30.012 31.1268 29.8978 30.6068 29.6763C30.0867 29.4549 29.6168 29.1308 29.225 28.7233C29.6181 28.3182 30.0884 27.9961 30.6083 27.7761C31.1282 27.5562 31.6869 27.4428 32.2514 27.4428C32.8158 27.4428 33.3746 27.5562 33.8944 27.7761C34.4143 27.9961 34.8847 28.3182 35.2777 28.7233C34.8858 29.1304 34.4157 29.4541 33.8957 29.6752C33.3757 29.8962 32.8164 30.0101 32.2514 30.0099V30.012ZM32.2514 26.3509C32.682 26.3506 33.1029 26.2227 33.4608 25.9833C33.8187 25.7438 34.0976 25.4037 34.2622 25.0058C34.4268 24.6079 34.4697 24.1701 34.3856 23.7478C34.3014 23.3255 34.0939 22.9376 33.7893 22.6332C33.4848 22.3288 33.0968 22.1215 32.6744 22.0376C32.252 21.9537 31.8143 21.9969 31.4165 22.1617C31.0187 22.3266 30.6787 22.6057 30.4394 22.9638C30.2002 23.3218 30.0726 23.7428 30.0726 24.1734C30.0739 24.7505 30.304 25.3035 30.7124 25.7113C31.1209 26.119 31.6743 26.3483 32.2514 26.3487V26.3509ZM32.2514 23.0692C32.4698 23.0696 32.6832 23.1346 32.8646 23.2562C33.0461 23.3778 33.1874 23.5505 33.2707 23.7524C33.354 23.9543 33.3756 24.1764 33.3328 24.3905C33.2899 24.6047 33.1845 24.8014 33.0299 24.9556C32.8753 25.1099 32.6785 25.2149 32.4642 25.2574C32.25 25.2998 32.0279 25.2778 31.8262 25.194C31.6245 25.1103 31.4521 24.9687 31.3309 24.787C31.2096 24.6053 31.1449 24.3918 31.145 24.1734C31.145 24.0281 31.1735 23.8842 31.2291 23.7499C31.2847 23.6157 31.3662 23.4937 31.4689 23.3909C31.5717 23.2882 31.6937 23.2067 31.8279 23.1511C31.9622 23.0956 32.1061 23.067 32.2514 23.067V23.0692Z" fill="white" stroke="white" stroke-width="0.46446"/>
</svg>
