<svg width="33" height="27" viewBox="0 0 33 27" fill="none" xmlns="http://www.w3.org/2000/svg">
<path d="M16.7334 6.69499C17.1679 6.69455 17.5925 6.56529 17.9536 6.32357C18.3146 6.08184 18.5959 5.7385 18.7618 5.33694C18.9278 4.93538 18.971 4.49364 18.8859 4.06755C18.8008 3.64146 18.5914 3.25015 18.2839 2.9431C17.9765 2.63604 17.585 2.42703 17.1588 2.34247C16.7326 2.25791 16.2909 2.30161 15.8895 2.46804C15.4882 2.63447 15.1452 2.91616 14.9039 3.27749C14.6626 3.63883 14.5338 4.0636 14.5339 4.4981C14.535 5.08087 14.7671 5.63942 15.1795 6.05126C15.5918 6.46309 16.1506 6.6946 16.7334 6.69499ZM16.7334 3.22446C16.9851 3.22491 17.2311 3.29995 17.4401 3.44011C17.6492 3.58027 17.8121 3.77926 17.9081 4.01193C18.0041 4.24461 18.0291 4.50053 17.9797 4.74736C17.9304 4.99419 17.809 5.22086 17.6308 5.39872C17.4527 5.57657 17.2259 5.69765 16.979 5.74664C16.7321 5.79563 16.4762 5.77033 16.2436 5.67396C16.0111 5.57758 15.8124 5.41444 15.6725 5.20515C15.5327 4.99586 15.458 4.74981 15.4579 4.4981C15.4585 4.16017 15.5931 3.83627 15.8323 3.5975C16.0714 3.35872 16.3955 3.22456 16.7334 3.22446ZM3.67545 20.6781C3.6753 21.0492 3.78521 21.412 3.99127 21.7207C4.19733 22.0293 4.49029 22.27 4.83311 22.4121C5.17592 22.5543 5.55319 22.5916 5.91721 22.5193C6.28123 22.4471 6.61565 22.2685 6.87818 22.0062C7.14071 21.7439 7.31955 21.4096 7.3921 21.0456C7.46465 20.6817 7.42764 20.3044 7.28575 19.9614C7.14387 19.6185 6.90348 19.3253 6.59498 19.119C6.28649 18.9127 5.92374 18.8025 5.55262 18.8024C5.05508 18.8026 4.57796 19.0002 4.22601 19.3519C3.87405 19.7036 3.67604 20.1805 3.67545 20.6781ZM6.50467 20.6781C6.50504 20.8666 6.44946 21.0511 6.34495 21.208C6.24045 21.365 6.09173 21.4874 5.91762 21.5597C5.74351 21.6321 5.55183 21.6512 5.36687 21.6146C5.1819 21.578 5.01195 21.4873 4.87854 21.3541C4.74514 21.2208 4.65426 21.051 4.61743 20.866C4.5806 20.6811 4.59947 20.4894 4.67164 20.3152C4.74382 20.141 4.86605 19.9922 5.02288 19.8875C5.1797 19.7828 5.36406 19.727 5.55262 19.7271C5.80484 19.7274 6.04665 19.8277 6.2251 20.0059C6.40355 20.1842 6.50408 20.4259 6.50467 20.6781ZM14.8566 20.6781C14.8564 21.0493 14.9663 21.4123 15.1724 21.7211C15.3784 22.0299 15.6715 22.2706 16.0144 22.4128C16.3573 22.555 16.7347 22.5924 17.0989 22.5201C17.463 22.4478 17.7975 22.2691 18.0601 22.0067C18.3227 21.7443 18.5015 21.4098 18.5741 21.0457C18.6466 20.6817 18.6095 20.3042 18.4674 19.9612C18.3254 19.6182 18.0849 19.325 17.7762 19.1188C17.4676 18.9125 17.1046 18.8024 16.7334 18.8024C16.236 18.8028 15.759 19.0005 15.4071 19.3521C15.0553 19.7038 14.8573 20.1806 14.8566 20.6781ZM17.6862 20.6781C17.6866 20.8666 17.631 21.051 17.5265 21.2079C17.4221 21.3649 17.2734 21.4873 17.0993 21.5597C16.9252 21.6321 16.7336 21.6512 16.5487 21.6147C16.3637 21.5781 16.1938 21.4875 16.0603 21.3543C15.9269 21.2212 15.836 21.0514 15.7991 20.8665C15.7621 20.6816 15.7809 20.49 15.853 20.3158C15.925 20.1415 16.0471 19.9926 16.2039 19.8878C16.3606 19.7831 16.5449 19.7271 16.7334 19.7271C16.9857 19.7272 17.2278 19.8274 17.4064 20.0057C17.585 20.1839 17.6856 20.4257 17.6862 20.6781ZM32.468 22.0762C32.4666 20.9491 32.0477 19.8624 31.2923 19.0258C30.5368 18.1893 29.4983 17.6622 28.3771 17.5463V14.2949C28.3771 14.2342 28.3651 14.174 28.3419 14.1179C28.3186 14.0618 28.2845 14.0108 28.2415 13.9678C28.1985 13.9249 28.1474 13.8909 28.0913 13.8677C28.0351 13.8445 27.9749 13.8326 27.9142 13.8327H17.1952V11.677C17.2393 11.6736 17.2835 11.6717 17.3272 11.6669C17.402 11.659 17.4768 11.6441 17.5497 11.6329C17.6668 11.6153 17.7838 11.5981 17.8986 11.573C17.9925 11.5528 18.0856 11.5267 18.1768 11.5016C18.268 11.4765 18.3563 11.4526 18.4442 11.4238C18.5478 11.3898 18.6487 11.3517 18.7501 11.3116C18.8211 11.2836 18.8914 11.2544 18.9613 11.2234C19.0694 11.1752 19.176 11.1243 19.281 11.069C19.3371 11.0394 19.3932 11.0076 19.4471 10.9762C19.5593 10.9134 19.667 10.8487 19.7732 10.778C19.8135 10.7511 19.8517 10.7212 19.8913 10.6931C20.2418 10.4447 20.5619 10.156 20.8452 9.83309C20.8924 9.77999 20.9413 9.72838 20.9862 9.67341C21.0075 9.64724 21.0318 9.62443 21.0528 9.59863L21.2771 9.31294L21.2667 9.29948C21.8287 8.47498 22.1553 7.5128 22.2112 6.51651C22.2671 5.52021 22.0503 4.52754 21.584 3.64533C21.1177 2.76312 20.4196 2.02478 19.5649 1.50979C18.7102 0.994798 17.7313 0.722656 16.7334 0.722656C15.7355 0.722656 14.7566 0.994798 13.9019 1.50979C13.0472 2.02478 12.3491 2.76312 11.8828 3.64533C11.4165 4.52754 11.1997 5.52021 11.2556 6.51651C11.3115 7.5128 11.6381 8.47498 12.2001 9.29948L12.1897 9.31294L12.414 9.59863C12.435 9.62518 12.4593 9.64799 12.4806 9.67341C12.5255 9.72838 12.5745 9.77999 12.6216 9.83309C12.9049 10.156 13.225 10.4447 13.5755 10.6931C13.6151 10.7212 13.6533 10.7511 13.6936 10.778C13.7998 10.8487 13.9094 10.9134 14.0197 10.9762C14.0751 11.0076 14.1297 11.0394 14.1858 11.069C14.2908 11.1243 14.3974 11.1752 14.5055 11.2234C14.5754 11.2544 14.6457 11.2836 14.7167 11.3116C14.8181 11.3517 14.919 11.3898 15.0226 11.4238C15.1105 11.4526 15.2003 11.4769 15.29 11.5016C15.3797 11.5263 15.4743 11.5528 15.5682 11.573C15.683 11.5981 15.8 11.6153 15.9171 11.6329C15.9919 11.6441 16.0667 11.659 16.1396 11.6669C16.1833 11.6717 16.2275 11.6736 16.2716 11.677V13.8327H5.55262C5.43004 13.8327 5.31248 13.8814 5.2258 13.9681C5.13913 14.0548 5.09043 14.1723 5.09043 14.2949V17.5482C4.31144 17.6272 3.56602 17.9059 2.92628 18.3573C2.28655 18.8088 1.77417 19.4177 1.4387 20.1252C1.10323 20.8327 0.956046 21.6148 1.01137 22.3958C1.0667 23.1768 1.32267 23.9304 1.75452 24.5835L1.74143 24.5999L1.9658 24.8856C1.98449 24.9096 2.00656 24.9301 2.026 24.9541C2.05629 24.9915 2.0892 25.0251 2.12061 25.0614C2.35776 25.3336 2.6261 25.5769 2.92009 25.7864C2.95748 25.813 2.99488 25.841 3.03227 25.8665C3.11678 25.9229 3.20428 25.9745 3.29403 26.025C3.34339 26.0534 3.39275 26.0819 3.4436 26.1084C3.52737 26.1525 3.61263 26.1933 3.69938 26.2318C3.76071 26.2595 3.82241 26.2849 3.88635 26.3096C3.96749 26.3414 4.04864 26.3724 4.13165 26.3997C4.20644 26.4244 4.28422 26.4457 4.36163 26.4666C4.43903 26.4876 4.5112 26.5078 4.58599 26.5242C4.68321 26.5455 4.78231 26.5616 4.8814 26.5751C4.94161 26.5837 5.00069 26.596 5.06126 26.6024C5.38889 26.6398 5.71971 26.6398 6.04734 26.6024C6.10829 26.596 6.16813 26.5837 6.2287 26.5747C6.32742 26.5601 6.42577 26.5455 6.52225 26.5242C6.59703 26.5078 6.67182 26.4868 6.74848 26.4659C6.82514 26.445 6.90105 26.4244 6.97583 26.4001C7.05997 26.3724 7.14186 26.3414 7.22375 26.3088C7.28545 26.2845 7.34641 26.2595 7.40661 26.2341C7.49411 26.1952 7.58037 26.1535 7.66538 26.1092C7.71474 26.0834 7.76297 26.0553 7.81121 26.0276C7.90058 25.9764 7.98883 25.9248 8.07297 25.8676C8.11036 25.8429 8.14514 25.8156 8.18104 25.7898C8.47416 25.5815 8.74175 25.3394 8.97828 25.0685C9.01156 25.0311 9.04708 24.9937 9.07924 24.9537C9.09831 24.9309 9.11963 24.9107 9.13832 24.8871L9.36269 24.6014L9.3496 24.585C9.782 23.9319 10.0384 23.1782 10.0941 22.397C10.1498 21.6157 10.0028 20.8333 9.66731 20.1255C9.33187 19.4177 8.81935 18.8085 8.17939 18.3569C7.53943 17.9053 6.79371 17.6266 6.01444 17.5478V14.7582H16.2716V17.5478C15.4925 17.6268 14.7471 17.9055 14.1073 18.357C13.4676 18.8085 12.9552 19.4175 12.6198 20.1251C12.2844 20.8326 12.1373 21.6148 12.1928 22.3958C12.2482 23.1769 12.5044 23.9304 12.9364 24.5835L12.9233 24.5999L13.1477 24.8856C13.1668 24.9099 13.1885 24.9305 13.2079 24.9541C13.2374 24.9915 13.27 25.0236 13.3006 25.0591C13.5396 25.3341 13.8105 25.5796 14.1076 25.7906C14.1428 25.8152 14.1764 25.8418 14.2123 25.8653C14.2983 25.9226 14.3873 25.9749 14.4771 26.0261C14.5249 26.0538 14.5728 26.0815 14.6218 26.1069C14.707 26.1518 14.7934 26.1933 14.8813 26.2322C14.9411 26.2591 15.0021 26.2842 15.063 26.307C15.1453 26.3395 15.2275 26.3705 15.3117 26.3982C15.3865 26.4225 15.4613 26.4435 15.5387 26.464C15.6161 26.4846 15.6882 26.5059 15.7653 26.5224C15.8617 26.5437 15.9601 26.5598 16.0588 26.5728C16.1194 26.5818 16.1788 26.5942 16.2402 26.6005C16.5677 26.6379 16.8984 26.6379 17.2259 26.6005C17.2872 26.5942 17.3467 26.5818 17.4072 26.5728C17.506 26.5583 17.6043 26.5437 17.7008 26.5224C17.7756 26.5059 17.8504 26.485 17.9274 26.464C18.0044 26.4431 18.08 26.4225 18.1544 26.3982C18.2385 26.3705 18.3208 26.3395 18.403 26.307C18.464 26.2827 18.5249 26.2576 18.5848 26.2322C18.6726 26.1948 18.759 26.1518 18.8443 26.1069C18.8933 26.0815 18.9411 26.0538 18.989 26.0261C19.0787 25.9749 19.1677 25.9226 19.2538 25.8653C19.2911 25.8414 19.3233 25.8149 19.3585 25.7906C19.6555 25.5796 19.9264 25.3341 20.1654 25.0591C20.1961 25.0236 20.2286 24.9903 20.2582 24.9541C20.2776 24.9305 20.2993 24.9099 20.3184 24.8856L20.5427 24.5999L20.5296 24.5835C20.962 23.9304 21.2185 23.1767 21.2741 22.3955C21.3298 21.6142 21.1828 20.8318 20.8473 20.124C20.5119 19.4162 19.9994 18.807 19.3594 18.3554C18.7195 17.9039 17.9737 17.6252 17.1945 17.5463V14.7567H27.4531V17.5463C26.6739 17.6251 25.9282 17.9038 25.2882 18.3553C24.6482 18.8069 24.1357 19.416 23.8002 20.1238C23.4648 20.8315 23.3177 21.6139 23.3733 22.3951C23.4289 23.1764 23.6853 23.93 24.1176 24.5831L24.1045 24.5999L24.3288 24.8856C24.3483 24.9099 24.3704 24.9309 24.3902 24.9548C24.4186 24.9896 24.4496 25.0217 24.4792 25.0558C24.7183 25.3315 24.9896 25.5777 25.2873 25.7891C25.3247 25.8145 25.3576 25.8414 25.3942 25.8639C25.4798 25.9211 25.5681 25.973 25.656 26.0239C25.7046 26.0519 25.7528 26.08 25.8029 26.1062C25.8874 26.1503 25.9731 26.1914 26.0602 26.2303C26.1211 26.2576 26.1825 26.283 26.2445 26.3073C26.3261 26.3395 26.4076 26.3705 26.491 26.3978C26.5658 26.4225 26.6432 26.4435 26.7206 26.4644C26.798 26.4853 26.8701 26.5059 26.9449 26.5224C27.0418 26.5437 27.1409 26.5598 27.24 26.5728C27.3002 26.5818 27.3593 26.5942 27.4202 26.6005C27.7478 26.6379 28.0787 26.6379 28.4063 26.6005C28.4669 26.5942 28.5259 26.5818 28.5861 26.5732C28.6852 26.5583 28.7843 26.5437 28.8816 26.5224C28.9563 26.5059 29.0311 26.485 29.1059 26.4648C29.1807 26.4446 29.2604 26.4225 29.3359 26.3978C29.4189 26.3705 29.5001 26.3395 29.5812 26.3077C29.644 26.283 29.7057 26.2576 29.7682 26.2299C29.8549 26.1925 29.9402 26.1507 30.0239 26.1065C30.0748 26.08 30.1242 26.0516 30.1735 26.0232C30.2618 25.9727 30.3493 25.9211 30.4353 25.8646C30.4727 25.8392 30.5101 25.8111 30.5475 25.7846C30.8414 25.5751 31.1098 25.3317 31.3469 25.0595C31.3784 25.0221 31.4113 24.9892 31.4415 24.9522C31.461 24.9283 31.4831 24.9077 31.5018 24.8838L31.7261 24.5981L31.713 24.5816C32.2058 23.839 32.4684 22.9675 32.468 22.0762ZM16.2637 10.7526C16.1691 10.7429 16.0768 10.7249 15.9837 10.7096C15.9261 10.7003 15.8674 10.6943 15.8105 10.6827C15.686 10.6569 15.5648 10.624 15.4444 10.5884C15.4212 10.5813 15.3973 10.5769 15.3741 10.5697C15.2421 10.5286 15.1124 10.4804 14.9871 10.4277C14.977 10.4235 14.9665 10.4205 14.9564 10.4161C14.8289 10.3622 14.7052 10.3016 14.5844 10.2366L14.5563 10.2227C14.4404 10.1595 14.3286 10.0904 14.2198 10.0174C14.2052 10.0081 14.1902 9.99949 14.176 9.98977C14.0743 9.92059 13.9763 9.8458 13.8806 9.76877C13.8593 9.75157 13.8369 9.73512 13.8159 9.71754C13.7284 9.64275 13.6447 9.56796 13.5631 9.48757C13.5355 9.46102 13.5078 9.43484 13.4809 9.40754C13.454 9.38025 13.4207 9.34061 13.39 9.3077C13.817 8.8475 14.3345 8.48039 14.9099 8.22935C15.4853 7.9783 16.1063 7.84873 16.7341 7.84873C17.3619 7.84873 17.983 7.9783 18.5584 8.22935C19.1338 8.48039 19.6513 8.8475 20.0783 9.3077C20.0476 9.34061 20.0188 9.37539 19.9874 9.40754C19.956 9.4397 19.9328 9.46102 19.9052 9.48757C19.8236 9.56684 19.7399 9.64425 19.6524 9.71754C19.6314 9.73512 19.609 9.75157 19.5877 9.76877C19.4919 9.8458 19.394 9.92059 19.2923 9.98977C19.2781 9.99949 19.2631 10.0081 19.2485 10.0174C19.139 10.0922 19.0271 10.1595 18.912 10.2227L18.8839 10.2366C18.7631 10.3016 18.6394 10.3622 18.5119 10.4161C18.5018 10.4205 18.4913 10.4235 18.4812 10.4277C18.3548 10.4804 18.2262 10.5286 18.0942 10.5697C18.071 10.5769 18.047 10.5813 18.0239 10.5884C17.9035 10.624 17.7823 10.6569 17.6578 10.6827C17.6009 10.6943 17.5422 10.7003 17.4846 10.7096C17.3915 10.7249 17.2977 10.7429 17.2046 10.7526C16.8923 10.7845 16.5775 10.7845 16.2652 10.7526H16.2637ZM16.7334 1.65242C17.541 1.65072 18.3346 1.86388 19.0326 2.27004C19.7307 2.67621 20.3081 3.26075 20.7058 3.96372C21.1034 4.66668 21.3068 5.46277 21.2953 6.27031C21.2837 7.07785 21.0575 7.86778 20.6399 8.55908C20.1294 8.0416 19.5212 7.6307 18.8506 7.35025C18.18 7.0698 17.4603 6.92538 16.7334 6.92538C16.0065 6.92538 15.2868 7.0698 14.6162 7.35025C13.9456 7.6307 13.3374 8.0416 12.8269 8.55908C12.4093 7.86778 12.1831 7.07785 12.1715 6.27031C12.16 5.46277 12.3634 4.66668 12.7611 3.96372C13.1587 3.26075 13.7361 2.67621 14.4342 2.27004C15.1322 1.86388 15.9258 1.65072 16.7334 1.65242ZM8.11784 24.6411L8.11149 24.6467C7.77133 24.9868 7.36676 25.2557 6.92144 25.4376C6.47613 25.6196 5.999 25.7109 5.51798 25.7062C5.03696 25.7015 4.5617 25.601 4.12 25.4105C3.67829 25.2199 3.27901 24.9433 2.94552 24.5966C3.28402 24.2477 3.68913 23.9703 4.13684 23.7808C4.58455 23.5914 5.06574 23.4938 5.55187 23.4938C6.03801 23.4938 6.5192 23.5914 6.96691 23.7808C7.41461 23.9703 7.81973 24.2477 8.15823 24.5966C8.14439 24.6112 8.1328 24.6269 8.11784 24.6411ZM9.17983 22.0762C9.17988 22.6986 9.01886 23.3104 8.71241 23.8521C7.86521 23.0298 6.73101 22.5698 5.55038 22.5698C4.36974 22.5698 3.23554 23.0298 2.38835 23.8521C2.11739 23.3685 1.96085 22.8293 1.93076 22.2758C1.90067 21.7224 1.99783 21.1694 2.21477 20.6593C2.43171 20.1492 2.76267 19.6956 3.18222 19.3334C3.60178 18.9712 4.09877 18.7099 4.63503 18.5697C5.17129 18.4295 5.73255 18.414 6.27572 18.5245C6.81888 18.635 7.3295 18.8685 7.76835 19.2071C8.2072 19.5457 8.56261 19.9804 8.8073 20.4778C9.05198 20.9751 9.17942 21.5219 9.17983 22.0762ZM16.7334 25.7064C16.2466 25.7063 15.7649 25.608 15.317 25.4173C14.8692 25.2266 14.4644 24.9474 14.127 24.5966C14.4655 24.2477 14.8707 23.9703 15.3184 23.7808C15.7661 23.5914 16.2473 23.4938 16.7334 23.4938C17.2195 23.4938 17.7007 23.5914 18.1484 23.7808C18.5961 23.9703 19.0013 24.2477 19.3398 24.5966C19.0024 24.9474 18.5976 25.2266 18.1498 25.4173C17.7019 25.608 17.2202 25.7063 16.7334 25.7064ZM20.3606 22.0762C20.3611 22.6979 20.2008 23.3091 19.8954 23.8506C19.0482 23.0283 17.914 22.5684 16.7334 22.5684C15.5528 22.5684 14.4186 23.0283 13.5714 23.8506C13.3003 23.367 13.1436 22.8278 13.1134 22.2743C13.0833 21.7207 13.1804 21.1676 13.3973 20.6575C13.6142 20.1473 13.9451 19.6937 14.3647 19.3314C14.7843 18.9691 15.2813 18.7078 15.8176 18.5675C16.3539 18.4273 16.9153 18.4119 17.4585 18.5224C18.0017 18.6329 18.5124 18.8665 18.9512 19.2052C19.3901 19.5438 19.7455 19.9786 19.9902 20.476C20.2348 20.9735 20.3622 21.5204 20.3625 22.0747L20.3606 22.0762ZM27.9142 18.449C28.5472 18.4485 29.1694 18.6138 29.7188 18.9284C30.2681 19.243 30.7255 19.696 31.0454 20.2423C31.3652 20.7886 31.5365 21.4092 31.542 22.0422C31.5476 22.6753 31.3872 23.2987 31.077 23.8506C30.2297 23.0283 29.0954 22.5685 27.9147 22.5685C26.7341 22.5685 25.5998 23.0283 24.7525 23.8506C24.4417 23.2988 24.2809 22.6752 24.2861 22.0419C24.2913 21.4087 24.4624 20.7878 24.7822 20.2412C25.102 19.6946 25.5595 19.2414 26.109 18.9266C26.6585 18.6118 27.2809 18.4465 27.9142 18.4471V18.449ZM27.9142 25.7083C27.4274 25.7082 26.9457 25.6099 26.4978 25.4192C26.05 25.2285 25.6452 24.9493 25.3078 24.5984C25.6463 24.2495 26.0514 23.9721 26.4991 23.7827C26.9469 23.5933 27.428 23.4956 27.9142 23.4956C28.4003 23.4956 28.8815 23.5933 29.3292 23.7827C29.7769 23.9721 30.182 24.2495 30.5205 24.5984C30.183 24.949 29.7782 25.2278 29.3303 25.4182C28.8825 25.6085 28.4008 25.7066 27.9142 25.7064V25.7083ZM27.9142 22.5552C28.285 22.555 28.6475 22.4448 28.9557 22.2386C29.264 22.0325 29.5042 21.7395 29.6459 21.3968C29.7877 21.0541 29.8247 20.6771 29.7522 20.3134C29.6797 19.9497 29.501 19.6157 29.2387 19.3535C28.9764 19.0913 28.6422 18.9129 28.2785 18.8406C27.9148 18.7683 27.5378 18.8055 27.1952 18.9475C26.8525 19.0895 26.5597 19.3298 26.3537 19.6382C26.1477 19.9466 26.0378 20.3091 26.0378 20.6799C26.0389 21.177 26.2371 21.6532 26.5888 22.0044C26.9406 22.3556 27.4172 22.553 27.9142 22.5534V22.5552ZM27.9142 19.729C28.1023 19.7293 28.2861 19.7854 28.4423 19.8901C28.5986 19.9948 28.7203 20.1435 28.792 20.3174C28.8638 20.4913 28.8824 20.6825 28.8455 20.867C28.8086 21.0514 28.7178 21.2208 28.5847 21.3536C28.4516 21.4865 28.282 21.5769 28.0975 21.6135C27.913 21.65 27.7218 21.6311 27.548 21.5589C27.3743 21.4868 27.2258 21.3649 27.1214 21.2084C27.017 21.0519 26.9613 20.868 26.9614 20.6799C26.9613 20.5548 26.9859 20.4309 27.0338 20.3153C27.0817 20.1996 27.1519 20.0946 27.2403 20.0061C27.3288 19.9176 27.4339 19.8474 27.5495 19.7996C27.6651 19.7517 27.789 19.7271 27.9142 19.7271V19.729Z" fill="#000000" stroke="#000000" stroke-width="0.4"/>
</svg>
