<svg width="33" height="27" viewBox="0 0 33 27" fill="none" xmlns="http://www.w3.org/2000/svg">
<path d="M16.7334 6.6844C17.1679 6.68396 17.5925 6.5547 17.9536 6.31298C18.3146 6.07125 18.5959 5.72791 18.7618 5.32635C18.9278 4.92479 18.971 4.48305 18.8859 4.05696C18.8008 3.63087 18.5914 3.23956 18.2839 2.93251C17.9765 2.62546 17.585 2.41644 17.1588 2.33188C16.7326 2.24732 16.2909 2.29102 15.8895 2.45745C15.4882 2.62388 15.1452 2.90557 14.9039 3.2669C14.6626 3.62824 14.5338 4.05301 14.5339 4.48751C14.535 5.07028 14.7671 5.62883 15.1795 6.04067C15.5918 6.4525 16.1506 6.68401 16.7334 6.6844ZM16.7334 3.21387C16.9851 3.21432 17.2311 3.28936 17.4401 3.42952C17.6492 3.56968 17.8121 3.76867 17.9081 4.00134C18.0041 4.23402 18.0291 4.48994 17.9797 4.73677C17.9304 4.9836 17.809 5.21027 17.6308 5.38813C17.4527 5.56599 17.2259 5.68706 16.979 5.73605C16.7321 5.78504 16.4762 5.75975 16.2436 5.66337C16.0111 5.56699 15.8124 5.40385 15.6725 5.19456C15.5327 4.98527 15.458 4.73922 15.4579 4.48751C15.4585 4.14958 15.5931 3.82569 15.8323 3.58691C16.0714 3.34813 16.3955 3.21397 16.7334 3.21387ZM3.67545 20.6675C3.6753 21.0386 3.78521 21.4014 3.99127 21.7101C4.19733 22.0187 4.49029 22.2594 4.83311 22.4015C5.17592 22.5437 5.55319 22.581 5.91721 22.5087C6.28123 22.4365 6.61565 22.2579 6.87818 21.9956C7.14071 21.7333 7.31955 21.399 7.3921 21.035C7.46465 20.6711 7.42764 20.2938 7.28575 19.9508C7.14387 19.6079 6.90348 19.3148 6.59498 19.1084C6.28649 18.9021 5.92374 18.7919 5.55262 18.7918C5.05508 18.792 4.57796 18.9896 4.22601 19.3413C3.87405 19.693 3.67604 20.1699 3.67545 20.6675ZM6.50467 20.6675C6.50504 20.856 6.44946 21.0405 6.34495 21.1974C6.24045 21.3544 6.09173 21.4768 5.91762 21.5492C5.74351 21.6215 5.55183 21.6406 5.36687 21.604C5.1819 21.5674 5.01195 21.4767 4.87854 21.3435C4.74514 21.2102 4.65426 21.0404 4.61743 20.8555C4.5806 20.6705 4.59947 20.4788 4.67164 20.3046C4.74382 20.1304 4.86605 19.9816 5.02288 19.8769C5.1797 19.7722 5.36406 19.7164 5.55262 19.7166C5.80484 19.7168 6.04665 19.8171 6.2251 19.9953C6.40355 20.1736 6.50408 20.4153 6.50467 20.6675ZM14.8566 20.6675C14.8564 21.0387 14.9663 21.4017 15.1724 21.7105C15.3784 22.0193 15.6715 22.26 16.0144 22.4022C16.3573 22.5444 16.7347 22.5818 17.0989 22.5095C17.463 22.4372 17.7975 22.2585 18.0601 21.9961C18.3227 21.7337 18.5015 21.3993 18.5741 21.0352C18.6466 20.6711 18.6095 20.2936 18.4674 19.9506C18.3254 19.6076 18.0849 19.3145 17.7762 19.1082C17.4675 18.9019 17.1046 18.7918 16.7334 18.7918C16.236 18.7922 15.759 18.9899 15.4071 19.3415C15.0553 19.6932 14.8573 20.17 14.8566 20.6675ZM17.6862 20.6675C17.6866 20.856 17.631 21.0404 17.5265 21.1973C17.4221 21.3543 17.2734 21.4767 17.0993 21.5491C16.9252 21.6215 16.7336 21.6406 16.5487 21.6041C16.3637 21.5675 16.1938 21.4769 16.0603 21.3437C15.9269 21.2106 15.836 21.0408 15.7991 20.8559C15.7621 20.671 15.7809 20.4794 15.853 20.3052C15.925 20.131 16.0471 19.982 16.2039 19.8773C16.3606 19.7725 16.5449 19.7166 16.7334 19.7166C16.9857 19.7166 17.2278 19.8168 17.4064 19.9951C17.585 20.1733 17.6856 20.4151 17.6862 20.6675ZM32.468 22.0656C32.4666 20.9385 32.0477 19.8518 31.2923 19.0153C30.5368 18.1787 29.4983 17.6517 28.3771 17.5357V14.2843C28.3771 14.2236 28.3651 14.1634 28.3419 14.1073C28.3186 14.0512 28.2845 14.0002 28.2415 13.9573C28.1985 13.9143 28.1474 13.8803 28.0913 13.8571C28.0351 13.8339 27.9749 13.8221 27.9142 13.8221H17.1952V11.6664C17.2393 11.663 17.2835 11.6612 17.3272 11.6563C17.402 11.6484 17.4768 11.6335 17.5497 11.6223C17.6668 11.6047 17.7838 11.5875 17.8986 11.5624C17.9925 11.5422 18.0856 11.5161 18.1768 11.491C18.268 11.466 18.3563 11.442 18.4442 11.4132C18.5478 11.3792 18.6487 11.3411 18.7501 11.3011C18.8211 11.273 18.8914 11.2438 18.9613 11.2128C19.0694 11.1646 19.176 11.1137 19.281 11.0584C19.3371 11.0288 19.3932 10.997 19.4471 10.9656C19.5593 10.9028 19.667 10.8381 19.7732 10.7674C19.8135 10.7405 19.8517 10.7106 19.8913 10.6826C20.2418 10.4341 20.5619 10.1454 20.8452 9.8225C20.8924 9.7694 20.9413 9.71779 20.9862 9.66283C21.0075 9.63665 21.0318 9.61384 21.0528 9.58804L21.2771 9.30235L21.2667 9.28889C21.8287 8.46439 22.1553 7.50221 22.2112 6.50592C22.2671 5.50962 22.0503 4.51695 21.584 3.63474C21.1177 2.75253 20.4196 2.01419 19.5649 1.4992C18.7102 0.984208 17.7313 0.712067 16.7334 0.712067C15.7355 0.712067 14.7566 0.984208 13.9019 1.4992C13.0472 2.01419 12.3491 2.75253 11.8828 3.63474C11.4165 4.51695 11.1997 5.50962 11.2556 6.50592C11.3115 7.50221 11.6381 8.46439 12.2001 9.28889L12.1897 9.30235L12.414 9.58804C12.435 9.61459 12.4593 9.6374 12.4806 9.66283C12.5255 9.71779 12.5745 9.7694 12.6216 9.8225C12.9049 10.1454 13.2251 10.4341 13.5755 10.6826C13.6151 10.7106 13.6533 10.7405 13.6936 10.7674C13.7998 10.8381 13.9094 10.9028 14.0197 10.9656C14.0751 10.997 14.1297 11.0288 14.1858 11.0584C14.2908 11.1137 14.3974 11.1646 14.5055 11.2128C14.5754 11.2438 14.6457 11.273 14.7167 11.3011C14.8181 11.3411 14.919 11.3792 15.0226 11.4132C15.1105 11.442 15.2003 11.4663 15.29 11.491C15.3797 11.5157 15.4743 11.5422 15.5682 11.5624C15.683 11.5875 15.8 11.6047 15.9171 11.6223C15.9919 11.6335 16.0667 11.6484 16.1396 11.6563C16.1833 11.6612 16.2275 11.663 16.2716 11.6664V13.8221H5.55262C5.43004 13.8221 5.31248 13.8708 5.2258 13.9575C5.13913 14.0442 5.09043 14.1618 5.09043 14.2843V17.5376C4.31144 17.6166 3.56602 17.8953 2.92628 18.3467C2.28655 18.7982 1.77417 19.4071 1.4387 20.1146C1.10323 20.8221 0.956046 21.6042 1.01137 22.3852C1.0667 23.1662 1.32267 23.9198 1.75452 24.5729L1.74143 24.5894L1.9658 24.875C1.98449 24.899 2.00656 24.9195 2.026 24.9435C2.05629 24.9809 2.0892 25.0145 2.12061 25.0508C2.35776 25.323 2.6261 25.5663 2.92009 25.7759C2.95748 25.8024 2.99488 25.8305 3.03227 25.8559C3.11678 25.9123 3.20428 25.9639 3.29403 26.0144C3.34339 26.0429 3.39275 26.0713 3.4436 26.0978C3.52737 26.1419 3.61263 26.1827 3.69938 26.2212C3.76071 26.2489 3.82241 26.2743 3.88635 26.299C3.96749 26.3308 4.04864 26.3618 4.13165 26.3891C4.20644 26.4138 4.28422 26.4351 4.36163 26.4561C4.43903 26.477 4.5112 26.4972 4.58599 26.5136C4.68321 26.535 4.78231 26.551 4.8814 26.5645C4.94161 26.5731 5.00069 26.5854 5.06127 26.5918C5.38889 26.6292 5.71971 26.6292 6.04734 26.5918C6.1083 26.5854 6.16813 26.5731 6.2287 26.5641C6.32742 26.5495 6.42577 26.535 6.52225 26.5136C6.59703 26.4972 6.67182 26.4762 6.74848 26.4553C6.82514 26.4344 6.90105 26.4138 6.97583 26.3895C7.05997 26.3618 7.14186 26.3308 7.22375 26.2983C7.28545 26.2739 7.34641 26.2489 7.40661 26.2235C7.49411 26.1846 7.58037 26.1429 7.66538 26.0986C7.71474 26.0728 7.76297 26.0447 7.81121 26.0171C7.90058 25.9658 7.98883 25.9142 8.07297 25.857C8.11036 25.8323 8.14514 25.805 8.18104 25.7792C8.47417 25.5709 8.74175 25.3288 8.97828 25.0579C9.01156 25.0205 9.04708 24.9831 9.07924 24.9431C9.09831 24.9203 9.11963 24.9001 9.13832 24.8765L9.36269 24.5908L9.3496 24.5744C9.782 23.9213 10.0384 23.1676 10.0941 22.3864C10.1498 21.6051 10.0028 20.8227 9.66731 20.1149C9.33187 19.4071 8.81935 18.7979 8.17939 18.3464C7.53943 17.8948 6.79371 17.6161 6.01444 17.5372V14.7476H16.2716V17.5372C15.4925 17.6162 14.7471 17.8949 14.1073 18.3464C13.4676 18.7979 12.9552 19.4069 12.6198 20.1145C12.2844 20.822 12.1373 21.6042 12.1928 22.3853C12.2482 23.1663 12.5044 23.9198 12.9364 24.5729L12.9233 24.5894L13.1477 24.875C13.1668 24.8993 13.1885 24.9199 13.2079 24.9435C13.2374 24.9809 13.27 25.013 13.3006 25.0485C13.5396 25.3235 13.8105 25.5691 14.1076 25.78C14.1428 25.8047 14.1764 25.8312 14.2123 25.8548C14.2983 25.912 14.3873 25.9643 14.4771 26.0156C14.5249 26.0432 14.5728 26.0709 14.6218 26.0963C14.707 26.1412 14.7934 26.1827 14.8813 26.2216C14.9411 26.2485 15.0021 26.2736 15.063 26.2964C15.1453 26.3289 15.2275 26.36 15.3117 26.3876C15.3865 26.4119 15.4613 26.4329 15.5387 26.4534C15.6161 26.474 15.6882 26.4953 15.7653 26.5118C15.8617 26.5331 15.9601 26.5492 16.0588 26.5623C16.1194 26.5712 16.1788 26.5836 16.2402 26.5899C16.5677 26.6273 16.8984 26.6273 17.2259 26.5899C17.2872 26.5836 17.3467 26.5712 17.4072 26.5623C17.506 26.5477 17.6043 26.5331 17.7008 26.5118C17.7756 26.4953 17.8504 26.4744 17.9274 26.4534C18.0044 26.4325 18.08 26.4119 18.1544 26.3876C18.2385 26.36 18.3208 26.3289 18.403 26.2964C18.464 26.2721 18.5249 26.247 18.5848 26.2216C18.6726 26.1842 18.759 26.1412 18.8443 26.0963C18.8933 26.0709 18.9411 26.0432 18.989 26.0156C19.0787 25.9643 19.1677 25.912 19.2538 25.8548C19.2911 25.8308 19.3233 25.8043 19.3585 25.78C19.6555 25.5691 19.9264 25.3235 20.1654 25.0485C20.1961 25.013 20.2286 24.9797 20.2582 24.9435C20.2776 24.9199 20.2993 24.8993 20.3184 24.875L20.5427 24.5894L20.5296 24.5729C20.962 23.9198 21.2185 23.1662 21.2741 22.3849C21.3298 21.6036 21.1828 20.8212 20.8473 20.1134C20.5119 19.4056 19.9994 18.7964 19.3594 18.3449C18.7195 17.8933 17.9737 17.6146 17.1945 17.5357V14.7462H27.4531V17.5357C26.6739 17.6145 25.9282 17.8932 25.2882 18.3448C24.6482 18.7963 24.1357 19.4054 23.8002 20.1132C23.4648 20.8209 23.3177 21.6033 23.3733 22.3845C23.4289 23.1658 23.6853 23.9194 24.1176 24.5725L24.1045 24.5894L24.3289 24.875C24.3483 24.8993 24.3704 24.9203 24.3902 24.9442C24.4186 24.979 24.4496 25.0112 24.4792 25.0452C24.7183 25.3209 24.9896 25.5671 25.2873 25.7785C25.3247 25.8039 25.3576 25.8308 25.3942 25.8533C25.4798 25.9105 25.5681 25.9625 25.656 26.0133C25.7046 26.0414 25.7528 26.0694 25.8029 26.0956C25.8874 26.1397 25.9731 26.1808 26.0602 26.2197C26.1211 26.247 26.1825 26.2724 26.2445 26.2968C26.3261 26.3289 26.4076 26.36 26.491 26.3872C26.5658 26.4119 26.6432 26.4329 26.7206 26.4538C26.798 26.4748 26.8701 26.4953 26.9449 26.5118C27.0418 26.5331 27.1409 26.5492 27.24 26.5623C27.3002 26.5712 27.3593 26.5836 27.4202 26.5899C27.7478 26.6273 28.0787 26.6273 28.4063 26.5899C28.4669 26.5836 28.5259 26.5712 28.5861 26.5626C28.6852 26.5477 28.7843 26.5331 28.8816 26.5118C28.9563 26.4953 29.0311 26.4744 29.1059 26.4542C29.1807 26.434 29.2604 26.4119 29.3359 26.3872C29.4189 26.36 29.5001 26.3289 29.5812 26.2971C29.644 26.2725 29.7057 26.247 29.7682 26.2194C29.8549 26.182 29.9402 26.1401 30.0239 26.096C30.0748 26.0694 30.1242 26.041 30.1735 26.0126C30.2618 25.9621 30.3493 25.9105 30.4353 25.854C30.4727 25.8286 30.5101 25.8005 30.5475 25.774C30.8415 25.5645 31.1098 25.3211 31.3469 25.0489C31.3784 25.0115 31.4113 24.9786 31.4415 24.9416C31.461 24.9177 31.4831 24.8971 31.5018 24.8732L31.7261 24.5875L31.713 24.571C32.2058 23.8284 32.4684 22.9569 32.468 22.0656ZM16.2637 10.742C16.1691 10.7323 16.0768 10.7143 15.9837 10.699C15.9261 10.6897 15.8674 10.6837 15.8105 10.6721C15.686 10.6463 15.5648 10.6134 15.4444 10.5779C15.4212 10.5708 15.3973 10.5663 15.3741 10.5592C15.2421 10.518 15.1124 10.4698 14.9871 10.4171C14.977 10.4129 14.9665 10.41 14.9564 10.4055C14.8289 10.3516 14.7052 10.291 14.5844 10.226L14.5563 10.2121C14.4404 10.1489 14.3286 10.0798 14.2198 10.0068C14.2052 9.9975 14.1902 9.9889 14.176 9.97918C14.0743 9.91 13.9763 9.83521 13.8806 9.75818C13.8593 9.74098 13.8369 9.72453 13.8159 9.70695C13.7284 9.63216 13.6447 9.55738 13.5631 9.47698C13.5355 9.45043 13.5078 9.42425 13.4809 9.39695C13.454 9.36966 13.4207 9.33002 13.39 9.29711C13.817 8.83691 14.3345 8.4698 14.9099 8.21876C15.4853 7.96771 16.1063 7.83814 16.7341 7.83814C17.362 7.83814 17.983 7.96771 18.5584 8.21876C19.1338 8.4698 19.6513 8.83691 20.0783 9.29711C20.0476 9.33002 20.0188 9.3648 19.9874 9.39695C19.956 9.42911 19.9328 9.45043 19.9052 9.47698C19.8236 9.55625 19.7399 9.63366 19.6524 9.70695C19.6314 9.72453 19.609 9.74098 19.5877 9.75818C19.4919 9.83521 19.394 9.91 19.2923 9.97918C19.2781 9.9889 19.2631 9.9975 19.2485 10.0068C19.139 10.0816 19.0271 10.1489 18.912 10.2121L18.8839 10.226C18.7631 10.291 18.6394 10.3516 18.5119 10.4055C18.5018 10.41 18.4913 10.4129 18.4812 10.4171C18.3548 10.4698 18.2262 10.518 18.0942 10.5592C18.071 10.5663 18.047 10.5708 18.0239 10.5779C17.9035 10.6134 17.7823 10.6463 17.6578 10.6721C17.6009 10.6837 17.5422 10.6897 17.4846 10.699C17.3915 10.7143 17.2977 10.7323 17.2046 10.742C16.8923 10.7739 16.5775 10.7739 16.2652 10.742H16.2637ZM16.7334 1.64183C17.541 1.64013 18.3346 1.85329 19.0326 2.25945C19.7307 2.66562 20.3081 3.25016 20.7058 3.95313C21.1034 4.65609 21.3068 5.45218 21.2953 6.25972C21.2837 7.06726 21.0575 7.85719 20.6399 8.54849C20.1294 8.03101 19.5212 7.62011 18.8506 7.33966C18.18 7.05921 17.4603 6.91479 16.7334 6.91479C16.0065 6.91479 15.2868 7.05921 14.6162 7.33966C13.9456 7.62011 13.3374 8.03101 12.8269 8.54849C12.4093 7.85719 12.1831 7.06726 12.1715 6.25972C12.16 5.45218 12.3634 4.65609 12.7611 3.95313C13.1587 3.25016 13.7361 2.66562 14.4342 2.25945C15.1322 1.85329 15.9258 1.64013 16.7334 1.64183ZM8.11784 24.6305L8.11149 24.6361C7.77133 24.9762 7.36676 25.2451 6.92144 25.4271C6.47613 25.609 5.999 25.7003 5.51798 25.6956C5.03696 25.6909 4.5617 25.5904 4.12 25.3999C3.67829 25.2094 3.27901 24.9327 2.94552 24.586C3.28402 24.2371 3.68913 23.9597 4.13684 23.7702C4.58455 23.5808 5.06574 23.4832 5.55187 23.4832C6.03801 23.4832 6.5192 23.5808 6.96691 23.7702C7.41461 23.9597 7.81973 24.2371 8.15823 24.586C8.14439 24.6006 8.1328 24.6163 8.11784 24.6305ZM9.17983 22.0656C9.17988 22.688 9.01885 23.2998 8.71241 23.8415C7.86521 23.0192 6.73101 22.5593 5.55038 22.5593C4.36974 22.5593 3.23554 23.0192 2.38835 23.8415C2.11739 23.3579 1.96085 22.8187 1.93076 22.2652C1.90067 21.7118 1.99783 21.1588 2.21477 20.6487C2.43171 20.1386 2.76267 19.685 3.18222 19.3228C3.60178 18.9606 4.09877 18.6993 4.63503 18.5591C5.17129 18.4189 5.73255 18.4034 6.27572 18.5139C6.81888 18.6244 7.3295 18.8579 7.76835 19.1965C8.2072 19.5351 8.56261 19.9698 8.8073 20.4672C9.05198 20.9645 9.17942 21.5113 9.17983 22.0656ZM16.7334 25.6958C16.2466 25.6958 15.7649 25.5974 15.317 25.4067C14.8692 25.216 14.4644 24.9369 14.127 24.586C14.4655 24.2371 14.8707 23.9597 15.3184 23.7702C15.7661 23.5808 16.2473 23.4832 16.7334 23.4832C17.2195 23.4832 17.7007 23.5808 18.1484 23.7702C18.5961 23.9597 19.0013 24.2371 19.3398 24.586C19.0024 24.9369 18.5976 25.216 18.1498 25.4067C17.7019 25.5974 17.2202 25.6958 16.7334 25.6958ZM20.3606 22.0656C20.3611 22.6873 20.2008 23.2985 19.8954 23.84C19.0482 23.0177 17.914 22.5578 16.7334 22.5578C15.5528 22.5578 14.4186 23.0177 13.5714 23.84C13.3003 23.3564 13.1436 22.8172 13.1134 22.2637C13.0833 21.7101 13.1804 21.1571 13.3973 20.6469C13.6142 20.1367 13.9451 19.6831 14.3647 19.3208C14.7843 18.9585 15.2813 18.6972 15.8176 18.557C16.3539 18.4167 16.9153 18.4013 17.4585 18.5118C18.0017 18.6223 18.5124 18.8559 18.9512 19.1946C19.3901 19.5332 19.7455 19.968 19.9902 20.4654C20.2348 20.9629 20.3622 21.5098 20.3625 22.0641L20.3606 22.0656ZM27.9142 18.4384C28.5472 18.4379 29.1694 18.6032 29.7188 18.9178C30.2681 19.2324 30.7255 19.6854 31.0454 20.2317C31.3652 20.7781 31.5365 21.3986 31.542 22.0317C31.5476 22.6647 31.3872 23.2882 31.077 23.84C30.2297 23.0177 29.0954 22.5579 27.9147 22.5579C26.7341 22.5579 25.5998 23.0177 24.7525 23.84C24.4417 23.2882 24.2809 22.6646 24.2861 22.0314C24.2913 21.3981 24.4624 20.7772 24.7822 20.2307C25.102 19.6841 25.5595 19.2308 26.109 18.916C26.6585 18.6012 27.2809 18.4359 27.9142 18.4366V18.4384ZM27.9142 25.6977C27.4274 25.6976 26.9457 25.5993 26.4978 25.4086C26.05 25.2179 25.6452 24.9387 25.3078 24.5879C25.6463 24.2389 26.0514 23.9615 26.4991 23.7721C26.9469 23.5827 27.428 23.4851 27.9142 23.4851C28.4003 23.4851 28.8815 23.5827 29.3292 23.7721C29.7769 23.9615 30.182 24.2389 30.5205 24.5879C30.183 24.9384 29.7782 25.2172 29.3303 25.4076C28.8825 25.5979 28.4008 25.696 27.9142 25.6958V25.6977ZM27.9142 22.5447C28.285 22.5444 28.6475 22.4343 28.9557 22.2281C29.264 22.0219 29.5042 21.7289 29.6459 21.3862C29.7877 21.0435 29.8247 20.6665 29.7522 20.3028C29.6797 19.9391 29.501 19.6051 29.2387 19.3429C28.9764 19.0808 28.6422 18.9023 28.2785 18.83C27.9148 18.7577 27.5378 18.7949 27.1952 18.9369C26.8525 19.0789 26.5597 19.3192 26.3537 19.6276C26.1477 19.936 26.0378 20.2985 26.0378 20.6693C26.0389 21.1664 26.2371 21.6426 26.5888 21.9938C26.9406 22.345 27.4172 22.5424 27.9142 22.5428V22.5447ZM27.9142 19.7184C28.1023 19.7187 28.2861 19.7748 28.4423 19.8795C28.5986 19.9842 28.7203 20.1329 28.792 20.3068C28.8638 20.4807 28.8824 20.6719 28.8455 20.8564C28.8086 21.0408 28.7178 21.2102 28.5847 21.3431C28.4516 21.4759 28.282 21.5664 28.0975 21.6029C27.913 21.6394 27.7218 21.6205 27.548 21.5484C27.3743 21.4763 27.2258 21.3543 27.1214 21.1978C27.017 21.0414 26.9613 20.8575 26.9614 20.6693C26.9613 20.5442 26.9859 20.4203 27.0338 20.3047C27.0817 20.189 27.1519 20.084 27.2403 19.9955C27.3288 19.907 27.4339 19.8368 27.5495 19.789C27.6651 19.7411 27.789 19.7165 27.9142 19.7166V19.7184Z" fill="#720C20" stroke="#720C20" stroke-width="0.4"/>
</svg>
