<svg width="29" height="31" viewBox="0 0 29 31" fill="none" xmlns="http://www.w3.org/2000/svg">
<path d="M19.6923 12.4229C20.2658 12.4229 20.7307 12.8878 20.7307 13.4613V15.5382C20.7307 16.1118 20.2658 16.5767 19.6923 16.5767C19.1187 16.5767 18.6538 16.1118 18.6538 15.5382V13.4613C18.6538 12.8878 19.1187 12.4229 19.6923 12.4229Z" fill="white" stroke="white" stroke-width="0.482143"/>
<path d="M19.6924 19.6922C20.2652 19.6922 20.7295 19.2272 20.7295 18.6537C20.7295 18.0802 20.2652 17.6152 19.6924 17.6152C19.1197 17.6152 18.6553 18.0802 18.6553 18.6537C18.6553 19.2272 19.1197 19.6922 19.6924 19.6922Z" fill="white" stroke="white" stroke-width="0.482143"/>
<path fill-rule="evenodd" clip-rule="evenodd" d="M4.11539 1C2.39481 1 1 2.39481 1 4.11539V26.9615C1 28.6822 2.39481 30.0769 4.11539 30.0769H17.6154C19.336 30.0769 20.7308 28.6822 20.7308 26.9615V22.8077H24.7343C27.1253 22.8077 28.8671 20.2931 27.543 18.114L22.501 9.81706C22.0759 9.11753 21.4377 8.6551 20.7308 8.42979V4.11539C20.7308 2.39481 19.336 1 17.6154 1H4.11539ZM18.6539 8.42979V4.11539C18.6539 3.54186 18.1889 3.07692 17.6154 3.07692H15.8847L15.3308 3.49232C14.7915 3.89677 14.1356 4.1154 13.4615 4.1154H8.26923C7.59518 4.1154 6.93929 3.89677 6.40002 3.49232L5.84616 3.07692H4.11539C3.54186 3.07692 3.07692 3.54186 3.07692 4.11539V26.9615C3.07692 27.5351 3.54186 28 4.11539 28H17.6154C18.1889 28 18.6539 27.5351 18.6539 26.9615V22.8077H14.6504C12.2593 22.8077 10.5175 20.2931 11.8416 18.114L16.8836 9.81706C17.3087 9.11753 17.947 8.6551 18.6539 8.42979ZM18.6556 10.8967C19.1016 10.1627 20.283 10.1627 20.729 10.8967L25.7711 19.1936C26.134 19.791 25.7439 20.7308 24.7343 20.7308H14.6504C13.6408 20.7308 13.2506 19.791 13.6136 19.1936L18.6556 10.8967Z" fill="white" stroke="white" stroke-width="0.482143"/>
</svg>
