<svg width="32" height="29" viewBox="0 0 32 29" fill="none" xmlns="http://www.w3.org/2000/svg">
<path d="M31.6369 0.712891H9.32347V8.76527C6.53813 9.05286 4.35853 11.4132 4.35853 14.2733C4.35853 15.6399 4.86344 16.9412 5.75028 17.9431C2.26382 19.5398 0 23.0078 0 26.9336V27.5229L0.569685 27.6727C3.59766 28.4694 6.73563 28.8733 9.89673 28.8733C13.0568 28.8733 16.1946 28.4694 19.2229 27.6733L19.8115 27.5188L19.7921 26.8378C19.7562 23.0205 17.577 19.6533 14.223 18.0337H31.6369V0.712891ZM12.3723 18.9383C15.7079 19.97 18.0074 22.9033 18.2441 26.3447C12.8067 27.6727 6.98353 27.6724 1.54846 26.3444C1.78547 22.903 4.08496 19.9697 7.42039 18.9383L8.92676 18.4724L7.62769 17.5787C6.53758 16.8287 5.88685 15.5931 5.88685 14.2733C5.88685 12.2574 7.38373 10.589 9.32347 10.3096C9.51107 10.2825 9.70131 10.2638 9.89629 10.2638C10.2261 10.2638 10.5449 10.3082 10.8518 10.3837C12.3219 10.7451 13.4748 11.9162 13.8065 13.3977C13.8473 13.5802 13.8748 13.7672 13.8898 13.958C13.8979 14.0624 13.9057 14.1669 13.9057 14.2733C13.9057 15.0798 13.6603 15.8534 13.2226 16.5054C12.944 16.9204 12.5889 17.287 12.165 17.5787L11.5036 18.0337L10.8661 18.4724L12.3723 18.9383ZM30.1085 16.5054H14.9577C15.2643 15.811 15.434 15.0539 15.434 14.2733C15.434 14.1669 15.424 14.063 15.4181 13.958H24.4027V12.4297H15.1118C14.4532 10.5726 12.834 9.17071 10.8518 8.82384V2.2412H30.1085V16.5054Z" fill="#000000"/>
<path d="M27.1536 4.68701H13.8064V6.21533H27.1536V4.68701Z" fill="#000000"/>
<path d="M27.1536 8.55859H13.8064V10.0869H27.1536V8.55859Z" fill="#000000"/>
</svg>
