<svg width="22" height="24" viewBox="0 0 22 24" fill="none" xmlns="http://www.w3.org/2000/svg">
<path d="M20.5861 15.0459H0.623825C0.458379 15.0459 0.299712 15.1116 0.182724 15.2286C0.0657359 15.3456 8.75816e-06 15.5043 0 15.6697V22.5318C8.75831e-06 22.6972 0.065736 22.8559 0.182724 22.9729C0.299712 23.0899 0.45838 23.1556 0.623825 23.1556H20.5861C20.7516 23.1556 20.9102 23.0899 21.0272 22.9729C21.1442 22.8559 21.2099 22.6972 21.2099 22.5318V15.6697C21.2099 15.5043 21.1442 15.3456 21.0272 15.2286C20.9102 15.1116 20.7516 15.0459 20.5861 15.0459ZM19.9623 21.9079H1.24764V16.2935H19.9623V21.9079Z" fill="black"/>
<path d="M2.67984 20.4773C2.73775 20.5352 2.80651 20.5812 2.88219 20.6126C2.95787 20.6439 3.03898 20.6601 3.1209 20.6601C3.20282 20.6601 3.28394 20.6439 3.35962 20.6126C3.4353 20.5812 3.50406 20.5352 3.56197 20.4773L4.05663 19.9826L4.55131 20.4773C4.66829 20.5943 4.82694 20.66 4.99237 20.66C5.1578 20.66 5.31645 20.5943 5.43343 20.4773C5.55041 20.3603 5.61612 20.2017 5.61612 20.0362C5.61612 19.8708 5.55041 19.7122 5.43343 19.5952L4.93876 19.1005L5.43343 18.6058C5.55041 18.4889 5.61612 18.3302 5.61613 18.1648C5.61613 17.9993 5.55041 17.8407 5.43343 17.7237C5.31646 17.6067 5.1578 17.541 4.99237 17.541C4.82694 17.541 4.66829 17.6067 4.55131 17.7237L4.05663 18.2184L3.56197 17.7237C3.44491 17.6071 3.28638 17.5417 3.12116 17.5419C2.95594 17.542 2.79753 17.6077 2.68071 17.7246C2.56388 17.8414 2.49817 17.9998 2.49801 18.165C2.49785 18.3302 2.56324 18.4888 2.67984 18.6058L3.17451 19.1005L2.67984 19.5952C2.6219 19.6531 2.57593 19.7218 2.54457 19.7975C2.51321 19.8732 2.49707 19.9543 2.49707 20.0362C2.49707 20.1181 2.51321 20.1993 2.54457 20.2749C2.57593 20.3506 2.6219 20.4194 2.67984 20.4773Z" fill="black"/>
<path d="M7.04508 20.4773C7.10299 20.5353 7.17175 20.5812 7.24743 20.6126C7.32311 20.6439 7.40422 20.6601 7.48614 20.6601C7.56806 20.6601 7.64917 20.6439 7.72485 20.6126C7.80053 20.5812 7.86929 20.5353 7.9272 20.4773L8.42187 19.9826L8.91654 20.4773C9.03352 20.5943 9.19217 20.66 9.3576 20.66C9.52303 20.66 9.68169 20.5943 9.79866 20.4773C9.91564 20.3603 9.98136 20.2017 9.98136 20.0363C9.98136 19.8708 9.91564 19.7122 9.79866 19.5952L9.30405 19.1005L9.79872 18.6059C9.91569 18.4889 9.98141 18.3302 9.98141 18.1648C9.98141 17.9994 9.9157 17.8407 9.79872 17.7237C9.68174 17.6068 9.52309 17.541 9.35766 17.541C9.19223 17.541 9.03357 17.6067 8.9166 17.7237L8.42192 18.2184L7.92725 17.7237C7.81028 17.6067 7.65162 17.541 7.48618 17.541C7.32075 17.541 7.16209 17.6067 7.0451 17.7237C6.92812 17.8407 6.8624 17.9993 6.86239 18.1648C6.86239 18.3302 6.9281 18.4889 7.04508 18.6059L7.53975 19.1005L7.04508 19.5952C6.98713 19.6531 6.94117 19.7218 6.90981 19.7975C6.87845 19.8732 6.8623 19.9543 6.8623 20.0362C6.8623 20.1182 6.87845 20.1993 6.90981 20.275C6.94117 20.3506 6.98713 20.4194 7.04508 20.4773Z" fill="black"/>
<path d="M11.4113 20.4773C11.4692 20.5352 11.5379 20.5812 11.6136 20.6126C11.6893 20.6439 11.7704 20.6601 11.8523 20.6601C11.9342 20.6601 12.0154 20.6439 12.091 20.6126C12.1667 20.5812 12.2355 20.5352 12.2934 20.4773L12.7881 19.9826L13.2827 20.4773C13.3997 20.5943 13.5584 20.66 13.7238 20.66C13.8892 20.66 14.0479 20.5943 14.1649 20.4773C14.2819 20.3603 14.3476 20.2017 14.3476 20.0362C14.3476 19.8708 14.2819 19.7121 14.1649 19.5952L13.6702 19.1005L14.1649 18.6058C14.2819 18.4889 14.3476 18.3302 14.3476 18.1648C14.3476 17.9993 14.2819 17.8407 14.1649 17.7237C14.0479 17.6067 13.8892 17.541 13.7238 17.541C13.5584 17.541 13.3997 17.6067 13.2828 17.7237L12.7881 18.2184L12.2934 17.7237C12.1764 17.6067 12.0178 17.541 11.8523 17.541C11.6869 17.541 11.5283 17.6067 11.4113 17.7237C11.2943 17.8407 11.2286 17.9993 11.2286 18.1648C11.2286 18.3302 11.2943 18.4889 11.4113 18.6058L11.906 19.1005L11.4113 19.5952C11.3533 19.6531 11.3074 19.7218 11.276 19.7975C11.2447 19.8732 11.2285 19.9543 11.2285 20.0362C11.2285 20.1182 11.2447 20.1993 11.276 20.2749C11.3074 20.3506 11.3533 20.4194 11.4113 20.4773Z" fill="black"/>
<path d="M15.7795 20.4773C15.8374 20.5353 15.9061 20.5812 15.9818 20.6126C16.0575 20.6439 16.1386 20.6601 16.2205 20.6601C16.3024 20.6601 16.3835 20.6439 16.4592 20.6126C16.5349 20.5812 16.6037 20.5353 16.6616 20.4773L17.1562 19.9826L17.6509 20.4773C17.7679 20.5943 17.9266 20.66 18.092 20.66C18.1739 20.66 18.255 20.6439 18.3307 20.6125C18.4064 20.5812 18.4751 20.5352 18.5331 20.4773C18.591 20.4194 18.6369 20.3506 18.6683 20.2749C18.6996 20.1993 18.7157 20.1182 18.7157 20.0362C18.7157 19.9543 18.6996 19.8732 18.6683 19.7975C18.6369 19.7219 18.591 19.6531 18.533 19.5952L18.0384 19.1005L18.533 18.6058C18.6496 18.4888 18.715 18.3302 18.7149 18.165C18.7147 17.9998 18.649 17.8414 18.5322 17.7246C18.4154 17.6077 18.2569 17.542 18.0917 17.5419C17.9265 17.5417 17.768 17.6071 17.6509 17.7237L17.1562 18.2184L16.6616 17.7237C16.5446 17.6067 16.3859 17.541 16.2205 17.541C16.0551 17.541 15.8964 17.6067 15.7795 17.7237C15.6625 17.8407 15.5968 17.9993 15.5968 18.1648C15.5968 18.3302 15.6625 18.4889 15.7795 18.6058L16.2741 19.1005L15.7795 19.5952C15.7215 19.6531 15.6755 19.7218 15.6442 19.7975C15.6128 19.8732 15.5967 19.9543 15.5967 20.0362C15.5967 20.1182 15.6128 20.1993 15.6442 20.275C15.6755 20.3506 15.7215 20.4194 15.7795 20.4773Z" fill="black"/>
<path d="M10.606 13.1739C11.4832 13.1743 12.3506 12.9892 13.1512 12.6307C13.9518 12.2722 14.6675 11.7484 15.2514 11.0938L15.2524 11.0923C16.2012 10.0286 16.7565 8.67158 16.8253 7.24784C16.8942 5.82411 16.4725 4.41984 15.6307 3.26958C14.7888 2.11932 13.5779 1.29269 12.2 0.927755C10.8221 0.56282 9.36069 0.681668 8.05987 1.26445C6.75905 1.84724 5.69755 2.85868 5.05266 4.12985C4.40777 5.40102 4.21852 6.85497 4.51652 8.24887C4.81452 9.64277 5.58173 10.8922 6.69002 11.7886C7.79831 12.685 9.18058 13.1739 10.606 13.1739ZM10.1113 11.8999C10.0581 11.8946 10.0058 11.8851 9.95291 11.8781C9.84231 11.8634 9.73204 11.8471 9.62311 11.8252C9.56291 11.813 9.50355 11.798 9.44396 11.7837C9.34344 11.7595 9.24357 11.7331 9.14492 11.7028C9.08473 11.6843 9.02495 11.6646 8.96559 11.6438C8.86792 11.6097 8.77167 11.572 8.67637 11.532C8.62075 11.5085 8.565 11.4856 8.51029 11.4602C8.40885 11.4132 8.30986 11.3612 8.21178 11.3073C8.16686 11.2827 8.12093 11.26 8.0768 11.234C7.94461 11.1561 7.81596 11.0722 7.69088 10.9822C7.68322 10.9767 7.67502 10.9722 7.66742 10.9666C7.5441 10.8765 7.42629 10.7783 7.31119 10.6766C8.22108 9.87389 9.39271 9.43095 10.6061 9.43097C11.8194 9.43099 12.9911 9.87397 13.9009 10.6767C13.7862 10.7781 13.6687 10.8759 13.5458 10.9658C13.531 10.9766 13.515 10.9856 13.5001 10.9962C13.3822 11.0804 13.2612 11.1598 13.1367 11.2332C13.09 11.2608 13.0414 11.2848 12.9939 11.3108C12.8983 11.363 12.802 11.4137 12.7033 11.4595C12.6472 11.4856 12.59 11.5091 12.533 11.5331C12.4389 11.5726 12.3438 11.6097 12.2473 11.6435C12.1873 11.6644 12.127 11.6843 12.0663 11.703C11.9682 11.7331 11.869 11.7594 11.769 11.7835C11.7089 11.7979 11.6491 11.8131 11.5884 11.8253C11.4797 11.8472 11.3697 11.8634 11.2594 11.8781C11.2064 11.8851 11.154 11.8946 11.1007 11.9C10.9369 11.9163 10.772 11.9263 10.606 11.9263C10.4399 11.9263 10.2751 11.9163 10.1113 11.8999ZM9.35832 6.93568C9.35832 6.68892 9.43149 6.4477 9.56858 6.24253C9.70568 6.03735 9.90053 5.87744 10.1285 5.78301C10.3565 5.68858 10.6073 5.66387 10.8494 5.71201C11.0914 5.76015 11.3137 5.87897 11.4882 6.05346C11.6627 6.22794 11.7815 6.45025 11.8296 6.69227C11.8778 6.93429 11.8531 7.18515 11.7586 7.41312C11.6642 7.6411 11.5043 7.83596 11.2991 7.97305C11.094 8.11015 10.8527 8.18332 10.606 8.18332C10.2752 8.183 9.95803 8.05145 9.72412 7.81754C9.49021 7.58363 9.35864 7.26647 9.35832 6.93568ZM10.606 1.94511C11.5139 1.94326 12.4051 2.18964 13.1831 2.65761C13.9612 3.12557 14.5965 3.79733 15.0204 4.60023C15.4443 5.40314 15.6407 6.30665 15.5882 7.21308C15.5358 8.1195 15.2366 8.99435 14.723 9.74304C14.0883 9.18186 13.3457 8.75612 12.5408 8.49188C12.9008 8.05296 13.0988 7.50342 13.1013 6.93571C13.1013 6.27391 12.8384 5.63923 12.3704 5.17127C11.9024 4.70331 11.2678 4.44042 10.606 4.44042C9.94417 4.44042 9.30948 4.70331 8.84153 5.17127C8.37357 5.63923 8.11067 6.27391 8.11067 6.93571C8.11317 7.50342 8.3111 8.05296 8.67118 8.49188C7.86613 8.75612 7.1235 9.18192 6.48875 9.74319C5.97519 8.99446 5.67605 8.11959 5.62367 7.21317C5.5713 6.30675 5.76768 5.40325 6.19159 4.60035C6.61551 3.79745 7.25082 3.1257 8.02886 2.65771C8.80689 2.18973 9.69804 1.94331 10.606 1.94511Z" fill="black"/>
</svg>
