<svg width="40" height="27" viewBox="0 0 40 27" fill="none" xmlns="http://www.w3.org/2000/svg">
<path d="M18.6268 23.0305C18.8871 23.0305 19.0981 22.8195 19.0981 22.5592C19.0981 22.2989 18.8871 22.0879 18.6268 22.0879C18.3665 22.0879 18.1555 22.2989 18.1555 22.5592C18.1555 22.8195 18.3665 23.0305 18.6268 23.0305Z" fill="#939393" stroke="#939393" stroke-width="0.35"/>
<path d="M18.6268 24.7073C18.8871 24.7073 19.0981 24.4963 19.0981 24.236C19.0981 23.9757 18.8871 23.7646 18.6268 23.7646C18.3665 23.7646 18.1555 23.9757 18.1555 24.236C18.1555 24.4963 18.3665 24.7073 18.6268 24.7073Z" fill="#939393" stroke="#939393" stroke-width="0.35"/>
<path d="M15.3588 10.74C16.1015 13.3559 18.6132 15.2314 19.9992 15.2314C21.3853 15.2314 23.8969 13.3559 24.6396 10.74C25.2697 10.4892 25.6925 9.87617 25.6925 9.1904V8.53372C25.6925 8.06119 25.4841 7.62381 25.1388 7.31C25.1982 7.05557 25.26 6.77932 25.3145 6.46915L25.3315 6.37223C25.4878 5.47928 25.7834 3.81697 24.7232 2.55327C23.8569 1.5222 22.2685 1 19.9992 1C17.7299 1 16.1415 1.52341 15.2788 2.55327C14.2187 3.81697 14.5119 5.47928 14.6706 6.37223L14.6876 6.46794C14.7421 6.77811 14.8015 7.05436 14.8633 7.31C14.5179 7.6226 14.3071 8.05998 14.3071 8.53251V9.18919C14.3059 9.87617 14.7312 10.4892 15.3588 10.74ZM15.7756 2.97006C16.5086 2.09286 17.931 1.64821 19.9992 1.64821C22.0674 1.64821 23.4898 2.09286 24.2228 2.97006C25.0891 4.00113 24.8408 5.41506 24.6917 6.25834L24.6724 6.35769C24.5209 7.22277 24.3198 7.87945 24.1901 8.25141C24.1901 8.20537 24.1901 8.15691 24.1901 8.10602C24.1901 5.53259 23.359 5.14972 22.8671 5.14972C22.5969 5.14972 22.3158 5.26483 22.025 5.49018C21.3102 6.04873 20.7359 6.12021 20.3142 6.12021L19.9992 6.11294L19.6842 6.11779C19.2626 6.11779 18.6883 6.04631 17.9759 5.48776C17.6851 5.26119 17.4003 5.1473 17.1338 5.1473C16.6395 5.1473 15.8107 5.53016 15.8107 8.1036C15.8107 8.15449 15.8107 8.20174 15.8083 8.24657C15.6847 7.89278 15.48 7.23125 15.3261 6.35526L15.3091 6.25834C15.1601 5.41506 14.9093 4.00113 15.7756 2.97006ZM22.6308 7.57534H21.3817C21.0836 7.57534 20.8134 7.70256 20.6002 7.9049H19.3983C19.185 7.70256 18.9161 7.57534 18.6156 7.57534H17.3688C17.009 7.57534 16.6891 7.75466 16.4601 8.03696C16.4723 6.50066 16.8151 5.79551 17.135 5.79551C17.2537 5.79551 17.4052 5.86699 17.5772 5.99905C18.446 6.67997 19.1608 6.76721 19.6854 6.76721L19.9992 6.76115L20.3142 6.76721C20.8401 6.76721 21.5537 6.67997 22.4248 5.99905C22.5957 5.86699 22.7495 5.79551 22.8671 5.79551C23.1869 5.79551 23.5298 6.50066 23.5395 8.03817C23.3117 7.75587 22.9907 7.57534 22.6308 7.57534ZM23.2196 8.99897C23.2196 9.42788 22.9567 9.7756 22.6308 9.7756H21.3817C21.0642 9.7756 20.7952 9.4194 20.7952 8.99897C20.7952 8.57128 21.0582 8.22355 21.3817 8.22355H22.6308C22.9567 8.22355 23.2196 8.57249 23.2196 8.99897ZM19.2068 8.99897C19.2068 9.42788 18.9415 9.7756 18.6156 9.7756H17.3688C17.049 9.7756 16.78 9.4194 16.78 8.99897C16.78 8.57128 17.0453 8.22355 17.3688 8.22355H18.6156C18.9415 8.22355 19.2068 8.57249 19.2068 8.99897ZM14.9541 8.53251C14.9541 8.36894 14.9941 8.21143 15.068 8.07089C15.2001 8.49979 15.3043 8.74332 15.3067 8.74332C15.5054 9.57569 15.6399 9.92221 15.9719 9.92221C16.1257 9.92221 16.2324 9.86163 16.3051 9.71987C16.5207 10.1391 16.9157 10.4238 17.3676 10.4238H18.6144C19.2977 10.4238 19.8538 9.7853 19.8538 8.99897C19.8538 8.84267 19.826 8.69486 19.7848 8.55431H20.2112C20.1713 8.69486 20.1422 8.84267 20.1422 8.99897C20.1422 9.78409 20.6983 10.4238 21.3792 10.4238H22.6284C23.0827 10.4238 23.4753 10.1391 23.691 9.71987C23.7649 9.86163 23.8703 9.92221 24.0241 9.92221C24.3549 9.92221 24.493 9.57569 24.6724 8.79663C24.682 8.77725 24.7911 8.51797 24.928 8.0721C25.0019 8.21143 25.0419 8.37015 25.0419 8.53251V9.18919C25.0419 9.64839 24.7293 10.0531 24.2846 10.1742C24.1708 10.2045 24.0835 10.2954 24.0556 10.4081C23.4402 12.8603 21.0545 14.582 19.9968 14.582C18.9391 14.582 16.5534 12.8603 15.9404 10.4081C15.9125 10.2942 15.8241 10.2045 15.7114 10.1742C15.2643 10.0531 14.9517 9.64839 14.9517 9.18919V8.53251H14.9541Z" fill="#939393" stroke="#939393" stroke-width="0.35"/>
<path d="M23.0426 14.7953C22.9481 14.7735 22.8415 14.7953 22.7639 14.8595C22.6864 14.9213 22.6403 15.0182 22.6428 15.1176C22.6682 16.5109 21.9776 18.0145 21.2652 19.1898L20.9029 17.8716C21.0241 17.8122 21.1307 17.7298 21.2179 17.6232C21.5487 17.2161 21.5063 16.6309 21.4857 16.4613C21.4166 15.91 20.5516 15.7222 20.0403 15.6604C20.0124 15.6568 19.9882 15.6568 19.9603 15.6604C19.4514 15.7222 18.5827 15.91 18.5149 16.4613C18.4931 16.6309 18.4506 17.2161 18.7826 17.6232C18.8699 17.7298 18.9765 17.8122 19.0976 17.8716L18.7354 19.1898C18.023 18.0133 17.3323 16.5109 17.3578 15.1176C17.3602 15.0182 17.3154 14.9213 17.2366 14.8595C17.1591 14.7953 17.0549 14.7747 16.9592 14.7953C16.4806 14.9104 12.2885 15.9597 11.6439 17.6765C11.0332 19.2988 10.6031 23.2765 10.5837 23.4449C10.5716 23.5552 10.6165 23.663 10.7025 23.7321C10.8188 23.8241 13.5897 25.9929 20.0003 25.9929C26.4108 25.9929 29.1818 23.8241 29.2981 23.7321C29.3829 23.6618 29.4277 23.5552 29.4168 23.4449C29.3999 23.2765 28.9673 19.2988 28.3567 17.6765C27.7109 15.9597 23.5175 14.9104 23.0426 14.7953ZM23.2389 15.8736C23.6678 16.3619 24.2566 17.1337 24.5195 17.9333H23.4097C23.3055 17.9333 23.2062 17.983 23.1468 18.0678C23.085 18.1526 23.0693 18.2617 23.102 18.361L23.5757 19.752L21.0035 20.7539C21.8092 19.6587 22.9953 17.7674 23.2389 15.8736ZM18.9959 20.7552L16.4236 19.7532L16.8974 18.3623C16.9301 18.2629 16.9143 18.1539 16.8525 18.069C16.7932 17.9842 16.6938 17.9346 16.5896 17.9346H15.4798C15.7427 17.1349 16.3316 16.3631 16.7605 15.8748C17.0028 17.7674 18.1889 19.6587 18.9959 20.7552ZM19.6744 25.3374C17.1591 25.3071 15.2351 24.9279 13.8599 24.4978V22.3763H13.2117V24.2748C12.1588 23.8883 11.513 23.5019 11.2501 23.3262C11.3422 22.5096 11.7396 19.2588 12.2485 17.9043C12.5938 16.9895 14.5893 16.1814 16.0323 15.7282C15.5186 16.3607 14.9128 17.2645 14.7432 18.1975C14.7262 18.292 14.7504 18.3901 14.8146 18.4652C14.8764 18.5391 14.9661 18.5816 15.063 18.5816H16.1353L15.7088 19.838C15.6543 20.0015 15.7367 20.1809 15.8978 20.2451L19.6744 21.7147V25.3374ZM19.2067 19.9216L19.8052 17.7334C19.8307 17.6401 19.8149 17.5408 19.758 17.4596C19.701 17.3821 19.6138 17.3324 19.5169 17.3239C19.4127 17.3154 19.3412 17.2815 19.2854 17.2112C19.1594 17.0574 19.1316 16.7569 19.1437 16.5812C19.2152 16.4891 19.6235 16.3595 20.0003 16.3086C20.3771 16.3583 20.783 16.4867 20.8423 16.54C20.8678 16.7557 20.8399 17.0561 20.7151 17.21C20.6606 17.2803 20.5879 17.3142 20.4837 17.3227C20.3868 17.3312 20.2995 17.3809 20.2426 17.4584C20.1857 17.5384 20.1687 17.6377 20.1953 17.7322L20.7939 19.9204C20.4789 20.3796 20.1929 20.7527 20.0015 20.9878C19.8076 20.7527 19.5205 20.3808 19.2067 19.9216ZM26.7864 24.2797V22.3763H26.1382V24.5002C24.7655 24.9303 22.8439 25.3071 20.3238 25.3374V21.7147L24.1003 20.2451C24.2615 20.1809 24.3439 20.0015 24.2893 19.838L23.8629 18.5816H24.9351C25.032 18.5816 25.1217 18.5391 25.1859 18.4652C25.2477 18.3901 25.2707 18.292 25.255 18.1975C25.0841 17.2633 24.4783 16.3607 23.9658 15.7282C25.4089 16.1814 27.4044 16.9883 27.7497 17.9043C28.2585 19.2576 28.6559 22.5108 28.7504 23.3262C28.4851 23.5043 27.8417 23.892 26.7864 24.2797Z" fill="#939393" stroke="#939393" stroke-width="0.35"/>
<path d="M25.3693 22.2197H22.6953V22.8679H25.3693V22.2197Z" fill="#939393" stroke="#939393" stroke-width="0.35"/>
<path d="M27.9838 11.2546C28.5774 13.295 30.5463 14.7525 31.6379 14.7525C32.726 14.7525 34.6924 13.295 35.2897 11.2546C35.784 11.039 36.1184 10.5471 36.1184 10.0006V9.4942C36.1184 9.11981 35.9597 8.7733 35.6919 8.51886C35.7416 8.31289 35.7913 8.08874 35.8337 7.8331C35.9597 7.13037 36.1911 5.82184 35.3491 4.81864C34.6657 4.00202 33.4178 3.58887 31.6379 3.58887C29.8557 3.58887 28.6089 4.00202 27.9256 4.81743C27.0835 5.82184 27.315 7.12916 27.4494 7.907C27.4894 8.13236 27.5343 8.3347 27.5767 8.5225C27.3137 8.77572 27.155 9.12102 27.155 9.49541V10.0019C27.155 10.5483 27.487 11.0402 27.9838 11.2546ZM28.4211 5.23543C28.9748 4.5739 30.0568 4.23949 31.6367 4.23949C33.2154 4.23949 34.2962 4.5739 34.8499 5.23543C35.4981 6.00843 35.3067 7.07948 35.1807 7.79554C35.1092 8.20263 35.0244 8.55036 34.9444 8.82418C34.8729 7.07342 34.2392 6.7996 33.8564 6.7996C33.6286 6.7996 33.3948 6.89411 33.1585 7.08069C32.6266 7.49506 32.2122 7.552 31.8754 7.552L31.6367 7.54716L31.3932 7.552C31.06 7.552 30.6456 7.49506 30.1125 7.08069C29.8739 6.89411 29.6388 6.7996 29.4147 6.7996C29.0294 6.7996 28.3969 7.07221 28.3266 8.82297C28.2491 8.55157 28.1607 8.20384 28.0904 7.79554L28.0758 7.71921C27.962 7.07827 27.7729 6.00601 28.4211 5.23543ZM33.6722 8.67879H32.7066C32.4655 8.67879 32.2474 8.77693 32.0729 8.93323H31.1993C31.0237 8.77693 30.8068 8.67879 30.5657 8.67879H29.6C29.3638 8.67879 29.1481 8.77208 28.9749 8.92475C29.0076 7.86096 29.2535 7.44781 29.4147 7.44781C29.4571 7.44781 29.5516 7.46598 29.7127 7.59078C30.413 8.136 31.0067 8.199 31.3932 8.199L31.6367 8.19415L31.8754 8.199C32.2631 8.199 32.858 8.136 33.5583 7.59078C33.717 7.46477 33.8115 7.44781 33.8564 7.44781C34.0175 7.44781 34.2635 7.85975 34.2962 8.92353C34.1217 8.7733 33.9073 8.67879 33.6722 8.67879ZM34.0563 9.85404C34.0563 10.14 33.8806 10.3823 33.6734 10.3823H32.7078C32.4994 10.3823 32.3249 10.1412 32.3249 9.85404C32.3249 9.56932 32.5006 9.327 32.7078 9.327H33.6734C33.8806 9.32821 34.0563 9.56932 34.0563 9.85404ZM30.9485 9.85404C30.9485 10.14 30.7729 10.3823 30.5657 10.3823H29.6C29.3916 10.3823 29.2147 10.1412 29.2147 9.85404C29.2147 9.56932 29.3916 9.327 29.6 9.327H30.5657C30.7741 9.32821 30.9485 9.56932 30.9485 9.85404ZM27.8032 9.4942C27.8032 9.45421 27.8129 9.41423 27.8178 9.37304C27.8844 9.56447 27.9292 9.67109 27.9317 9.67109C28.0758 10.2745 28.1873 10.6404 28.5181 10.6404C28.6247 10.6404 28.7071 10.6089 28.7689 10.5471C28.9555 10.8379 29.2559 11.0293 29.6 11.0293H30.5657C31.1363 11.0293 31.598 10.501 31.598 9.85283C31.598 9.75954 31.5858 9.66988 31.5677 9.58022H31.707C31.6876 9.66867 31.6767 9.75832 31.6767 9.85283C31.6767 10.501 32.1408 11.0293 32.709 11.0293H33.6746C34.0199 11.0293 34.3253 10.833 34.5119 10.535C34.5712 10.5943 34.6439 10.6404 34.7554 10.6404C35.0862 10.6404 35.1976 10.2745 35.3236 9.72561C35.3285 9.71349 35.3806 9.5887 35.4557 9.37061C35.4605 9.4106 35.4702 9.45058 35.4702 9.4942V10.0006C35.4702 10.3229 35.2497 10.6064 34.9359 10.6937C34.8244 10.724 34.7372 10.8148 34.7081 10.9275C34.2392 12.7934 32.4364 14.1031 31.6392 14.1031C30.8395 14.1031 29.0366 12.7934 28.5678 10.9275C28.5399 10.8136 28.4539 10.724 28.34 10.6937C28.025 10.6064 27.8057 10.3217 27.8057 10.0006V9.4942H27.8032Z" fill="#939393" stroke="#939393" stroke-width="0.35"/>
<path d="M38.1732 16.5453C37.6595 15.1822 34.3797 14.3608 34.0077 14.2723C33.8636 14.2396 33.7194 14.3014 33.6479 14.4286C33.1439 15.324 32.0413 16.0437 31.6366 16.286C31.2295 16.0437 30.127 15.324 29.6205 14.4286C29.5491 14.3026 29.4 14.2408 29.2631 14.2723C29.0341 14.3268 27.7014 14.6612 26.5916 15.2271C26.8351 15.347 27.0762 15.4754 27.3064 15.6124C27.9267 15.3397 28.6149 15.1107 29.188 14.9593C29.9549 16.1164 31.4173 16.9088 31.484 16.9451C31.5785 16.9972 31.6948 16.9972 31.7893 16.9451C31.8559 16.91 33.3183 16.1152 34.0853 14.9593C35.3732 15.2973 37.29 16.0328 37.5662 16.7743C37.9491 17.792 38.252 20.2152 38.3331 20.9082C37.7964 21.2608 35.704 22.4324 31.6391 22.4324C31.0708 22.4324 30.5486 22.4082 30.0579 22.3682C30.0906 22.6323 30.1173 22.8541 30.1355 23.0237C30.6068 23.0576 31.1035 23.0806 31.6379 23.0806C36.6236 23.0806 38.7887 21.3892 38.8796 21.3153C38.9644 21.2463 39.0092 21.1384 38.9983 21.0294C38.9826 20.8973 38.6494 17.8114 38.1732 16.5453Z" fill="#939393" stroke="#939393" stroke-width="0.35"/>
<path d="M2.50023 14.2324C2.87219 14.3741 3.48889 14.471 4.15648 14.471C4.97795 14.471 5.8503 14.3099 6.44035 13.9198C7.05584 14.4117 7.6992 14.7097 8.17535 14.7097C8.65394 14.7097 9.29729 14.4117 9.91279 13.9198C10.5016 14.3099 11.3752 14.471 12.1942 14.471C12.8618 14.471 13.4797 14.3741 13.8505 14.2324C13.9668 14.1875 14.3194 14.053 14.3497 13.7283C14.3618 13.6193 14.3375 13.4133 14.071 13.2485L13.8977 13.1419C13.2798 12.7712 13.0217 12.6173 12.9272 8.87104C12.8897 7.35896 12.3336 6.22006 11.2892 5.47008C11.4127 4.91275 11.3982 4.47294 11.3958 4.4378C11.3909 4.35178 11.3534 4.26939 11.2867 4.21244C10.0158 3.07233 8.27834 2.89301 8.14385 2.88574C8.06994 2.89301 6.33372 3.07233 5.06276 4.21365C4.99612 4.2706 4.95856 4.35178 4.95371 4.43901C4.95129 4.47294 4.93675 4.91275 5.06033 5.4725C4.01715 6.22006 3.46103 7.36017 3.42225 8.87104C3.32533 12.6185 3.06968 12.7724 2.44934 13.1419L2.27851 13.2485C2.00832 13.4145 1.98772 13.6205 1.99741 13.7283C2.02892 14.053 2.38391 14.1875 2.50023 14.2324ZM8.17414 14.0627C7.43143 14.0627 5.70369 12.7954 5.25904 11.0555C5.44805 9.41989 6.11806 8.82378 6.48517 8.61539C6.7384 9.08428 7.41932 9.8391 9.1834 9.8391C9.9661 9.8391 10.6931 10.0923 10.9911 10.4703C11.1171 10.6303 11.1547 10.7999 11.1074 10.9938C10.687 12.7651 8.92897 14.0627 8.17414 14.0627ZM8.14385 3.53152C8.18868 3.53637 9.65593 3.69994 10.7464 4.60379C10.7367 4.9503 10.6591 5.9002 10.0667 6.58475H6.28163C5.694 5.90504 5.61161 4.95152 5.60192 4.60379C6.69357 3.69994 8.15839 3.53637 8.14385 3.53152ZM4.07167 8.88679C4.10196 7.67882 4.50421 6.75195 5.26388 6.12313C5.40564 6.47328 5.60434 6.82828 5.90724 7.13603C5.96661 7.19782 6.05142 7.23296 6.13866 7.23296H10.2096C10.2969 7.23296 10.3805 7.19782 10.441 7.13603C10.7439 6.82828 10.9426 6.47328 11.0844 6.12313C11.8441 6.75195 12.2463 7.67882 12.2766 8.88679C12.3735 12.7263 12.6534 13.1456 13.51 13.6665C12.8788 13.8483 11.2661 13.9367 10.3986 13.4775C10.9996 12.8645 11.5206 12.066 11.7375 11.144C11.832 10.7587 11.7496 10.3867 11.4988 10.0681C11.0723 9.5253 10.1854 9.18847 9.18219 9.18847C7.24606 9.18847 6.99041 8.16831 6.98193 8.13075C6.96497 8.04594 6.91529 7.97082 6.84502 7.92235C6.77111 7.8751 6.68388 7.85814 6.60149 7.8751C6.53 7.88964 4.9101 8.24464 4.6072 11.0386C4.60477 11.0761 4.6072 11.1149 4.61447 11.1501C4.83498 12.0697 5.35475 12.8645 5.95328 13.4763C5.08214 13.9355 3.47072 13.8495 2.83948 13.6653C3.69244 13.1456 3.97111 12.7251 4.07167 8.88679Z" fill="#939393" stroke="#939393" stroke-width="0.35"/>
<path d="M5.78838 15.1783C6.53594 16.3026 7.95593 17.0744 8.02014 17.1096C8.11707 17.1617 8.23339 17.1617 8.32789 17.1096C8.39211 17.0756 9.8121 16.3026 10.5621 15.1783C11.1134 15.3225 11.7761 15.5454 12.3746 15.8083C12.5903 15.6641 12.8193 15.5309 13.0568 15.4061C11.9796 14.8645 10.7075 14.5434 10.4845 14.4901C10.35 14.4574 10.1986 14.5192 10.1271 14.6464C9.63763 15.5151 8.57263 16.2106 8.17523 16.4492C7.77783 16.2106 6.71283 15.5151 6.22335 14.6464C6.15186 14.5204 6.00041 14.4574 5.86592 14.4901C5.50123 14.5773 2.30625 15.377 1.80707 16.7097C1.3406 17.9419 1.0159 20.9467 1.00136 21.0739C0.991665 21.1842 1.03407 21.292 1.12252 21.3611C1.21096 21.4301 3.31914 23.0791 8.17402 23.0791C8.77982 23.0791 9.34321 23.0537 9.8642 23.0076C9.88358 22.8356 9.91145 22.6126 9.94659 22.3449C9.40258 22.397 8.81495 22.4297 8.17402 22.4297C4.25086 22.4297 2.20084 21.2956 1.66895 20.9503C1.74891 20.2682 2.04091 17.9226 2.41166 16.9363C2.68184 16.219 4.5368 15.5066 5.78838 15.1783Z" fill="#939393" stroke="#939393" stroke-width="0.35"/>
<path d="M7.85034 6.19436H8.49855V5.38259H9.31032V4.73439H8.49855V3.92383H7.85034V4.73439H7.03857V5.38259H7.85034V6.19436Z" fill="#939393" stroke="#939393" stroke-width="0.35"/>
</svg>
