<svg width="30" height="30" viewBox="0 0 30 30" fill="none" xmlns="http://www.w3.org/2000/svg">
<path d="M14.9238 1C7.24418 1 1 7.24418 1 14.9238C1 22.6033 7.24418 28.8475 14.9238 28.8475C22.6033 28.8475 28.8475 22.6033 28.8475 14.9238C28.8475 7.24418 22.6033 1 14.9238 1ZM14.9238 2.74047C21.6627 2.74047 27.107 8.1848 27.107 14.9238C27.107 21.6627 21.6627 27.107 14.9238 27.107C8.1848 27.107 2.74047 21.6627 2.74047 14.9238C2.74047 8.1848 8.1848 2.74047 14.9238 2.74047ZM14.9147 5.9132C14.7996 5.91439 14.686 5.93837 14.5802 5.98377C14.4745 6.02918 14.3788 6.09509 14.2988 6.1777C14.2187 6.26032 14.1558 6.35799 14.1137 6.46508C14.0716 6.57216 14.0511 6.68653 14.0535 6.80157V8.0072C13.2218 8.09157 12.4379 8.31133 11.7692 8.76866C10.8711 9.38281 10.2825 10.471 10.2825 11.7873C10.2825 13.0306 11.0107 14.0004 11.8779 14.5884C12.7451 15.1763 13.7686 15.5021 14.6971 15.7577C15.5619 15.9959 16.4206 16.3049 16.9906 16.6914C17.5606 17.0779 17.8245 17.4198 17.8245 18.0512C17.8245 18.919 17.5661 19.3184 17.0993 19.6375C16.6326 19.9567 15.8572 20.1452 14.9238 20.1452C13.6021 20.1452 12.2377 18.93 11.9776 18.1327C11.9504 18.0153 11.899 17.9049 11.8268 17.8084C11.7546 17.7119 11.6631 17.6314 11.5582 17.5721C11.4533 17.5128 11.3372 17.476 11.2172 17.4639C11.0973 17.4518 10.9762 17.4647 10.8615 17.5019C10.7469 17.5391 10.6412 17.5996 10.5512 17.6798C10.4612 17.7599 10.3888 17.8579 10.3386 17.9675C10.2884 18.0771 10.2616 18.1959 10.2597 18.3164C10.2579 18.4369 10.2811 18.5565 10.3278 18.6676C10.8111 20.1493 12.2445 21.482 14.0535 21.8131V23.0459C14.0519 23.1613 14.0732 23.2758 14.1162 23.3828C14.1592 23.4898 14.223 23.5872 14.304 23.6693C14.385 23.7514 14.4815 23.8166 14.5879 23.8611C14.6942 23.9057 14.8084 23.9286 14.9238 23.9286C15.0391 23.9286 15.1533 23.9057 15.2597 23.8611C15.366 23.8166 15.4625 23.7514 15.5435 23.6693C15.6245 23.5872 15.6883 23.4898 15.7313 23.3828C15.7743 23.2758 15.7956 23.1613 15.794 23.0459V21.8494C16.6257 21.7624 17.4096 21.5271 18.0784 21.0698C18.9764 20.4557 19.565 19.3675 19.565 18.0512C19.565 16.8078 18.8368 15.8381 17.9696 15.2501C17.1024 14.6621 16.0789 14.3364 15.1504 14.0807C14.2856 13.8426 13.4269 13.5335 12.8569 13.147C12.287 12.7606 12.023 12.4185 12.023 11.7873C12.023 10.9195 12.2814 10.5292 12.7482 10.21C13.2149 9.8908 13.9903 9.70235 14.9238 9.70235C16.2453 9.70235 17.6099 10.9085 17.8699 11.7057C17.8972 11.8231 17.9485 11.9335 18.0207 12.0301C18.0929 12.1266 18.1844 12.207 18.2893 12.2663C18.3943 12.3256 18.5104 12.3625 18.6303 12.3746C18.7502 12.3867 18.8713 12.3737 18.986 12.3366C19.1006 12.2994 19.2063 12.2388 19.2963 12.1587C19.3863 12.0785 19.4587 11.9805 19.5089 11.871C19.5591 11.7614 19.5859 11.6426 19.5878 11.522C19.5897 11.4015 19.5665 11.2819 19.5197 11.1709C19.0364 9.68921 17.603 8.37277 15.794 8.04346V6.80157C15.7964 6.685 15.7754 6.56914 15.7322 6.46086C15.689 6.35258 15.6244 6.25409 15.5424 6.17123C15.4604 6.08837 15.3626 6.02283 15.2547 5.9785C15.1469 5.93418 15.0313 5.91197 14.9147 5.9132Z" fill="white" stroke="white" stroke-width="0.4"/>
</svg>
