<svg width="322" height="246" viewBox="0 0 322 246" fill="none" xmlns="http://www.w3.org/2000/svg">
<path d="M322 0H0V246H322V0Z" fill="white"/>
<path fill-rule="evenodd" clip-rule="evenodd" d="M226.164 120.841V182.043C226.164 187.787 221.411 192.343 215.667 192.343H106.333C100.589 192.343 96.0338 187.787 96.0338 182.043V120.841H79V105.787L161 43L243 105.787V120.841H226.164ZM220.816 115.295V182.043C220.816 184.816 218.44 186.995 215.667 186.995H106.333C103.56 186.995 101.382 184.816 101.382 182.043V115.295H84.3478V108.56L161 49.9324L237.652 108.56V115.295H220.816Z" fill="#720C20" stroke="#720C20"/>
<path fill-rule="evenodd" clip-rule="evenodd" d="M167.536 136.488H186.946C193.681 136.488 200.415 141.242 200.415 148.57V177.488H154.067V148.57C154.067 141.242 160.603 136.488 167.536 136.488ZM167.536 141.836H186.946C191.304 141.836 195.067 144.807 195.067 148.57V172.339H159.217V148.57C159.217 144.807 162.98 141.836 167.536 141.836Z" fill="#720C20" stroke="#720C20"/>
<path fill-rule="evenodd" clip-rule="evenodd" d="M177.242 100.438C186.749 100.438 194.275 108.162 194.275 117.471C194.275 126.979 186.749 134.703 177.242 134.703C167.734 134.703 160.01 126.979 160.01 117.471C160.01 108.162 167.734 100.438 177.242 100.438ZM177.242 105.785C183.778 105.785 188.928 110.935 188.928 117.471C188.928 124.206 183.778 129.355 177.242 129.355C170.705 129.355 165.358 124.206 165.358 117.471C165.358 110.935 170.705 105.785 177.242 105.785Z" fill="#720C20" stroke="#720C20"/>
<path fill-rule="evenodd" clip-rule="evenodd" d="M127.528 109.746C130.499 115.688 142.779 114.896 142.779 108.558C142.779 101.427 122.18 105.983 122.18 93.7025C122.18 88.1566 126.933 84.9875 132.281 84.3933V80.8281H137.629V84.3933C142.185 85.3837 145.948 88.1566 146.938 92.9103H141.392C139.412 86.9682 127.528 87.9586 127.528 93.1083C127.528 100.041 148.325 95.6832 148.325 107.963C148.325 113.707 143.373 117.273 137.629 118.263V121.828H132.281V118.263C127.528 117.471 123.17 114.698 121.784 109.746H127.528Z" fill="#720C20" stroke="#720C20"/>
</svg>
