<svg width="33" height="33" viewBox="0 0 33 33" fill="none" xmlns="http://www.w3.org/2000/svg">
<path d="M16.2451 0.791504C14.5165 0.791504 13.0926 2.21539 13.0926 3.94405C13.0926 5.6727 14.5165 7.09659 16.2451 7.09659C17.9738 7.09659 19.3977 5.6727 19.3977 3.94405C19.3977 2.21539 17.9738 0.791504 16.2451 0.791504ZM16.2451 7.09659C14.6603 7.09659 13.2116 7.36996 12.0527 7.96135C10.8938 8.55273 9.94005 9.60031 9.94005 10.9388V14.4525C9.94105 14.6808 10.0164 14.9026 10.1546 15.0843C10.2929 15.266 10.4865 15.3977 10.7063 15.4596C12.2509 15.8993 13.745 16.163 15.5227 16.2039C15.53 16.204 15.5373 16.204 15.5446 16.2039H16.9457C16.953 16.204 16.9603 16.204 16.9676 16.2039C18.7452 16.163 20.2394 15.8993 21.784 15.4596C22.0038 15.3977 22.1974 15.266 22.3357 15.0843C22.4739 14.9026 22.5492 14.6808 22.5502 14.4525V10.9388C22.5502 9.60031 21.5965 8.55273 20.4376 7.96135C19.2786 7.36996 17.83 7.09659 16.2451 7.09659ZM16.2451 2.8932C16.838 2.8932 17.296 3.35123 17.296 3.94405C17.296 4.53686 16.838 4.99489 16.2451 4.99489C15.6523 4.99489 15.1943 4.53686 15.1943 3.94405C15.1943 3.35123 15.6523 2.8932 16.2451 2.8932ZM16.2451 9.19828C17.5711 9.19828 18.7448 9.45532 19.4852 9.83317C20.2257 10.211 20.4485 10.5518 20.4485 10.9388V13.6097C19.3311 13.8819 18.2443 14.0708 16.9457 14.1022H16.9238H15.5665C15.5586 14.1021 15.5524 14.1024 15.5446 14.1022C14.246 14.0708 13.1591 13.8819 12.0417 13.6097V10.9388C12.0417 10.5518 12.2645 10.211 13.005 9.83317C13.7455 9.45532 14.9192 9.19828 16.2451 9.19828ZM16.2342 16.5323C16.0953 16.5338 15.958 16.5627 15.8303 16.6175C15.7027 16.6724 15.5871 16.752 15.4904 16.8517C15.3937 16.9515 15.3177 17.0694 15.2669 17.1987C15.2161 17.328 15.1914 17.4662 15.1943 17.6051V20.5058L12.2059 22.301C12.0823 22.3689 11.9736 22.4609 11.8863 22.5717C11.799 22.6824 11.7349 22.8096 11.6978 22.9456C11.6607 23.0817 11.6513 23.2238 11.6703 23.3635C11.6892 23.5033 11.7361 23.6377 11.8081 23.759C11.8801 23.8802 11.9758 23.9857 12.0894 24.0692C12.203 24.1527 12.3323 24.2125 12.4695 24.245C12.6068 24.2775 12.7491 24.282 12.8881 24.2583C13.0271 24.2347 13.16 24.1833 13.2787 24.1072L16.2451 22.3229L19.2116 24.1072C19.3303 24.1833 19.4631 24.2347 19.6022 24.2583C19.7412 24.282 19.8835 24.2775 20.0207 24.245C20.158 24.2125 20.2872 24.1527 20.4009 24.0692C20.5145 23.9857 20.6102 23.8802 20.6822 23.759C20.7542 23.6377 20.8011 23.5033 20.82 23.3635C20.839 23.2238 20.8296 23.0817 20.7925 22.9456C20.7553 22.8096 20.6912 22.6824 20.6039 22.5717C20.5166 22.4609 20.4079 22.3689 20.2843 22.301L17.296 20.5058V17.6051C17.2989 17.4643 17.2735 17.3244 17.2213 17.1937C17.1692 17.0629 17.0912 16.944 16.9922 16.8439C16.8932 16.7438 16.775 16.6647 16.6448 16.6112C16.5146 16.5577 16.375 16.5308 16.2342 16.5323ZM6.78751 16.9045C5.05885 16.9045 3.63496 18.3284 3.63496 20.057C3.63496 21.7857 5.05885 23.2096 6.78751 23.2096C8.51616 23.2096 9.94005 21.7857 9.94005 20.057C9.94005 18.3284 8.51616 16.9045 6.78751 16.9045ZM6.78751 23.2096C5.20263 23.2096 3.75399 23.4829 2.59506 24.0743C1.43613 24.6657 0.482422 25.7133 0.482422 27.0517V30.5655C0.48342 30.7938 0.558739 31.0156 0.696986 31.1973C0.835234 31.379 1.02889 31.5107 1.24866 31.5726C2.79326 32.0123 4.28742 32.276 6.06505 32.3169C6.07235 32.317 6.07964 32.317 6.08694 32.3169H7.48807C7.49537 32.317 7.50267 32.317 7.50996 32.3169C9.28759 32.276 10.7818 32.0123 12.3263 31.5726C12.5461 31.5107 12.7398 31.379 12.878 31.1973C13.0163 31.0156 13.0916 30.7938 13.0926 30.5655V27.0517C13.0926 25.7133 12.1389 24.6657 10.98 24.0743C9.82102 23.4829 8.37239 23.2096 6.78751 23.2096ZM25.7028 16.9045C23.9741 16.9045 22.5502 18.3284 22.5502 20.057C22.5502 21.7857 23.9741 23.2096 25.7028 23.2096C27.4314 23.2096 28.8553 21.7857 28.8553 20.057C28.8553 18.3284 27.4314 16.9045 25.7028 16.9045ZM25.7028 23.2096C24.1179 23.2096 22.6692 23.4829 21.5103 24.0743C20.3514 24.6657 19.3977 25.7133 19.3977 27.0517V30.5655C19.3987 30.7938 19.474 31.0156 19.6122 31.1973C19.7505 31.379 19.9441 31.5107 20.1639 31.5726C21.7085 32.0123 23.2027 32.276 24.9803 32.3169C24.9876 32.317 24.9949 32.317 25.0022 32.3169H26.4033C26.4106 32.317 26.4179 32.317 26.4252 32.3169C28.2028 32.276 29.697 32.0123 31.2416 31.5726C31.4614 31.5107 31.655 31.379 31.7933 31.1973C31.9315 31.0156 32.0068 30.7938 32.0078 30.5655V27.0517C32.0078 25.7133 31.0541 24.6657 29.8952 24.0743C28.7363 23.4829 27.2876 23.2096 25.7028 23.2096ZM6.78751 19.0062C7.38032 19.0062 7.83835 19.4642 7.83835 20.057C7.83835 20.6498 7.38032 21.1079 6.78751 21.1079C6.19469 21.1079 5.73666 20.6498 5.73666 20.057C5.73666 19.4642 6.19469 19.0062 6.78751 19.0062ZM25.7028 19.0062C26.2956 19.0062 26.7536 19.4642 26.7536 20.057C26.7536 20.6498 26.2956 21.1079 25.7028 21.1079C25.1099 21.1079 24.6519 20.6498 24.6519 20.057C24.6519 19.4642 25.1099 19.0062 25.7028 19.0062ZM6.78751 25.3113C8.11347 25.3113 9.28714 25.5683 10.0276 25.9462C10.7681 26.324 10.9909 26.6648 10.9909 27.0517V29.7227C9.87349 29.9949 8.78669 30.1838 7.48807 30.2152H7.46618H6.10883C6.10095 30.2151 6.09481 30.2154 6.08694 30.2152C4.78832 30.1837 3.70152 29.9949 2.58412 29.7227V27.0517C2.58412 26.6648 2.80692 26.324 3.54739 25.9462C4.28787 25.5683 5.46154 25.3113 6.78751 25.3113ZM25.7028 25.3113C27.0287 25.3113 28.2024 25.5683 28.9429 25.9462C29.6834 26.324 29.9062 26.6648 29.9062 27.0517V29.7227C28.7887 29.9949 27.7019 30.1838 26.4033 30.2152H26.3814H25.0241C25.0162 30.2151 25.0101 30.2154 25.0022 30.2152C23.7036 30.1837 22.6168 29.9949 21.4994 29.7227V27.0517C21.4994 26.6648 21.7222 26.324 22.4626 25.9462C23.2031 25.5683 24.3768 25.3113 25.7028 25.3113Z" fill="white"/>
<path d="M16.2451 7.09659C14.5165 7.09659 13.0926 5.6727 13.0926 3.94405C13.0926 2.21539 14.5165 0.791504 16.2451 0.791504C17.9738 0.791504 19.3977 2.21539 19.3977 3.94405C19.3977 5.6727 17.9738 7.09659 16.2451 7.09659ZM16.2451 7.09659C14.6603 7.09659 13.2116 7.36996 12.0527 7.96135C10.8938 8.55273 9.94005 9.60031 9.94005 10.9388V14.4525C9.94105 14.6808 10.0164 14.9026 10.1546 15.0843C10.2929 15.266 10.4865 15.3977 10.7063 15.4596C12.2509 15.8993 13.745 16.163 15.5227 16.2039C15.53 16.204 15.5373 16.204 15.5446 16.2039H16.9457C16.953 16.204 16.9603 16.204 16.9676 16.2039C18.7452 16.163 20.2394 15.8993 21.784 15.4596C22.0038 15.3977 22.1974 15.266 22.3357 15.0843C22.4739 14.9026 22.5492 14.6808 22.5502 14.4525V10.9388C22.5502 9.60031 21.5965 8.55273 20.4376 7.96135C19.2786 7.36996 17.83 7.09659 16.2451 7.09659ZM6.78751 23.2096C5.05885 23.2096 3.63496 21.7857 3.63496 20.057C3.63496 18.3284 5.05885 16.9045 6.78751 16.9045C8.51616 16.9045 9.94005 18.3284 9.94005 20.057C9.94005 21.7857 8.51616 23.2096 6.78751 23.2096ZM6.78751 23.2096C5.20263 23.2096 3.75399 23.4829 2.59506 24.0743C1.43613 24.6657 0.482422 25.7133 0.482422 27.0517V30.5655C0.48342 30.7938 0.558739 31.0156 0.696986 31.1973C0.835234 31.379 1.02889 31.5107 1.24866 31.5726C2.79326 32.0123 4.28742 32.276 6.06505 32.3169C6.07235 32.317 6.07964 32.317 6.08694 32.3169H7.48807C7.49537 32.317 7.50267 32.317 7.50996 32.3169C9.28759 32.276 10.7818 32.0123 12.3263 31.5726C12.5461 31.5107 12.7398 31.379 12.878 31.1973C13.0163 31.0156 13.0916 30.7938 13.0926 30.5655V27.0517C13.0926 25.7133 12.1389 24.6657 10.98 24.0743C9.82102 23.4829 8.37239 23.2096 6.78751 23.2096ZM25.7028 23.2096C23.9741 23.2096 22.5502 21.7857 22.5502 20.057C22.5502 18.3284 23.9741 16.9045 25.7028 16.9045C27.4314 16.9045 28.8553 18.3284 28.8553 20.057C28.8553 21.7857 27.4314 23.2096 25.7028 23.2096ZM25.7028 23.2096C24.1179 23.2096 22.6692 23.4829 21.5103 24.0743C20.3514 24.6657 19.3977 25.7133 19.3977 27.0517V30.5655C19.3987 30.7938 19.474 31.0156 19.6122 31.1973C19.7505 31.379 19.9441 31.5107 20.1639 31.5726C21.7085 32.0123 23.2027 32.276 24.9803 32.3169C24.9876 32.317 24.9949 32.317 25.0022 32.3169H26.4033C26.4106 32.317 26.4179 32.317 26.4252 32.3169C28.2028 32.276 29.697 32.0123 31.2416 31.5726C31.4614 31.5107 31.655 31.379 31.7933 31.1973C31.9315 31.0156 32.0068 30.7938 32.0078 30.5655V27.0517C32.0078 25.7133 31.0541 24.6657 29.8952 24.0743C28.7363 23.4829 27.2876 23.2096 25.7028 23.2096ZM16.2451 2.8932C16.838 2.8932 17.296 3.35123 17.296 3.94405C17.296 4.53686 16.838 4.99489 16.2451 4.99489C15.6523 4.99489 15.1943 4.53686 15.1943 3.94405C15.1943 3.35123 15.6523 2.8932 16.2451 2.8932ZM16.2451 9.19828C17.5711 9.19828 18.7448 9.45532 19.4852 9.83317C20.2257 10.211 20.4485 10.5518 20.4485 10.9388V13.6097C19.3311 13.8819 18.2443 14.0708 16.9457 14.1022H16.9238H15.5665C15.5586 14.1021 15.5524 14.1024 15.5446 14.1022C14.246 14.0708 13.1591 13.8819 12.0417 13.6097V10.9388C12.0417 10.5518 12.2645 10.211 13.005 9.83317C13.7455 9.45532 14.9192 9.19828 16.2451 9.19828ZM16.2342 16.5323C16.0953 16.5338 15.958 16.5627 15.8303 16.6175C15.7027 16.6724 15.5871 16.752 15.4904 16.8517C15.3937 16.9515 15.3177 17.0694 15.2669 17.1987C15.2161 17.328 15.1914 17.4662 15.1943 17.6051V20.5058L12.2059 22.301C12.0823 22.3689 11.9736 22.4609 11.8863 22.5717C11.799 22.6824 11.7349 22.8096 11.6978 22.9456C11.6607 23.0817 11.6513 23.2238 11.6703 23.3635C11.6892 23.5033 11.7361 23.6377 11.8081 23.759C11.8801 23.8802 11.9758 23.9857 12.0894 24.0692C12.203 24.1527 12.3323 24.2125 12.4695 24.245C12.6068 24.2775 12.7491 24.282 12.8881 24.2583C13.0271 24.2347 13.16 24.1833 13.2787 24.1072L16.2451 22.3229L19.2116 24.1072C19.3303 24.1833 19.4631 24.2347 19.6022 24.2583C19.7412 24.282 19.8835 24.2775 20.0207 24.245C20.158 24.2125 20.2872 24.1527 20.4009 24.0692C20.5145 23.9857 20.6102 23.8802 20.6822 23.759C20.7542 23.6377 20.8011 23.5033 20.82 23.3635C20.839 23.2238 20.8296 23.0817 20.7925 22.9456C20.7553 22.8096 20.6912 22.6824 20.6039 22.5717C20.5166 22.4609 20.4079 22.3689 20.2843 22.301L17.296 20.5058V17.6051C17.2989 17.4643 17.2735 17.3244 17.2213 17.1937C17.1692 17.0629 17.0912 16.944 16.9922 16.8439C16.8932 16.7438 16.775 16.6647 16.6448 16.6112C16.5146 16.5577 16.375 16.5308 16.2342 16.5323ZM6.78751 19.0062C7.38032 19.0062 7.83835 19.4642 7.83835 20.057C7.83835 20.6498 7.38032 21.1079 6.78751 21.1079C6.19469 21.1079 5.73666 20.6498 5.73666 20.057C5.73666 19.4642 6.19469 19.0062 6.78751 19.0062ZM25.7028 19.0062C26.2956 19.0062 26.7536 19.4642 26.7536 20.057C26.7536 20.6498 26.2956 21.1079 25.7028 21.1079C25.1099 21.1079 24.6519 20.6498 24.6519 20.057C24.6519 19.4642 25.1099 19.0062 25.7028 19.0062ZM6.78751 25.3113C8.11347 25.3113 9.28714 25.5683 10.0276 25.9462C10.7681 26.324 10.9909 26.6648 10.9909 27.0517V29.7227C9.87349 29.9949 8.78669 30.1838 7.48807 30.2152H7.46618H6.10883C6.10095 30.2151 6.09481 30.2154 6.08694 30.2152C4.78832 30.1837 3.70152 29.9949 2.58412 29.7227V27.0517C2.58412 26.6648 2.80692 26.324 3.54739 25.9462C4.28787 25.5683 5.46154 25.3113 6.78751 25.3113ZM25.7028 25.3113C27.0287 25.3113 28.2024 25.5683 28.9429 25.9462C29.6834 26.324 29.9062 26.6648 29.9062 27.0517V29.7227C28.7887 29.9949 27.7019 30.1838 26.4033 30.2152H26.3814H25.0241C25.0162 30.2151 25.0101 30.2154 25.0022 30.2152C23.7036 30.1837 22.6168 29.9949 21.4994 29.7227V27.0517C21.4994 26.6648 21.7222 26.324 22.4626 25.9462C23.2031 25.5683 24.3768 25.3113 25.7028 25.3113Z" stroke="white" stroke-width="0.210169"/>
</svg>
