<svg width="25" height="30" viewBox="0 0 25 30" fill="none" xmlns="http://www.w3.org/2000/svg">
<path fill-rule="evenodd" clip-rule="evenodd" d="M18.4902 3.03846L18.3338 2.5732C18.021 1.63349 17.1418 1 16.1521 1H8.84729C7.85764 1 6.97838 1.63349 6.66558 2.5732L6.50918 3.03846C6.34226 3.54052 6.25684 4.06755 6.25684 4.5972V4.61429C6.25684 5.22412 6.49866 5.80898 6.93107 6.24006C7.36215 6.67246 7.94701 6.91429 8.55684 6.91429H16.4426C17.0524 6.91429 17.6372 6.67246 18.0683 6.24006C18.5007 5.80898 18.7426 5.22412 18.7426 4.61429V4.5972C18.7426 4.06755 18.6571 3.54052 18.4902 3.03846ZM16.4636 3.19617L16.62 3.66143C16.7199 3.96372 16.7711 4.27915 16.7711 4.5972V4.61429C16.7711 4.70103 16.737 4.78515 16.6752 4.84692C16.6134 4.90869 16.5293 4.94286 16.4426 4.94286H8.55684C8.47009 4.94286 8.38598 4.90869 8.32421 4.84692C8.26244 4.78515 8.22827 4.70103 8.22827 4.61429V4.5972C8.22827 4.27915 8.27952 3.96372 8.37941 3.66143L8.53581 3.19617C8.5805 3.06212 8.70535 2.97143 8.84729 2.97143H16.1521C16.294 2.97143 16.4189 3.06212 16.4636 3.19617Z" fill="#720C20" stroke="#720C20" stroke-width="0.5"/>
<path fill-rule="evenodd" clip-rule="evenodd" d="M7.24286 2.97266H4.61429C2.61789 2.97266 1 4.59054 1 6.58694V25.6441C1 27.6405 2.61789 29.2584 4.61429 29.2584H20.3857C22.3821 29.2584 24 27.6405 24 25.6441V6.58694C24 4.59054 22.3821 2.97266 20.3857 2.97266C19.0714 2.97266 17.7572 2.97266 17.7572 2.97266C17.213 2.97266 16.7714 3.41426 16.7714 3.95837C16.7714 4.50249 17.213 4.94409 17.7572 4.94409C17.7572 4.94409 19.0714 4.94409 20.3857 4.94409C21.2926 4.94409 22.0286 5.68009 22.0286 6.58694V25.6441C22.0286 26.551 21.2926 27.287 20.3857 27.287H4.61429C3.70743 27.287 2.97143 26.551 2.97143 25.6441V6.58694C2.97143 5.68009 3.70743 4.94409 4.61429 4.94409H7.24286C7.78698 4.94409 8.22858 4.50249 8.22858 3.95837C8.22858 3.41426 7.78698 2.97266 7.24286 2.97266Z" fill="#720C20" stroke="#720C20" stroke-width="0.5"/>
<path fill-rule="evenodd" clip-rule="evenodd" d="M8.557 13.157H16.4427C16.9868 13.157 17.4284 12.7154 17.4284 12.1713C17.4284 11.6271 16.9868 11.1855 16.4427 11.1855H8.557C8.01289 11.1855 7.57129 11.6271 7.57129 12.1713C7.57129 12.7154 8.01289 13.157 8.557 13.157Z" fill="#720C20" stroke="#720C20" stroke-width="0.5"/>
<path fill-rule="evenodd" clip-rule="evenodd" d="M6.58581 18.0857H18.4144C18.9585 18.0857 19.4001 17.6441 19.4001 17.1C19.4001 16.5559 18.9585 16.1143 18.4144 16.1143H6.58581C6.0417 16.1143 5.6001 16.5559 5.6001 17.1C5.6001 17.6441 6.0417 18.0857 6.58581 18.0857Z" fill="#720C20" stroke="#720C20" stroke-width="0.5"/>
<path fill-rule="evenodd" clip-rule="evenodd" d="M6.58581 23.0144H18.4144C18.9585 23.0144 19.4001 22.5728 19.4001 22.0287C19.4001 21.4846 18.9585 21.043 18.4144 21.043H6.58581C6.0417 21.043 5.6001 21.4846 5.6001 22.0287C5.6001 22.5728 6.0417 23.0144 6.58581 23.0144Z" fill="#720C20" stroke="#720C20" stroke-width="0.5"/>
</svg>
