<svg width="322" height="246" viewBox="0 0 322 246" fill="none" xmlns="http://www.w3.org/2000/svg">
<path d="M322 0H0V246H322V0Z" fill="white"/>
<path d="M212.328 146.328L182.659 157.99C182.659 157.99 182.711 157.785 182.736 157.707C182.993 157.065 183.199 156.397 183.353 155.704C183.507 154.882 183.61 154.06 183.61 153.212C183.61 146.148 177.856 140.42 170.766 140.42H154.404C152.118 140.42 149.857 139.804 147.879 138.648L137.142 132.355C134.368 130.736 131.234 129.889 128.024 129.889H88.5687C87.1559 129.889 86 131.045 86 132.457V170.988C86 172.349 87.0532 173.479 88.4146 173.556C89.3907 173.608 90.3924 173.659 91.4713 173.685C98.5608 173.967 107.371 174.327 117.081 179.464L133.366 188.557C139.994 192.256 147.443 194.131 154.943 194.131C161.185 194.131 167.453 192.821 173.284 190.201L222.654 167.982C225.762 166.595 228.074 164.155 229.178 161.15C230.206 158.35 230.052 155.319 228.767 152.621C226.019 146.842 218.852 144.068 212.328 146.354V146.328ZM224.349 159.351C223.733 161.047 222.371 162.434 220.547 163.256L171.177 185.475C160.004 190.51 146.492 189.944 135.884 184.036L119.547 174.918C108.784 169.215 98.9205 168.804 91.7025 168.522C91.5227 168.522 91.3429 168.522 91.163 168.522V135H128.075C130.361 135 132.622 135.617 134.599 136.773L145.337 143.066C148.111 144.684 151.244 145.532 154.455 145.532H170.818C175.056 145.532 178.524 148.974 178.524 153.187C178.524 157.399 175.133 160.739 170.972 160.816C170.972 160.816 170.946 160.816 170.921 160.816C170.869 160.816 170.843 160.816 170.792 160.816H142.023C140.61 160.816 139.454 161.971 139.454 163.384C139.454 164.797 140.61 165.953 142.023 165.953H170.792C170.792 165.953 170.946 165.953 170.998 165.953H171.049C174.799 165.902 178.447 165.182 181.863 163.821L214.126 151.132C218.03 149.77 222.525 151.414 224.144 154.779C224.837 156.218 224.914 157.836 224.375 159.326L224.349 159.351Z" fill="#720C20" stroke="#720C20" stroke-width="1.84602"/>
<path d="M234.393 56.2983L221.55 40.8862C220.574 39.7046 218.57 39.7046 217.594 40.8862L204.75 56.2983C204.108 57.0689 203.98 58.122 204.391 59.0468C204.802 59.9458 205.727 60.5366 206.728 60.5366H211.866V122.211C211.866 123.623 213.022 124.779 214.434 124.779H224.709C226.122 124.779 227.278 123.623 227.278 122.211V60.5109H232.415C233.417 60.5109 234.316 59.9458 234.753 59.0211C235.189 58.122 235.035 57.0432 234.393 56.2726V56.2983ZM224.709 55.3735C223.296 55.3735 222.14 56.5295 222.14 57.9422V119.616H217.003V57.9422C217.003 56.5295 215.847 55.3735 214.434 55.3735H212.2L219.572 46.5373L226.944 55.3735H224.709Z" fill="#720C20" stroke="#720C20" stroke-width="1.84602"/>
<path d="M114.255 124.753H196.453C197.866 124.753 199.022 123.597 199.022 122.184V57.9671C199.022 56.5543 197.866 55.3984 196.453 55.3984H175.904C174.491 55.3984 173.335 56.5543 173.335 57.9671V70.8105H155.354C153.942 70.8105 152.786 71.9664 152.786 73.3792V86.2226H134.805C133.392 86.2226 132.236 87.3785 132.236 88.7913V101.635H114.255C112.843 101.635 111.687 102.791 111.687 104.203V122.184C111.687 123.597 112.843 124.753 114.255 124.753ZM178.472 73.3792V60.5358H193.885V119.615H178.472V73.3792ZM157.923 88.7913V75.9479H173.335V119.615H157.923V88.7913ZM137.374 104.203V91.36H152.786V119.615H137.374V104.203ZM116.824 106.772H132.236V119.615H116.824V106.772Z" fill="#720C20" stroke="#720C20" stroke-width="1.84602"/>
</svg>
