<svg width="25" height="32" viewBox="0 0 25 32" fill="none" xmlns="http://www.w3.org/2000/svg">
<path d="M19.5041 20.585C19.1379 20.693 18.6004 20.7052 18.0238 20.6217C17.4052 20.5318 16.7741 20.3427 16.154 20.0641C17.26 19.9032 18.118 19.9527 18.8518 20.2128C19.0258 20.2745 19.3113 20.4392 19.5041 20.585ZM13.3335 19.5705C13.2884 19.5827 13.2443 19.5943 13.2002 19.6065C12.9025 19.6875 12.6129 19.7664 12.334 19.8369L11.9577 19.9323C11.2008 20.1239 10.427 20.3196 9.66283 20.5525C9.95333 19.8519 10.2232 19.1438 10.4874 18.4514C10.683 17.9389 10.8827 17.4152 11.0893 16.8984C11.1942 17.0715 11.3035 17.2446 11.4174 17.4183C11.9358 18.2081 12.5875 18.9384 13.3335 19.5705ZM11.4083 11.6716C11.4575 12.5359 11.2709 13.3673 10.9973 14.1649C10.6605 13.1785 10.5033 12.0895 10.9247 11.2102C11.0327 10.9848 11.1213 10.8643 11.1786 10.8013C11.2672 10.9384 11.3839 11.2446 11.4083 11.6716ZM7.45717 22.6204C7.26778 22.9591 7.07463 23.2762 6.87648 23.5755C6.39847 24.2958 5.61682 25.0671 5.21519 25.0671C5.17575 25.0671 5.12785 25.0608 5.05804 24.987C5.01297 24.9397 5.00577 24.9059 5.00796 24.8599C5.02142 24.595 5.37233 24.1233 5.88071 23.686C6.34212 23.289 6.86365 22.9366 7.45717 22.6204ZM20.7832 20.6223C20.7218 19.7401 19.2368 19.1742 19.2221 19.1688C18.648 18.9654 18.0244 18.8664 17.3157 18.8664C16.5569 18.8664 15.7389 18.9763 14.6883 19.2217C13.7536 18.559 12.946 17.7295 12.3428 16.811C12.0764 16.4053 11.8369 16.0003 11.6281 15.6046C12.1377 14.3859 12.5966 13.0756 12.5134 11.608C12.4461 10.4313 11.9155 9.6409 11.1939 9.6409C10.699 9.6409 10.2726 10.0075 9.9261 10.7315C9.30785 12.0219 9.47031 13.6728 10.4088 15.6428C10.0707 16.4366 9.75674 17.2596 9.45278 18.0566C9.07463 19.0474 8.6849 20.0695 8.24571 21.0417C7.0139 21.5291 6.00217 22.1202 5.15884 22.8458C4.60633 23.3204 3.9405 24.0457 3.90231 24.8029C3.88384 25.1595 4.00592 25.4866 4.25447 25.7486C4.51837 26.0269 4.85019 26.1734 5.21487 26.1737C6.41945 26.1737 7.57862 24.5187 7.79838 24.1868C8.24101 23.5198 8.65516 22.7757 9.06117 21.9173C10.0836 21.5479 11.1732 21.2721 12.2291 21.0054L12.6073 20.9093C12.8915 20.837 13.187 20.7572 13.49 20.6742C13.8109 20.5875 14.1408 20.4977 14.4761 20.4122C15.5605 21.1019 16.7265 21.5517 17.8638 21.7167C18.8217 21.856 19.6725 21.7752 20.2482 21.475C20.7666 21.2052 20.7954 20.7888 20.7832 20.6223ZM23.116 28.2078C23.116 29.8234 21.6919 29.9229 21.4046 29.9264H3.03331C1.42367 29.9264 1.32663 28.4927 1.3235 28.2078V3.80118C1.3235 2.18403 2.75001 2.08604 3.03331 2.0826H15.4437L15.4503 2.08917V6.93219C15.4503 7.90417 16.0379 9.74421 18.2632 9.74421H23.0746L23.116 9.78553V28.2078ZM21.9752 8.64012H18.2636C16.6542 8.64012 16.5569 7.21423 16.5547 6.93219V3.19733L21.9752 8.64012ZM24.2197 28.2078V9.32974L16.5547 1.63277V1.59708H16.5181L15.9026 0.978516H3.03331C2.06008 0.978516 0.219727 1.56859 0.219727 3.80118V28.2081C0.219727 29.1842 0.807925 31.0305 3.03331 31.0305H21.4065C22.3794 31.0302 24.2197 30.4404 24.2197 28.2078Z" fill="white" stroke="white" stroke-width="0.436364"/>
</svg>
