<svg width="32" height="27" viewBox="0 0 32 27" fill="none" xmlns="http://www.w3.org/2000/svg">
<path fill-rule="evenodd" clip-rule="evenodd" d="M13.0574 1.50224C12.2469 0.908798 11.1478 0.913063 10.3418 1.51278L0.685495 8.69861C0.175571 9.07811 0.067726 9.80185 0.444638 10.3153C0.821539 10.8287 1.54046 10.9372 2.05038 10.5578L2.80312 9.99767V20.4339C2.80312 21.7107 3.8312 22.7458 5.0994 22.7458H10.8401V23.9017C10.8401 25.1786 11.8682 26.2136 13.1364 26.2136H26.34C27.6082 26.2136 28.6363 25.1786 28.6363 23.9017V13.4655L29.3891 14.0257C29.899 14.4051 30.6179 14.2965 30.9948 13.7832C31.3717 13.2697 31.2639 12.546 30.7539 12.1665L21.1031 4.98473C20.2919 4.3811 19.1845 4.3811 18.3734 4.98473L18.0956 5.19139L13.0574 1.50224ZM16.1593 6.63223L11.7067 3.37196L5.0994 8.28882V20.4339H10.8401V13.4655L10.0873 14.0257C9.57746 14.4051 8.85849 14.2965 8.48167 13.7832C8.10472 13.2697 8.21257 12.546 8.72255 12.1665L16.1593 6.63223ZM13.1364 23.9017V11.7567L19.7382 6.84388L26.34 11.7567V23.9017H13.1364Z" fill="white" stroke="white" stroke-width="0.2"/>
</svg>
