<svg width="37" height="37" viewBox="0 0 37 37" fill="none" xmlns="http://www.w3.org/2000/svg">
<path d="M35.6406 3.22344C35.0449 2.85567 34.0548 2.62558 32.7188 3.6183C32.4746 3.80088 32.2705 4.01018 32.0906 4.195L31.9792 4.30855C31.787 4.5045 31.5985 4.70415 31.4099 4.90381C31.0685 5.26527 30.7464 5.60669 30.4028 5.92621C29.1161 7.12377 27.6555 8.04746 26.0608 8.6724C23.8089 9.55527 21.3455 9.96349 18.9637 10.358C18.0041 10.5168 17.0117 10.6812 16.0383 10.8753C14.6452 11.1525 12.8015 11.783 11.5164 12.746C10.4153 12.3519 9.33166 11.8279 8.34749 11.0957C6.761 9.91561 5.89818 8.20555 5.20161 6.53371L4.96967 5.97149C4.5967 5.06302 4.21075 4.12374 3.70976 3.22863C3.33642 2.56064 2.67103 2.22961 1.88168 2.32128C1.39813 2.37694 0.748694 2.63857 0.402451 3.56634C0.198713 4.11075 0.199084 4.64366 0.229515 5.13575C0.284439 6.07057 0.4121 7.00354 0.608786 7.90867C0.946123 9.46101 1.4961 10.9915 2.2424 12.4562C2.46544 12.8949 2.72373 13.3042 2.97348 13.7002C3.35943 14.3114 3.72349 14.8888 3.92463 15.5115C5.23724 19.5692 5.61465 24.9147 4.98711 30.5629C4.88246 31.4988 5.71745 32.316 10.9404 34.6818L11.2109 34.8047C11.3108 34.8503 11.5828 34.9564 11.9064 35.0808C12.2478 35.2121 12.9292 35.4745 13.1552 35.5825C13.1967 35.6155 13.242 35.6445 13.2903 35.6693C13.4116 35.7317 13.5441 35.7629 13.6762 35.7629C13.831 35.7629 13.9853 35.7202 14.1212 35.6356C15.1387 35.0021 16.8781 33.0619 17.8857 31.6881C17.8875 31.8488 17.8797 32.021 17.8742 32.1331C17.8668 32.2744 17.8608 32.4032 17.8616 32.509C17.8686 33.5366 17.8905 34.6358 17.9302 35.9685C17.9428 36.3956 18.2735 36.7455 18.6995 36.7823C18.8353 36.7938 19.0595 36.7997 19.3846 36.7997C20.6571 36.7997 23.6683 36.7032 24.8647 36.4798C25.2611 36.406 25.5498 36.0609 25.5524 35.6575C25.5561 35.0893 25.5713 34.4246 25.5873 33.7374C25.6136 32.6081 25.6411 31.4406 25.6218 30.5046C25.621 30.4583 25.6214 30.4208 25.6222 30.3915C25.634 30.3848 25.6459 30.3781 25.6589 30.3707C25.7398 30.3235 25.8303 30.2701 25.9331 30.2037C26.5881 29.7754 27.1712 29.3817 27.6785 28.9003C27.7542 28.8287 27.8347 28.7541 27.9182 28.6766C28.7153 27.9403 29.8075 26.9316 29.7051 25.6097C29.6628 25.0516 29.3882 24.6341 28.9688 24.4218C29.1069 23.0354 29.0898 20.7011 29.0516 18.0607C29.0397 17.2305 29.0293 16.5135 29.0397 16.2326C29.0627 15.6466 29.2943 14.776 29.3618 14.6213C29.6635 14.0442 30.0736 13.6916 30.5078 13.3179L30.8054 13.0585C31.4036 12.5312 32.0019 12.0038 32.596 11.4728C33.7943 10.4029 34.8089 9.24094 35.7118 7.8979C36.1249 7.28261 36.6396 6.51701 36.7186 5.60929C36.7858 4.82328 36.3928 3.68695 35.6406 3.22344ZM13.5938 33.9366C13.3207 33.8205 12.9678 33.6843 12.5113 33.5091C12.2326 33.4019 11.9973 33.3124 11.912 33.2735L11.6355 33.1477C8.03093 31.5148 6.98664 30.7997 6.68715 30.5124C7.05455 27.0452 7.35292 20.6365 5.52781 14.9935C5.26173 14.1692 4.82271 13.4738 4.39853 12.801C4.15843 12.4206 3.93205 12.0614 3.7439 11.6917C3.06292 10.355 2.56192 8.96187 2.25502 7.55055C2.07689 6.7304 1.9611 5.88465 1.911 5.03407C1.88911 4.67743 1.89245 4.39131 1.98077 4.15529C2.02901 4.0254 2.06687 3.99163 2.07577 3.99348C2.16855 3.98384 2.20232 3.99757 2.20195 3.99757C2.20566 4.00016 2.22051 4.01464 2.2398 4.04952C2.69144 4.85668 3.04139 5.70837 3.41176 6.61053L3.64704 7.18055C4.43564 9.07431 5.4291 11.023 7.34216 12.4462C9.69238 14.1952 12.4408 14.8851 14.8185 15.3293C15.845 15.5216 16.6447 15.6333 17.411 15.6923L17.4689 15.6967C17.8931 15.729 18.0916 15.7594 18.1425 15.8489C18.161 15.889 18.1703 15.948 18.1729 16.0144C18.1722 16.0214 18.1733 16.0289 18.1733 16.0355C18.1766 16.2489 18.1106 16.5354 18.0226 16.613C17.3142 17.0873 15.7488 17.1463 14.7131 17.1849C13.6647 17.2242 13.1437 17.2539 12.7596 17.4925C12.5117 17.6461 12.3484 17.8944 12.2738 18.2314C12.0021 19.4605 12.8698 23.3894 13.9798 25.8543C13.3329 26.2859 13.4335 27.0396 13.4706 27.2964L13.4829 27.3851C13.5497 27.9544 13.8094 28.4791 14.2351 28.9048C14.9432 29.6084 15.7099 30.2074 16.5233 30.7002C15.7388 31.7686 14.4266 33.2453 13.5938 33.9366ZM26.7748 27.4404C26.6857 27.5228 26.5997 27.6022 26.5188 27.679C26.1502 28.029 25.7045 28.3411 25.0121 28.7935C24.9375 28.8421 24.8703 28.8807 24.8105 28.9156C24.2301 29.2533 23.9188 29.6121 23.937 30.5388C23.9555 31.4383 23.9288 32.5877 23.9024 33.6988C23.8932 34.1177 23.8831 34.5286 23.8765 34.9149C22.7145 35.0329 20.8133 35.1075 19.5909 35.1153C19.5657 34.1448 19.5512 33.2983 19.5456 32.496C19.5449 32.4181 19.5505 32.3242 19.5557 32.2214C19.5905 31.5601 19.6551 30.3287 18.6156 29.8875C17.4548 29.3947 16.3805 28.6617 15.4234 27.7117C15.3481 27.6364 15.2887 27.558 15.2449 27.4757C16.9765 28.255 18.9968 29.0109 21.075 29.0109C21.8866 29.0109 22.6681 28.8929 23.3977 28.6602C24.15 28.4205 24.9415 28.006 25.627 27.4927L25.6901 27.4452C26.9144 26.5208 27.6109 26.1675 27.9731 26.0328C27.7935 26.4997 27.196 27.0515 26.7748 27.4404ZM34.2979 6.98164C33.4893 8.18366 32.5656 9.24205 31.4734 10.217C30.8811 10.7458 30.2862 11.2709 29.6906 11.796L29.4078 12.0424C28.9232 12.4596 28.3197 12.9787 27.8688 13.8404C27.6677 14.2242 27.3857 15.3972 27.3556 16.1703C27.3437 16.4957 27.3534 17.163 27.3667 18.0859C27.3912 19.8201 27.4402 23.2146 27.2691 24.5031C26.58 24.7799 25.7305 25.3036 24.6747 26.1011L24.6168 26.1449C24.0787 26.5479 23.4642 26.8711 22.8864 27.0552C22.3219 27.2352 21.7125 27.3261 21.075 27.3261C19.2966 27.3265 17.4778 26.6336 15.9036 25.9237C14.7847 24.0448 13.9297 20.1882 13.8985 18.9124C14.1531 18.8908 14.4971 18.8782 14.7758 18.8678C15.9452 18.824 17.3557 18.7673 18.4327 18.2934C18.5359 19.23 18.6253 20.1255 18.6787 20.6696C17.9736 21.1802 17.5506 21.9851 17.4823 23.0242C17.4196 23.9758 17.7621 24.9499 18.3989 25.6301C18.9868 26.2581 19.7913 26.6039 20.6645 26.6039C20.7514 26.6039 20.8397 26.6006 20.9284 26.5939C22.7309 26.4588 24.0906 25.0508 24.0906 23.3196C24.0906 21.5131 22.6436 20.0431 20.8653 20.0431C20.6734 20.0431 20.4905 20.0565 20.3131 20.0769C20.2062 19.0063 20.0255 17.2676 19.8526 15.9858C19.8414 15.6277 19.7605 15.2885 19.6095 15.022C19.1044 14.1329 18.1974 14.0635 17.5973 14.0178L17.5413 14.0134C16.8373 13.9592 16.0932 13.8545 15.1284 13.6742C14.6771 13.5899 14.2113 13.4957 13.7389 13.3866C14.591 12.9899 15.5559 12.6885 16.3675 12.5271C17.3142 12.3386 18.2928 12.1764 19.2395 12.0194C21.707 11.6108 24.2587 11.1881 26.6757 10.2403C28.4682 9.53783 30.1085 8.50095 31.5506 7.15903C31.9336 6.80239 32.2902 6.42498 32.635 6.05981C32.8161 5.86795 32.9975 5.67571 33.1798 5.49016L33.2974 5.36992C33.447 5.21591 33.5883 5.07081 33.7253 4.96875C34.4222 4.45032 34.6649 4.60024 34.7529 4.65368C34.8805 4.74943 35.062 5.21851 35.0405 5.46492C34.9986 5.93883 34.6345 6.48102 34.2979 6.98164ZM19.1627 23.1348C19.2053 22.4794 19.438 21.7276 20.8649 21.7276C21.7148 21.7276 22.4058 22.4416 22.4058 23.3196C22.4058 24.2875 21.599 24.8549 20.8011 24.9147C20.7547 24.9184 20.7091 24.9202 20.6645 24.9202C20.2507 24.9202 19.9019 24.7718 19.628 24.4793C19.3089 24.1383 19.1304 23.6228 19.1627 23.1348ZM11.2276 10.6263C13.4625 10.6263 15.2805 8.80786 15.2805 6.57305C15.2805 4.33824 13.4625 2.51945 11.2276 2.51945C8.99247 2.51945 7.17404 4.33787 7.17404 6.57268C7.17404 8.80749 8.99247 10.6263 11.2276 10.6263ZM11.2276 4.20353C12.5339 4.20353 13.5964 5.26638 13.5964 6.57268C13.5964 7.87898 12.5336 8.94183 11.2276 8.94183C9.92098 8.94183 8.85813 7.87898 8.85813 6.57268C8.85813 5.26638 9.92098 4.20353 11.2276 4.20353ZM21.982 8.82716C24.3593 8.82716 26.2939 6.89294 26.2939 4.51526C26.2939 2.15205 24.1077 0 21.7081 0C20.5677 0 19.4729 0.493202 18.7047 1.35306C17.9161 2.23592 17.5409 3.42309 17.6756 4.60952C17.951 7.05363 19.7616 8.82716 21.982 8.82716ZM19.9609 2.47528C20.4166 1.96538 21.0368 1.68446 21.7081 1.68446C23.1725 1.68446 24.6094 3.08687 24.6094 4.51526C24.6094 5.96406 23.4308 7.14307 21.982 7.14307C20.3836 7.14307 19.497 5.73212 19.349 4.42063C19.2684 3.70996 19.4915 3.00077 19.9609 2.47528Z" fill="white"/>
</svg>
