<svg width="48" height="48" viewBox="0 0 48 48" fill="none" xmlns="http://www.w3.org/2000/svg">
<rect width="48" height="48" rx="24" fill="#F0F0F0"/>
<path d="M32.1318 23.7621C32.1318 23.4822 32.0199 23.2022 31.7959 22.9783C31.348 22.5304 30.6482 22.5304 30.2004 22.9783L24.014 29.1647L17.7996 22.9783C17.3518 22.5304 16.652 22.5304 16.2041 22.9783C15.7562 23.4262 15.7562 24.126 16.2041 24.5739L23.2022 31.572C23.4262 31.796 23.7061 31.9079 23.986 31.9079C24.2939 31.9079 24.5738 31.796 24.7698 31.572L31.7679 24.5739C32.0199 24.3219 32.1318 24.042 32.1318 23.7621Z" fill="#170307"/>
<path d="M32.1318 17.2117C32.1318 16.9318 32.0199 16.6518 31.7959 16.4279C31.348 15.98 30.6482 15.98 30.2004 16.4279L24.014 22.6422L17.7996 16.4279C17.3518 15.98 16.652 15.98 16.2041 16.4279C15.7562 16.8758 15.7562 17.5756 16.2041 18.0235L23.2022 25.0216C23.4262 25.2455 23.7061 25.3575 23.986 25.3575C24.2939 25.3575 24.5738 25.2455 24.7698 25.0216L31.7679 18.0235C32.0199 17.7995 32.1318 17.4916 32.1318 17.2117Z" fill="#170307"/>
</svg>
