<svg width="22" height="23" viewBox="0 0 22 23" fill="none" xmlns="http://www.w3.org/2000/svg">
<rect x="0.423077" y="1.11058" width="21.1538" height="20.7778" rx="10.3889" stroke="#D70101" stroke-width="0.846154"/>
<path d="M15.9371 7.22139L15.5291 13.819C15.4251 15.5045 15.3731 16.3475 14.9499 16.9537C14.741 17.2532 14.4721 17.506 14.1602 17.696C13.5304 18.0804 12.686 18.0804 10.9973 18.0804C9.30589 18.0804 8.4602 18.0804 7.82907 17.6954C7.51704 17.505 7.24809 17.2517 7.03932 16.9517C6.61681 16.3449 6.56548 15.5005 6.46413 13.8125L6.0653 7.22139M5.07812 7.22139H16.9243M13.6705 7.22139L13.221 6.29476C12.9229 5.67876 12.7735 5.37141 12.5162 5.17924C12.459 5.13667 12.3985 5.09882 12.3352 5.06605C12.0502 4.91797 11.708 4.91797 11.0242 4.91797C10.3227 4.91797 9.9719 4.91797 9.68167 5.07197C9.61752 5.10633 9.55632 5.14595 9.49871 5.19043C9.23876 5.38984 9.09331 5.70903 8.80242 6.34675L8.4036 7.22139" stroke="#D70101" stroke-width="0.846154" stroke-linecap="round" stroke-linejoin="round"/>
</svg>
