<?xml version="1.0" encoding="UTF-8"?>
<svg xmlns="http://www.w3.org/2000/svg" xmlns:xlink="http://www.w3.org/1999/xlink" width="40px" height="40px" viewBox="0 0 40 40" version="1.1">
<g id="surface1">
<path style="fill-rule:nonzero;fill:rgb(100%,100%,100%);fill-opacity:1;stroke-width:2;stroke-linecap:butt;stroke-linejoin:miter;stroke:rgb(59.215689%,58.431375%,57.647061%);stroke-opacity:1;stroke-miterlimit:10;" d="M 67.171875 7.003125 L 27 7.003125 C 25.89375 7.003125 25.003125 7.89375 25.003125 9 L 25.003125 87 C 25.003125 88.10625 25.89375 88.996875 27 88.996875 L 85.003125 88.996875 C 86.1 88.996875 87 88.10625 87 87 L 87 26.83125 C 87 26.296875 86.79375 25.790625 86.41875 25.415625 L 68.5875 7.584375 C 68.2125 7.209375 67.70625 7.003125 67.171875 7.003125 Z M 67.171875 7.003125 " transform="matrix(0.416667,0,0,0.416667,0,0)"/>
<path style="fill:none;stroke-width:2;stroke-linecap:butt;stroke-linejoin:miter;stroke:rgb(59.215689%,58.431375%,57.647061%);stroke-opacity:1;stroke-miterlimit:10;" d="M 67.003125 7.003125 L 67.003125 25.003125 C 67.003125 26.1 67.89375 27 69 27 L 87 27 " transform="matrix(0.416667,0,0,0.416667,0,0)"/>
<path style=" stroke:none;fill-rule:nonzero;fill:rgb(78.431374%,77.64706%,76.862746%);fill-opacity:1;" d="M 32.917969 25.417969 L 20 25.417969 L 20 24.582031 L 32.917969 24.582031 C 33.148438 24.582031 33.332031 24.769531 33.332031 25 C 33.332031 25.230469 33.148438 25.417969 32.917969 25.417969 Z M 32.917969 22.917969 L 20 22.917969 L 20 22.082031 L 32.917969 22.082031 C 33.148438 22.082031 33.332031 22.269531 33.332031 22.5 C 33.332031 22.730469 33.148438 22.917969 32.917969 22.917969 Z M 32.917969 20.417969 L 20 20.417969 L 20 19.582031 L 32.917969 19.582031 C 33.148438 19.582031 33.332031 19.769531 33.332031 20 C 33.332031 20.230469 33.148438 20.417969 32.917969 20.417969 Z M 32.917969 17.917969 L 20 17.917969 L 20 17.082031 L 32.917969 17.082031 C 33.148438 17.082031 33.332031 17.269531 33.332031 17.5 C 33.332031 17.730469 33.148438 17.917969 32.917969 17.917969 Z M 32.917969 27.917969 L 20 27.917969 L 20 27.082031 L 32.917969 27.082031 C 33.148438 27.082031 33.332031 27.269531 33.332031 27.5 C 33.332031 27.730469 33.148438 27.917969 32.917969 27.917969 Z M 32.917969 27.917969 "/>
<path style=" stroke:none;fill-rule:nonzero;fill:rgb(9.411765%,35.294119%,74.117649%);fill-opacity:1;" d="M 5 30.832031 L 18.332031 30.832031 C 19.253906 30.832031 20 30.085938 20 29.167969 L 20 15.832031 C 20 14.914062 19.253906 14.167969 18.332031 14.167969 L 5 14.167969 C 4.078125 14.167969 3.332031 14.914062 3.332031 15.832031 L 3.332031 29.167969 C 3.332031 30.085938 4.078125 30.832031 5 30.832031 Z M 5 30.832031 "/>
<path style=" stroke:none;fill-rule:nonzero;fill:rgb(100%,100%,100%);fill-opacity:1;" d="M 9.011719 25.269531 C 9.039062 25.488281 9.054688 25.675781 9.0625 25.839844 L 9.097656 25.839844 C 9.109375 25.683594 9.132812 25.5 9.167969 25.28125 C 9.203125 25.066406 9.238281 24.882812 9.273438 24.730469 L 10.746094 18.332031 L 12.652344 18.332031 L 14.175781 24.636719 C 14.25 24.949219 14.3125 25.34375 14.363281 25.824219 L 14.390625 25.824219 C 14.410156 25.492188 14.464844 25.109375 14.546875 24.675781 L 15.765625 18.332031 L 17.5 18.332031 L 15.367188 27.5 L 13.34375 27.5 L 11.890625 21.425781 C 11.847656 21.253906 11.800781 21.023438 11.746094 20.742188 C 11.691406 20.460938 11.660156 20.257812 11.648438 20.128906 L 11.621094 20.128906 C 11.605469 20.277344 11.574219 20.5 11.523438 20.792969 C 11.476562 21.089844 11.4375 21.304688 11.40625 21.445312 L 10.042969 27.5 L 7.984375 27.5 L 5.832031 18.332031 L 7.597656 18.332031 L 8.925781 24.746094 C 8.953125 24.878906 8.984375 25.050781 9.011719 25.269531 Z M 9.011719 25.269531 "/>
</g>
</svg>
