<svg width="22" height="22" viewBox="0 0 22 22" fill="none" xmlns="http://www.w3.org/2000/svg">
<rect width="22" height="22" rx="11" fill="#720C20"/>
<path d="M14.4128 7.61873C14.1617 7.36763 13.8211 7.22656 13.466 7.22656C13.1109 7.22656 12.7703 7.36763 12.5192 7.61873L8.04644 12.0915C7.89443 12.2435 7.78756 12.4347 7.73771 12.6438L7.32793 14.366C7.31683 14.4127 7.31788 14.4614 7.33095 14.5075C7.34403 14.5536 7.36871 14.5957 7.40263 14.6295C7.43655 14.6634 7.47859 14.6881 7.52474 14.7011C7.57088 14.7141 7.6196 14.7151 7.66623 14.704L9.38804 14.2938C9.59731 14.244 9.78865 14.1371 9.94078 13.9851L14.4128 9.51306C14.6639 9.26196 14.8049 8.92139 14.8049 8.56627C14.8049 8.21116 14.6639 7.87059 14.4128 7.61948V7.61873ZM12.9159 8.01541C12.9881 7.94317 13.0739 7.88586 13.1683 7.84677C13.2627 7.80767 13.3638 7.78755 13.466 7.78755C13.5682 7.78755 13.6693 7.80767 13.7637 7.84677C13.8581 7.88586 13.9439 7.94317 14.0161 8.01541C14.0883 8.08765 14.1456 8.17342 14.1847 8.2678C14.2238 8.36219 14.244 8.46336 14.244 8.56552C14.244 8.66769 14.2238 8.76885 14.1847 8.86324C14.1456 8.95763 14.0883 9.04339 14.0161 9.11563L13.6823 9.44907L12.5821 8.34922L12.9159 8.01541ZM12.1854 8.74665L13.2856 9.84612L9.54335 13.5884C9.46476 13.667 9.36597 13.722 9.25781 13.7478L7.97946 14.0524L8.2837 12.7741C8.30953 12.6655 8.36491 12.5667 8.4435 12.4882L12.1854 8.7459V8.74665Z" fill="white" stroke="white" stroke-width="0.498976"/>
</svg>
