<svg width="49" height="48" viewBox="0 0 49 48" fill="none" xmlns="http://www.w3.org/2000/svg">
<rect width="48" height="48" rx="24" transform="matrix(1 0 0 -1 0.701172 48)" fill="#F0F0F0"/>
<path d="M32.833 24.2379C32.833 24.5178 32.721 24.7978 32.4971 25.0217C32.0492 25.4696 31.3494 25.4696 30.9015 25.0217L24.7152 18.8353L18.5008 25.0217C18.0529 25.4696 17.3531 25.4696 16.9052 25.0217C16.4574 24.5738 16.4574 23.874 16.9052 23.4261L23.9034 16.428C24.1273 16.204 24.4073 16.0921 24.6872 16.0921C24.9951 16.0921 25.275 16.204 25.471 16.428L32.4691 23.4261C32.721 23.6781 32.833 23.958 32.833 24.2379Z" fill="#170307"/>
<path d="M32.833 30.7883C32.833 31.0682 32.721 31.3482 32.4971 31.5721C32.0492 32.02 31.3494 32.02 30.9015 31.5721L24.7152 25.3577L18.5008 31.5721C18.0529 32.02 17.3531 32.02 16.9052 31.5721C16.4574 31.1242 16.4574 30.4244 16.9052 29.9765L23.9034 22.9784C24.1273 22.7544 24.4073 22.6425 24.6872 22.6425C24.9951 22.6425 25.275 22.7544 25.471 22.9784L32.4691 29.9765C32.721 30.2005 32.833 30.5084 32.833 30.7883Z" fill="#170307"/>
</svg>
