<svg width="49" height="48" viewBox="0 0 49 48" fill="none" xmlns="http://www.w3.org/2000/svg">
<rect x="0.833008" width="48" height="48" rx="24" fill="#E9FFFC"/>
<path d="M30.833 19.16C30.773 19.15 30.703 19.15 30.643 19.16C29.263 19.11 28.163 17.98 28.163 16.58C28.163 15.15 29.313 14 30.743 14C32.173 14 33.323 15.16 33.323 16.58C33.313 17.98 32.213 19.11 30.833 19.16Z" stroke="#0E6D73" stroke-width="1.5" stroke-linecap="round" stroke-linejoin="round"/>
<path d="M29.803 26.4402C31.173 26.6702 32.683 26.4302 33.743 25.7202C35.153 24.7802 35.153 23.2402 33.743 22.3002C32.673 21.5902 31.1429 21.3502 29.7729 21.5902" stroke="#0E6D73" stroke-width="1.5" stroke-linecap="round" stroke-linejoin="round"/>
<path d="M18.803 19.16C18.863 19.15 18.933 19.15 18.993 19.16C20.373 19.11 21.473 17.98 21.473 16.58C21.473 15.15 20.323 14 18.893 14C17.463 14 16.313 15.16 16.313 16.58C16.323 17.98 17.423 19.11 18.803 19.16Z" stroke="#0E6D73" stroke-width="1.5" stroke-linecap="round" stroke-linejoin="round"/>
<path d="M19.8329 26.4402C18.4629 26.6702 16.9529 26.4302 15.8929 25.7202C14.4829 24.7802 14.4829 23.2402 15.8929 22.3002C16.9629 21.5902 18.4929 21.3502 19.8629 21.5902" stroke="#0E6D73" stroke-width="1.5" stroke-linecap="round" stroke-linejoin="round"/>
<path d="M24.833 26.6297C24.773 26.6197 24.703 26.6197 24.643 26.6297C23.263 26.5797 22.163 25.4497 22.163 24.0497C22.163 22.6197 23.313 21.4697 24.743 21.4697C26.173 21.4697 27.323 22.6297 27.323 24.0497C27.313 25.4497 26.213 26.5897 24.833 26.6297Z" stroke="#0E6D73" stroke-width="1.5" stroke-linecap="round" stroke-linejoin="round"/>
<path d="M21.923 29.7794C20.513 30.7194 20.513 32.2594 21.923 33.1994C23.523 34.2694 26.143 34.2694 27.743 33.1994C29.153 32.2594 29.153 30.7194 27.743 29.7794C26.153 28.7194 23.523 28.7194 21.923 29.7794Z" stroke="#0E6D73" stroke-width="1.5" stroke-linecap="round" stroke-linejoin="round"/>
</svg>
