<svg width="49" height="48" viewBox="0 0 49 48" fill="none" xmlns="http://www.w3.org/2000/svg">
<rect x="0.332031" width="48" height="48" rx="24" fill="#802537"/>
<path d="M34.332 33V31C34.332 29.1362 33.0573 27.5701 31.332 27.126M27.832 15.2908C29.2979 15.8841 30.332 17.3213 30.332 19C30.332 20.6787 29.2979 22.1159 27.832 22.7092M29.332 33C29.332 31.1362 29.332 30.2044 29.0275 29.4693C28.6216 28.4892 27.8429 27.7105 26.8628 27.3045C26.1277 27 25.1958 27 23.332 27H20.332C18.4683 27 17.5364 27 16.8013 27.3045C15.8212 27.7105 15.0425 28.4892 14.6365 29.4693C14.332 30.2044 14.332 31.1362 14.332 33M25.832 19C25.832 21.2091 24.0412 23 21.832 23C19.6229 23 17.832 21.2091 17.832 19C17.832 16.7909 19.6229 15 21.832 15C24.0412 15 25.832 16.7909 25.832 19Z" stroke="white" stroke-width="2" stroke-linecap="round" stroke-linejoin="round"/>
</svg>
