<svg width="20" height="17" viewBox="0 0 20 17" fill="none" xmlns="http://www.w3.org/2000/svg">
<path d="M0.448244 3.67471L0.397028 2.56077C0.397028 1.88161 0.666823 1.23027 1.14706 0.750033C1.6273 0.269795 2.27864 0 2.9578 0H7.65938C8.33848 0.000145035 8.98972 0.270035 9.46984 0.750306L10.53 1.81047C11.0101 2.29074 11.6614 2.56063 12.3405 2.56077H17.439C17.7948 2.56073 18.1468 2.63486 18.4724 2.77843C18.798 2.92199 19.0901 3.13184 19.33 3.39459C19.57 3.65733 19.7526 3.96721 19.8661 4.30446C19.9797 4.6417 20.0217 4.99891 19.9895 5.35329L19.1739 14.316C19.1161 14.9522 18.8225 15.5439 18.3509 15.9748C17.8792 16.4057 17.2635 16.6448 16.6246 16.645H3.37521C2.73634 16.6448 2.12064 16.4057 1.64899 15.9748C1.17733 15.5439 0.883774 14.9522 0.825957 14.316L0.0103515 5.35329C-0.0431211 4.76029 0.11172 4.16718 0.448244 3.67599V3.67471ZM2.56088 3.84116C2.38302 3.84115 2.2071 3.87819 2.04435 3.94994C1.8816 4.02168 1.73558 4.12655 1.6156 4.25785C1.49562 4.38915 1.40431 4.54401 1.3475 4.71256C1.29068 4.8811 1.26961 5.05964 1.28562 5.23678L2.10122 14.1995C2.12997 14.5176 2.27659 14.8135 2.5123 15.0291C2.74801 15.2446 3.05578 15.3643 3.37521 15.3646H16.6246C16.9441 15.3643 17.2518 15.2446 17.4875 15.0291C17.7233 14.8135 17.8699 14.5176 17.8986 14.1995L18.7142 5.23678C18.7302 5.05964 18.7092 4.8811 18.6523 4.71256C18.5955 4.54401 18.5042 4.38915 18.3842 4.25785C18.2643 4.12655 18.1182 4.02168 17.9555 3.94994C17.7927 3.87819 17.6168 3.84115 17.439 3.84116H2.56088ZM8.56589 1.65554C8.44687 1.53648 8.30554 1.44207 8.14999 1.37769C7.99444 1.31332 7.82772 1.28025 7.65938 1.28039H2.9578C2.62239 1.28033 2.30036 1.41188 2.06092 1.64676C1.82149 1.88164 1.68379 2.2011 1.67741 2.53644L1.6851 2.71442C1.96081 2.61284 2.25273 2.56163 2.56088 2.56077H9.46984L8.56589 1.65554Z" fill="black"/>
</svg>
