<svg width="19" height="14" viewBox="0 0 19 14" fill="none" xmlns="http://www.w3.org/2000/svg">
<path d="M1.39177 7.59562C1.27828 7.41592 1.22154 7.32607 1.18977 7.18748C1.16591 7.08339 1.16591 6.91922 1.18977 6.81512C1.22154 6.67654 1.27828 6.58669 1.39177 6.40699C2.32961 4.922 5.12117 1.16797 9.37534 1.16797C13.6295 1.16797 16.4211 4.922 17.3589 6.40699C17.4724 6.58669 17.5291 6.67654 17.5609 6.81512C17.5848 6.91922 17.5848 7.08339 17.5609 7.18748C17.5291 7.32607 17.4724 7.41592 17.3589 7.59562C16.4211 9.0806 13.6295 12.8346 9.37534 12.8346C5.12117 12.8346 2.32961 9.0806 1.39177 7.59562Z" stroke="#5E5E5E" stroke-width="1.66667" stroke-linecap="round" stroke-linejoin="round"/>
<path d="M9.37534 9.5013C10.756 9.5013 11.8753 8.38201 11.8753 7.0013C11.8753 5.62059 10.756 4.5013 9.37534 4.5013C7.99462 4.5013 6.87534 5.62059 6.87534 7.0013C6.87534 8.38201 7.99462 9.5013 9.37534 9.5013Z" stroke="#5E5E5E" stroke-width="1.66667" stroke-linecap="round" stroke-linejoin="round"/>
</svg>
