<svg width="49" height="48" viewBox="0 0 49 48" fill="none" xmlns="http://www.w3.org/2000/svg">
<rect x="0.667969" width="48" height="48" rx="24" fill="#802537"/>
<path d="M27.668 16.6C27.668 16.0399 27.668 15.7599 27.559 15.546C27.4631 15.3578 27.3101 15.2049 27.122 15.109C26.908 15 26.628 15 26.068 15H23.268C22.7079 15 22.4279 15 22.214 15.109C22.0258 15.2049 21.8728 15.3578 21.777 15.546C21.668 15.7599 21.668 16.0399 21.668 16.6V19.4C21.668 19.9601 21.668 20.2401 21.559 20.454C21.4631 20.6422 21.3101 20.7951 21.122 20.891C20.908 21 20.628 21 20.068 21H17.268C16.7079 21 16.4279 21 16.214 21.109C16.0258 21.2049 15.8728 21.3578 15.777 21.546C15.668 21.7599 15.668 22.0399 15.668 22.6V25.4C15.668 25.9601 15.668 26.2401 15.777 26.454C15.8728 26.6422 16.0258 26.7951 16.214 26.891C16.4279 27 16.7079 27 17.268 27H20.068C20.628 27 20.908 27 21.122 27.109C21.3101 27.2049 21.4631 27.3578 21.559 27.546C21.668 27.7599 21.668 28.0399 21.668 28.6V31.4C21.668 31.9601 21.668 32.2401 21.777 32.454C21.8728 32.6422 22.0258 32.7951 22.214 32.891C22.4279 33 22.7079 33 23.268 33H26.068C26.628 33 26.908 33 27.122 32.891C27.3101 32.7951 27.4631 32.6422 27.559 32.454C27.668 32.2401 27.668 31.9601 27.668 31.4V28.6C27.668 28.0399 27.668 27.7599 27.777 27.546C27.8728 27.3578 28.0258 27.2049 28.214 27.109C28.4279 27 28.7079 27 29.268 27H32.068C32.628 27 32.908 27 33.122 26.891C33.3101 26.7951 33.4631 26.6422 33.559 26.454C33.668 26.2401 33.668 25.9601 33.668 25.4V22.6C33.668 22.0399 33.668 21.7599 33.559 21.546C33.4631 21.3578 33.3101 21.2049 33.122 21.109C32.908 21 32.628 21 32.068 21L29.268 21C28.7079 21 28.4279 21 28.214 20.891C28.0258 20.7951 27.8728 20.6422 27.777 20.454C27.668 20.2401 27.668 19.9601 27.668 19.4V16.6Z" stroke="white" stroke-width="2" stroke-linecap="round" stroke-linejoin="round"/>
</svg>
