<svg width="42" height="42" viewBox="0 0 42 42" fill="none" xmlns="http://www.w3.org/2000/svg">
<rect x="0.646154" y="0.646154" width="40.7077" height="40.7077" rx="20.3538" fill="#E3CED2"/>
<rect x="0.646154" y="0.646154" width="40.7077" height="40.7077" rx="20.3538" stroke="#AA6D79" stroke-width="1.29231"/>
<path d="M23.7257 31.3767H18.5182C18.0579 31.3767 17.6164 31.1939 17.2908 30.8683C16.9653 30.5428 16.7824 30.1013 16.7824 29.6409V25.3014H12.4429C11.9825 25.3014 11.541 25.1185 11.2154 24.793C10.8899 24.4674 10.707 24.0259 10.707 23.5655V18.3581C10.707 17.8977 10.8899 17.4562 11.2154 17.1307C11.541 16.8051 11.9825 16.6223 12.4429 16.6223H16.7824V12.2827C16.7824 11.8223 16.9653 11.3808 17.2908 11.0553C17.6164 10.7298 18.0579 10.5469 18.5182 10.5469H23.7257C24.1861 10.5469 24.6276 10.7298 24.9531 11.0553C25.2786 11.3808 25.4615 11.8223 25.4615 12.2827V16.6223H29.8011C30.2614 16.6223 30.703 16.8051 31.0285 17.1307C31.354 17.4562 31.5369 17.8977 31.5369 18.3581V23.5655C31.5362 24.0257 31.3531 24.4668 31.0277 24.7922C30.7024 25.1176 30.2612 25.3007 29.8011 25.3014H25.4615V29.6409C25.4608 30.1011 25.2777 30.5422 24.9524 30.8676C24.627 31.193 24.1859 31.3761 23.7257 31.3767ZM12.4429 18.3581V23.5655H18.5182V29.6409H23.7257V23.5655H29.8011V18.3581H23.7257V12.2827H18.5182V18.3581H12.4429Z" fill="#812537" stroke="#812537" stroke-width="0.189362"/>
</svg>
