<svg width="49" height="48" viewBox="0 0 49 48" fill="none" xmlns="http://www.w3.org/2000/svg">
<rect x="0.833008" width="48" height="48" rx="24" fill="#E9F3FF"/>
<path d="M27.833 16.6C27.833 16.0399 27.833 15.7599 27.724 15.546C27.6281 15.3578 27.4752 15.2049 27.287 15.109C27.0731 15 26.7931 15 26.233 15H23.433C22.873 15 22.5929 15 22.379 15.109C22.1909 15.2049 22.0379 15.3578 21.942 15.546C21.833 15.7599 21.833 16.0399 21.833 16.6V19.4C21.833 19.9601 21.833 20.2401 21.724 20.454C21.6281 20.6422 21.4752 20.7951 21.287 20.891C21.0731 21 20.7931 21 20.233 21H17.433C16.873 21 16.5929 21 16.379 21.109C16.1909 21.2049 16.0379 21.3578 15.942 21.546C15.833 21.7599 15.833 22.0399 15.833 22.6V25.4C15.833 25.9601 15.833 26.2401 15.942 26.454C16.0379 26.6422 16.1909 26.7951 16.379 26.891C16.5929 27 16.873 27 17.433 27H20.233C20.7931 27 21.0731 27 21.287 27.109C21.4752 27.2049 21.6281 27.3578 21.724 27.546C21.833 27.7599 21.833 28.0399 21.833 28.6V31.4C21.833 31.9601 21.833 32.2401 21.942 32.454C22.0379 32.6422 22.1909 32.7951 22.379 32.891C22.5929 33 22.873 33 23.433 33H26.233C26.7931 33 27.0731 33 27.287 32.891C27.4752 32.7951 27.6281 32.6422 27.724 32.454C27.833 32.2401 27.833 31.9601 27.833 31.4V28.6C27.833 28.0399 27.833 27.7599 27.942 27.546C28.0379 27.3578 28.1909 27.2049 28.379 27.109C28.5929 27 28.873 27 29.433 27H32.233C32.7931 27 33.0731 27 33.287 26.891C33.4752 26.7951 33.6281 26.6422 33.724 26.454C33.833 26.2401 33.833 25.9601 33.833 25.4V22.6C33.833 22.0399 33.833 21.7599 33.724 21.546C33.6281 21.3578 33.4752 21.2049 33.287 21.109C33.0731 21 32.7931 21 32.233 21L29.433 21C28.873 21 28.5929 21 28.379 20.891C28.1909 20.7951 28.0379 20.6422 27.942 20.454C27.833 20.2401 27.833 19.9601 27.833 19.4V16.6Z" stroke="#0D2972" stroke-width="2" stroke-linecap="round" stroke-linejoin="round"/>
</svg>
