<svg width="42" height="42" viewBox="0 0 42 42" fill="none" xmlns="http://www.w3.org/2000/svg">
<path d="M0.646154 21C0.646154 9.75888 9.75888 0.646154 21 0.646154C32.2411 0.646154 41.3538 9.75888 41.3538 21C41.3538 32.2411 32.2411 41.3538 21 41.3538C9.75888 41.3538 0.646154 32.2411 0.646154 21Z" fill="#D1D1D1"/>
<path d="M0.646154 21C0.646154 9.75888 9.75888 0.646154 21 0.646154C32.2411 0.646154 41.3538 9.75888 41.3538 21C41.3538 32.2411 32.2411 41.3538 21 41.3538C9.75888 41.3538 0.646154 32.2411 0.646154 21Z" stroke="#C2C2C2" stroke-width="1.29231"/>
<path d="M0.646154 21C0.646154 9.75888 9.75888 0.646154 21 0.646154C32.2411 0.646154 41.3538 9.75888 41.3538 21C41.3538 32.2411 32.2411 41.3538 21 41.3538C9.75888 41.3538 0.646154 32.2411 0.646154 21Z" fill="#D1D1D1"/>
<path d="M0.646154 21C0.646154 9.75888 9.75888 0.646154 21 0.646154C32.2411 0.646154 41.3538 9.75888 41.3538 21C41.3538 32.2411 32.2411 41.3538 21 41.3538C9.75888 41.3538 0.646154 32.2411 0.646154 21Z" stroke="#C2C2C2" stroke-width="1.29231"/>
<path d="M23.7257 31.378H18.5182C18.0579 31.378 17.6164 31.1951 17.2908 30.8696C16.9653 30.544 16.7824 30.1025 16.7824 29.6421V25.3026H12.4429C11.9825 25.3026 11.541 25.1197 11.2154 24.7942C10.8899 24.4686 10.707 24.0271 10.707 23.5668V18.3593C10.707 17.8989 10.8899 17.4574 11.2154 17.1319C11.541 16.8064 11.9825 16.6235 12.4429 16.6235H16.7824V12.2839C16.7824 11.8235 16.9653 11.382 17.2908 11.0565C17.6164 10.731 18.0579 10.5481 18.5182 10.5481H23.7257C24.1861 10.5481 24.6276 10.731 24.9531 11.0565C25.2786 11.382 25.4615 11.8235 25.4615 12.2839V16.6235H29.8011C30.2614 16.6235 30.703 16.8064 31.0285 17.1319C31.354 17.4574 31.5369 17.8989 31.5369 18.3593V23.5668C31.5362 24.0269 31.3531 24.468 31.0277 24.7934C30.7024 25.1188 30.2612 25.3019 29.8011 25.3026H25.4615V29.6421C25.4608 30.1023 25.2777 30.5434 24.9524 30.8688C24.627 31.1942 24.1859 31.3773 23.7257 31.378ZM12.4429 18.3593V23.5668H18.5182V29.6421H23.7257V23.5668H29.8011V18.3593H23.7257V12.2839H18.5182V18.3593H12.4429Z" fill="#A8A8A8" stroke="#A8A8A8" stroke-width="0.189362"/>
</svg>
