<svg width="48" height="48" viewBox="0 0 48 48" fill="none" xmlns="http://www.w3.org/2000/svg">
<rect width="48" height="48" rx="24" fill="#E3CFD3"/>
<path d="M24.9823 14.764C24.631 14.4908 24.4553 14.3541 24.2613 14.3016C24.0902 14.2553 23.9098 14.2553 23.7387 14.3016C23.5447 14.3541 23.369 14.4908 23.0177 14.764L16.2354 20.0391C15.782 20.3918 15.5553 20.5681 15.392 20.7889C15.2474 20.9845 15.1396 21.2048 15.074 21.4391C15 21.7035 15 21.9907 15 22.5651V29.8C15 30.9201 15 31.4802 15.218 31.908C15.4097 32.2843 15.7157 32.5903 16.092 32.782C16.5198 33 17.0799 33 18.2 33H20.2C20.48 33 20.62 33 20.727 32.9455C20.8211 32.8976 20.8976 32.8211 20.9455 32.727C21 32.62 21 32.48 21 32.2V25.6C21 25.0399 21 24.7599 21.109 24.546C21.2049 24.3578 21.3578 24.2049 21.546 24.109C21.7599 24 22.0399 24 22.6 24H25.4C25.9601 24 26.2401 24 26.454 24.109C26.6422 24.2049 26.7951 24.3578 26.891 24.546C27 24.7599 27 25.0399 27 25.6V32.2C27 32.48 27 32.62 27.0545 32.727C27.1024 32.8211 27.1789 32.8976 27.273 32.9455C27.38 33 27.52 33 27.8 33H29.8C30.9201 33 31.4802 33 31.908 32.782C32.2843 32.5903 32.5903 32.2843 32.782 31.908C33 31.4802 33 30.9201 33 29.8V22.5651C33 21.9907 33 21.7035 32.926 21.4391C32.8604 21.2048 32.7526 20.9845 32.608 20.7889C32.4447 20.5681 32.218 20.3918 31.7646 20.0391L24.9823 14.764Z" stroke="#720D21" stroke-width="2" stroke-linecap="round" stroke-linejoin="round"/>
</svg>
