<svg width="49" height="48" viewBox="0 0 49 48" fill="none" xmlns="http://www.w3.org/2000/svg">
<rect x="0.833008" width="48" height="48" rx="24" fill="#F1FFE9"/>
<path d="M25.8153 14.7638C25.464 14.4905 25.2883 14.3539 25.0944 14.3014C24.9232 14.255 24.7428 14.255 24.5717 14.3014C24.3777 14.3539 24.202 14.4905 23.8507 14.7638L17.0684 20.0389C16.615 20.3915 16.3883 20.5678 16.225 20.7886C16.0804 20.9842 15.9726 21.2045 15.907 21.4388C15.833 21.7033 15.833 21.9905 15.833 22.5648V29.7997C15.833 30.9198 15.833 31.4799 16.051 31.9077C16.2427 32.284 16.5487 32.59 16.925 32.7818C17.3529 32.9997 17.9129 32.9997 19.033 32.9997H21.033C21.313 32.9997 21.453 32.9997 21.56 32.9452C21.6541 32.8973 21.7306 32.8208 21.7785 32.7267C21.833 32.6198 21.833 32.4798 21.833 32.1997V25.5997C21.833 25.0397 21.833 24.7597 21.942 24.5457C22.0379 24.3576 22.1909 24.2046 22.379 24.1087C22.5929 23.9997 22.873 23.9997 23.433 23.9997H26.233C26.7931 23.9997 27.0731 23.9997 27.287 24.1087C27.4752 24.2046 27.6281 24.3576 27.724 24.5457C27.833 24.7597 27.833 25.0397 27.833 25.5997V32.1997C27.833 32.4798 27.833 32.6198 27.8875 32.7267C27.9354 32.8208 28.0119 32.8973 28.106 32.9452C28.213 32.9997 28.353 32.9997 28.633 32.9997H30.633C31.7531 32.9997 32.3132 32.9997 32.741 32.7818C33.1173 32.59 33.4233 32.284 33.615 31.9077C33.833 31.4799 33.833 30.9198 33.833 29.7997V22.5648C33.833 21.9905 33.833 21.7033 33.759 21.4388C33.6934 21.2045 33.5856 20.9842 33.441 20.7886C33.2777 20.5678 33.051 20.3915 32.5976 20.0389L25.8153 14.7638Z" stroke="#0D7223" stroke-width="2" stroke-linecap="round" stroke-linejoin="round"/>
</svg>
