<svg width="48" height="48" viewBox="0 0 48 48" fill="none" xmlns="http://www.w3.org/2000/svg">
<rect width="48" height="48" rx="24" fill="#802537"/>
<path d="M24.9823 14.7647C24.631 14.4915 24.4553 14.3549 24.2613 14.3023C24.0902 14.256 23.9098 14.256 23.7387 14.3023C23.5447 14.3549 23.369 14.4915 23.0177 14.7647L16.2354 20.0399C15.782 20.3925 15.5553 20.5688 15.392 20.7896C15.2474 20.9852 15.1396 21.2055 15.074 21.4398C15 21.7043 15 21.9914 15 22.5658V29.8007C15 30.9208 15 31.4809 15.218 31.9087C15.4097 32.285 15.7157 32.591 16.092 32.7827C16.5198 33.0007 17.0799 33.0007 18.2 33.0007H20.2C20.48 33.0007 20.62 33.0007 20.727 32.9462C20.8211 32.8983 20.8976 32.8218 20.9455 32.7277C21 32.6208 21 32.4807 21 32.2007V25.6007C21 25.0407 21 24.7606 21.109 24.5467C21.2049 24.3586 21.3578 24.2056 21.546 24.1097C21.7599 24.0007 22.0399 24.0007 22.6 24.0007H25.4C25.9601 24.0007 26.2401 24.0007 26.454 24.1097C26.6422 24.2056 26.7951 24.3586 26.891 24.5467C27 24.7606 27 25.0407 27 25.6007V32.2007C27 32.4807 27 32.6208 27.0545 32.7277C27.1024 32.8218 27.1789 32.8983 27.273 32.9462C27.38 33.0007 27.52 33.0007 27.8 33.0007H29.8C30.9201 33.0007 31.4802 33.0007 31.908 32.7827C32.2843 32.591 32.5903 32.285 32.782 31.9087C33 31.4809 33 30.9208 33 29.8007V22.5658C33 21.9914 33 21.7043 32.926 21.4398C32.8604 21.2055 32.7526 20.9852 32.608 20.7896C32.4447 20.5688 32.218 20.3925 31.7646 20.0399L24.9823 14.7647Z" stroke="white" stroke-width="2" stroke-linecap="round" stroke-linejoin="round"/>
</svg>
