<svg width="18" height="18" viewBox="0 0 18 18" fill="none" xmlns="http://www.w3.org/2000/svg">
<path d="M8.09961 8.08161C8.09961 7.84291 8.19443 7.61399 8.36321 7.44521C8.532 7.27643 8.76091 7.18161 8.99961 7.18161C9.2383 7.18161 9.46722 7.27643 9.63601 7.44521C9.80479 7.61399 9.89961 7.84291 9.89961 8.08161V13.4816C9.89961 13.7203 9.80479 13.9492 9.63601 14.118C9.46722 14.2868 9.2383 14.3816 8.99961 14.3816C8.76091 14.3816 8.532 14.2868 8.36321 14.118C8.19443 13.9492 8.09961 13.7203 8.09961 13.4816V8.08161ZM8.99961 3.64551C8.76091 3.64551 8.532 3.74033 8.36321 3.90911C8.19443 4.07789 8.09961 4.30681 8.09961 4.54551C8.09961 4.7842 8.19443 5.01312 8.36321 5.1819C8.532 5.35069 8.76091 5.44551 8.99961 5.44551C9.2383 5.44551 9.46722 5.35069 9.63601 5.1819C9.80479 5.01312 9.89961 4.7842 9.89961 4.54551C9.89961 4.30681 9.80479 4.07789 9.63601 3.90911C9.46722 3.74033 9.2383 3.64551 8.99961 3.64551Z" fill="#5E5E5E"/>
<path fill-rule="evenodd" clip-rule="evenodd" d="M9 0C4.0293 0 0 4.0293 0 9C0 13.9707 4.0293 18 9 18C13.9707 18 18 13.9707 18 9C18 4.0293 13.9707 0 9 0ZM1.8 9C1.8 10.9096 2.55857 12.7409 3.90883 14.0912C5.25909 15.4414 7.09044 16.2 9 16.2C10.9096 16.2 12.7409 15.4414 14.0912 14.0912C15.4414 12.7409 16.2 10.9096 16.2 9C16.2 7.09044 15.4414 5.25909 14.0912 3.90883C12.7409 2.55857 10.9096 1.8 9 1.8C7.09044 1.8 5.25909 2.55857 3.90883 3.90883C2.55857 5.25909 1.8 7.09044 1.8 9Z" fill="#5E5E5E"/>
</svg>
