<svg width="42" height="42" viewBox="0 0 42 42" fill="none" xmlns="http://www.w3.org/2000/svg">
<path d="M0.646154 21C0.646154 9.75888 9.75888 0.646154 21 0.646154C32.2411 0.646154 41.3538 9.75888 41.3538 21C41.3538 32.2411 32.2411 41.3538 21 41.3538C9.75888 41.3538 0.646154 32.2411 0.646154 21Z" fill="#D1D1D1"/>
<path d="M0.646154 21C0.646154 9.75888 9.75888 0.646154 21 0.646154C32.2411 0.646154 41.3538 9.75888 41.3538 21C41.3538 32.2411 32.2411 41.3538 21 41.3538C9.75888 41.3538 0.646154 32.2411 0.646154 21Z" stroke="#C2C2C2" stroke-width="1.29231"/>
<path d="M30.8452 15.2273H11.1548C10.5176 15.2273 10 14.7097 10 14.0726C10 13.4355 10.5176 12.9178 11.1548 12.9178H30.8452C31.4824 12.9178 32 13.4355 32 14.0726C32 14.7097 31.4824 15.2273 30.8452 15.2273ZM11.1548 13.4156C10.7914 13.4156 10.4977 13.7092 10.4977 14.0726C10.4977 14.4359 10.7914 14.7296 11.1548 14.7296H30.8452C31.2086 14.7296 31.5023 14.4359 31.5023 14.0726C31.5023 13.7092 31.2086 13.4156 30.8452 13.4156H11.1548Z" fill="#A8A8A8" stroke="#A8A8A8" stroke-width="0.5"/>
<path d="M28.6682 28.8211H13.313C12.3076 28.8211 11.4863 28.0049 11.4863 26.9994V14.984C11.4863 14.8447 11.5958 14.7352 11.7352 14.7352C11.8746 14.7352 11.9841 14.8447 11.9841 14.984V26.9944C11.9841 27.7261 12.5764 28.3184 13.313 28.3184H28.6732C29.4049 28.3184 29.9972 27.7211 29.9972 26.9944V14.984C29.9972 14.8447 30.1067 14.7352 30.2461 14.7352C30.3854 14.7352 30.4949 14.8447 30.4949 14.984V26.9944C30.4949 28.0049 29.6786 28.8211 28.6682 28.8211Z" fill="#A8A8A8" stroke="#A8A8A8" stroke-width="0.5"/>
<path d="M15.2967 19.2592H13.7487C13.3057 19.2592 12.9424 18.8959 12.9424 18.4529V16.9049C12.9424 16.4619 13.3057 16.0986 13.7487 16.0986H15.2967C15.7397 16.0986 16.103 16.4619 16.103 16.9049V18.4529C16.103 18.8959 15.7397 19.2592 15.2967 19.2592ZM13.7487 16.5963C13.5795 16.5963 13.4401 16.7357 13.4401 16.9049V18.4529C13.4401 18.6221 13.5795 18.7615 13.7487 18.7615H15.2967C15.4659 18.7615 15.6053 18.6221 15.6053 18.4529V16.9049C15.6053 16.7357 15.4659 16.5963 15.2967 16.5963H13.7487Z" fill="#A8A8A8" stroke="#A8A8A8" stroke-width="0.5"/>
<path d="M15.2967 23.3557H13.7487C13.3057 23.3557 12.9424 22.9924 12.9424 22.5494V21.0014C12.9424 20.5584 13.3057 20.1951 13.7487 20.1951H15.2967C15.7397 20.1951 16.103 20.5584 16.103 21.0014V22.5494C16.103 22.9924 15.7397 23.3557 15.2967 23.3557ZM13.7487 20.6928C13.5795 20.6928 13.4401 20.8322 13.4401 21.0014V22.5494C13.4401 22.7186 13.5795 22.858 13.7487 22.858H15.2967C15.4659 22.858 15.6053 22.7186 15.6053 22.5494V21.0014C15.6053 20.8322 15.4659 20.6928 15.2967 20.6928H13.7487Z" fill="#A8A8A8" stroke="#A8A8A8" stroke-width="0.5"/>
<path d="M15.2967 27.4506H13.7487C13.3057 27.4506 12.9424 27.0872 12.9424 26.6442V25.1013C12.9424 24.6583 13.3057 24.2949 13.7487 24.2949H15.2967C15.7397 24.2949 16.103 24.6583 16.103 25.1013V26.6442C16.103 27.0872 15.7397 27.4506 15.2967 27.4506ZM13.7487 24.7877C13.5795 24.7877 13.4401 24.927 13.4401 25.0963V26.6442C13.4401 26.8135 13.5795 26.9528 13.7487 26.9528H15.2967C15.4659 26.9528 15.6053 26.8135 15.6053 26.6442V25.1013C15.6053 24.932 15.4659 24.7927 15.2967 24.7927L13.7487 24.7877Z" fill="#A8A8A8" stroke="#A8A8A8" stroke-width="0.5"/>
<path d="M28.7824 17.0167H17.4041C17.2648 17.0167 17.1553 16.9072 17.1553 16.7679C17.1553 16.6285 17.2648 16.519 17.4041 16.519H28.7874C28.9268 16.519 29.0363 16.6285 29.0363 16.7679C29.0313 16.9072 28.9218 17.0167 28.7824 17.0167Z" fill="#A8A8A8" stroke="#A8A8A8" stroke-width="0.5"/>
<path d="M27.5314 18.7159H18.6717C18.5324 18.7159 18.4229 18.6064 18.4229 18.467C18.4229 18.3276 18.5324 18.2181 18.6717 18.2181H27.5314C27.6708 18.2181 27.7803 18.3276 27.7803 18.467C27.7803 18.6064 27.6708 18.7159 27.5314 18.7159Z" fill="#A8A8A8" stroke="#A8A8A8" stroke-width="0.5"/>
<path d="M28.7824 21.1762H17.4041C17.2648 21.1762 17.1553 21.0667 17.1553 20.9273C17.1553 20.788 17.2648 20.6785 17.4041 20.6785H28.7874C28.9268 20.6785 29.0363 20.788 29.0363 20.9273C29.0363 21.0667 28.9218 21.1762 28.7824 21.1762Z" fill="#A8A8A8" stroke="#A8A8A8" stroke-width="0.5"/>
<path d="M27.5314 22.8645H18.6717C18.5324 22.8645 18.4229 22.755 18.4229 22.6156C18.4229 22.4763 18.5324 22.3668 18.6717 22.3668H27.5314C27.6708 22.3668 27.7803 22.4763 27.7803 22.6156C27.7803 22.755 27.6708 22.8645 27.5314 22.8645Z" fill="#A8A8A8" stroke="#A8A8A8" stroke-width="0.5"/>
<path d="M28.7824 25.2701H17.4041C17.2648 25.2701 17.1553 25.1606 17.1553 25.0213C17.1553 24.8819 17.2648 24.7724 17.4041 24.7724H28.7874C28.9268 24.7724 29.0363 24.8819 29.0363 25.0213C29.0363 25.1606 28.9218 25.2701 28.7824 25.2701Z" fill="#A8A8A8" stroke="#A8A8A8" stroke-width="0.5"/>
<path d="M27.5314 26.9639H18.6717C18.5324 26.9639 18.4229 26.8544 18.4229 26.7151C18.4229 26.5757 18.5324 26.4662 18.6717 26.4662H27.5314C27.6708 26.4662 27.7803 26.5757 27.7803 26.7151C27.7803 26.8544 27.6708 26.9639 27.5314 26.9639Z" fill="#A8A8A8" stroke="#A8A8A8" stroke-width="0.5"/>
<path d="M20.9979 30.5304C20.8585 30.5304 20.749 30.4209 20.749 30.2815V28.5693C20.749 28.4299 20.8585 28.3204 20.9979 28.3204C21.1373 28.3204 21.2468 28.4299 21.2468 28.5693V30.2815C21.2468 30.4209 21.1323 30.5304 20.9979 30.5304Z" fill="#A8A8A8" stroke="#A8A8A8" stroke-width="0.5"/>
<path d="M20.9995 33.1696C20.1335 33.1696 19.4316 32.4678 19.4316 31.6017C19.4316 30.7357 20.1335 30.0339 20.9995 30.0339C21.8656 30.0339 22.5674 30.7357 22.5674 31.6017C22.5674 32.4678 21.8606 33.1696 20.9995 33.1696ZM20.9995 30.5316C20.4072 30.5316 19.9294 31.0094 19.9294 31.6017C19.9294 32.1941 20.4072 32.6719 20.9995 32.6719C21.5918 32.6719 22.0696 32.1941 22.0696 31.6017C22.0696 31.0094 21.5868 30.5316 20.9995 30.5316Z" fill="#A8A8A8" stroke="#A8A8A8" stroke-width="0.5"/>
</svg>
