<svg width="42" height="42" viewBox="0 0 42 42" fill="none" xmlns="http://www.w3.org/2000/svg">
<rect x="0.646154" y="0.646154" width="40.7077" height="40.7077" rx="20.3538" fill="#E3CED2"/>
<rect x="0.646154" y="0.646154" width="40.7077" height="40.7077" rx="20.3538" stroke="#AA6D79" stroke-width="1.29231"/>
<path d="M30.8452 15.2236H11.1548C10.5176 15.2236 10 14.7059 10 14.0688C10 13.4317 10.5176 12.9141 11.1548 12.9141H30.8452C31.4824 12.9141 32 13.4317 32 14.0688C32 14.7059 31.4824 15.2236 30.8452 15.2236ZM11.1548 13.4118C10.7914 13.4118 10.4977 13.7055 10.4977 14.0688C10.4977 14.4322 10.7914 14.7258 11.1548 14.7258H30.8452C31.2086 14.7258 31.5023 14.4322 31.5023 14.0688C31.5023 13.7055 31.2086 13.4118 30.8452 13.4118H11.1548Z" fill="#812537" stroke="#812537" stroke-width="0.5"/>
<path d="M28.6682 28.8203H13.313C12.3076 28.8203 11.4863 28.0041 11.4863 26.9986V14.9832C11.4863 14.8439 11.5958 14.7344 11.7352 14.7344C11.8746 14.7344 11.9841 14.8439 11.9841 14.9832V26.9937C11.9841 27.7253 12.5764 28.3176 13.313 28.3176H28.6732C29.4049 28.3176 29.9972 27.7203 29.9972 26.9937V14.9832C29.9972 14.8439 30.1067 14.7344 30.2461 14.7344C30.3854 14.7344 30.4949 14.8439 30.4949 14.9832V26.9937C30.4949 28.0041 29.6786 28.8203 28.6682 28.8203Z" fill="#812537" stroke="#812537" stroke-width="0.5"/>
<path d="M15.2967 19.2544H13.7487C13.3057 19.2544 12.9424 18.891 12.9424 18.448V16.9001C12.9424 16.4571 13.3057 16.0938 13.7487 16.0938H15.2967C15.7397 16.0938 16.103 16.4571 16.103 16.9001V18.448C16.103 18.891 15.7397 19.2544 15.2967 19.2544ZM13.7487 16.5915C13.5795 16.5915 13.4401 16.7309 13.4401 16.9001V18.448C13.4401 18.6173 13.5795 18.7566 13.7487 18.7566H15.2967C15.4659 18.7566 15.6053 18.6173 15.6053 18.448V16.9001C15.6053 16.7309 15.4659 16.5915 15.2967 16.5915H13.7487Z" fill="#812537" stroke="#812537" stroke-width="0.5"/>
<path d="M15.2967 23.3481H13.7487C13.3057 23.3481 12.9424 22.9848 12.9424 22.5418V20.9938C12.9424 20.5508 13.3057 20.1875 13.7487 20.1875H15.2967C15.7397 20.1875 16.103 20.5508 16.103 20.9938V22.5418C16.103 22.9848 15.7397 23.3481 15.2967 23.3481ZM13.7487 20.6852C13.5795 20.6852 13.4401 20.8246 13.4401 20.9938V22.5418C13.4401 22.711 13.5795 22.8504 13.7487 22.8504H15.2967C15.4659 22.8504 15.6053 22.711 15.6053 22.5418V20.9938C15.6053 20.8246 15.4659 20.6852 15.2967 20.6852H13.7487Z" fill="#812537" stroke="#812537" stroke-width="0.5"/>
<path d="M15.2967 27.4447H13.7487C13.3057 27.4447 12.9424 27.0814 12.9424 26.6384V25.0954C12.9424 24.6524 13.3057 24.2891 13.7487 24.2891H15.2967C15.7397 24.2891 16.103 24.6524 16.103 25.0954V26.6384C16.103 27.0814 15.7397 27.4447 15.2967 27.4447ZM13.7487 24.7818C13.5795 24.7818 13.4401 24.9212 13.4401 25.0904V26.6384C13.4401 26.8076 13.5795 26.947 13.7487 26.947H15.2967C15.4659 26.947 15.6053 26.8076 15.6053 26.6384V25.0954C15.6053 24.9262 15.4659 24.7868 15.2967 24.7868L13.7487 24.7818Z" fill="#812537" stroke="#812537" stroke-width="0.5"/>
<path d="M28.7824 17.0134H17.4041C17.2648 17.0134 17.1553 16.9039 17.1553 16.7645C17.1553 16.6251 17.2648 16.5156 17.4041 16.5156H28.7874C28.9268 16.5156 29.0363 16.6251 29.0363 16.7645C29.0313 16.9039 28.9218 17.0134 28.7824 17.0134Z" fill="#812537" stroke="#812537" stroke-width="0.5"/>
<path d="M27.5314 18.7087H18.6717C18.5324 18.7087 18.4229 18.5992 18.4229 18.4598C18.4229 18.3204 18.5324 18.2109 18.6717 18.2109H27.5314C27.6708 18.2109 27.7803 18.3204 27.7803 18.4598C27.7803 18.5992 27.6708 18.7087 27.5314 18.7087Z" fill="#812537" stroke="#812537" stroke-width="0.5"/>
<path d="M28.7824 21.1696H17.4041C17.2648 21.1696 17.1553 21.0601 17.1553 20.9207C17.1553 20.7814 17.2648 20.6719 17.4041 20.6719H28.7874C28.9268 20.6719 29.0363 20.7814 29.0363 20.9207C29.0363 21.0601 28.9218 21.1696 28.7824 21.1696Z" fill="#812537" stroke="#812537" stroke-width="0.5"/>
<path d="M27.5314 22.8571H18.6717C18.5324 22.8571 18.4229 22.7476 18.4229 22.6082C18.4229 22.4689 18.5324 22.3594 18.6717 22.3594H27.5314C27.6708 22.3594 27.7803 22.4689 27.7803 22.6082C27.7803 22.7476 27.6708 22.8571 27.5314 22.8571Z" fill="#812537" stroke="#812537" stroke-width="0.5"/>
<path d="M28.7824 25.2634H17.4041C17.2648 25.2634 17.1553 25.1539 17.1553 25.0145C17.1553 24.8751 17.2648 24.7656 17.4041 24.7656H28.7874C28.9268 24.7656 29.0363 24.8751 29.0363 25.0145C29.0363 25.1539 28.9218 25.2634 28.7824 25.2634Z" fill="#812537" stroke="#812537" stroke-width="0.5"/>
<path d="M27.5314 26.9587H18.6717C18.5324 26.9587 18.4229 26.8492 18.4229 26.7098C18.4229 26.5704 18.5324 26.4609 18.6717 26.4609H27.5314C27.6708 26.4609 27.7803 26.5704 27.7803 26.7098C27.7803 26.8492 27.6708 26.9587 27.5314 26.9587Z" fill="#812537" stroke="#812537" stroke-width="0.5"/>
<path d="M20.9979 30.5303C20.8585 30.5303 20.749 30.4208 20.749 30.2814V28.5692C20.749 28.4298 20.8585 28.3203 20.9979 28.3203C21.1373 28.3203 21.2468 28.4298 21.2468 28.5692V30.2814C21.2468 30.4208 21.1323 30.5303 20.9979 30.5303Z" fill="#812537" stroke="#812537" stroke-width="0.5"/>
<path d="M20.9995 33.167C20.1335 33.167 19.4316 32.4652 19.4316 31.5991C19.4316 30.7331 20.1335 30.0312 20.9995 30.0312C21.8656 30.0312 22.5674 30.7331 22.5674 31.5991C22.5674 32.4652 21.8606 33.167 20.9995 33.167ZM20.9995 30.529C20.4072 30.529 19.9294 31.0068 19.9294 31.5991C19.9294 32.1914 20.4072 32.6693 20.9995 32.6693C21.5918 32.6693 22.0696 32.1914 22.0696 31.5991C22.0696 31.0068 21.5868 30.529 20.9995 30.529Z" fill="#812537" stroke="#812537" stroke-width="0.5"/>
</svg>
