<svg width="49" height="48" viewBox="0 0 49 48" fill="none" xmlns="http://www.w3.org/2000/svg">
<rect x="0.332031" width="48" height="48" rx="24" fill="#802537"/>
<path d="M14.332 29V28.8498C14.332 28.5333 14.332 28.3751 14.3562 28.2209C14.3777 28.084 14.4134 27.9497 14.4626 27.8202C14.5181 27.6743 14.5966 27.5369 14.7537 27.2622L18.332 21M14.332 29C14.332 31.2091 16.1229 33 18.332 33C20.5412 33 22.332 31.2091 22.332 29M14.332 29V28.8C14.332 28.52 14.332 28.38 14.3865 28.273C14.4345 28.1789 14.511 28.1024 14.605 28.0545C14.712 28 14.852 28 15.132 28H21.532C21.8121 28 21.9521 28 22.059 28.0545C22.1531 28.1024 22.2296 28.1789 22.2775 28.273C22.332 28.38 22.332 28.52 22.332 28.8V29M18.332 21L21.9104 27.2622C22.0674 27.5369 22.1459 27.6743 22.2014 27.8202C22.2507 27.9497 22.2863 28.084 22.3078 28.2209C22.332 28.3751 22.332 28.5333 22.332 28.8498V29M18.332 21L30.332 19M26.332 27V26.8498C26.332 26.5333 26.332 26.3751 26.3562 26.2209C26.3777 26.084 26.4134 25.9497 26.4626 25.8202C26.5181 25.6743 26.5966 25.5369 26.7537 25.2622L30.332 19M26.332 27C26.332 29.2091 28.1229 31 30.332 31C32.5412 31 34.332 29.2091 34.332 27M26.332 27V26.8C26.332 26.52 26.332 26.38 26.3865 26.273C26.4345 26.1789 26.511 26.1024 26.605 26.0545C26.712 26 26.852 26 27.132 26H33.532C33.8121 26 33.9521 26 34.059 26.0545C34.1531 26.1024 34.2296 26.1789 34.2775 26.273C34.332 26.38 34.332 26.52 34.332 26.8V27M30.332 19L33.9104 25.2622C34.0674 25.5369 34.1459 25.6743 34.2014 25.8202C34.2507 25.9497 34.2863 26.084 34.3078 26.2209C34.332 26.3751 34.332 26.5333 34.332 26.8498V27M24.332 15V20" stroke="white" stroke-width="2" stroke-linecap="round" stroke-linejoin="round"/>
</svg>
