<svg width="49" height="49" viewBox="0 0 49 49" fill="none" xmlns="http://www.w3.org/2000/svg">
<rect x="0.833008" y="0.754883" width="48" height="48" rx="24" fill="#B54708" fill-opacity="0.15"/>
<path d="M14.833 29.7549V29.6047C14.833 29.2882 14.833 29.13 14.8572 28.9758C14.8787 28.8389 14.9144 28.7046 14.9636 28.5751C15.0191 28.4292 15.0976 28.2918 15.2546 28.017L18.833 21.7549M14.833 29.7549C14.833 31.964 16.6239 33.7549 18.833 33.7549C21.0421 33.7549 22.833 31.964 22.833 29.7549M14.833 29.7549V29.5549C14.833 29.2749 14.833 29.1348 14.8875 29.0279C14.9354 28.9338 15.0119 28.8573 15.106 28.8094C15.213 28.7549 15.353 28.7549 15.633 28.7549H22.033C22.313 28.7549 22.453 28.7549 22.56 28.8094C22.6541 28.8573 22.7306 28.9338 22.7785 29.0279C22.833 29.1348 22.833 29.2749 22.833 29.5549V29.7549M18.833 21.7549L22.4114 28.017C22.5684 28.2918 22.6469 28.4292 22.7024 28.5751C22.7516 28.7046 22.7873 28.8389 22.8088 28.9758C22.833 29.13 22.833 29.2882 22.833 29.6047V29.7549M18.833 21.7549L30.833 19.7549M26.833 27.7549V27.6047C26.833 27.2882 26.833 27.13 26.8572 26.9758C26.8787 26.8389 26.9144 26.7046 26.9636 26.5751C27.0191 26.4292 27.0976 26.2918 27.2546 26.017L30.833 19.7549M26.833 27.7549C26.833 29.964 28.6239 31.7549 30.833 31.7549C33.0421 31.7549 34.833 29.964 34.833 27.7549M26.833 27.7549V27.5549C26.833 27.2749 26.833 27.1348 26.8875 27.0279C26.9354 26.9338 27.0119 26.8573 27.106 26.8094C27.213 26.7549 27.353 26.7549 27.633 26.7549H34.033C34.313 26.7549 34.453 26.7549 34.56 26.8094C34.6541 26.8573 34.7306 26.9338 34.7785 27.0279C34.833 27.1348 34.833 27.2749 34.833 27.5549V27.7549M30.833 19.7549L34.4114 26.017C34.5684 26.2918 34.6469 26.4292 34.7024 26.5751C34.7516 26.7046 34.7873 26.8389 34.8088 26.9758C34.833 27.13 34.833 27.2882 34.833 27.6047V27.7549M24.833 15.7549V20.7549" stroke="#B54708" stroke-width="2" stroke-linecap="round" stroke-linejoin="round"/>
</svg>
