<svg width="27" height="32" viewBox="0 0 27 32" fill="none" xmlns="http://www.w3.org/2000/svg">
<g opacity="0.3">
<path opacity="0.3" d="M18.8542 6.56639C18.1162 6.56569 17.4086 6.2758 16.8867 5.76037C16.3649 5.24494 16.0714 4.54608 16.0707 3.81716V0H3.6326C2.66918 0 1.74521 0.378015 1.06397 1.05087C0.382722 1.72372 0 2.63628 0 3.58784V25.2163C0.00143068 26.1669 0.384781 27.0781 1.06587 27.7498C1.74696 28.4215 2.67011 28.7988 3.6326 28.7988H18.564C19.5265 28.7988 20.4496 28.4215 21.1307 27.7498C21.8118 27.0781 22.1951 26.1669 22.1966 25.2163V6.56639H18.8542Z" fill="#FF3E4C"/>
</g>
<path d="M22.1962 6.56639H18.8538C18.1158 6.56568 17.4082 6.27579 16.8864 5.76037C16.3645 5.24494 16.071 4.54608 16.0703 3.81716V0L22.1962 6.56639Z" fill="#FF3E4C"/>
<path d="M17.6302 20.1119H3.69372C3.55946 20.1119 3.4307 20.0592 3.33576 19.9655C3.24083 19.8717 3.1875 19.7445 3.1875 19.6119C3.18786 19.4796 3.24135 19.3527 3.33624 19.2592C3.43114 19.1658 3.55969 19.1133 3.69372 19.1133H17.6302C17.7641 19.1133 17.8925 19.1658 17.9872 19.2593C18.0819 19.3528 18.135 19.4797 18.135 19.6119C18.1352 19.6775 18.1223 19.7425 18.097 19.8032C18.0717 19.8638 18.0346 19.9189 17.9877 19.9654C17.9408 20.0118 17.885 20.0487 17.8237 20.0738C17.7624 20.099 17.6966 20.1119 17.6302 20.1119Z" fill="#FF3E4C"/>
<path d="M17.6302 14.4791H3.69372C3.55969 14.4791 3.43114 14.4266 3.33624 14.3331C3.24135 14.2396 3.18786 14.1128 3.1875 13.9804C3.1875 13.8478 3.24083 13.7206 3.33576 13.6269C3.4307 13.5331 3.55946 13.4805 3.69372 13.4805H17.6302C17.6966 13.4805 17.7624 13.4934 17.8237 13.5186C17.885 13.5437 17.9408 13.5805 17.9877 13.627C18.0346 13.6734 18.0717 13.7286 18.097 13.7892C18.1223 13.8499 18.1352 13.9149 18.135 13.9804C18.135 14.1127 18.0819 14.2395 17.9872 14.333C17.8925 14.4266 17.7641 14.4791 17.6302 14.4791Z" fill="#FF3E4C"/>
<path d="M17.6302 17.2955H3.69372C3.55946 17.2955 3.4307 17.2428 3.33576 17.1491C3.24083 17.0553 3.1875 16.9281 3.1875 16.7955C3.18786 16.6631 3.24135 16.5363 3.33624 16.4428C3.43114 16.3494 3.55969 16.2969 3.69372 16.2969H17.6302C17.7641 16.2969 17.8925 16.3494 17.9872 16.4429C18.0819 16.5364 18.135 16.6633 18.135 16.7955C18.1352 16.8611 18.1223 16.9261 18.097 16.9868C18.0717 17.0474 18.0346 17.1025 17.9877 17.149C17.9408 17.1954 17.885 17.2323 17.8237 17.2574C17.7624 17.2826 17.6966 17.2955 17.6302 17.2955Z" fill="#FF3E4C"/>
<path d="M12.1334 11.6627H3.69372C3.55969 11.6627 3.43114 11.6102 3.33624 11.5167C3.24135 11.4233 3.18786 11.2964 3.1875 11.164C3.1875 11.0314 3.24083 10.9043 3.33576 10.8105C3.4307 10.7167 3.55946 10.6641 3.69372 10.6641H12.1334C12.2674 10.6644 12.3958 10.7172 12.4904 10.811C12.5851 10.9047 12.6382 11.0317 12.6382 11.164C12.6379 11.2962 12.5846 11.4228 12.49 11.5162C12.3954 11.6097 12.2671 11.6623 12.1334 11.6627Z" fill="#FF3E4C"/>
<path d="M12.1334 8.84823H3.69372C3.55969 8.84823 3.43114 8.79572 3.33624 8.70224C3.24135 8.60877 3.18786 8.48196 3.1875 8.34959C3.1875 8.21699 3.24083 8.08979 3.33576 7.99602C3.4307 7.90226 3.55946 7.84961 3.69372 7.84961H12.1334C12.2674 7.84996 12.3958 7.90278 12.4904 7.99651C12.5851 8.09024 12.6382 8.21722 12.6382 8.34959C12.6379 8.48173 12.5846 8.60835 12.49 8.70179C12.3954 8.79523 12.2671 8.84788 12.1334 8.84823Z" fill="#FF3E4C"/>
<path d="M24.8285 22.7461H7.9492C6.75188 22.7461 5.78125 23.7048 5.78125 24.8873V29.8578C5.78125 31.0404 6.75188 31.999 7.9492 31.999H24.8285C26.0258 31.999 26.9964 31.0404 26.9964 29.8578V24.8873C26.9964 23.7048 26.0258 22.7461 24.8285 22.7461Z" fill="#FF3E4C"/>
<path d="M11.3198 28.4492V29.4185H10.3047V28.4492H11.3198Z" fill="white"/>
<path d="M12.8173 28.0127V29.4193H11.8359V25.4102H13.4261C13.9081 25.4102 14.2766 25.5288 14.529 25.7648C14.6567 25.8888 14.7565 26.038 14.8216 26.2028C14.8868 26.3676 14.9158 26.5441 14.907 26.7207C14.9119 26.9538 14.8536 27.184 14.7382 27.3874C14.6204 27.5862 14.4457 27.7463 14.2361 27.8474C13.9832 27.9654 13.7057 28.0225 13.4261 28.0141L12.8173 28.0127ZM13.9081 26.7207C13.9081 26.3652 13.711 26.1874 13.3168 26.1874H12.8173V27.2314H13.3168C13.711 27.235 13.9081 27.0647 13.9081 26.7207Z" fill="white"/>
<path d="M18.7857 28.4515C18.6166 28.7546 18.3613 29.0022 18.0513 29.1634C17.7025 29.3398 17.3146 29.4274 16.9228 29.4181H15.3906V25.409H16.9228C17.3148 25.3992 17.7033 25.4848 18.054 25.6583C18.3632 25.8161 18.6178 26.0611 18.7857 26.3622C18.9613 26.6819 19.0497 27.0412 19.0421 27.4049C19.0495 27.7697 18.9611 28.1303 18.7857 28.4515ZM17.73 28.2501C17.8398 28.1389 17.9248 28.0063 17.9796 27.8607C18.0345 27.7151 18.058 27.5599 18.0486 27.4049C18.058 27.25 18.0346 27.0949 17.9797 26.9496C17.9248 26.8042 17.8398 26.6718 17.73 26.5609C17.4845 26.3481 17.1638 26.2398 16.8377 26.2596H16.372V28.5501H16.8377C17.1635 28.5697 17.484 28.4619 17.73 28.2501Z" fill="white"/>
<path d="M22.2409 25.4102V26.1821H20.5765V27.0607H21.8616V27.798H20.5765V29.4193H19.5938V25.4102H22.2409Z" fill="white"/>
<path d="M17.3743 7.84961H14.9876C14.5716 7.84961 14.2344 8.1827 14.2344 8.59358V10.9508C14.2344 11.3617 14.5716 11.6948 14.9876 11.6948H17.3743C17.7903 11.6948 18.1275 11.3617 18.1275 10.9508V8.59358C18.1275 8.1827 17.7903 7.84961 17.3743 7.84961Z" fill="#FF3E4C"/>
</svg>
