<svg width="25" height="24" viewBox="0 0 25 24" fill="none" xmlns="http://www.w3.org/2000/svg">
<path d="M9.66797 18.5H15.668M7.26797 2H18.068C18.628 2 18.908 2 19.122 2.10899C19.3101 2.20487 19.4631 2.35785 19.559 2.54601C19.668 2.75992 19.668 3.03995 19.668 3.6V5.67452C19.668 6.1637 19.668 6.40829 19.6127 6.63846C19.5637 6.84254 19.4829 7.03763 19.3732 7.21657C19.2496 7.4184 19.0766 7.59135 18.7307 7.93726L15.7993 10.8686C15.4033 11.2646 15.2053 11.4627 15.1311 11.691C15.0659 11.8918 15.0659 12.1082 15.1311 12.309C15.2053 12.5373 15.4033 12.7354 15.7993 13.1314L18.7307 16.0627C19.0766 16.4086 19.2496 16.5816 19.3732 16.7834C19.4829 16.9624 19.5637 17.1575 19.6127 17.3615C19.668 17.5917 19.668 17.8363 19.668 18.3255V20.4C19.668 20.9601 19.668 21.2401 19.559 21.454C19.4631 21.6422 19.3101 21.7951 19.122 21.891C18.908 22 18.628 22 18.068 22H7.26797C6.70792 22 6.42789 22 6.21398 21.891C6.02582 21.7951 5.87284 21.6422 5.77696 21.454C5.66797 21.2401 5.66797 20.9601 5.66797 20.4V18.3255C5.66797 17.8363 5.66797 17.5917 5.72323 17.3615C5.77222 17.1575 5.85303 16.9624 5.96269 16.7834C6.08637 16.5816 6.25932 16.4086 6.60523 16.0627L9.5366 13.1314C9.93262 12.7354 10.1306 12.5373 10.2048 12.309C10.2701 12.1082 10.2701 11.8918 10.2048 11.691C10.1306 11.4627 9.93261 11.2646 9.5366 10.8686L6.60523 7.93726C6.25933 7.59136 6.08637 7.4184 5.96269 7.21657C5.85303 7.03763 5.77222 6.84254 5.72323 6.63846C5.66797 6.40829 5.66797 6.1637 5.66797 5.67452V3.6C5.66797 3.03995 5.66797 2.75992 5.77696 2.54601C5.87284 2.35785 6.02582 2.20487 6.21398 2.10899C6.42789 2 6.70792 2 7.26797 2Z" stroke="#720D21" stroke-width="2" stroke-linecap="round" stroke-linejoin="round"/>
</svg>
