<svg width="24" height="24" viewBox="0 0 24 24" fill="none" xmlns="http://www.w3.org/2000/svg">
<path d="M12.0023 23.9985C10.1762 23.999 8.37403 23.5826 6.73314 22.7812C5.09225 21.9798 3.65594 20.8144 2.53362 19.3738C1.4113 17.9332 0.632584 16.2555 0.256801 14.4685C-0.118981 12.6814 -0.0819173 10.8321 0.365169 9.06155C0.812255 7.29098 1.65757 5.6458 2.83671 4.25137C4.01585 2.85693 5.49771 1.75002 7.16939 1.01497C8.84107 0.279923 10.6585 -0.0638788 12.4831 0.00976101C14.3078 0.0834008 16.0916 0.572539 17.6986 1.43991C17.8918 1.53651 18.082 1.64518 18.2691 1.76593C18.4726 1.89141 18.6182 2.09227 18.6742 2.32469C18.7302 2.55711 18.692 2.80223 18.568 3.00661C18.5058 3.10859 18.4241 3.19727 18.3275 3.26755C18.231 3.33782 18.1215 3.3883 18.0053 3.41608C17.8891 3.44386 17.7686 3.44838 17.6507 3.4294C17.5328 3.41041 17.4198 3.36829 17.3182 3.30546C17.1643 3.2149 17.0013 3.11528 16.8383 3.03378C14.7046 1.8833 12.2307 1.53129 9.86079 2.04097C7.49092 2.55066 5.38043 3.88864 3.90842 5.81458C2.43641 7.74052 1.69934 10.1282 1.82961 12.5488C1.95988 14.9693 2.94895 17.2641 4.61915 19.021C6.28936 20.7778 8.53126 21.8816 10.9421 22.1339C13.353 22.3863 15.7749 21.7709 17.7728 20.398C19.7706 19.0252 21.2135 16.985 21.8423 14.6439C22.4711 12.3028 22.2445 9.81425 21.2033 7.62519L12.4189 16.4096C12.3347 16.4944 12.2346 16.5618 12.1242 16.6078C12.0139 16.6538 11.8955 16.6774 11.7759 16.6774C11.6564 16.6774 11.538 16.6538 11.4277 16.6078C11.3173 16.5618 11.2171 16.4944 11.133 16.4096L7.51054 12.7871C7.34187 12.6175 7.2472 12.3879 7.2472 12.1487C7.2472 11.9094 7.34187 11.6799 7.51054 11.5102C7.59473 11.4254 7.69489 11.358 7.80525 11.312C7.9156 11.266 8.03397 11.2424 8.15352 11.2424C8.27307 11.2424 8.39144 11.266 8.5018 11.312C8.61215 11.358 8.71231 11.4254 8.7965 11.5102L11.7759 14.4897L20.7777 5.48796C20.8742 5.39092 20.9914 5.31702 21.1206 5.27181C21.2498 5.2266 21.3876 5.21127 21.5235 5.22695C21.6595 5.24264 21.7902 5.28895 21.9057 5.36239C22.0212 5.43583 22.1185 5.5345 22.1904 5.65097C23.3202 7.46859 23.9437 9.55511 23.9964 11.6946C24.049 13.8341 23.529 15.9487 22.4901 17.8198C21.4511 19.6908 19.931 21.2502 18.0871 22.3365C16.2432 23.4228 14.1425 23.9966 12.0023 23.9985Z" fill="#F04438"/>
</svg>
