<svg width="42" height="42" viewBox="0 0 42 42" fill="none" xmlns="http://www.w3.org/2000/svg">
<path d="M0.646154 21C0.646154 9.75888 9.75888 0.646154 21 0.646154C32.2411 0.646154 41.3538 9.75888 41.3538 21C41.3538 32.2411 32.2411 41.3538 21 41.3538C9.75888 41.3538 0.646154 32.2411 0.646154 21Z" fill="#E3CED2"/>
<path d="M0.646154 21C0.646154 9.75888 9.75888 0.646154 21 0.646154C32.2411 0.646154 41.3538 9.75888 41.3538 21C41.3538 32.2411 32.2411 41.3538 21 41.3538C9.75888 41.3538 0.646154 32.2411 0.646154 21Z" stroke="#AA6D79" stroke-width="1.29231"/>
<path d="M19.4443 20.4299C19.4443 20.1514 19.555 19.8844 19.7519 19.6874C19.9488 19.4905 20.2159 19.3799 20.4943 19.3799C20.7728 19.3799 21.0399 19.4905 21.2368 19.6874C21.4337 19.8844 21.5443 20.1514 21.5443 20.4299V26.7299C21.5443 27.0084 21.4337 27.2755 21.2368 27.4724C21.0399 27.6693 20.7728 27.7799 20.4943 27.7799C20.2159 27.7799 19.9488 27.6693 19.7519 27.4724C19.555 27.2755 19.4443 27.0084 19.4443 26.7299V20.4299ZM20.4943 15.2545C20.2159 15.2545 19.9488 15.3651 19.7519 15.562C19.555 15.7589 19.4443 16.026 19.4443 16.3045C19.4443 16.5829 19.555 16.85 19.7519 17.0469C19.9488 17.2438 20.2159 17.3545 20.4943 17.3545C20.7728 17.3545 21.0399 17.2438 21.2368 17.0469C21.4337 16.85 21.5443 16.5829 21.5443 16.3045C21.5443 16.026 21.4337 15.7589 21.2368 15.562C21.0399 15.3651 20.7728 15.2545 20.4943 15.2545Z" fill="#812537"/>
<path fill-rule="evenodd" clip-rule="evenodd" d="M20.5 11C14.7009 11 10 15.7009 10 21.5C10 27.2991 14.7009 32 20.5 32C26.2991 32 31 27.2991 31 21.5C31 15.7009 26.2991 11 20.5 11ZM12.1 21.5C12.1 23.7278 12.985 25.8644 14.5603 27.4397C16.1356 29.015 18.2722 29.9 20.5 29.9C22.7278 29.9 24.8644 29.015 26.4397 27.4397C28.015 25.8644 28.9 23.7278 28.9 21.5C28.9 19.2722 28.015 17.1356 26.4397 15.5603C24.8644 13.985 22.7278 13.1 20.5 13.1C18.2722 13.1 16.1356 13.985 14.5603 15.5603C12.985 17.1356 12.1 19.2722 12.1 21.5Z" fill="#812537"/>
</svg>
