<svg width="48" height="48" viewBox="0 0 48 48" fill="none" xmlns="http://www.w3.org/2000/svg">
<rect width="48" height="48" rx="24" fill="#802537"/>
<path d="M18 32.088H20.6103C20.9506 32.088 21.2889 32.1285 21.6188 32.2095L24.3769 32.8798C24.9753 33.0255 25.5988 33.0397 26.2035 32.9223L29.253 32.329C30.0585 32.1721 30.7996 31.7863 31.3803 31.2214L33.5379 29.1226C34.154 28.5242 34.154 27.5533 33.5379 26.9539C32.9832 26.4143 32.1047 26.3536 31.4771 26.8112L28.9626 28.6457C28.6025 28.909 28.1643 29.0507 27.7137 29.0507H25.2855L26.8311 29.0506C27.7022 29.0506 28.4079 28.3642 28.4079 27.5168V27.21C28.4079 26.5064 27.9156 25.8928 27.2141 25.7227L24.8286 25.1426C24.4404 25.0485 24.0428 25.0009 23.6431 25.0009C22.6783 25.0009 20.9319 25.7997 20.9319 25.7997L18 27.0258M14 26.6009L14 32.4009C14 32.9609 14 33.2409 14.109 33.4549C14.2049 33.643 14.3578 33.796 14.546 33.8919C14.7599 34.0009 15.0399 34.0009 15.6 34.0009H16.4C16.9601 34.0009 17.2401 34.0009 17.454 33.8919C17.6422 33.796 17.7951 33.643 17.891 33.4549C18 33.2409 18 32.9609 18 32.4009V26.6009C18 26.0408 18 25.7608 17.891 25.5469C17.7951 25.3587 17.6422 25.2057 17.454 25.1099C17.2401 25.0009 16.9601 25.0009 16.4 25.0009H15.6C15.0399 25.0009 14.7599 25.0009 14.546 25.1099C14.3578 25.2057 14.2049 25.3587 14.109 25.5469C14 25.7608 14 26.0408 14 26.6009ZM29.1914 15.5931C28.5946 14.3443 27.2186 13.6827 25.8804 14.3212C24.5423 14.9598 23.9722 16.4743 24.5325 17.8037C24.8787 18.6253 25.8707 20.2209 26.5781 21.3199C26.8394 21.726 26.9701 21.929 27.161 22.0478C27.3247 22.1497 27.5297 22.2046 27.7224 22.1982C27.9471 22.1908 28.1618 22.0803 28.5911 21.8593C29.7532 21.2612 31.4101 20.3754 32.1208 19.837C33.2707 18.9658 33.5556 17.3644 32.6947 16.1471C31.8337 14.9298 30.3327 14.81 29.1914 15.5931Z" stroke="white" stroke-width="2" stroke-linecap="round" stroke-linejoin="round"/>
</svg>
