<svg width="49" height="48" viewBox="0 0 49 48" fill="none" xmlns="http://www.w3.org/2000/svg">
<rect x="0.667969" width="48" height="48" rx="24" fill="#E3CFD3"/>
<path d="M18.668 32.0872H21.2783C21.6186 32.0872 21.9569 32.1277 22.2868 32.2086L25.0449 32.8789C25.6433 33.0247 26.2667 33.0388 26.8714 32.9214L29.9209 32.3281C30.7265 32.1712 31.4676 31.7854 32.0483 31.2205L34.2059 29.1217C34.822 28.5234 34.822 27.5524 34.2059 26.9531C33.6511 26.4134 32.7727 26.3527 32.1451 26.8103L29.6306 28.6449C29.2705 28.9081 28.8323 29.0498 28.3816 29.0498H25.9535L27.499 29.0498C28.3702 29.0498 29.0758 28.3633 29.0758 27.5159V27.2091C29.0758 26.5055 28.5835 25.892 27.882 25.7219L25.4966 25.1417C25.1083 25.0476 24.7108 25 24.3111 25C23.3463 25 21.5999 25.7988 21.5999 25.7988L18.668 27.0249M14.668 26.6L14.668 32.4C14.668 32.9601 14.668 33.2401 14.777 33.454C14.8728 33.6422 15.0258 33.7951 15.214 33.891C15.4279 34 15.7079 34 16.268 34H17.068C17.628 34 17.908 34 18.122 33.891C18.3101 33.7951 18.4631 33.6422 18.559 33.454C18.668 33.2401 18.668 32.9601 18.668 32.4V26.6C18.668 26.04 18.668 25.7599 18.559 25.546C18.4631 25.3578 18.3101 25.2049 18.122 25.109C17.908 25 17.628 25 17.068 25H16.268C15.7079 25 15.4279 25 15.214 25.109C15.0258 25.2049 14.8728 25.3578 14.777 25.546C14.668 25.7599 14.668 26.0399 14.668 26.6ZM29.8593 15.5923C29.2625 14.3434 27.8866 13.6818 26.5484 14.3204C25.2103 14.959 24.6402 16.4734 25.2004 17.8028C25.5467 18.6245 26.5387 20.22 27.2461 21.319C27.5074 21.7251 27.6381 21.9282 27.829 22.0469C27.9927 22.1488 28.1976 22.2037 28.3904 22.1974C28.615 22.1899 28.8297 22.0794 29.2591 21.8584C30.4212 21.2603 32.0781 20.3746 32.7888 19.8361C33.9387 18.9649 34.2235 17.3636 33.3626 16.1462C32.5017 14.9289 31.0006 14.8091 29.8593 15.5923Z" stroke="#720D21" stroke-width="2" stroke-linecap="round" stroke-linejoin="round"/>
</svg>
