<svg width="49" height="49" viewBox="0 0 49 49" fill="none" xmlns="http://www.w3.org/2000/svg">
<rect x="0.833008" y="0.754883" width="48" height="48" rx="24" fill="#FFE9E9"/>
<path d="M18.833 32.8419H21.4433C21.7836 32.8419 22.1219 32.8824 22.4518 32.9634L25.2099 33.6337C25.8084 33.7794 26.4318 33.7936 27.0365 33.6762L30.086 33.0829C30.8916 32.926 31.6326 32.5402 32.2133 31.9753L34.3709 29.8765C34.987 29.2781 34.987 28.3072 34.3709 27.7078C33.8162 27.1682 32.9377 27.1075 32.3101 27.5651L29.7956 29.3996C29.4355 29.6629 28.9973 29.8046 28.5467 29.8046H26.1185L27.6641 29.8045C28.5352 29.8045 29.2409 29.1181 29.2409 28.2707V27.9639C29.2409 27.2603 28.7486 26.6467 28.0471 26.4766L25.6616 25.8965C25.2734 25.8024 24.8758 25.7548 24.4761 25.7548C23.5113 25.7548 21.7649 26.5536 21.7649 26.5536L18.833 27.7797M14.833 27.3548L14.833 33.1548C14.833 33.7148 14.833 33.9949 14.942 34.2088C15.0379 34.3969 15.1909 34.5499 15.379 34.6458C15.5929 34.7548 15.873 34.7548 16.433 34.7548H17.233C17.7931 34.7548 18.0731 34.7548 18.287 34.6458C18.4752 34.5499 18.6281 34.3969 18.724 34.2088C18.833 33.9949 18.833 33.7148 18.833 33.1548V27.3548C18.833 26.7947 18.833 26.5147 18.724 26.3008C18.6281 26.1126 18.4752 25.9596 18.287 25.8638C18.0731 25.7548 17.7931 25.7548 17.233 25.7548H16.433C15.873 25.7548 15.5929 25.7548 15.379 25.8638C15.1909 25.9596 15.0379 26.1126 14.942 26.3008C14.833 26.5147 14.833 26.7947 14.833 27.3548ZM30.0244 16.347C29.4276 15.0982 28.0516 14.4366 26.7134 15.0752C25.3753 15.7137 24.8052 17.2282 25.3655 18.5576C25.7117 19.3792 26.7038 20.9748 27.4111 22.0738C27.6725 22.4799 27.8031 22.6829 27.994 22.8017C28.1577 22.9036 28.3627 22.9585 28.5554 22.9521C28.7801 22.9447 28.9948 22.8342 29.4242 22.6132C30.5862 22.0151 32.2431 21.1293 32.9538 20.5909C34.1038 19.7197 34.3886 18.1184 33.5277 16.901C32.6668 15.6837 31.1657 15.5639 30.0244 16.347Z" stroke="#F60000" stroke-width="2" stroke-linecap="round" stroke-linejoin="round"/>
</svg>
