<svg width="18" height="18" viewBox="0 0 18 18" fill="none" xmlns="http://www.w3.org/2000/svg">
<path d="M7.75318 10.25L16.5032 1.50002M7.8595 10.5234L10.0496 16.1551C10.2425 16.6512 10.339 16.8993 10.478 16.9717C10.5985 17.0345 10.742 17.0345 10.8626 16.9719C11.0017 16.8997 11.0985 16.6517 11.292 16.1558L16.7839 2.08269C16.9586 1.63504 17.046 1.41121 16.9982 1.26819C16.9567 1.14398 16.8592 1.04651 16.735 1.00501C16.592 0.957234 16.3682 1.04458 15.9205 1.21927L1.8474 6.71122C1.3515 6.90474 1.10355 7.0015 1.03129 7.14059C0.968655 7.26116 0.96874 7.4047 1.03152 7.5252C1.10394 7.66421 1.352 7.76067 1.84812 7.95361L7.47979 10.1437C7.5805 10.1829 7.63086 10.2024 7.67326 10.2327C7.71084 10.2595 7.7437 10.2924 7.77051 10.3299C7.80075 10.3723 7.82034 10.4227 7.8595 10.5234Z" stroke="#720D21" stroke-width="1.66667" stroke-linecap="round" stroke-linejoin="round"/>
</svg>
