<svg width="12" height="14" viewBox="0 0 12 14" fill="none" xmlns="http://www.w3.org/2000/svg">
<path fill-rule="evenodd" clip-rule="evenodd" d="M9.47157 0.542969C9.17176 0.542868 8.87557 0.608558 8.6039 0.735403C8.33224 0.862248 8.09172 1.04716 7.89931 1.27709C7.70689 1.50702 7.56728 1.77638 7.49031 2.06615C7.41334 2.35592 7.4009 2.65905 7.45385 2.95415L4.4714 5.0425C4.45648 5.05281 4.44216 5.06397 4.42852 5.07592C4.12595 4.83939 3.76299 4.69265 3.38106 4.65243C2.99912 4.61221 2.61356 4.68013 2.26835 4.84844C1.92315 5.01675 1.63219 5.27868 1.42865 5.60436C1.22511 5.93004 1.11719 6.30636 1.11719 6.69041C1.11719 7.07447 1.22511 7.45079 1.42865 7.77647C1.63219 8.10215 1.92315 8.36408 2.26835 8.53239C2.61356 8.7007 2.99912 8.76862 3.38106 8.7284C3.76299 8.68818 4.12595 8.54144 4.42852 8.30491C4.44215 8.31707 4.45646 8.32844 4.4714 8.33896L7.45385 10.4273C7.36531 10.9209 7.4608 11.4298 7.72226 11.8576C7.98371 12.2855 8.39296 12.6027 8.87255 12.7491C9.35213 12.8955 9.86876 12.861 10.3246 12.6521C10.7805 12.4432 11.1439 12.0744 11.3461 11.6156C11.5483 11.1567 11.5753 10.6397 11.4219 10.1623C11.2685 9.68486 10.9454 9.28028 10.5138 9.0251C10.0821 8.76991 9.57189 8.68185 9.07968 8.77758C8.58746 8.87331 8.14743 9.14619 7.84289 9.54455L5.0187 7.56781C5.14481 7.30172 5.21543 7.00474 5.21543 6.69073C5.21543 6.37672 5.14481 6.07911 5.0187 5.81365L7.84352 3.83628C8.05512 4.11325 8.33387 4.33168 8.65341 4.4709C8.97296 4.61013 9.32273 4.66554 9.66966 4.63192C10.0166 4.59829 10.3492 4.47673 10.6361 4.27872C10.9229 4.08072 11.1545 3.81283 11.309 3.50037C11.4635 3.18791 11.5357 2.84121 11.5188 2.49307C11.5019 2.14492 11.3965 1.80683 11.2126 1.51076C11.0287 1.2147 10.7722 0.970443 10.4676 0.801096C10.1629 0.631748 9.82013 0.542906 9.47157 0.542969ZM8.36813 2.59222C8.36813 2.29957 8.48439 2.01891 8.69132 1.81197C8.89826 1.60503 9.17892 1.48878 9.47157 1.48878C9.76423 1.48878 10.0449 1.60503 10.2518 1.81197C10.4588 2.01891 10.575 2.29957 10.575 2.59222C10.575 2.88487 10.4588 3.16554 10.2518 3.37248C10.0449 3.57941 9.76423 3.69567 9.47157 3.69567C9.17892 3.69567 8.89826 3.57941 8.69132 3.37248C8.48439 3.16554 8.36813 2.88487 8.36813 2.59222ZM3.16618 5.58729C2.87353 5.58729 2.59286 5.70354 2.38593 5.91048C2.17899 6.11741 2.06273 6.39808 2.06273 6.69073C2.06273 6.98338 2.17899 7.26405 2.38593 7.47098C2.59286 7.67792 2.87353 7.79417 3.16618 7.79417C3.45883 7.79417 3.7395 7.67792 3.94643 7.47098C4.15337 7.26405 4.26962 6.98338 4.26962 6.69073C4.26962 6.39808 4.15337 6.11741 3.94643 5.91048C3.7395 5.70354 3.45883 5.58729 3.16618 5.58729ZM9.47157 9.68579C9.17892 9.68579 8.89826 9.80205 8.69132 10.009C8.48439 10.2159 8.36813 10.4966 8.36813 10.7892C8.36813 11.0819 8.48439 11.3626 8.69132 11.5695C8.89826 11.7764 9.17892 11.8927 9.47157 11.8927C9.76423 11.8927 10.0449 11.7764 10.2518 11.5695C10.4588 11.3626 10.575 11.0819 10.575 10.7892C10.575 10.4966 10.4588 10.2159 10.2518 10.009C10.0449 9.80205 9.76423 9.68579 9.47157 9.68579Z" fill="#606060" stroke="#606060" stroke-width="0.416161"/>
</svg>
