<svg width="19" height="16" viewBox="0 0 19 16" fill="none" xmlns="http://www.w3.org/2000/svg">
<path d="M17.42 7.87959C17.42 8.05966 17.3485 8.23235 17.2212 8.35968C17.0939 8.487 16.9212 8.55853 16.7411 8.55853H3.44326L8.39526 13.5097C8.45834 13.5728 8.50838 13.6476 8.54251 13.7301C8.57665 13.8125 8.59422 13.9008 8.59422 13.99C8.59422 14.0792 8.57665 14.1676 8.54251 14.25C8.50838 14.3324 8.45834 14.4073 8.39526 14.4704C8.33218 14.5335 8.25729 14.5835 8.17487 14.6176C8.09245 14.6518 8.00412 14.6693 7.91491 14.6693C7.8257 14.6693 7.73736 14.6518 7.65495 14.6176C7.57253 14.5835 7.49764 14.5335 7.43456 14.4704L1.32412 8.35994C1.261 8.29689 1.21092 8.22201 1.17675 8.13959C1.14259 8.05716 1.125 7.96882 1.125 7.87959C1.125 7.79037 1.14259 7.70202 1.17675 7.6196C1.21092 7.53718 1.261 7.4623 1.32412 7.39925L7.43456 1.28881C7.56196 1.16141 7.73474 1.08984 7.91491 1.08984C8.09507 1.08984 8.26786 1.16141 8.39526 1.28881C8.52265 1.41621 8.59422 1.58899 8.59422 1.76916C8.59422 1.94932 8.52265 2.12211 8.39526 2.24951L3.44326 7.20066H16.7411C16.9212 7.20066 17.0939 7.27219 17.2212 7.39951C17.3485 7.52684 17.42 7.69953 17.42 7.87959Z" fill="white" stroke="white" stroke-width="1.22165"/>
</svg>
