<svg width="124" height="123" viewBox="0 0 124 123" fill="none" xmlns="http://www.w3.org/2000/svg">
<rect x="0.5" width="123" height="123" rx="61.5" fill="#E1E1E1"/>
<path d="M62.1156 61.6918C67.0988 61.6918 71.8779 59.7122 75.4016 56.1885C78.9252 52.6649 80.9048 47.8857 80.9048 42.9025C80.9048 37.9193 78.9252 33.1402 75.4016 29.6165C71.8779 26.0929 67.0988 24.1133 62.1156 24.1133C57.1323 24.1133 52.3532 26.0929 48.8296 29.6165C45.3059 33.1402 43.3263 37.9193 43.3263 42.9025C43.3263 47.8857 45.3059 52.6649 48.8296 56.1885C52.3532 59.7122 57.1323 61.6918 62.1156 61.6918ZM55.4072 68.7377C40.9483 68.7377 29.2344 80.4517 29.2344 94.9106C29.2344 97.318 31.1867 99.2703 33.5941 99.2703H90.6371C93.0444 99.2703 94.9968 97.318 94.9968 94.9106C94.9968 80.4517 83.2828 68.7377 68.8239 68.7377H55.4072Z" fill="#C3C3C3"/>
</svg>
