<svg width="22" height="17" viewBox="0 0 22 17" fill="none" xmlns="http://www.w3.org/2000/svg">
<path d="M8.1155 0.624992C4.1708 0.624992 0.957031 3.83813 0.957031 7.78346C0.957031 10.0458 2.01117 12.072 3.65469 13.383C3.77745 13.4851 3.93654 13.5471 4.11067 13.5471C4.50589 13.5471 4.82658 13.227 4.82658 12.8312C4.82658 12.6013 4.71759 12.3965 4.54911 12.2656L4.54723 12.2643C3.23128 11.2146 2.38885 9.60236 2.38885 7.78409C2.38885 4.61292 4.94433 2.05744 8.11488 2.05744C10.6653 2.05744 12.902 3.73979 13.6123 6.1888C13.7019 6.48881 13.9756 6.70428 14.2994 6.70428C14.4015 6.70428 14.4992 6.68298 14.5875 6.64352L14.5831 6.6454C15.0259 6.45374 15.5051 6.35603 15.9918 6.3529C17.976 6.3529 19.5688 7.94694 19.5688 9.93119C19.5688 11.5014 18.5642 12.8255 17.1687 13.3116C16.8824 13.4099 16.6807 13.6761 16.6807 13.9899C16.6807 14.3851 17.0008 14.7058 17.3967 14.7058C17.4837 14.7058 17.5676 14.6901 17.6447 14.662L17.6397 14.6638C19.5982 13.9805 21 12.1134 21 9.93119C21 7.17215 18.7477 4.92045 15.9893 4.92045C15.9886 4.92045 15.988 4.92045 15.9874 4.92045C15.9868 4.92045 15.9861 4.92045 15.9855 4.92045C15.559 4.92421 15.1387 4.99874 14.7266 5.1071C13.643 2.43137 11.0499 0.626871 8.11613 0.625619H8.11488L8.1155 0.624992ZM10.9685 8.5C10.5777 8.50626 10.2632 8.82445 10.2632 9.21591C10.2632 9.21967 10.2632 9.22343 10.2632 9.22719V9.22656V14.169L7.84743 12.2361C7.72467 12.134 7.56557 12.0727 7.39208 12.0727C7.38895 12.0727 7.38644 12.0727 7.38393 12.0727C6.99184 12.077 6.67617 12.3959 6.67617 12.7886C6.67617 13.0178 6.7839 13.222 6.95113 13.3529L6.95238 13.3542L10.5313 16.2178C10.5294 16.2165 10.5301 16.2172 10.5307 16.2172L10.5332 16.2191C10.6547 16.3161 10.81 16.375 10.9798 16.375C11.162 16.375 11.3286 16.3067 11.4552 16.1946L11.4545 16.1952L15.0059 13.3542C15.17 13.222 15.2746 13.0203 15.2746 12.7948C15.2746 12.3996 14.9545 12.0789 14.5587 12.0789C14.389 12.0789 14.2324 12.1378 14.1096 12.2374L14.1109 12.2361L11.6951 14.169V9.22656C11.6951 9.22343 11.6951 9.21967 11.6951 9.21591C11.6951 8.82069 11.375 8.5 10.9791 8.5C10.9754 8.5 10.9723 8.5 10.9685 8.5Z" fill="#1A1A1A" stroke="#1A1A1A" stroke-width="0.580175"/>
</svg>
