<svg width="22" height="16" viewBox="0 0 22 16" fill="none" xmlns="http://www.w3.org/2000/svg">
<path d="M15.0038 6.34375H17.0038M15.0038 10.3438H17.0038M5.17383 11.3438C5.37997 10.7578 5.76293 10.2502 6.26985 9.89117C6.77676 9.53212 7.38264 9.33929 8.00383 9.33929C8.62502 9.33929 9.23089 9.53212 9.73781 9.89117C10.2447 10.2502 10.6277 10.7578 10.8338 11.3438" stroke="black" stroke-width="0.869565" stroke-linecap="round" stroke-linejoin="round"/>
<path d="M8 9.34375C9.10457 9.34375 10 8.44832 10 7.34375C10 6.23918 9.10457 5.34375 8 5.34375C6.89543 5.34375 6 6.23918 6 7.34375C6 8.44832 6.89543 9.34375 8 9.34375Z" stroke="black" stroke-width="0.869565" stroke-linecap="round" stroke-linejoin="round"/>
<path d="M19 1.34375H3C1.89543 1.34375 1 2.23918 1 3.34375V13.3438C1 14.4483 1.89543 15.3438 3 15.3438H19C20.1046 15.3438 21 14.4483 21 13.3438V3.34375C21 2.23918 20.1046 1.34375 19 1.34375Z" stroke="black" stroke-width="0.869565" stroke-linecap="round" stroke-linejoin="round"/>
</svg>
