<svg width="22" height="22" viewBox="0 0 22 22" fill="none" xmlns="http://www.w3.org/2000/svg">
<rect x="0.5" y="0.5" width="21" height="21" rx="10.5" fill="#720C20"/>
<rect x="0.5" y="0.5" width="21" height="21" rx="10.5" stroke="white"/>
<path d="M14.9987 7.77399C14.9587 7.76732 14.9121 7.76732 14.8721 7.77399C13.9521 7.74065 13.2188 6.98732 13.2188 6.05399C13.2188 5.10065 13.9854 4.33398 14.9387 4.33398C15.8921 4.33398 16.6587 5.10732 16.6587 6.05399C16.6521 6.98732 15.9187 7.74065 14.9987 7.77399Z" stroke="white" stroke-linecap="round" stroke-linejoin="round"/>
<path d="M14.313 12.6274C15.2263 12.7808 16.233 12.6208 16.9396 12.1474C17.8796 11.5208 17.8796 10.4941 16.9396 9.86743C16.2263 9.39409 15.2063 9.23409 14.293 9.39409" stroke="white" stroke-linecap="round" stroke-linejoin="round"/>
<path d="M6.98031 7.77399C7.02031 7.76732 7.06698 7.76732 7.10698 7.77399C8.02698 7.74065 8.76031 6.98732 8.76031 6.05399C8.76031 5.10065 7.99365 4.33398 7.04031 4.33398C6.08698 4.33398 5.32031 5.10732 5.32031 6.05399C5.32698 6.98732 6.06031 7.74065 6.98031 7.77399Z" stroke="white" stroke-linecap="round" stroke-linejoin="round"/>
<path d="M7.6676 12.6274C6.75427 12.7808 5.7476 12.6208 5.04094 12.1474C4.10094 11.5208 4.10094 10.4941 5.04094 9.86743C5.75427 9.39409 6.77427 9.23409 7.6876 9.39409" stroke="white" stroke-linecap="round" stroke-linejoin="round"/>
<path d="M10.9948 12.7525C10.9548 12.7458 10.9082 12.7458 10.8682 12.7525C9.94818 12.7192 9.21484 11.9658 9.21484 11.0325C9.21484 10.0792 9.98151 9.3125 10.9348 9.3125C11.8882 9.3125 12.6548 10.0858 12.6548 11.0325C12.6482 11.9658 11.9148 12.7258 10.9948 12.7525Z" stroke="white" stroke-linecap="round" stroke-linejoin="round"/>
<path d="M9.05656 14.8523C8.11656 15.4789 8.11656 16.5056 9.05656 17.1323C10.1232 17.8456 11.8699 17.8456 12.9366 17.1323C13.8766 16.5056 13.8766 15.4789 12.9366 14.8523C11.8766 14.1456 10.1232 14.1456 9.05656 14.8523Z" stroke="white" stroke-linecap="round" stroke-linejoin="round"/>
</svg>
