<svg width="22" height="23" viewBox="0 0 22 23" fill="none" xmlns="http://www.w3.org/2000/svg">
<path d="M11.9173 6.76042L10.8947 4.71526C10.6004 4.12665 10.4533 3.83234 10.2337 3.61732C10.0396 3.42717 9.80561 3.28256 9.54872 3.19395C9.25822 3.09375 8.92917 3.09375 8.27108 3.09375H4.76732C3.74055 3.09375 3.22717 3.09375 2.835 3.29357C2.49004 3.46934 2.20957 3.7498 2.03381 4.09477C1.83398 4.48694 1.83398 5.00032 1.83398 6.02708V6.76042M1.83398 6.76042H15.7673C17.3075 6.76042 18.0775 6.76042 18.6658 7.06015C19.1832 7.3238 19.6039 7.7445 19.8676 8.26194C20.1673 8.8502 20.1673 9.62027 20.1673 11.1604V15.1938C20.1673 16.7339 20.1673 17.504 19.8676 18.0922C19.6039 18.6097 19.1832 19.0304 18.6658 19.294C18.0775 19.5938 17.3075 19.5938 15.7673 19.5938H6.23398C4.69384 19.5938 3.92377 19.5938 3.33551 19.294C2.81806 19.0304 2.39737 18.6097 2.13372 18.0922C1.83398 17.504 1.83398 16.7339 1.83398 15.1938V6.76042Z" stroke="#1A1A1A" stroke-width="0.916667" stroke-linecap="round" stroke-linejoin="round"/>
</svg>
