<svg width="22" height="22" viewBox="0 0 22 22" fill="none" xmlns="http://www.w3.org/2000/svg">
<rect x="0.5" y="0.5" width="21" height="21" rx="10.5" fill="#720C20"/>
<rect x="0.5" y="0.5" width="21" height="21" rx="10.5" stroke="white"/>
<path d="M13 6.06667C13 5.6933 13 5.50661 12.9273 5.36401C12.8634 5.23856 12.7614 5.13658 12.636 5.07266C12.4934 5 12.3067 5 11.9333 5H10.0667C9.6933 5 9.50661 5 9.36401 5.07266C9.23856 5.13658 9.13658 5.23856 9.07266 5.36401C9 5.50661 9 5.6933 9 6.06667V7.93333C9 8.3067 9 8.49339 8.92734 8.63599C8.86342 8.76143 8.76143 8.86342 8.63599 8.92734C8.49339 9 8.3067 9 7.93333 9H6.06667C5.6933 9 5.50661 9 5.36401 9.07266C5.23856 9.13658 5.13658 9.23856 5.07266 9.36401C5 9.50661 5 9.6933 5 10.0667V11.9333C5 12.3067 5 12.4934 5.07266 12.636C5.13658 12.7614 5.23856 12.8634 5.36401 12.9273C5.50661 13 5.6933 13 6.06667 13H7.93333C8.3067 13 8.49339 13 8.63599 13.0727C8.76143 13.1366 8.86342 13.2386 8.92734 13.364C9 13.5066 9 13.6933 9 14.0667V15.9333C9 16.3067 9 16.4934 9.07266 16.636C9.13658 16.7614 9.23856 16.8634 9.36401 16.9273C9.50661 17 9.6933 17 10.0667 17H11.9333C12.3067 17 12.4934 17 12.636 16.9273C12.7614 16.8634 12.8634 16.7614 12.9273 16.636C13 16.4934 13 16.3067 13 15.9333V14.0667C13 13.6933 13 13.5066 13.0727 13.364C13.1366 13.2386 13.2386 13.1366 13.364 13.0727C13.5066 13 13.6933 13 14.0667 13H15.9333C16.3067 13 16.4934 13 16.636 12.9273C16.7614 12.8634 16.8634 12.7614 16.9273 12.636C17 12.4934 17 12.3067 17 11.9333V10.0667C17 9.6933 17 9.50661 16.9273 9.36401C16.8634 9.23856 16.7614 9.13658 16.636 9.07266C16.4934 9 16.3067 9 15.9333 9L14.0667 9C13.6933 9 13.5066 9 13.364 8.92734C13.2386 8.86342 13.1366 8.76143 13.0727 8.63599C13 8.49339 13 8.3067 13 7.93333V6.06667Z" stroke="white" stroke-width="1.33333" stroke-linecap="round" stroke-linejoin="round"/>
</svg>
