<svg width="22" height="22" viewBox="0 0 22 22" fill="none" xmlns="http://www.w3.org/2000/svg">
<path d="M11.9053 4.71744C11.6799 4.54211 11.5672 4.45444 11.4427 4.42074C11.3329 4.391 11.2171 4.391 11.1073 4.42074C10.9828 4.45444 10.8701 4.54211 10.6447 4.71744L6.29271 8.10232C6.0018 8.32858 5.85634 8.44171 5.75155 8.58339C5.65873 8.7089 5.58958 8.85028 5.5475 9.0006C5.5 9.1703 5.5 9.35458 5.5 9.72312V14.3655C5.5 15.0843 5.5 15.4436 5.63987 15.7182C5.76291 15.9596 5.95924 16.156 6.20071 16.279C6.47523 16.4189 6.8346 16.4189 7.55333 16.4189H8.83667C9.01635 16.4189 9.10619 16.4189 9.17482 16.3839C9.23519 16.3531 9.28427 16.3041 9.31503 16.2437C9.35 16.1751 9.35 16.0852 9.35 15.9055V11.6705C9.35 11.3112 9.35 11.1315 9.41994 10.9942C9.48146 10.8735 9.57962 10.7753 9.70036 10.7138C9.83762 10.6439 10.0173 10.6439 10.3767 10.6439H12.1733C12.5327 10.6439 12.7124 10.6439 12.8496 10.7138C12.9704 10.7753 13.0685 10.8735 13.1301 10.9942C13.2 11.1315 13.2 11.3112 13.2 11.6705V15.9055C13.2 16.0852 13.2 16.1751 13.235 16.2437C13.2657 16.3041 13.3148 16.3531 13.3752 16.3839C13.4438 16.4189 13.5337 16.4189 13.7133 16.4189H14.9967C15.7154 16.4189 16.0748 16.4189 16.3493 16.279C16.5908 16.156 16.7871 15.9596 16.9101 15.7182C17.05 15.4436 17.05 15.0843 17.05 14.3655V9.72312C17.05 9.35458 17.05 9.1703 17.0025 9.0006C16.9604 8.85028 16.8913 8.7089 16.7985 8.58339C16.6937 8.44171 16.5482 8.32858 16.2573 8.10232L11.9053 4.71744Z" stroke="#FF8C42" stroke-width="1.1" stroke-linecap="round" stroke-linejoin="round"/>
<rect width="22" height="22" rx="11" fill="#F1FFE9"/>
<path d="M11.6549 4.84218C11.4207 4.66001 11.3035 4.56892 11.1742 4.53391C11.0601 4.50302 10.9399 4.50302 10.8258 4.53391C10.6965 4.56892 10.5793 4.66001 10.3451 4.84218L5.82359 8.35893C5.52135 8.59401 5.37022 8.71155 5.26135 8.85875C5.16491 8.98914 5.09307 9.13603 5.04935 9.29221C5 9.46852 5 9.65998 5 10.0429V14.8662C5 15.6129 5 15.9863 5.14532 16.2715C5.27316 16.5224 5.47713 16.7263 5.72801 16.8542C6.01323 16.9995 6.3866 16.9995 7.13333 16.9995H8.46667C8.65335 16.9995 8.74669 16.9995 8.818 16.9632C8.88072 16.9312 8.93171 16.8802 8.96367 16.8175C9 16.7462 9 16.6529 9 16.4662V12.0662C9 11.6928 9 11.5061 9.07266 11.3635C9.13658 11.2381 9.23856 11.1361 9.36401 11.0722C9.50661 10.9995 9.6933 10.9995 10.0667 10.9995H11.9333C12.3067 10.9995 12.4934 10.9995 12.636 11.0722C12.7614 11.1361 12.8634 11.2381 12.9273 11.3635C13 11.5061 13 11.6928 13 12.0662V16.4662C13 16.6529 13 16.7462 13.0363 16.8175C13.0683 16.8802 13.1193 16.9312 13.182 16.9632C13.2533 16.9995 13.3466 16.9995 13.5333 16.9995H14.8667C15.6134 16.9995 15.9868 16.9995 16.272 16.8542C16.5229 16.7263 16.7268 16.5224 16.8547 16.2715C17 15.9863 17 15.6129 17 14.8662V10.0429C17 9.65998 17 9.46852 16.9506 9.29221C16.9069 9.13603 16.8351 8.98914 16.7386 8.85875C16.6298 8.71155 16.4787 8.59401 16.1764 8.35893L11.6549 4.84218Z" stroke="#0D7223" stroke-width="1.33333" stroke-linecap="round" stroke-linejoin="round"/>
</svg>
