<svg width="72" height="49" viewBox="0 0 72 49" fill="none" xmlns="http://www.w3.org/2000/svg">
<rect x="0.45" y="0.45" width="71.1" height="47.9716" rx="5.00101" fill="white" fill-opacity="0.1"/>
<rect x="0.45" y="0.45" width="71.1" height="47.9716" rx="5.00101" stroke="white" stroke-width="0.9" stroke-dasharray="2.73 2.73"/>
<path d="M40.192 14.5905H36.6979V18.0845C36.6979 18.2699 36.6243 18.4476 36.4932 18.5787C36.3622 18.7097 36.1844 18.7834 35.9991 18.7834C35.8138 18.7834 35.636 18.7097 35.505 18.5787C35.3739 18.4476 35.3003 18.2699 35.3003 18.0845V14.5905H31.8062C31.6209 14.5905 31.4432 14.5169 31.3121 14.3858C31.181 14.2548 31.1074 14.077 31.1074 13.8917C31.1074 13.7063 31.181 13.5286 31.3121 13.3975C31.4432 13.2665 31.6209 13.1929 31.8062 13.1929H35.3003V9.69881C35.3003 9.51348 35.3739 9.33573 35.505 9.20468C35.636 9.07362 35.8138 9 35.9991 9C36.1844 9 36.3622 9.07362 36.4932 9.20468C36.6243 9.33573 36.6979 9.51348 36.6979 9.69881V13.1929H40.192C40.3773 13.1929 40.5551 13.2665 40.6861 13.3975C40.8172 13.5286 40.8908 13.7063 40.8908 13.8917C40.8908 14.077 40.8172 14.2548 40.6861 14.3858C40.5551 14.5169 40.3773 14.5905 40.192 14.5905Z" fill="white" stroke="white" stroke-width="0.4"/>
<path d="M19.8566 26.6893H21.3978V33.386C21.3978 34.0986 21.2304 34.73 20.8957 35.2802C20.5609 35.8271 20.0903 36.2579 19.4838 36.5728C18.8772 36.8844 18.1663 37.0401 17.3509 37.0401C16.5389 37.0401 15.8296 36.8844 15.2231 36.5728C14.6166 36.2579 14.1459 35.8271 13.8112 35.2802C13.4764 34.73 13.309 34.0986 13.309 33.386V26.6893H14.8453V33.2617C14.8453 33.7224 14.9463 34.1317 15.1485 34.4897C15.354 34.8477 15.644 35.1294 16.0186 35.3349C16.3931 35.5371 16.8372 35.6381 17.3509 35.6381C17.868 35.6381 18.3138 35.5371 18.6883 35.3349C19.0661 35.1294 19.3545 34.8477 19.5534 34.4897C19.7555 34.1317 19.8566 33.7224 19.8566 33.2617V26.6893ZM23.512 39.7347V29.2347H24.9637V30.4727H25.088C25.1742 30.3136 25.2984 30.1296 25.4608 29.9208C25.6233 29.712 25.8486 29.5297 26.137 29.3739C26.4253 29.2148 26.8065 29.1353 27.2805 29.1353C27.8969 29.1353 28.4471 29.2911 28.931 29.6026C29.4149 29.9142 29.7944 30.3633 30.0695 30.9499C30.3479 31.5366 30.4871 32.2425 30.4871 33.0678C30.4871 33.8931 30.3496 34.6007 30.0745 35.1907C29.7994 35.7773 29.4215 36.2298 28.941 36.5479C28.4604 36.8628 27.9118 37.0202 27.2954 37.0202C26.8314 37.0202 26.4519 36.9424 26.1569 36.7866C25.8652 36.6308 25.6365 36.4485 25.4708 36.2397C25.3051 36.0309 25.1775 35.8453 25.088 35.6829H24.9985V39.7347H23.512ZM24.9687 33.0529C24.9687 33.5898 25.0465 34.0605 25.2023 34.4648C25.3581 34.8692 25.5835 35.1857 25.8785 35.4144C26.1734 35.6398 26.5347 35.7525 26.9623 35.7525C27.4064 35.7525 27.7776 35.6348 28.0759 35.3995C28.3742 35.1609 28.5996 34.8377 28.752 34.43C28.9078 34.0224 28.9857 33.5633 28.9857 33.0529C28.9857 32.5491 28.9095 32.0967 28.757 31.6957C28.6079 31.2946 28.3825 30.9781 28.0809 30.7461C27.7826 30.5141 27.4097 30.3981 26.9623 30.3981C26.5314 30.3981 26.1668 30.5091 25.8685 30.7312C25.5735 30.9532 25.3498 31.2631 25.1974 31.6609C25.0449 32.0586 24.9687 32.5226 24.9687 33.0529ZM33.6391 26.6893V36.8711H32.1526V26.6893H33.6391ZM38.8556 37.0252C38.1396 37.0252 37.5149 36.8612 36.9813 36.533C36.4477 36.2049 36.0334 35.7459 35.7384 35.1559C35.4434 34.5659 35.2959 33.8765 35.2959 33.0877C35.2959 32.2956 35.4434 31.6029 35.7384 31.0096C36.0334 30.4163 36.4477 29.9556 36.9813 29.6275C37.5149 29.2994 38.1396 29.1353 38.8556 29.1353C39.5715 29.1353 40.1962 29.2994 40.7298 29.6275C41.2635 29.9556 41.6778 30.4163 41.9727 31.0096C42.2677 31.6029 42.4152 32.2956 42.4152 33.0877C42.4152 33.8765 42.2677 34.5659 41.9727 35.1559C41.6778 35.7459 41.2635 36.2049 40.7298 36.533C40.1962 36.8612 39.5715 37.0252 38.8556 37.0252ZM38.8605 35.7773C39.3245 35.7773 39.709 35.6547 40.0139 35.4094C40.3189 35.1642 40.5442 34.8377 40.6901 34.43C40.8392 34.0224 40.9138 33.5733 40.9138 33.0827C40.9138 32.5955 40.8392 32.1481 40.6901 31.7404C40.5442 31.3294 40.3189 30.9996 40.0139 30.7511C39.709 30.5025 39.3245 30.3782 38.8605 30.3782C38.3932 30.3782 38.0054 30.5025 37.6972 30.7511C37.3923 30.9996 37.1652 31.3294 37.0161 31.7404C36.8702 32.1481 36.7973 32.5955 36.7973 33.0827C36.7973 33.5733 36.8702 34.0224 37.0161 34.43C37.1652 34.8377 37.3923 35.1642 37.6972 35.4094C38.0054 35.6547 38.3932 35.7773 38.8605 35.7773ZM46.2968 37.0401C45.8129 37.0401 45.3754 36.9506 44.9843 36.7717C44.5932 36.5894 44.2833 36.3259 44.0546 35.9812C43.8292 35.6365 43.7165 35.2139 43.7165 34.7134C43.7165 34.2826 43.7994 33.9279 43.9651 33.6495C44.1308 33.3711 44.3546 33.1507 44.6363 32.9883C44.918 32.8259 45.2329 32.7032 45.5809 32.6204C45.9289 32.5375 46.2835 32.4746 46.6448 32.4315C47.1022 32.3784 47.4734 32.3353 47.7584 32.3022C48.0435 32.2657 48.2506 32.2077 48.3799 32.1282C48.5091 32.0487 48.5738 31.9194 48.5738 31.7404V31.7056C48.5738 31.2714 48.4511 30.935 48.2059 30.6964C47.9639 30.4577 47.6027 30.3384 47.1221 30.3384C46.6216 30.3384 46.2272 30.4495 45.9388 30.6715C45.6538 30.8903 45.4566 31.1339 45.3472 31.4023L43.9502 31.0842C44.1159 30.6201 44.3579 30.2456 44.676 29.9606C44.9975 29.6722 45.3671 29.4634 45.7847 29.3342C46.2023 29.2016 46.6415 29.1353 47.1022 29.1353C47.4071 29.1353 47.7303 29.1718 48.0716 29.2447C48.4163 29.3143 48.7378 29.4435 49.0361 29.6325C49.3377 29.8214 49.5847 30.0915 49.7769 30.4428C49.9691 30.7908 50.0653 31.2433 50.0653 31.8001V36.8711H48.6135V35.8271H48.5539C48.4578 36.0193 48.3136 36.2082 48.1214 36.3938C47.9291 36.5794 47.6822 36.7335 47.3806 36.8562C47.079 36.9788 46.7177 37.0401 46.2968 37.0401ZM46.6199 35.8469C47.0309 35.8469 47.3823 35.7657 47.6739 35.6033C47.9689 35.4409 48.1926 35.2288 48.3451 34.967C48.5009 34.7018 48.5787 34.4184 48.5787 34.1168V33.1325C48.5257 33.1855 48.423 33.2352 48.2705 33.2816C48.1214 33.3247 47.9507 33.3628 47.7584 33.396C47.5662 33.4258 47.3789 33.454 47.1966 33.4805C47.0144 33.5037 46.8619 33.5236 46.7393 33.5401C46.4509 33.5766 46.1874 33.6379 45.9488 33.7241C45.7135 33.8103 45.5245 33.9345 45.382 34.0969C45.2428 34.256 45.1732 34.4682 45.1732 34.7333C45.1732 35.1012 45.3091 35.3796 45.5809 35.5685C45.8527 35.7541 46.199 35.8469 46.6199 35.8469ZM54.9039 37.0202C54.2874 37.0202 53.7372 36.8628 53.2533 36.5479C52.7727 36.2298 52.3949 35.7773 52.1198 35.1907C51.848 34.6007 51.7121 33.8931 51.7121 33.0678C51.7121 32.2425 51.8496 31.5366 52.1247 30.9499C52.4031 30.3633 52.7843 29.9142 53.2682 29.6026C53.7521 29.2911 54.3006 29.1353 54.9138 29.1353C55.3878 29.1353 55.7689 29.2148 56.0573 29.3739C56.3489 29.5297 56.5743 29.712 56.7334 29.9208C56.8958 30.1296 57.0218 30.3136 57.1112 30.4727H57.2007V26.6893H58.6872V36.8711H57.2355V35.6829H57.1112C57.0218 35.8453 56.8925 36.0309 56.7235 36.2397C56.5577 36.4485 56.329 36.6308 56.0374 36.7866C55.7457 36.9424 55.3679 37.0202 54.9039 37.0202ZM55.232 35.7525C55.6595 35.7525 56.0208 35.6398 56.3158 35.4144C56.6141 35.1857 56.8395 34.8692 56.9919 34.4648C57.1477 34.0605 57.2256 33.5898 57.2256 33.0529C57.2256 32.5226 57.1494 32.0586 56.9969 31.6609C56.8444 31.2631 56.6207 30.9532 56.3257 30.7312C56.0307 30.5091 55.6662 30.3981 55.232 30.3981C54.7845 30.3981 54.4117 30.5141 54.1134 30.7461C53.8151 30.9781 53.5897 31.2946 53.4372 31.6957C53.2881 32.0967 53.2135 32.5491 53.2135 33.0529C53.2135 33.5633 53.2897 34.0224 53.4422 34.43C53.5947 34.8377 53.82 35.1609 54.1183 35.3995C54.42 35.6348 54.7912 35.7525 55.232 35.7525Z" fill="white"/>
</svg>
