<svg width="22" height="22" viewBox="0 0 22 22" fill="none" xmlns="http://www.w3.org/2000/svg">
<rect width="22" height="22" rx="11" fill="#B54708" fill-opacity="0.15"/>
<path d="M5.16797 13.9167V13.8291C5.16797 13.6444 5.16797 13.5521 5.18209 13.4622C5.19463 13.3823 5.21543 13.304 5.24416 13.2285C5.27652 13.1434 5.32232 13.0632 5.41391 12.9029L7.5013 9.25M5.16797 13.9167C5.16797 15.2053 6.21264 16.25 7.5013 16.25C8.78997 16.25 9.83464 15.2053 9.83464 13.9167M5.16797 13.9167V13.8C5.16797 13.6367 5.16797 13.555 5.19976 13.4926C5.22772 13.4377 5.27234 13.3931 5.32722 13.3651C5.38961 13.3333 5.47129 13.3333 5.63464 13.3333H9.36797C9.53132 13.3333 9.61299 13.3333 9.67538 13.3651C9.73026 13.3931 9.77488 13.4377 9.80285 13.4926C9.83464 13.555 9.83464 13.6367 9.83464 13.8V13.9167M7.5013 9.25L9.58869 12.9029C9.68029 13.0632 9.72608 13.1434 9.75844 13.2285C9.78717 13.304 9.80798 13.3823 9.82051 13.4622C9.83464 13.5521 9.83464 13.6444 9.83464 13.8291V13.9167M7.5013 9.25L14.5013 8.08333M12.168 12.75V12.6624C12.168 12.4778 12.168 12.3855 12.1821 12.2955C12.1946 12.2157 12.2154 12.1373 12.2442 12.0618C12.2765 11.9767 12.3223 11.8966 12.4139 11.7363L14.5013 8.08333M12.168 12.75C12.168 14.0387 13.2126 15.0833 14.5013 15.0833C15.79 15.0833 16.8346 14.0387 16.8346 12.75M12.168 12.75V12.6333C12.168 12.47 12.168 12.3883 12.1998 12.3259C12.2277 12.271 12.2723 12.2264 12.3272 12.1985C12.3896 12.1667 12.4713 12.1667 12.6346 12.1667H16.368C16.5313 12.1667 16.613 12.1667 16.6754 12.1985C16.7303 12.2264 16.7749 12.271 16.8028 12.3259C16.8346 12.3883 16.8346 12.47 16.8346 12.6333V12.75M14.5013 8.08333L16.5887 11.7363C16.6803 11.8966 16.7261 11.9767 16.7584 12.0618C16.7872 12.1373 16.808 12.2157 16.8205 12.2955C16.8346 12.3855 16.8346 12.4778 16.8346 12.6624V12.75M11.0013 5.75V8.66667" stroke="#B54708" stroke-width="1.16667" stroke-linecap="round" stroke-linejoin="round"/>
</svg>
