<svg width="22" height="22" viewBox="0 0 22 22" fill="none" xmlns="http://www.w3.org/2000/svg">
<rect x="0.5" y="0.5" width="21" height="21" rx="10.5" fill="#720C20"/>
<rect x="0.5" y="0.5" width="21" height="21" rx="10.5" stroke="white"/>
<path d="M15.6654 16.25C15.6654 15.4359 15.6654 15.0289 15.5649 14.6977C15.3387 13.9519 14.7551 13.3684 14.0094 13.1421C13.6781 13.0417 13.2711 13.0417 12.457 13.0417H9.54037C8.72629 13.0417 8.31925 13.0417 7.98803 13.1421C7.2423 13.3684 6.65872 13.9519 6.4325 14.6977C6.33203 15.0289 6.33203 15.4359 6.33203 16.25M13.6237 8.375C13.6237 9.82475 12.4484 11 10.9987 11C9.54895 11 8.3737 9.82475 8.3737 8.375C8.3737 6.92525 9.54895 5.75 10.9987 5.75C12.4484 5.75 13.6237 6.92525 13.6237 8.375Z" stroke="white" stroke-width="1.16667" stroke-linecap="round" stroke-linejoin="round"/>
</svg>
