<svg width="22" height="22" viewBox="0 0 22 22" fill="none" xmlns="http://www.w3.org/2000/svg">
<rect x="0.5" y="0.5" width="21" height="21" rx="10.5" fill="#720C20"/>
<rect x="0.5" y="0.5" width="21" height="21" rx="10.5" stroke="white"/>
<g clip-path="url(#clip0_2611_30895)">
<path d="M7.5013 15.717H9.02397C9.2225 15.717 9.41982 15.7407 9.61228 15.7879L11.2212 16.1789C11.5703 16.2639 11.9339 16.2722 12.2867 16.2037L14.0655 15.8576C14.5355 15.7661 14.9677 15.541 15.3065 15.2115L16.5651 13.9872C16.9245 13.6382 16.9245 13.0718 16.5651 12.7222C16.2415 12.4074 15.7291 12.3719 15.363 12.6389L13.8961 13.709C13.6861 13.8626 13.4305 13.9453 13.1676 13.9453H11.7512L12.6528 13.9452C13.1609 13.9452 13.5726 13.5448 13.5726 13.0505V12.8715C13.5726 12.4611 13.2854 12.1032 12.8762 12.004L11.4846 11.6655C11.2582 11.6106 11.0263 11.5829 10.7931 11.5829C10.2303 11.5829 9.21157 12.0488 9.21157 12.0488L7.5013 12.764M5.16797 12.5162L5.16797 15.8995C5.16797 16.2262 5.16797 16.3896 5.23155 16.5144C5.28747 16.6241 5.37671 16.7134 5.48647 16.7693C5.61126 16.8329 5.7746 16.8329 6.1013 16.8329H6.56797C6.89467 16.8329 7.05801 16.8329 7.1828 16.7693C7.29256 16.7134 7.3818 16.6241 7.43772 16.5144C7.5013 16.3896 7.5013 16.2262 7.5013 15.8995V12.5162C7.5013 12.1895 7.5013 12.0262 7.43772 11.9014C7.3818 11.7916 7.29256 11.7024 7.1828 11.6464C7.05801 11.5829 6.89467 11.5829 6.56797 11.5829H6.1013C5.7746 11.5829 5.61126 11.5829 5.48647 11.6464C5.37671 11.7024 5.28747 11.7916 5.23155 11.9014C5.16797 12.0262 5.16797 12.1895 5.16797 12.5162ZM14.0296 6.09501C13.6815 5.36651 12.8788 4.98057 12.0982 5.35308C11.3176 5.72559 10.9851 6.609 11.3119 7.38451C11.5139 7.8638 12.0926 8.79453 12.5052 9.43563C12.6576 9.67251 12.7339 9.79095 12.8452 9.86024C12.9407 9.91967 13.0603 9.95171 13.1727 9.94799C13.3038 9.94365 13.429 9.8792 13.6795 9.75028C14.3574 9.40138 15.3239 8.88469 15.7384 8.5706C16.4092 8.0624 16.5754 7.12828 16.0732 6.41817C15.571 5.70806 14.6954 5.63819 14.0296 6.09501Z" stroke="white" stroke-width="1.16667" stroke-linecap="round" stroke-linejoin="round"/>
</g>
<defs>
<clipPath id="clip0_2611_30895">
<rect width="14" height="14" fill="white" transform="translate(4 4)"/>
</clipPath>
</defs>
</svg>
