<svg width="24" height="25" viewBox="0 0 24 25" fill="none" xmlns="http://www.w3.org/2000/svg">
<path d="M17.5 11.6875H12.5M17.5 15.6875H12.5M17.5 7.6875H12.5M9 3.6875L9 21.6875M7.8 3.6875H16.2C17.8802 3.6875 18.7202 3.6875 19.362 4.01448C19.9265 4.3021 20.3854 4.76104 20.673 5.32553C21 5.96726 21 6.80734 21 8.4875V16.8875C21 18.5677 21 19.4077 20.673 20.0495C20.3854 20.614 19.9265 21.0729 19.362 21.3605C18.7202 21.6875 17.8802 21.6875 16.2 21.6875H7.8C6.11984 21.6875 5.27976 21.6875 4.63803 21.3605C4.07354 21.0729 3.6146 20.614 3.32698 20.0495C3 19.4077 3 18.5677 3 16.8875V8.4875C3 6.80734 3 5.96726 3.32698 5.32553C3.6146 4.76104 4.07354 4.3021 4.63803 4.01448C5.27976 3.6875 6.11984 3.6875 7.8 3.6875Z" stroke="white" stroke-linecap="round" stroke-linejoin="round"/>
</svg>
