<svg width="20" height="20" viewBox="0 0 20 20" fill="none" xmlns="http://www.w3.org/2000/svg">
<path d="M15.5 9.34375H10.5M15.5 13.3438H10.5M15.5 5.34375H10.5M7 1.34375L7 19.3438M5.8 1.34375H14.2C15.8802 1.34375 16.7202 1.34375 17.362 1.67073C17.9265 1.95835 18.3854 2.41729 18.673 2.98178C19 3.62351 19 4.46359 19 6.14375V14.5438C19 16.2239 19 17.064 18.673 17.7057C18.3854 18.2702 17.9265 18.7291 17.362 19.0168C16.7202 19.3438 15.8802 19.3438 14.2 19.3438H5.8C4.11984 19.3438 3.27976 19.3438 2.63803 19.0168C2.07354 18.7291 1.6146 18.2702 1.32698 17.7057C1 17.064 1 16.2239 1 14.5437V6.14375C1 4.46359 1 3.62351 1.32698 2.98178C1.6146 2.41729 2.07354 1.95835 2.63803 1.67073C3.27976 1.34375 4.11984 1.34375 5.8 1.34375Z" stroke="#222222" stroke-linecap="round" stroke-linejoin="round"/>
</svg>
