<svg width="14" height="14" viewBox="0 0 14 14" fill="none" xmlns="http://www.w3.org/2000/svg">
<path d="M4.42323 0H1.89567C1.39291 0 0.910736 0.199722 0.555229 0.555229C0.199722 0.910736 0 1.39291 0 1.89567V4.42323C0 4.92599 0.199722 5.40816 0.555229 5.76367C0.910736 6.11918 1.39291 6.3189 1.89567 6.3189H4.42323C4.92599 6.3189 5.40816 6.11918 5.76367 5.76367C6.11918 5.40816 6.3189 4.92599 6.3189 4.42323V1.89567C6.3189 1.39291 6.11918 0.910736 5.76367 0.555229C5.40816 0.199722 4.92599 0 4.42323 0ZM5.05512 4.42323C5.05512 4.59082 4.98855 4.75154 4.87004 4.87004C4.75154 4.98855 4.59082 5.05512 4.42323 5.05512H1.89567C1.72808 5.05512 1.56736 4.98855 1.44886 4.87004C1.33035 4.75154 1.26378 4.59082 1.26378 4.42323V1.89567C1.26378 1.72808 1.33035 1.56736 1.44886 1.44886C1.56736 1.33035 1.72808 1.26378 1.89567 1.26378H4.42323C4.59082 1.26378 4.75154 1.33035 4.87004 1.44886C4.98855 1.56736 5.05512 1.72808 5.05512 1.89567V4.42323Z" fill="#939393"/>
<path d="M4.42323 7.58069H1.89567C1.39291 7.58069 0.910736 7.78041 0.555229 8.13592C0.199722 8.49142 0 8.9736 0 9.47636V12.0039C0 12.5067 0.199722 12.9889 0.555229 13.3444C0.910736 13.6999 1.39291 13.8996 1.89567 13.8996H4.42323C4.92599 13.8996 5.40816 13.6999 5.76367 13.3444C6.11918 12.9889 6.3189 12.5067 6.3189 12.0039V9.47636C6.3189 8.9736 6.11918 8.49142 5.76367 8.13592C5.40816 7.78041 4.92599 7.58069 4.42323 7.58069ZM5.05512 12.0039C5.05512 12.1715 4.98855 12.3322 4.87004 12.4507C4.75154 12.5692 4.59082 12.6358 4.42323 12.6358H1.89567C1.72808 12.6358 1.56736 12.5692 1.44886 12.4507C1.33035 12.3322 1.26378 12.1715 1.26378 12.0039V9.47636C1.26378 9.30877 1.33035 9.14805 1.44886 9.02954C1.56736 8.91104 1.72808 8.84447 1.89567 8.84447H4.42323C4.59082 8.84447 4.75154 8.91104 4.87004 9.02954C4.98855 9.14805 5.05512 9.30877 5.05512 9.47636V12.0039Z" fill="#939393"/>
<path d="M12.0072 7.58069H9.47965C8.97689 7.58069 8.49472 7.78041 8.13921 8.13592C7.78371 8.49142 7.58398 8.9736 7.58398 9.47636V12.0039C7.58398 12.5067 7.78371 12.9889 8.13921 13.3444C8.49472 13.6999 8.97689 13.8996 9.47965 13.8996H12.0072C12.51 13.8996 12.9921 13.6999 13.3477 13.3444C13.7032 12.9889 13.9029 12.5067 13.9029 12.0039V9.47636C13.9029 8.9736 13.7032 8.49142 13.3477 8.13592C12.9921 7.78041 12.51 7.58069 12.0072 7.58069ZM12.6391 12.0039C12.6391 12.1715 12.5725 12.3322 12.454 12.4507C12.3355 12.5692 12.1748 12.6358 12.0072 12.6358H9.47965C9.31207 12.6358 9.15134 12.5692 9.03284 12.4507C8.91434 12.3322 8.84776 12.1715 8.84776 12.0039V9.47636C8.84776 9.30877 8.91434 9.14805 9.03284 9.02954C9.15134 8.91104 9.31207 8.84447 9.47965 8.84447H12.0072C12.1748 8.84447 12.3355 8.91104 12.454 9.02954C12.5725 9.14805 12.6391 9.30877 12.6391 9.47636V12.0039Z" fill="#939393"/>
<path d="M12.0072 -6.10352e-05H9.47965C8.97689 -6.10352e-05 8.49472 0.199661 8.13921 0.555168C7.78371 0.910675 7.58398 1.39285 7.58398 1.89561V4.42317C7.58398 4.92593 7.78371 5.4081 8.13921 5.76361C8.49472 6.11912 8.97689 6.31884 9.47965 6.31884H12.0072C12.51 6.31884 12.9921 6.11912 13.3477 5.76361C13.7032 5.4081 13.9029 4.92593 13.9029 4.42317V1.89561C13.9029 1.39285 13.7032 0.910675 13.3477 0.555168C12.9921 0.199661 12.51 -6.10352e-05 12.0072 -6.10352e-05ZM12.6391 4.42317C12.6391 4.59076 12.5725 4.75148 12.454 4.86998C12.3355 4.98849 12.1748 5.05506 12.0072 5.05506H9.47965C9.31207 5.05506 9.15134 4.98849 9.03284 4.86998C8.91434 4.75148 8.84776 4.59076 8.84776 4.42317V1.89561C8.84776 1.72802 8.91434 1.5673 9.03284 1.4488C9.15134 1.33029 9.31207 1.26372 9.47965 1.26372H12.0072C12.1748 1.26372 12.3355 1.33029 12.454 1.4488C12.5725 1.5673 12.6391 1.72802 12.6391 1.89561V4.42317Z" fill="#939393"/>
</svg>
