<svg width="22" height="22" viewBox="0 0 22 22" fill="none" xmlns="http://www.w3.org/2000/svg">
<path d="M3.2536 3.787C3.4799 3.9158 3.73596 3.98314 3.99635 3.98231C4.25673 3.98149 4.51237 3.91253 4.73785 3.7823C4.96332 3.65207 5.15079 3.4651 5.28162 3.23997C5.41245 3.01483 5.48209 2.75938 5.4836 2.499H6.9836C6.98502 2.75953 7.05463 3.01514 7.18551 3.24041C7.31639 3.46568 7.50398 3.65275 7.72961 3.78302C7.95524 3.91328 8.21104 3.98218 8.47157 3.98288C8.7321 3.98358 8.98827 3.91605 9.2146 3.787L9.9646 5.085C10.3816 4.852 10.8806 4.698 11.3886 4.607C11.3579 4.517 11.3179 4.429 11.2686 4.343L10.5096 3.03C10.3133 2.68928 9.99033 2.43995 9.61101 2.33636C9.23169 2.23278 8.82681 2.28333 8.4846 2.477C8.48117 2.08374 8.3224 1.70778 8.04291 1.4311C7.76342 1.15442 7.38588 0.999459 6.9926 1H5.4766C4.6566 1 3.9916 1.66 3.9846 2.478C3.6423 2.28401 3.23717 2.23329 2.85761 2.33689C2.47805 2.44049 2.15487 2.69001 1.9586 3.031L1.2006 4.343C0.7906 5.053 1.0306 5.959 1.7346 6.374C1.39549 6.57346 1.14902 6.89894 1.04898 7.27944C0.948939 7.65993 1.00344 8.06454 1.2006 8.405L1.9586 9.718C2.3686 10.428 3.2726 10.673 3.9846 10.271C3.9906 10.889 4.3726 11.418 4.9126 11.639C4.9096 11.068 5.0526 10.489 5.3596 9.959L5.4276 9.841C5.36445 9.62432 5.25302 9.42476 5.10169 9.25731C4.95036 9.08986 4.76305 8.95888 4.55384 8.8742C4.34463 8.78951 4.11896 8.75333 3.89376 8.76836C3.66856 8.7834 3.4497 8.84926 3.2536 8.961L2.5036 7.662C3.4886 7.086 3.4886 5.662 2.5036 5.086L3.2536 3.787Z" fill="white" stroke="#720C20" stroke-width="0.6"/>
<path d="M6.23438 7.875C6.6322 7.875 7.01373 7.71696 7.29504 7.43566C7.57634 7.15436 7.73438 6.77282 7.73438 6.375C7.73438 5.97718 7.57634 5.59564 7.29504 5.31434C7.01373 5.03304 6.6322 4.875 6.23438 4.875C5.83655 4.875 5.45502 5.03304 5.17371 5.31434C4.89241 5.59564 4.73438 5.97718 4.73438 6.375C4.73438 6.77282 4.89241 7.15436 5.17371 7.43566C5.45502 7.71696 5.83655 7.875 6.23438 7.875Z" fill="white" stroke="#720C20" stroke-width="0.6"/>
<path fill-rule="evenodd" clip-rule="evenodd" d="M10.6406 13.5005C10.6406 12.6877 10.9635 11.9081 11.5383 11.3333C12.1131 10.7585 12.8927 10.4355 13.7056 10.4355C14.5185 10.4355 15.2981 10.7585 15.8729 11.3333C16.4477 11.9081 16.7706 12.6877 16.7706 13.5005C16.7706 14.3134 16.4477 15.093 15.8729 15.6678C15.2981 16.2426 14.5185 16.5655 13.7056 16.5655C12.8927 16.5655 12.1131 16.2426 11.5383 15.6678C10.9635 15.093 10.6406 14.3134 10.6406 13.5005ZM13.7066 11.9365C13.5011 11.9365 13.2976 11.977 13.1077 12.0557C12.9179 12.1343 12.7453 12.2496 12.6 12.3949C12.4547 12.5402 12.3394 12.7128 12.2608 12.9026C12.1821 13.0925 12.1416 13.296 12.1416 13.5015C12.1416 13.7071 12.1821 13.9106 12.2608 14.1004C12.3394 14.2903 12.4547 14.4628 12.6 14.6082C12.7453 14.7535 12.9179 14.8688 13.1077 14.9474C13.2976 15.0261 13.5011 15.0665 13.7066 15.0665C14.1217 15.0665 14.5198 14.9017 14.8132 14.6082C15.1067 14.3147 15.2716 13.9166 15.2716 13.5015C15.2716 13.0865 15.1067 12.6884 14.8132 12.3949C14.5198 12.1014 14.1217 11.9365 13.7066 11.9365Z" fill="white" stroke="#720C20" stroke-width="0.6"/>
<path fill-rule="evenodd" clip-rule="evenodd" d="M6.65813 16.294C6.53761 16.0854 6.45936 15.8552 6.42786 15.6164C6.39636 15.3777 6.41221 15.135 6.47453 14.9024C6.53685 14.6698 6.6444 14.4517 6.79103 14.2606C6.93767 14.0696 7.12052 13.9093 7.32913 13.789C7.37957 13.7597 7.42144 13.7177 7.45054 13.6671C7.47965 13.6166 7.49496 13.5593 7.49496 13.501C7.49496 13.4426 7.47965 13.3853 7.45054 13.3348C7.42144 13.2842 7.37957 13.2422 7.32913 13.213C6.90826 12.9697 6.60123 12.5693 6.47558 12.0997C6.34994 11.6301 6.41596 11.1299 6.65913 10.709L7.76513 8.79295C8.00835 8.37235 8.40862 8.06552 8.87796 7.93989C9.3473 7.81425 9.84732 7.8801 10.2681 8.12295C10.3187 8.15236 10.3761 8.16791 10.4345 8.16801C10.493 8.16812 10.5505 8.15278 10.6011 8.12356C10.6517 8.09433 10.6938 8.05225 10.7229 8.00158C10.7521 7.9509 10.7673 7.89342 10.7671 7.83495C10.7671 6.82295 11.5871 6.00195 12.5991 6.00195H14.8121C15.8251 6.00195 16.6451 6.82295 16.6451 7.83495C16.6451 8.09095 16.9221 8.25095 17.1431 8.12295C17.3514 8.00231 17.5814 7.92393 17.82 7.89231C18.0586 7.86069 18.3011 7.87645 18.5336 7.93868C18.7661 8.00092 18.9841 8.10841 19.175 8.255C19.3659 8.40159 19.526 8.5844 19.6461 8.79295L20.7531 10.711C20.8736 10.9192 20.9519 11.1491 20.9834 11.3876C21.0149 11.6261 20.9992 11.8685 20.9369 12.1009C20.8747 12.3333 20.7673 12.5511 20.6207 12.7419C20.4742 12.9327 20.2916 13.0928 20.0831 13.213C20.0324 13.242 19.9903 13.284 19.961 13.3345C19.9317 13.3851 19.9163 13.4425 19.9163 13.501C19.9163 13.5594 19.9317 13.6168 19.961 13.6674C19.9903 13.7179 20.0324 13.7599 20.0831 13.789C20.5037 14.0322 20.8106 14.4324 20.9362 14.9018C21.0618 15.3711 20.996 15.8711 20.7531 16.292L19.6481 18.208C19.5278 18.4164 19.3675 18.5992 19.1766 18.7457C18.9856 18.8923 18.7676 18.9998 18.5351 19.0621C18.3026 19.1244 18.0601 19.1403 17.8214 19.1089C17.5827 19.0774 17.3526 18.9993 17.1441 18.879C17.0935 18.8496 17.0361 18.8341 16.9776 18.8341C16.9191 18.834 16.8616 18.8493 16.8109 18.8785C16.7602 18.9077 16.7181 18.9497 16.6889 19.0004C16.6596 19.051 16.6441 19.1085 16.6441 19.167C16.6441 20.18 15.8241 21 14.8121 21H12.6001C12.1142 21 11.6481 20.807 11.3044 20.4634C10.9606 20.1199 10.7674 19.6539 10.7671 19.168C10.7671 19.1095 10.7517 19.052 10.7224 19.0014C10.6931 18.9507 10.651 18.9087 10.6003 18.8795C10.5497 18.8503 10.4922 18.835 10.4337 18.8351C10.3752 18.8351 10.3177 18.8506 10.2671 18.88C9.8462 19.1227 9.34608 19.1884 8.87673 19.0626C8.40737 18.9368 8.00719 18.6297 7.76413 18.209L6.65813 16.294ZM8.07913 15.088C8.0411 15.1098 8.00777 15.139 7.98104 15.1737C7.95431 15.2085 7.93471 15.2482 7.92338 15.2906C7.91204 15.333 7.90919 15.3772 7.91498 15.4206C7.92077 15.4641 7.9351 15.506 7.95713 15.544L9.06313 17.459C9.15513 17.619 9.35813 17.673 9.51813 17.581C10.7391 16.876 12.2671 17.757 12.2671 19.168C12.2671 19.351 12.4161 19.5 12.6001 19.5H14.8121C14.9004 19.5 14.9851 19.4649 15.0476 19.4024C15.11 19.34 15.1451 19.2553 15.1451 19.167C15.1451 17.757 16.6721 16.875 17.8941 17.58C18.0541 17.672 18.2571 17.617 18.3491 17.458L19.4551 15.542C19.499 15.4655 19.5108 15.3748 19.4879 15.2897C19.4651 15.2047 19.4094 15.1321 19.3331 15.088C18.1121 14.383 18.1111 12.62 19.3331 11.914C19.371 11.8923 19.4042 11.8634 19.4307 11.8288C19.4573 11.7943 19.4768 11.7548 19.4881 11.7127C19.4993 11.6706 19.5021 11.6266 19.4963 11.5834C19.4905 11.5402 19.4761 11.4986 19.4541 11.461L18.3471 9.54395C18.3256 9.50589 18.2966 9.4725 18.2621 9.44572C18.2275 9.41894 18.1879 9.3993 18.1457 9.38795C18.1034 9.3766 18.0593 9.37376 18.016 9.37959C17.9726 9.38543 17.9309 9.39983 17.8931 9.42195C16.6721 10.128 15.1451 9.24495 15.1451 7.83495C15.1451 7.74664 15.11 7.66194 15.0476 7.59949C14.9851 7.53704 14.9004 7.50195 14.8121 7.50195H12.6001C12.5564 7.50169 12.513 7.51012 12.4725 7.52678C12.4321 7.54343 12.3953 7.56796 12.3644 7.59895C12.3335 7.62994 12.3091 7.66677 12.2926 7.70728C12.276 7.7478 12.2677 7.7912 12.2681 7.83495C12.2681 9.24495 10.7411 10.127 9.51913 9.42095C9.44271 9.37708 9.35202 9.36529 9.26693 9.38816C9.18183 9.41103 9.10927 9.46669 9.06513 9.54295L7.95913 11.459C7.93725 11.4968 7.92305 11.5387 7.91735 11.582C7.91164 11.6254 7.91453 11.6695 7.92586 11.7117C7.93719 11.754 7.95673 11.7936 7.98338 11.8283C8.01002 11.863 8.04324 11.8921 8.08113 11.914C9.30313 12.619 9.30113 14.384 8.08113 15.088" fill="white"/>
<path d="M8.07913 15.088C8.0411 15.1098 8.00777 15.139 7.98104 15.1737C7.95431 15.2085 7.93471 15.2482 7.92338 15.2906C7.91204 15.333 7.90919 15.3772 7.91498 15.4206C7.92077 15.4641 7.9351 15.506 7.95713 15.544L9.06313 17.459C9.15513 17.619 9.35813 17.673 9.51813 17.581C10.7391 16.876 12.2671 17.757 12.2671 19.168C12.2671 19.351 12.4161 19.5 12.6001 19.5H14.8121C14.9004 19.5 14.9851 19.4649 15.0476 19.4024C15.11 19.34 15.1451 19.2553 15.1451 19.167C15.1451 17.757 16.6721 16.875 17.8941 17.58C18.0541 17.672 18.2571 17.617 18.3491 17.458L19.4551 15.542C19.499 15.4655 19.5108 15.3748 19.4879 15.2897C19.4651 15.2047 19.4094 15.1321 19.3331 15.088C18.1121 14.383 18.1111 12.62 19.3331 11.914C19.371 11.8923 19.4042 11.8634 19.4307 11.8288C19.4573 11.7943 19.4768 11.7548 19.4881 11.7127C19.4993 11.6706 19.5021 11.6266 19.4963 11.5834C19.4905 11.5402 19.4761 11.4986 19.4541 11.461L18.3471 9.54395C18.3256 9.50589 18.2967 9.4725 18.2621 9.44572C18.2275 9.41894 18.1879 9.3993 18.1457 9.38795C18.1034 9.3766 18.0593 9.37376 18.016 9.37959C17.9726 9.38543 17.9309 9.39983 17.8931 9.42195C16.6721 10.128 15.1451 9.24495 15.1451 7.83495C15.1451 7.74664 15.11 7.66194 15.0476 7.59949C14.9851 7.53704 14.9004 7.50195 14.8121 7.50195H12.6001C12.5564 7.50169 12.513 7.51012 12.4725 7.52678C12.4321 7.54343 12.3953 7.56796 12.3644 7.59895C12.3335 7.62994 12.3091 7.66677 12.2926 7.70728C12.276 7.7478 12.2677 7.7912 12.2681 7.83495C12.2681 9.24495 10.7411 10.127 9.51913 9.42095C9.44271 9.37708 9.35202 9.36529 9.26693 9.38816C9.18183 9.41103 9.10927 9.46669 9.06513 9.54295L7.95913 11.459C7.93725 11.4968 7.92305 11.5387 7.91735 11.582C7.91164 11.6254 7.91453 11.6695 7.92586 11.7117C7.93719 11.754 7.95673 11.7936 7.98338 11.8283C8.01002 11.863 8.04324 11.8921 8.08113 11.914C9.30313 12.619 9.30113 14.384 8.08113 15.088M6.65813 16.294C6.53761 16.0854 6.45936 15.8552 6.42786 15.6164C6.39636 15.3777 6.41221 15.135 6.47453 14.9024C6.53685 14.6698 6.6444 14.4517 6.79103 14.2606C6.93767 14.0696 7.12052 13.9093 7.32913 13.789C7.37957 13.7597 7.42144 13.7177 7.45054 13.6671C7.47965 13.6166 7.49496 13.5593 7.49496 13.501C7.49496 13.4426 7.47965 13.3853 7.45054 13.3348C7.42144 13.2842 7.37957 13.2422 7.32913 13.213C6.90826 12.9697 6.60123 12.5693 6.47558 12.0997C6.34994 11.6301 6.41596 11.1299 6.65913 10.709L7.76513 8.79295C8.00835 8.37235 8.40862 8.06552 8.87796 7.93989C9.3473 7.81425 9.84732 7.8801 10.2681 8.12295C10.3187 8.15236 10.3761 8.16791 10.4345 8.16801C10.493 8.16812 10.5505 8.15278 10.6011 8.12356C10.6517 8.09433 10.6938 8.05225 10.7229 8.00158C10.7521 7.9509 10.7673 7.89342 10.7671 7.83495C10.7671 6.82295 11.5871 6.00195 12.5991 6.00195H14.8121C15.8251 6.00195 16.6451 6.82295 16.6451 7.83495C16.6451 8.09095 16.9221 8.25095 17.1431 8.12295C17.3514 8.00231 17.5814 7.92393 17.82 7.89231C18.0586 7.86069 18.3011 7.87645 18.5336 7.93868C18.7661 8.00092 18.9841 8.10841 19.175 8.255C19.3659 8.40159 19.526 8.5844 19.6461 8.79295L20.7531 10.711C20.8736 10.9192 20.9519 11.1491 20.9834 11.3876C21.0149 11.6261 20.9992 11.8685 20.9369 12.1009C20.8747 12.3333 20.7673 12.5511 20.6207 12.7419C20.4742 12.9327 20.2916 13.0928 20.0831 13.213C20.0324 13.242 19.9903 13.284 19.961 13.3345C19.9317 13.3851 19.9163 13.4425 19.9163 13.501C19.9163 13.5594 19.9317 13.6168 19.961 13.6674C19.9903 13.7179 20.0324 13.7599 20.0831 13.789C20.5037 14.0322 20.8106 14.4324 20.9362 14.9018C21.0618 15.3711 20.996 15.8711 20.7531 16.292L19.6481 18.208C19.5278 18.4164 19.3675 18.5992 19.1766 18.7457C18.9856 18.8923 18.7676 18.9998 18.5351 19.0621C18.3026 19.1244 18.0601 19.1403 17.8214 19.1089C17.5827 19.0774 17.3526 18.9993 17.1441 18.879C17.0935 18.8496 17.0361 18.8341 16.9776 18.8341C16.9191 18.834 16.8616 18.8493 16.8109 18.8785C16.7602 18.9077 16.7181 18.9497 16.6889 19.0004C16.6596 19.051 16.6441 19.1085 16.6441 19.167C16.6441 20.18 15.8241 21 14.8121 21H12.6001C12.1142 21 11.6481 20.807 11.3044 20.4634C10.9606 20.1199 10.7674 19.6539 10.7671 19.168C10.7671 19.1095 10.7517 19.052 10.7224 19.0014C10.6931 18.9507 10.651 18.9087 10.6003 18.8795C10.5497 18.8503 10.4922 18.835 10.4337 18.8351C10.3752 18.8351 10.3177 18.8506 10.2671 18.88C9.8462 19.1227 9.34608 19.1884 8.87673 19.0626C8.40737 18.9368 8.00719 18.6297 7.76413 18.209L6.65813 16.294Z" stroke="#720C20" stroke-width="0.6"/>
</svg>
