<svg width="123" height="123" viewBox="0 0 123 123" fill="none" xmlns="http://www.w3.org/2000/svg">
<g clip-path="url(#clip0_10077_13009)">
<rect width="123" height="123" rx="61.5" fill="#E1E1E1"/>
<path d="M61.6156 61.6918C66.5988 61.6918 71.3779 59.7122 74.9016 56.1885C78.4252 52.6649 80.4048 47.8857 80.4048 42.9025C80.4048 37.9193 78.4252 33.1402 74.9016 29.6165C71.3779 26.0929 66.5988 24.1133 61.6156 24.1133C56.6323 24.1133 51.8532 26.0929 48.3296 29.6165C44.8059 33.1402 42.8263 37.9193 42.8263 42.9025C42.8263 47.8857 44.8059 52.6649 48.3296 56.1885C51.8532 59.7122 56.6323 61.6918 61.6156 61.6918ZM54.9072 68.7377C40.4483 68.7377 28.7344 80.4517 28.7344 94.9106C28.7344 97.318 30.6867 99.2703 33.0941 99.2703H90.1371C92.5444 99.2703 94.4968 97.318 94.4968 94.9106C94.4968 80.4517 82.7828 68.7377 68.3239 68.7377H54.9072Z" fill="#C3C3C3" fill-opacity="0.5"/>
<circle cx="61.5" cy="61.5" r="61.5" fill="black" fill-opacity="0.5"/>
</g>
<defs>
<clipPath id="clip0_10077_13009">
<rect width="123" height="123" rx="61.5" fill="white"/>
</clipPath>
</defs>
</svg>
