<svg width="123" height="123" viewBox="0 0 123 123" fill="none" xmlns="http://www.w3.org/2000/svg">
<g clip-path="url(#clip0_8734_63021)">
<rect width="123" height="123" rx="61.5" fill="#E1E1E1"/>
<path d="M61.6156 61.6918C66.5988 61.6918 71.3779 59.7122 74.9016 56.1885C78.4252 52.6649 80.4048 47.8857 80.4048 42.9025C80.4048 37.9193 78.4252 33.1402 74.9016 29.6165C71.3779 26.0929 66.5988 24.1133 61.6156 24.1133C56.6323 24.1133 51.8532 26.0929 48.3296 29.6165C44.8059 33.1402 42.8263 37.9193 42.8263 42.9025C42.8263 47.8857 44.8059 52.6649 48.3296 56.1885C51.8532 59.7122 56.6323 61.6918 61.6156 61.6918ZM54.9072 68.7377C40.4483 68.7377 28.7344 80.4517 28.7344 94.9106C28.7344 97.318 30.6867 99.2703 33.0941 99.2703H90.1371C92.5444 99.2703 94.4968 97.318 94.4968 94.9106C94.4968 80.4517 82.7828 68.7377 68.3239 68.7377H54.9072Z" fill="#C3C3C3" fill-opacity="0.5"/>
<circle cx="61.5" cy="61.5" r="61.5" fill="black" fill-opacity="0.5"/>
<rect x="26.45" y="37.45" width="71.1" height="47.9716" rx="5.00101" fill="white" fill-opacity="0.1"/>
<rect x="26.45" y="37.45" width="71.1" height="47.9716" rx="5.00101" stroke="white" stroke-width="0.9" stroke-dasharray="2.73 2.73"/>
<path d="M66.192 51.5905H62.6979V55.0845C62.6979 55.2699 62.6243 55.4476 62.4932 55.5787C62.3622 55.7097 62.1844 55.7834 61.9991 55.7834C61.8138 55.7834 61.636 55.7097 61.505 55.5787C61.3739 55.4476 61.3003 55.2699 61.3003 55.0845V51.5905H57.8062C57.6209 51.5905 57.4432 51.5169 57.3121 51.3858C57.181 51.2548 57.1074 51.077 57.1074 50.8917C57.1074 50.7063 57.181 50.5286 57.3121 50.3975C57.4432 50.2665 57.6209 50.1929 57.8062 50.1929H61.3003V46.6988C61.3003 46.5135 61.3739 46.3357 61.505 46.2047C61.636 46.0736 61.8138 46 61.9991 46C62.1844 46 62.3622 46.0736 62.4932 46.2047C62.6243 46.3357 62.6979 46.5135 62.6979 46.6988V50.1929H66.192C66.3773 50.1929 66.5551 50.2665 66.6861 50.3975C66.8172 50.5286 66.8908 50.7063 66.8908 50.8917C66.8908 51.077 66.8172 51.2548 66.6861 51.3858C66.5551 51.5169 66.3773 51.5905 66.192 51.5905Z" fill="white" stroke="white" stroke-width="0.4"/>
<path d="M45.8566 63.6893H47.3978V70.386C47.3978 71.0986 47.2304 71.73 46.8957 72.2802C46.5609 72.8271 46.0903 73.2579 45.4838 73.5728C44.8772 73.8844 44.1663 74.0401 43.3509 74.0401C42.5389 74.0401 41.8296 73.8844 41.2231 73.5728C40.6166 73.2579 40.1459 72.8271 39.8112 72.2802C39.4764 71.73 39.309 71.0986 39.309 70.386V63.6893H40.8453V70.2617C40.8453 70.7224 40.9463 71.1317 41.1485 71.4897C41.354 71.8477 41.644 72.1294 42.0186 72.3349C42.3931 72.5371 42.8372 72.6381 43.3509 72.6381C43.868 72.6381 44.3138 72.5371 44.6883 72.3349C45.0661 72.1294 45.3545 71.8477 45.5534 71.4897C45.7555 71.1317 45.8566 70.7224 45.8566 70.2617V63.6893ZM49.512 76.7347V66.2347H50.9637V67.4727H51.088C51.1742 67.3136 51.2984 67.1296 51.4608 66.9208C51.6233 66.712 51.8486 66.5297 52.137 66.3739C52.4253 66.2148 52.8065 66.1353 53.2805 66.1353C53.8969 66.1353 54.4471 66.2911 54.931 66.6026C55.4149 66.9142 55.7944 67.3633 56.0695 67.9499C56.3479 68.5366 56.4871 69.2425 56.4871 70.0678C56.4871 70.8931 56.3496 71.6007 56.0745 72.1907C55.7994 72.7773 55.4215 73.2298 54.941 73.5479C54.4604 73.8628 53.9118 74.0202 53.2954 74.0202C52.8314 74.0202 52.4519 73.9424 52.1569 73.7866C51.8652 73.6308 51.6365 73.4485 51.4708 73.2397C51.3051 73.0309 51.1775 72.8453 51.088 72.6829H50.9985V76.7347H49.512ZM50.9687 70.0529C50.9687 70.5898 51.0465 71.0605 51.2023 71.4648C51.3581 71.8692 51.5835 72.1857 51.8785 72.4144C52.1734 72.6398 52.5347 72.7525 52.9623 72.7525C53.4064 72.7525 53.7776 72.6348 54.0759 72.3995C54.3742 72.1609 54.5996 71.8377 54.752 71.43C54.9078 71.0224 54.9857 70.5633 54.9857 70.0529C54.9857 69.5491 54.9095 69.0967 54.757 68.6957C54.6079 68.2946 54.3825 67.9781 54.0809 67.7461C53.7826 67.5141 53.4097 67.3981 52.9623 67.3981C52.5314 67.3981 52.1668 67.5091 51.8685 67.7312C51.5735 67.9532 51.3498 68.2631 51.1974 68.6609C51.0449 69.0586 50.9687 69.5226 50.9687 70.0529ZM59.6391 63.6893V73.8711H58.1526V63.6893H59.6391ZM64.8556 74.0252C64.1396 74.0252 63.5149 73.8612 62.9813 73.533C62.4477 73.2049 62.0334 72.7459 61.7384 72.1559C61.4434 71.5659 61.2959 70.8765 61.2959 70.0877C61.2959 69.2956 61.4434 68.6029 61.7384 68.0096C62.0334 67.4163 62.4477 66.9556 62.9813 66.6275C63.5149 66.2994 64.1396 66.1353 64.8556 66.1353C65.5715 66.1353 66.1962 66.2994 66.7298 66.6275C67.2635 66.9556 67.6778 67.4163 67.9727 68.0096C68.2677 68.6029 68.4152 69.2956 68.4152 70.0877C68.4152 70.8765 68.2677 71.5659 67.9727 72.1559C67.6778 72.7459 67.2635 73.2049 66.7298 73.533C66.1962 73.8612 65.5715 74.0252 64.8556 74.0252ZM64.8605 72.7773C65.3245 72.7773 65.709 72.6547 66.0139 72.4094C66.3189 72.1642 66.5442 71.8377 66.6901 71.43C66.8392 71.0224 66.9138 70.5733 66.9138 70.0827C66.9138 69.5955 66.8392 69.1481 66.6901 68.7404C66.5442 68.3294 66.3189 67.9996 66.0139 67.7511C65.709 67.5025 65.3245 67.3782 64.8605 67.3782C64.3932 67.3782 64.0054 67.5025 63.6972 67.7511C63.3923 67.9996 63.1652 68.3294 63.0161 68.7404C62.8702 69.1481 62.7973 69.5955 62.7973 70.0827C62.7973 70.5733 62.8702 71.0224 63.0161 71.43C63.1652 71.8377 63.3923 72.1642 63.6972 72.4094C64.0054 72.6547 64.3932 72.7773 64.8605 72.7773ZM72.2968 74.0401C71.8129 74.0401 71.3754 73.9506 70.9843 73.7717C70.5932 73.5894 70.2833 73.3259 70.0546 72.9812C69.8292 72.6365 69.7165 72.2139 69.7165 71.7134C69.7165 71.2826 69.7994 70.9279 69.9651 70.6495C70.1308 70.3711 70.3546 70.1507 70.6363 69.9883C70.918 69.8259 71.2329 69.7032 71.5809 69.6204C71.9289 69.5375 72.2835 69.4746 72.6448 69.4315C73.1022 69.3784 73.4734 69.3353 73.7584 69.3022C74.0435 69.2657 74.2506 69.2077 74.3799 69.1282C74.5091 69.0487 74.5738 68.9194 74.5738 68.7404V68.7056C74.5738 68.2714 74.4511 67.935 74.2059 67.6964C73.9639 67.4577 73.6027 67.3384 73.1221 67.3384C72.6216 67.3384 72.2272 67.4495 71.9388 67.6715C71.6538 67.8903 71.4566 68.1339 71.3472 68.4023L69.9502 68.0842C70.1159 67.6201 70.3579 67.2456 70.676 66.9606C70.9975 66.6722 71.3671 66.4634 71.7847 66.3342C72.2023 66.2016 72.6415 66.1353 73.1022 66.1353C73.4071 66.1353 73.7303 66.1718 74.0716 66.2447C74.4163 66.3143 74.7378 66.4435 75.0361 66.6325C75.3377 66.8214 75.5847 67.0915 75.7769 67.4428C75.9691 67.7908 76.0653 68.2433 76.0653 68.8001V73.8711H74.6135V72.8271H74.5539C74.4578 73.0193 74.3136 73.2082 74.1214 73.3938C73.9291 73.5794 73.6822 73.7335 73.3806 73.8562C73.079 73.9788 72.7177 74.0401 72.2968 74.0401ZM72.6199 72.8469C73.0309 72.8469 73.3823 72.7657 73.6739 72.6033C73.9689 72.4409 74.1926 72.2288 74.3451 71.967C74.5009 71.7018 74.5787 71.4184 74.5787 71.1168V70.1325C74.5257 70.1855 74.423 70.2352 74.2705 70.2816C74.1214 70.3247 73.9507 70.3628 73.7584 70.396C73.5662 70.4258 73.3789 70.454 73.1966 70.4805C73.0144 70.5037 72.8619 70.5236 72.7393 70.5401C72.4509 70.5766 72.1874 70.6379 71.9488 70.7241C71.7135 70.8103 71.5245 70.9345 71.382 71.0969C71.2428 71.256 71.1732 71.4682 71.1732 71.7333C71.1732 72.1012 71.3091 72.3796 71.5809 72.5685C71.8527 72.7541 72.199 72.8469 72.6199 72.8469ZM80.9039 74.0202C80.2874 74.0202 79.7372 73.8628 79.2533 73.5479C78.7727 73.2298 78.3949 72.7773 78.1198 72.1907C77.848 71.6007 77.7121 70.8931 77.7121 70.0678C77.7121 69.2425 77.8496 68.5366 78.1247 67.9499C78.4031 67.3633 78.7843 66.9142 79.2682 66.6026C79.7521 66.2911 80.3006 66.1353 80.9138 66.1353C81.3878 66.1353 81.7689 66.2148 82.0573 66.3739C82.3489 66.5297 82.5743 66.712 82.7334 66.9208C82.8958 67.1296 83.0218 67.3136 83.1112 67.4727H83.2007V63.6893H84.6872V73.8711H83.2355V72.6829H83.1112C83.0218 72.8453 82.8925 73.0309 82.7235 73.2397C82.5577 73.4485 82.329 73.6308 82.0374 73.7866C81.7457 73.9424 81.3679 74.0202 80.9039 74.0202ZM81.232 72.7525C81.6595 72.7525 82.0208 72.6398 82.3158 72.4144C82.6141 72.1857 82.8395 71.8692 82.9919 71.4648C83.1477 71.0605 83.2256 70.5898 83.2256 70.0529C83.2256 69.5226 83.1494 69.0586 82.9969 68.6609C82.8444 68.2631 82.6207 67.9532 82.3257 67.7312C82.0307 67.5091 81.6662 67.3981 81.232 67.3981C80.7845 67.3981 80.4117 67.5141 80.1134 67.7461C79.8151 67.9781 79.5897 68.2946 79.4372 68.6957C79.2881 69.0967 79.2135 69.5491 79.2135 70.0529C79.2135 70.5633 79.2897 71.0224 79.4422 71.43C79.5947 71.8377 79.82 72.1609 80.1183 72.3995C80.42 72.6348 80.7912 72.7525 81.232 72.7525Z" fill="white"/>
</g>
<defs>
<clipPath id="clip0_8734_63021">
<rect width="123" height="123" rx="61.5" fill="white"/>
</clipPath>
</defs>
</svg>
