<svg width="12" height="12" viewBox="0 0 12 12" fill="none" xmlns="http://www.w3.org/2000/svg">
<path d="M1.33398 11.3333V10.6667C1.33398 9.42899 1.82565 8.242 2.70082 7.36683C3.57599 6.49167 4.76297 6 6.00065 6M6.00065 6C7.23833 6 8.42531 6.49167 9.30048 7.36683C10.1757 8.242 10.6673 9.42899 10.6673 10.6667V11.3333M6.00065 6C6.7079 6 7.38617 5.71905 7.88627 5.21895C8.38637 4.71885 8.66732 4.04058 8.66732 3.33333C8.66732 2.62609 8.38637 1.94781 7.88627 1.44771C7.38617 0.947617 6.7079 0.666666 6.00065 0.666666C5.29341 0.666666 4.61513 0.947617 4.11503 1.44771C3.61494 1.94781 3.33398 2.62609 3.33398 3.33333C3.33398 4.04058 3.61494 4.71885 4.11503 5.21895C4.61513 5.71905 5.29341 6 6.00065 6Z" stroke="#720D21" stroke-linecap="round" stroke-linejoin="round"/>
</svg>
