<svg width="16" height="16" viewBox="0 0 16 16" fill="none" xmlns="http://www.w3.org/2000/svg">
<path d="M3.33398 13.3333V12.6667C3.33398 11.429 3.82565 10.242 4.70082 9.36683C5.57599 8.49166 6.76297 8 8.00065 8M8.00065 8C9.23833 8 10.4253 8.49166 11.3005 9.36683C12.1757 10.242 12.6673 11.429 12.6673 12.6667V13.3333M8.00065 8C8.7079 8 9.38617 7.71905 9.88627 7.21895C10.3864 6.71885 10.6673 6.04057 10.6673 5.33333C10.6673 4.62609 10.3864 3.94781 9.88627 3.44771C9.38617 2.94762 8.7079 2.66666 8.00065 2.66666C7.29341 2.66666 6.61513 2.94762 6.11503 3.44771C5.61494 3.94781 5.33398 4.62609 5.33398 5.33333C5.33398 6.04057 5.61494 6.71885 6.11503 7.21895C6.61513 7.71905 7.29341 8 8.00065 8Z" stroke="#333333" stroke-linecap="round" stroke-linejoin="round"/>
</svg>
