<svg width="16" height="16" viewBox="0 0 16 16" fill="none" xmlns="http://www.w3.org/2000/svg">
<path d="M3.33203 13.3333V12.6667C3.33203 11.429 3.8237 10.242 4.69887 9.36683C5.57404 8.49167 6.76102 8 7.9987 8M7.9987 8C9.23638 8 10.4234 8.49167 11.2985 9.36683C12.1737 10.242 12.6654 11.429 12.6654 12.6667V13.3333M7.9987 8C8.70594 8 9.38422 7.71905 9.88432 7.21895C10.3844 6.71885 10.6654 6.04058 10.6654 5.33333C10.6654 4.62609 10.3844 3.94781 9.88432 3.44771C9.38422 2.94762 8.70594 2.66667 7.9987 2.66667C7.29145 2.66667 6.61318 2.94762 6.11308 3.44771C5.61298 3.94781 5.33203 4.62609 5.33203 5.33333C5.33203 6.04058 5.61298 6.71885 6.11308 7.21895C6.61318 7.71905 7.29145 8 7.9987 8Z" stroke="#720D21" stroke-linecap="round" stroke-linejoin="round"/>
</svg>
